/* XPM */
static char *heath_01730233467[] = {
/* columns rows colors chars-per-pixel */
"100 50 163 2 ",
"   c #3F3851",
".  c #483752",
"X  c #463951",
"o  c #4C3A51",
"O  c #563755",
"+  c #5C3755",
"@  c #513C52",
"#  c #5C3C51",
"$  c #693C4F",
"%  c #763E4F",
"&  c #7D3F4F",
"*  c #643756",
"=  c #643D52",
"-  c #6A3C50",
";  c #6D3758",
":  c #763A54",
">  c #7E3B55",
",  c #763659",
"<  c #48425A",
"1  c #664554",
"2  c #6E4252",
"3  c #604B5A",
"4  c #684A58",
"5  c #764352",
"6  c #734C57",
"7  c #784955",
"8  c #7A4D58",
"9  c #6B545D",
"0  c #7C535B",
"q  c #7A595F",
"w  c #504C63",
"e  c #6E5C62",
"r  c #626175",
"t  c #843F4F",
"y  c #823D53",
"u  c #8E3A57",
"i  c #81365A",
"p  c #8A365B",
"a  c #853859",
"s  c #943B56",
"d  c #9D3D55",
"f  c #923958",
"g  c #A23D55",
"h  c #93424E",
"j  c #994550",
"k  c #924953",
"l  c #9D4D53",
"z  c #9C5056",
"x  c #9F5459",
"c  c #A1434F",
"v  c #AE444E",
"b  c #A5494F",
"n  c #B3494F",
"m  c #A44452",
"M  c #A94250",
"N  c #AD4F53",
"B  c #B44D51",
"V  c #AF5352",
"C  c #B65053",
"Z  c #BD5654",
"A  c #B05658",
"S  c #B15B5B",
"D  c #A9645E",
"F  c #B8655D",
"G  c #805F62",
"H  c #826464",
"J  c #866E6B",
"K  c #A46463",
"L  c #B96D65",
"P  c #C05354",
"I  c #C25C57",
"U  c #D25654",
"Y  c #D45B57",
"T  c #C4625A",
"R  c #C96A5E",
"E  c #D6615A",
"W  c #D8655D",
"Q  c #CA6D62",
"!  c #DC6F64",
"~  c #CD7363",
"^  c #CE7669",
"/  c #C57A69",
"(  c #D27665",
")  c #DE7467",
"_  c #DF7768",
"`  c #D07E6E",
"'  c #E27F6D",
"]  c #D4826E",
"[  c #C18773",
"{  c #D68771",
"}  c #D79479",
"|  c #DA9D7E",
" . c #E3826F",
".. c #E48671",
"X. c #E68A73",
"o. c #E79076",
"O. c #E89177",
"+. c #E99578",
"@. c #EB9A7C",
"#. c #EDA27F",
"$. c #747587",
"%. c #7B7F91",
"&. c #807F8F",
"*. c #858999",
"=. c #8E909E",
"-. c #9696A3",
";. c #969DAC",
":. c #A4A8B4",
">. c #ACAEB8",
",. c #A9B2BE",
"<. c #DCA181",
"1. c #DFAB86",
"2. c #EEA582",
"3. c #EFA883",
"4. c #E0AE88",
"5. c #F0AC85",
"6. c #E1B089",
"7. c #E3B88E",
"8. c #F3B389",
"9. c #F5BB8E",
"0. c #E4BC93",
"q. c #E5C59B",
"w. c #F7C091",
"e. c #F8C393",
"r. c #FBCA97",
"t. c #FBCD9A",
"y. c #FCD19E",
"u. c #E6CAA0",
"i. c #E7D3AA",
"p. c #FCD5A3",
"a. c #FDDAA7",
"s. c #FEDEAB",
"d. c #E7D8B4",
"f. c #E7DDBE",
"g. c #FEE2AF",
"h. c #FEE5B5",
"j. c #FFEAB7",
"k. c #FEE7BC",
"l. c #FEE9BD",
"z. c #B5B8C2",
"x. c #BBC2CC",
"c. c #B3C4D2",
"v. c #BAC7D0",
"b. c #C2C5CC",
"n. c #C4CDD4",
"m. c #CAD3DA",
"M. c #E7DFC2",
"N. c #E7E1C5",
"B. c #FEECC2",
"V. c #FFF0C2",
"C. c #FFF5CB",
"Z. c #FFF9D5",
"A. c #CBDBE2",
"S. c #D8DEE2",
"D. c #D4E1E7",
"F. c #D8E3E8",
"G. c #D9E5EB",
"H. c #DDE9ED",
"J. c #E0E7EB",
"K. c #E2EAED",
"L. c #E5EEF1",
"P. c #E7F0F2",
"I. c #EEF5F6",
/* pixels */
"} | 7.u.i.N.f.i.i.i.7.4.} 3 X ^ ` } 6.7.i.i.i.f.M.i.i.i.0.7.7.4.} ` L   e } 4.0.i.i.i.f.N.i.q.7.| [ } | 7.q.i.N.f.i.i.i.7.4.} 3   ^ ] } 6.0.i.i.i.f.M.i.i.i.0.7.7.1.} ` L   q } 6.0.i.i.i.f.f.i.q.7.| [ ",
"5.9.r.a.h.B.k.g.g.g.r.9.5.9   ' o.5.e.r.g.h.h.l.B.g.g.g.y.r.r.9.5.X.^   H 5.w.t.g.g.g.B.B.g.p.r.8.| 5.9.r.a.g.V.k.h.g.g.r.w.5.9   ' X.5.w.r.g.g.g.B.B.g.g.g.y.t.r.9.5...^ X q 5.w.t.g.g.h.l.B.g.p.r.8.| ",
"r.r.r.r.r.r.r.r.r.r.r.r.r.e   ' 2.e.r.e.r.r.r.r.r.r.r.r.r.r.r.r.r.O.(   J r.r.r.r.r.r.r.r.r.r.r.r.7.r.r.r.r.r.r.r.r.r.r.r.r.r.9   ' @.r.r.r.r.r.r.r.r.r.r.r.r.r.r.r.r.O.^   J y.r.r.r.r.r.r.r.r.r.r.r.7.",
"r.r.r.r.r.r.r.r.r.r.r.r.r.e   ' @.r.r.t.r.r.r.r.r.r.r.r.r.r.r.r.r.O.^ X J r.r.r.r.r.r.r.r.r.r.r.r.7.r.r.r.r.r.r.r.r.r.r.r.r.r.e   ' @.t.r.r.r.r.r.r.r.r.r.r.r.r.r.r.r.O.^   J r.r.r.r.r.r.r.r.r.r.r.r.7.",
"r.r.r.r.r.r.r.r.r.r.r.r.r.e   ' 2.e.r.t.r.r.r.r.r.r.r.r.r.r.r.r.r.o.^   J r.r.r.r.r.r.r.r.r.r.r.r.7.r.r.r.r.r.r.r.r.r.r.r.r.r.e   ' @.t.r.r.r.r.r.r.r.r.r.r.r.r.r.r.r.+.^   J r.r.r.r.r.r.r.r.r.r.r.r.7.",
"r.r.r.r.r.r.r.r.r.r.r.r.r.e   ' o.2.9.t.r.r.r.r.r.r.r.r.r.r.r.9.2.X.^   J r.r.r.r.r.r.r.r.r.r.r.r.7.r.r.r.r.r.r.r.r.r.r.r.r.r.e   ' X.3.9.r.r.r.r.r.r.r.r.r.r.r.r.9.2.X.^   J r.r.r.r.r.r.r.r.r.r.r.r.7.",
"w.w.r.r.r.r.r.r.r.r.r.r.w.9   ' X.@.8.9.r.r.r.r.r.r.r.r.r.r.w.8.+.X.^   J w.r.r.r.r.r.r.r.r.r.r.w.6.w.w.r.r.r.r.r.r.r.r.r.r.e.e    .X.+.9.9.r.r.r.r.r.r.r.r.r.r.w.8.+.X.^   J w.r.r.r.t.r.r.r.r.r.r.e.6.",
"#.8.r.r.r.r.r.r.r.r.r.9.#.9   ' ' ' @.2.r.r.r.t.r.r.r.r.r.w.#.+.'  .^ X G #.w.r.r.r.r.r.r.r.r.r.5.} #.8.r.r.r.r.r.r.r.r.r.9.#.9   ' ' ' @.2.r.t.r.r.r.r.r.r.r.e.#.+. . .^ X q #.w.r.r.r.r.r.r.r.r.r.5.} ",
"o.#.9.w.r.r.r.r.r.r.9.3.o.4    .' ' X.o.2.2.2.2.2.2.2.2.2.#.O...' ' ^   q o.5.9.r.r.r.r.r.r.w.8.@.] o.#.8.e.r.r.r.r.r.r.9.#.O.9   ' ' ' X.O.2.2.2.2.2.2.2.2.2.2.o.X.' ' ^   q O.5.9.r.r.r.r.r.r.w.9.+.{ ",
"' ..#.9.r.r.r.r.r.r.#.+. .4   ' ' ' ' ' ' ' ' ' ' ' ' ' ' '  .' ' ' ^   0 ' @.2.r.r.r.r.r.r.9.#...^ ' ..#.9.r.r.r.r.r.r.#.+.' 4    .' ' ' ' ' ' ' ' ' ' ' ' ' ' ] ' ' ' ^   0 ' @.2.r.r.r.r.r.r.8.#.X.^ ",
"'  . .....X.....X.X. . .' 4   Y ! _ ' ' ' ' ' ' ' ' ' ' ' ' ' ' _ W P   0 ' ' ....X...X....... . .^  . . ............... . .' 4   U ! ' '  .' ' ' ' _ ' ' ' ' ' ' ' ' W Z   0 '  . . .X........... . .^ ",
") _ ' ' '  .' '  ._  ._ ) 1   V S L L L L L L L L L L L L L L L L A l   8 ) ' ' ' ' ' ' ' ' '  ._ Q ) _  . .' '  .'  .' ' ' ) 1   N A L L L L L L L L L L L L L L L L A l X 8 ) ' ' '  .'  . .' _  ._ Q ",
"U W ' ' ' ' ' ' ' ' ' ! U 1                                             7 U ) ' ' ' ' ' ' ' ' ' E Z U E  ._  . .'  . . .' ) U =                                 X           5 U ) '  .' ' ' ' '  . .E Z ",
"5 7 0 0 0 0 0 0 0 0 0 7 5 o                                             o 7 8 0 0 0 0 0 0 0 0 0 7 2 5 7 0 0 0 0 0 0 8 8 0 7 5 @                                             @ 5 8 0 0 0 0 0 0 0 0 0 7 2 ",
"                X               X     X                                         X                                   X                       X                                   X                       ",
"^ ^ ^ ^ ^ ^ ^ ^ ^ ^ Z k         O , u s j d f i , X + , s s j                                                                             f j d f i ,   O i u s c d s i ,       b Z ^ ^ ^ ^ ^ ^ ^ ( L D ",
"....O.O.O.....' ' ' Y N         O p d g v M g f t . + p d : o x.n.S.S.S.S.S.S.S.S.S.S.S.S.S.S.F.S.S.F.S.D.S.S.S.S.F.S.S.S.S.S.S.S.S.S.x.,.X % v d s a X O p g g v M g f a       A W ' '  .....O.o.+.` / ",
"#.8.r.r.r.#.+.' ' '  .K         * d M v v v M g t   $ d g %   S.H.I.I.I.I.I.I.I.I.I.I.I.I.I.I.I.I.I.I.I.I.I.I.I.I.I.I.I.I.I.I.I.I.I.I.S.v.  5 v v d s   * d v v v v v g f       L '  . .' +.2.r.r.r.8.} ",
"9.w.r.r.r.9.5.+...' ' K         o * = = - - - = #   X $ $ @ X I.I.I.I.I.I.I.I.I.I.I.I.I.I.I.I.I.I.I.I.I.I.I.I.I.I.I.I.P.I.I.I.I.I.I.I.I.I.  < 2 $ $ #   . - = $ - - - = O X     L ' ' ..+.8.9.t.r.r.9.1.",
"r.r.r.r.r.r.9.2...' ' K               X       X       < X     P.I.I.I.m.&.&.&.&.,.G.I.b.&.&.&.&.b.I.&.&.&.&.&.&.b.J.*.%.*.&.:.F.I.I.I.I.I.  X X                                 L ' ' o.2.9.r.r.r.r.r.7.",
"r.r.r.r.r.r.9.#... .' K             , > j b C F F L F V b $ X I.I.I.I.b.      w *.v.I.>.      w ,.I.      w <   >.S.    X w $.x.P.I.I.I.I.  $ b N F F L F V b j , ;             L ' ' X.2.9.t.r.r.r.r.7.",
"p.p.r.r.r.r.9.5...' ' K             > f v B I Q ~ ~ R I n %   I.I.I.I.b.      A.*.  S.>.    w m.L.I.      v.,.  >.S.      m.;.  b.I.I.I.I.X % V I R ~ ~ R T n v f ,             L ' ..+.5.9.t.r.r.r.p.u.",
"Z.B.r.r.r.r.r.r.O.' ' K             h v v Z ~ ~ ~ ~ ~ ~ V &   I.I.I.I.b.      G.=.  S.>.X   < *.n.I.X     %.$.  >.S.      G.:.  b.I.I.I.I.  % Z ~ ~ ~ ~ ~ ~ C v v t             L ' ' 2.r.r.r.r.r.r.B.N.",
"B.g.r.r.r.r.r.r.o.' ' K             > s v n T ~ ~ ~ R T n % X I.I.I.I.b.      I.-.  S.>.        >.I.X           >.S.      I.>.  b.P.I.I.I.  & B T R ~ ~ R T n v s :             L ' ' 2.r.r.r.r.r.r.h.d.",
"k.s.r.r.r.r.r.r.+.' ' K             , p v n P R ~ ~ T Z n %   I.I.I.I.b.      I.-.  S.>.        ,.I.            >.S.      I.>.  b.I.I.I.I.< % n P R ~ ~ R P v v p ;             L _ ..2.t.r.r.r.r.r.g.i.",
"t.t.r.r.r.r.r.r.O. .' K             X . o o < @ 1 o < < o X   P.I.I.I.b.      I.-.  S.>.        >.I.            >.S.      I.>.  b.I.I.I.I.  X o < @ < o @ o o o . X             L ' ' 2.r.r.r.r.r.r.t.0.",
"y.y.r.r.r.r.r.r.O.' ' K       @ O # O # # # # 1 #   o $ # o < I.I.I.I.b.      I.-.  S.>.        >.I.            >.S.    X I.>.  b.I.I.I.I.  o # $ # # X X 1 1 @ # # # @ O       L  .' 2.r.r.r.r.r.r.t.0.",
"j.s.r.r.r.r.r.r.O.' ' K       p s v v M v n Z n c   2 Z v %   I.I.I.I.b.      F.*.  S.>.    < ,.F.I.      ;.=.  >.S.      S.;.  b.I.I.I.I.  % n Z n j   2 Z n v v v v u ,       L ' ' 2.r.r.r.r.r.r.h.i.",
"p.y.r.r.r.r.w.8.X. .' K X     d m v v v v C R T V   6 R n %   P.I.I.I.b.      ,.*.r J.>.    w ,.m.I.X     v.z.  >.S.      ,.*.r n.I.I.I.I.  % V T T Z   6 R B v v v v g s       L  .' @.8.e.r.r.r.r.p.0.",
"r.r.r.r.r.r.9.#...' ' K       v v v v v v Z ~ ~ F   6 ~ V % X I.I.I.I.b.        *.A.I.>.        >.I.    X S.b.  >.S.        $.m.P.I.I.I.I.  % Z ~ ~ F   6 ~ C v v v v v c X     L ' ' X.#.w.r.r.r.r.r.7.",
"r.r.r.r.r.r.9.#... .' K       a s v v v v n I n b   1 Z n %   I.I.I.I.J.>.>.>.>.n.H.I.S.>.>.>.>.S.I.>.>.>.K.J.>.S.J.>.>.>.>.x.L.P.I.I.I.I.  % n Z b b   2 Z v v v v v s ,       L '  .o.#.w.r.r.r.r.r.7.",
"w.e.r.r.r.w.8.+. . .' K       , y s h h h h l h h   1 l j $   I.I.I.I.I.I.I.I.I.I.I.I.I.I.I.I.I.I.I.I.I.I.I.I.I.I.I.I.I.I.I.I.I.I.I.I.I.I.  $ l l k h   2 l h h h h s > ,       L ' ' o.+.8.w.r.r.r.w.4.",
"2.8.r.t.r.2.+.' ' ' ' K                                   X   m.G.I.I.I.I.I.I.I.I.I.I.I.I.I.I.I.I.I.I.I.I.I.I.I.I.I.I.I.I.I.I.I.I.I.I.A.c.                                      L ' ' ' ' +.3.t.r.r.5.} ",
"X.X.@.@.@.X...' ' ' E x             * ; t t t t t t t t h 5 * *.=.-.-.-.-.-.-.-.-.-.-.-.-.-.-.-.-.-.-.-.-.-.:.H.L.I.I.H.A.-.-.-.-.-.-.*.%.+ & t t t t t t t t t ; O             A ! ' '  ...X.@.@.#.{ / ",
" .' ' ' ' ' ' ' '  .U l             , p v v v v v v v v c c p ;             V Y ' ' ' ' ' ' ' ' ( F ' ' ' ' ' ' ' ' ' ' U l X           , p g v v v v v v v v c p ;             N U ' '  .' ' '  . .( F ",
"                                                          X                                     X               X                           X X             X                                     X     ",
"= 1 4 1 4 4 4 4 4 4 1 4 1 X                                             X 1 1 1 4 4 4 4 4 4 4 4 1 1 = 1 4 1 4 4 4 4 4 4 4 1 1 X                                             . = 1 4 4 4 4 4 4 4 4 4 1 = ",
"U W '  .' ' ' ' ' ' ' ! U =                                           X 5 U )  .' ' ' ' ' ' ' ' Y Z U W '  .' ' ' ' ' ' ' ! U =                                       X     5 U ) '  .' ' ' ' ' ' ' Y Z ",
"! ) ' ' ' ' ' ' ' ' ' _ ! 1   l x K K K K K K K K K K K K K K K K l h X 8 ! _  .' ' ' ' ' ' ' ' ) Q ! ) ' ' ' ' ' ' ' ' .._ ! 1   l x K K K K K K K K K K K K K K K K z k   8 ! _ ' ' ' ' ' ' ' ' ' ' T ",
"' ' ' ' ' ' ' ' ' ' '  .' 4   U W ' ' ' ' ' ' ' ' ' .._ ' ' ' ' _ E B X G ' ' ] ' ' ' ' ' ' ' ' ' ^ ' ' ' ' ' ' ' ' ' .._ ' ' 4   U W ' ' ' ' ' ' ' ' ' ' ' ' '  ._  .Y P   0 ' ' ' ' ' ' '  . .' ' ' ( ",
"' X.2.9.r.r.r.r.r.r.#.+. .4   ' ' ' _ ' ' ' ' '  . .' ' ' '  . . ._ ^   0  .@.#.r.r.r.r.r.r.9.#...^  ...2.9.r.r.r.r.r.r.2.+.' 4   ' ' ' ' ' ' ' ' ' '  .' ' '  . . ._  .^   0 ' +.2.r.r.r.r.r.r.8.2...^ ",
"X.+.5.9.r.r.r.r.r.r.5.@...4   ' ' ' ....O.O.o.O.o.o.o.o.O.o... . . .^   0 ..#.8.r.r.r.r.r.r.9.5.o.` X.+.5.9.r.r.r.r.r.t.2.@.X.4   ' ' ' ....O.o.O.O.o.O.o.o.o.o... . . .^   q X.2.8.r.r.r.r.r.r.9.5.O.` ",
"2.8.r.r.r.r.r.r.r.r.t.9.#.9   ' ' ' @.2.r.r.t.r.r.r.r.r.r.e.#.+. . .^   H #.w.r.r.r.r.r.r.r.r.r.5.} #.8.r.r.r.r.r.r.r.r.r.9.2.9   ' ' ' +.2.r.r.r.r.r.r.r.r.r.e.2.+._  .^   H #.w.r.r.r.r.r.r.r.r.r.5.} ",
"9.9.r.r.r.r.r.r.r.t.e.e.9.9    .X.+.8.9.r.r.r.r.r.r.r.r.r.r.9.5.+. .^   H 9.r.r.r.r.r.r.r.r.r.r.w.1.9.w.r.r.r.r.r.r.r.r.r.e.9.9   ' ..+.8.9.r.r.r.r.r.r.r.r.r.r.9.5.+...^ X H 9.e.r.r.r.r.r.r.r.r.r.9.4.",
"r.r.r.r.r.r.r.r.r.r.r.r.t.e   ' X.@.9.r.r.r.r.r.r.r.r.r.r.r.r.9.#...^   J r.r.r.r.r.r.r.r.r.r.r.r.7.r.r.r.r.r.r.r.r.r.r.r.r.r.e    .X.#.9.r.r.r.r.r.r.r.r.r.r.r.r.9.#...^   J r.r.r.r.r.r.r.r.r.r.r.r.7.",
"r.r.r.r.r.r.r.r.r.r.r.r.r.e   ' @.t.t.r.r.r.r.r.r.r.r.r.r.r.r.r.r.o.^   J r.r.r.r.r.r.r.r.r.r.r.r.7.r.r.r.r.r.r.r.r.r.r.r.r.t.e   ..@.t.r.r.r.r.r.r.r.r.r.r.r.r.r.r.t.o.^   J r.r.r.r.r.r.r.r.r.r.r.r.7.",
"r.r.r.r.r.r.r.r.r.r.r.r.r.e   ' @.t.r.r.r.r.r.r.r.r.r.r.r.r.r.r.r.o.^   J r.r.r.r.r.r.r.r.r.r.r.r.7.r.r.r.r.r.r.r.r.r.r.r.r.r.e   _ @.r.r.r.r.r.r.r.r.r.r.r.r.r.r.r.r.o.^   J r.r.r.r.r.r.r.r.r.r.r.r.7.",
"r.r.r.r.t.r.r.r.r.r.r.r.r.e X  .@.r.r.r.r.r.r.r.r.r.r.r.r.r.r.r.r.+.^   J r.r.r.r.r.r.r.r.r.r.r.r.7.r.r.r.r.r.r.r.r.r.r.r.r.r.e X  .@.r.r.r.r.r.r.r.r.r.r.r.r.r.r.r.r.o.^   J r.r.r.r.r.r.r.r.r.r.r.t.7.",
"8.9.r.p.g.k.h.s.s.s.r.w.8.9    .+.8.e.r.s.p.r.a.g.l.h.s.g.a.r.w.8.X.^   q 8.r.r.s.s.s.k.k.s.y.r.8.<.8.9.r.p.s.l.h.s.g.s.r.w.8.9   ' o.8.e.r.s.p.t.a.s.l.h.s.s.s.r.9.8.o.^   H 8.e.t.s.s.s.k.k.s.p.r.8.<.",
"#.5.r.s.k.Z.C.j.j.j.r.9.#.9   ' X.#.w.r.j.s.r.g.j.Z.C.k.j.h.r.9.#.X.^ X H #.w.t.j.j.j.C.Z.j.a.r.5.} #.8.r.s.j.Z.C.k.j.j.r.9.#.9 X  .X.#.w.r.j.s.r.g.l.Z.C.j.j.h.r.9.#...^   G #.w.t.j.j.j.C.Z.j.a.r.5.} "
};
