/* XPM */
static char *heath_21730238880[] = {
/* columns rows colors chars-per-pixel */
"100 50 202 2 ",
"   c #3F3851",
".  c #47204A",
"X  c #4E224B",
"o  c #56234B",
"O  c #463852",
"+  c #4C3A51",
"@  c #563754",
"#  c #523C53",
"$  c #5B3C51",
"%  c #68284D",
"&  c #73294D",
"*  c #6D3453",
"=  c #653D52",
"-  c #6A3954",
";  c #703452",
":  c #773B57",
">  c #743659",
",  c #5E3B60",
"<  c #52475D",
"1  c #654555",
"2  c #684555",
"3  c #684958",
"4  c #764352",
"5  c #784955",
"6  c #7A4D58",
"7  c #6B545D",
"8  c #7C535B",
"9  c #7A595F",
"0  c #575067",
"q  c #605166",
"w  c #6E5C62",
"e  c #6F5A69",
"r  c #795967",
"t  c #755677",
"y  c #7F626D",
"u  c #843F4F",
"i  c #843E56",
"p  c #81365A",
"a  c #8A365C",
"s  c #8A3958",
"d  c #913251",
"f  c #9F3351",
"g  c #943B56",
"h  c #973A57",
"j  c #AE3752",
"k  c #A23D55",
"l  c #A63F5A",
"z  c #B73A59",
"x  c #A23460",
"c  c #A63D65",
"v  c #D43E5B",
"b  c #C43464",
"n  c #93424E",
"m  c #984853",
"M  c #9E5358",
"N  c #A1434F",
"B  c #AE444E",
"V  c #B34A4F",
"C  c #A64753",
"Z  c #A94250",
"A  c #B74755",
"S  c #AF5352",
"D  c #AC535F",
"F  c #BE5553",
"G  c #B25658",
"H  c #AE645D",
"J  c #894A66",
"K  c #855367",
"L  c #805F62",
"P  c #945369",
"I  c #AA5460",
"U  c #836367",
"Y  c #866E6B",
"T  c #876C75",
"R  c #9D6E79",
"E  c #A46463",
"W  c #AD656B",
"Q  c #B96D65",
"!  c #B2767A",
"~  c #C84C5C",
"^  c #C05355",
"/  c #C25B57",
"(  c #D25654",
")  c #D45B57",
"_  c #E04656",
"`  c #C7675C",
"'  c #D6605A",
"]  c #D8655D",
"[  c #D9685F",
"{  c #C05D64",
"}  c #CD5B62",
"|  c #D65C63",
" . c #CB6664",
".. c #D56667",
"X. c #DE6366",
"o. c #DC6F64",
"O. c #DA6B6A",
"+. c #CD7363",
"@. c #CE7669",
"#. c #C57968",
"$. c #DE7467",
"%. c #D6796A",
"&. c #C2717A",
"*. c #EB6569",
"=. c #E56D6A",
"-. c #E9716C",
";. c #E27F6D",
":. c #EB7770",
">. c #EC7B74",
",. c #D6826E",
"<. c #C18773",
"1. c #D68771",
"2. c #D79479",
"3. c #DA9D7E",
"4. c #E3826F",
"5. c #E48671",
"6. c #E68A73",
"7. c #EE847C",
"8. c #E79076",
"9. c #E89177",
"0. c #E99578",
"q. c #EB9A7C",
"w. c #EDA27F",
"e. c #7B7487",
"r. c #9F7B83",
"t. c #877E91",
"y. c #AB7985",
"u. c #B38588",
"i. c #B78E8D",
"p. c #B38992",
"a. c #A38CA3",
"s. c #AB9AA7",
"d. c #B596A6",
"f. c #BAA7BA",
"g. c #B9A8BA",
"h. c #CC878F",
"j. c #D48F92",
"k. c #CE9D97",
"l. c #CF9F99",
"z. c #F18D84",
"x. c #F4958A",
"c. c #F59A8E",
"v. c #E99A90",
"b. c #DCA181",
"n. c #DFAB86",
"m. c #DCA79E",
"M. c #EEA582",
"N. c #E6AC86",
"B. c #F0AC85",
"V. c #E1B089",
"C. c #E3B88E",
"Z. c #F3B389",
"A. c #F5BB8E",
"S. c #F7A296",
"D. c #F9AE9F",
"F. c #E4BC93",
"G. c #E9AEA4",
"H. c #E2AFAC",
"J. c #E7B3A9",
"K. c #E7B8AC",
"L. c #F9B6A7",
"P. c #F1B8AD",
"I. c #FDBAAA",
"U. c #E6B5B0",
"Y. c #E8BDB2",
"T. c #E4C49A",
"R. c #F7C091",
"E. c #F8C393",
"W. c #FBCA97",
"Q. c #FBCD9A",
"!. c #FCD19E",
"~. c #EEC7A5",
"^. c #E7D3AA",
"/. c #FCD5A3",
"(. c #FDDAA7",
"). c #FEDEAB",
"_. c #E8C3BA",
"`. c #E8C8BF",
"'. c #FFC2B1",
"]. c #F4C5B9",
"[. c #FFCCBC",
"{. c #E7D8B4",
"}. c #E7DDBE",
"|. c #FEE2AF",
" X c #FEE5B5",
".X c #FFEAB7",
"XX c #FEE7BC",
"oX c #FEE9BD",
"OX c #CFC8D2",
"+X c #D1C2D0",
"@X c #E8CCC7",
"#X c #E7DCC3",
"$X c #E8D5D1",
"%X c #E8D8D5",
"&X c #E7E1C5",
"*X c #FEECC2",
"=X c #FFF0C2",
"-X c #FFF5CB",
";X c #FFF9D5",
":X c #E8DDE7",
">X c #E7E0E7",
",X c #FFF8FD",
/* pixels */
"2.3.C.~.^.&X}.^.^.^.C.n.2.3   #.,.2.n.C.^.^.^.}.#X^.^.^.F.C.C.V.2.%.Q   w 2.V.C.^.^.^.}.&X^.T.C.3.<.2.3.C.T.^.&X}.^.^.^.C.n.2.3   @.,.2.V.C.^.^.^.&X}.^.^.^.T.C.C.n.2.%.Q   w 2.V.T.^.^.^.}.&X^.T.C.3.<.",
"B.A.W.(.|.=XoX|.|.|.W.A.B.7   4.9.B.E.Q.|. X|.*X*X|.|.|.!.W.W.A.B.6.@.  U B.R.!.|.|.|.oX*X|./.W.Z.3.B.A.W.(. X=XoX|.|.|.W.A.Z.7   ;.6.B.E.W.|.|.|.oX*X|.|.|.Q.W.W.A.B.6.@.  U B.R.W.|.|.|.oXoX|.(.W.Z.3.",
"W.W.W.W.W.W.W.W.W.W.W.W.W.w   ;.q.W.W.W.W.W.W.W.W.W.W.W.W.W.W.W.W.9.@.  Y W.W.W.W.W.W.W.W.W.W.W.W.C.W.W.W.W.W.W.W.W.W.W.W.W.W.w   ;.q.W.W.W.W.W.W.W.W.W.W.W.W.W.W.W.W.9.@.  Y W.W.W.W.W.W.W.W.W.W.W.W.C.",
"W.W.W.W.W.W.W.W.W.W.W.W.W.w   ;.q.W.W.W.W.W.W.W.W.W.W.W.W.W.W.W.W.9.@.  Y W.W.W.W.W.W.W.W.W.W.W.W.C.W.W.W.W.W.W.W.W.W.W.W.W.W.w   4.q.W.W.W.W.W.W.W.W.W.W.W.W.W.W.W.W.9.@.  Y W.W.W.W.W.W.W.W.W.W.W.W.C.",
"W.W.W.W.W.W.W.W.W.W.W.W.W.w   ;.q.Q.W.W.W.W.W.W.W.W.W.W.W.W.W.W.W.8.@.  Y W.W.W.W.W.W.W.W.W.W.W.W.C.W.W.W.W.W.W.W.W.W.W.W.W.W.w   ;.z.W.W.W.W.W.W.W.W.W.W.W.W.W.W.W.W.8.@.  Y W.W.W.W.W.W.W.W.W.W.W.W.C.",
"W.W.W.W.W.W.W.W.W.W.W.W.W.w   ;.6.M.R.W.W.W.W.W.W.W.W.W.W.W.W.A.w.5.@.  Y W.W.W.W.W.W.W.W.W.W.W.W.C.W.W.W.W.W.W.W.W.W.W.W.W.W.w   ;.8.N.A.W.W.W.W.W.W.W.W.W.W.W.W.R.w.6.@.  Y W.W.W.W.W.W.W.W.W.W.W.W.C.",
"R.R.W.W.W.W.W.W.W.W.W.W.A.w   ;.6.q.A.A.W.W.W.W.W.W.W.W.W.W.A.Z.q.6.@.  Y R.W.W.W.W.W.W.W.W.W.W.E.V.R.R.W.W.W.W.W.W.W.W.W.W.R.7   ;.6.q.A.A.W.W.W.W.W.W.W.W.W.W.R.Z.q.4.+.  Y R.W.W.W.W.W.W.W.W.W.W.R.V.",
"w.Z.W.W.W.W.W.W.W.W.W.A.w.7   ;.;.4.q.q.W.W.Q.Q.W.W.W.W.W.E.w.0.4.4.@.  U w.R.W.W.W.W.W.W.W.W.W.B.2.w.Z.W.W.W.W.W.W.W.W.W.A.w.7   ;.;.;.q.M.W.Q.W.W.W.W.W.W.W.E.w.0.4.4.@.  y w.R.W.W.W.W.W.W.W.W.W.B.2.",
"9.q.Z.E.W.W.W.W.W.W.A.M.9.3 ,Xa.a.a.a.a.a.a.a.a.a.a.a.a.a.a.a.P.;.4.@.  r 8.B.A.W.W.W.W.W.W.R.A.q.,.9.q.Z.R.W.W.W.W.W.W.Z.B.8.3   ;.;.;.6.8.M.M.M.M.M.M.w.w.x.M.8.6.;.;.@.  9 8.B.A.W.W.W.W.W.W.R.A.q.1.",
"4.8.w.A.W.W.W.W.W.W.w.0.;.3 ,X. % i i i i i i s i i i i i % . f.G.4.@.  6 ;.q.w.W.W.W.W.W.W.Z.w.5.@.4.6.w.A.W.W.W.W.W.W.w.0.;.3   ;.;.;.;.;.;.;.;.;.;.4.4.4.4.4.4.;.;.;.@.  8 ;.q.w.W.W.W.W.W.W.Z.w.5.@.",
";.4.4.4.6.6.6.6.5.5.4.4.4.3 ,X. A -.-.-.-.-.-.-.-.-.-.-.-.~ & . f.j.`   8 5.;.5.4.6.6.6.5.6.4.4.4.@.4.4.4.6.6.6.5.6.6.6.4.4.;.3   ) ] ;.;.;.;.;.;.;.%.4.4.;.%.4.4.4.;.' /   8 ;.4.4.6.6.6.5.6.5.5.4.4.@.",
"$.=.;.;.;.;.4.%.;.;.4.%.$.3 ,X. } =.-.-.-.-.-.-.-.-.-.-.=.=.z . X :XE   8 $.$.;.4.;.;.;.;.;.4.;.$.+.$.$.;.;.;.;.,.4.;.;.;.;.$.2   S G Q Q Q Q Q Q Q Q Q Q Q Q Q Q Q Q S m O 6 $.;.;.;.;.;.;.;.;.4.4.$.` ",
"( ] 4.4.;.;.;.4.;.;.;.$.( = OXt l } =.-.-.-.-.-.-.-.-.=.| | j . . :X0   4 ( $.4.;.;.4.;.;.;.;.;.' ^ ( ' ;.;.;.;.;.;.4.,.;.[ ( 1                 O                           4 ( $.;.4.4.%.4.4.;.;.;.' F ",
"4 5 8 8 8 8 8 8 8 8 8 6 4 #   >Xt h X.-.-.-.-.-.-.=.O.} j f . . . :X0   # 4 6 r 8 8 8 8 8 8 8 8 5 2 4 5 8 8 8 8 8 8 8 8 8 6 4 #                                             + 4 6 8 8 8 8 8 8 8 8 8 5 = ",
"                                :X, { -.-.-.-.-.=.} f X . . . . . :X0           O                               O           O                     O           O                 O       O           O   ",
"@.@.@.+.@.@.@.@.@.@.F n         :X* { -.-.-.-.=.| d % f . . . . . :XJ O     C F @.@.@.@.@.@.@.@.Q H @.@.@.@.@.@.@.@.@.@.F n         @ : g g N g g p >   @ i s h m k d i > O     C F @.@.@.@.@.@.@.@.Q H ",
"5.6.8.9.8.5.5.4.;.;.' M       ,X@ j X.-.-.-.-.-.D & k . . . . . . :XP O     G X.;.;.;.5.5.9.9.9.,.#.4.6.9.9.9.5.5.;.;.;.) M     O O $ a h h Z Z C h p O @ a h Z B B h h p       G ] ;.;.;.5.5.8.8.8.,.#.",
"w.Z.W.W.W.w.9.4.;.;.;.E     ,X. j =.-.-.-.-.-.-.D i Q . . . . . . :X,X,X,X,X,X,X,X,X,X,X,X,X,X,X,X,X,X,X,X,X,X,X,X,X,X,X,X,X,X,X,X,X,X,X,X,X,X&.Z C h   = f j Z B B B k h       Q ;.;.;.;.q.M.W.W.W.B.2.",
"A.R.W.W.W.A.B.0.4.;.;.E     ,X. ..-.-.-.-.-.-.-.D i >.! . . . . . , , , @ , @ , , , , , , , = @ , , $ @ , , 1 ; , @ , , , , , , @ @ , , , @ , OXr.- @   + = = = - = - = $       Q ;.;.6.q.B.A.W.W.W.E.n.",
"W.W.W.W.W.W.A.w.6.;.;.E     ,X. j =.-.-.-.-.-.| d i 7.I.G.G.G.G.@XJ._.$X@XY.Y.@X@X%X%X%X%X$X@X@X@XG.G.K.G._.%X@XU.Y.@X@X%X%X%X$X$X@X@XG.G.v.O.> g.e.          +   O             Q ;.;.8.w.R.W.W.W.W.W.C.",
"W.W.W.W.W.W.A.w.4.4.;.E     ,X. % ; ; ; ; * ; % o i 7.'.'.'.'.'.J.G.K.[.[.P.K.K.].@X[.[.@XP.Y.K.'.'.P.J.J.P.@X@X'.'.[.[.@X[.[.@X@X[.'.'.'.I.c.&.R d.l.Q G S C m : *             Q ;.;.8.M.A.Q.W.W.W.W.C.",
"(.!.W.W.W.W.A.B.6.4.;.E     ,X+X+X+X+X+X+X+X+X+Xa.i 7.'.'.'.'.'.    < '.I.l.O   T '.'.'.I.  O < '.'.l.    T '.'.'.'.'.'.'.'.'.'.'.'.'.'.'.I.I.>.: g.U.+.` / V Z h ;             Q ;.;.0.B.A.Q.W.W.W./.T.",
";XoXW.W.W.W.W.W.8.4.;.E     t.t.t.t.i.h.h.j.m.@Xg.i z.'.'.'.l.e x x c e e r A  .W e '.l.e x x c e e K Z  .W e '.L.S.z.c.S.S.x.x.D.I.'.'.'.'.I.z.s f.U.+.+.+.F Z Z n             Q ;.;.M.W.W.W.W.W.W.*X&X",
"=X XW.W.W.W.W.W.8.;.;.E             i h B A ` U.g.i 7.'.'.'.i.  b b z = = i _ *.I   '.i.O b b z = - n _ *.I   '.c.:.-.-.7.7.-.-.z.'.'.'.'.'.I.z.i f.U.+.` ` V Z g :             Q ;.;.M.W.W.W.W.W.W. X{.",
".X).W.W.W.W.W.W.8.;.;.E             > a B V / H.g.i 7.'.'.'.p.  b v _ _ _ _ _ _ k   '.i.  b v _ _ _ _ _ _ C   '.z.-.-.-.-.-.-.-.>.'.'.'.'.'.'.z.i g.K.+.` / B B p -             Q ;.;.M.W.W.W.W.W.W.|.^.",
"Q.Q.W.W.W.W.W.W.8.4.;.E             O O + + # s.f.i 7.'.'.'.i.O b v _ _ _ _ _ _ k   '.i.  b v _ _ _ _ _ _ C   '.z.-.-.-.-.-.-.-.>.'.'.'.'.'.I.>.i g.s.+ # + + + O O             Q ;.;.M.W.W.W.W.W.W.W.F.",
"!.!.W.W.W.W.W.W.8.;.;.E       # @ $ $ $ $ $ $ s.g.: 7.'.'.'.m.r.p z v _ _ _ _ h P R '.m.R i z v _ _ _ _ h P r.'.S.7.-.-.-.-.-.-.z.'.'.'.'.'.'.z.i g.s.O O 1 $ $ $ $ $ @ @       Q ;.;.M.W.W.W.W.W.W.!.T.",
".X).W.W.W.W.W.W.9.;.;.E       a h B B B B V F m.g.n 7.'.'.'.'.'.  a b _ _ _ _ # U L.'.'.'.  a b _ _ _ _ + T '.'.D.x.:.-.-.-.:.7.D.'.'.'.'.'.'.z.i g.k.O 2 F A B Z B B g :       Q ;.;.M.W.W.W.W.W.W.|.^.",
"/.!.W.W.W.W.R.Z.6.4.;.E       k k B B B B V ` J.g.i 7.I.I.'.I.'.I.T + b b x O j.I.'.'.'.'.'.U + b b l   G.'.'.'.'.L.x.>.-.:.z.D.'.'.'.'.'.'.I.z.i g.@Xt.p.k.h.h.h.h.h.h.g O     Q ;.;.q.Z.E.W.W.W.W.!.T.",
"W.W.W.W.W.W.A.w.4.4.;.E       B B B B B B F +.J.g.i =.c.I.'.[.I.'.l.u.* > J ! S.'.'.'.'.'.I.l.! ; > J p.P.'.'.'.'.'.L.c.7.q.D.I.'.'.'.'.'.'.I.>.i a.+X+X+X+X+X+X+X+X+X,Xm O     Q ;.;.8.w.R.W.W.W.W.W.C.",
"W.W.W.W.W.W.A.w.6.4.;.E       a g B B B B V F j.d.J z O.c.D.D.D.L.D.v.< < r D.D.D.D.D.D.D.D.D.v.< # r D.D.D.D.D.D.D.D.D.D.D.D.D.D.D.D.D.D.D.c.>.i o % * ; ; * * * o . ,X:       Q ;.4.9.w.R.W.W.W.W.W.C.",
"R.R.W.W.W.R.Z.q.4.4.;.E       > i g n n n m M n y.g.- A ....................................................................................=.-.i d | =.-.-.-.-.=.z . ,X>       Q ;.;.6.q.Z.R.W.W.W.E.V.",
"w.Z.W.W.W.w.0.;.;.;.4.E                           e.+X, , , , , @ , , , , , , , @ , , , , , , , , , , , @ , , , , , , , , , , , @ X . . . . d X.p I -.-.-.-.-.-.-.} . ,X        Q ;.;.;.;.q.M.Q.W.W.B.2.",
"6.8.q.q.q.6.4.;.;.;.] M             - * u u u u : n R ,X,X,X,X,X,X,X,X,X,X,X,X,X,X,X,X,X,X,X,X,X,X,X,X,X,X,X,X,X,X,X,X,X,X,X,X,X:X. . . . . . F i I -.-.-.-.-.-.=.j . ,X        G ] ;.;.;.5.8.q.q.w.1.@.",
"4.;.;.;.4.4.;.;.;.;.( m             > a B B B B B B B B B Z a * O           S ) ;.;.;.;.4.;.;.;.+.Q ;.;.;.;.;.;.4.4.;.;.( m   0 :X. . . . . . f & I -.-.-.-.-.X.j , ,X          S ) ;.;.;.;.;.;.4.;.+.Q ",
"                                                                                                O                       O     0 :X. . . . . k % d | -.-.-.-.-.{ , :X                              O     ",
"= 1 3 1 3 3 3 3 3 3 3 1 1 O                                             O = 1 3 3 3 3 3 3 1 3 1 1 = = 1 1 3 3 3 3 3 3 3 3 2 1 q :X. . . . . X f } *.-.-.-.-.-.{ , >X        O 1 1 1 3 3 3 3 3 3 3 3 1 = ",
"( ] ;.;.;.;.;.;.;.;.;.o.( =                               O             4 ( ;.%.;.;.;.;.4.;.4.;.) F ( ] ;.;.;.;.;.;.;.;.%.$.( r :X. . j j  ...X.=.-.-.-.-.-.-.X.f t >X      4 ( $.;.;.;.;.;.;.;.%.4.' ^ ",
"o.$.;.;.;.;.;.;.;.;.;.$.o.1 O m D E E E E E E E E E E E E E E E E M m   5 o.;.;.;.;.;.;.;.;.;.;.$. .$.$.;.;.;.;.;.;.;.;.;.;.o.L :X. f X.*.=.-.-.-.-.-.-.-.-.-.-.| C t OXn   5 $.;.;.;.;.;.;.;.;.%.4.=.` ",
";.;.;.4.;.;.;.;.;.;.4.4.4.3   ( ] ;.5.%.;.;.;.;.;.;.;.4.;.;.;.;.;.) F O 6 ;.;.;.;.;.;.;.;.;.;.4.4.@.;.;.;.;.;.;.;.;.;.;.;.;.;.L :X. z -.-.-.-.-.-.-.-.-.-.-.-.-.=.} . ,XF   8 ;.;.;.;.;.;.;.4.4.4.4.4.@.",
";.6.w.A.W.W.W.W.W.W.w.q.;.1   ;.%.4.4.;.;.;.;.;.4.,.;.;.;.;.4.;.;.;.@.  6 4.q.w.W.W.W.W.W.W.A.w.6.@.4.6.M.A.W.W.W.W.W.W.M.9.;.e t.f.& ~ =.-.-.-.=.=.-.-.=.=.-.-.=.A . ,X@.  8 4.q.w.W.W.W.W.W.W.Z.w.5.@.",
"4.q.B.A.W.W.W.W.W.W.B.q.6.3   ;.;.4.4.6.8.9.9.9.9.8.9.9.9.9.5.4.;.;.@.  8 6.w.Z.W.W.W.W.W.W.A.B.8.%.5.9.B.A.W.W.W.W.W.W.M.M.5.2 < G.f.& p i i i i J i s 5 n i i : & . ,X@.  9 4.w.Z.W.W.W.W.W.W.A.B.6.,.",
"w.Z.W.W.W.W.W.W.W.W.W.A.w.7   ;.;.;.q.w.W.W.W.W.W.W.W.W.W.E.w.0.5.%.@.  y M.A.W.W.W.W.W.W.W.W.W.B.2.M.Z.W.W.W.W.W.W.W.W.Q.A.M.3   ;.P.a.a.a.a.a.a.a.a.a.a.a.a.a.a.a.a.,X@.  r w.R.W.W.W.W.W.W.W.W.W.B.2.",
"A.R.W.W.W.W.W.W.W.W.W.W.A.7   ;.6.0.B.A.W.W.W.W.W.W.W.W.W.W.A.B.6.5.@.  U A.W.W.W.W.W.W.W.W.W.W.E.n.A.A.W.W.W.W.W.W.W.W.W.E.A.w   5.6.0.Z.A.W.W.W.W.W.W.W.W.W.W.A.B.9.5.+.O Y A.E.W.W.W.W.W.W.W.W.W.E.N.",
"W.W.W.W.W.W.W.W.W.W.W.W.W.w   ;.6.M.A.W.W.W.W.W.W.W.W.W.W.W.W.A.M.6.@.  Y Q.W.W.W.W.W.W.W.W.W.W.Q.C.W.W.W.W.W.W.W.W.W.W.W.W.W.w   ;.6.w.E.W.W.W.W.W.W.W.W.W.W.W.W.A.M.5.@.O Y W.W.W.W.W.W.W.W.W.W.W.W.C.",
"W.W.W.W.W.W.W.W.W.W.W.W.W.w   ;.q.W.W.W.W.W.W.W.W.W.W.W.W.W.W.W.W.9.@.  Y W.W.W.W.W.W.W.W.W.W.W.W.C.W.W.W.W.W.W.W.W.W.W.W.W.W.w   ;.q.W.W.W.W.W.W.W.W.W.W.W.W.W.Q.Q.W.9.@.  Y W.W.W.W.W.W.W.W.W.W.W.W.C.",
"W.W.W.W.W.W.W.W.W.W.W.W.W.w   ;.q.W.W.W.W.W.W.W.W.W.W.W.W.W.W.W.W.9.@.  Y W.W.W.W.W.W.W.W.W.W.W.W.C.W.W.W.W.W.W.W.W.W.W.W.W.W.w   ;.q.W.W.W.W.W.W.W.W.W.W.W.W.W.W.W.W.8.@.  Y W.W.W.W.W.W.W.W.W.W.W.W.C.",
"W.W.W.W.W.W.W.W.W.W.W.W.W.w   4.q.W.W.W.W.W.W.W.W.W.W.W.W.W.W.W.W.9.@.O Y W.W.W.W.W.W.W.W.W.W.W.W.C.W.W.W.W.W.W.W.W.W.W.W.W.W.w   ;.q.W.W.W.W.W.W.W.W.W.W.W.W.W.W.W.W.8.@.  Y W.W.W.W.W.W.W.W.W.W.W.W.C.",
"Z.A.W./.).oX X).).).W.R.Z.7   ;.9.Z.E.W.|.!.W.(.|.oX X).).(.W.R.Z.6.@.  U Z.E.Q.).).).XXXX)./.W.Z.b.Z.A.W./.).XX X).).).W.A.Z.7   $.9.Z.E.W.|.!.W.(.|..X X).).(.W.R.Z.8.@.  y Z.E.W.).).).oXoX|.(.W.A.3.",
"w.Z.W.)..X;X-X.X.X.XW.A.w.7   ;.6.w.E.W..X|.W.|..X;X-X.X.X XW.A.w.6.@.O 9 M.A.Q..X.X.X-X;X.X(.W.B.2.M.B.Q.)..X;X-XoX.X.XW.A.M.7   4.8.w.R.W..X|.W.|..X;X-X.X.X XW.A.w.6.@.O 9 w.R.!..X.X.X-X-X.X(.E.B.2."
};
