/* XPM */
static char *heath_31730379986[] = {
/* columns rows colors chars-per-pixel */
"100 50 195 2 ",
"   c #3F3851",
".  c #47204A",
"X  c #4E224B",
"o  c #56234B",
"O  c #453951",
"+  c #4D3A51",
"@  c #513753",
"#  c #5B3755",
"$  c #513E53",
"%  c #5B3C52",
"&  c #64264C",
"*  c #6B2A4E",
"=  c #73294D",
"-  c #6F3D4F",
";  c #7B3F4F",
":  c #6A3757",
">  c #6D3454",
",  c #643B52",
"<  c #693D50",
"1  c #703452",
"2  c #723659",
"3  c #793958",
"4  c #5E3B60",
"5  c #4B445C",
"6  c #534154",
"7  c #59475A",
"8  c #624756",
"9  c #6E4352",
"0  c #714754",
"q  c #724A56",
"w  c #744E58",
"e  c #7C525B",
"r  c #575067",
"t  c #685769",
"y  c #6F5A69",
"u  c #785967",
"i  c #755677",
"p  c #843F4F",
"a  c #843E56",
"s  c #8C3B56",
"d  c #81355B",
"f  c #89365C",
"g  c #913251",
"h  c #9F3351",
"j  c #953959",
"k  c #AE3752",
"l  c #A43F57",
"z  c #B73A5A",
"x  c #A23460",
"c  c #A63D65",
"v  c #D43E5B",
"b  c #C43464",
"n  c #92414F",
"m  c #874551",
"M  c #8C4C55",
"N  c #964354",
"B  c #9D4C53",
"V  c #84565E",
"C  c #965558",
"Z  c #955C5D",
"A  c #A0424E",
"S  c #AE444E",
"D  c #B34A4F",
"F  c #A34054",
"G  c #AB4A55",
"H  c #B94457",
"J  c #B54E52",
"K  c #AB5354",
"L  c #AC525E",
"P  c #B95657",
"I  c #BC5654",
"U  c #BC5B58",
"Y  c #AF645E",
"T  c #8A4963",
"R  c #865267",
"E  c #965965",
"W  c #AA5360",
"Q  c #876C75",
"!  c #936973",
"~  c #A46463",
"^  c #AF666D",
"/  c #B96D65",
"(  c #B77471",
")  c #B17A7C",
"_  c #C84C5C",
"`  c #C25E57",
"'  c #D25654",
"]  c #E04656",
"[  c #C3635C",
"{  c #C76A5F",
"}  c #C96B5F",
"|  c #D6605A",
" . c #C05D64",
".. c #CD5B62",
"X. c #D55C63",
"o. c #D85C63",
"O. c #CF6366",
"+. c #CA6E60",
"@. c #D56667",
"#. c #DE6366",
"$. c #DB6C65",
"%. c #CD7363",
"&. c #DF7667",
"*. c #C2717A",
"=. c #EB6469",
"-. c #E56D6A",
";. c #E9716C",
":. c #E27F6D",
">. c #EC7B74",
",. c #BF8170",
"<. c #C18773",
"1. c #C48E77",
"2. c #D38476",
"3. c #C6947B",
"4. c #E3826F",
"5. c #E68D74",
"6. c #EE847D",
"7. c #E58A78",
"8. c #E99277",
"9. c #E99679",
"0. c #EB9D7D",
"q. c #EDA27F",
"w. c #7B7487",
"e. c #887A8C",
"r. c #9D7C82",
"t. c #B37F80",
"y. c #878091",
"u. c #B38588",
"i. c #B78E8D",
"p. c #B78B92",
"a. c #9F98A7",
"s. c #A38CA3",
"d. c #B493A5",
"f. c #BAA7BA",
"g. c #B9A8BA",
"h. c #D0908A",
"j. c #CE9C96",
"k. c #CF9F99",
"l. c #E79786",
"z. c #F5988C",
"x. c #E19C93",
"c. c #CCA685",
"v. c #CCA887",
"b. c #DFA59C",
"n. c #DBA89F",
"m. c #CEB797",
"M. c #CFBD9D",
"N. c #EEA582",
"B. c #F1AE87",
"V. c #F3B48A",
"C. c #F6BA8D",
"Z. c #F9AE9F",
"A. c #CC9DA6",
"S. c #CBABAC",
"D. c #CFBFA1",
"F. c #E2A9A7",
"G. c #E8AEA4",
"H. c #F0ADA0",
"J. c #E7B1A5",
"K. c #E8B4AB",
"L. c #E7B8AC",
"P. c #F8B7A8",
"I. c #FDBAAA",
"U. c #E6B5B0",
"Y. c #E7BCB2",
"T. c #F2BDB3",
"R. c #F9C494",
"E. c #F9C796",
"W. c #FBCA97",
"Q. c #CFC0A3",
"!. c #CFC4AA",
"~. c #CFC9B5",
"^. c #FEC0AF",
"/. c #FEDEAB",
"(. c #E8C3BA",
"). c #E8C8BF",
"_. c #F3C3B6",
"`. c #FFC2B1",
"'. c #FFCDBD",
"]. c #FEE1AE",
"[. c #FEE6B3",
"{. c #FEE8B7",
"}. c #FEEABB",
"|. c #C3BCC7",
" X c #D1C2D0",
".X c #DDC9D2",
"XX c #EACEC7",
"oX c #E8D5D1",
"OX c #E8D8D5",
"+X c #F0D5D1",
"@X c #FEEEC3",
"#X c #FEF4CE",
"$X c #E8DDE7",
"%X c #E7E0E7",
"&X c #FFF8FD",
/* pixels */
"                                O                                                                       O                                                                                               ",
"+ / ( ,.c.c.m.!.~.D.m.c.c.c.m.Q.~.~.~.D.M.c.c.c.3.,./ E   V / ,.3.v.v.v.M.M.M.!.~.D.m.c.c.c.1.,./ e O / ( ,.3.v.Q.!.~.!.M.v.c.v.m.D.~.~.~.D.M.c.c.c.3.<./ Z   V / ,.1.c.c.c.M.M.M.!.~.D.m.c.c.c.1.,./ e ",
"6 :.9.B.R.W.[.@X#X}.[.W.W.W./.{.#X#X#X}.[.W.W.W.V.N.4.~   ~ 4.B.B.W.W.W.[.[.[.@X#X{./.W.W.W.B.0.&.Z 6 4.8.N.R.W.[.}.#X}.].W.W.W./.{.#X#X#X{.[.W.W.W.V.N.:.~   ~ 4.N.B.W.W.W.{.[.[.@X#X{.[.W.W.W.B.l.:.Z ",
"6 4.N.W.W.W.W.W.W.W.R.W.W.W.W.W.W.W.W.W.W.W.W.W.W.R.4.~   ~ &.W.W.W.W.W.W.W.W.W.W.W.W.W.W.W.W.V.4.E 6 :.N.W.W.W.W.W.W.W.W.W.W.W.W.W.W.W.W.W.W.W.W.W.W.W.:.~   ~ 4.W.W.W.W.W.W.W.W.W.W.W.R.W.W.W.W.C.&.Z ",
"6 :.N.W.W.W.W.W.W.W.W.W.W.W.W.W.W.W.W.W.W.W.W.W.W.W.4.~   ~ &.W.W.W.W.W.W.W.W.W.W.W.W.W.W.W.W.V.4.E 6 :.q.W.W.W.W.W.W.W.W.W.W.W.W.W.W.W.W.W.W.W.W.W.W.W.4.~   ~ 4.W.W.W.W.W.W.W.W.W.W.W.W.W.W.W.W.V.4.V ",
"6 :.q.W.W.W.W.W.W.W.W.W.W.W.W.W.W.W.W.W.W.W.W.W.W.W.4.~   ~ 4.E.W.W.W.W.W.W.W.W.W.W.W.W.W.W.W.V.4.V 6 :.N.W.W.W.W.W.W.W.W.W.W.W.W.W.W.W.W.W.W.W.W.W.W.W.:.~   ~ :.W.W.W.W.W.W.W.W.W.W.W.W.W.W.W.W.V.4.Z ",
"6 :.9.B.R.W.W.W.W.W.W.W.W.W.W.W.W.W.W.W.W.W.W.W.C.B.&.~   ~ &.B.V.W.W.W.W.W.W.W.W.W.W.W.W.W.B.N.4.V 6 :.9.B.R.W.W.W.W.W.W.W.W.W.W.W.W.W.W.W.W.W.W.W.C.B.:.~   ~ :.B.V.W.W.W.W.W.W.W.W.W.W.W.W.W.V.N.4.Z ",
"6 :.5.0.C.R.W.W.W.W.W.W.W.W.W.W.W.W.W.W.W.W.W.R.B.0.4.~   ~ 4.N.N.E.W.W.W.W.W.W.W.W.W.W.W.E.N.9.4.Z 6 4.5.0.C.R.W.W.W.W.W.W.W.W.W.W.W.W.W.W.W.W.W.R.B.9.:.~   ~ &.0.N.W.R.W.W.W.W.W.W.W.W.W.E.R.N.8.4.V ",
"6 :.:.:.0.N.W.W.W.W.W.W.W.W.&Xs.s.s.s.s.s.s.s.s.s.s.s.s.s.s.s.T.5.q.C.W.W.W.W.W.W.W.W.W.B.N.:.:.&.Z 6 4.:.:.0.q.W.W.E.W.W.W.W.W.W.W.W.W.W.W.W.W.C.q.5.:.&.~   ~ 4.:.4.q.C.W.W.W.W.W.W.W.W.W.V.N.4.4.4.V ",
"6 :.:.:.7.9.B.B.B.B.B.B.B.B.&X. * 3 m d d m a a a a a a d = . f.G.0.N.B.B.B.B.B.B.B.B.B.N.9.:.:.4.Z 6 4.:.4.5.9.B.V.B.B.B.B.B.B.B.B.B.B.B.B.B.B.N.8.7.:.4.~   ~ 4.4.4.9.N.B.B.B.B.B.B.B.B.B.0.9.4.4.4.E ",
"6 :.4.:.4.:.:.:.4.:.:.:.:.:.&X. H ;.;.;.>.;.;.;.;.;.;.;.-._ = . f.F.7.:.:.:.:.:.:.:.4.:.:.:.:.:.4.Z 6 4.:.:.:.:.4.:.:.:.:.:.4.4.:.:.:.:.4.:.:.:.:.:.:.:.4.~   ~ :.:.4.:.:.:.4.4.:.:.4.:.:.:.:.:.4.&.4.E ",
"$ | $.:.:.:.:.:.4.:.:.:.:.4.&X. ..-.;.;.;.;.;.;.;.;.;.-.-.-.z . . $X7.:.:.:.:.:.:.:.:.:.:.:.:.&.| M 6 | | :.:.:.4.4.:.:.:.:.:.:.:.:.:.:.:.:.:.:.:.:.4.4.' C   B ' :.:.:.:.:.:.4.:.:.:.:.:.:.:.:.4.&.' M ",
"$ ' | 4.:.:.:.:.:.:.:.4.:.:.oXi F X.;.;.;.;.;.;.;.;.;.-.@.X.h . . $X7.4.:.:.:.:.:.:.:.:.:.:.:.&.' m + ' | 4.4.4.:.:.:.:.:.:.:.:.:.:.:.:.:.:.:.:.:.:.:.:.' B   B ' 4.4.4.&.4.4.&.:.:.:.:.:.:.:.:.4.&.' m ",
"O                           O $Xi h #.;.;.;.;.;.;.-.$.' k k . . . $Xr                                                                           O                 O                                     ",
"                            O   %X4  .;.;.;.;.;.-...h X . . . . . $Xr                                                                                                                                   ",
"                                %X4  .;.;.;.;.;.o.g & h . . . . . $Xr O                                                                                                                                 ",
"3 n s n n n n n n n n 3 ,   : &X# k #.;.;.;.;.;.L = k . . . . . . $Xr           O : 3 n n n n n n a 1 N n n n n n n n n n 2 :   : 3 s n n n j n m 3 # O                             O : 3 n n n n n n a ",
"s S S S S S S S S S A f :   &X. k -.;.;.;.;.;.;.L a U . . . . . . $X&X&X&X&X&X&X&X&X&X&X&X&X&X&X&X&X&X&X&X&X&X&X&X&X&X&X&X&X&X&X&X&X&X&X&X&X&X*.j f #                               O 3 j S S S S S S j ",
"            O           O   &X. ..-.;.;.;.;.;.;.L d >.( . . . . . 4 # 4 4 4 # # 4 4 4 4 4 4 # 4 4 4 # 4 4 4 4 , 4 4 4 4 4 4 # 4 4 4 4 # # 4 4  Xw.          O O             O               O           ",
"< < , # O O # , < < , 9 , < &X. H -.;.;.;.;.;.X.g s l.I.F.F.J.J.XXK.(.oXXXY.(.).XXOXOXOXOXOX).).XXG.G.K.G.(.OXXXU.Y.).XXOXOXOXOXoX).XXG.J.l.@.q g.r.< < , - , , #   O # , < < : < , < < , # O   + , - < ",
"S S j s + O f j D S S D S D &X. & : 1 : > > 1 * o a 6.`.`.`.`.`.K.J.L.'.'.T.K.L._.XX'.'.XXT.L.L.'.I.P.J.J._.XX'.`.`.U.Y.Y.XX'._.U.U._.`.`.I.z.O.! d.h.S S S S j f   @ f N S S S S S S S A d %   3 j S S ",
"` [ P G @ + G U [ [ U U U U &X X X X X X X X X Xs.a 6.`.`.`.`.`.    7 ^.`.k.    Q `.`.`.`.  O 7 `.^.j.    Q `.`.`.`.O O r `.^.b.  O Q `.`.`.I.6.3 f.F.` `  .[ L G   6 G P ` [ ` ` [ U [ U D 9   B J [ [ ",
"%.%.[ ` , @ ` [ %.%.%.%.%.%.b.b.h.p.y.h.h.b.b.oXf.a 6.`.`.`.k.y x x c y y R S O.^ y `.k.i x x c y y R H U ^ y `.k.y x x c y y e H / ^ y `.`.`.6.a f.U.%.%.%.%.[ I   8 ` } %.%.%.%.%.%.%.} I 9   K U %.%.",
"%.%.U S % + S U %.%.%.%.%.%.%.} S m O j S %.%.U.f.a 6.`.`.`.i.  b b z < < a ] =.L   `.i.O b b z < < a ] =.W   `.u.  b b z , < a ] =.L   `.`.`.6.a f.U.%.%.%.%.P S   % k [ %.%.%.%.%.%.%.[ S 9   A J %.%.",
"Z Z M m + + p M Z Z Z Z Z Z Z C p ,   - m Z Z S.f.a 6.`.`.`.i.  b v ] ] ] ] ] ] F   `.i.  b v ] ] ] ] ] ] F   `.)   b v ] ] ] ] ] ] l O ^.`.`.6.a f.S.Z Z Z Z M m   + m M Z Z Z C Z Z Z C m %   p m Z Z ",
"        O O     O     O     O   O O           a.f.a 6.`.`.`.i.  b v ] ] ] ] ] ] F O `.i.  b v ] ] ] ] ] ] F   `.)   b v ] ] ] ] ] ] A O `.`.`.6.a g.a.    O O O     O O       O               O       O ",
"m Z Z Z Z Z Z Z Z Z C m <   - m Z Z Z Z E Z M A.f.a 6.`.`.`.n.r.3 z v ] ] ] ] N B ! `.n.! 3 z ] ] ] ] ] N E r.`.h.E 3 z v ] ] ] ] N E r.`.`.`.6.a f.a.  p M Z Z Z Z Z Z Z Z Z C m % O ; m Z Z Z Z Z Z M ",
"D %.%.%.%.%.%.%.%.%.} S p O n K %.%.%.%.%.+.+.A.f.a 6.`.`.`.`.`.O f b ] ] ] ] # Q P.`.`.`.O f b ] ] ] ] @ Q `.`.P.z.O f b ] ] ] ] @ Q `.`.`.`.6.a f.a.  S I %.&.} %.%.%.%.%.%.[ S <   A J %.%.%.%.%.%.U ",
"%.%.%.%.%.%.%.%.%.%.%.%.Z   ~ %.%.%.%.%.%.%.%.U.f.a 6.P.`.`.`.`.`.Q @ b b x   h.P.`.`.`.`.`.R # b b x   G.`.`.`.I.I.z.V @ b b k   J.^.`.`.`.^.6.a f.|.y.b.b.b.b.b.b.b.b.%.%.%.%.%.w O / %.%.%.%.%.%.%.%.",
"[ %.%.%.%.%.%.%.%.%.%.[ C   K [ %.%.%.%.%.%.} F.f.a ;.z.I.`.`.`.`.k.u.1 2 T ) H.^.I.^.`.`.`.k.t.2 2 T p.T.I.`.I.`.P.Z.h.^ 2 2 R i.T.`.`.`.`.I.6.a s. X X|. X.X|. X X X&X%.%.%.+.[ 0   Y +.%.%.%.%.%.%.} ",
"D %.%.%.%.%.%.%.%.%.} S m   n D %.%.%.%.%.%.[ h.d.R k -.z.Z.Z.Z.Z.Z.x.@ # u P.Z.Z.Z.P.H.H.P.H.x.$ $ u P.Z.Z.Z.Z.H.P.H.P.x.$ $ u Z.Z.Z.Z.Z.Z.z.>.m o * > 1 1 1 > - & . &X%.+.%.} S < O N J %.%.%.%.%.%.U ",
"9 w w w w w w w w w q 9 %   % < w w w w w w 0 - e.f.: z @.@.@.@.@.@.@.@.@.@.@.#.@.@.#.@.@.#.@.@.@.@.@.@.@.@.@.@.@.#.@.@.@.@.@.O.@.@.@.@.@.@.-.;.d g X.;.;.;.;.;.-.S . &Xw w w q < +   % 9 w w w w w w 0 ",
"O O                                   O       O   w. X# 4 4 4 # 4 4 # 4 4 4 4 4 # 7 4 4 4 4 # 4 4 4 4 4 # 4 4 4 4 4 4 4 4 4 4 4 # . . . . . g o.a L ;.;.;.;.;.;.;.@.. &X                                ",
"%.+.` ` 8 + S U %.%.%.%.%.%.%.+.S m   B I %.%.%.%.%.x.&X&X&X&X&X&X&X&X&X&X&X&X&X&X&X&X&X&X&X&X&X&X&X&X&X&X&X&X&X&X&X&X&X&X&X&X&X$X. . . . . .  .a W ;.;.;.;.;.;.-.k . &X` %.%.%.%.%.%.%.{ S <   K ` %.%.",
"%.} [ I % + J [ %.%.%.%.%.%.%.+.D m   B J } } %.%.%.%.%.%.U J O % I [ %.%.%.%.%.%.%.} J 9   K ` +.+.%.+.[ I % + J [ %.%.%.%.%.2.$X. . . . . . h = L ;.;.;.;.;.#.k 4 &XP [ %.%.%.%.%.%.%.} J 9   K ` } } ",
"} I D S % + %.%.%.%.%.%.%.%.%.%.%.Z   n S ` [ %.%.%.%.} I D S   7 %.%.%.%.%.%.%.%.%.%.%.w   N D ` [ +.I J S % $ %.%.%.%.%.%.%.2.$X. . . . . l & g o.;.;.;.;.;. .# $X7 %.%.%.%.%.%.%.%.%.%.%.w   A D I [ ",
"q 9 9 9 + + P [ %.%.%.%.%.%.%.+.I m   % < 9 0 w w w w 0 9 9 <   6 P +.%.%.%.%.%.%.%.{ P 9   , < - 0 w 9 < < + + P [ %.%.%.%.%.2.$X. . . . . X h ..=.;.;.;.;.;. .4 %X% P +.%.%.%.%.%.%.%.+.P 9   , < 9 0 ",
"O         + S U %.%.%.%.%.+.%.+.D m                             % S U %.%.%.%.%.%.%.[ S <         O       O   + S U %.%.%.%.%.2.$X. . k k ..@.$.-.;.;.;.;.;.;.#.h i %XS ` %.%.%.%.%.%.%.[ S <         O ",
"            + O 6 6 6 6 6 6 + 6 + O                             O + + 6 + 6 6 6 + 6 6 + O                       + $ 6 + 6 + $ t $X. h #.#.;.;.;.;.;.;.;.;.;.;.-.@.l i .X6 + + 6 6 + 6 + 6 O O           ",
"                                                                                                                              r $XX z ;.;.;.;.;.;.;.;.;.;.;.;.;.-.... &X                  O             ",
"                                                                                                                              5 e.g.= _ ;.;.;.;.;.;.;.;.;.;.;.-.-.H . &X                                ",
"                                                                                                                                5 y.g.= a a a a a a a a a a m p a * . &X                                ",
"                                                                                                                                    a.s.s.s.s.s.s.s.s.s.s.s.s.s.s.s.s.&X                                ",
"                                                                                                                                                                                                        ",
"                                                                                                                                                                                                        ",
"                                                                                                                                                                                                        ",
"                                                                                                                                                                                                        ",
"                                                                                                                                                                                                        ",
"                                                                                                                                                                                                        ",
"                                                                                                                                                                                                        "
};
