/* XPM */
static char *heath_11730238880[] = {
/* columns rows colors chars-per-pixel */
"100 50 203 2 ",
"   c #3F3851",
".  c #47204A",
"X  c #4E224B",
"o  c #56234B",
"O  c #463852",
"+  c #4C3A51",
"@  c #573755",
"#  c #523B53",
"$  c #5B3C51",
"%  c #64264C",
"&  c #6B2A4E",
"*  c #73294D",
"=  c #6D3453",
"-  c #643D52",
";  c #6A3954",
":  c #703452",
">  c #773B57",
",  c #753659",
"<  c #5E3B60",
"1  c #51475D",
"2  c #654555",
"3  c #684555",
"4  c #684958",
"5  c #764352",
"6  c #784955",
"7  c #7A4D58",
"8  c #6B545D",
"9  c #7C535B",
"0  c #7A595F",
"q  c #575067",
"w  c #6E5C62",
"e  c #6C5868",
"r  c #795967",
"t  c #755677",
"y  c #7F626D",
"u  c #843F4F",
"i  c #843E56",
"p  c #81365A",
"a  c #8A365C",
"s  c #8A3958",
"d  c #913251",
"f  c #9F3351",
"g  c #943B56",
"h  c #973A57",
"j  c #AE3752",
"k  c #A23D55",
"l  c #A63F5A",
"z  c #B73B58",
"x  c #A33661",
"c  c #D43E5B",
"v  c #C43464",
"b  c #93424E",
"n  c #984953",
"m  c #9E5358",
"M  c #A1434F",
"N  c #AE444E",
"B  c #B34A4F",
"V  c #A94250",
"C  c #A74953",
"Z  c #B74855",
"A  c #AF5352",
"S  c #AC535F",
"D  c #BE5553",
"F  c #B25658",
"G  c #AE645D",
"H  c #8B4C69",
"J  c #805F62",
"K  c #885269",
"L  c #AA5460",
"P  c #826366",
"I  c #866E6B",
"U  c #946B77",
"Y  c #A46463",
"T  c #AD646B",
"R  c #B96D65",
"E  c #B47479",
"W  c #C84C5C",
"Q  c #C05355",
"!  c #C25B57",
"~  c #D25654",
"^  c #D45B57",
"/  c #E04656",
"(  c #C7675C",
")  c #D6605A",
"_  c #D8655D",
"`  c #D9685F",
"'  c #C05D63",
"]  c #CD5B62",
"[  c #D65C63",
"{  c #CB6664",
"}  c #D56667",
"|  c #DE6366",
" . c #DC6F64",
".. c #DA6B6A",
"X. c #CD7363",
"o. c #CE7669",
"O. c #C57968",
"+. c #DE7467",
"@. c #DF7768",
"#. c #D17B6B",
"$. c #C2717A",
"%. c #EB6569",
"&. c #E56D6A",
"*. c #E9716C",
"=. c #E27F6D",
"-. c #EB7770",
";. c #EC7C75",
":. c #D6826E",
">. c #C18773",
",. c #D68771",
"<. c #D79479",
"1. c #DA9D7E",
"2. c #E3826F",
"3. c #E48671",
"4. c #E68A73",
"5. c #EE847C",
"6. c #E79076",
"7. c #E89177",
"8. c #E99578",
"9. c #EB9A7C",
"0. c #EDA27F",
"q. c #7B7487",
"w. c #977C88",
"e. c #AB7985",
"r. c #878091",
"t. c #B68C8C",
"y. c #B38992",
"u. c #A38CA3",
"i. c #AB9AA7",
"p. c #B596A6",
"a. c #BAA7BA",
"s. c #B9A8BA",
"d. c #CC878F",
"f. c #D08A8F",
"g. c #CF9F99",
"h. c #D99796",
"j. c #F18E85",
"k. c #F4958A",
"l. c #F59A8E",
"z. c #EC9A90",
"x. c #DCA181",
"c. c #DFAB86",
"v. c #DDA79E",
"b. c #EEA582",
"n. c #E6AC86",
"m. c #F0AC85",
"M. c #E1B089",
"N. c #E3B88E",
"B. c #F3B389",
"V. c #F5BB8E",
"C. c #F9A597",
"Z. c #F8A598",
"A. c #F9AE9F",
"S. c #E4BC93",
"D. c #E9AEA4",
"F. c #E2AFAC",
"G. c #F6AEA0",
"H. c #E7B5AB",
"J. c #FCB4A4",
"K. c #F3BBAD",
"L. c #FEBBAA",
"P. c #E6B5B0",
"I. c #E8BDB3",
"U. c #F0BBB5",
"Y. c #E4C49A",
"T. c #F7C091",
"R. c #F8C393",
"E. c #FBCA97",
"W. c #FBCD9A",
"Q. c #FCD19E",
"!. c #E6CAA0",
"~. c #FEC0AF",
"^. c #E7D3AA",
"/. c #FCD5A3",
"(. c #FDDAA7",
"). c #FEDEAB",
"_. c #E8C3BA",
"`. c #E8C8BF",
"'. c #FFC2B1",
"]. c #F7C6B8",
"[. c #FFCCBC",
"{. c #E7D8B4",
"}. c #E7DDBE",
"|. c #FEE2AF",
" X c #FEE5B5",
".X c #FFEAB7",
"XX c #FEE7BC",
"oX c #FEE9BD",
"OX c #CFC8D2",
"+X c #D1C2D0",
"@X c #E8CCC7",
"#X c #E7DFC2",
"$X c #E8D0C9",
"%X c #E8D5D1",
"&X c #E8D8D5",
"*X c #E7E1C5",
"=X c #FEECC2",
"-X c #FFF0C2",
";X c #FFF5CB",
":X c #FFF9D5",
">X c #E8DDE7",
",X c #E7E0E7",
"<X c #FFF8FD",
/* pixels */
"<.1.N.!.^.*X}.^.^.^.N.n.<.4   O.#.<.M.N.^.^.^.}.#X^.^.^.S.N.N.n.<.#.R   0 <.M.N.^.^.^.}.#X^.Y.N.1.>.<.x.N.!.^.*X}.^.^.^.N.c.<.4   o.:.<.M.S.^.^.^.}.*X^.^.^.S.N.N.c.<.#.R   8 <.M.S.^.^.^.}.*X^.Y.N.1.>.",
"m.V.E.(. X=XXX|.|.|.E.V.m.8   2.6.m.R.W.). X XoX=X|.|.|.Q.E.E.V.m.4.o.  y m.T.Q.|.|.|.=X=X|./.E.B.1.m.V.E.(.|.-XXX X|.|.E.V.n.8   =.4.m.V.E.|.XX|.oX=X|.|.|.Q.E.E.V.m.4.#.  P m.T.W.|.|.|.=X=X|./.E.V.1.",
"E.E.E.E.E.E.E.E.E.E.E.E.E.w   =.9.W.E.E.E.E.E.E.E.E.E.E.E.E.E.E.W.7.o.  I E.E.E.E.E.E.E.E.E.E.E.E.N.E.E.E.E.E.E.E.E.E.E.E.E.E.w   =.9.E.E.E.E.E.E.E.E.E.E.E.E.E.E.E.E.6.#.  I E.E.E.E.E.E.E.E.E.E.E.R.N.",
"E.E.E.E.E.E.E.E.E.E.E.E.E.w   =.9.E.E.E.E.E.E.E.E.E.E.E.E.E.E.E.E.7.o.  I E.E.E.E.E.E.E.E.E.E.E.E.N.E.E.E.E.E.E.E.E.E.E.E.E.E.w   =.9.E.E.E.E.E.E.E.E.E.E.E.E.E.E.E.E.8.o.O I E.E.E.E.E.E.E.E.E.E.E.E.N.",
"E.E.E.E.E.E.E.E.E.E.E.E.E.w   =.9.E.E.E.E.E.E.E.E.E.E.E.E.E.E.E.E.8.o.  I E.E.E.E.E.E.E.E.E.E.E.E.N.E.E.E.E.E.E.E.E.E.E.E.E.E.w   =.9.E.E.E.E.E.E.E.E.E.E.E.E.E.E.E.E.8.o.  I E.E.E.E.E.E.E.E.E.E.E.E.N.",
"E.E.E.E.E.E.E.E.E.E.E.E.E.w   =.6.b.R.E.E.E.E.E.E.E.E.E.E.E.E.V.0.4.o.  I E.E.E.E.E.E.E.E.E.E.E.E.N.E.E.E.E.E.E.E.E.E.E.E.E.E.w O =.3.m.V.E.E.E.E.E.E.E.E.E.E.E.E.T.0.4.o.  I E.E.E.E.E.E.E.E.E.E.E.E.N.",
"T.T.E.E.E.E.E.E.E.E.E.E.V.w   =.4.9.B.V.E.E.W.E.E.E.E.E.E.W.T.B.0.3.o.  I T.E.E.E.E.E.E.E.E.E.E.T.n.T.T.E.E.E.E.E.E.E.E.E.E.T.w O =.3.9.B.V.W.E.E.E.E.E.E.E.E.E.T.B.8.3.o.  I V.E.E.E.E.E.E.E.E.E.E.T.M.",
"0.B.E.E.E.E.E.E.E.E.E.V.0.8   =.=.=.9.b.E.E.W.W.E.E.E.E.E.V.0.8.=.:.o.O 0 0.T.E.E.E.E.E.E.E.E.R.m.<.0.B.E.E.E.E.E.E.E.E.E.V.0.8 O =.=.3.9.b.W.W.E.E.E.E.E.E.E.R.0.8.2.2.o.  r b.V.E.E.E.E.E.E.E.E.E.m.<.",
"6.0.B.R.E.E.E.E.E.E.B.m.6.4 <Xu.u.u.u.u.u.u.u.u.u.u.u.u.u.u.u.].=.@.#.  0 6.m.V.E.E.E.E.E.E.V.V.8.,.6.9.B.R.E.E.E.E.E.E.B.b.6.8   3.+.=.4.6.b.b.b.b.b.b.b.b.b.9.6.3.2.2.o.  9 4.m.V.E.E.E.E.E.E.V.V.8.:.",
"2.4.0.V.E.E.E.E.E.E.b.8.2.4 <X. & p i i i i i i i i i i p & . a.G.3.o.  9 =.9.b.E.E.E.E.E.E.V.0.3.o.2.4.0.V.E.E.E.E.E.E.0.8.=.4   =.3.=.@.=.=.#.@.=.=.=.=.=.2.=.=.=.=.=.o.  9 2.9.b.E.E.E.E.E.E.V.b.2.o.",
"2.2.2.2.4.3.3.3.3.4.2.2.2.4 <X. Z &.*.*.*.*.*.*.*.*.*.*.%.W * . a.h.{   9 =.=.=.3.4.3.4.4.4.3.2.2.o.2.2.2.3.3.3.4.3.4.4.2.2.=.4   ^ _ =.3.=.@.4.3.=.=.=.=.=.=.=.=.2.=.) ! O 9 2.2.2.4.4.4.4.4.2.4.2.2.o.",
"+.+.=.=.2.2.=.2.=.=.=.@.+.4 <X. ] &.*.*.*.*.*.*.*.*.*.*.&.&.z . . >XY   7 +.=.=.=.=.=.=.=.=.=.=.+.X.+.+.2.2.2.2.=.=.=.=.=.=.+.2   A F R R R R R R R R R R R R R R R R A n   9 +.=.=.=.=.=.=.2.=.=.=.+.X.",
"~ _ =.=.=.=.=.=.=.2.=.+.~ - OXt M [ &.*.*.*.*.*.*.*.*.&.[ [ k . . >Xq   5 ~ =.=.=.=.=.=.=.=.=.=.) D ~ ) 2.2.@.2.2.2.2.2.=.+.~ -                                             5 ~ +.=.+.2.2.:.=.=.=.=.) D ",
"5 6 9 9 9 9 9 9 9 9 7 6 5 +   ,Xt f | -.*.*.*.*.*.&...^ j k . . . >Xq   + 5 6 r 7 J 9 9 9 9 9 9 6 3 5 6 9 9 9 9 7 7 9 9 7 7 5 +                                             + 5 6 9 9 9 7 P 9 9 9 9 6 ; ",
"                                ,X< ' *.*.*.-.&.&.^ f X . . . . . >Xq           O                   O                       O       O O     O O         O   O O                         O         O     ",
"o.o.o.o.o.o.o.o.o.o.D n         >X< ' *.*.*.&.&.[ d % f . . . . . >XH       C D X.o.o.o.o.o.o.o.R G o.o.o.o.o.o.o.o.o.o.D b         @ > s s M g g p ,   @ > s g n k d s ,       C D #.#.X.o.o.o.O.o.R G ",
"2.4.6.7.7.3.2.2.=.=.^ m O     <X< j | *.*.*.*.*.S * h . . . . . X >XH       F ` =.=.=.3.3.7.7.7.:.O.2.4.7.7.7.3.3.=.=.=.) m     O   @ a h V V V C h p O @ a k k N M k g p       S ) =.=.@.3.3.6.6.6.:.O.",
"0.B.E.E.E.0.8.2.=.=.=.Y     <X. j &.*.*.*.*.*.*.L i ' . . . . . . >X<X<X<X<X<X<X<X<X<X<X<X<X<X<X<X<X<X<X<X<X<X<X<X<X<X<X<X<X<X<X<X<X<X<X<X<X<X$.V k a   - f l N N N N k g       R =.=.2.3.9.m.E.E.W.m.<.",
"V.T.E.E.E.V.m.8.3.=.=.Y     <X. ] *.*.*.*.*.*.*.L i ;.E . . . . . < < < < < @ < < < < < < < @ < < < @ < < < < @ < < < @ < < < < @ < < < < @ < OXw.- @ O O - - - ; - ; - $       R 2.2.4.6.B.V.E.E.E.T.n.",
"E.E.E.E.E.E.V.0.4.=.=.Y     <X. z ..*.*.*.*.*.[ d i 5.L.D.D.D.D.`.H._.%X@XH._.`.$X&X&X&X&X%X`.`.@XD.D.H.D._.&X$XH.I.`.$X&X&X&X&X%X_.@XD.D.z..., s.q.        O + O O             R =.3.4.b.V.E.E.E.E.E.N.",
"E.E.E.E.E.E.V.0.4.=.=.Y     <X. % = = = = = : & o i 5.'.'.'.'.'.H.D.H.[.[.K.H.H.].@X@X@X@X[.[.[.'.'.'.'.'.[.[.[.'.'.[.[.@X[.[.@X@X[.'.'.'.L.l.{ U p.g.R G A M b > ; O           R =.=.4.0.V.W.E.E.E.W.N.",
"/./.E.E.E.E.V.m.4.=.=.Y     <XOX+X+X+X+X+X+X+X+Xu.i j.L.'.'.'.'.    1 '.~.g.    I L.'.'.'.L.'.'.'.'.'.'.~.~.'.~.'.'.~.~.~.'.'.'.'.'.'.'.'.].L.;.s s.P.X.( ! B N g ,             R 2.2.8.m.R.E.E.E.E./.Y.",
":XoXE.E.E.E.E.E.7.=.#.Y     w.r.w.q.d.d.d.h.v.$Xs.> 5.'.'.'.g.e x x l e e K Z { T w '.'.L.Z.j.j.A.A.j.j.Z.L.~.'.J.C.j.l.C.C.k.k.G.L.'.'.'.'.'.j.s a.H.X.X.X.A N N u             R =.=.0.E.E.E.E.E.E.=X*X",
"=X XE.E.E.E.E.E.7.=.=.Y             > g N D ! H.s.b j.'.'.'.t.  v v z 3 - i / %.L   '.'.J.;.-.*.5.;.*.*.5.J.'.'.l.-.*.*.5.5.*.*.j.'.'.'.'.'.L.5.i a.P.X.} ( B N g =             R =.2.b.E.E.E.E.E.E. X{.",
".X).E.E.E.E.E.E.8.=.=.Y             , a N B Q F.s.i 5.~.'.'.y.  v c / / / / / / k   '.'.G.-.*.*.*.*.*.*.*.G.'.'.j.*.*.*.*.*.*.*.;.L.'.'.'.'.'.j.i a.F.X.( D B V a ;             R 3.@.b.W.E.E.E.E.E.|.^.",
"W.W.E.E.E.E.E.E.7.2.=.Y             O O + + # i.s.i 5.'.'.'.t.O v c / / / / / / C   '.'.G.*.*.*.*.*.*.*.*.G.'.'.j.*.*.*.*.*.*.*.;.'.'.'.'.'.L.5.i a.i.1 1 # + O O O   O         R @.3.b.E.E.E.E.E.E.W.S.",
"Q.Q.E.E.E.E.E.E.7.=.=.Y       # @ $ @ 1 $ $ $ i.s.5 5.'.'.'.D.w.p z c / / / / g m U '.'.J.5.*.*.*.*.*.*.5.J.'.'.C.;.*.*.*.*.*.*.j.'.'.'.'.'.'.5.i a.i.  O $ $ $ $ $ $ @ #       R 2.2.b.E.E.E.E.E.E.W.Y.",
".X).E.E.E.E.E.E.7.=.=.Y       a g N N N N B ! v.s.b 5.'.'.'.L.'.O a v / / / / @ P J.'.'.L.Z.;.*.*.*.*.;.C.L.'.'.A.k.;.*.*.*.-.5.G.'.'.'.'.'.'.j.i a.g.  5 D B V k N N h ,       R 3.@.b.E.E.E.E.E.E.|.^.",
"/.Q.E.E.E.E.T.B.4.2.=.Y       k M N N N N Z ( H.s.s 5.L.L.L.'.'.L.I # v v x O f.J.'.'.'.'.~.C.5.*.*.5.C.~.'.'.'.'.J.k.;.*.-.7.J.'.'.'.'.'.'.'.;.i s.@Xw.t.h.f.d.d.d.d.d.g       R @.2.8.B.R.E.E.E.E.Q.Y.",
"E.W.E.E.E.E.V.0.2.=.=.Y       N N N N N N D X.H.s.> ..C.L.[.'.L.L.g.t., , H E A.'.~.'.'.'.'.L.C.5.5.C.~.'.'.'.'.'.'.J.l.5.j.J.L.'.L.'.'.'.'.L.j.i u.+XOX+X+XOX+X+X+X+X<XM O     R 2.2.6.0.T.E.E.E.E.E.N.",
"E.E.E.E.E.E.V.0.4.2.=.Y       a h N N N N B D f.p.H Z &.k.A.A.G.J.G.h.1 # r G.A.J.A.A.A.A.A.A.A.A.A.A.A.A.A.A.A.A.A.A.G.A.A.G.A.J.G.G.G.G.G.k.-.i o % ; : : = = = % . <X,       R 2.2.6.0.T.E.E.E.E.E.N.",
"T.T.E.E.E.T.B.8.2.2.=.Y       , i g b b b n m b e.s.= z } } } } } } } } } } } } } } } } } } } } } } } } } } } } } } } } } } } } } } } } } } &.-.i d [ &.*.*.*.*.&.j . <X,       R @.2.3.8.V.T.E.E.E.T.n.",
"0.B.E.W.W.0.8.@.=.=.2.Y                         O q.+X< < < @ @ < < < < < < < < @ @ < < < < < < < < < < @ < < < < < < < < < < < ; . . . . . d } s S *.*.*.*.*.*.*.[ . <X        R 2.=.=.=.8.b.E.E.W.m.<.",
"4.6.9.8.9.6.3.2.=.=._ m             ; = u u u i b b U <X<X<X<X<X<X<X<X<X<X<X<X<X<X<X<X<X<X<X<X<X<X<X<X<X<X<X<X<X<X<X<X<X<X<X<X<X>X. . . . . . ' i S *.*.*.*.*.*.&.j . <X        A } =.=.=.4.6.9.9.0.:.O.",
"2.=.=.=.2.2.+.2.=.=.~ n             , a N N N N n N V N V V a ;             A ^ =.=.=.=.2.=.=.=.X.R =.=.=.=.=.=.2.=.=.=.~ n   q >X. . . . . . f * S *.*.*.*.%.[ j < <X          A ^ =.=.=.+.2.2.2.=.X.R ",
"              O                                           O                           O         O                       O     q >X. . . . . f % d [ *.*.*.*.*.' < >X                    O   O   O O     ",
"- 2 4 4 2 4 4 4 4 4 4 2 2 O                                             O - 2 4 4 4 4 4 4 4 4 4 2 - - 2 4 4 4 4 4 4 4 4 4 2 2 q >X. . . . . X f ] &.*.*.*.*.*.R @ >X        O 2 2 2 4 4 4 4 4 4 4 4 2 2 ",
"~ _ 2.+.=.=.=.=.=.=.=. .~ -                                             5 ~ +.=.=.=.=.=.=.=.=.=.^ D ~ _ 2.@.=.=.=.=.=.=.=. .~ r >X. . j j ] } ..&.*.*.*.*.*.*.| k t >X      5 ~ +.=.=.=.=.=.=.=.+.2.^ D ",
" .+.2.2.=.=.=.=.=.=.=.=. .2 O n S Y Y Y Y Y Y Y Y Y Y Y Y Y Y Y Y n n   6  .=.=.=.=.=.=.=.=.=.=.@.{ @.+.2.=.=.=.=.=.=.=.=.=. .r >X. f | &.&.*.*.*.*.*.*.*.*.*.&.[ k t OXn   7 +.=.=.=.=.=.=.=.=.2.2.+.{ ",
"=.=.=.=.=.=.=.=.=.=.=.=.=.4   ~ _ 3.:.+.=.=.=.=.=.=.=.3.=.=.=.2.4.^ D   9 =.=.=.=.=.=.=.=.=.=.=.=.o.=.=.=.=.=.=.=.=.=.=.=.=.2.P >X. z *.*.*.*.*.*.*.*.*.*.*.*.*.&.] . <XD   9 =.=.=.=.=.=.=.2.2.2.@.2.o.",
"=.4.0.V.E.E.E.E.E.E.0.8.=.4   =.@.2.=.=.=.=.=.=.=.2.=.=.=.=.2.2.=.=.o.  9 2.8.b.E.E.E.E.E.E.V.0.4.#.=.4.0.V.E.E.E.E.E.E.0.8.=.8 w.s.& W &.*.*.*.*.*.*.&.*.*.*.&.&.Z . <Xo.  9 2.7.0.E.E.E.E.E.E.B.0.3.o.",
"2.8.m.V.E.E.E.E.E.E.m.9.4.4   =.=.:.3.3.7.7.7.7.8.6.6.6.6.6.3.2.=.=.o.  9 4.b.B.E.E.E.E.E.E.V.m.7.#.2.8.m.R.E.E.E.E.E.E.b.k.4.4 1 D.s.* p i i i i i 5 b i i i i p & . <Xo.  9 4.0.B.E.E.E.E.E.E.V.m.6.:.",
"b.B.W.E.E.E.E.E.E.E.W.V.0.8   =.=.=.9.0.E.E.E.E.E.E.E.E.E.R.0.8.=.=.o.  r 0.T.E.E.E.E.E.E.E.E.E.m.<.0.B.E.E.E.E.E.E.E.E.E.V.b.8   =.U.u.u.u.u.u.u.u.u.u.u.u.u.u.u.u.u.<Xo.  r b.R.E.E.E.E.E.E.E.E.E.m.<.",
"V.T.E.E.E.E.E.E.E.E.W.T.V.8   2.4.8.m.V.E.E.E.E.E.E.E.E.E.E.V.m.7.3.o.  I V.R.E.E.E.E.E.E.E.E.E.T.n.V.T.E.E.E.E.E.E.E.E.E.R.V.8   =.4.7.B.V.E.E.E.W.E.E.E.E.E.E.V.m.7.3.o.  I V.R.E.E.E.E.E.E.E.E.E.V.c.",
"E.E.E.E.E.E.E.E.E.E.E.E.E.w   2.7.0.V.E.E.E.E.E.E.E.E.E.E.E.E.V.b.3.o.  I W.E.E.E.E.E.E.E.E.E.E.E.N.E.E.E.E.E.E.E.E.E.E.E.E.E.w   =.4.b.V.E.E.E.E.E.E.E.E.E.E.E.E.V.b.3.o.O I E.W.E.E.E.E.E.E.E.E.E.E.N.",
"E.E.E.E.E.E.E.E.E.E.E.E.E.w   2.9.E.W.E.E.E.E.E.E.E.E.E.E.E.E.E.E.4.o.  I E.E.E.E.E.E.E.E.E.E.E.E.N.E.E.E.E.E.E.E.E.E.E.E.E.E.w   =.9.W.W.E.E.E.E.E.E.E.E.E.E.E.E.E.E.7.o.  I E.E.E.E.E.E.E.E.E.E.E.E.N.",
"E.E.E.E.E.E.E.E.E.E.E.E.E.w O @.9.E.E.E.E.E.E.E.E.E.E.E.E.E.E.E.E.7.o.  I E.E.E.E.E.E.E.E.E.E.E.E.N.E.E.E.E.E.E.E.E.E.E.E.E.E.w   =.9.E.E.E.E.E.E.E.E.E.E.E.E.E.E.E.E.8.o.  I E.E.E.E.E.E.E.E.E.E.E.E.N.",
"E.E.E.E.E.E.E.E.E.E.E.E.E.w O =.9.E.E.E.E.E.E.E.E.E.E.E.E.E.E.E.E.7.o.  I W.E.E.E.E.E.E.E.E.E.E.E.N.E.E.E.E.W.E.E.E.E.E.E.E.E.w O =.9.E.E.E.E.E.E.E.E.E.E.E.E.E.E.E.E.7.o.  I E.E.E.E.E.E.E.E.E.E.E.W.N.",
"B.V.E./.).oX X).).).E.T.B.8   =.8.B.T.E.|.Q.E.(.|.oX.X).).(.E.T.B.4.o.  P B.R.W.).).).oXoX|.Q.W.B.1.B.V.E./.).XX X).).).E.V.B.8   =.6.B.T.E.(.Q.E.|.|. X X|.).).W.T.B.6.o.  P B.E.E.).|.).oXoX|./.E.B.1.",
"0.B.E.)..X:X;X.X.X.XE.V.0.8   =.4.0.T.E..X|.E.|..X:X;X.X.X XE.V.0.4.o.O r 0.T.W..X.X.X;X;XoX(.W.m.<.b.B.E.|..X:X;X.X.X.XE.V.9.8   2.4.0.T.E..X|.E.|..X:X;X.X.X XE.V.0.2.o.O 0 0.T.W..X.XoX;X;X.X(.E.n.<."
};
