/* XPM */
static char *heath_31730238879[] = {
/* columns rows colors chars-per-pixel */
"100 50 200 2 ",
"   c #3F3851",
".  c #47204A",
"X  c #4E224B",
"o  c #56234B",
"O  c #463852",
"+  c #4C3A51",
"@  c #553754",
"#  c #523C53",
"$  c #5B3C51",
"%  c #68284D",
"&  c #73294D",
"*  c #6D3453",
"=  c #653D52",
"-  c #6A3954",
";  c #703452",
":  c #773B57",
">  c #733659",
",  c #5E3B60",
"<  c #53485D",
"1  c #654555",
"2  c #684555",
"3  c #684958",
"4  c #764352",
"5  c #784955",
"6  c #7A4D58",
"7  c #6B545D",
"8  c #7C535B",
"9  c #7A595F",
"0  c #575067",
"q  c #6E5C62",
"w  c #6F5A69",
"e  c #795967",
"r  c #755677",
"t  c #7F626D",
"y  c #843F4F",
"u  c #843E56",
"i  c #81365B",
"p  c #8A365C",
"a  c #8A3958",
"s  c #953756",
"d  c #9F3351",
"f  c #943B56",
"g  c #AE3752",
"h  c #A23D55",
"j  c #A63F5A",
"k  c #B73A5A",
"l  c #A23460",
"z  c #A63D65",
"x  c #D43E5B",
"c  c #C43464",
"v  c #93424E",
"b  c #984853",
"n  c #80535F",
"m  c #9E5358",
"M  c #A1434F",
"N  c #AE444E",
"B  c #B34A4F",
"V  c #A34054",
"C  c #A94250",
"Z  c #A94E53",
"A  c #B74755",
"S  c #AF5352",
"D  c #AC535F",
"F  c #BE5553",
"G  c #B25658",
"H  c #AE645D",
"J  c #894A66",
"K  c #865267",
"L  c #805F62",
"P  c #955767",
"I  c #AA5460",
"U  c #836367",
"Y  c #866E6B",
"T  c #876C75",
"R  c #9D6E79",
"E  c #A46463",
"W  c #AE656C",
"Q  c #B96D65",
"!  c #B16D74",
"~  c #B17A7C",
"^  c #C84C5C",
"/  c #C05355",
"(  c #C25B57",
")  c #D25654",
"_  c #D45B57",
"`  c #E04656",
"'  c #C7675C",
"]  c #D6605A",
"[  c #D8655D",
"{  c #D9685F",
"}  c #C05D64",
"|  c #CD5B62",
" . c #D65C63",
".. c #CB6664",
"X. c #D56667",
"o. c #DE6366",
"O. c #DC6F64",
"+. c #DA6B6A",
"@. c #CD7363",
"#. c #CE7669",
"$. c #C57968",
"%. c #DE7467",
"&. c #D6796A",
"*. c #C2717A",
"=. c #EB6569",
"-. c #E56D6A",
";. c #E9716C",
":. c #E27F6D",
">. c #EC7B74",
",. c #D6826E",
"<. c #C18773",
"1. c #D68771",
"2. c #D79479",
"3. c #DA9D7E",
"4. c #E3826F",
"5. c #E48671",
"6. c #E68A73",
"7. c #EE847D",
"8. c #E79076",
"9. c #E89177",
"0. c #E99578",
"q. c #EB9A7C",
"w. c #EDA27F",
"e. c #7B7487",
"r. c #9F7C82",
"t. c #877E91",
"y. c #AF7C83",
"u. c #878091",
"i. c #B38588",
"p. c #B78E8D",
"a. c #B38992",
"s. c #A38CA3",
"d. c #AB9AA7",
"f. c #B596A6",
"g. c #BAA7BA",
"h. c #B9A8BA",
"j. c #CC878F",
"k. c #CE9C96",
"l. c #CF9F99",
"z. c #D49091",
"x. c #E2918B",
"c. c #F5988C",
"v. c #E19C93",
"b. c #DCA181",
"n. c #DFAB86",
"m. c #DCA79E",
"M. c #EEA582",
"N. c #F0AC85",
"B. c #E1B089",
"V. c #E3B88E",
"C. c #F3B389",
"Z. c #F5BB8E",
"A. c #F9AE9F",
"S. c #E4BC93",
"D. c #E9AEA4",
"F. c #E2AFAC",
"G. c #E7B1A5",
"H. c #E7B5AC",
"J. c #E7B8AC",
"K. c #F8B7A8",
"L. c #F1B8AD",
"P. c #FDBAAA",
"I. c #E7B9B1",
"U. c #E4C49A",
"Y. c #F7C091",
"T. c #F8C393",
"R. c #FBCA97",
"E. c #FBCD9A",
"W. c #FCD19E",
"Q. c #EEC7A5",
"!. c #E7D3AA",
"~. c #FCD5A3",
"^. c #FDDAA7",
"/. c #FEDEAB",
"(. c #E8C3BA",
"). c #E8C8BF",
"_. c #F3C4B7",
"`. c #FFC2B1",
"'. c #FFCDBD",
"]. c #E7D8B4",
"[. c #E7DDBE",
"{. c #FEE2AF",
"}. c #FEE5B5",
"|. c #FFEAB7",
" X c #FEE7BC",
".X c #FEE9BD",
"XX c #CFC8D2",
"oX c #D1C2D0",
"OX c #E8CCC7",
"+X c #E7DCC3",
"@X c #E8D5D1",
"#X c #E8D8D5",
"$X c #E7E1C5",
"%X c #FEECC2",
"&X c #FFF0C2",
"*X c #FFF5CB",
"=X c #FFF9D5",
"-X c #E8DDE7",
";X c #E7E0E7",
":X c #FFF8FD",
/* pixels */
"2.3.V.Q.!.$X[.!.!.!.V.n.2.3   $.1.2.n.V.!.!.!.[.+X!.!.!.S.V.V.n.2.&.Q   9 2.B.V.!.!.!.[.$X!.U.V.3.<.2.3.V.U.!.$X[.!.!.!.V.B.2.1   #.,.2.B.V.!.!.!.[.$X!.!.!.S.V.V.n.2.#.Q   q 2.B.S.!.!.!.[.$X!.U.V.3.<.",
"N.Z.R.^.{.&X.X{.{.{.R.Z.N.7   4.6.N.T.E.{.}.{..X%X{.{.{.W.R.R.Z.N.6.#.  t N.T.E.{.{.{..X.X{.^.R.C.3.N.Z.R.^.}.&X|.{.{.{.R.Z.N.q   :.6.N.T.R.{.}.{..X%X{.{.{.W.R.R.Z.N.6.#.  U C.Y.E.{.{.{..X%X{.~.R.C.3.",
"R.R.R.R.R.R.R.R.R.R.R.R.R.q   :.q.R.R.R.R.R.R.R.R.R.R.R.R.R.R.R.E.9.#.  Y R.R.R.R.R.R.R.R.R.R.R.R.V.R.R.R.R.R.R.E.R.R.R.R.R.R.q   4.q.R.R.R.R.R.R.R.R.R.R.R.R.R.R.R.R.9.@.  Y R.R.R.R.R.R.R.R.R.R.R.R.V.",
"R.R.R.R.R.R.R.R.R.R.R.R.R.q   :.q.R.R.R.R.R.R.R.R.R.R.R.R.R.R.R.R.8.#.  Y R.R.R.R.R.R.R.R.R.R.R.R.V.R.R.R.R.R.R.R.R.R.R.R.R.R.q   4.q.R.R.R.R.R.R.R.R.R.R.R.R.R.R.R.R.9.#.O Y R.R.R.R.R.R.R.R.R.R.R.R.V.",
"R.R.R.R.R.R.R.R.R.R.R.R.R.q   :.q.E.R.R.R.R.R.R.R.R.R.R.R.R.R.R.R.9.#.  Y R.R.R.R.R.R.R.R.R.R.R.R.V.R.R.R.R.R.R.R.R.R.R.R.R.R.q   :.q.R.R.R.R.R.R.R.R.R.R.R.R.R.R.R.R.0.#.  Y R.R.R.R.R.R.R.R.R.R.R.R.V.",
"R.R.R.R.R.R.R.R.R.R.R.R.R.q   :.6.M.T.R.R.R.R.R.R.R.R.R.R.R.R.Z.w.6.#.  Y R.R.R.R.R.R.R.R.R.R.R.R.V.R.R.R.R.R.R.R.R.R.R.R.R.R.q   :.6.M.Y.R.R.R.R.R.R.R.R.R.R.R.R.Z.N.6.#.  Y R.R.R.R.R.R.R.R.R.R.R.R.V.",
"Y.Y.R.R.R.R.R.R.R.R.R.R.Z.q   :.6.q.Z.Z.R.R.R.R.R.R.R.R.R.R.Y.C.w.5.#.  Y Y.R.R.R.R.R.R.R.R.R.R.T.B.Y.Y.R.R.R.R.R.R.R.R.R.T.Z.q   :.6.q.C.Y.R.R.R.R.R.R.R.R.R.R.Y.C.q.4.#.  Y Y.R.R.R.R.R.R.R.R.R.R.T.B.",
"w.C.R.R.R.R.R.R.R.R.R.Z.w.7   :.:.:.q.M.R.R.R.R.R.R.R.R.R.T.w.q.4.,.#.  9 w.T.R.R.R.R.R.R.R.R.R.N.2.w.C.R.R.R.R.R.R.R.R.R.Z.w.7   :.:.:.q.M.R.R.R.R.R.R.R.R.R.T.w.0.4.,.#.O 9 w.Y.R.R.R.R.R.R.R.R.R.N.2.",
"8.w.C.T.R.R.R.R.R.R.Z.M.9.3 :Xs.s.s.s.s.s.s.s.s.s.s.s.s.s.s.s._.:.:.#.O e 6.N.C.R.R.R.R.R.R.Y.C.q.1.8.q.C.Y.R.R.R.R.R.R.C.N.8.3   :.:.:.6.8.M.M.M.M.M.M.M.M.M.M.8.6.:.:.#.  9 6.N.C.R.R.R.R.R.R.Y.Z.q.1.",
"4.6.w.Z.R.R.R.R.R.R.w.0.:.3 :X. & i u u u u u u u u u u : & . g.D.5.@.O 8 4.q.N.R.R.R.R.R.R.Z.w.5.#.4.6.w.Z.R.R.R.R.R.R.M.9.4.3   4.:.:.:.4.:.:.:.:.:.:.:.:.:.:.:.:.:.:.#.  8 :.q.N.R.R.R.R.R.R.C.w.5.#.",
":.4.4.4.5.6.5.6.5.5.4.4.4.3 :X. A ;.;.;.;.;.;.;.;.;.;.;.;.^ & . g.k...  8 4.:.5.5.5.6.5.5.5.4.4.4.#.4.4.4.6.6.6.5.6.6.6.4.4.:.3   _ [ :.:.:.:.:.:.:.:.:.:.:.:.:.:.4.:.] ( O 8 :.4.4.6.6.5.6.6.6.5.4.4.#.",
"%.%.:.:.4.4.:.:.:.:.4.&.%.3 :X. | ;.;.;.;.;.;.;.;.;.;.;.;.-.k . . ;XI   8 -.&.:.4.:.4.4.:.:.4.:.%...%.%.:.:.:.:.,.4.:.:.:.:.%.2   S G Q Q Q Q Q Q W Q Q Q Q Q Q Q Q Q G b   6 %.:.:.:.4.:.:.:.:.4.,.%...",
") [ 4.:.:.:.:.:.:.:.:.%.) 1 oXr j  .-.;.;.;.;.;.;.;.;.-.o. .d . . -X0   4 ) %.:.:.:.4.&.4.4.:.:.] / ) [ :.:.:.:.:.:.4.4.:.O.) =                 O               O           4 ) %.:.:.:.:.:.:.:.:.:.] / ",
"4 5 8 8 8 8 8 8 8 8 8 6 4 +   ;Xr h  .;.;.;.;.;.;.-.+.| g d . . . -X0   # 4 6 8 8 8 8 8 8 8 8 8 5 2 4 5 8 8 8 8 8 8 8 8 8 6 4 +                                             # 4 6 8 8 8 8 8 8 8 8 8 4 4 ",
"                                ;X, } ;.;.;.;.;.-.^ d X . . . . . -X0           O       O                                   O               O     O                                                     ",
"#.#.#.#.#.#.#.#.#.#.F v         ;X@ } ;.;.;.;.;. .s % d . . . . . -XK O     Z F #.#.#.#.#.#.#.#.Q H #.#.#.#.#.#.#.#.#.#.F v         @ i a f h b p i >   $ i a f b d f u >       Z F #.#.#.#.#.#.#.#.Q H ",
"4.6.9.9.9.4.5.4.:.:._ m       :X, g o.;.;.;.;.;.I & d . . . . . . -XP O     D { :.:.4.5.5.0.8.8.,.$.5.5.9.9.9.5.5.:.4.:._ m         $ p d V B C h f a   @ p d h N g h s a       G { :.:.:.5.5.9.8.9.,.$.",
"w.C.R.R.R.w.0.:.:.:.4.E     :X. g -.;.;.;.;.;.;.I u F . . . . . . -X:X:X:X:X:X:X:X:X:X:X:X:X:X:X:X:X:X:X:X:X:X:X:X:X:X:X:X:X:X:X:X:X:X:X:X:X:X*.C h p   = d C B N N C h p       Q :.:.:.:.q.M.R.R.R.N.2.",
"Z.Y.R.R.R.Z.N.0.5.:.:.E     :X. | ;.;.;.;.;.;.;.I u >.! . . . . . , , , $ , , , @ , , , , , , , , , $ , , , , = , , , @ , , , , , , , , , , , XXr.= $ O + = = = = = = = $ O     Q :.:.6.0.C.Z.R.R.R.Y.n.",
"R.R.R.R.R.R.Z.w.5.:.:.E     :X. k -.;.;.;.;.;. .s v 7.P.H.D.D.D.OXD.(.@XOXI.I.).@X#X#X#X#X@X).).OXD.G.G.D.(.#XOXH.I.OXOX#X#X#X#X@X).).D.G.x.+.> h.e.        O O   O             Q :.:.9.M.Z.R.R.R.R.R.V.",
"R.R.R.R.R.R.Z.w.5.4.:.E     :X. % ; ; ; * * * % o u 7.`.`.`.`.`.H.G.H.'.OXP.L.J._.OX'.'.OXL.L.J.`.`.L.F.G.L.OX'.`.`.J.I.I.OX'.'.I.I._.`.`.P.c...R f.l.Q G G M b i -             Q :.:.6.M.Z.R.R.R.R.E.V.",
"~.~.R.R.R.R.Z.N.6.:.:.E     :XXXoXoXoXoXoXoXoXoXs.u 7.`.`.`.`.`.    < `.P.l.O   T `.`.`.`.O O < `.`.l.    T `.`.`.`.    < `.`.l.    T `.`.`.P.7.i g.I.@.' ( B C f :             Q :.5.0.N.T.R.R.R.R.~.U.",
"=X.XR.R.R.R.R.R.9.:.:.E     u.u.t.t.a.j.j.z.m.OXg.u x.`.`.`.l.w l l z w w 8 A ..W w `.l.w l l z w w K A Q W w `.l.w l l z w w K A } W w `.`.`.7.u g.F.@.#.@.B B C v             Q :.:.M.R.R.R.R.R.R.&X$X",
"&X}.R.R.R.R.R.R.9.:.:.E           O u f B B ' H.g.a 7.`.`.`.p.  c c k = = u ` =.D   `.p.O c c k = = v ` =.D O P.i.  c c k = $ v ` =.I   `.`.`.7.u g.I.@.' ' B C f ;             Q :.:.M.R.R.R.R.R.R.}.].",
"|./.R.R.R.R.R.R.9.:.:.E             > p N B ( F.h.v 7.`.`.`.a.  c x ` ` ` ` ` ` h   `.p.  c x ` ` ` ` ` ` V   `.~   k x ` ` ` ` ` ` h   `.`.`.7.u h.I.@.' / B N i -             Q &.4.M.R.R.R.R.R.R.{.!.",
"E.E.R.R.R.R.R.R.9.4.:.E             O O + + + d.h.u 7.`.`.`.p.O c x ` ` ` ` ` ` h O `.p.  c x ` ` ` ` ` ` V   `.~   c x ` ` ` ` ` ` h O `.`.`.7.u h.d.+ # + + O O O             Q :.:.M.R.R.R.R.R.R.R.S.",
"~.E.R.R.R.R.R.R.9.:.:.E     O + @ @ $ $ $ $ $ d.h.v 7.`.`.`.m.r.i k x ` ` ` ` f P R `.m.R : k x ` ` ` ` b P r.`.z.P u k x ` ` ` ` b P r.`.`.`.7.u h.d.  O 1 $ $ $ $ $ @ +       Q :.:.M.R.R.R.R.R.R.W.U.",
"|./.R.R.R.R.R.R.9.:.:.E       a f N N N N B F m.h.: 7.`.`.`.`.`.  p c ` ` ` ` # U K.`.`.`.  p c ` ` ` ` @ T `.`.A.c.  s c ` ` ` ` # T `.`.`.`.7.u h.l.O 2 F A C C B N s :       Q :.:.M.R.R.R.R.R.R.{.!.",
"~.W.R.R.R.R.Z.C.6.4.:.E       d h N N N N F ' F.h.: 7.L.P.'.P.`.`.T @ c c l O x.K.`.`.`.`.P.L @ c c l   D.`.`.`.`.K.c.K @ c c l O G.`.`.`.`.P.x.u g.OXt.a.k.z.j.j.j.j.j.f       Q :.:.q.C.T.R.R.R.R.W.U.",
"R.R.R.R.R.R.Z.w.5.:.:.E     O N N N N N N S @.H.g.u ;.c.P.P.'.P.`.k.i.> > J ~ D.`.`.`.`.`.`.l.~ * > J p.L.`.`.`.`.`.A.<.! > > J p.L.`.`.`.P.K.7.u s.oXoXoXoXoXoXoXoXoX:XV O     Q :.:.8.w.Z.R.R.R.R.R.V.",
"R.R.R.R.R.R.Z.w.6.:.:.E       p f N N N N B / z.f.J k +.c.A.A.A.A.A.v.# # e A.A.A.A.A.A.A.A.K.v.# # e A.A.A.A.A.A.A.A.A.v.< # r A.A.A.A.A.A.c.>.u o % * ; ; * * * % . :X:       Q :.4.9.w.T.R.R.R.R.R.V.",
"Y.T.R.R.R.Y.C.q.4.4.:.E       > y f v v v b Z v y.g.- A X.X.X.X.X.X.X.X.X.X.X.X.X.X.X.X.X.X.X.X.X.X.X.X.X.X.X.X.X.X.X.X.X.X.X.X.X.X.X.X.X.X.-.-.u s  .-.;.;.;.-.-.g . :X>       Q :.:.6.q.C.T.R.R.R.Y.B.",
"w.C.R.R.R.w.0.:.:.:.,.E                         O e.XX, , , , $ @ , , , , , , , @ , , , , , , , , , , , @ , , , , , , , , , , , = . . . . . s  .a D ;.;.;.;.;.;.;. .. :X        Q :.:.4.:.q.N.R.R.R.N.2.",
"6.9.q.q.q.6.4.:.:.4.[ Z             - * y y y y y u R :X:X:X:X:X:X:X:X:X:X:X:X:X:X:X:X:X:X:X:X:X:X:X:X:X:X:X:X:X:X:X:X:X:X:X:X:X-X. . . . . . Q i D ;.;.;.;.;.;.-.g . :X        G { :.:.4.4.6.q.q.q.5.$.",
"4.:.:.:.4.4.:.:.4.:.) b             > p N N N N N N N N C C p * O           Z _ :.:.:.4.4.4.:.:.@.Q :.:.:.:.:.:.4.:.:.:.) b   0 -X. . . . . . d & D ;.;.;.;.;. .g , :X          Z _ :.:.:.:.:.:.4.4.#.Q ",
"                  O                                       O                                     O                       O     0 -X. . . . . d % s  .;.;.;.;.;.} , -X                                    ",
"= 1 3 3 2 3 3 3 3 3 3 2 1 O                                             O = 3 3 2 3 3 2 3 2 2 2 1 = = 1 2 2 3 3 3 3 3 3 3 1 = 0 -X. . . . . X d ^ ;.;.;.;.;.;.Q , ;X        O 1 1 3 3 3 3 3 3 3 2 3 1 = ",
") ] :.:.:.:.:.:.&.4.:.O.) =               O                             5 ) :.&.:.:.4.:.4.4.4.4._ F ) ] :.:.:.:.:.:.:.:.4.O.) e -X. . g g | X.o.-.;.;.;.;.;.;.o.d r ;X      4 ) %.4.:.:.:.:.:.:.4.:._ F ",
"%.%.:.:.:.:.:.:.:.:.:.:.O.1   b D E E E E E E E E E E E E E E E E m v   5 O.:.:.:.:.:.:.:.:.4.4.%...%.:.:.4.:.:.:.:.:.:.:.:.O.L -X. d o.o.;.;.;.;.;.;.;.;.;.;.=. .V r XXv   5 O.%.4.:.:.:.:.:.:.:.:.%.' ",
":.:.:.:.:.:.:.:.:.:.:.:.4.3   ) [ :.5.&.:.:.:.:.:.4.4.&.:.:.:.:.:.] F O 6 :.:.:.:.:.:.:.:.:.4.4.4.#.&.4.:.:.:.:.:.:.:.:.:.:.:.U -X. k ;.;.;.;.;.;.;.;.;.;.;.;.;.;.| . :XF O 8 :.:.:.:.:.:.:.4.4.:.:.4.#.",
":.6.w.Z.R.R.R.R.R.R.w.q.:.3   :.&.4.4.4.:.:.:.:.4.:.:.4.:.:.4.4.:.:.#.  8 4.0.w.E.R.R.R.R.R.Z.w.5.#.4.6.w.Z.R.R.R.R.R.R.M.8.:.7 t.h.& ^ -.;.;.;.;.;.;.;.-.-.;.;.-.A . :X#.  8 4.q.w.R.R.R.R.R.R.C.w.5.#.",
"4.0.N.Y.R.R.R.R.R.R.N.q.5.3   :.:.4.4.5.8.9.9.9.8.8.8.8.8.8.5.4.:.:.#.  n 5.w.C.R.R.R.R.R.R.Z.w.8.,.5.0.N.Y.R.R.R.R.R.R.N.M.5.3 # D.h.& i u J u u u u u 5 v u u : & . :X#.  8 6.w.C.R.R.R.R.R.R.Z.N.8.,.",
"w.C.R.R.R.R.R.R.R.R.E.Z.w.7   :.:.:.q.w.R.R.R.R.R.R.R.R.R.T.w.0.:.:.#.  e w.T.R.R.R.R.R.R.R.R.R.N.2.w.C.R.R.R.R.R.R.R.R.R.Z.c.7   :.I.s.s.s.s.s.s.s.s.s.s.s.s.s.s.s.s.:X#.  U w.Y.R.R.R.R.R.R.R.R.R.N.2.",
"Z.Y.R.R.R.R.R.R.R.R.R.T.Z.7   4.6.0.N.Z.R.R.R.R.R.R.R.R.R.R.Z.N.9.5.#.  Y Z.T.R.R.R.R.R.R.R.R.R.Y.n.Z.Y.R.R.R.R.R.R.R.R.R.T.Z.7 O :.6.8.C.Z.R.R.R.R.R.R.R.R.R.R.Z.N.q.5.#.  U Z.T.R.R.R.R.R.R.R.R.R.Y.n.",
"R.R.R.R.R.R.R.R.R.R.R.R.R.q O 4.6.M.Z.R.R.R.R.R.R.R.R.R.R.R.R.Z.w.6.#.  Y E.R.R.R.R.R.R.R.R.R.R.R.V.R.R.R.R.R.R.R.R.R.R.R.R.R.q   :.6.M.T.R.R.R.R.R.R.R.R.R.R.R.R.Z.M.5.#.  Y R.R.R.R.R.R.R.R.R.R.R.R.V.",
"R.R.R.R.R.R.R.R.R.R.R.R.R.q   4.q.R.R.R.R.R.R.R.R.R.R.R.R.R.R.R.R.8.#.  Y R.R.R.R.R.R.R.R.R.R.R.R.V.R.R.R.R.R.R.R.R.R.R.R.R.R.q O :.M.R.R.R.R.R.R.R.R.R.R.R.R.R.R.R.R.9.#.  Y R.R.R.R.R.R.R.R.R.R.R.R.V.",
"R.R.R.R.R.R.R.R.R.R.R.R.R.q   &.q.R.R.R.R.R.R.R.R.R.R.R.R.R.R.R.R.8.#.  Y R.R.R.R.R.R.R.R.R.R.R.R.V.R.R.R.R.R.R.R.R.R.R.R.R.R.q   &.M.R.R.R.R.R.R.R.R.R.R.R.R.R.R.R.R.9.#.  Y R.R.R.R.R.R.R.R.R.R.R.R.V.",
"R.R.R.R.R.R.R.R.R.R.R.R.R.q O 4.q.R.R.R.R.R.R.R.R.R.R.R.R.R.R.R.R.8.#.  Y R.R.R.R.R.R.R.R.R.R.R.R.V.R.R.R.R.R.R.R.R.R.R.R.R.R.q O :.0.R.R.R.R.R.R.R.R.R.R.R.R.R.R.R.R.8.#.  Y R.R.R.R.R.R.R.R.R.R.R.R.V.",
"C.Z.R.~./..X}./././.R.Z.C.7   4.0.C.T.R.{.W.R.^.{.|.}./.{.^.R.Y.C.6.#.  t C.T.R.^.{./..X X{.W.R.C.b.C.Z.R.~./..X}./././.R.Y.C.7   4.8.N.T.R.{.W.R.^.{.|.}.{./.^.R.T.C.6.#.  t C.T.E./././. X X{.~.R.C.b.",
"w.C.R./.|.=X*X|.|.|.R.Z.w.7   :.6.w.Y.R.|.{.R.{.|.=X*X|.|.}.R.Z.w.6.#.O 9 w.Y.W.|.|..X*X*X|.^.R.N.2.w.C.R./.|.=X*X.X|.|.R.Z.w.7   4.6.w.T.R.}.{.R.{.|.=X*X|.|.}.R.Z.w.6.#.O 9 w.Y.E.|.|.|.*X=X|.^.R.N.2."
};
