/* XPM */
static char *wall_bottom_right1730374235[] = {
/* columns rows colors chars-per-pixel */
"50 50 174 2 ",
"   c #3F3851",
".  c #463950",
"X  c #443852",
"o  c #4B3951",
"O  c #483A51",
"+  c #4D3951",
"@  c #4C3A50",
"#  c #4C3852",
"$  c #4F3C51",
"%  c #4F3C52",
"&  c #513754",
"*  c #543A50",
"=  c #543A51",
"-  c #543852",
";  c #513C51",
":  c #523C51",
">  c #513F53",
",  c #523E53",
"<  c #5A3B50",
"1  c #5B3B50",
"2  c #763E4F",
"3  c #7D3F4F",
"4  c #643756",
"5  c #683757",
"6  c #613C50",
"7  c #683C50",
"8  c #693C50",
"9  c #6B3954",
"0  c #6E3658",
"q  c #763659",
"w  c #773659",
"e  c #793758",
"r  c #7B3858",
"t  c #4B4357",
"y  c #534055",
"u  c #534155",
"i  c #5E4153",
"p  c #564A5A",
"a  c #574E5E",
"s  c #604252",
"d  c #604454",
"f  c #624756",
"g  c #6D4152",
"h  c #6E4554",
"j  c #774652",
"k  c #794150",
"l  c #7A4150",
"z  c #724B56",
"x  c #734B56",
"c  c #744E58",
"v  c #843F4E",
"b  c #843C54",
"n  c #80365A",
"m  c #8D375A",
"M  c #89365C",
"N  c #8E385A",
"B  c #973B56",
"V  c #9B3D55",
"C  c #923958",
"Z  c #8B404F",
"A  c #92414E",
"S  c #94444F",
"D  c #864250",
"F  c #874350",
"G  c #864351",
"H  c #884752",
"J  c #804C56",
"K  c #8E4A52",
"L  c #8F4B52",
"P  c #8E4E56",
"I  c #954450",
"U  c #964751",
"Y  c #914F55",
"T  c #984A52",
"R  c #9B4B53",
"E  c #9F4F52",
"W  c #9A4D54",
"Q  c #825057",
"!  c #86555A",
"~  c #8F595D",
"^  c #905156",
"/  c #9E5357",
"(  c #925458",
")  c #96595B",
"_  c #975D5C",
"`  c #985D5C",
"'  c #A0424E",
"]  c #AA424F",
"[  c #AC434F",
"{  c #AE444E",
"}  c #B2484F",
"|  c #A44657",
" . c #A94250",
".. c #B24950",
"X. c #B24A50",
"o. c #B24A51",
"O. c #B44B50",
"+. c #A25656",
"@. c #AF5353",
"#. c #AA5155",
"$. c #AD5757",
"%. c #A25859",
"&. c #A0585B",
"*. c #A45A58",
"=. c #A45B5B",
"-. c #B65053",
";. c #BD5552",
":. c #BF5753",
">. c #B95656",
",. c #BB5957",
"<. c #BC5857",
"1. c #B15158",
"2. c #B35C58",
"3. c #BA5958",
"4. c #BD5B58",
"5. c #BF5C58",
"6. c #A7605C",
"7. c #A9645E",
"8. c #B8665E",
"9. c #936564",
"0. c #A46261",
"q. c #A46463",
"w. c #BB6B61",
"e. c #BB6C61",
"r. c #C15A55",
"t. c #C05B55",
"y. c #C25E57",
"u. c #D25654",
"i. c #C1615A",
"p. c #C1615B",
"a. c #C46159",
"s. c #C4635A",
"d. c #C6655B",
"f. c #C3645C",
"g. c #C5675D",
"h. c #C5675E",
"j. c #C76A5F",
"k. c #C86A5E",
"l. c #C96C5F",
"z. c #C96D60",
"x. c #CB6F61",
"c. c #DA6A60",
"v. c #CB7061",
"b. c #CD7363",
"n. c #DE7567",
"m. c #E07A69",
"M. c #E27F6D",
"N. c #9D8174",
"B. c #E3836F",
"V. c #E58871",
"C. c #E68D74",
"Z. c #E89278",
"A. c #EA997B",
"S. c #EC9E7D",
"D. c #9E8F82",
"F. c #9F9184",
"G. c #9F9388",
"H. c #9F958C",
"J. c #9F9993",
"K. c #EEA782",
"L. c #F4B68B",
"P. c #F5BB8E",
"I. c #F6BB8F",
"U. c #F8C292",
"Y. c #F9C594",
"T. c #FBCA97",
"R. c #FCCE9B",
"E. c #FCCF9D",
"W. c #FCD09E",
"Q. c #FEE6B3",
"!. c #FFEAB7",
"~. c #FFEEBF",
"^. c #FFF2C6",
"/. c #FFFAD6",
/* pixels */
"  t a p p p p p p p ; ; ; X     2 [ 1   O & ; O $   c b.b.b.b.`   O $ + . X                         ",
"  F.!.R.T.T.T.T.E.I.B.c.u.;     2 [ 1 O M | :...'   c b.b.b.b.`   / :.[ F                           ",
"  H.^.E.T.T.T.T.T.U.M.n.c.; X   k [ 1 O V 1.f.y.$.  c b.b.b.b.`   *.j.} Z                           ",
"  J./.W.T.T.T.T.T.U.M.M.B.,     2 [ 1 $  .4.b.b.w.  c b.b.b.b.` X 7.b.:.L                           ",
"  G.~.R.T.T.T.T.T.U.M.M.M.u     9 C - #  .<.b.b.w.  c b.b.b.b.`   7.b.j.)                           ",
"  D.Q.R.T.T.T.T.Y.P.M.M.M.u     4 r o % { <.b.b.w.  z z.b.b.z.) X 7.b.b._                           ",
"  N.T.T.T.T.T.T.K.S.M.M.M.u     X     o { y.b.b.e.  7 { j.k.{ D   7.b.b.`                           ",
"  N.T.T.T.T.U.P.A.Z.M.M.M.u           o { r.b.b.e.  < v ( ) v 7 X 7.b.v.`                           ",
"  N.T.T.T.T.L.K.B.M.M.M.M.u           % [ 4.b.b.e.  X             6.b.b._                           ",
"  9.Z.Z.Z.Z.C.V.M.M.M.M.M.u           O [ 4.b.b.e.  1 A &.6.A k X 7.b.i.^                           ",
"  ~ m.M.M.M.M.M.M.M.M.m.m.u           $ [ ,.l.k.8.  8 } j.l.} G   *.j.;.K                           ",
"  H u.m.M.M.M.M.M.M.M.c.u.;         X O M | r.{ R X z b.b.b.b._   *.:.{ v                           ",
"  g R 0.q.q.q.q.0.q.q.&.R O           X 5 3 Y F 3   c b.b.b.b._   j L D 7                           ",
"                                          X X       c b.b.b.b._                                     ",
"                                      X w F | S F X c b.b.b.b._   k A 7.&.S ;                       ",
"                                      o m | r.{ R   c b.b.b.b._ X S [ b.i.[ 1                       ",
"            4 M {  .M 4               o { 4.b.b.8.X c b.b.b.b.`   0.b.b.b.b.f                       ",
"            7 B  . .B 7               o { 4.b.b.w.X j 8.l.b.i.^   7.b.b.b.b.f                       ",
"            2 { { { { 2     X     X   o { 4.b.b.w.  g [ k.k.{ F   7.b.b.b.b.i                       ",
"q v B r 4   k [ { { { 2   0 e A b q o & { 4.b.b.e.  O < d i < + X 7.b.b.b.b.f X                     ",
"M V { m w   2 [ { { { 2   r m { B M & % { <.b.b.8.      X         0.b.b.b.b.f                       ",
";.g.v.r.E X 2 [ { { { 2   @.r.b.d.;.s $ r.f.b.b.8.                7.b.b.b.v.f                       ",
"t.l.b.s.*.X l ..-.-.} l   8.f.b.k.y.i ; y.k.b.b.e.X               7.b.b.b.b.f                       ",
"b.b.b.b.=.X J r.b.k.r.J   8.b.b.b.b.f y b.b.b.b.e.              X 7.b.b.b.b.f                       ",
"b.b.b.b.7.X k } b.j.X.k   8.b.b.b.b.f ; >.a.i.,.#.                T >.b.g.>.s                       ",
"b.b.b.b.7.X k { l.j.[ k X e.b.b.b.b.f O { } :.} W                 A { b.i.{ 1                       ",
"b.b.b.b.7.            X   e.b.b.b.b.f           X                                                   ",
"b.b.b.b.7.X ; 7 z z 7 *   e.b.b.b.b.f . 7 h c g 6                                                   ",
"b.b.b.b.7.  k ] j.l.[ k X e.b.b.b.b.f $ [ 5.b.-.S                                                   ",
"b.b.b.b.7.  j 8.b.l.i.J   e.b.b.b.b.f $ g.l.b.g.2.                                                  ",
"b.b.b.b.6.X ! b.b.b.b.!   e.b.b.b.v.f ; b.b.b.b.8.X                                                 ",
"[ 5.b.} S O ! b.b.b.b.Q X W } b.t.[ < u b.b.b.b.8.X                                                 ",
"A / 7.S k . ! b.b.b.b.!   Z U 7./ Z ; ; b.b.b.b.8.                                                  ",
"            ! v.b.b.b.!             X ; b.b.b.b.e.X                                                 ",
"            ! b.b.b.b.!   v F _ P D $ u b.b.b.b.e.                                                  ",
"            ! b.b.b.b.!   W } b.5.[ 1 ; b.b.b.b.e.                                                  ",
"            ! b.b.b.b.!   8.b.b.b.b.f $ [ 5.b.-.R X                                                 ",
"            Q g.b.b.g.Q   8.b.b.b.b.f O A / 7.T D                                                   ",
"            2 { l.l.[ 2 X e.b.b.v.b.f                                                               ",
"            * 7 x x 7 ;   #.,.b.g.>.i                                                               ",
"                          W } l.5.[ 1                                                               ",
"                          + * ; $ + .                                                               ",
"                            X                                                                       ",
"                                                                                                    ",
"                                                                                                    ",
"                                                                                                    ",
"                                                                                                    ",
"                                                                                                    ",
"                                                                                                    ",
"                                                                                                    "
};
