/* XPM */
static char *wall_top_left1730374235[] = {
/* columns rows colors chars-per-pixel */
"50 50 160 2 ",
"   c #3F3851",
".  c #483752",
"X  c #463950",
"o  c #443852",
"O  c #4C3A50",
"+  c #4D3853",
"@  c #4F3C51",
"#  c #4F3D52",
"$  c #533A50",
"%  c #543A50",
"&  c #543853",
"*  c #503F53",
"=  c #513F53",
"-  c #513854",
";  c #5A3B50",
":  c #5B3B50",
">  c #763E4F",
",  c #7D3F4F",
"<  c #603755",
"1  c #643756",
"2  c #693757",
"3  c #623C50",
"4  c #683D50",
"5  c #6B3954",
"6  c #6D3658",
"7  c #6E3658",
"8  c #7B3857",
"9  c #763659",
"0  c #4B4358",
"q  c #534154",
"w  c #5F4153",
"e  c #564A59",
"r  c #574E5E",
"t  c #604152",
"y  c #624756",
"u  c #6D4152",
"i  c #6E4554",
"p  c #774552",
"a  c #794150",
"s  c #7A4150",
"d  c #7F4752",
"f  c #7F4155",
"g  c #704855",
"h  c #724B56",
"j  c #744E58",
"k  c #843F4E",
"l  c #843F4F",
"z  c #843B54",
"x  c #8D375A",
"c  c #89365C",
"v  c #8E385A",
"b  c #973B56",
"n  c #9B3D55",
"m  c #923958",
"M  c #84404F",
"N  c #8B404F",
"B  c #92414E",
"V  c #92414F",
"C  c #95444F",
"Z  c #864350",
"A  c #8A4356",
"S  c #804D56",
"D  c #8E4A51",
"F  c #8F4B52",
"G  c #8E4E56",
"H  c #944450",
"J  c #964751",
"K  c #984953",
"L  c #9A4D53",
"P  c #9F4F52",
"I  c #86555A",
"U  c #8F595D",
"Y  c #905157",
"T  c #9E5256",
"R  c #95595A",
"E  c #95595B",
"W  c #975D5C",
"Q  c #985D5C",
"!  c #A0424E",
"~  c #AA424F",
"^  c #AE444E",
"/  c #B2494F",
"(  c #A44657",
")  c #A94250",
"_  c #B24A50",
"`  c #B24A51",
"'  c #B64F53",
"]  c #A35656",
"[  c #AF5353",
"{  c #AA5155",
"}  c #AD5757",
"|  c #A45958",
" . c #A45B5A",
".. c #BD5552",
"X. c #BF5753",
"o. c #B95454",
"O. c #B85455",
"+. c #B95556",
"@. c #B35C57",
"#. c #BB5857",
"$. c #BC5856",
"%. c #B15158",
"&. c #BD5B58",
"*. c #A7615D",
"=. c #A9645E",
"-. c #A9645F",
";. c #B7655F",
":. c #946564",
">. c #A36261",
",. c #A46463",
"<. c #BB6B61",
"1. c #BB6C61",
"2. c #C15A55",
"3. c #C25E57",
"4. c #D25654",
"5. c #C1615A",
"6. c #C46159",
"7. c #C6655B",
"8. c #C3645C",
"9. c #C5675D",
"0. c #C5675E",
"q. c #C76A5F",
"w. c #C96A5E",
"e. c #C96C5F",
"r. c #C96D61",
"t. c #CA6E61",
"y. c #CB6F61",
"u. c #DA6A60",
"i. c #CB7061",
"p. c #CD7363",
"a. c #DE7567",
"s. c #E07A6A",
"d. c #E27F6D",
"f. c #9D8174",
"g. c #E3836F",
"h. c #E48771",
"j. c #E78C74",
"k. c #E89177",
"l. c #E89277",
"z. c #EDA27F",
"x. c #9E8F82",
"c. c #9F9184",
"v. c #9F9388",
"b. c #9F958C",
"n. c #9F9993",
"m. c #EFA782",
"M. c #F4B68B",
"N. c #F5BB8E",
"B. c #F6BC8F",
"V. c #F8C192",
"C. c #F9C594",
"Z. c #FBCA97",
"A. c #FBCE9B",
"S. c #FBCF9D",
"D. c #FBD09F",
"F. c #FEE6B3",
"G. c #FFEAB7",
"H. c #FFEEBE",
"J. c #FFF2C6",
"K. c #FFFAD6",
/* pixels */
"                                                                                                    ",
"                                                                                                    ",
"                                                                                                    ",
"                                                                                                    ",
"                                                                                                    ",
"                                                                                                    ",
"                                                                                                    ",
"                                                                                                    ",
"                                                              X O # q O O                           ",
"                                                              ; ^ &.p./ C                           ",
"                                                              w +.8.p.#.[   $ 4 h h 4 $             ",
"                                                              y p.p.p.p.;.X a ^ i.r.^ >             ",
"                                                X l K =.T V O y p.p.p.p.1.  d r.p.r.q.d             ",
"                                                  ! ' p.&.^ O y p.p.p.p.1.o I p.p.p.p.I             ",
"                                                  <.p.p.p.p.= ; ^ &.p./ F o I p.p.p.p.I             ",
"                                                  <.p.p.p.p.= O M G W M f o I p.p.p.p.I             ",
"                                                  <.p.p.p.p.#               I p.p.p.p.I             ",
"                                                  <.p.p.p.p.q $ H T =.J N   I p.p.p.p.I o a H *.T C ",
"                                                  <.p.p.p.p.# ; ^ &.p.[ C   I p.p.p.p.I   H ` p.&.~ ",
"                                                  <.p.p.p.p.q y p.p.p.p.q.  I i.p.p.p.I   =.p.p.p.p.",
"                                                o @.0.p.r.5.# y p.p.p.p.;.  S 6.i.i.5.d o =.p.p.p.p.",
"                                                o C ' p.+.^ O y p.p.p.p.;.o > ^ i.r.^ >   =.p.p.p.p.",
"                                                  3 u j i 4 X y p.p.p.p.1.X O 4 h h 4 #   =.p.p.p.p.",
"                                                              y p.p.p.i.1.o               =.p.p.p.p.",
"                      ; ^ 5.p.^ V                 C / 2./ ^ O y p.p.p.p.;.X a ^ e.e.^ a X =.p.p.p.p.",
"                      w +.q.p.o.L               o { $.5.3.+.= y p.p.p.p.1.  a / p.e./ a   =.p.p.p.p.",
"                      y p.p.p.p.=.              o <.p.p.p.p.= y p.p.p.p.1.  d X.i.p.X.d   ,.p.p.p.p.",
"                      y p.p.p.p.,.                ;.p.p.w.5.= w 5.w.p.7.;.  a / ..' / a o ] 5.p.q.;.",
"                      y p.p.p.p.=.                <.p.p.7.2.O 3 X.7.p.#.[   > ^ ^ ^ ^ >   P X.i.7.2.",
"                      y p.p.p.p.=.o               <.p.p.$.^ O % c n ^ v 8   > ^ ^ ^ ^ >   9 v ^ n x ",
"                      y p.p.p.p.=.  O ; w w ; O   <.p.p.&.^ O O 9 z V 9 6 o > ^ ^ ^ ^ >   5 8 B z 9 ",
"                      y p.p.p.p.=.  M ^ r.0.^ 4   <.p.p.&.^ O o             > ^ ^ ^ ^ >           o ",
"                      y p.p.p.p.=.  Y 5.e.p.5.h   1.p.p.&.^ O               5 b ) ) b 4             ",
"                    o y p.p.p.p.*.  W p.p.p.p.j   ;.p.p.&.) O o             1 c ) ) c 1             ",
"                      ; ^ 5.p.^ V o W p.p.p.p.j X ! / X.( c X                   o                   ",
"                      # V T =.V s   W p.p.p.p.j o M V ] A 9 X                   o                   ",
"                        o o         W p.p.p.p.j                                       o             ",
"                          3 M F p   W p.p.p.p.j   , N J f 6 X           O L T >.,.,.,.>.>.,.>.L u   ",
"                          M ^ X.T   Q p.p.p.p.h   C / 2.( c X           # 4.u.d.d.d.d.d.d.d.a.4.M o ",
"                          F ..i.*.o Z _ w.0._ 4   ;.e.r.#.~ O           q a.g.g.d.d.d.d.d.d.g.d.U   ",
"                          Y 3.p.=.  > V *. .H ;   1.p.p.#.^ O           q d.d.d.d.d.h.j.k.k.k.k.:.  ",
"                          W p.p.=.            X   1.p.p.&.^ O           q d.d.d.a.h.z.M.Z.Z.Z.Z.f.  ",
"                          W p.p.=.  4 M R Y M ;   <.p.p.&.^ O           q d.d.d.k.k.B.V.Z.Z.Z.Z.f.  ",
"                          W p.p.=.  M ^ e.q.^ 4   <.p.p.&.^ O .         q d.d.d.m.m.S.Z.Z.Z.Z.Z.f.  ",
"                          W p.p.=.  R r.p.p.r.h   <.p.p.&.^ O - 8 : .   q d.d.d.N.C.Z.Z.Z.Z.A.F.c.  ",
"                          R w.p.=.  W p.p.p.p.j   <.p.p.&.^ O & m 2     q d.d.d.V.Z.Z.Z.Z.Z.A.H.v.  ",
"                          F X.p.,.o W p.p.p.p.j X 1.p.p.&.) O ; ) >     = d.d.d.V.Z.Z.Z.Z.Z.D.K.n.  ",
"                          D / 7.|   W p.p.p.p.j   } $.0.[ n . ; ^ >     = u.a.g.V.Z.Z.Z.Z.Z.S.J.v.  ",
"                          M ^ 2.T   Q p.p.p.p.j   C / 2.~ c . ; ^ 8     $ 4.u.g.V.Z.Z.Z.Z.Z.D.G.c.  ",
"                          X O # O   Q i.p.p.p.j X O @ @ O X o ; ^ a       $ @ q e e e e e e e r 0   "
};
