/* XPM */
static char *wall_bottom_left1730374236[] = {
/* columns rows colors chars-per-pixel */
"50 50 157 2 ",
"   c #3F3851",
".  c #463950",
"X  c #463951",
"o  c #443852",
"O  c #4D3950",
"+  c #4D3951",
"@  c #4C3A50",
"#  c #4F3C51",
"$  c #513754",
"%  c #543A50",
"&  c #543A51",
"*  c #513C51",
"=  c #513F53",
"-  c #5A3B50",
";  c #5B3B50",
":  c #763E4F",
">  c #7D3F4F",
",  c #603755",
"<  c #643756",
"1  c #683657",
"2  c #6D3757",
"3  c #623C50",
"4  c #683C50",
"5  c #693C50",
"6  c #6B3954",
"7  c #6D3758",
"8  c #7B3857",
"9  c #763659",
"0  c #4B4357",
"q  c #534155",
"w  c #5F4051",
"e  c #5F4153",
"r  c #564A5A",
"t  c #574F5E",
"y  c #614454",
"u  c #624756",
"i  c #6D4152",
"p  c #6E4554",
"a  c #774552",
"s  c #794150",
"d  c #7A4251",
"f  c #7F4752",
"g  c #704856",
"h  c #734B56",
"j  c #744E58",
"k  c #843F4E",
"l  c #843C54",
"z  c #80365A",
"x  c #8D375A",
"c  c #89365C",
"v  c #973B57",
"b  c #9B3D55",
"n  c #923958",
"m  c #84404F",
"M  c #8B404F",
"N  c #92414E",
"B  c #92414F",
"V  c #94444F",
"C  c #864350",
"Z  c #864351",
"A  c #8A4551",
"S  c #804D56",
"D  c #824F57",
"F  c #8E4A52",
"G  c #8F4B52",
"H  c #964651",
"J  c #9B4B52",
"K  c #9A4C53",
"L  c #9F4F52",
"P  c #86555A",
"I  c #8F595D",
"U  c #905157",
"Y  c #9E5257",
"T  c #925458",
"R  c #9F575B",
"E  c #96595A",
"W  c #975D5C",
"Q  c #985D5C",
"!  c #A0424E",
"~  c #A9424F",
"^  c #AC434F",
"/  c #AE444E",
"(  c #B2494F",
")  c #B44B4F",
"_  c #A44657",
"`  c #B24950",
"'  c #B64D50",
"]  c #A25656",
"[  c #AF5352",
"{  c #AA5154",
"}  c #AD5757",
"|  c #A45A58",
" . c #A45B5A",
".. c #BD5552",
"X. c #BF5753",
"o. c #B85455",
"O. c #B95556",
"+. c #B35C57",
"@. c #BC5857",
"#. c #B15158",
"$. c #BD5B58",
"%. c #BF5C58",
"&. c #A7615D",
"*. c #A9645E",
"=. c #A9645F",
"-. c #B7655E",
";. c #946564",
":. c #A46261",
">. c #A46462",
",. c #BB6B61",
"<. c #C05B55",
"1. c #C25E57",
"2. c #D25654",
"3. c #C1615A",
"4. c #C1615B",
"5. c #C46259",
"6. c #C5635A",
"7. c #C6655B",
"8. c #C3645C",
"9. c #C5675E",
"0. c #C76A5F",
"q. c #C86A5E",
"w. c #C96C5F",
"e. c #C96D61",
"r. c #DA6A60",
"t. c #CB7061",
"y. c #CD7363",
"u. c #DE7567",
"i. c #E07A6A",
"p. c #E27F6D",
"a. c #9D8174",
"s. c #E3836F",
"d. c #E48771",
"f. c #E68D74",
"g. c #E89277",
"h. c #E89178",
"j. c #EA9A7A",
"k. c #EB9E7D",
"l. c #9F8F82",
"z. c #9F9184",
"x. c #9F9388",
"c. c #9F958C",
"v. c #9F9993",
"b. c #EEA782",
"n. c #F4B68B",
"m. c #F6BB8E",
"M. c #F6BC8F",
"N. c #F7C092",
"B. c #F9C594",
"V. c #FBCA97",
"C. c #FCCE9B",
"Z. c #FCD09F",
"A. c #FEE6B3",
"S. c #FFEAB7",
"D. c #FFEEBF",
"F. c #FFF2C6",
"G. c #FFFAD6",
/* pixels */
"                                  H ^ y.y.y.y.y.y.y.y.5.<.c 9 o                                     ",
"                                  Y @.y.y.y.y.y.y.y.y.q.7.b l o           i A I ;.a.a.a.l.z.v.c.l.0 ",
"                                  =.y.y.y.y.y.y.y.y.y.y.y.^ k .           K 2.u.h.V.V.V.A.F.G.F.S.t ",
"                                  V ( y.y.y.y.y.y.y.y.5.X.n 9 o           :.u.d.h.V.V.V.C.C.Z.C.C.r ",
"                                  d V &.=.=.:.=.*.*.*.] Y 9 1             :.p.p.h.V.V.V.V.V.V.V.V.r ",
"                                  o                   o           o       :.p.p.h.V.V.V.V.V.V.V.V.r ",
"                    % : D P P P P P P P f s =   s s m a : : : : 6 ,       >.p.p.f.n.N.V.V.V.V.V.V.r ",
"                    5 / 9.y.y.y.y.y.y.y.3.^ 5   / ( ..) / / / / v c       >.p.p.d.b.M.V.V.V.V.V.V.r ",
"                    h e.t.y.y.y.y.y.y.y.t.e.h   w.t.t.o./ / / / ^ ~       >.p.p.u.d.j.b.B.V.V.V.V.r ",
"                    h e.y.y.y.y.y.y.y.y.t.w.h   w.w.t.o./ / / / ^ ~       >.p.p.d.p.h.k.M.N.M.M.M.t ",
"                    5 / 9.y.y.y.y.y.y.y.-./ 5   / ( X.( / / / / v c       >.d.d.p.p.p.p.d.p.p.p.p.q ",
"                    % : D P P P P P P P f s *   s s f a : : : s 7 ,       R r.u.p.p.p.p.p.p.d.u.r.= ",
"                                o o               o       o               K 2.u.p.p.p.p.p.p.p.r.2.* ",
"                + ! { ,.,.,.! > o m J -.,.,.,.,.,.,.-.+.[ 8 2             + = q = = q = q q q # *   ",
"                + ` @.y.y.y.` Z o H ) y.y.y.y.y.y.y.y.7.X.x 9                       o         o     ",
"                = y.y.y.y.y.y.Q o =.y.y.y.y.y.y.y.y.y.y.y.^ V                                 o     ",
"                = $.8.y.y.y.@.F   Y @.t.y.y.y.y.y.y.t.w.7.b l                           , 1 : : : s ",
"                @ / O.y.y.y./ k   v / y.y.y.y.y.y.y.t.5.<.x 9                           z n / / / / ",
"                . ; w u u u ; @   % w e y y e w y y u w ; * @                           + * - - ; ; ",
"                        @ # q 0 q 0 q 0 0 0 .   # 0 q * q @ @ @ @ @ . .   o . @ @ @ @ @ @ @ @ @ .   ",
"                        V ^ y.y.t.t.y.y.5./ i   / @.y.5.X./ / / / / c 9 o 2 c ^ / / / / / / / b c . ",
"                        Y %.y.y.y.t.y.y.w.@.p   ) X.y.q.7.@.$.$.$.$._ M   8 _ <.%.%.$.$.$.$.%.#._ @ ",
"                        *.y.y.y.y.y.y.y.t.y.j   X.7.y.y.y.y.y.y.y.y.X.Y   F $.w.y.y.y.y.y.y.y.9.X.# ",
"                        J o.y.y.y.y.y.y.w.' i   ( O.y.y.y.y.y.y.y.y.( V o k ( w.y.y.y.y.y.y.y.$.( @ ",
"                        m b -.-.,.,.,.,.+.J 3   J { -.,.,.,.,.,.,.,.J m o d J -.,.,.,.,.,.,.,.} J @ ",
"                          o             o       o .                 o     o   o                   . ",
"                                                            @ 5 g j j h h h j 5 -   - 5 h j h j h h ",
"                                                            ; ^ 4.y.y.y.t.y.y.` V   m / e.y.y.y.y.y.",
"                                                            w 0.t.y.y.y.y.y.t.e. .  T 0.y.y.y.y.y.y.",
"                                                            w e.t.y.y.y.y.y.y.e.&.  E w.y.y.y.y.y.y.",
"                                                            ; / 3.y.y.y.y.y.t.` V   m / q.y.y.y.y.y.",
"                                                            + m U W W W W W W k :   4 m E W W W W W ",
"                                                        o                           o               ",
"                                                V J *.&.>.*.*.*.*.*.V d   a L *.*.*.*.*.*.*.*.| L # ",
"                                                / O.y.y.y.y.y.y.y.y.^ V   F X.q.t.y.y.y.y.y.y.7.X.# ",
"                                                y.y.y.y.y.y.y.y.y.y.y.&.o m ^ ..<.y.y.y.y.w.<.( / @ ",
"                                                3.9.y.y.y.y.y.y.y.y.5.R   4 k F U W W W W E G M m . ",
"                                                / O.y.y.y.y.y.y.y.y.^ V                             ",
"                                                - w u u u u u u y u ; %                             ",
"                                                                o                                   ",
"                                                                                                    ",
"                                                                                                    ",
"                                                                                                    ",
"                                                                                                    ",
"                                                                                                    ",
"                                                                                                    ",
"                                                                                                    ",
"                                                                                                    ",
"                                                                                                    ",
"                                                                                                    "
};
