/* XPM */
static char *wall_top_right1730374235[] = {
/* columns rows colors chars-per-pixel */
"50 50 158 2 ",
"   c #3F3851",
".  c #483752",
"X  c #463951",
"o  c #443852",
"O  c #483852",
"+  c #4A3952",
"@  c #4D3951",
"#  c #4C3A50",
"$  c #4D3A50",
"%  c #4F3C51",
"&  c #5F3755",
"*  c #533A50",
"=  c #513C51",
"-  c #523E53",
";  c #5A3B50",
":  c #5B3B50",
">  c #763E4F",
",  c #7D3F4F",
"<  c #643756",
"1  c #683757",
"2  c #6D3757",
"3  c #613C50",
"4  c #683C50",
"5  c #693C50",
"6  c #683855",
"7  c #6B3954",
"8  c #7B3857",
"9  c #773659",
"0  c #783758",
"q  c #7F365A",
"w  c #4B4357",
"e  c #534154",
"r  c #534055",
"t  c #5E4153",
"y  c #564A5A",
"u  c #574E5E",
"i  c #624756",
"p  c #6D4152",
"a  c #6E4554",
"s  c #774651",
"d  c #794150",
"f  c #7A4251",
"g  c #7F4752",
"h  c #7E4155",
"j  c #714855",
"k  c #724B56",
"l  c #744E58",
"z  c #843F4F",
"x  c #843B54",
"c  c #8D375A",
"v  c #89365C",
"b  c #973B56",
"n  c #9B3D55",
"m  c #923958",
"M  c #84404F",
"N  c #8B404F",
"B  c #92414E",
"V  c #92414F",
"C  c #95444F",
"Z  c #864250",
"A  c #894550",
"S  c #8B4356",
"D  c #804D56",
"F  c #8F4B52",
"G  c #8E4E56",
"H  c #964751",
"J  c #914F54",
"K  c #984A52",
"L  c #9B4B53",
"P  c #9A4D54",
"I  c #825057",
"U  c #86555A",
"Y  c #8F595D",
"T  c #905156",
"R  c #9E5356",
"E  c #975A5A",
"W  c #975D5C",
"Q  c #985D5C",
"!  c #A0424E",
"~  c #A9424F",
"^  c #AA424F",
"/  c #AC434F",
"(  c #AE444E",
")  c #B2484F",
"_  c #B44B4F",
"`  c #A44657",
"'  c #A94250",
"]  c #B24A50",
"[  c #B24A51",
"{  c #B64D50",
"}  c #A25656",
"|  c #AF5352",
" . c #AA5255",
".. c #AD5757",
"X. c #A0575A",
"o. c #A35B5B",
"O. c #A45958",
"+. c #BF5753",
"@. c #B95454",
"#. c #B95555",
"$. c #B35B57",
"%. c #BB5857",
"&. c #BC5856",
"*. c #B15158",
"=. c #BD5B58",
"-. c #BF5B58",
";. c #A7605C",
":. c #A9645E",
">. c #A9645F",
",. c #B7665E",
"<. c #936564",
"1. c #A46261",
"2. c #A46463",
"3. c #BB6B61",
"4. c #C25E57",
"5. c #C05E59",
"6. c #D25654",
"7. c #C1615B",
"8. c #C46259",
"9. c #C6655B",
"0. c #C5675D",
"q. c #C76A5F",
"w. c #C86A5E",
"e. c #C96C5F",
"r. c #C96D60",
"t. c #CA6E61",
"y. c #CA6F61",
"u. c #DA6A60",
"i. c #CB7061",
"p. c #CD7363",
"a. c #DE7567",
"s. c #E07A6A",
"d. c #E17C6B",
"f. c #E27F6D",
"g. c #9D8174",
"h. c #E3836F",
"j. c #E58871",
"k. c #E89277",
"l. c #EB9A7B",
"z. c #EB9E7D",
"x. c #9F9184",
"c. c #9F9388",
"v. c #9F958C",
"b. c #9F9993",
"n. c #EEA782",
"m. c #F4B68B",
"M. c #F5BB8E",
"N. c #F6BB8F",
"B. c #F8C092",
"V. c #F9C594",
"C. c #FBCA97",
"Z. c #FCCE9B",
"A. c #FCD09E",
"S. c #FEE6B3",
"D. c #FFEAB7",
"F. c #FFEEBE",
"G. c #FFF2C6",
"H. c #FFFAD6",
/* pixels */
"                                                                                                    ",
"                                                                                                    ",
"                                                                                                    ",
"                                                                                                    ",
"                                                                                                    ",
"                                                                                                    ",
"                                                                                                    ",
"                                                                                                    ",
"                                                                                                    ",
"                                                                                                    ",
"                                                                                                    ",
"                            * ; i i i i i i i i t ;                                                 ",
"                            V ( p.p.p.p.p.p.p.p.#.(                                                 ",
"X z A F E W W W W J F z 4   X.7.p.p.p.p.p.p.p.p.0.7.                                                ",
"@ ( { +.e.p.p.p.p.4.+.( z   :.p.p.p.p.p.p.p.p.p.p.p.                                                ",
"% +.9.p.p.p.p.p.p.p.t.+.F   V ( p.p.p.p.p.p.p.p.#.(                                                 ",
"# R O.2.:.>.:.:.:.:.;.R s   d V :.1.:.:.:.:.1.:.P V                                                 ",
"o       o             X               X     X                                                       ",
"W W W W W E M 4   > M W W W W W W T x #                                                             ",
"p.p.p.p.p.w.~ M X N ) p.p.p.p.p.p.7.( ;                                                             ",
"p.p.p.p.p.p.i.W   ;.e.p.p.p.p.p.p.i.e.t                                                             ",
"p.p.p.p.p.p.w.T   O.q.p.p.p.p.p.p.i.q.i                                                             ",
"p.p.p.p.p.w.( M o N ) p.p.p.p.p.p.7.( :                                                             ",
"l l l l j l 4 ;   ; p l l l l k l j 5 #                                                             ",
"    o           o     o     X X             o X     o     o o   X                                   ",
"* C ..3.3.3.3.3.3.3.,.P ,   N C 3.3.3.3.3.3.,.,.| C o 3 C $.3.3.,.,.3.3.! M                         ",
"# ) =.p.p.p.p.p.p.p.e.) z   V ) p.p.p.p.p.p.p.p.&.( o 5 _ q.i.p.p.p.p.p.#.K                         ",
"* +.9.p.p.p.p.p.p.e.p.&.J   ` +.p.p.p.p.p.p.p.p.8.4.  k p.p.p.p.p.p.p.p.p.:.                        ",
"@ ` *.=.%.=.=.=.5.&.&.` h   S ` ,.4.%.&.=.9.e.p.=._   a =.i.p.p.p.p.p.p.&.R                         ",
"X v n ( ( ( ( ( ( ( ' v 2   9 v ( ( ( ( ( +.7.p.#.(   4 ' 7.p.p.p.p.p.p.( V                         ",
"  + + @ % X # # # # @ . o   o X # # % @ @ @ % e % # o X @ = % w # e = w # #                         ",
"; ; ; ; * *   o                 o     @ * t t i i i i i i i i ; * X # ; i i i t ; X                 ",
"~ ( ( ( m q                           0 v +.8.p.p.p.p.p.p.p.p.) V   z ( p.p.p.%.( @                 ",
"d > > > 1 &                           x n 9.w.p.p.p.p.p.p.p.p.&.R   G =.p.p.p.8.=.%                 ",
"                                      V ( p.p.p.p.p.p.p.p.p.p.p.:.  Q p.p.p.p.p.p.w o               ",
"              o                       0 v +.9.p.p.p.p.p.p.p.p._ H   M _ p.p.p.%.{ +                 ",
"  = * e - e - - r r - * .             7 q | $.,.,.3.,.3.3.3.,.! N   d ! ,.3.,...C +                 ",
"= 6.u.h.d.h.h.d.h.h.a.6.P                   o     o       X   X         X X     X                   ",
"= u.a.d.h.d.h.h.f.f.d.u.R       < 7 > d d d > M s d   * d D U U U U U U U I d = o                   ",
"e h.h.d.d.h.d.d.f.f.f.j.2.      v b / ( / / ) 4._ (   5 ~ ,.p.p.p.p.p.p.p.0.' 4                     ",
"y B.B.B.N.N.z.k.f.f.f.f.2.      ~ ~ ( ( ( ( @.t.t.r.. j t.i.p.p.p.p.p.p.p.p.w.l                     ",
"y C.C.C.Z.V.n.l.h.f.f.f.2.      ~ ( ( ( ( ( @.e.t.r.  k t.i.p.p.p.p.p.p.p.i.e.a                     ",
"y C.C.C.C.C.C.N.n.j.f.f.2.      v b ( ( ( ( _ +.] (   3 ( ,.p.p.p.p.p.p.p.0.( 4                     ",
"y C.C.C.C.C.C.N.m.j.f.f.2.      < 7 > > > > d D d > o ; d g U I U U U U U I > *                     ",
"y C.C.C.C.C.C.C.C.k.f.f.2.                        o     .       X                                   ",
"y C.C.C.C.C.C.C.C.k.f.f.2.            6 9 R } :.1.:.:.:.:.:.;.H d                                   ",
"y Z.Z.A.C.Z.C.C.C.k.h.d.2.            8 c +.9.p.p.p.p.p.p.p.p.] C                                   ",
"u D.G.H.G.S.C.C.C.k.a.6.L             V ( p.p.p.p.p.p.p.p.p.p.p.:.                                  ",
"w x.v.b.c.x.g.g.g.<.Y A p             x n 0.w.p.p.p.p.p.p.p.p.&.R                                   ",
"                                      9 v =.8.p.p.p.p.p.p.p.p.( V                                   "
};
