/* XPM */
static char *player_banner1730378787[] = {
/* columns rows colors chars-per-pixel */
"100 50 224 2 ",
"   c #0D140B",
".  c #00121E",
"X  c #1A2914",
"o  c #1E3118",
"O  c #253C1D",
"+  c #041520",
"@  c #0B1624",
"#  c #051C22",
"$  c #091C22",
"%  c #0D1B29",
"&  c #181B27",
"*  c #151C2D",
"=  c #1A1E31",
"-  c #2C1F2A",
";  c #072124",
":  c #0A2525",
">  c #0D2A27",
",  c #0D2C28",
"<  c #112426",
"1  c #132827",
"2  c #162929",
"3  c #182C2A",
"4  c #0F3029",
"5  c #11342B",
"6  c #1B362D",
"7  c #17392D",
"8  c #172031",
"9  c #1A2132",
"0  c #1D3D30",
"q  c #23372B",
"w  c #20342F",
"e  c #252738",
"r  c #24263A",
"t  c #292A3D",
"y  c #312934",
"u  c #243C30",
"i  c #283D33",
"p  c #35353B",
"a  c #493037",
"s  c #602F3D",
"d  c #29421D",
"f  c #2D4B26",
"g  c #375829",
"h  c #224232",
"j  c #2C4435",
"k  c #2E4935",
"l  c #354A39",
"z  c #344D3A",
"x  c #365537",
"c  c #3A543B",
"v  c #3B5A3C",
"b  c #3D632C",
"n  c #3B6437",
"m  c #435A3C",
"M  c #446D2F",
"N  c #446738",
"B  c #44733A",
"V  c #49773A",
"C  c #2E2D43",
"Z  c #322E44",
"A  c #2C3041",
"S  c #353645",
"D  c #363349",
"F  c #3C354E",
"G  c #343949",
"H  c #3F3851",
"J  c #4C3345",
"K  c #443F56",
"L  c #4C3B51",
"P  c #503F53",
"I  c #5C3D51",
"U  c #713747",
"Y  c #673B51",
"T  c #3B5441",
"R  c #3D6D40",
"E  c #4A4647",
"W  c #514B49",
"Q  c #405740",
"!  c #425B41",
"~  c #4D5947",
"^  c #5A514E",
"/  c #444756",
"(  c #534155",
")  c #5F4051",
"_  c #555554",
"`  c #714B51",
"'  c #466242",
"]  c #486642",
"[  c #4A6545",
"{  c #4B6A43",
"}  c #4C7645",
"|  c #527A46",
" . c #5C6E54",
".. c #71705E",
"X. c #545763",
"o. c #5F636F",
"O. c #676866",
"+. c #6E776B",
"@. c #666971",
"#. c gray44",
"$. c #797C79",
"%. c #8D3A54",
"&. c #8B4E53",
"*. c #985A52",
"=. c #915B5F",
"-. c #AC454E",
";. c #AB5052",
":. c #BA5655",
">. c #B1665A",
",. c #897464",
"<. c #A46463",
"1. c #B96D66",
"2. c #BD7A6C",
"3. c #C85B56",
"4. c #C4655C",
"5. c #D6605A",
"6. c #D06D61",
"7. c #CD7363",
"8. c #DA7567",
"9. c #E27F6D",
"0. c #568A3D",
"q. c #4A8046",
"w. c #4C8349",
"e. c #578847",
"r. c #5D9644",
"t. c #5C934B",
"y. c #5D8F51",
"u. c #5F9852",
"i. c #619A47",
"p. c #639C4A",
"a. c #639D54",
"s. c #67A44B",
"d. c #6DAE4C",
"f. c #6EB14F",
"g. c #65A452",
"h. c #6BAC55",
"j. c #6BAC5A",
"k. c #6FB350",
"l. c #6FB25B",
"z. c #71B653",
"x. c #72B956",
"c. c #70B45A",
"v. c #74BD5A",
"b. c #76C15D",
"n. c #78C35F",
"m. c #79C561",
"M. c #7AC863",
"N. c #99846B",
"B. c #8D8576",
"V. c #A68D72",
"C. c #B29075",
"Z. c #B8A17C",
"A. c #C28A74",
"S. c #C5937A",
"D. c #E3826F",
"F. c #E68B73",
"G. c #E99277",
"H. c #E99679",
"J. c #EB9D7D",
"K. c #C1A27D",
"L. c #EDA27F",
"P. c #777881",
"I. c #868685",
"U. c #949289",
"Y. c #8B8D97",
"T. c #909090",
"R. c #9F9F9F",
"E. c #A99D86",
"W. c #A9A79A",
"Q. c #9A9BA4",
"!. c #AAAAAA",
"~. c #B2AFAB",
"^. c #B4B5B9",
"/. c gray75",
"(. c #C99E80",
"). c #CCA585",
"_. c #C7AC83",
"`. c #D3B78C",
"'. c #D7B88A",
"]. c #CDB897",
"[. c #CFBD9D",
"{. c #EEA582",
"}. c #F2AE87",
"|. c #F4B48A",
" X c #F5BA8E",
".X c #CABFA8",
"XX c #D9C499",
"oX c #E4C895",
"OX c #F9C594",
"+X c #FAC796",
"@X c #FBCA97",
"#X c #E9D09F",
"$X c #CFC2A7",
"%X c #D9C9A5",
"&X c #CCC7B3",
"*X c #CFC9B4",
"=X c #ECD7A7",
"-X c #F4D8AC",
";X c #EBD9B4",
":X c #EFE1AE",
">X c #FEE1AE",
",X c #FEE6B3",
"<X c #F1E2BC",
"1X c #FBE8B8",
"2X c #C4C4C5",
"3X c gray81",
"4X c #DCD7C6",
"5X c #D8D7D4",
"6X c #DFDFDF",
"7X c #F5E8C3",
"8X c #F5EACB",
"9X c #FEF4CE",
"0X c #EAE4D4",
"qX c #F6ECD4",
"wX c #F6EDDA",
"eX c #F7F0D8",
"rX c #F8F2DD",
"tX c #EFEFEF",
"yX c #F9F4E4",
"uX c #FBF7EB",
"iX c #FCF9EE",
"pX c #FBF7F1",
"aX c #FDFBF4",
"sX c #FFFFFF",
/* pixels */
"H H H H H H H H H H H H H H H H H H H H H H H H H H H H H H H H H H H H H H H H H H H H H H H H H H H H H H H K H H H H H H H H H H H H H H H H H H H H H H H H H H H H H H H H H H H H H H H H H H H H ",
"H H H H H H H H H H H H H H H H H H H H H H H H H H H H H H H H H H H H H H H H H H H H H H H H H H H H H D r = Y.G G G e C H H H H H H H H H H H H H H H H H H H H H H H H H H H H H H H H H H H H H H ",
"H H H H H H H H H H H H H H H H H H H H H H H H H H H H H H H H H H H H H H H H H H H H H H H H H H H H D X.!./.sXwXsX0XU.o.C H H H H H H H H H H H H H H F C C D A D H H H H H H H H H H H H H H H H H ",
"H H H H H H H H H H H H H H H H H H H H H H H H H H H H H H H H H H H H H H H H H H H H H H H H H H H F = ].uXuX;XqXyX7XyX0XZ r t H H H H H H H H H H Z G H Y.3XX.Y.G 9 Z H H H H H H H H H H H H H H H ",
"H H H H H H H H H H H H H H H H H H H H H H H H H H H H H H F H K K K F H H H H H H H H H H K F H H H C ^.pXqXsX;XaX1XaX0XXXE * C H H H H H H H H H D S 0XaXyXyXwXsX%X5XG D H H H H H H H H H H H H H H ",
"H H H H H H H H H H H H H H H H H H H H H H H H H H D C C e o.P.F X./ y C F H H H H H H H H F F H H H C I.rX8XuXyXeXqX;Xp +.r X./ H H H H H H H H H Z ^.;XaX7X7XrX8X8XuXE.e D H H H H H H H H H H H H H ",
"H H H H H K Z C C 9 9 C C K H H H H H H H H H H H H e T.2X&XpXpX8XsXtX~./.= D F H H H H H H F J H H H D Z ;X7XwXqXuX8X=X5XY.X.o.t H H H H H H H H F G aX8XaXwX<X8XeX3X%XB.= t F H H H H H H H H H H H H ",
"H H H H C 9 Y.Q.@.6XB.P.D D H H H H H H H H H H H C !.=XwXsX#X7XuX<XrXwXrXE.* * C H H H H H K F H H H D W oX7XyXyX7XaXqX<XC.e * e H H H H H H H H H = E.aX7XsXiXsX;XJ #.= T K H H H H H H H H H H H H H ",
"F K K e $.R.sXiXwXsX;XuX5Xp 9 e F H H H H H H H Z #.aXrXqXaXqX8XrX<XrXW.V.* * / K H H H F K F F H H H F e ..Z.oXXX'.#X`.'.,.e D H H H H H H H H H H e _.=X;XwX7X<X;X4X@.o.X.S H H H H H F K F F H H H H ",
"F F D _ yXsX7X;XyX8XrXwX-X..* e F J H H H H H H Z  .=XrX<XwXuXwXyXqXXXG !./ o.T C F H H K F F K H H H H F 9 J S p p ^ J w & D K H H H H H H H H H H = N.`.7XqX#XwXeX=XB.e * e H H H H H F K J F H H H H ",
"K F t ~.;XuXpX;XuX<XiX@.B.* * $.D K H H H H H H L e _.#X<XuXiX7XrXaX8XXX].* * * C H H H K F F K H H H H F K C C / K F D r Z F K H H H H H H H H H H Z = ^ N.V.V.K._.C.,.e t F / H H H H K F K F H H H H ",
"K F G sXwXyXiXrXuXyXoXB.4XG Y.D C K D C = . . . . @ 9 W ,._.V.Z.Z._.V.V.N.e * & + @ . . . . . . . . . 9 e 9 r 9 @ . . . . . . . . . . . . . . . . + + + & * & % y p 9 9 t J P ( L ( ( L L L F F H H H H ",
"F L = ,.yX8XyXpXeX8X=XeXwXJ 8 8 s - . . . : x V } x i i v T R z z z x T v j v N { ] n w.q.w.w.w.w.w.w.w.w.V V B B k x w.| } w.w.w.| B B z k i l n B x k z x : $ + . @ U ;.>.7.7.7.7.7.7.:.-.L K H K H H ",
"` Y J / =X-X8XyX:XiXiX#X_.,.a ) & . < k N s.f.v.M.l.t.a.h.g.u.e.e.t.u.s.t.p.d.i.t.g.b.M.M.M.M.M.m.M.M.M.n.d.d.d.d.e.' j.z.z.x.M.M.m.k.k.h.} t.d.h.d.{ e.f.m.l.Q u 1 . & 4.7.7.7.7.7.7.7.4.:.L L Y Y Y ` ",
"4.3.&.^ ).%X;X;XoX'.oXV.<.y *.*.. 3 ! { | k.m.M.n.f.d.f.n.n.b.b.b.b.z.d.f.d.d.d.d.x.M.v.z.M.M.M.M.M.m.M.M.z.d.d.x.M.j.x.k.d.x.M.m.b.x.m.b.f.d.d.d.s.s.k.m.m.z.| T Q 3 . *.7.7.7.7.7.7.7.7.7.L I -.;.3.6.",
"4.4.3.s p ..N.,.^ W E p 8 m 7.a + c Q [ i.b.m.x.k.d.d.d.f.b.x.M.m.z.k.d.d.d.d.f.b.M.x.d.x.M.M.M.M.m.d.z.n.b.h.z.m.m.z.d.d.d.d.x.x.b.m.b.f.d.d.d.d.d.z.m.m.f.f.e.Q Q z . a 7.7.7.7.7.7.7.4.:.L I 3.4.4.7.",
"7.7.3.;.C 9 * J &.>.1.>.&.7.*.. . N Q Q j.M.z.f.b.b.x.f.z.n.M.M.M.b.d.d.d.d.k.b.n.z.d.b.M.M.M.m.M.d.d.d.b.M.n.M.n.f.x.b.x.z.d.v.M.M.M.M.z.d.d.d.d.z.M.n.d.d.b.j.Q Q Q . . <.7.7.7.7.7.7.:.-.L I :.3.7.7.",
"S . . . . . + . . . . . . . . . . [ Q m g.f.x.M.M.n.x.d.z.n.M.M.M.v.d.d.d.d.m.b.f.f.b.M.M.M.M.m.z.d.d.f.v.M.m.x.d.b.M.M.M.f.f.x.n.M.M.M.z.d.d.d.f.M.v.d.z.M.M.j.Q Q Q . . . . + . . . . . . . . . . . Z ",
"@ $ w u i i k m Q Q Q u 6 : ; . . Q Q ] p.v.M.M.n.x.d.d.d.d.n.n.m.b [ ..N g.g.~ M n.M.M.M.M.M.v V s.i.~ } n.M ~ 0.c.V n m b d.d.V ~ h.v.f.d.d.x.b.x.f.z.M.M.M.M.l.Q m + . . < w u ] ' m ! k u u u i # @ ",
"& ; l { ' ! Q Q Q Q T Q m 7 > . j m [ { l.M.M.m.f.d.d.d.d.d.z.n.} 3XsXsXtXc g sX~.t.M.M.M.t.! 6X6Xn M tX#.g R.sXT.T.3XsXsX/.M M 6XsX$.g.z.d.b.b.z.f.b.n.M.M.M.j.[ Q m j . 5 5 ' { ! Q Q Q ' { { { c , & ",
"& , 6 ' m ! { ! T ! ! m m 7 > . j { ~ Q j.M.M.x.d.d.d.d.d.d.f.s.O.sX/.~.sXT.+.sX!.i.b.b.b.+.sXsXaXN V 6X3X$.aX3X6XsXpX2XT.~ p R.sX6XsXg f.x.x.f.z.n.n.f.x.n.j.{ ! ! Q i . > 7 { ! Q Q Q ! { { { V 6 : $ ",
"` < 4 j T Q ] { ! { { { Q 7 , . i ! c Q j.M.x.d.d.b.d.d.f.f.d.c tX3Xo./.sXR./.sXl f.x.x.M 6XsX3XsX .g.R.tXsX6Xv Y.sXQ.y.m 0.~.aX#.#.sX$.b.M.k.x.n.M.M.b.f.n.e.} { ! Q i . , 7 Q Q Q Q ! { { ] ] c > : &.",
";.. 4 ; Q Q ' { { { { Q Q 7 , . i Q Q Q j.z.d.d.b.f.d.d.x.z.s.T.sXsXaXsX6X_ aX3Xe.z.f.f.+.sX!.O.sX/.~ E sXsX+.B 6XsXsXsXI.X 6XsXtXaX6Xm M.M.M.M.M.M.M.M.f.f.s.i.' Q Q i . , 7 Q Q Q ' { { ' { { . 5 & %.",
"&.p # 5 3 m Q ] { { ' j h 7 , . i Q Q m | d.z.x.f.d.d.f.b.n.s.#.sX3XT. .b O.sX#.B b M M 6XtXsXaXsXsX+.O.sXR.V O.sXY.E y X X sXsXtXO.N s.M.M.m.b.b.n.M.M.x.d.d.i.Q Q Q i + , 5 7 k ! { { ' ' { 6 5 : y &.",
"L F % , : j ! { { { Q z 5 5 , . i Q ! | [ h.x.d.d.d.d.d.f.n.f.+.sX .x.v.z.I.sX6XtXsX6X+.sXT.#.#./.sX  tXaXm f.#.sX.X~.3X6X_ sXtXsX/.$. .r.m.x.f.f.f.M.v.z.d.d.g.Q Q ] k . > 5 h ] { { ! { { z ; 1 $ S L ",
"*.=.U # 5 . v ' Q { { ! v 5 > . i ! [ g.h.h.d.d.d.x.z.v.b.M.b.I.sX[ x.d.d.c sXsX3XR./.T.tX! z.m sXT.o sXR.i.z.m 6XsXsX6XT.  tXq P.6XsXsXO s.f.z.v.M.m.k.z.b.v.p.! ] { j . > k ' { ' ! { { m . 5 . ` *.=.",
"7.7.;.- , # i Q T ] { { ] 7 , . i ! ' { h.d.d.d.f.v.m.v.n.M.n.n N i.d.k.m.j.N N e.h.t.a.g r.f.g.N t.z.~ e.v.n.i.f m g M p.t.g j.h.0. . .r.f.f.m.M.M.M.M.M.M.v.i.{ { Q i + > h ' ! ! { { { j # , - :.7.7.",
"7.4.3.&.# , # z ] { ] Q Q 7 > . i Q Q ] i.d.d.d.n.M.v.v.M.M.M.b.f.d.z.M.M.M.M.M.M.M.b.k.s.x.n.M.c.v.M.M.M.v.k.0.s.d.r.g c.x.m.m.m.m.b.f.f.b.M.M.M.M.M.M.m.v.h.i.' Q Q i . > 7 T ' { { { v $ 1 # ;.4.7.7.",
"4.4.:.%.* @ + T { ! Q Q Q k > . i m ] { | f.v.m.n.k.z.z.v.M.x.d.f.v.M.M.M.M.M.g.o 0.0.g   v.B f g   v.t.o 0.0.  0.O b f g i.z.M.n.f.f.f.n.M.M.M.M.m.M.M.k.d.z.{ Q Q Q i . , 5 h { { { ] z + + @ ;.:.4.4.",
"-.-.%.U = . j [ ! Q Q Q Q 0 > . k ] { { | b.M.m.z.| { z.b.x.d.d.z.M.M.M.M.M.v.g o X g v.X O t.M.M.X d b d M f o b v.x.f r.b.z.M.z.d.d.b.M.M.M.M.M.x.j.s.d.b.M.} Q Q Q i . > 5 v { [ ' ! ! u + * %.%.-.-.",
"U Y Y J . 2 ! ! Q ! ! Q T 7 5 # 3 ' ' ! m l.M.M.y.y.m y.M.z.f.d.z.M.M.M.M.x.f.f.s.n.m.M.e.n.M.M.M.n.u.} q V b.M.M.M.M.M.M.M.M.M.f.d.d.b.M.M.M.M.z.t.{ t.m.M.l.' Q Q ! 2 # , 0 ' ! ! Q Q Q Q 1 + J Y Y Y ",
"H H D . < T Q Q ' { ' Q Q 7 5 # . Q T Q Q R R R q z w h R v n n R R R g.v.d.v.M.M.M.M.] i.n.M.M.g.Q T T Q T ! y.j.M.M.M.M.M.M.x.d.d.b.y.R n R n n u u [ R R n { Q Q T . # 5 z T Q Q Q Q Q Q m < . D H H ",
"%.-.y 3 Q ! ! { { Q Q Q Q v 5 , . w ] ] w . . $ $ $ $ $ $ $ $ + $ $ $ $ $ # $ # $ $ $ $ $ $ $ $ $ $ $ w i j ] { | | e.e.| { T 0 $ $ # $ $ $ $ $ $ + $ $ ; . . 6 m Q 6 . , 5 v { ' { { ] Q ! { { 9 y -.%.",
"%.a @ z Q ! { { ] T Q Q ' v 5 5 # . j { 3 . 6 m { ' T Q ! { { m Q ' { { ' m Q Q ' { { ' T m T ] { { { { { { { ' ! T ] { ! ! v ] { ' Q ! { { ] ! m Q Q ] { w . 1 Q u . % , 7 v { { { ' Q ! { { Q l @ a Y ",
"e @ c ! ' { { ! Q Q Q Q ! n 7 5 5 : . 1 u $ 1 c N ! Q u 2 1 < < 1 1 1 1 < : < < 1 1 < 3 k k j c x x 2 1 > 1 < & i x x x j : : 1 1 1 1 1 1 1 1 : u ! { ! c $ $ u @ . ; 5 5 h { { ' Q Q ] { { { Q Q l % e ",
"@ i ! { { { { ! Q Q Q Q Q [ k 5 5 5 : # . . . . % 3 m c l 3 . . $ 9 8 8 e Z C Z t 9 = * = = = = 9 8 8 9 = = = = 8 8 = 9 = 8 9 8 9 * = $ . . 3 k ' N u % . . . . # : 5 5 7 v { ! Q ' { [ { ] Q Q m ~ j @ ",
". k k k k k k i i i i j N [ ! z , > : : 1 . . . . . 6 { { ! % . * F K F K F F K F K F K F K F K K F J H H H K F K F F K K F K F H H H = . % N { { 3 . . . . . . : ; : 6 v ! Q v k k i i i i i j k k k $ ",
". q u i u u w w w w u i i i l i 5 ; 1 w w w u w w i v { { ' 2 + 1.9.9.9.9.9.9.9.9.9.9.9.9.9.9.5.3.P &.3.8.9.9.9.9.9.9.9.9.9.9.9.9.9.9.>.. 1 [ { { ' k w w w w u i u w u i z k k w w q u w w 6 u i u 6 . ",
". . h i u Q Q m u u u w w w w u u u 6 w 6 q h w w u i i u : + y 8.9.9.9.9.9.9.9.9.9.9.9.9.9.9.8.5.P &.5.8.9.9.9.9.9.9.9.9.9.9.9.9.9.D.8.- . % u h u w w w w w u i 6 6 w w u i w w w w k N [ { u u i $ + ",
"=.9.9.9.9.9.9.9.9.D.D.D.9.9.9.D.D.9.9.9.<.K <.D.D.9.9.9.9.D.8.D.9.9.9.9.9.9.9.9.9.9.9.9.9.9.9.9.9.I =.9.9.9.9.9.9.9.9.9.9.9.9.9.D.D.8.D.D.D.<.F <.D.D.9.9.9.D.9.9.9.9.9.D.9.9.D.9.9.9.9.9.9.9.9.D.9.9.( ",
"=.D.D.D.G.L.}.}.}.|.}.}.}.}.}.{.H.D.9.9.<.K <.9.9.F.G.{.}.}.}.}.}.}.}.}.}.}.}.}.}.}.}.}.H.G.D.9.9.( =.9.9.D.H.{.{.}.}.}.}.}.}.}.}.{.H.9.9.9.<.K <.9.9.F.H.{.}.}.}.}.}.}.}.}.}.}.}.}.}.|.}.}.H.F.9.9.9.( ",
"=.D.D.D.L.}.@X@X@X@X@X@X@X@X@X XL.F.9.9.<.F <.9.9.F.{.|.@XOX@X@XOXOX@X@X@X@X@X@X@X@X@X@X{.H.9.9.9.( =.9.9.D.{.}.@XOX@X@X@X@X@X@X@X X{.F.9.9.<.F <.9.9.F.{. X@X@X@X@X@X@X@X@X@X@X@X@X@X@X@X@X{.J.9.9.9.( ",
"=.9.H.L.OX@X@X@X@X@X@X@X@X@X@X@XOX{.L.9.<.K <.9.J.}.@XOX@X@X@X@X@X@X@X@X@X@X@X@X@X@X@X@X+X XJ.F.9.( =.9.G.L.OX@X@X@X@X@X@X@X@X@X@X@X+X{.J.9.<.F <.9.{.{.+X+X@X@X@X@X@X@X@X@X@X@X@X@X@X@X@X@X@X XJ.F.9.( ",
"=.D.L.}.@X@X@X@X@X@X@X@X@X@X@X@X@X}.}.D.<.F <.9.}. X@X@X@X@X@X@X@X@X@X@X@X@X@X@X@X@X@X@X@XOX}.G.9.( =.D.L.}.@X@X@X@X@X@X@X@X@X@X@X@X@X|.}.9.<.K <.9.}. X@X+X@X@X@X@X@X@X@X@X@X@X@X@X@X@X@X@X@XOX}.H.9.( ",
"=.9.|.@X@X@X@X@X@X@X@X@X@X@X@X@X@X@X@X9.<.F <.9.@X@X@X@X@X@X@X@X@X@X@X@X@X@X@X@X@X@X@X@X@X@X@X{.9.( =.9.|.@X@X@X@X@X@X@X@X@X@X@X@X@X@X@XOX9.<.F <.9.+X+X@X@X@X@X@X@X@X@X@X@X@X@X@X@X@X@X@X@X@X@X@X{.9.( ",
"=.D.|.@X@X@X@X@X@X@X@X@X@X@X@X@X@X@X@X9.<.F <.9.@X@X@X@X@X@X@X@X@X@X@X@X@X@X@X@X@X@X@X@X@X@X@X{.9.( =.9. X@X@X@X@X@X@X@X@X@X@X@X@X@X@X@XOX9.<.H <.9.@X+X@X@X@X@X@X@X@X@X@X@X@X@X@X@X@X@X@X@X@X@X@X{.9.( ",
"=.9. X@X@X@X@X@X@X@X@X@X@X@X@X@X@X@X@X9.<.F <.9.@X@X@X@X@X@X@X@X@X@X@X@X@X@X@XOX@X@X@X@X@X@X@X{.D.( =.8.|.@X@X@X@X@X@X@X@X@X@X@X@X@X@X@X@XD.<.K <.9.@X@X@X@XOXOX@X@X@X@X@X@X@X@X@XOX@X@X@X@X@X@X@X{.9.( ",
"=.9.H.}.@X@XOX,X,X9X7X,X,X,X@X@X@X}.L.9.<.K <.9.{.|.@X@X@X,X1X9X9X9X1X>X@X@X@X,X1X9X7X,X@X@X}.G.9.( =.D.H.}.@X@X@X>X,X9X9X,X,X,X@X@X@X}.{.9.<.K <.9.{.|.@X+X@X,X1X9X9X9X1X>X@X@X@X,X1X9X7X,X@X@X{.G.9.( ",
"` 1.7.C.(.).).].[.*X$X[.[.[.).).).A.A.1.=.F =.1.C.A.).).(.[..X*X*X*X[.].).).).[.$X&X$X.X).).7.2.1.L ` 2.7.C.).).).]..X*X.X].[.[.(.(.).A.A.1.&.H =.1.C.S.(.).)..X[.&X*X&X[.].).).).[..X*X$X[.).K.A.2.1.L ",
"K K K K K F H H F K H H H H H H H H H H H H H H K F F K F K L F H H H H H H H H H H H H H H H F H H F K F K K H H H H H K K F K K F K F F K K F H H K K J F H H K F K F K H H H H H H H H H L H K F H F "
};
