/* XPM */
static char *player_start1730141504[] = {
/* columns rows colors chars-per-pixel */
"50 50 189 2 ",
"   c #3F3851",
".  c #4E3752",
"X  c #443C54",
"o  c #493C53",
"O  c #523A50",
"+  c #663C4F",
"@  c #733E4A",
"#  c #793E4E",
"$  c #673953",
"%  c #793855",
"&  c #39445C",
"*  c #3A4B63",
"=  c #335369",
"-  c #2C6377",
";  c #316676",
":  c #45425A",
">  c #4A4258",
",  c #534154",
"<  c #514459",
"1  c #554A5D",
"2  c #674353",
"3  c #6B4855",
"4  c #7A4D53",
"5  c #675359",
"6  c #474962",
"7  c #4B4D64",
"8  c #5E4E60",
"9  c #4D526A",
"0  c #515167",
"q  c #52546A",
"w  c #54586F",
"e  c #585A6E",
"r  c #5A5E72",
"t  c #655564",
"y  c #6D5967",
"u  c #6A5F6C",
"i  c #755767",
"p  c #735C69",
"a  c #7B5D6B",
"s  c #615C70",
"d  c #5D6377",
"f  c #5A6379",
"g  c #6E6364",
"h  c #74626F",
"j  c #7B606D",
"k  c #6C6476",
"l  c #6C687A",
"z  c #7A6773",
"x  c #923954",
"c  c #AE3858",
"v  c #BD375A",
"b  c #C43E53",
"n  c #94514E",
"m  c #845858",
"M  c #AA574D",
"N  c #8F625F",
"B  c #986659",
"V  c #AE725B",
"C  c #8A6866",
"Z  c #84626C",
"A  c #906667",
"S  c #957765",
"D  c #9A7D67",
"F  c #836670",
"G  c #8C6572",
"H  c #846A73",
"J  c #8E6F76",
"K  c #9A6975",
"L  c #8E7476",
"P  c #877278",
"I  c #89757C",
"U  c #927278",
"Y  c #99767B",
"T  c #9D7A7E",
"R  c #AF7B61",
"E  c #A56D78",
"W  c #AB6F7B",
"Q  c #A3737B",
"!  c #AD707B",
"~  c #A17B7F",
"^  c #AD797F",
"/  c #B0757D",
"(  c #B2787F",
")  c #C7484B",
"_  c #D8474A",
"`  c #DB4C4A",
"'  c #DE534E",
"]  c #CB4051",
"[  c #E15B51",
"{  c #D6635E",
"}  c #D9705E",
"|  c #E56858",
" . c #ED7B53",
".. c #EE745E",
"X. c #E37968",
"o. c #F07860",
"O. c #9B806A",
"+. c #9B8E7B",
"@. c #9F937D",
"#. c #AF8064",
"$. c #B18E6C",
"%. c #B2906F",
"&. c #EF895A",
"*. c #C68D70",
"=. c #EC8C6C",
"-. c #F19762",
";. c #F19E67",
":. c #F59570",
">. c #F69972",
",. c #F3AD70",
"<. c #EBB879",
"1. c #F6BB79",
"2. c #F6C27D",
"3. c #286E81",
"4. c #5A6C82",
"5. c #5F7388",
"6. c #65768A",
"7. c #757484",
"8. c #8A7A82",
"9. c #A27D80",
"0. c #A97D81",
"q. c #B37B81",
"w. c #758493",
"e. c #758D9D",
"r. c #798D9C",
"t. c #768EA1",
"y. c #7C95A5",
"u. c #7F98A9",
"i. c #AE8585",
"p. c #A68A89",
"a. c #B68285",
"s. c #B88386",
"d. c #BA8788",
"f. c #B48888",
"g. c #BA8D8B",
"h. c #A0908E",
"j. c #B4918D",
"k. c #AB9995",
"l. c #B79792",
"z. c #B99B95",
"x. c #B7A987",
"c. c #829FAD",
"v. c #8B9FA9",
"b. c #87A1AF",
"n. c #8AA0AB",
"m. c #90A3AC",
"M. c #8AA6B3",
"N. c #8CA9B5",
"B. c #94ACB6",
"V. c #97B4BD",
"C. c #BEA9A4",
"Z. c #C08F8D",
"A. c #C1928E",
"S. c #D59B88",
"D. c #C39490",
"F. c #C59A94",
"G. c #C89E97",
"H. c #C89F98",
"J. c #CAA293",
"K. c #C4A69E",
"L. c #CAA39B",
"P. c #CDAA9F",
"I. c #C0ADA3",
"U. c #CEACA2",
"Y. c #C0ADA8",
"T. c #D1B1A5",
"R. c #DFB5A0",
"E. c #D4B7AE",
"W. c #D5BCB2",
"Q. c #EDBDA6",
"!. c #F3D392",
"~. c #FCE09B",
"^. c #E5C2AD",
"/. c #EDC9B2",
"(. c #ECD4BE",
"). c #F8E5A3",
"_. c #FFEFA9",
"`. c #9DBAC1",
"'. c #AEBDC4",
"]. c #A5C2C7",
"[. c #ADC7CC",
"{. c #B3C4D2",
"}. c #B8CFD3",
"|. c #C4C7CD",
" X c #C3CED3",
".X c #CBDBE2",
"XX c #DFE9EA",
"oX c #EEF5F6",
"OX c #F2F7F6",
/* pixels */
"A.D.D.D.D.                                j ( s.s.s.s.q.G ^ A.A.D.D.D.g.F D.D.D.D.D.D.J j.F.A.g.s.%.",
"D.D.D.D.  {.oXoXoXoXoXoXoXoXoXoXoXoXoXoX{.  Z.A.A.A.A.A.J i.F.A.D.D.D.g.F D.D.D.D.D.D.J g.F.A.F.D.D.",
"D.D.D.D.  oXoXoXoXoXoXoXoXoXoXoXoXoXoXoXoX  D.D.A.D.D.D.J f.A.A.D.D.A.g.F D.D.D.D.D.D.J i.D.F.A.D.D.",
"D.D.D.D.  oXoXoX    oX    oX        oXoXOXX D.A.D.D.D.D.J i.A.F.D.D.A.j.H D.D.D.D.D.D.J i.D.A.A.D.D.",
"Z.A.D.A.  oXoXOX    .X    oX.X    .XoXoXoX  A.F.D.D.D.D.J Q g.A.A.D.A.! F D.D.D.D.D.D.J Q g.F.A.D.Z.",
"Z H H F   oXoXoX          oXoX    oXoXoXoX  A.A.D.D.D.D.J a F F F H H a F D.D.D.D.D.D.J a H F F F G ",
"f.g.h ^   oXoXoX          oXoX    oXoXoXoX  l.F.D.D.A.D.J K f.j Q g.f.K P L.D.D.D.D.D.J K f.a Q g.d.",
"A.D.a A.  oXoXoX          oXoX    oXoXoXoX  A.A.D.D.A.A.J i.A.j g.D.A.f.P U.D.D.D.D.D.J i.A.h f.D.D.",
"A.D.D.D.  oXoXoX    .X    oX.X    .XoXoXoX  P.D.D.D.D.D.J i.D.D.D.D.D.g.F D.D.D.D.D.D.J i.D.a K.D.D.",
"D.D.A.D.  oXoXoX    oX    oX        oXoXoX  D.D.D.D.D.D.J i.A.A.D.D.D.g.P U.D.D.D.D.D.J i.D.D.F.D.D.",
"Z.A.q.F.  oXoXoXoXoXoXoXoXoXoXoXoXoXoXoXoX  D.D.D.D.D.D.U i.F.( D.D.A.g.I W.D.D.D.D.D.J i.D.A.U.D.D.",
"( Z.g.T.  {.oXoXoXoXoXoXoXoXoXoXoXoXoXoX{.  P.D.D.D.D.D.J i.A.g.U.D.D.j.I W.D.D.D.D.D.L i.D.q.L.D.D.",
"! Z./ P.A.X       {.oXoX{.  X     X     X H P.D.D.D.D.D.J i.A./ L.D.D.g.P E.D.D.D.D.D.J i.D.D.D.D.D.",
"! Z.s.G.A.d.P P.A.  .X{.  J i.D.g.A.A.A.g.H P.D.D.D.D.A.J f.A.a.G.D.D.g.P U.D.D.D.D.D.J i.D.d.D.D.D.",
"! Z.A.P.D.g.H L.A.X     A.J i.D./ F.A.i.j t P Y D.f.z F 5 j F F P Z g.H t j.D.D.D.D.D.J i.D.q.D.D.D.",
"! Z.A.D.D.g.H L.A.D.A.D.D.J i.D./ F.T m n B S A F C B D D O.@.D D @.H +.O.H f.D.D.D.D.J f.D.! F.D.D.",
"! D.D.D.D.g.H H.D.D.D.D.D.J i.D.s.A.F n  .;.1.#.  5 ,.2.<.O.@.O.2._.1 !.~.g 9.D.D.D.D.U i.D.s.D.D.D.",
"! g.D.D.D.g.F D.D.D.D.D.D.J i.D.D.D.Z B &.;.2.*.m O.2.2.<.4 & 4 2._.S )._.g 9.D.D.D.D.J i.D.D.D.D.D.",
"! Z.D.D.D.g.F D.D.D.D.D.D.J i.D.D.D.z n  .;.2.,.-.2.2.2.2.-.C ;.1._.!.).).g T D.D.D.D.J i.D.D.D.D.D.",
"! Z.D.D.D.g.j q.D.D.D.D.a.G i.D.D.D.F @ M R $.#.V $.$.$.$.$.$.$.$.x.$.x.$.8 +.Z.D.D.a.G f.D.D.D.D.D.",
"g.D.D.D.D.g.y Z F F F F a p i.D.D.f.h 6 :   7 9 0 0 : e q e e & l l r : s l h Z F F a p i.D.q.q.q.F ",
"D.D.D.D.D.g.a 0.g.f.J U ^ Z i.D.A.p 9 6.w 7 5.6.w.w.0 m.n.v.v.  |.|.m.X '.|.s U J U ^ Z i.D./ ! ! y ",
"D.D.D.D.D.g.F g.D.A.Y Y A.J z.F.D.y X O $ + + + 2 2 t t t t 5 5 5 y y 2 + O X ~ Y Y g.J l.F./ ! ! y ",
"D.D.D.D.D.g.H D.D.D.Y Y D.J z.F.D.j X % ] ` ` ` ` { J.J.R.R.R.R.R.J.G.{ ` + < 9.Y Y D.J z.F./ ! ! G ",
"D.D.D.D.D.g.F D.F.A.T p.G.J Y.L.D.D.j x ` ' | ..X.x.1 u (././././., 1 L...2 9.D.9.p.H.J Y.L./ ! ! W ",
"G.D.D.D.D.g.F D.A.A.A.J.G.J C.L.D.D.z % b [ ....=./././.Q.o.} } } ..Q./.=.3 9.D.g.H.G.J Y.L./ ! ! ! ",
"F.D.D.D.D.g.F D.A.A.d.g.D.J C.L.D.D.z X x ' ' [ o.o.o.o.o.} X   X ..o.o...3 ~ D.d.g.D.L C.L./ ! ! ! ",
"G.D.D.D.D.g.        X & X     J D.y       @ _ [ o.o.o.o.:.o.>.>.>.>.&.o.o.3 ~ D.Z.F.F.J z.F.! W ! ! ",
"F.D.D.D.f.  oX].OXOXOX[.XX}.B.d   k.^.S.m % x 4 [ ' o.o.o.o.o.o...o.o.o.| 2 X 9.q.a.D.U z.F.q.! ! ! ",
"F.D.D.D.f.  ].N.N.N.N.N.N.N.y.w   k.(.^.J X   # ` ' o...[ ' o.o...| ` [ ` + C.u G Z.D.J j.F.d.q.! ! ",
"D.D.D.D.f.  ].N.`.N.N.N.`.B.y.w   k.(.^.S.N X $ x % ` ' ` _ ` ` ` ` + ) _ + I.u U D.D.J j.F.A.Z.a.q.",
"F.D.D.l.f.  ].N.y.M.N.N.u.M.y.w   k.h.1 A ( N o . $ b _ ) $ v ` _ v . c + . l.t o < Y J g.F.D.D.D.D.",
"D.D.D.D.f.  ].M.M.N.N.N.M.M.u.w   > >   X < o X     . O O X . O O .   .     > > w. X7.t f.D.D.D.D.D.",
"D.D.D.D.f.  ].M.N.N.N.N.N.N.y.w     9 4.6.r.r.y.v.v.m.{.m.|.|.|.v.v.r.r.r.5.:   w.[.l 1 i.D.D.D.D.D.",
"Z.D.D.D.f.  ].N.N.M.N.N.N.N.y.w     : 6 9 q q w e e u k r l l l q e q q q 7 X   4.c.d 1 Q g.D.D.D.D.",
"F F F H a   ].N.N.N.N.N.N.N.u.w < t 8 <               X         X     X     H ~ h 9 z F a F F F F F ",
"f.g.a ^ i.  ].N.`.N.N.N.V.N.u.w J f.g.j * ; * X                       = ; & 9.l.9.U f.J K f.f.g.g.d.",
"A.D.h A.f.  ].M.b.N.N.N.b.M.y.w U D.D.F = - q U U J U Y p H U t J J J 6 3.& i.D.D.D.D.J i.A.D.A.D.D.",
"D.D.a D.i.X V.u.t.u.u.u.t.y.e.9 L D.D.F & e p.D.A.A.D.D.J i.A.A.A.D.D.< * z f.D.D.D.D.J f.D.D.D.D.D.",
"D.D.Z.D.g.j 5.d f f f f f f w k i.A.Z.T i p D.D.A.A.D.D.J i.D.A.A.A.D.H t z.D.D.D.D.A.J i.D.D.A.Z.g.",
"Z.A.( F.D.g.t 8.z F z Z F t h i.D.q./ ! E H D.D.D.D.D.D.J i.D.q.D.D.D.f.I W.D.D.D.D.D.J i.D.A.a.! W ",
"/ A.Z.T.D.g.I W.D.D.D.D.D.J i.A.q.! ! ! E P P.D.D.D.D.D.J a.D.g.U.D.D.g.I W.D.D.D.D.D.J i.D.q.! ! ! ",
"! Z./ P.D.g.P E.D.D.D.D.A.J i.A./ ! ! ! E P U.D.D.D.D.D.J i.D.q.K.D.D.g.P W.D.D.D.D.D.J i.D./ / ! ! ",
"! Z.q.L.D.j.P P.D.D.D.D.D.U i.D./ ! ! ! E H P.D.D.D.D.D.J i.D.q.F.D.D.g.J P.D.D.D.D.D.J i.D./ ! ! ! ",
"! Z.A.P.A.g.H L.D.D.D.A.D.J i.F.! ! ! ! E H U.D.D.D.D.D.J i.D.D.L.D.D.g.H L.D.D.D.D.D.J i.A./ ! ! ! ",
"! Z.A.A.l.g.H L.D.D.D.A.D.J i.A.q.! ! ! K H H.D.D.D.D.D.J i.D.D.D.D.D.g.H H.D.D.D.D.D.J f.A./ ! ! ! ",
"/ Z.D.D.D.g.J L.D.D.A.F.A.J i.A.! ! ! K j F D.D.D.D.D.D.J i.D.D.D.D.D.g.H L.D.D.D.D.D.J i.D./ ! ! K ",
"! A.D.D.D.g.Z D.D.D.A.F.A.U i.D.q.! ! a y F D.D.D.D.D.D.L j.F.D.D.D.D.g.F D.D.D.D.D.D.J i.D./ ! ! a ",
"! Z.D.D.D.g.F D.D.D.D.D.D.J i.D.! ! ! y y F D.D.D.D.D.D.U z.F.D.D.D.D.g.H D.D.D.D.D.D.J i.A.( ! ! y ",
"! Z.A.A.D.g.Z a.D.D.D.D.a.G i.D./ ! ! y p j a.D.D.D.D.a.G z.F.A.D.D.l.g.Z q.D.D.D.D.d.G i.D.! ! ! y "
};
