/* XPM */
static char *player_flat1730129941[] = {
/* columns rows colors chars-per-pixel */
"50 50 186 2 ",
"   c #3F3851",
".  c #4E3752",
"X  c #443C54",
"o  c #493C53",
"O  c #5D3754",
"+  c #523A50",
"@  c #663C4F",
"#  c #733E4A",
"$  c #793E4E",
"%  c #623A51",
"&  c #6E3855",
"*  c #793855",
"=  c #39445C",
"-  c #3A4B63",
";  c #335369",
":  c #2C6377",
">  c #316676",
",  c #45425A",
"<  c #4A4258",
"1  c #514459",
"2  c #554A5D",
"3  c #674353",
"4  c #6B4855",
"5  c #7A4D53",
"6  c #675359",
"7  c #474962",
"8  c #4B4D64",
"9  c #5E4E60",
"0  c #4D526A",
"q  c #515167",
"w  c #52546A",
"e  c #54586F",
"r  c #585A6E",
"t  c #525C74",
"y  c #5D5E71",
"u  c #655564",
"i  c #6D5967",
"p  c #6A5F6C",
"a  c #735C69",
"s  c #7A5D6B",
"d  c #615C70",
"f  c #5D6377",
"g  c #5A6379",
"h  c #6E6364",
"j  c #74626F",
"k  c #7B606D",
"l  c #6C6476",
"z  c #6C687A",
"x  c #7A6773",
"c  c #923954",
"v  c #AE3858",
"b  c #BD375A",
"n  c #C43E53",
"m  c #914B4F",
"M  c #94514E",
"N  c #845858",
"B  c #AA574D",
"V  c #8F625F",
"C  c #986659",
"Z  c #AE725B",
"A  c #8A6866",
"S  c #83636D",
"D  c #906667",
"F  c #957765",
"G  c #9A7D67",
"H  c #836670",
"J  c #8C6572",
"K  c #846B73",
"L  c #8E6F76",
"P  c #9B6975",
"I  c #8E7476",
"U  c #877278",
"Y  c #89757C",
"T  c #927278",
"R  c #99767B",
"E  c #9D7A7E",
"W  c #AF7B61",
"Q  c #A56D78",
"!  c #AB6F7B",
"~  c #A3737B",
"^  c #AD707B",
"/  c #A17B7F",
"(  c #AD797F",
")  c #B0757D",
"_  c #B2787F",
"`  c #C7484B",
"'  c #D8474A",
"]  c #DB4C4A",
"[  c #DE534E",
"{  c #E15B51",
"}  c #D6635E",
"|  c #D9705E",
" . c #E56858",
".. c #ED7B53",
"X. c #EE745E",
"o. c #E37968",
"O. c #F07860",
"+. c #9B806A",
"@. c #9B8E7B",
"#. c #9F937D",
"$. c #AF8064",
"%. c #B18E6C",
"&. c #B2906F",
"*. c #EF895A",
"=. c #C68D70",
"-. c #EC8C6C",
";. c #F19762",
":. c #F19E67",
">. c #F59570",
",. c #F69972",
"<. c #F3AD70",
"1. c #EBB879",
"2. c #F6BB79",
"3. c #F6C27D",
"4. c #5A6C82",
"5. c #5F7388",
"6. c #65768A",
"7. c #757484",
"8. c #8A7A82",
"9. c #A27D80",
"0. c #A97D81",
"q. c #B37B81",
"w. c #758493",
"e. c #758D9D",
"r. c #798D9C",
"t. c #768EA1",
"y. c #7C95A5",
"u. c #7F98A9",
"i. c #AE8585",
"p. c #A68A89",
"a. c #B68285",
"s. c #B88386",
"d. c #BA8788",
"f. c #B48888",
"g. c #BA8D8B",
"h. c #A0908E",
"j. c #B4918D",
"k. c #AB9995",
"l. c #B79792",
"z. c #B99B95",
"x. c #B7A987",
"c. c #829FAD",
"v. c #8B9FA9",
"b. c #87A1AF",
"n. c #8AA0AB",
"m. c #90A3AC",
"M. c #8AA6B3",
"N. c #8CA9B5",
"B. c #94ACB6",
"V. c #97B4BD",
"C. c #BEA9A4",
"Z. c #C08F8D",
"A. c #C1928E",
"S. c #D59B88",
"D. c #C39490",
"F. c #C59A94",
"G. c #C89E97",
"H. c #C89F98",
"J. c #CAA293",
"K. c #C4A69E",
"L. c #CAA39B",
"P. c #CDAA9F",
"I. c #C0ADA3",
"U. c #CEACA2",
"Y. c #C0ADA8",
"T. c #D1B1A5",
"R. c #DFB5A0",
"E. c #D4B7AE",
"W. c #D5BCB2",
"Q. c #EDBDA6",
"!. c #F3D392",
"~. c #FCE09B",
"^. c #E5C2AD",
"/. c #EDC9B2",
"(. c #ECD4BE",
"). c #F8E5A3",
"_. c #FFEFA9",
"`. c #9DBAC1",
"'. c #AEBDC4",
"]. c #A5C2C7",
"[. c #ADC7CC",
"{. c #B8CFD3",
"}. c #C4C7CD",
"|. c #C3CED3",
" X c #DFE9EA",
".X c #F2F7F6",
/* pixels */
"A.D.D.D.D.g.H D.D.D.D.D.D.L j.F.D.D.D.D.g.k q.s.s.s.s.q.J ( g.D.D.D.D.g.H D.D.D.D.D.D.I j.F.D.g.s.s.",
"D.D.D.D.D.g.H D.D.D.D.D.D.L j.D.D.D.D.D.j.S Z.A.D.A.A.Z.L i.D.D.D.D.D.g.H D.D.D.D.D.D.I j.D.D.D.A.A.",
"D.D.D.D.D.g.H D.D.D.D.D.D.L i.D.D.D.D.D.g.H D.D.D.D.D.D.I i.D.D.D.D.D.g.H D.D.D.D.D.D.L i.A.D.D.D.D.",
"D.D.D.D.D.g.H D.D.D.D.D.D.L i.D.D.D.D.D.g.K D.D.D.D.D.D.I i.D.D.D.D.D.j.H D.D.D.D.D.D.L f.D.D.A.D.D.",
"A.A.A.A.D.^ H A.D.D.D.D.A.L ~ g.D.D.D.A.^ H D.D.D.D.D.D.L ~ g.D.D.D.A.^ H D.D.D.D.D.D.L ~ g.D.D.D.A.",
"S K K H x s H D.D.D.D.D.D.L s S H H K H k H D.D.D.D.D.D.L s H H K H H s H D.D.D.D.D.D.L s H H H K H ",
"f.g.k ( f.P U P.D.D.D.D.D.I P f.k ~ g.f.P H D.D.D.D.A.D.L P s.k ~ g.d.P L K.D.D.D.D.D.L P f.s / d.f.",
"A.A.k A.A.f.U P.D.D.D.D.D.L i.A.j d.D.D.f.H D.D.D.D.A.A.L i.A.j g.D.D.f.K U.D.D.D.D.D.L i.Z.s f.D.D.",
"A.D.D.D.D.g.x A.D.D.D.D.D.L f.D.k K.A.A.g.U P.F.D.D.D.D.L i.A.A.D.D.D.g.K A.D.D.D.D.D.L f.D.k K.D.D.",
"D.D.A.D.D.g.U U.D.D.D.D.D.L i.A.A.F.F.A.g.K A.A.D.D.D.D.L f.D.A.D.D.D.g.U U.D.D.D.D.D.L i.D.D.D.D.D.",
"Z.A._ F.D.g.Y W.D.D.D.D.D.L i.D.A.U.A.F.g.H F.A.D.D.D.D.L i.D.q.A.D.l.g.Y W.D.D.D.D.D.L i.A.Z.T.D.D.",
"_ A.Z.T.D.g.Y W.D.D.D.D.D.I i.D._ L.A.A.g.U P.A.D.D.D.D.L f.A.g.U.D.A.g.Y W.D.D.D.D.D.L i.D.q.L.D.D.",
"! Z._ U.D.g.Y W.D.D.D.D.D.L i.D.A.A.A.F.g.U P.A.D.D.D.D.I i.A._ L.D.D.g.Y E.D.D.D.D.D.L i.D.D.A.D.D.",
"^ Z.q.J.D.g.K P.D.D.D.D.D.L i.D.Z.A.A.A.g.U P.A.D.D.D.D.L i.D.q.G.D.D.g.U P.D.D.D.D.D.L i.D.g.A.D.D.",
"^ Z.A.P.D.g.K L.D.D.D.D.D.L f.A.q.F.D.@.k u U R D.f.H H u s H H U H g.K u l.D.D.D.D.D.L i.D._ F.D.D.",
"^ Z.A.A.D.g.K H.D.D.D.D.D.L i.A.q.H.0.m M C F V H S C G G +.#.G G #.K @.+.A f.D.D.D.D.L i.D.^ G.D.D.",
"^ Z.D.D.D.g.K H.D.D.D.D.D.L i.D.q.Z.H M ..:.2.$.X 6 <.3.1.+.#.+.3._.2 !.~.h 9.D.D.D.D.L i.D.s.A.D.D.",
"^ g.D.D.D.g.H D.D.D.D.D.D.L i.D.D.D.H V *.:.3.=.N G 3.3.1.5 , 5 3._.F )._.h 9.D.D.D.D.L i.D.D.D.D.D.",
"^ Z.D.D.D.g.H D.D.D.D.D.D.L i.D.D.D.H M ..:.3.<.;.3.3.3.3.;.A :.2._.!.).).h @.D.D.D.D.L i.D.D.D.D.D.",
"^ Z.D.D.D.g.H q.D.D.D.D.s.J i.D.D.D.H # B W &.W Z %.%.%.%.%.%.%.%.x.%.x.%.2 / D.D.A.s.J i.D.D.D.D.D.",
"g.D.D.D.D.g.a s H H H H k a i.D.D.f.j 7 , X 8 8 w q , r w r r = z z d , r z j k H H k a i.D.q.q.q.H ",
"D.D.D.D.D.g.s 0.g.f.L T ^ S i.D.D.a 0 6.t 8 6.6.w.w.w n.n.v.v.  }.}.m., '.}.l P L T ^ S i.D._ ^ ^ i ",
"D.D.D.D.D.g.H g.D.A.R R A.L z.F.D.i   + % @ @ % 3 3 u u u u 6 6 u u u 3 # . X / R R A.L z.F._ ^ ! a ",
"D.D.D.D.D.g.K D.D.D.R R D.L z.F.D.s X * n ] ] ] ] } J.J.R.R.R.R.R.J.J.} ] @ 1 9.R R A.L z.F.^ ^ ^ J ",
"D.D.D.D.D.g.H D.F.A.E p.G.L Y.L.D.D.k c ' [  .X.o.x.2 p (././././.+ 2 P. .3 9.D.E p.H.L Y.H._ ^ ^ ! ",
"G.D.D.D.D.g.H D.A.A.A.J.G.L Y.H.D.D.H & n { X.X.-./././.Q.O.| | | O.Q./.-.4 9.D.Z.H.G.L Y.H.) ^ ^ ^ ",
"F.D.D.D.D.g.H D.A.A.d.g.D.I C.L.D.D.S   c [ { { O.O.O.O.O.|     X X.X.O.O.4 9.D.d.g.F.L Y.H.) ! ^ ^ ",
"G.D.D.D.D.f.  X     X =       L D.a     X # ' { O.O.O.O.,.O.,.,.,.>.*.O.O.4 9.D.Z.F.F.L z.F._ ! ^ ^ ",
"F.D.D.D.f.  .X]..X.X.X[. X{.B.f   k.^.S.N & c 5 { [ O.O.O.O.O.O.O.O.O.O. .3   9.q.s.D.L z.H.q.^ ^ ^ ",
"F.D.D.D.f.  ].N.N.N.N.N.N.N.y.e   k.(.^.L X   $ ' { O.O.{ [ O.O.X. .] { ] % I.p J Z.D.L j.F.d._ ^ ^ ",
"F.D.D.D.f.  ].N.`.N.N.N.V.V.y.e   k.(.^.S.V   & v # ] ] ] ' ] [ [ ' @ ` ] @ I.p L D.D.L j.F.A.Z.q.s.",
"F.D.D.l.f.  ].N.y.M.N.N.u.M.y.e   k.h.2 D _ V X . O n ' ` % b ' ' b . v @ . j.i o 1 E L g.D.D.D.D.A.",
"A.D.D.D.i.  ].N.N.N.N.N.M.M.y.e   < <   X 1 o X     . + +   . + + . X .     < < w.|.7.u i.D.D.D.D.D.",
"D.D.D.D.f.  ].N.N.N.N.N.N.N.y.e     0 4.6.r.r.y.v.v.B.[.m.}.}.}.n.n.r.r.r.5.,   w.[.z 2 i.D.D.D.D.D.",
"Z.D.D.D.f.  ].N.N.N.N.N.N.N.y.t     , 7 0 w w e r w p l y z z l r r q w w 8     g b.f 2 ~ g.D.D.A.A.",
"H H H H s   ].N.N.N.N.N.N.N.y.e 1 u 9 1         X     X               X   X K ( l 0 x H s H H K K H ",
"f.d.s ( i.  ].N.`.N.N.N.V.N.y.e L f.g.k - > - X     X X     X       X ; > = E l.( T f.L P s.g.g.g.s.",
"A.D.j A.i.  ].N.b.N.N.N.c.N.y.e T D.D.H ; : e T L L T T a S L u J I T - : = i.D.l.A.A.L i.A.A.l.D.D.",
"D.D.k D.f.  V.y.t.y.c.y.t.y.e.0 L D.D.S = r p.D.A.D.D.D.L i.A.A.A.D.D.1 - K f.D.A.D.A.I f.D.A.A.A.D.",
"D.D.Z.D.g.k 6.g g g g g g g t l i.A.A.E a a D.D.A.D.D.D.L i.A.A.D.D.D.K r z.A.D.D.D.A.L f.D.D.A.Z.Z.",
"Z.D.q.D.D.g.u 8.H H H H H u s i.A.q.) ^ ! H D.D.D.D.D.D.L i.D.q.D.D.l.g.Y W.D.D.D.D.A.L f.A.A.s.^ ^ ",
"_ A.g.T.D.j.Y W.D.D.D.D.D.L i.l.q.^ ^ ^ Q L L.D.D.D.D.D.L i.D.Z.U.D.A.g.Y W.D.D.D.D.F.L i.A.q.) ^ ^ ",
"! Z.( U.D.g.Y E.D.D.D.D.D.L i.A.) ^ ^ ^ Q K U.D.D.D.D.D.L i.D.) L.A.D.g.Y E.D.D.D.D.D.L f.A.) ^ ^ ^ ",
"! Z.q.L.D.g.K P.D.D.D.D.D.L a.D.) ^ ^ ^ Q U U.D.D.D.D.D.L i.F.q.G.D.D.g.L P.D.D.D.D.D.L i.A.) ^ ^ ^ ",
"^ Z.A.L.D.g.K L.D.D.D.D.D.L i.D.) ! ^ ^ Q K U.D.D.D.D.D.L i.D.D.L.D.D.g.K L.D.D.D.D.D.L i.A._ ^ ^ ^ ",
"^ Z.D.D.D.g.K L.D.D.D.D.D.L i.D.) ! ^ ! P K G.D.D.D.D.D.L i.D.D.D.D.D.g.K H.D.D.D.D.D.L i.A._ ^ ^ ! ",
"^ Z.D.D.D.g.K H.D.D.D.D.D.L i.D.q.! ! P s H D.D.D.D.D.D.I i.D.D.D.D.D.g.K H.D.D.D.D.A.L f.A.) ^ ! P ",
"^ A.D.D.D.g.H D.D.D.D.D.D.L i.D.! ! q.s a H D.D.D.D.D.D.L j.F.D.D.D.D.g.K D.D.D.D.D.A.I i.A.) ^ ! s ",
"^ Z.D.D.D.g.H D.D.D.D.D.D.L i.D.( ! ^ i i S D.D.D.D.D.D.L z.F.D.D.D.D.g.H D.D.D.D.D.D.L f.A.) ! ! i ",
"^ Z.D.A.D.g.S s.D.A.D.D.s.J i.D._ ! ^ i i S q.D.D.D.D.d.J z.F.D.D.D.D.g.k a.D.D.D.D.s.H i.A._ ^ ) i "
};
