/* XPM */
static char *player_dead1730129941[] = {
/* columns rows colors chars-per-pixel */
"50 50 198 2 ",
"   c #3F3851",
".  c #463C53",
"X  c #563753",
"o  c #663C4F",
"O  c #793E4E",
"+  c #683B52",
"@  c #34556B",
"#  c #2B5A73",
"$  c #2E6C7C",
"%  c #326A77",
"&  c #37797D",
"*  c #4A4056",
"=  c #44415A",
"-  c #4A445C",
";  c #4A485E",
":  c #554757",
">  c #564956",
",  c #504359",
"<  c #5B4C5E",
"1  c #714A5A",
"2  c #474962",
"3  c #4C4C63",
"4  c #544E65",
"5  c #5C4E60",
"6  c #4D546C",
"7  c #575469",
"8  c #4F5A72",
"9  c #5A5C72",
"0  c #604F60",
"q  c #615262",
"w  c #6B5765",
"e  c #6E5967",
"r  c #61586A",
"t  c #6A5E6B",
"y  c #7D5A61",
"u  c #715B68",
"i  c #7B5D6B",
"p  c #436878",
"a  c #5B6378",
"s  c #70606D",
"d  c #7C606D",
"f  c #66677A",
"g  c #6A677A",
"h  c #7A6571",
"j  c #7F737A",
"k  c #933856",
"l  c #B63A57",
"z  c #C93F52",
"x  c #8C404D",
"c  c #815555",
"v  c #8F5255",
"b  c #A0434C",
"n  c #B3444B",
"m  c #B54B4E",
"M  c #A34D51",
"N  c #82655D",
"B  c #976055",
"V  c #A7605F",
"C  c #8F6364",
"Z  c #82616E",
"A  c #946F66",
"S  c #997966",
"D  c #836671",
"F  c #8D6373",
"G  c #846A72",
"H  c #8E6F76",
"J  c #976673",
"K  c #9C6976",
"L  c #8D7375",
"P  c #88747B",
"I  c #937379",
"U  c #98767B",
"Y  c #9D7A7E",
"T  c #A86E7A",
"R  c #A47679",
"E  c #AD707B",
"W  c #AB797F",
"Q  c #B0757D",
"!  c #B2787F",
"~  c #D4464C",
"^  c #DB4C4A",
"/  c #DF564F",
"(  c #E05750",
")  c #E15C51",
"_  c #D36558",
"`  c #C37557",
"'  c #DA705E",
"]  c #E66456",
"[  c #E96B5A",
"{  c #E5745F",
"}  c #EE735E",
"|  c #DB7068",
" . c #E57160",
".. c #F07860",
"X. c #9C826C",
"o. c #9E8A73",
"O. c #AF8C76",
"+. c #B59E7B",
"@. c #F0905E",
"#. c #C9856A",
"$. c #F38869",
"%. c #F19B65",
"&. c #F3906F",
"*. c #EF8C75",
"=. c #D9AB76",
"-. c #F3AD71",
";. c #F4B776",
":. c #F6C27D",
">. c #2D7681",
",. c #2B7B87",
"<. c #3A7F80",
"1. c #5D7086",
"2. c #5F7D93",
"3. c #616D83",
"4. c #797687",
"5. c #6D7D90",
"6. c #807F8F",
"7. c #9D7F81",
"8. c #A27D80",
"9. c #A97D81",
"0. c #B37B81",
"q. c #28848E",
"w. c #298A91",
"e. c #2D9494",
"r. c #309A96",
"t. c #69859A",
"y. c #788B9A",
"u. c #768EA1",
"i. c #7992A4",
"p. c #7F98A9",
"a. c #9D8586",
"s. c #878A9A",
"d. c #888898",
"f. c #AD8585",
"g. c #A58988",
"h. c #B58385",
"j. c #B88386",
"k. c #B98A86",
"l. c #B38988",
"z. c #B98D8B",
"x. c #B4918C",
"c. c #BC928E",
"v. c #AB9995",
"b. c #B69793",
"n. c #B99B95",
"m. c #878FA1",
"M. c #829CAB",
"N. c #8B9FA9",
"B. c #9696A3",
"V. c #979DAB",
"C. c #9EA2AF",
"Z. c #8AA5B2",
"A. c #8DAAB5",
"S. c #95B2BC",
"D. c #98B2BA",
"F. c #B0A6A9",
"G. c #ACAEB8",
"H. c #A8B4BE",
"J. c #C08F8D",
"K. c #C1928E",
"L. c #C39490",
"P. c #C59A94",
"I. c #C89E97",
"U. c #C89F98",
"Y. c #CAA39B",
"T. c #CDAA9E",
"R. c #DCAC97",
"E. c #E1BF85",
"W. c #CFACA2",
"Q. c #C0ADA8",
"!. c #D5B5A7",
"~. c #D5BCB2",
"^. c #E7BDA6",
"/. c #F9D28C",
"(. c #E7D89E",
"). c #FDE49E",
"_. c #E6C7B1",
"`. c #EAC9B3",
"'. c #ECD4BE",
"]. c #FFEFA9",
"[. c #9DBAC1",
"{. c #A3BBC4",
"}. c #B7BAC3",
"|. c #A5C2C7",
" X c #B9CAD1",
".X c #BBD1D4",
"XX c #C2C6CD",
"oX c #C3CED3",
"OX c #CCD2D7",
"+X c #D3D9DD",
"@X c #CBDBE2",
"#X c #D1DCE4",
"$X c #D9DEE1",
"%X c #D8E4EA",
"&X c #E3EAED",
"*X c #E5EEF1",
"=X c #EEF5F6",
"-X c #F2F7F6",
/* pixels */
"K.L.L.L.L.z.D L.L.L.L.L.L.I x.L.L.L.L.L.z.d 0.j.0.j.0.0.F 9.L.L.L.L.L.x.G L.L.L.L.L.L.I z.P.c.z.j.j.",
"L.L.L.L.L.z.D L.L.L.L.L.c.I x.L.L.L.L.L.z.D z.L.L.P.L.J.H f.L.L.L.L.L.z.D L.L.L.L.L.L.H x.L.L.L.L.L.",
"L.L.L.L.c.z.D L.L.L.L.L.L.H f.L.L.L.L.L.z.D L.L.L.L.L.L.H f.L.L.L.L.L.z.G L.L.L.L.L.L.H l.K.L.L.L.L.",
"L.L.L.L.L.z.D L.L.L.L.L.L.I f.L.L.L.L.L.z.D L.L.L.L.L.L.H f.L.L.L.L.L.z.D J.L.L.L.L.c.I g.L.L.L.L.L.",
"z.L.L.L.L.R D L.L.i , X : * . . - , , . , . - , , , * , * * , , , , , , . , X . i L.L.H T z.L.L.L.L.",
"D D D D D i D L.h 4.{.XXXXXXXXXXXXXXXXXXXXXXXXXXXXXXXXXXXXXXXXXXXXXXXXXXXXoXXX}.s.i c.H i D D G D D ",
"l.z.d 9.l.K P Y.0 C.*X=X-X=X=X=X=X*X=X=X-X-X=X=X-X=X=X=X=X=X=X=X=X=X=X=X=X=X=X&XC.0 L.I J h.d R z.h.",
"K.K.i L.L.z.G T.5 G.=X=X$XB.B.=X=XG.B.B.B.}.$XB.B.B.B.$X}.B.B.G.&XB.B.B.B.$X=X=XG.5 L.I f.c.d l.L.L.",
"L.L.L.L.L.z.D L.5 G.=X=XXX    =X=X4   . . 6. X  .     XX4.    g +X. . .   XX=X=XG.5 L.H f.L.u W.L.L.",
"L.L.K.L.L.z.P W.q G.=X=XXX    =X=X4   3 3 6.XX  . 9 g OX6.. . d.#X    9 . XX=X=XG.5 L.H f.L.L.L.L.L.",
"J.K.! P.L.z.P ~.q G.=X=XXX    =X=X4   V.d.6.XX.    X#X=X6.  3.@X+X.    Xa XX=X=XG.0 L.I h.L.L.W.L.L.",
"! K.J.W.L.z.P ~.5 G.=X=XXX    =X=X4   G.B.6.XX        XX6.  . g #X       X*X=X=XG.0 c.I f.L.0.Y.L.L.",
"E J.Q T.K.z.P ~.0 G.=X=XXX.   @X=X4 . V.s.4.=X*X@X    XX6.  4.#X+X.   @X4 XX=X=XG.0 L.H f.L.L.L.L.L.",
"E J.j.I.K.z.G T.0 G.=X=XXX      =X4       d.XX.       XX6.    g $X    =X4 XX=X=XG.0 L.H f.L.k.L.L.L.",
"E J.K.T.L.z.G Y.0 G.=X=XXX      =X4       4.XX      . XX4.    g $X  . =X4 XX=X=XG.0 L.H f.L.! P.L.L.",
"E J.K.L.L.z.G Y.0 G.=X=X&XXXXXXX=XXXXXXXXX$X&XXXXXXXXX&XOXXXXXOX&XXXXX=XXX&X=X=XG.0 L.H f.L.Q P.L.L.",
"E L.L.L.L.z.G U.0 V.%X=X=X=X=X=X=X=X=X=X=X=X=X=X=X=X=X=X=X=X=X=X=X=X=X=X=X=X-X%XV.0 L.I f.L.j.L.L.L.",
"E z.L.L.L.z.D L.I 4.s.B.B.B.B.B.B.B.B.B.B.B.B.B.B.B.B.B.B.B.}.%X=X=X#XB.B.B.B.s.4.I L.H f.L.L.L.L.L.",
"E z.L.L.L.z.D L.L.I u u u 5 w e e u e u w 5 u u u u u s 5 s 4.C.%X&Xm.w 5 u u t I L.L.I f.L.L.L.L.L.",
"Q J.L.L.L.z.Z h.L.L.L.L.j.D f.L.L.L.L.L.z.Z 0.L.L.L.L.0.F b.7.g C.H.  z.d 0.L.L.L.L.j.Z f.L.L.L.L.L.",
"z.L.L.L.L.z.u d D D D D Z e f.L.L.L.L.L.z.u i D G G D Z e l.L.f., , , z.u i G D D D i u h.L.0.0.0.D ",
"L.L.L.L.L.z.i W z.h.H I W Z h.K.L.L.L.L.z.i 9.8.D 0.z.9.Z 9.L.L.L.L.L.z.Z 9.z.h.F I 9.Z f.L.! E E e ",
"L.L.L.L.L.z.D c.L.K.U U K.H n.P.L.L.L.L.z.D J.8.H J.L.J.H f.L.L.L.L.L.z.D J.L.L.U U K.H b.P.! E E e ",
"L.L.L.L.L.z.D L.L.L.U U K.H n.I.L.L.L.L.z.s 8.8.f.L.L.c.I f.L.L.z.8.8.I D L.L.L.U U L.L n.P.E E E F ",
"L.L.L.L.L.z.D L.L.L.8.g.U.I Q.Y.l.l.l.l.O.q ,   w l.l.l.h Y l.l.I ; > , h L.L.L.R g.U.H Q.U.E E E T ",
"P.L.L.L.L.z.D L.L.L.J.I.P.H F.P       .   XXy.          .       j `.R.#.  z.L.L.L.I.I.I Q.U.Q E E E ",
"P.L.L.L.L.z.D L.L.L.j.z.L.H r S E.(.(.=.> - , y C t !.' ' ' _ c j '._.R.  * , - . , , . F.Y.0.E E E ",
"P.L.L.L.L.z.D L.L.L.L.I.I.I a.H X./.].).> y.a L Y 1 *.} } } } _ V t t q     @ $ >.>.>.# q z.E E E E ",
"P.L.L.L.L.z.G L.L.L.h.0.L.L G S S A -./.5 9 ; L T.k.....&...} } _ M b b     >.q.w.w.w.,.  l.0.E E E ",
"P.L.L.L.L.z.D L.L.L.k.k.L.L 5 X.+.. B :.> f 6 L ^.^.} v &.$.....} ] ~ ~     >.w.w.q.>.%   z.z.0.E E ",
"P.L.L.L.L.z.D L.L.L.L.L.L.L 0 o.+.* c :.> N.f I _.^.{ c &.......{ ] z k     >.w.w.>.@ 5 s c.L.J.0.j.",
"L.L.L.L.L.z.G L.L.L.L.L.L.I < S +.N %.:.> Z.f I R.U.&.} $.......] ~ ~ +     >.w.w.>.X H z.L.L.L.L.L.",
"L.L.L.L.K.c.D L.L.L.L.L.L.L < S :.:.:.:.> y.a L o.t `...&.......{ ) ^ ~     $ w.w.$ , L f.K.L.L.L.L.",
"L.L.L.L.K.x.D K.L.L.K.K.L.L < B %.:.:.:.> . . N A e `.............[ ~ l     & w.r.<.* L h.K.L.L.L.L.",
"z.L.L.        . .       . w : .   > :.:.> N.f x | ^.`.........] ^ l . .     $ w.w.$ - L R c.L.L.L.J.",
"D d * %XH.oX+X%XoXH.%XD.M.3 .     * @.@.> f a x (  ...........[ / z k       q.w.r.<., L i D G D D D ",
"h.f.   XS.{.{.{.D.D.[.S.p.3 . y #.=.-.;.> 5.6 x ( } ......) ( M o o X .     & w.r.& , H J h.z.z.z.k.",
"c.l.  |.A.S.S.A.A.S.D.A.u.3 . A -.:.:.:.> 1.6 x ( [ ......) ^ n + q v.v.    $ w.e.& , H f.c.K.K.L.L.",
"L.l.  |.A.S.A.A.A.A.S.Z.i.3   B -.-.-.-.> 6 2 k ^ ) [ ] ] ) m k k A _.`.    $ q.>.@ , H f.L.L.L.L.L.",
"L.l.  |.A.M.M.A.A.A.p.A.i.3   c ` ` ` ` .     O n n n n n n +   q R x.x.    @ $ p 9 4.d f.L.L.K.J.z.",
"z.l.  |.A.A.A.A.A.A.Z.A.i.3       = = 2 - - 3 2 ; 3 4 3 4 4 4 4 3 2 2 2 2       5.oX+X  U K.K.O.E E ",
"0.l.  |.A.A.A.A.A.A.A.A.i.3     3 2.2.A.A.A.[.|.|..X*X{.-X=X=X@X{.[.Z.A.A.t.2   3.D.D.    l.0.E E T ",
"E f.  |.A.A.Z.A.A.A.A.A.i.3                     .       . .     .               8 u.p.  . k.0.E E E ",
"E f.  |.A.A.A.A.A.A.A.A.i.3 G l.T K K T J h n.l.l.l.l.l.D 8.l.R z.l.l.f.G n.l.l.h ; 7 D 8.L.Q E E E ",
"E f.  |.A.[.S.A.A.A.[.A.i.3 L P.Q E E E T P T.L.K.L.L.L.H f.L.L.Y.L.L.l.G Y.L.L.l.8.9.H f.L.0.T E E ",
"E h.  {.A.Z.Z.Z.A.A.Z.A.i.3 I L.! E E T J G U.L.K.K.L.L.H f.L.L.L.L.L.z.H U.L.L.L.L.L.H f.J.Q E E E ",
"E f.  [.M.p.p.p.M.p.u.p.t.3 L L.E E E K i D L.L.L.L.L.L.I f.L.L.L.L.L.z.G U.L.L.L.L.L.H f.L.Q E E K ",
"E z.e 5.3.3.3.3.3.3.3.3.a 7 Y L.! E E i e D L.L.L.L.L.L.I b.L.L.L.L.L.z.D L.L.L.L.L.L.H f.L.Q E E i ",
"E J.L.0 0 0 , 0 5 0 0 0 0 i f.L.! E E u w D L.L.L.L.L.L.I b.I.L.L.L.L.z.h L.L.L.L.L.L.H h.L.! E E e ",
"E z.L.L.L.z.Z j.L.L.L.L.j.Z f.L.Q E E w u Z 0.L.L.L.L.k.D n.L.L.L.L.L.z.Z h.L.L.L.L.k.D f.L.E E E e "
};
