/* XPM */
static char *end_close1730129845[] = {
/* columns rows colors chars-per-pixel */
"50 50 119 2 ",
"   c #6E5967",
".  c #6D5D6B",
"X  c #755C69",
"o  c #7C5E6B",
"O  c #6F606E",
"+  c #73626F",
"@  c #7B626D",
"#  c #676474",
"$  c #6D6473",
"%  c #6C6877",
"&  c #656878",
"*  c #6C6B7A",
"=  c #756371",
"-  c #7F6770",
";  c #746B77",
":  c #7F6A73",
">  c #736E7B",
",  c #72717E",
"<  c #825F6E",
"1  c #85626E",
"2  c #8B656F",
"3  c #826771",
"4  c #8B6371",
"5  c #836871",
"6  c #8E6E75",
"7  c #866D79",
"8  c #946673",
"9  c #986776",
"0  c #956A75",
"q  c #9B6A75",
"w  c #8F7176",
"e  c #907377",
"r  c #9C7177",
"t  c #937479",
"y  c #99767B",
"u  c #9E7A7C",
"i  c #A26B77",
"p  c #A46D79",
"a  c #AA6F7A",
"s  c #A5737B",
"d  c #AD707B",
"f  c #A17B7E",
"g  c #AC797E",
"h  c #B0757D",
"j  c #BD727B",
"k  c #B2787F",
"l  c #CA767F",
"z  c #667484",
"x  c #6F7583",
"c  c #667988",
"v  c #717684",
"b  c #7A7C87",
"n  c #737B88",
"m  c #A37E80",
"M  c #AD7D81",
"N  c #B37B81",
"B  c #B97E80",
"V  c #7B838E",
"C  c #768E9A",
"Z  c #7A919D",
"A  c #7F97A1",
"S  c #A28584",
"D  c #AE8485",
"F  c #B58385",
"G  c #B98284",
"H  c #B28A86",
"J  c #BD8987",
"K  c #B68988",
"L  c #B98C8B",
"P  c #B4918C",
"I  c #BB908D",
"U  c #BC9390",
"Y  c #849FA7",
"T  c #C98886",
"R  c #C08F8D",
"E  c #DC8587",
"W  c #DF8789",
"Q  c #D78C89",
"!  c #C1928E",
"~  c #D8908C",
"^  c #C39490",
"/  c #C59B94",
"(  c #C89B93",
")  c #C99F98",
"_  c #D09A90",
"`  c #E18788",
"'  c #E38A8A",
"]  c #E5928E",
"[  c #E79690",
"{  c #E99B93",
"}  c #C4A69E",
"|  c #CBA69C",
" . c #CDA99F",
".. c #D3A396",
"X. c #DDA597",
"o. c #D1A49A",
"O. c #D8AD9C",
"+. c #EBA197",
"@. c #EDA699",
"#. c #E3AB9C",
"$. c #EEA99B",
"%. c #E5B19F",
"&. c #F1B29F",
"*. c #CFADA2",
"=. c #D1B1A5",
"-. c #DAB2A4",
";. c #EABCA5",
":. c #F2B5A1",
">. c #F5BBA5",
",. c #F7BFA8",
"<. c #F7C2A9",
"1. c #F8C4AB",
"2. c #FBCAAE",
"3. c #FBCDB1",
"4. c #FBD0B4",
"5. c #FAD5BA",
"6. c #FAD9BD",
"7. c #FADDC1",
"8. c #FAE1C5",
/* pixels */
"! ^ ^ ^ ^ L 3 ^ ^ ^ ^ ^ ^ w P / ^ ^ ^ ^ P 1 k G G G G k 2 m ! ! ! ^ ^ L 5 ! ! ^ ^ ^ ^ w P / U L G B ",
"^ ^ ^ ^ ^ L 3 ^ ^ ^ L L - @ X - - - : - : : - + X @ - 5 : - 7 5 - - @ @ - L I I ^ ^ ^ w P / ^ ^ ^ ^ ",
"^ ^ ^ ^ ^ L 5 ^ L D y e 1.X.w >.2.2.7.2.8.6.<.I H <.2.2.8.4.8.8.6.>.u _ 1.t y S H ^ ^ w D ^ ^ ^ ^ ^ ",
"^ ^ ^ ^ ^ L 3 L f S -.2.2.;.e 2.2.2.2.2.2.2.2...P 1.2.2.2.2.2.2.2.2.S O.2.2.<.S m H ^ w D ^ ^ ^ ^ ^ ",
"J ^ ^ ^ ^ s @ u ( 5.6.2.2.%.e <.2.2.2.2.2.2.1.! H 1.2.2.2.2.2.2.1.1.m ..1.2.8.6.| s L 6 s J ^ ^ ^ ^ ",
"5 3 5 5 3 X 5 ( 5.4.2.>.@.~ 2 { $.$.$.$.$.$.@.G g +.$.$.$.$.$.$.$.+.r T $.>.2.3.5.o.f 3 o 3 5 5 3 3 ",
"K L @ g K 0 f 1.4.2.&.[ ` l X q q q q q q q q 2 1 q q q q q q 0 q q @ j ` [ >.2.3.2.m @ 0 F @ s L K ",
"! ^ @ ! I 0 #.2.2.>.{ ` 2 < X 4 q q q q q q 1   # #   1 q q q q q 8 o 1 2 ' ] :.3.2...5 D ! X L ^ ^ ",
"^ ^ ^ ^ L e 2.2.2.@.' 2   X 8 a h a d d d a 9   # #   q a d d d d a 9 X   2 ` { 2.2.2.e D ^ @ } ^ ^ ",
"^ ^ R ^ @ &.2.2.&.[ 2   X X X X X X X X X X X   & #                       X @ ' &.2.2.:.@ L ^ ^ ^ ^ ",
"R ^ N ^ - 2.2.2.$.E 2 X 8 d h g h h g d h d 4   & #   @ X @ @ @ @ + @ X X X o E +.2.2.2.5 L ! *.^ ^ ",
"k ! L =.5 1.2.1.@.q   8 a h J ^ ^ ! ^ ^ ^ G q   , *   q B ! ! ! ^ ! ! J d 8   2 +.1.2.1.@ L N | ^ ^ ",
"d R h *.X R | I B 2   2 2 q m m m m m m S f 2   * %   2 f m m m S f m S q 2   @ B ! | I X L ^ ! ^ ^ ",
"a R B ) X F P H g 1 O O O 2 y y y y y y y y r < * $ < t y y y y y y y 8       @ g D P M X L L ! ^ ^ ",
"d R ^ | @ <.2.1.+.q & , * 2 ! ^ ^ ^ ^ ^ ^ ^ ! r & % u ! ^ ^ ^ ^ ^ ^ I w * , & 5 { 1.2.<.- L g ! ^ ^ ",
"d R ^ ^ 5 7.2.2.$.q , A V O ^ ^ ^ ^ ^ ^ ^ ^ ^ S * * m ^ ^ ^ U ^ ^ ^ ^ : V Z V 2 +.2.2.6.- L h | ^ ^ ",
"d ! ^ ^ : 8.2.2.$.q   + = s ^ ^ ^ ^ ^ ^ ^ ^ ^ m > * f ^ ^ ^ ^ ^ ^ ^ ^ M X = + 2 @.2.2.8.: L G ! ^ ^ ",
"d I ^ ^ - 3.2.2.$.9 9 K L R ^ ! ^ ^ ^ ^ ^ ^ L 0 b , 8 R ^ ^ ^ ^ ^ U ^ ^ L K q 4 +.2.2.2.5 L ! ^ ^ ^ ",
"d ! ^ ^ : 8.2.2.$.q         X                   b , X @ X @ @ o @ @ X @ X o X 4 +.2.2.8.: P ^ ^ ^ ^ ",
"a R ^ ^ 5 2.2.2.$.q X o o o o o o o o o o o o X b > 9 R ^ ^ ^ ^ ^ ^ ^ ^ ^ U s 4 +.2.2.2.- L ^ ^ ^ ^ ",
"J ^ ^ ^ 5 2.2.2.$.q 8 d d a d a a a a a h a a 4 v > m ^ ^ ^ ^ ^ ^ ^ ^ ^ ^ ^ L 2 +.2.2.2.- P k k N 3 ",
"! ! ^ ^ - >.2.<.+.q 8 d d d d d a h a a d d a 4 b > r L ^ ^ ^ ^ ^ ^ ^ ^ ^ ! g 2 { <.2.>.@ L h h a   ",
"^ ^ ^ ^ X y S m r @ X 1 1 1 1 4 4 1 1 4 2 < < X > * o 6 6 w w 6 w 6 6 w w 6 < X q f S u @ L h a a   ",
"^ ^ ^ ^ @ J | ! B 2 4 u m m m m m m m m m m s 4 & $ < m m m m m m m m m m f 8 1 B ! | J X L h h a 4 ",
"^ ^ ^ ^ 5 1.2.1.@.q f ! ^ ^ ^ ^ ^ ^ ^ ^ ^ ^ R u & $ m U ^ ^ ^ ^ ^ ^ ^ ^ U ^ K 2 { 1.3.1.- U h d h a ",
"( ^ ^ ^ : 8.2.2.$.q H ! ^ ^ ^ ^ ^ ^ ^ ^ ^ U i X . . X p L ^ ^ ^ ^ ^ ^ ^ ^ ^ L 2 +.2.2.7.: ^ h a d a ",
"( ^ ^ ^ : 8.2.2.$.q 8 K L L L L L L L L L s ; Y b V Y ; s L L L L L L L L K r 4 +.3.2.7.: U h a d d ",
"( ^ ^ ^ - 4.2.2.$.q                         $ Z b x A ; o 3 3 3 3 3 3 5 3 3 o 4 { 2.3.3.: I N a d d ",
") ^ ^ ^ 5 6.2.2.$.q   o < 4 < 4 4 3 1 1 3 X = Z b x A ; M ^ ^ ^ ^ ^ ^ ^ ^ ! g 2 +.3.2.5.: L N a d d ",
"^ ^ ^ ^ - 2.2.2.$.q   8 a d a d a a a a d 9 $ Z b x A ; L ^ ^ ^ ^ ^ ^ ^ ^ ^ L 2 +.3.2.3.- L J N d d ",
"( ^ ^ ^ - 2.2.2.$.q   9 d d a d d a d a a 9 $ Z b v Y ; M ^ ^ ^ ^ ^ ^ ^ ^ ^ N 2 { 2.2.2.- L ^ L B B ",
"/ ^ ^ ! @ >.2.1.+.9   o 1 4 1 1 4 1 1 4 4 X = Z b v A ; < 6 6 6 6 6 w 6 6 6 1 4 { ,.3.:.3 U ^ ^ ^ ^ ",
"^ ^ ^ ^ X w e 6 4 X 8 D D D D D D D D D D 9 $ Z b v Y ;       X               X 6 w t w   L ! ! ^ ^ ",
"^ ^ ^ ^ - X.;.;.~ 8 D ! ! ^ ^ ^ ^ ^ ^ ^ ^ L $ Z b v Z ; 4 p p p i p p p i 4   4 Q #.;.X.@ I ^ ! ^ ^ ",
"J ^ ^ ^ - 3.2.2.$.q D ! ^ U ^ ^ ^ ^ ^ ^ ^ L $ Z b v Y ; i a a d d a a a d i   2 +.2.2.4.- L ^ ^ ^ ^ ",
"5 5 5 5 5 8.2.2.$.q 8 H L L L L L L L L L 9 $ Z b v Z ; 4 p p a p p p a p 4   2 +.1.2.8.: 5 5 5 3 3 ",
"K L @ M : 7.2.2.$.q X 3 5 3 3 3 3 3 3 5 3 1 $ C b x A ; o 3 3 3 3 3 3 4 3 5 5 4 @.2.2.6.- D L L L K ",
"! ^ o ^ - 4.2.2.$.9 4 m S L ^ ^ ^ ^ ^ ^ ! G @ z v & n 7 F ^ ^ ^ ^ ^ ^ L m m u 2 +.2.2.5.: L ! ! ^ ^ ",
"^ ^ @ ^ - 5.2.2.$.q ; b > 0 ^ ^ ^ ^ ^ ^ ^ ! M 4 # # 4 M I ^ ^ ^ ^ ^ ^ r v b ; 4 +.2.2.6.- L ^ ^ ^ ^ ",
"^ ^ L ^ - 3.2.2.$.q z C c o ^ ^ ^ ^ ^ ^ ^ ^ ^ m * * u ! ! ^ ^ ^ ^ ^ ^ 5 z Z c 4 +.2.2.2.- L ^ ! R T ",
"R ! k ^ 5 2.2.2.$.q . $ O s ! ^ ^ ^ ^ ^ ^ ^ L 9 * * m ^ ^ U ^ ^ ^ ^ ^ s = $ O 2 +.2.2.2.- L ! G d d ",
"h ! ! =.@ &.2.<.{ q       X @ @ o o @ X @ @ o X v % X o @ @ @ @ @ @ @ X       2 [ >.2.:.@ L F d d d ",
"d R d  .  @ - @ @ X 1 i p p i p p p p p p r 1   & $ 8 H L L J L L L L K L H q   @ @ 5 @   L h a d d ",
"d R F | 1 &.2.<.[ q q d d d a d d d d a a d 9   > % m ^ ^ U ^ ^ ^ U ^ ^ ^ ^ L 2 ] >.2.:.@ L h d d d ",
"d R ! | 5 4.2.2.$.q 1 9 q q q q 9 q q q q 9 <   & $ m I ^ ^ ^ ! ^ ^ ^ ^ ! ^ K 2 +.2.2.4.5 L g a d d ",
"d R ^ ! : 8.2.2.$.9     X       .   X         X * * 4 u f f S f m m m m m f 8 2 { 3.2.8.: L k a d d ",
"d R ^ ^ - 6.2.2.$.q 4 t y y y y y y y y y y t < & #     X                     2 +.3.2.5.3 L h d d 9 ",
"d ! ^ ^ 1 >.2.<.{ q m ! ^ ^ ^ ^ ^ ^ ^ ^ ^ ^ R y & #   4 8 8 8 8 8 8 0 8 8 8   4 { >.2.>.@ L h d a o ",
"d R ^ ^ 1 [ +.{ W 8 s ! ! ^ ^ ^ ^ ^ ^ ^ ^ ^ I r & #   4 d d a d d d d d d 9   2 ` [ +.{ o L h h a   ",
"a R ^ ! X 2 2 2 2 X o 1 5 5 5 5 5 5 5 5 5 5 1 o . .   X o @ 1 o 1 o o o o X   X < 2 2 2   L h a a   "
};
