/* XPM */
static char *end_open1730151423[] = {
/* columns rows colors chars-per-pixel */
"50 50 114 2 ",
"   c #6E5967",
".  c #6D5D6B",
"X  c #755B69",
"o  c #7C5E6C",
"O  c #71626F",
"+  c #7C626D",
"@  c #6F6573",
"#  c #6D6977",
"$  c #656878",
"%  c #6D6E7D",
"&  c #7F6770",
"*  c #7F6B74",
"=  c #825F6E",
"-  c #84616E",
";  c #8B656F",
":  c #836670",
">  c #8C6371",
",  c #826871",
"<  c #8E6E74",
"1  c #946674",
"2  c #996776",
"3  c #936A73",
"4  c #9B6A75",
"5  c #9F6A78",
"6  c #8F7176",
"7  c #907377",
"8  c #9B7177",
"9  c #917579",
"0  c #9B7579",
"q  c #917A7E",
"w  c #9E7A7C",
"e  c #A46D78",
"r  c #AA6F7A",
"t  c #BA6E79",
"y  c #A3737B",
"u  c #AD707B",
"i  c #A37D7F",
"p  c #AE7A7F",
"a  c #B0757D",
"s  c #B2787F",
"d  c #B87B7E",
"f  c #C8727D",
"g  c #627C8C",
"h  c #717684",
"j  c #717886",
"k  c #7A7C88",
"l  c #917D81",
"z  c #A37E80",
"x  c #A97D81",
"c  c #B37B81",
"v  c #B97E80",
"b  c #C57D80",
"n  c #D97E84",
"m  c #7C818C",
"M  c #6A8291",
"N  c #708694",
"B  c #728997",
"V  c #808E98",
"C  c #A38281",
"Z  c #AE8585",
"A  c #B48485",
"S  c #B88285",
"D  c #B58988",
"F  c #BB8C8B",
"G  c #B3908C",
"H  c #B29590",
"J  c #B29994",
"K  c #8397A0",
"L  c #C78383",
"P  c #C08F8D",
"I  c #D48384",
"U  c #DB8185",
"Y  c #D78B89",
"T  c #C1928E",
"R  c #D8908C",
"E  c #C39490",
"W  c #C59A94",
"Q  c #C99F98",
"!  c #D19E93",
"~  c #E08687",
"^  c #E38C8B",
"/  c #E5908D",
"(  c #E79690",
")  c #E99A93",
"_  c #CAA39C",
"`  c #CDA99F",
"'  c #D8AD9C",
"]  c #EBA197",
"[  c #E0A698",
"{  c #ECA599",
"}  c #E2AA9B",
"|  c #EEAA9B",
" . c #F0AF9E",
".. c #E5B19F",
"X. c #F1B19F",
"o. c #CFADA2",
"O. c #D9AEA1",
"+. c #D1B1A5",
"@. c #E2B7A7",
"#. c #E9BCA5",
"$. c #E3BFAE",
"%. c #F2B4A1",
"&. c #F5BCA6",
"*. c #F7BFA8",
"=. c #F6C0A7",
"-. c #F8C4AA",
";. c #FBCAAE",
":. c #EBC4B1",
">. c #FBCCB0",
",. c #FBD1B5",
"<. c #FAD5BA",
"1. c #FAD9BD",
"2. c #FADDC1",
"3. c #FAE2C6",
/* pixels */
"T E E E E F & E E E E E E < G W E E E E F + d S S S S d ; i T E T T T F , E T E E E E 6 G W E F S S ",
"E E E E E F , E E E D Z 7 < X < 7 7 q q q q 9 , + 6 9 9 q 9 l l q 7 - , 7 Z A T E E T 6 G W E E E T ",
"E E E E E F , E D i x z ;.[ 6 *.;.;.1.,.2.2.-.T Z =.;.;.2.>.2.2.<.&.i ! ;.C 0 C Z E T 6 Z E E E E E ",
"E E E E E D , D i H $.>.;.#.7 >.;.;.;.;.;.;.;.W G ;.;.;.;.;.;.;.;.;.C ' ;.;.:.J z Z E 6 Z E E E E E ",
"F E E E E u X z O.<.<.>.;.[ 3 &.;.;.;.;.;.;.=.T Z =.;.-.;.;.;.;.;.&.i ! ;.;.1.1.@.i Z 6 y F T E E T ",
", , , + , X , O.<.>.>.%.) Y , / ) ) ) ) ) ) ) d a ( ) ( ) ) ) ) ) ( 3 L ) X.;.;.<.@.i + + - , , : , ",
"A F + p D 1 9 ;.>.;.X./ ^ f   o o o o o o o o X X + o + o o + + o o X t ~ ^ X.;.>.;.C + 1 D X y F D ",
"T E + T F 8 [ ;.;.%.( ~ o o o 2 o                               X 4 = X + ~ / X.;.;.| , Z T + D E E ",
"E E E E Z w ;.;.;.] I +     1 e ;                               = r 1 o     I ( ;.;.;.z z E o _ E E ",
"E E T E & X.;.;.X./ ;   o = o X                                             + / | ;.;.%.6 E E W E E ",
"P E c E & ;.;.;.| b - X 5 r r ;                                     o - = o   f ] >.;.;.7 E T o.E E ",
"s T F +.+ =.;.-.] 4   4 r r r ;                                     ; r r e   ; ) =.>.*.6 E c _ E E ",
"r P s o.X 0 C w 8 +   - - - - o                                     o = ; -   X 4 i C w + E E E E E ",
"u P v Q X P _ E v ;   . - 3 1 ; X                                 o ; 1 -     - A T _ F o E F P E E ",
"r P E _ - -.;.-.{ 4 m % X u u r ;                                 ; r u + $ V ; ] -.-.=.9 E c W E E ",
"a P E E * 3.;.;.| 3 V B . u u u ;                                 ; u u O N K ; ] ;.;.3.l E u W E E ",
"u T E E , 3.;.;.| 4   X 2 r r r ;                                 ; r r 2 X   > ) ;.;.2.l E S E E E ",
"u F E E , ,.;.;.| 4 = 2 4 4 e 1 o                                 o 2 5 4 4 = ; ] >.;.,.9 E E E E E ",
"u T E E & 1.;.;.| 4                                               = = ; = ; o ; ] ;.;.1.q E E E E E ",
"u T E E , ;.;.;.| 4 o = ; = = X                                 = r r u u u 1 ; ] ;.;.;.9 E E E E E ",
"F T E E , ;.;.;.| 4 1 u u u r >                                 = u u u a r e ; ] ;.;.;.7 E v c c : ",
"T T E E , X.;.=.) 4 > r u u r ;                                 o e u u r r 2 > ) =.>.%.9 E a u u   ",
"E E E E O < 7 7 ; X X + = o o                                   X o o = = o X X 3 7 7 7 X W s u r   ",
"E E E E - } #...R 1 = e e e -                                         = e e - ; Y [ #.[ , W s r r 1 ",
"E E E E , >.;.;.| 4 4 u u u 4                                         5 u u e ; ) ;.;.,.9 Q a u r r ",
"Q E E E , 3.;.;.| 4 4 u u u 4   . .                             .     4 u u 5 ; { ;.;.2.l Q a u u u ",
"Q T E E * 1.;.;.| 4 - 4 4 4 =   % N @ .                       O N %   = 4 5 = ; { ;.;.2.l Q a u u u ",
"W T E E , <.;.;.| 4             $ M @                         @ M $     o : o ; ) ;.;.<.9 Q a r u u ",
"W E E E * <.;.;.| 4   o > ;     $ M O                         @ M $     4 u 4 - { >.>.<.l E c u u u ",
"W E E E , ;.;.;.| 4   4 u e     $ M @                         O M $     e r e > ) >.;.>.9 W F c u u ",
"W E E E , ;.;.;.| 4   1 u e     $ M @                         @ M $     2 r 1 > ) ;.;.;.9 W E P S v ",
"E E E E + %.;.=.) 4   X X X     $ M @                         @ M $     X X X 1 ( &.;.%.< E E E E E ",
"E E E E   + , + + X ; e e e =   $ M @                         O M $             + + - + + W T E E E ",
"E E E E + %.;.*.) 4 4 u r r 4   $ M @ .                       @ M $   > r 2   ; ( &.;.%.< F E E E E ",
"P E E E & >.;.;.| 4 4 r r r 2   $ M @                         @ M $   4 r e   ; ] ;.;.,.q F E E E E ",
", , , , * 3.;.;.| 4 o 1 2 1 =   $ M @                         @ M $   o 1 -   ; ] ;.;.3.q , , , : : ",
"A F + x & <.;.;.| 4 o > > > o   $ M @                         @ M $ X > > > = ; ] ;.;.1.q A F F F D ",
"F E + F , 1.;.;.| 2 o : 4 r 2   . # .                         . # . > r 4 ; X ; ] ;.;.1.q T E T E E ",
"E E + E * <.;.;.| 4 k j o r 4                                       2 u = h m ; ] ;.;.<.q E E E T E ",
"E E T E , ;.;.;.| 4 V g X r 4                                       1 r X g K > ] ;.;.;.7 E E T P P ",
"P E d E , ;.;.;.| 4 X . > r >                                       : r > . . ; ] ;.;.;.7 T T S u u ",
"s T F +.+ [ #...Y 3   X X X X                                       X X X X X - Y } #.[ < T v a u u ",
"u T u `   6 7 7 , o 1 r r r r ;                                   = e u u u 2 X > 7 7 < X E u u u u ",
"u P A _ - %.;.=.] 4 1 r u r r >                                   1 u u u u e ; ) =.;.*.7 E s u u u ",
"u F T ` , <.;.;. .4 o 1 2 1 1 o                                   = r u r u 4 ; ] ;.;.<.7 E c r u u ",
"u P E T , 3.;.;.{ 4                                               X ; 1 > > = > ] ;.;.3.l E s r u r ",
"r T E E , <.;.;. .4 = 1 1 1 o                                           X     ; ] ;.;.,.q E a r r 4 ",
"a T E E , X.;.=.) 1 2 u r r 2                                       o 2 4 4   ; ) *.;.%.3 E s r a X ",
"r P E E = ^ / ^ U 1 > r r r >                                       1 r r 2   = n ^ / ^ > E s r u   ",
"u P E T                                                                                   E s u u   "
};
