/* XPM */
static char *wall_bottom1730374166[] = {
/* columns rows colors chars-per-pixel */
"50 50 176 2 ",
"   c #3F3851",
".  c #463951",
"X  c #443852",
"o  c #483852",
"O  c #4D3950",
"+  c #4D3A50",
"@  c #4C3A52",
"#  c #493C53",
"$  c #4F3C51",
"%  c #563754",
"&  c #5B3755",
"*  c #523E53",
"=  c #513854",
"-  c #563855",
";  c #5A3B50",
":  c #5B3B50",
">  c #5B3B51",
",  c #583C52",
"<  c #5A3855",
"1  c #6F3D4F",
"2  c #763E4F",
"3  c #643756",
"4  c #683757",
"5  c #603853",
"6  c #623952",
"7  c #623C50",
"8  c #663C51",
"9  c #683C50",
"0  c #693C50",
"q  c #683D50",
"w  c #6A3E50",
"e  c #6D3758",
"r  c #773659",
"t  c #793758",
"y  c #534154",
"u  c #5F4051",
"i  c #624756",
"p  c #6C4051",
"a  c #6F4351",
"s  c #6C4352",
"d  c #714754",
"f  c #704955",
"g  c #724955",
"h  c #724A55",
"j  c #734D57",
"k  c #744E58",
"l  c #7C525B",
"z  c #843F4E",
"x  c #843C54",
"c  c #893E52",
"v  c #89365C",
"b  c #8E385A",
"n  c #973B57",
"m  c #9B3D55",
"M  c #923958",
"N  c #A03F53",
"B  c #92414F",
"V  c #864250",
"C  c #824354",
"Z  c #884752",
"A  c #8A4853",
"S  c #8A4953",
"D  c #8F4B52",
"F  c #8B4C55",
"G  c #8E4E56",
"H  c #904050",
"J  c #914755",
"K  c #9B4B52",
"L  c #9C4C51",
"P  c #9F4F52",
"I  c #9E4956",
"U  c #86575D",
"Y  c #905156",
"T  c #9D5056",
"R  c #9E5257",
"E  c #925458",
"W  c #955A5B",
"Q  c #905B5F",
"!  c #975D5C",
"~  c #985D5C",
"^  c #AE444E",
"/  c #B44B4F",
"(  c #A44051",
")  c #A94250",
"_  c #AB4B56",
"`  c #B24A51",
"'  c #B64D50",
"]  c #B64F53",
"[  c #AB5051",
"{  c #AF5353",
"}  c #A35B5B",
"|  c #BA5251",
" . c #BF5753",
".. c #B95555",
"X. c #B95656",
"o. c #BE5855",
"O. c #B65659",
"+. c #B95959",
"@. c #BD5B58",
"#. c #BC5B59",
"$. c #A9645F",
"%. c #B5635C",
"&. c #A46462",
"*. c #A46463",
"=. c #B96D66",
"-. c #BD7A6D",
";. c #C25E57",
":. c #D25654",
">. c #C1615B",
",. c #C46259",
"<. c #C6655B",
"1. c #C3645C",
"2. c #C5675D",
"3. c #C76A5F",
"4. c #C96C5F",
"5. c #D6605A",
"6. c #C96D60",
"7. c #DC6F63",
"8. c #CB7061",
"9. c #CC7162",
"0. c #CD7363",
"q. c #DF7768",
"w. c #E27F6D",
"e. c #BF8170",
"r. c #C18773",
"t. c #C38C76",
"y. c #C6947B",
"u. c #E3816E",
"i. c #E3836F",
"p. c #E48771",
"a. c #E68C74",
"s. c #E68E75",
"d. c #E99277",
"f. c #E99578",
"g. c #E99779",
"h. c #EA997A",
"j. c #EB9B7C",
"k. c #EB9E7D",
"l. c #ECA17F",
"z. c #EDA27F",
"x. c #C99D81",
"c. c #CCA685",
"v. c #CCA887",
"b. c #CEB797",
"n. c #CFBB9B",
"m. c #CFBD9D",
"M. c #EDA380",
"N. c #EEA482",
"B. c #EEA782",
"V. c #F0AC85",
"C. c #F1AE86",
"Z. c #F1AE87",
"A. c #F2B188",
"S. c #F3B389",
"D. c #F4B78C",
"F. c #F5BB8E",
"G. c #F6BB8E",
"H. c #CFBFA1",
"J. c #F7C091",
"K. c #F8C292",
"L. c #F9C594",
"P. c #FAC895",
"I. c #FBCA97",
"U. c #FBCE9B",
"Y. c #CFC0A3",
"T. c #CFC3A9",
"R. c #CFC9B5",
"E. c #FEDEAB",
"W. c #FEE0AD",
"Q. c #FEE2AF",
"!. c #FEE6B3",
"~. c #FEE8B7",
"^. c #FEEABB",
"/. c #FEEDC1",
"(. c #FEEFC5",
"). c #FEF4CE",
/* pixels */
"                X                                                                                   ",
"# =.-.r.x.v.m.T.R.H.n.c.c.c.b.n.R.R.R.H.m.c.c.c.y.e.=.Q   U =.e.t.c.c.c.m.n.m.T.R.H.b.c.c.c.t.e.=.l ",
"y w.d.N.J.U.!./.).^.!.I.I.I.E.^.).).).^.!.I.I.I.S.N.i.&.  &.i.N.S.I.I.I.!.!.!.(.).^.E.I.I.I.V.j.i.Q ",
"y w.N.I.I.I.I.I.I.I.P.I.I.I.I.I.I.I.I.I.I.I.I.I.U.I.w.&.  &.w.U.I.I.I.I.I.I.I.I.I.I.I.I.I.I.I.D.q.Q ",
"y w.N.I.I.I.I.I.I.I.I.I.I.I.I.I.I.I.I.I.I.I.I.I.I.I.w.&.  &.w.I.I.I.I.I.I.I.I.I.I.I.I.I.I.I.I.D.i.Q ",
"y w.N.I.I.I.I.I.I.I.I.I.I.I.I.I.I.I.I.I.I.I.I.I.I.I.w.&.  &.w.I.I.I.I.I.I.I.I.I.I.I.I.I.I.I.I.D.i.Q ",
"y w.f.V.K.I.I.I.I.I.I.I.I.I.I.I.I.I.I.I.I.I.I.I.S.V.w.&.  &.w.N.S.I.I.I.I.I.I.I.I.I.I.I.I.I.S.l.w.Q ",
"y w.s.l.G.L.I.I.I.I.I.I.I.I.I.I.I.I.I.I.I.I.I.L.V.l.i.&.  &.i.l.N.I.K.I.I.I.I.I.I.I.I.I.L.K.N.h.u.Q ",
"y w.w.w.h.V.I.I.I.I.I.I.I.I.I.I.I.I.I.I.I.I.F.M.a.w.i.&.  *.w.i.i.l.F.I.I.I.U.U.I.I.I.I.A.l.i.u.w.Q ",
"y w.w.w.s.d.V.V.V.Z.Z.Z.Z.V.Z.Z.Z.V.V.B.V.V.N.d.p.w.i.&.  &.w.w.p.j.N.V.V.V.Z.V.A.V.A.A.l.g.i.q.w.Q ",
"y w.w.w.w.w.w.w.w.w.u.i.w.w.w.w.p.w.p.w.w.p.w.p.w.w.w.&.X *.w.w.p.q.i.q.p.w.i.q.u.q.u.q.u.u.u.u.w.Q ",
"* 5.7.w.w.w.w.w.w.w.w.w.w.w.w.w.w.w.w.w.w.q.w.q.w.w.:.R   T :.w.q.u.u.u.i.q.w.i.u.i.u.u.u.q.u.q.:.A ",
"* :.5.i.i.i.w.w.w.w.w.w.w.w.w.w.w.w.w.q.w.w.p.w.q.w.:.K   P :.p.u.q.i.u.u.i.q.u.u.q.i.u.u.u.q.q.:.F ",
"                  X             X                                                                 X ",
"                                                                                              X     ",
"                                                                                              X     ",
"r B B B B B B H B c c r 3   3 r A n B B B B c t - X                               e t m n H H B B x ",
"b ^ ^ ^ ^ ^ ^ ^ ^ ^ ^ v e   t b ) ) ^ ^ ^ ^ m v <                                 t M ^ ^ ) ^ ^ ^ m ",
"        X   X   X X X       X       X X                   X         X X                     X X     ",
"q q 6 < X X < 6 9 q 8 8 1 8 9 9 < =   - < q q q q q 9 9 9 : <   X < 6 1 1 q q q q q 6 ; X   % : q q ",
"^ ^ m b = X v m ^ ^ ^ ^ ^ ^ ^ ^ v e   r v ^ ^ ^ ^ ^ ^ ^ ^ n v X = v ( ^ ^ ^ ^ ^ ^ ^ ( v & X t M ^ ^ ",
"%.,.O._ , + _ ..%.;.,.,.>.>.>.%._ C   J _ >.>.>.>.>.>.>.;.{ _   , _ +.%.>.>.>.@.>.>.+._ 7   I ] %.,.",
"0.0.2.;.: *  .2.0.0.0.0.0.0.0.4. .D   R  .0.0.0.0.0.0.0.0.>. .  7  .4.0.0.0.0.0.0.0.4. .s   { ;.0.0.",
"0.4.;.N : = )  .0.0.0.0.0.0.0.4.^ V   B ^ 8.0.0.0.0.0.0.0...^   7 ^ %.0.0.0.0.0.0.0.2.^ 2   K ` 0.0.",
"~ ~ G V = . V D ! ! ! ! ! ! ! W z 7   1 z ! ! ! ! ! ! ! ! S V   + z Y ! ! ! ! ! ! ! E V : X s Z ~ ~ ",
"X .                           . X             X                               X         X X X     X ",
"z W ! ! ! ! ! ! W ! W V 7   2 V ! ! ! ! ! ! Y z <   V A ! ! ! ! ! ! ~ ~ ! Y V :   a A ! ! ! ! ! ! G ",
"/ 0.0.0.0.0.0.0.0.0.4.^ V   c / 0.0.0.0.0.0.>.^ 1   ^ ..0.0.0.8.0.0.0.0.0.2.^ w X ^ / 0.0.0.0.0.0.o.",
"0.0.0.0.0.0.0.0.0.0.0.0.!   $.0.0.0.0.0.0.0.0.0.j   0.0.0.0.0.0.0.0.0.0.0.0.0.k   %.0.0.0.0.0.0.0.0.",
"2.0.0.0.0.0.0.0.0.0.0.4.G X } 6.0.0.0.0.0.0.4.4.f   2.4.0.0.0.0.0.0.0.0.0.0.,.s   %.4.0.0.0.0.0.0.4.",
"/ 0.0.0.0.0.0.0.0.0.4.^ V   B ' 0.0.0.0.0.0.%.^ 7 X ^ X.0.0.0.0.0.0.0.0.0.,.I 1 X L ] 0.0.0.0.0.0.@.",
"p j k k k k j j j j f 1 <   > 7 k k j j k k d 1 @   p s j j j j k k k k k k 1 +   7 p j k k k k j s ",
"        X     X                                                                                 X   ",
"0.0.2. .u + ^ X.0.0.0.0.0.0.0.4.^ V   T  .8.0.0.0.0.0.0.0.,. .  ; ^ %.0.0.0.0.0.0.0.2.^ 7   ] %.0.0.",
"0.4.>.| , + ] >.0.0.0.0.0.0.0.4.] S   L | 4.4.0.0.0.0.0.4.#.|   : ' 4.0.0.0.0.0.0.0.4.] 1   [  .4.4.",
"6. ./ ^ : y 0.0.0.0.0.0.0.0.0.0.0.!   B ^  .,.0.0.0.0.4. ./ ^   i 0.0.0.0.0.0.0.0.0.0.0.j X L /  .2.",
"k p p q + @ X.2.0.0.0.0.0.0.0.0...A   : 1 s h j j j k h a 1 1   u ..3.8.0.0.0.0.0.0.3...p   7 q a h ",
"X X       + ^ @.0.0.0.0.0.0.0.4.^ V                             : ^ >.0.0.0.0.8.0.0.2.^ q           ",
"            + + y @ y # y # y y + X                             X # * + y y + y y # y + .           ",
"                                                                            X                       ",
"                                                                                                    ",
"                                                                                                    ",
"                                                                                                    ",
"                                                                                                    ",
"                                                                                                    ",
"                                                                                                    ",
"                                                                                                    ",
"                                                                                                    ",
"                                                                                                    ",
"                                                                                                    "
};
