/* XPM */
static char *wall_left1730374166[] = {
/* columns rows colors chars-per-pixel */
"50 50 176 2 ",
"   c #3F3851",
".  c #463950",
"X  c #443852",
"o  c #483852",
"O  c #4D3951",
"+  c #4C3A50",
"@  c #493D52",
"#  c #4F3C51",
"$  c #4F3D52",
"%  c #563754",
"&  c #5A3755",
"*  c #5B3755",
"=  c #543A51",
"-  c #513F53",
";  c #523E53",
":  c #513854",
">  c #5A3B50",
",  c #5B3B50",
"<  c #5F3953",
"1  c #583C53",
"2  c #5E3E51",
"3  c #763E4F",
"4  c #7D3F4F",
"5  c #643656",
"6  c #623A52",
"7  c #643A52",
"8  c #613C50",
"9  c #663C50",
"0  c #683C50",
"q  c #693C50",
"w  c #683D50",
"e  c #6F3D50",
"r  c #6D3658",
"t  c #6D3758",
"y  c #7D3956",
"u  c #763659",
"i  c #793758",
"p  c #534055",
"a  c #5F4051",
"s  c #624756",
"d  c #684053",
"f  c #6C4051",
"g  c #6F4351",
"h  c #6C4353",
"j  c #6F4352",
"k  c #6E4554",
"l  c #704754",
"z  c #724955",
"x  c #704856",
"c  c #734C57",
"v  c #744E58",
"b  c #7C535B",
"n  c #843F4E",
"m  c #843C54",
"M  c #893D52",
"N  c #8D375A",
"B  c #89365C",
"V  c #973B56",
"C  c #9B3D55",
"Z  c #923958",
"A  c #A03E53",
"S  c #84404F",
"D  c #92414E",
"F  c #92414F",
"G  c #864351",
"H  c #884752",
"J  c #8A4953",
"K  c #8F4B52",
"L  c #8C4B54",
"P  c #8E4E56",
"I  c #9B4B53",
"U  c #9B4C51",
"Y  c #9F4F52",
"T  c #9E4956",
"R  c #86575D",
"E  c #905156",
"W  c #9D5056",
"Q  c #9D5257",
"!  c #925458",
"~  c #955A5B",
"^  c #905B5F",
"/  c #975D5C",
"(  c #985D5C",
")  c #A0424F",
"_  c #A9424F",
"`  c #AE444E",
"'  c #B2484F",
"]  c #A44051",
"[  c #AB4B56",
"{  c #B24950",
"}  c #B64D50",
"|  c #AB5051",
" . c #AF5352",
".. c #A45B5B",
"X. c #B65053",
"o. c #BA5251",
"O. c #BF5753",
"+. c #B95556",
"@. c #B95656",
"#. c #BE5855",
"$. c #B25358",
"%. c #B65659",
"&. c #B95859",
"*. c #BD5B58",
"=. c #B6635D",
"-. c #A46463",
";. c #B96D66",
":. c #BD7A6C",
">. c #C15B56",
",. c #C25F58",
"<. c #D25654",
"1. c #C1615A",
"2. c #C1615B",
"3. c #C46159",
"4. c #C6655B",
"5. c #C3645C",
"6. c #C5675D",
"7. c #C5675E",
"8. c #C76A5F",
"9. c #C8695D",
"0. c #C96C5F",
"q. c #D6605A",
"w. c #C96D60",
"e. c #CB7061",
"r. c #CC7162",
"t. c #CD7363",
"y. c #DE7466",
"u. c #DF7768",
"i. c #E27F6D",
"p. c #BF8070",
"a. c #C18773",
"s. c #C38C76",
"d. c #C6937B",
"f. c #E3816E",
"g. c #E3836F",
"h. c #E48771",
"j. c #E68E75",
"k. c #E89277",
"l. c #E89478",
"z. c #E99779",
"x. c #EA997B",
"c. c #EB9E7D",
"v. c #EC9F7E",
"b. c #EDA27F",
"n. c #C99E81",
"m. c #CCA585",
"M. c #CCA787",
"N. c #CEB797",
"B. c #CFBB9B",
"V. c #CFBD9D",
"C. c #CFBE9F",
"Z. c #EDA380",
"A. c #EEA782",
"S. c #F0AC85",
"D. c #F1AD87",
"F. c #F1AF87",
"G. c #F2B188",
"H. c #F2B48A",
"J. c #F4B78C",
"K. c #F5B88C",
"L. c #F5BB8E",
"P. c #F8C292",
"I. c #F9C594",
"U. c #FBCA97",
"Y. c #FCCE9B",
"T. c #CFC0A3",
"R. c #CFC3A9",
"E. c #CFC4AB",
"W. c #CFC9B4",
"Q. c #FEDEAB",
"!. c #FEE0AD",
"~. c #FEE6B3",
"^. c #FEE8B6",
"/. c #FEEABB",
"(. c #FEEFC5",
"). c #FEF4CE",
/* pixels */
"                          c 0.t.t.  0 ' 0.t.' S   / t.t.2.` w   N u       + p p p - - p - ; ; = @ X ",
"                          j >.0.t.X c t.t.t.t./   ( t.t.2.` w   ` D     X <.<.i.g.g.i.i.i.g.h.i.;.X ",
"                          j ' 2.4.  v t.t.t.t.(   E *.4.%.C 6   ` D     X q.y.i.i.i.j.l.Z.Z.Z.l.:.  ",
"                          0 ` o.#.  v t.t.t.t.(   S ` O.[ B &   ` D       i.g.g.i.i.c.F.U.U.Y.Z.p.  ",
"                          + , 2 d   v t.t.t.t./   = > a 1 : X X ` D       i.i.i.j.x.L.P.U.U.U.P.m.  ",
"                        + $ - + X   v t.t.t.t./   . + $ + X X   ` D       i.i.i.x.Z.I.U.U.U.U.Y.M.  ",
"                    X + ` +.t.X.`   c t.t.t.t./   S ` O.[ B &   ` D       i.i.i.D.U.U.U.U.U.U.^.C.  ",
"                      + *.5.t.2.*.X v t.t.t.t./   P *.4.%.C 6   ` F       i.i.i.D.U.U.U.U.U.U./.R.  ",
"                      - t.t.t.t.t.X v t.t.t.t.(   ( t.t.2.` w   ` D       i.i.i.D.U.U.U.U.U.U.).W.  ",
"                      - t.t.t.t.t.X v t.t.t.t.(   ( t.t.2.` w   ` D       i.i.i.D.U.U.U.U.U.U./.T.  ",
"                      - t.t.t.t.t.  z 0.t.t.0.~   ( t.t.2.` w   _ D       i.i.i.D.U.U.U.U.U.U.Q.B.  ",
"                      - t.t.t.t.t.  0 ` 8.t.` S   ( t.t.2.` w   B u       i.i.i.D.U.U.U.U.U.U.U.M.  ",
"                      - t.t.t.t.t.  > S ! / S 9   / t.t.2.` w   r 5       i.i.i.D.U.U.U.U.U.U.U.M.  ",
"                      - t.t.t.t.t.        X       / t.t.2.` w     X       i.i.i.D.U.U.U.U.U.U.U.m.  ",
"                      - t.t.t.t.t.  > D ..-.D 3   / t.t.2.` w   u 5       i.i.i.D.U.U.U.U.U.U.Q.N.  ",
"                      - w.e.t.w.0.  d ' 4.t.{ G   ~ 0.t.*._ w   N u       i.g.g.D.U.U.U.U.U.U.^.C.  ",
"                      + ` +.t.X.`   c t.t.t.t.( X S ` O.[ B , X ` F       i.i.i.D.U.U.U.U.U.U.).W.  ",
"                      . S L / J S   c t.t.t.t.( X w S K z u O   ` D       i.i.i.D.U.U.U.U.U.U.).W.  ",
"                                    v t.t.t.t.(             X   ` D       i.i.i.D.U.U.U.U.U.U.).W.  ",
"                          > D U W   v t.t.t.t.(   e D W K u %   ` D       i.i.i.D.U.U.U.U.U.U./.C.  ",
"                          w ` o.*.X v t.t.t.t.(   m ` O._ B * X ` D X     i.i.i.D.U.U.U.U.U.U.~.C.  ",
"                          g O.8.e.  c t.t.t.t.(   / t.t.2.` w   ` D       i.i.i.D.U.U.U.U.U.U.U.m.  ",
"                        X z =.e.t.  l =.e.t.3.E   / t.t.2.` 9   C M       i.i.i.Z.J.U.U.U.U.U.U.m.  ",
"                        X c t.t.t.X w ` 4.t.` S   / t.t.3.` 9   B u       i.i.i.k.Z.I.U.U.U.U.U.m.  ",
"                          c t.t.t.  $ 0 x z 9 >   ( t.t.2.` w   % %       i.i.i.h.h.S.J.U.U.U.G.d.  ",
"                        X c t.t.t.    X     X     ( t.t.2.` w             i.i.g.i.g.c.S.U.U.U.A.p.  ",
"                          c t.t.t.  9 ` w.w.` G   ( t.t.2.` w             <.<.h.g.i.i.g.i.i.i.g.;.  ",
"                          c 0.e.t.  9 +.w.t.+.K   ( t.t.2.` w             I W -.-.-.-.-.-.-.-.-.^   ",
"                          g O.0.t.  c t.t.t.t.(   / t.t.2.` w                 X X                   ",
"                          f ' *.2.  v t.t.t.t.(   K +.3.$.V <             I Q -.-.-.-.-.-.-.-.-.R   ",
"                          w ` o.O.  v t.t.t.t./   S ` O.[ B *             <.<.h.g.y.y.g.y.g.g.g.;.  ",
"                          X       X v t.t.t.t./                           h.u.g.g.g.c.F.U.U.U.A.s.  ",
"                        > 2 s 1 >   c t.t.t.t./   + 1 8 8 : X X           i.i.i.g.g.A.H.U.U.U.F.s.  ",
"                    X + _ @.t.X.`   c t.t.t.t./   G ` O.[ B & X           i.i.i.l.b.P.U.U.U.U.U.m.  ",
"                      # =.6.t.4.5.  v t.t.t.t./   E 2.8.&.C 9             i.i.i.b.L.U.U.U.U.U.U.m.  ",
"                      p t.t.t.t.t.X v t.t.t.t./   / t.t.5.` 9             i.i.i.F.U.U.U.U.U.U.U.m.  ",
"                      p t.t.t.t.t.  z t.t.t.t./   / t.t.2.` 0             g.i.i.D.U.U.U.U.U.U.~.C.  ",
"                      # t.t.t.t.t.  v 5.0.t.4.E   ( t.t.2.` 0             g.i.i.D.U.U.U.U.U.U.~.C.  ",
"                    X p t.t.t.t.t.  9 ` 0.t.` n   ( t.t.2.` 0             g.g.i.D.U.U.U.U.U.U.~.C.  ",
"                    X p t.t.t.t.t.X + w z c 9 >   ( t.t.2.` 0             u.i.i.D.U.U.U.U.U.U.(.E.  ",
"                      p e.t.t.t.t.    .     . X   / t.t.2.` 9             i.i.i.D.U.U.U.U.U.U.).W.  ",
"                      # t.t.t.t.t.  2 U =.=._ g   / t.t.5.` 9   y r       i.i.i.D.U.U.U.U.U.U.^.C.  ",
"                      p 9.8.t.9.6.  w X.9.t.X.J   / 4.0.&.] 6 X Z y       i.i.i.D.U.U.U.U.U.U.!.N.  ",
"                      + ` @.t.X.` X v t.t.t.t./   m ` >.[ B *   ` V       i.i.i.D.U.U.U.U.U.U.U.m.  ",
"                      . 9 g c h w X c t.t.t.t.(   > 9 e 7 * X   ` D       i.i.i.b.G.I.U.U.U.U.U.m.  ",
"                                    c t.t.t.t.(       X   X X   ` D       i.i.i.k.b.I.U.U.U.U.U.m.  ",
"                          w U | $.  c t.t.t.t.( + g U ' T y %   ` D       g.i.i.g.g.b.G.U.U.U.F.s.  ",
"                          w ` *.>.X c t.t.t.t.~ . J } =.$.Z 2   ` D       y.y.i.i.i.z.b.L.J.H.x.:.  ",
"                          g O.0.t.  v t.t.t.t./   / t.t.=.` 0   ` D       <.q.g.g.y.g.g.i.i.g.g.;.  ",
"                        . l 4.0.t.  g O.w.t.*.P   / t.t.3.` 0 X C m       G L ^ ^ ^ ^ ^ ^ ^ ^ ^ b   "
};
