/* XPM */
static char *player_banner1730306392[] = {
/* columns rows colors chars-per-pixel */
"100 50 221 2 ",
"   c #0D140B",
".  c #00121E",
"X  c #1A2914",
"o  c #1E3118",
"O  c #253C1D",
"+  c #041520",
"@  c #091624",
"#  c #051C22",
"$  c #091C22",
"%  c #111F27",
"&  c #151C2D",
"*  c #181D30",
"=  c #072124",
"-  c #0A2525",
";  c #0D2A27",
":  c #0D2C28",
">  c #112426",
",  c #132827",
"<  c #172A2A",
"1  c #12332A",
"2  c #11342B",
"3  c #1B362D",
"4  c #17392D",
"5  c #172031",
"6  c #182030",
"7  c #23282D",
"8  c #23372B",
"9  c #20342F",
"0  c #272839",
"q  c #382D38",
"w  c #233537",
"e  c #243C30",
"r  c #283D33",
"t  c #36353A",
"y  c #4B373E",
"u  c #29421D",
"i  c #2D4B26",
"p  c #375829",
"a  c #224232",
"s  c #2C4435",
"d  c #2E4935",
"f  c #364B39",
"g  c #365537",
"h  c #3A543B",
"j  c #3B5A3C",
"k  c #3D632C",
"l  c #3B6437",
"z  c #54423F",
"x  c #435A3C",
"c  c #446D2F",
"v  c #446738",
"b  c #47753A",
"n  c #2E2E44",
"m  c #302E44",
"M  c #353548",
"N  c #3F3851",
"B  c #453C44",
"V  c #4E3C4E",
"C  c #643F51",
"Z  c #3B5441",
"A  c #3D6D40",
"S  c #4B4747",
"D  c #54484C",
"F  c #405740",
"G  c #425B41",
"H  c #4D5947",
"J  c #5B514E",
"K  c #444754",
"L  c #575454",
"P  c #654546",
"I  c #734947",
"U  c #654656",
"Y  c #684958",
"T  c #784754",
"R  c #6B575B",
"E  c #7C535B",
"W  c #74585C",
"Q  c #466242",
"!  c #486642",
"~  c #4A6545",
"^  c #4B6A43",
"/  c #4C7645",
"(  c #527A46",
")  c #5C6E54",
"_  c #756C5D",
"`  c #565863",
"'  c #6E5C62",
"]  c #5F636F",
"[  c #676866",
"{  c #706F6E",
"}  c #6E776B",
"|  c #747574",
" . c #915253",
".. c #A15858",
"X. c #AB655E",
"o. c #805F62",
"O. c #826663",
"+. c #866E6B",
"@. c #897665",
"#. c #967B67",
"$. c #BB6D64",
"%. c #AF7063",
"&. c #C25555",
"*. c #D25754",
"=. c #C1605A",
"-. c #D7635C",
";. c #D66E63",
":. c #C67767",
">. c #CE7669",
",. c #D87769",
"<. c #E27F6D",
"1. c #568A3D",
"2. c #4A8046",
"3. c #4C8349",
"4. c #578847",
"5. c #5D9644",
"6. c #5C934B",
"7. c #5D8F51",
"8. c #5F9852",
"9. c #629B49",
"0. c #639D54",
"q. c #67A44B",
"w. c #6DAE4C",
"e. c #6EB14F",
"r. c #69A856",
"t. c #6BAC55",
"y. c #6FB350",
"u. c #6FB25B",
"i. c #71B653",
"p. c #72B956",
"a. c #70B45A",
"s. c #74BD5A",
"d. c #76C15D",
"f. c #78C35F",
"g. c #79C561",
"h. c #7AC863",
"j. c #99846B",
"k. c #8D8575",
"l. c #B8826D",
"z. c #A68B71",
"x. c #AB9274",
"c. c #B39577",
"v. c #B8A17C",
"b. c #D6826E",
"n. c #C68F76",
"m. c #D79479",
"M. c #DA9B7D",
"N. c #E3826F",
"B. c #E48671",
"V. c #E68A73",
"C. c #E69177",
"Z. c #E89177",
"A. c #E99578",
"S. c #EB9B7C",
"D. c #C7A27E",
"F. c #E2A17E",
"G. c #EDA27F",
"H. c #7A7B82",
"J. c #867A83",
"K. c #868685",
"L. c #949289",
"P. c #8B8D97",
"I. c #909090",
"U. c #9F9F9F",
"Y. c #A99D86",
"T. c #A4A39D",
"R. c #AAAAAA",
"E. c #B3B1A9",
"W. c #B4B5B9",
"Q. c gray75",
"!. c #C7AC83",
"~. c #DAA884",
"^. c #D9B689",
"/. c #CEBA96",
"(. c #EEA582",
"). c #E1AC86",
"_. c #F0AC85",
"`. c #E4B58B",
"'. c #E3B88E",
"]. c #F3B389",
"[. c #F5BB8E",
"{. c #E9BE91",
"}. c #DAC59A",
"|. c #E4C697",
" X c #F7C091",
".X c #F8C393",
"XX c #FBCA97",
"oX c #FBCD9A",
"OX c #E9D09F",
"+X c #FCD19E",
"@X c #D9CDAC",
"#X c #E4CBA4",
"$X c #ECD7A7",
"%X c #E7D3AA",
"&X c #FCD7A4",
"*X c #FEDEAB",
"=X c #EADAB7",
"-X c #EFE1AE",
";X c #FEE2AF",
":X c #FFEAB7",
">X c #F9E5BA",
",X c #C4C4C5",
"<X c gray81",
"1X c #DCD7C6",
"2X c #D8D7D4",
"3X c #DFDFDF",
"4X c #E7DFC2",
"5X c #E9E3CF",
"6X c #F7E8C3",
"7X c #F5EACB",
"8X c #FFF4CA",
"9X c #F6ECD4",
"0X c #F6EDDA",
"qX c #FBF5D6",
"wX c #F8F2DD",
"eX c #EFEFEF",
"rX c #F9F4E4",
"tX c #FBF7EB",
"yX c #FCF9EE",
"uX c #FDFAF3",
"iX c #FFFFFF",
/* pixels */
"m.M.'.#X%X4X=X%X%X%X'.).m.Y N >.,.m.`.'.%X%X%X4X4X%X%X%X'.'.'.~.~.>.$.N ' ~.).'.%X%X%X4X4X%X|.'.M.n.m.M.'.OX%X4X=X%X%X%X'.).m.Y N >.>.m.).'.%X%X%X4X4X%X%X%X{.`.'.~.m.>.$.N W m.`.'.%X%X%X4X4X$X|.'.M.n.",
"_.[.XX&X;X6X6X;X;X;XXX[._.R N <.V._..XoX;X;X*X6X6X;X;X;X+XXXoX[._.B.>.N o._.[.XX;X;X;X:X6X;X&XXX].~._.].XX/.[ S P.Z B m J @.S.' N <.C._..XXX;X;X;X6X6X;X;X;X+XoXoX[._.V.>.N O._..XoX;X;X;X6X6X;X&XXX].M.",
"XXXXXXXXXXXXXXXXoXXXXXXXoX' N <.(.XXXXXXoXXXXXXXXXXXXXXXXXXXXXXXXXC.>.N +.XXoXXXXXXXXXXXoXXXXXXXXX'.XXXX~.` R.@XiX0XiXeXU.] x.' N <.S.XXXXXXXXXXXXXXXXXX'.{.@._ D.j.D.Z.>.N +.oXXXXXXXXXXXXXXXXXXXXXoX`.",
"XXXXXXXXXXXXXXXXXXXXXXXXoX' N <.S.XXXXXXXXXXXXXXXXXXXXXXXXXXXXXXXXC.>.N +.XXXXXXXXXXXXXXXXXXXXXXXX`.XX{.t E.eXtX4X9X0X6XwX5XS 0 n ,.(.XXXXXXXXXXXXXXXXc.D K P.2X` P.M B  .N +.oXXXXXXXXXXXXXXXXXXXXXoX'.",
"XXXXXXXXXXXXoXXXXXXXXXoXXX' N ,.S.XXXXXXXXXXXXXXXXXXXXXXXXXXoXXXoXC.>.N +.oXXXXXXXXXXXXXXXXXXXXXXX'.XX#.W.uX9XiX=XuX6XuX1X|.S * n <.(.XXXXXXXXXXXXXX!.J 5XiXyXrX0XiX@X2XM M +.oXXXXXXXXXXXXXXXXXXXXXoX`.",
"XXXXXXXXXXXXoXoXXXXXXXoXXX' V N.Z.(.[.XXXXXXXXXXXXXX^.z.z.R { | R { K t Y {.XXXXXXXXXXXXXXXXXXXXXX'.XXO.K.wX7XtXrXwX7X=Xm } 0 ` K <.V.(.[.XXXXXXXXXXS W.=XuX=X5X0X7X7XyXY.5 _ oXXXXXXXXXXXXXXXXXXXXXoX'.",
".X.XXXXXXXXXx.#.z.M J #.x.' N <.V.S.].[.XXXXXXXXXX XJ L.,X@XuXuX9XiX3XE.Q.m !.~.oXXXXXXXXXXXXXXX.X).[.~.t -X4X0X9XrX7X$X1XP.` ] 0 N.V.A.]..XXXXXXX Xm iX7XuXwX>X7X0X<X}.j.& D [.XXXXXXXXXXXXXXXXXXXX[.).",
"G.].XXXXz.y P.U.{ 2XK.H.M V N <.<.<.S.(.XXXXXXXXXXD R.%X9XuX%X4XtX>XwX9XrXc.& 0 #.XXXXXXXXXXXXoX_.m._.n.S |.6XtXrX6XuX9X=XY.0 & 0 <.<.<.S.(.XXoXXXXXS x.uX6XiXyXiX%XS { * K O.(.[.XXXXXXXXXXXXXXXXXX_.m.",
"Z.S.[.M | T.uXtX0XiX$XyX2Xt 5 0 >.<.V.Z.(.(.(.(.l.} yXwX9XuX0X7XwX=XwXE.Y.& & ` {.XXXXXXXXXX[.].A.b.Z.m.y W v.}.}.^.|.^.^.@.y V N <.<.<.V.Z.(.(.(.(.D !.-X$X0X>X4X=X=X] ] ` E V._.[.XXXXXXXXXXXX[.].S.b.",
"<.V.n.L tXiX7X=XtX6XrXwX$X@.& I <.<.<.<.<.<.<.<.X.R $XrX>XqXtX0XtX9X}.M U.Z ] V _ oXXXXXXXoX].(.B.>.N.V.M.t S s t t J y 3 & $.Y N N.<.<.<.<.<.<.<.<.q j.^.4X0X$XwXwX$Xk.* * C <.A.(.XXXXXXXXXXXX[.(.V.>.",
"<.N.V E.=XtXyX=XtX-XuX] k.5 & J.=.<.<.N.<.<.<.<.N.t !.|.=XyXyX4XwXuX>X}./.& & & P V.V.V.B.V.B.B.N.>.N.N.N.N. . .b.V.V.:.C :.<.Y N *.-.<.<.<.<.<.<.<.X.q J j.j.z.!.!.c.@.0 0  .<.N.N.V.B.B.V.V.B.B.B.<.;.",
"<.;.B iX9XrXyXwXtXrX|.k.1XM P.M I $.%. .y + . . . @ 6 S j.!.x.v.v.!.z.z.j.0 6 - $ @ . . . . . + . . . P I I I I q . . . . . . . . . + . . . . . . . + + & * & % 0 t * 5 m N T <.<.<.<.<.<.<.<.<.<.<.,.:.",
"*.*.y @.rX9XwXuX0X7X-X0XwXM 6 6 0 5 + + . - g b / g r s j j Z g d g g Z j d j Q ^ ^ v 3./ 3.3.3.1.3.3.3.3.b b l l s g 3.2.1./ 3.3.( b b g d r g v b g d f g > @ + . @ m M M C *.<.<.<.<.<.<.<.<.<.<.*.&.",
"C  .V K $X$X7XrX-XyXrX$X!.@.7 0 @ + > d v 9.e.s.h.i.6.0.r.r.8.4.3.6.8.q.8.9.w.5.9.q.f.h.h.h.h.h.f.h.h.h.f.e.e.w.y.7.Q r.i.y.p.h.h.g.w.y.r.^ 9.q.e.q.^ 4.e.g.a.F 9 > . @ N V V C T T E E E E E E E E T Y ",
"N V M J !.#X-X=X|.^.|.x.#.0 M m . < G ~ 4.e.h.h.f.i.w.w.f.f.f.p.f.f.i.w.w.w.w.w.w.s.h.p.y.g.h.h.h.h.f.h.f.p.e.e.p.h.t.s.e.w.i.h.h.s.p.h.s.i.w.w.w.w.q.e.g.g.a.( F F < . n N N N V N N N N N N N N N V N ",
":.>.>.I t @.j.O.J S S 0 & 0 N * . h F ~ 9.s.h.p.w.w.w.w.e.d.d.h.g.i.w.w.w.w.w.e.s.h.p.e.s.h.h.h.h.f.e.p.d.d.e.p.f.h.y.w.w.e.e.p.p.f.h.s.e.w.w.w.w.w.i.f.g.e.w.4.F F Z . * V N N ..&.>.>.>.>.>.>.>.>.$.X.",
"V.V.C.C.O.y & y  .$.-. .n N n + . Q F F u.h.i.i.d.d.i.e.y.f.h.h.f.d.w.w.w.w.w.g.f.y.w.d.h.h.h.h.f.e.e.w.d.h.h.h.d.w.i.d.s.i.w.d.f.h.h.h.p.w.w.w.w.i.h.f.w.w.f.u.F F F . @ m N V ..-.<.<.N.N.B.Z.C.C.,.:.",
"%.+ . + . . @ . . . . . . . . . . Q F j 0.e.i.h.h.h.p.e.i.f.h.h.f.f.w.w.w.w.g.g.y.e.f.h.h.h.h.h.p.e.w.e.s.h.h.p.w.d.h.h.f.y.w.s.h.h.h.h.i.w.w.w.y.h.s.w.i.h.h.r.F F F . + . . . . . . + . . . . . . . #.",
"< $ 9 e e e s x F F F 9 3 - $ . + F F Q q.p.h.h.f.i.w.w.e.w.f.f.f.c ~ [ x t.q.G c f.h.h.h.h.h.h b q.5.x b f.c H 2.s.b l x c w.w./ F u.s.w.w.e.p.d.p.w.i.h.h.h.h.a.F Z . . @ - 3 r ^ Q F x s e a e r $ @ ",
"7 - f ^ Q H F F F F F F x 3 : . r F ^ ^ u.h.h.h.e.w.w.w.w.w.y.f.b <XiXiXeXf p iXE.5.h.h.h.6.x 3X3Xk b eX{ p U.iXL.I.<XiXuXQ.c c 3XiX| q.i.w.d.d.i.y.d.f.g.h.h.r.~ F Z r + : 4 Q v H F F F G ^ ^ ~ h ; + ",
"7 ; 3 Q x G ^ G j G G G x 4 ; . s ~ H F r.h.h.p.w.w.w.w.w.w.w.q.{ iX@XR.iXP.} iXU.9.f.f.s.} iXiXiXv b 3X<X0.iX<X3XiXeX,XI.H t T.iXeXuXp w.p.s.e.i.f.f.e.i.h.u.^ Q F F r . : 4 ~ G F F F Q ^ ^ ! v 3 ; . ",
"k.- 1 s Z F ! ^ G ^ ^ ^ F 4 : . r G x F r.h.p.e.w.d.w.w.e.e.w.j eX<X` Q.iXU.Q.iXf i.s.p.c 3XiX<XiX) 0.U.eXiX3Xh P.iXU.7.x b E.iX{ { iX| s.h.i.p.f.h.h.d.e.d.4./ ^ Q F r + : 4 F G F F G ^ ^ Q Q j ; ; k.",
"=X- 2 $ F F Q ^ ^ ^ ^ F F 4 : . r Z F F r.i.w.w.d.e.w.w.s.i.q.I.iXiXiXiX3XL iX<X4.y.w.e.} iXE.] iXQ.H S iXiX{ b 3XiXiXiXH.X eXuXeXiX3Xx h.h.h.h.h.h.h.h.e.e.q.9.Q F F r + - 3 F x F Q ^ ^ Q ! ~ = 2 w E.",
"6X} = 2 < F F ! ~ ^ Q s a 4 ; . r x F F ( w.i.p.e.w.w.e.d.f.q.{ iX<XI.) k [ iX{ b k c c 3XeXiXiXiXiX} [ iXU.b [ iXI.S q X X iXiXeXR v q.h.h.h.s.d.f.h.h.i.e.w.9.F F F r + : 2 4 s Q ^ ^ Q ! ^ 3 2 = _ =X",
":X|.t : = s Q ~ ^ ^ Z f 2 2 : . r F G ( ^ t.s.w.w.w.w.w.e.h.t.} iX) s.s.y.J.iX3XeXiX3X{ iXI.{ { ,XiX  3XiXx w.{ iXQ.E.<X3XD iXeXiXQ.H.) 4.g.p.e.w.e.h.f.i.w.w.r.F Z ! d . : 2 a Q ^ ^ G ^ ^ g - ; t }.%X",
"oXoXx.# 2 . j Q G ! ~ Q j 2 : . r G Q t.r.w.w.w.w.p.i.s.p.h.s.K.iX! p.w.w.h iXiX<XU.Q.I.eXQ p.h iXL.8 iXT.9.i.x 3XiXiX3XI.  eXr 0.3XiXiXO q.w.i.d.h.f.e.i.f.p.9.G ^ Q s . : d Q ^ Q x ~ ~ v . 2 # x.oX{.",
"+XoX'.f - $ e F Z Q ^ ^ ! 4 : . r G v ~ t.w.w.w.w.s.g.s.h.h.h.l v 9.w.y.g.u.v v 3.y.6.0.p 5.e.q.v 6.y.~ ( s.f.9.p x p b 0.5.p t.t.2.) ) 9.w.i.g.h.h.h.h.h.h.s.9.^ ~ F r . : a Q Q Q ~ ^ ^ s # - t {.+X|.",
":X*XXX~.+ 1 $ f ^ ^ ! x F 4 ; . r F F ~ 9.w.w.e.f.h.s.s.h.h.h.d.y.w.y.h.g.h.h.h.h.h.d.e.q.i.h.h.s.s.h.h.f.d.y.1.9.w.1.p i.p.f.h.h.g.d.e.w.s.h.h.h.h.h.h.f.s.t.9.Q x F s . : 4 Z Q ^ ^ ^ j $ 1 . `.XX;X%X",
"&X+XXXXX7 . + j ^ Q F F F d ; . r F ~ ^ ( e.s.f.f.y.t.i.s.h.p.w.e.d.h.h.h.h.h.q.o 1.1.p   p.v i p   a.6.o 1.1.  1.O k i p q.e.h.g.y.e.y.d.h.h.h.h.h.h.h.y.w.i.^ F F x r . : 2 a ^ ^ ^ Q h . . 7 XXXX+X|.",
"XXoXXXXXS . s ! F Z F F F 4 ; . d ^ ^ ^ ( d.h.f.i.( / i.d.p.w.w.i.h.h.h.h.h.g.p o X p s.X u 6.h.g.X i k u p p X k s.i.i 4.f.i.h.e.w.w.p.h.h.h.h.h.i.r.w.w.s.h./ F F Z r . : 4 j ^ ^ Q F x s . S XXXXXX'.",
"XXXXXXx.. < Q F F G G F F 4 2 # < Q Q G F u.h.h.7.7.x 7.h.i.w.w.i.h.h.h.h.p.t.e.q.f.h.h.5.d.h.h.h.f.6./ 8 1.d.h.h.h.h.h.h.h.h.h.e.w.e.p.h.h.h.g.i.6.^ 7.g.h.u.~ F F F < # 1 4 Q Q F F F F F < . x.XXXX'.",
"[..X^.. > x j F Q ^ ! F F 4 2 $ . F j F F A A A 9 f 9 a v l l l A A l r.p.e.s.h.h.h.h.Q 6.g.h.h.r.F Z Z F Z G 7.u.h.h.h.h.h.h.p.w.e.d.7.A A A l l r r l A A l ! F F Z . # 2 f j F F F F F F F - . ^. X).",
"G.F.D < F F G ^ ^ F F F Z Z 2 - . 8 ^ ~ 9 . . @ $ $ $ @ $ $ $ $ # $ $ = $ # $ @ $ $ = $ $ $ $ $ $ $ $ 8 s s ^ ^ ( ( 4.4.4.^ j 4 $ $ $ $ $ $ $ $ @ # @ $ $ . . 3 x Z < + : 1 j ^ ! ^ ^ ^ F F ^ ^ < S G.m.",
"m.P $ f F G ^ ^ ~ F F F Q l 2 2 $ . s ^ < . 3 v ~ Q F F G ^ ^ F Z Q ^ ^ ! x F F Q ~ ^ Q F j F ~ ^ ^ ^ ^ ^ v ^ Q G x ! ^ F F Z Q ^ ~ F F ~ ^ ^ G x F F ! ^ 8 . < F 9 . @ 1 4 j ^ ^ ^ Q F G ^ ^ F h = z :.",
" .= h G Q ^ ^ G F F F F Q l 4 2 2 - . > e $ , h v Q F e > , > > < , , , > > > > ; > % w s f s h h g , , , , , > 9 h h h s - , , > , > > , , , > e G ^ v f = $ e $ . - 2 2 a ^ ^ Q F x Q ^ ^ ^ F x f $ C ",
". s G ^ ^ ^ ^ G F F F F Z Q d 2 2 2 - # . . . . $ < x j f < . . # 6 6 6 0 n n n n * 5 * * * * 6 5 6 5 5 6 * * * 6 6 6 6 6 6 5 5 * 5 5 @ . . 2 d Q Q 9 $ . . . . $ ; 2 2 4 j ! G F Q ^ Q ^ Q F G G G f $ ",
"X s d d d d s s s r r s Q ^ F f : - - - < . . . + . 3 ~ ^ G $ + & N N N V C U U Y Y Y Y Y Y Y Y U U C U U Y Y Y Y Y Y Y Y Y C V N N N * . = H ^ ~ 1 . . . . . $ - - - 3 Z G G j d d r r r r r s f d s = ",
"+ 3 e e e e 9 9 9 9 e e r r f s 2 = 1 3 9 9 e 9 9 r j ^ ^ v > + n N N N T *.<.,.<.<.<.<.<.<.<.<.*.&.*.-.<.<.<.<.<.<.<.<.<.;.*.C N V N n . , ^ ^ ^ ! d 9 9 9 9 e a w 9 e a f d d 9 9 9 r 9 9 9 8 a e 3 . ",
"@ $ e r r x F F r e r 8 9 9 9 e r e 3 9 9 9 r e 8 e r e r > . 7 .... .N  .;.,.<.<.<.<.<.<.<.<.<.,.;.;.,.<.<.<.<.<.<.<.<.<.<.;.Y N  ...X.7 . - e e e e 9 9 9 9 e e 3 9 9 8 e r 9 9 9 9 d ^ Q ^ e e s . . ",
"N.<.<.<.<.<.<.<.<.<.<.b.<.Y N *.-.<.<.<.N.N.,.<.N.<.<.<.<.<.<.<.<.-.&.N E <.<.<.<.<.<.<.<.<.<.<.<.>.<.<.<.<.<.<.<.<.<.<.<.<.<.Y N *.-.<.<.<.<.<.N.<.<.<.<.<.<.<.<.<.B.*.&.N E N.<.<.<.<.<.<.<.<.<.N.N.,.",
"<.V.G.[.XXXXXXXXXXXX(.A.<.Y N <.<.<.<.<.<.<.<.<.N.<.<.<.<.<.<.<.<.<.>.N E <.(.(.XXXXXXXXXXXX].(.V.>.<.V.(.[.XXXXXXXXXXXXS.S.<.Y N <.<.<.<.<.<.<.<.<.<.<.<.<.<.N.<.<.<.<.>.N E <.S._.XXXXXXXXXXXX].G.N.>.",
"B.A._.[.XXXXXXXXXXXX_.S.V.Y N <.<.<.B.B.Z.Z.Z.Z.Z.V.Z.Z.Z.Z.B.B.<.<.>.N E V.(._.XXXXXXXXXXXX[._.Z.>.V.A._.[.XXXXXXXXXXXX_.S.B.Y N <.<.<.B.B.Z.Z.Z.Z.Z.Z.Z.Z.Z.Z.B.B.<.<.>.N E B.(._.XXXXXXXXXXXX[._.C.b.",
"G.].XXXXXXXXXXXXXXXXXX{.(.Y N <.<.<.S.G.XXXXXXXXXXXXXXXXXX.XG.A.<.<.>.N E (.[.XXXXXXXXXXXXXXXXXX_.m.(.].XXXXXXXXXXXXXXXXXX[.G.R N <.<.<.S.(.oXXXXXXXXXXXXXXXXX.X(.A.<.<.>.N O.G.[.XXXXXXXXXXXXXXXXXX_.m.",
"[..XXXXXXXXXXXXXXXXXXX.X[.' N <.B.A.].[.XXXXXXXXXXXXXXXXXXXX[._.(.<.>.N +.[..XXXXXXXXXXXXXXXXXXX.X).[.[.XXXXXXXXXXXXXXXXXXXX].W N <.V.Z._.[.XXXXXXXXXXXXXXXXXX.X[._.A.N.>.N O.[.XXXXXXXXXXXXXXXXXXXX X).",
"XXXXXXXXXXXXXXXXXXXXXXXXXX' N <.V.(.[.XXXXXXXXXXXXXXXXXXXXXXXX[.(.<.>.N +.[.XXXXXXXXXXXXXXXXXXXXoX`.oXoXXXXXXXXXXXXXXXXXXXXXXX' N <.V.S.[.XXXXXXXXXXXXXXXXXXXXXXXX[.G.V.>.N +.XXoXXXXXXXXXXXXXXXXXXXXX'.",
"XXXXXXXXXXXXXXXXXXXXXXXXXX' N <.S.XXXXXXXXXXXXXXXXXXXXXXXXXXXXXXXXV.>.N +.oXXXXXXXXXXXXXXXXXXXXXoX`.XXXXXXXXXXXXXXXXXXXXXXXXXX' N B.(.XXoXXXXXXXXXXXXXXXXXXXXXXXXXXXXXZ.>.N +.XXXXXXXXXXXXXXXXXXXXXXXX'.",
"XXXXXXXXXXXXXXXXXXXXXXXXXX' N <.S.XXXXXXXXXXXXXXXXXXXXXXXXXXXXXXXXB.>.N +.oXXXXXXXXXXXXXXXXXXXXXXX`.XXXXXXXXXXXXXXXXXXXXXXXXXX' N ,.S.XXXXXXXXXXXXXXXXXXXXXXXXXXXXXXXXZ.>.N +.XXXXXXXXXXXXXXXXXXXXXXXX'.",
"XXXXXXXXXXXXXXXXXXXXXXXXXX' V <.S.XXXXXXXXXXXXXXXXXXXXXXXXXXXXXXXX(.>.N +.oXXXXXXXXXXXXXXXXXXXXXXX`.XXXXXXXXXXXXXXXXXXXXXXXXXX' V <.S.XXXXXXXXXXXXXXXXXXXXXXXXXXXXXXXXZ.>.N +.XXXXXXXXXXXXXXXXXXXXXXXX'.",
"].[.XX&X*X:X:X*X*X*XXX[.].' N <.Z.]..XXX*X&XXX&X;X6X:X*X;X*XXX.X].V.>.N O.].XXoX*X*X*X>X>X*X&XXX].~._.[.XX&X*X:X>X*X*X*XXX[.].R N <.C._..XoX*X&XoX*X*X>X:X;X*X*XXX[.].V.>.N O.]..XoX*X*X;X:X>X;X+XXX].F.",
"G.].XX*X:XqX8X:X:X:XXX[.(.Y N <.V.G.[.oX:X*XXX;X:XqX8X:X:X;XXX[.G.B.>.N o.G.[.+X:X:X:X8XqX:X&XXX_.m.(.].oX*X>XqX8X:X:X:XXX[.(.R V N.V.(.[.oX:X*XXX*X:XqX8X:X:X>XXX{.(.V.>.V W G. XoX:X:X:X8XqX:X*XXX_.m."
};
