/* XPM */
static char *wall_top1730374166[] = {
/* columns rows colors chars-per-pixel */
"50 50 183 2 ",
"   c #3F3851",
".  c #463950",
"X  c #463951",
"o  c #443852",
"O  c #483852",
"+  c #4D3950",
"@  c #4C3A50",
"#  c #4C3A52",
"$  c #4F3C51",
"%  c #4F3D52",
"&  c #513754",
"*  c #563755",
"=  c #5A3755",
"-  c #5B3755",
";  c #533A50",
":  c #513C51",
">  c #5A3B50",
",  c #5B3B50",
"<  c #5F3F51",
"1  c #5C3E52",
"2  c #6F3D4F",
"3  c #763E4F",
"4  c #7D3F4F",
"5  c #633757",
"6  c #683657",
"7  c #6D3757",
"8  c #603853",
"9  c #623952",
"0  c #643A51",
"q  c #613C50",
"w  c #663C51",
"e  c #683C50",
"r  c #693E50",
"t  c #6D3658",
"y  c #7E3956",
"u  c #763659",
"i  c #783758",
"p  c #534155",
"a  c #5F4051",
"s  c #624756",
"d  c #6C4051",
"f  c #6F4351",
"g  c #6C4253",
"h  c #6C4353",
"j  c #6E4554",
"k  c #704754",
"l  c #714955",
"z  c #724B56",
"x  c #734C56",
"c  c #744E58",
"v  c #7C535B",
"b  c #843F4E",
"n  c #843F4F",
"m  c #843B54",
"M  c #883D52",
"N  c #80365B",
"B  c #8D375A",
"V  c #89365C",
"C  c #973B56",
"Z  c #9B3D55",
"A  c #923958",
"S  c #A03F53",
"D  c #84404F",
"F  c #90404F",
"G  c #92414E",
"H  c #864350",
"J  c #814354",
"K  c #884551",
"L  c #884752",
"P  c #8A4953",
"I  c #8F4B52",
"U  c #8C4B54",
"Y  c #914755",
"T  c #9B4B52",
"R  c #9C4B52",
"E  c #9F4F52",
"W  c #9E4856",
"Q  c #86575D",
"!  c #905156",
"~  c #905157",
"^  c #9D5056",
"/  c #925458",
"(  c #9E5258",
")  c #965A5B",
"_  c #905B5F",
"`  c #905C5F",
"'  c #975D5C",
"]  c #985D5C",
"[  c #A0434E",
"{  c #AA424F",
"}  c #AE444E",
"|  c #B2484F",
" . c #B44B4F",
".. c #AB4A56",
"X. c #B24A50",
"o. c #B64D50",
"O. c #AC5052",
"+. c #AF5353",
"@. c #A45B5A",
"#. c #B65053",
"$. c #BB5252",
"%. c #BF5753",
"&. c #B95555",
"*. c #BE5855",
"=. c #B05159",
"-. c #B25358",
";. c #B65659",
":. c #BD5B58",
">. c #BE5F5A",
",. c #A9645E",
"<. c #B6635D",
"1. c #A46462",
"2. c #A46463",
"3. c #B96D66",
"4. c #BD7A6C",
"5. c #C05B56",
"6. c #C25E57",
"7. c #C25F58",
"8. c #D25654",
"9. c #C1615B",
"0. c #C46159",
"q. c #C46259",
"w. c #C6655B",
"e. c #C3645C",
"r. c #C5675E",
"t. c #C8695D",
"y. c #C96C5F",
"u. c #D6605A",
"i. c #C96D60",
"p. c #CB6F61",
"a. c #CB7061",
"s. c #CC7162",
"d. c #CD7363",
"f. c #DC7064",
"g. c #DE7467",
"h. c #DF7768",
"j. c #E27F6D",
"k. c #BF8170",
"l. c #C18773",
"z. c #C38C76",
"x. c #C48F77",
"c. c #C5937A",
"v. c #E3816E",
"b. c #E3836F",
"n. c #E58871",
"m. c #E68C74",
"M. c #E68E75",
"N. c #E99277",
"B. c #E99578",
"V. c #E99579",
"C. c #EB9B7C",
"Z. c #EB9E7D",
"A. c #EDA27F",
"S. c #C99E80",
"D. c #CCA585",
"F. c #CEB797",
"G. c #CFBB9B",
"H. c #CFBD9D",
"J. c #EEA381",
"K. c #EEA782",
"L. c #F0AC85",
"P. c #F1AC86",
"I. c #F1AF87",
"U. c #F2AE87",
"Y. c #F2B188",
"T. c #F3B48A",
"R. c #F5B78C",
"E. c #F5BB8E",
"W. c #F6BB8E",
"Q. c #CFBFA1",
"!. c #F7C091",
"~. c #F9C594",
"^. c #FBCA97",
"/. c #FCCE9B",
"(. c #CFC0A3",
"). c #CFC4AB",
"_. c #CFC9B4",
"`. c #FEDEAB",
"'. c #FEE6B3",
"]. c #FEE8B7",
"[. c #FEEABA",
"{. c #FEEFC4",
"}. c #FEF4CE",
/* pixels */
"                                                                                                    ",
"                                                                                                    ",
"                                                                                                    ",
"                                                                                                    ",
"                                                                                                    ",
"                                                                                                    ",
"                                                                                                    ",
"                                                                                                    ",
"                                                                                                    ",
"                                                                                                    ",
"                              o                                                                     ",
"          o # % p % p % p p : : @                               o @ % p p $ p p p p % @             ",
"          r } r.s.d.d.d.d.d.d.<.} >                       o     H } y.d.d.d.d.d.a.d.*.} @ o         ",
"l f r q   f ;.i.d.d.d.d.d.d.d.r.&.a   e 2 f x x c c x k d w >   U &.s.d.d.d.d.d.d.d.q.&.% @ w 2 d k ",
"w.%.| [   c s.s.d.d.d.d.d.d.d.d.d.s   }  .5.t.d.d.d.d.q.%.} F   ' d.d.d.d.d.d.d.d.d.d.d.p ; } | %.s.",
"p.y.*.O.  f o.i.d.d.d.d.d.d.d.r.#.1   $.:.y.s.d.d.d.d.y.y.$.T   L $.y.d.d.d.d.d.d.d.<.#.@ a $.q.y.d.",
"s.s.<.+.  2 } t.d.d.d.s.d.s.d.<.} >   %.q.d.d.d.d.d.s.s.d.%.^ o H } y.d.d.d.d.d.d.d.:.} % a %.r.d.s.",
"  o o                     o o                       o o                                         o o ",
"h x c c x c c h q   @ e x c x x c c x c x c h w   # e k c c x c x c d >   1 w l c c x c c c c c x h ",
"<.d.d.d.s.s.s.$.T   e } t.d.d.d.d.d.d.d.d.s.&.}   d } <.d.d.d.d.d.d. .F   D } y.d.d.d.d.d.d.d.d.d.| ",
"y.d.d.d.d.d.d.y.<.o k t.a.d.d.d.d.d.d.d.d.d.y.t.o l w.d.d.d.d.d.d.d.r.@.  / r.s.d.d.d.d.d.d.d.d.d.r.",
"s.s.d.d.d.d.d.d.<.o x d.d.d.d.d.d.d.d.d.d.d.d.s.o c s.d.d.d.d.d.d.d.d.,.  ' s.s.d.d.d.d.d.d.d.d.d.d.",
"q.d.d.d.d.d.d.o.T   e } t.d.d.s.d.d.d.d.d.d.&.}   e } <.d.d.d.d.d.d.X.C   H } s.d.d.d.d.d.d.d.d.d. .",
"U ] ] ] ] ] ] F f   > D / ' ' ' ' ' ' ' ' ' U D   > D ! ' ' ' ' ' ' D 3   w D ) ' ' ' ' ' ' ' ' ' D ",
"o   O o         o o o       o o             o o           o                                         ",
"' ' Y f   > b ! ] ] ' ' ' ' ] ! D #   D U ' ' ] ' ' ' ' ' H 2   2 b ) ' ' ' ' ' ' ' U b . ; D U ' ' ",
"s.d.#.R   2 } w.d.d.s.s.s.d.d.<.} >   } &.d.s.d.s.d.d.d.a.} F   M } p.s.s.d.d.d.s.s.>.} @ > } >.d.d.",
"s.d.6.O.  f %.y.d.d.d.s.s.d.d.t.%.a   %.q.d.s.s.s.d.d.d.d.%.^   Y 5.p.s.s.d.d.d.d.d.w.%.% a %.w.d.d.",
"7.7.=.W   w ..>.0.>.0.<.<.q.q.*...1   ..=.<.6.0.q.q.7.<.q...Y   k | 7.7.9.7.<.q.q.<.&...# * ..;.q.<.",
"{ { A y   * V S } } } } } } { Z V &   V C { } } } } } } } V u   t V S | } } } } } } Z V # & V Z } } ",
"r e 0 *   o = w w w 2 w 3 w w 0 = #   = = 2 2 w r w 2 e e > *   + = w r 2 e w w e w 9 , o o * 0 2 w ",
"  O           o                                   o                 o     o   o o     o             ",
"Z } } } } } } A y                                 * V Z } } } } } } A u   7 V { } } } } } } } } } V ",
"m A F F F F F y 7                                 * u M F M G G G G i 6   5 u F F F G F G G G G I i ",
"    o                                               o                           o                   ",
"                                                                                                    ",
"                                              o                                                     ",
"L 8.g.v.v.v.v.v.j.j.j.j.v.v.j.v.v.h.v.8.T   T 8.v.v.j.j.j.j.j.j.j.v.j.j.j.j.j.j.j.j.j.j.v.v.n.8.8.% ",
"U u.g.h.v.v.v.v.j.j.j.j.j.j.j.j.v.v.v.u.(   R u.v.j.j.j.j.j.j.j.j.j.j.j.j.j.j.j.j.j.j.j.j.v.v.f.8.p ",
"` b.v.v.h.v.v.h.j.j.j.j.j.j.j.j.v.v.h.v.2.  2.j.j.j.j.j.j.j.j.j.j.j.j.j.j.j.j.j.j.j.j.j.j.v.v.v.v.p ",
"_ j.v.v.V.Z.Y.L.L.L.I.L.Y.U.U.J.N.v.j.j.1.  2.j.j.n.B.J.Y.L.Y.L.U.U.U.U.U.U.L.L.L.L.Y.U.B.m.j.j.v.p ",
"_ j.v.b.A.Y.^.^.^.^.^.^.^.^.^.W.A.m.j.j.1.  2.j.j.m.A.W.^.^.^.^.^.^.^.^.^.^./.^.^.^.^.^.L.C.j.j.b.p ",
"_ j.V.A.~.^.^.^.^.^.^.^.^.^.^.^.~.L.Z.j.2.  2.j.Z.P.~.^.^.^.^.^.^.^.^.^.^.^.^.^.^.^.^.^.~.W.C.m.h.p ",
"_ j.J.L.^.^.^.^.^.^.^.^.^.^.^.^.^.Y.L.j.2.  2.j.P.R.^.^.^.^.^.^.^.^.^.^.^.^.^.^.^.^.^.^.^.!.L.B.v.p ",
"_ j.R.^.^.^.^.^.^.^.^.^.^.^.^.^.^.^.^.j.1.  1.j.^.^.^.^.^.^.^.^.^.^.^.^.^.^.^.^.^.^.^.^.^.^.^.K.v.p ",
"_ j.R.^.^.^.^.^.^.^.^.^.^.^.^.^.^.^.^.j.1.  1.j.^.^.^.^.^.^.^.^.^.^.^.^.^.^.^.^.^.^.^.^.^.^.^.K.b.p ",
"_ j.R.^.^.^.^.^.^.^.^.^.^.^.^.^.^.^.^.j.1.  1.j.^.^.^.^.^.^.^.^.^.^.^.^.^.^.^.^.^.^.^.^.^.^.^.K.b.p ",
"_ j.C.L.^.^.^.`.].}.{.'.'.'.^.^.^.I.K.j.2.  1.v.K.Y.^.^.^.'.[.}.}.}.].`.^.^.^.'.[.}.[.]./.W.K.N.h.p ",
"v 3.k.z.D.D.D.F.Q._.).H.H.H.D.D.D.z.l.3.Q   ` 3.l.c.D.D.D.H.(._._._.G.G.D.D.D.G.(._.).G.D.c.x.4.3.# ",
"  o                                                               o                       o         "
};
