/* XPM */
static char *wall_right1730374166[] = {
/* columns rows colors chars-per-pixel */
"50 50 183 2 ",
"   c #3F3851",
".  c #483752",
"X  c #463951",
"o  c #443852",
"O  c #4D3951",
"+  c #4C3A50",
"@  c #4C3A52",
"#  c #4F3C51",
"$  c #4F3D52",
"%  c #513754",
"&  c #563755",
"*  c #5B3755",
"=  c #543A50",
"-  c #513854",
";  c #563855",
":  c #5A3B50",
">  c #5B3B50",
",  c #5A3855",
"<  c #5F3954",
"1  c #763E4F",
"2  c #7E3F4F",
"3  c #643757",
"4  c #693757",
"5  c #6D3757",
"6  c #623952",
"7  c #643B51",
"8  c #623C50",
"9  c #663C51",
"0  c #683C50",
"q  c #693C50",
"w  c #683D50",
"e  c #693D50",
"r  c #6F3D50",
"t  c #6E3658",
"y  c #763659",
"u  c #773659",
"i  c #783758",
"p  c #7F365A",
"a  c #534155",
"s  c #5F4051",
"d  c #624756",
"f  c #6C4051",
"g  c #6F4351",
"h  c #6C4352",
"j  c #6C4253",
"k  c #6E4554",
"l  c #704754",
"z  c #704855",
"x  c #724B56",
"c  c #734C57",
"v  c #744E58",
"b  c #7C525B",
"n  c #843F4F",
"m  c #843B54",
"M  c #893D52",
"N  c #8D375A",
"B  c #89365C",
"V  c #973B56",
"C  c #9B3D55",
"Z  c #923958",
"A  c #A03E53",
"S  c #84404F",
"D  c #90404F",
"F  c #92414E",
"G  c #864250",
"H  c #824354",
"J  c #884552",
"K  c #884752",
"L  c #8A4853",
"P  c #8F4B52",
"I  c #8A4C55",
"U  c #8E4E56",
"Y  c #914755",
"T  c #9B4B53",
"R  c #9C4C52",
"E  c #9F4F52",
"W  c #9E4955",
"Q  c #86575D",
"!  c #905156",
"~  c #9C5056",
"^  c #925458",
"/  c #95595B",
"(  c #965A5B",
")  c #905B5F",
"_  c #975D5C",
"`  c #985D5C",
"'  c #A0424E",
"]  c #AA424F",
"[  c #AE444E",
"{  c #B2494F",
"}  c #A54051",
"|  c #AC4F52",
" . c #AB4A56",
".. c #B24A50",
"X. c #B44B50",
"o. c #B64D50",
"O. c #AF5352",
"+. c #A45B5A",
"@. c #B65053",
"#. c #BB5252",
"$. c #BF5753",
"%. c #B95555",
"&. c #B95656",
"*. c #BE5854",
"=. c #B05158",
"-. c #B35459",
";. c #B65659",
":. c #B95859",
">. c #BD5B58",
",. c #BC5B59",
"<. c #A9645F",
"1. c #B5635D",
"2. c #A46463",
"3. c #B96D66",
"4. c #BD7A6D",
"5. c #C05B56",
"6. c #C25E57",
"7. c #C25F58",
"8. c #D25654",
"9. c #C1615A",
"0. c #C1615B",
"q. c #C46159",
"w. c #C6655B",
"e. c #C5675D",
"r. c #C76A5F",
"t. c #C8695D",
"y. c #C96C5F",
"u. c #D6605A",
"i. c #C96D61",
"p. c #DA6A60",
"a. c #DC6F63",
"s. c #CB7061",
"d. c #CC7162",
"f. c #CD7363",
"g. c #DF7868",
"h. c #E27F6D",
"j. c #BF8170",
"k. c #C18773",
"l. c #C38C76",
"z. c #C48F77",
"x. c #C5937A",
"c. c #E3816E",
"v. c #E3836F",
"b. c #E48771",
"n. c #E58871",
"m. c #E68C74",
"M. c #E99579",
"N. c #E99779",
"B. c #EA997A",
"V. c #EB9C7C",
"C. c #EDA17F",
"Z. c #EDA27F",
"A. c #C99E81",
"S. c #CCA685",
"D. c #CCA787",
"F. c #CEB797",
"G. c #CFBD9D",
"H. c #EDA380",
"J. c #EEA482",
"K. c #EFA882",
"L. c #F0AC85",
"P. c #F1AF86",
"I. c #F1AE87",
"U. c #F2B188",
"Y. c #F3B48A",
"T. c #F5B78C",
"R. c #F5BB8E",
"E. c #CFBFA1",
"W. c #F8C292",
"Q. c #F9C594",
"!. c #FBCA97",
"~. c #FCCE9B",
"^. c #CFC0A3",
"/. c #CFC4AB",
"(. c #CFC9B5",
"). c #FEDEAB",
"_. c #FEE2AF",
"`. c #FEE6B3",
"'. c #FEE8B7",
"]. c #FEEABA",
"[. c #FEEDC0",
"{. c #FEEFC4",
"}. c #FEF4CE",
/* pixels */
"  b ) ) ) ) ) ) ) ) ) U K       m C o 9 [ 9.f.f.`   U 5.d.y.>.g   d.d.w.l o                         ",
"  3.h.h.h.h.h.h.h.h.h.8.8.      Y ]   q [ 9.f.f.`   ` f.f.f.f.v o d.e.5.g                           ",
"  j.V.T.T.T.C.N.h.h.h.g.g.      M [   < Z =.6.{ J o ` d.f.f.f.v   6.5.[ w                           ",
"  l.L.!.!.!.U.H.b.c.h.h.c.      F [   & p R @.W g . ` d.f.f.f.v   O.| R 8                           ",
"  S.!.!.!.!.!.Q.J.N.h.h.h.      F [                 _ f.f.f.f.v                                     ",
"  S.!.!.!.!.!.!.U.V.h.h.h.      F [   . , 9 g q >   ` f.f.f.f.v   w f v h w X                       ",
"  S.!.!.!.!.!.!.!.I.h.h.h.      F ] o , B  .$.] S   _ f.f.f.f.v   [ @.f.%.[ #                       ",
"  F.).!.!.!.!.!.!.L.h.h.h.      m Z   q } ,.y.r./   L @.f.r.@.h   e.r.f.w.e.#                       ",
"  E.'.!.!.!.!.!.!.U.c.h.h.      5 p   q [ 9.f.f._   2 W 1.1.F e   f.f.f.f.f.a                       ",
"  (.}.!.!.!.!.!.!.K.h.h.h.            q [ 9.f.f.`       o o   o   f.f.f.f.f.a                       ",
"  /.{.!.!.!.!.!.!.I.h.h.h.            w [ 9.f.f.`   > e c l 9 +   f.f.f.f.f.a                       ",
"  G.`.!.!.!.!.!.!.L.h.h.h.          o q [ 9.f.f.`   S [ f.w.[ q   f.f.f.f.f.#                       ",
"  G.`.!.!.!.!.!.!.I.h.h.h.            q [ 9.f.f._   ^ r.f.d.r.c   f.f.f.f.f.a                       ",
"  G.`.!.!.!.!.!.!.I.h.h.h.            q [ 9.f.f.`   _ f.f.f.f.c   f.f.f.f.s.#                       ",
"  S.!.!.!.!.!.!.!.L.c.h.h.            q [ 9.f.f.`   _ f.f.f.f.c   f.f.f.f.f.a                       ",
"  S.!.!.!.!.!.!.R.J.c.h.h.          o 8 C ,.t.9.!   ` f.f.f.f.c o 9.w.f.t.1.#                       ",
"  S.!.!.!.!.!.Q.Z.M.h.h.h.            , B  .*.[ S o _ f.f.f.f.c   [ { f.*.[ +                       ",
"  z.P.!.!.!.Y.K.v.c.h.c.h.            . - : s : +   _ f.f.f.f.v   : s d s :                         ",
"  j.Z.!.!.!.K.Z.c.c.c.c.h.                  o o     _ f.f.f.f.v       X                             ",
"  3.h.h.h.h.h.h.h.c.v.8.8.            * B  .*.[ S   _ f.f.f.f.v   *.#.[ w                           ",
"  Q 2.2.2.2.2.2.2.2.2.~ T             < V -.9.&.I   _ f.f.f.f.v   9.>.{ f                           ",
"                                      q ] 9.f.f._ o ` f.f.f.f.v   f.y.5.g                           ",
"  ) 2.2.2.2.2.2.2.2.2.~ T             q [ 9.d.f._   P &.d.r.&.g   f.f.w.x                           ",
"  3.c.b.h.h.h.h.h.h.c.u.8.            w [ 9.f.f.`   S ] d.i.] e   f.f.f.x                           ",
"  j.K.!.!.!.K.Z.c.h.h.h.h.            q ] 9.f.f.`                 f.f.f.v                           ",
"  x.P.!.!.!.R.K.m.b.h.h.h.      ; ,   w [ 9.f.f.`   > e c z e O   f.f.f.v                           ",
"  S.~.!.!.!.!.Q.Z.M.h.h.h.      i B o w [ q.f.f.`   S [ d.r.[ e   f.f.s.v                           ",
"  S.!.!.!.!.!.!.R.Z.h.h.h.      M C o q [ 9.f.f.`   ! 9.d.d.9.z o f.s.q.l                           ",
"  S.!.!.!.!.!.!.!.P.v.h.c.      F [ o w ] 9.f.f.`   ` f.f.f.f.c   s.t.5.g                           ",
"  G.`.!.!.!.!.!.!.P.c.c.h.      F [   , B  .*.[ K   ` f.f.f.f.v   *.#.[ w                           ",
"  ^.].!.!.!.!.!.!.U.h.h.h.      M [   & i Y E M r   _ f.f.f.f.v   E R F :                           ",
"  (.}.!.!.!.!.!.!.Z.h.h.h.  o X F [         o       _ f.f.f.f.v                                     ",
"  (.}.!.!.!.!.!.!.K.h.h.h.      F [ o O 5 H U n q   / d.f.f.f.v   S L _ I S X                       ",
"  (.}.!.!.!.!.!.!.P.h.h.h.      C ]   : B  .*.[ n o _ f.f.f.f.c   [ @.f.;.[ + o                     ",
"  G.'.!.!.!.!.!.!.I.c.h.h.      y N   0 ] 7.i.i./   S X.f.e.{ f   i.i.f.s.r.$                       ",
"  F._.!.!.!.!.!.!.P.c.h.h.      4 y   w ] 7.f.f._ o 1 D <.+.D :   f.f.f.f.s.a                       ",
"  S.!.!.!.!.!.!.!.I.h.h.h.      o     w [ 9.f.f.`           o o   f.f.f.f.f.a                       ",
"  S.!.!.!.!.!.!.!.L.h.h.h.      3 5   q [ 9.f.f.`   e S _ ^ S :   f.f.f.f.f.a                       ",
"  S.!.!.!.!.!.!.!.I.h.h.h.      i B   q [ 9.f.f.`   S [ f.r.[ q   f.f.f.f.f.a                       ",
"  G._.!.!.!.!.!.!.I.h.h.h.      K ]   q [ 9.f.f.`   / i.f.f.i.k   f.f.f.f.f.$                       ",
"  ^.].!.!.!.!.!.!.I.h.h.h.      F [ o w [ 9.f.f.`   ` f.f.f.f.v o f.f.f.d.d.a                       ",
"  (.}.!.!.!.!.!.!.I.h.h.h.      F [ o q [ 9.f.d.`   ` f.f.f.f.v o f.f.f.f.s.a                       ",
"  /.[.!.!.!.!.!.!.I.c.h.h.      F [   6 C ;.w.*.U   ` f.f.f.f.v   *.1.f.e.>.#                       ",
"  G.`.!.!.!.!.!.!.I.h.h.h.      M [   : B  .$.[ G   _ f.f.f.f.v   [ @.f.%.[ +                       ",
"  D.~.!.!.!.!.Q.H.B.h.h.h.      M [ o o X O # + o   ` f.f.f.f.v   + + a # +                         ",
"  A.R.!.!.!.W.R.V.m.h.h.h.      C [ o o - > s , =   ` f.f.f.f.v   s : : +                           ",
"  j.K.!.!.!.K.V.c.h.h.h.h.      M [   * B  .*.[ S   ` f.f.f.f.v o 5.%.[ w                           ",
"  4.N.J.J.J.V.m.h.h.h.a.p.      P [   w C ;.e.*.U   ` f.f.f.f.v   w.q.{ f                           ",
"  3.c.c.g.b.h.g.b.v.g.u.8.      J [   q ] 9.f.f._   ` f.f.f.d.v   s.e.5.g                           ",
"  a a a a a a - a a a a $       i N o q [ 9.f.f._ o G ..d.i.{ e   f.f.s.x X                         "
};
