/* XPM */
static char *wall_end1730381360[] = {
/* columns rows colors chars-per-pixel */
"50 50 146 2 ",
"   c #3F3851",
".  c #463950",
"X  c #473A51",
"o  c #443852",
"O  c #483852",
"+  c #4D3950",
"@  c #4C3A50",
"#  c #4D3A51",
"$  c #4F3C51",
"%  c #4F3D52",
"&  c #513754",
"*  c #5B3755",
"=  c #533A50",
"-  c #543A51",
";  c #513F53",
":  c #513854",
">  c #5A3B50",
",  c #5B3B50",
"<  c #5C3C50",
"1  c #5E3E51",
"2  c #6F3D4F",
"3  c #763E4F",
"4  c #7D3F4F",
"5  c #643756",
"6  c #6D3757",
"7  c #623C50",
"8  c #693C50",
"9  c #683D50",
"0  c #6F3D50",
"q  c #683955",
"w  c #6D3758",
"e  c #713857",
"r  c #5F4051",
"t  c #5E4153",
"y  c #604454",
"u  c #624756",
"i  c #6B4152",
"p  c #6E4351",
"a  c #6F4351",
"s  c #6D4253",
"d  c #6C4353",
"f  c #6F4352",
"g  c #714754",
"h  c #784050",
"j  c #784150",
"k  c #7B4553",
"l  c #7C4753",
"z  c #7F4752",
"x  c #744E58",
"c  c #843F4E",
"v  c #843F4F",
"b  c #8D375A",
"n  c #89365C",
"m  c #8E385A",
"M  c #973B56",
"N  c #9B3D55",
"B  c #923958",
"V  c #973F59",
"C  c #84404F",
"Z  c #92414E",
"A  c #94444F",
"S  c #864351",
"D  c #804D56",
"F  c #824F57",
"G  c #8B4953",
"H  c #8F4B52",
"J  c #8C4B54",
"K  c #8E4E56",
"L  c #954450",
"P  c #964751",
"I  c #9C4057",
"U  c #9F4F52",
"Y  c #9C4F55",
"T  c #845259",
"R  c #86555A",
"E  c #905156",
"W  c #905157",
"Q  c #9E5356",
"!  c #925458",
"~  c #945759",
"^  c #965A5B",
"/  c #975D5C",
"(  c #985D5C",
")  c #A0434E",
"_  c #AA424F",
"`  c #AE444E",
"'  c #B0464F",
"]  c #B2494F",
"[  c #A94250",
"{  c #A34850",
"}  c #A44851",
"|  c #AD4852",
" . c #B24A50",
".. c #B64F52",
"X. c #B64F53",
"o. c #B84F51",
"O. c #AA5154",
"+. c #AD5757",
"@. c #A15859",
"#. c #A45B5A",
"$. c #B65053",
"%. c #BA5252",
"&. c #BD5552",
"*. c #BF5753",
"=. c #B85354",
"-. c #B95354",
";. c #B95656",
":. c #BA5656",
">. c #BE5854",
",. c #BC5957",
"<. c #B15D59",
"1. c #B35F5B",
"2. c #BD5B58",
"3. c #BF5C58",
"4. c #BF5E59",
"5. c #BF5E5A",
"6. c #A7615D",
"7. c #A9645E",
"8. c #A9645F",
"9. c #B5635C",
"0. c #B7655E",
"q. c #B7665E",
"w. c #BB6B61",
"e. c #BB6C61",
"r. c #C15A55",
"t. c #C05B55",
"y. c #C25E57",
"u. c #C1605A",
"i. c #C1615A",
"p. c #C1615B",
"a. c #C46159",
"s. c #C46259",
"d. c #C6655B",
"f. c #C3645C",
"g. c #C5675D",
"h. c #C5675E",
"j. c #C76A5F",
"k. c #C8695D",
"l. c #C86A5E",
"z. c #C96C5F",
"x. c #C96D60",
"c. c #C96D61",
"v. c #CB7061",
"b. c #CB7062",
"n. c #CC7162",
"m. c #CD7363",
/* pixels */
"                                                                                                    ",
"                                                                                                    ",
"n n ` ` ` ` ` ` ` ` ` ` M n 5   * n B ` ` ` ` ` ` ` ` ` ` b n :   6 n N ` ` ` ` ` ` ` ` ` _ n n     ",
"n n ` ` ` ` ` ` ` ` ` ` M n 5   * n B ` ` ` ` ` ` ` ` ` ` m n :   6 n N ` ` ` ` ` ` ` ` ` _ n n     ",
"=.=.c.c.c.c.c.c.z.c.z.v.5.=.l   i =.,.z.c.c.c.c.c.c.c.l.c.=.=.y   J =.i.c.c.c.c.z.c.c.c.c.z.$.=.    ",
"*.*.m.m.m.m.m.m.m.m.m.m.a.*.z   d *.i.m.m.m.m.m.m.m.m.m.m.,.r.1   J *.d.m.m.m.m.m.m.m.m.m.v.*.r.    ",
"] ] m.m.m.m.m.m.m.m.m.m.,.] j . i ] =.m.m.m.m.m.m.m.m.m.m...' 1   C ' 5.m.m.m.m.m.m.m.m.m.c.] ]     ",
"` ` m.m.m.m.m.m.m.m.m.m.=.` e   2 _ $.v.m.m.m.m.m.m.m.m.m.] ` ,   C ` 2.m.m.m.v.m.m.m.m.m.z.` `     ",
"8 8 x x x x x x x x x x d 8 -   O 2 i x x x x x x x x x x i 2 .   > 2 i x x x x x x x x x x 9 2     ",
"                                                  o               o       o o o                     ",
"/ / / / / / S v #   8 v W / / ( / / / / W S C .   C C ^ / / / / ( ( ( ( / / / E C 2   . c c / / / / ",
"m.m.m.m.m.m. .` ,   C ` i.m.m.m.m.m.m.c.g.` L     ` ` z.m.m.m.m.m.m.m.m.m.m.m.q.` Z   % _ ' m.m.m.m.",
"m.m.m.m.m.m.5.2.t   K ,.l.m.m.m.m.m.m.m.z.t.+.    5.,.m.m.m.m.m.m.m.m.m.m.m.m.l.2.Q   % ,.5.m.m.m.m.",
"m.m.m.m.m.m.m.m.u   / m.m.m.m.m.m.m.m.m.m.m.e.    m.m.m.m.m.m.m.m.m.m.m.m.m.m.m.m.7.  t m.m.m.m.m.m.",
"m.m.m.m.m.m.f.i.u   K i.c.m.m.m.m.m.m.m.l.i.+.    0.i.c.m.m.m.m.m.m.m.m.m.m.m.z.f.Q   . i.g.m.m.m.m.",
"m.m.m.m.m.m. .` ,   C ` i.m.m.m.m.m.m.m.d.' )   o ' ` x.m.m.m.m.m.m.m.m.m.m.m.0.` Z   O ` | m.m.m.m.",
"7.7.7.7.6.6.Z j =   2 z / 7.7.6.7.7.7.7.~ C l     A l ( 7.7.7.7.7.7.7.7.7.7./ / G j . # c G 6.7.7.7.",
"                        o                 o             o                                           ",
"t   t   t t t t r . r r t o o   . ; % t t t t t t t t t t t t     . @ % t t t t t % % ; t t @ #     ",
"_ { m.m.m.e.m.m.m.m.m.m.=.` j   d =.5.v.m.m.q.m.x.m.q.m.e.>.=.t   v ` 4.v.v.e.v.c.m.m.m.m.m.` `     ",
"] ] m.m.m.m.m.m.m.m.m.m.*.] j   d r.4.z.z.m.m.m.m.m.m.v.x.>.&.r   C ] u.m.m.m.m.m.m.m.m.m.c. .]     ",
"m.m.m.m.m.m.m.m.m.m.m.m.m.m.R   2 ` ' *.0.m.m.m.m.m.m.9.;.| | >   / m.m.m.m.m.m.m.m.m.m.m.m.m.m.    ",
"m.m.m.m.m.m.m.m.m.m.m.m.v.m.R   2 _ ' *.a.z.m.m.m.m.m.&.&.` ' >   / m.v.m.m.m.m.m.m.m.m.m.m.m.m.    ",
"' _ m.m.m.m.m.m.m.m.m.m.=.` j           . o o   o @             o C ' 0.m.m.m.m.m.m.m.m.m.c.[ [     ",
"_ ' m.m.m.v.m.m.m.m.m.m.;.` j                                     S _ 4.m.m.m.m.m.m.m.m.m.z.` `     ",
"    o . o                     o                                               o               o     ",
"    A P q.q.q.q.e.e.e.e.q.e.+.I j o                                   e A | 0.e.e.w.e.e.e.e.e.e.A I ",
"    ' ' m.m.m.m.m.m.m.m.m.m.2.` C             o                       j ] *.v.m.m.v.m.m.m.v.m.m.`  .",
"    f.j.m.m.m.m.m.m.m.m.m.m.x.g.~   = A A U U 7.7.7.7.7.6.Q U A C 2   z j.c.m.m.m.m.m.m.m.m.m.m.k.k.",
"    m.m.m.m.m.m.m.m.m.m.m.m.m.m./   > ` ] &.>.n.m.m.m.m.v.s.&.] _ 2   R m.m.m.m.m.m.m.m.m.m.m.m.n.n.",
"    ,.=.m.m.m.m.m.m.m.m.m.m.g.=.H   r o.%.k.v.m.m.m.m.m.n.k.k.&...a   k =.p.m.m.m.m.m.m.m.m.m.m.=.&.",
"    ` ] z.m.m.m.m.m.m.m.m.m.>.` C   r %.a.n.n.m.m.m.m.m.m.n.n.s.r.d   3 _ ,.m.m.m.m.m.m.m.m.m.m.` ' ",
"    2 9 x x x x x x x x x x d 9 < o . d d x x x x x x x x x x g d %   = 2 i x x x x x x x x x x 9 9 ",
"                      o       o           o                                                     o o ",
"R R R R j j o   2 j D R R R R R R R R R R R T j 3     2 3 F R R R R R R R D 3 7   O j j R R R R R R ",
"m.m.m.m.] ` .   C ` t.m.m.m.m.m.m.m.m.m.m.m.c.` ` o o L ` j.m.m.m.m.m.m.m.i.` C   < ` ] m.m.m.m.m.m.",
"m.m.m.m.,.=..   Q =.j.m.m.m.m.m.m.m.m.m.m.m.v.=.=.    O.=.z.m.m.m.m.m.m.m.j.=.J o t ;.=.m.m.m.m.m.m.",
"m.m.m.m.m.m.t   6.m.m.m.m.m.m.m.m.m.m.m.m.m.m.m.v.    j.m.m.m.m.m.m.m.m.m.v.m./   u m.m.m.m.m.m.m.m.",
"m.m.m.m.z.j.%   #.j.z.m.m.m.m.m.m.m.m.m.m.m.m.l.j.    9.g.z.m.m.m.m.m.m.m.v.j.E   t j.f.m.m.m.m.m.m.",
"m.m.m.m.| ` . o C ` 0.m.m.m.m.m.m.m.m.m.m.m.z.` `     L ` g.m.m.m.m.m.m.m.i.` C   t `  .m.m.m.m.m.m.",
"e.e.e.0.{ L .   c _ #.e.e.e.e.e.0.e.e.0.e.e.7.A L     S N 1.w.w.e.q.q.q.9.9.I j   ; I { q.q.e.e.0.0.",
"    o   o     o o o                 o     o             o     o o . o   .               o o   o   o ",
"    X % t t t . % t . t . t @ @ .   . @ . t @ t t t t t t . ; # X X   . X t t @ ; % ; % t t t t # # ",
"    ` _ c.e.m.m.m.m.m.m.m.m.5._ c   , ` $.m.m.m.v.e.m.m.v.v.m.X.` d   p _ =.m.m.m.m.m.m.e.m.m.e.` ` ",
"    ` ` z.m.m.m.m.m.m.m.m.m.5._ c   , `  .m.m.m.m.m.m.m.m.m.m.X.` d   h ` =.m.m.m.m.m.m.m.m.m.m.` ` ",
"    *.*.v.m.m.m.m.m.m.m.m.m.j.*.H   1 ,.0.m.m.m.m.m.m.m.m.m.m.y.*.p   l >.s.m.m.m.m.m.m.m.m.m.m.r.r.",
"    *.*.v.v.m.m.m.m.m.m.m.m.g.*.H   1 r.,.m.m.m.m.m.m.m.m.m.m.t.*.d   z 2.s.m.m.m.m.m.m.n.n.m.m.r.=.",
"    m m | $.] ] $.] ] ] ] ] N b 6 o = B N ]  .]  . .` O. . . .V m >   q m I ] ] ..] ] ] ] O.$.{ b B ",
"    n n [ _ ` ` _ ` ` ` ` ` N n w o & n b | ` ` ` ` ` ` ` ` ` B n ,   5 n M [ ` ` ` ` ` ` ` ` ` n n ",
"    O t < < < < > < < < , < = & .   o & : , , , , , , , , , , - : . o . & = , 1 , , , , , , , , & & "
};
