/* XPM */
static char *player_61730234253[] = {
/* columns rows colors chars-per-pixel */
"50 50 186 2 ",
"   c #3F3851",
".  c #543A4E",
"X  c #423C55",
"o  c #4E3852",
"O  c #593952",
"+  c #653C4F",
"@  c #793E4E",
"#  c #683953",
"$  c #783854",
"%  c #3B4159",
"&  c #2E5870",
"*  c #286078",
"=  c #346171",
"-  c #4B4056",
";  c #45425A",
":  c #49465E",
">  c #4B495E",
",  c #544253",
"<  c #564956",
"1  c #504459",
"2  c #554B5B",
"3  c #5B4A5C",
"4  c #654955",
"5  c #68535D",
"6  c #474962",
"7  c #4C4A60",
"8  c #534E64",
"9  c #4B526A",
"0  c #565065",
"q  c #575569",
"w  c #4F5A72",
"e  c #604F60",
"r  c #655463",
"t  c #6E5967",
"y  c #715B69",
"u  c #7B5D6B",
"i  c #675E70",
"p  c #57667D",
"a  c #75616D",
"s  c #7B616D",
"d  c #656C7D",
"f  c #7A6E76",
"g  c #E44B3B",
"h  c #873657",
"j  c #953B53",
"k  c #B93A57",
"l  c #C33D54",
"z  c #8D424E",
"x  c #9A414D",
"c  c #82565A",
"v  c #A34348",
"b  c #BD464A",
"n  c #946159",
"m  c #A96856",
"M  c #845E6C",
"N  c #8F6364",
"B  c #82626E",
"V  c #836671",
"C  c #8B6672",
"Z  c #846B73",
"A  c #8E6F76",
"S  c #916271",
"D  c #9B6976",
"F  c #887675",
"G  c #89747B",
"H  c #927278",
"J  c #9A757B",
"K  c #997B7D",
"L  c #A87566",
"P  c #A76E79",
"I  c #A3737B",
"U  c #AD707B",
"Y  c #AC797A",
"T  c #B0757D",
"R  c #B2787F",
"E  c #CE474A",
"W  c #D5464C",
"Q  c #DA4A49",
"!  c #D4534E",
"~  c #DE534E",
"^  c #D14F50",
"/  c #E25C52",
"(  c #CE705B",
")  c #E96A4A",
"_  c #E46355",
"`  c #E96C59",
"'  c #ED745E",
"]  c #D67662",
"[  c #D07769",
"{  c #F07860",
"}  c #9D8C75",
"|  c #AF8064",
" . c #B18E6C",
".. c #B39574",
"X. c #EE8357",
"o. c #EF895A",
"O. c #D19167",
"+. c #C98574",
"@. c #F28467",
"#. c #EF8F77",
"$. c #EF8F78",
"%. c #EF957D",
"&. c #F59470",
"*. c #D3A674",
"=. c #F3AC6F",
"-. c #EFB375",
";. c #F4B475",
":. c #F6C27D",
">. c #2E7581",
",. c #5D798F",
"<. c #616D83",
"1. c #7D7C8C",
"2. c #9C7C80",
"3. c #A27D80",
"4. c #A97D81",
"5. c #B37B81",
"6. c #28818C",
"7. c #6F8397",
"8. c #668498",
"9. c #708A9E",
"0. c #7F8E9A",
"q. c #768EA1",
"w. c #7C96A6",
"e. c #958687",
"r. c #8D8B99",
"t. c #A58687",
"y. c #AE8585",
"u. c #B58385",
"i. c #B98386",
"p. c #BA8788",
"a. c #B48988",
"s. c #BA8D8B",
"d. c #B3908D",
"f. c #AB9997",
"g. c #B69793",
"h. c #B99B95",
"j. c #B6A886",
"k. c #BDA198",
"l. c #829CAB",
"z. c #949AA5",
"x. c #85A1AE",
"c. c #86A2B0",
"v. c #89A6B3",
"b. c #8CA9B5",
"n. c #90ABB6",
"m. c #92AFB9",
"M. c #95B2BC",
"N. c #99B6BE",
"B. c #BEA9A4",
"V. c #AFAFB8",
"C. c #C08F8D",
"Z. c #C1928E",
"A. c #D39683",
"S. c #C39490",
"D. c #C59A94",
"F. c #C89D97",
"G. c #C89F98",
"H. c #EF9B83",
"J. c #D7A08D",
"K. c #C4A69E",
"L. c #CAA39B",
"P. c #CDAA9F",
"I. c #DEAA95",
"U. c #DEB19C",
"Y. c #C0ADA3",
"T. c #CEACA2",
"R. c #C0ADA8",
"E. c #D4B7AC",
"W. c #D5BCB2",
"Q. c #DAC793",
"!. c #F9D38E",
"~. c #F4D595",
"^. c #FDE49E",
"/. c #E9C0AB",
"(. c #E6CBB6",
"). c #ECD3BD",
"_. c #FFEFA9",
"`. c #9DBAC1",
"'. c #A2BEC5",
"]. c #A5C2C7",
"[. c #AFC9CD",
"{. c #B8CFD3",
"}. c #C6D9DB",
"|. c #DFE9EA",
" X c #E8F0F0",
".X c #F2F7F6",
/* pixels */
"Z.S.S.S.S.s.V S.S.S.S.S.S.A d.D.Z.Z.Z.D.d.B 5.i.i.i.i.5.C Y Z.S.S.S.S.s.V S.S.S.S.S.S.A d.D.Z.s.i.i.",
"S.S.S.S.S.s.V S.S.S.S.S.S.A d.D.Z.D.Z.Z.s.B s.Z.Z.Z.Z.Z.A y.S.S.S.S.S.s.V S.S.S.S.S.S.A d.D.Z.S.Z.Z.",
"S.S.S.S.S.s.V S.S.S.S.S.S.A a.Z.Z.Z.Z.D.s.V S.S.S.S.S.S.A y.S.S.S.S.S.s.V s.D.S.S.S.S.A y.Z.S.Z.Z.S.",
"S.S.S.S.S.s.V S.S.S.S.S.S.A y.Z.S.D.Z.Z.s.V S.S.S.S.S.S.A y.S.S.S.S.S.s.V D.Z.S.S.S.S.A a.S.S.Z.S.S.",
"s.S.S.S.g.Y V S.S.S.S.S.Z.A I s.S.S.Z.Z.Y V S.S.S.S.S.S.A I s.S.D.S.Z.I Z S.S.S.S.S.Z.A I s.Z.Z.S.Z.",
"V V V V B u V S.S.S.S.S.Z.A u B Z Z Z V u V S.S.S.S.S.S.A u B Z V V V u V S.S.S.S.S.D.A s B Z Z Z V ",
"a.s.a R p.D Z T.S.S.S.Z.S.A D a.s I s.a.D V S.S.S.S.S.S.A D a.u I s.p.D Z P.S.S.S.S.S.A D a.u I s.p.",
"Z.S.s S.S.a.Z P.S.S.S.Z.D.A y.Z.u p.Z.S.a.Z S.S.S.S.Z.Z.A y.Z.a s.S.S.a.Z T.S.S.S.S.S.A y.Z.a p.S.Z.",
"S.S.S.S.S.s.f S.S.S.S.S.S.A y.S.a K.S.S.s.Z P.S.S.S.S.S.A y.S.S.S.S.S.s.V S.S.S.S.S.S.H y.S.u T.S.S.",
"S.S.Z.S.S.s.Z T.S.S.S.S.S.A y.S.Z.D.S.S.s.Z S.Z.S.S.S.S.A y.Z.Z.S.S.S.s.G T.S.S.S.S.S.A y.S.s.D.S.S.",
"C.Z.R D.S.s.G W.S.S.S.S.S.A y.S.Z.T.S.S.s.Z D.Z.S.S.S.S.A a.S.5.S.S.S.s.G W.s.S.S.S.S.A y.S.Z.T.S.S.",
"R Z.C.T.D.s.G W.S.S.S.S.S.A y.S.5.L.S.D.s.Z P.S.S.S.S.S.A y.Z.C.T.S.S.s.G W.S.S.S.S.S.A y.S.5.L.S.S.",
"U C.T P.Z.s.G E.S.S.S.S.S.A a.Z.S.Z.S.S.s.Z T.S.S.S.S.S.A y.Z.T L.S.S.s.G W.S.S.S.S.S.A y.S.S.S.S.S.",
"U C.u.L.Z.s.Z P.S.S.S.S.S.A y.S.s.Z.S.S.d.Z T.Z.S.S.S.S.A y.Z.u.D.Z.S.s.Z L.S.S.S.S.S.A y.S.p.S.S.S.",
"U C.Z.L.Z.s.Z L.S.S.S.S.S.A a.Z.T D.S.S.s.u 2 < 1 1 y S.A - 1 1 2 : 1 - s t.: 1 S.S.S.A y.S.T D.S.S.",
"U C.S.S.S.s.Z L.S.S.S.S.S.A y.Z.T F.S.S.4.< v m | L n y 3 m |  ...j. .j.F F j. .y a.S.A y.S.T D.S.S.",
"U S.S.S.S.s.Z G.S.S.S.S.Z.H y.S.i.Z.Z.S.3.. ) o.=.;.O.    O.;.*.} } L ~.F F _.!.% } s.A y.S.i.Z.S.S.",
"U s.S.S.S.s.V S.S.S.S.S.Z.A y.S.S.S.S.S.3., o.o.=.:.*.4 5 -.:...<   4 Q.} } _._.% | S.G y.S.S.S.S.S.",
"U s.S.S.S.s.V S.S.S.S.S.S.A y.S.S.S.S.S.3., o.o.=.:.;.o.:.:.:.;.( % o.!.!.!._._.  3.S.A y.S.S.S.S.S.",
"U Z.S.S.S.s.V 5.S.S.S.S.i.C y.S.S.S.S.S.Y . g X.=.:.;.o.:.:.:.:.:.:.:.^.!.!._.:.  3.i.C y.S.S.S.S.S.",
"s.S.S.S.S.s.y s V V V V s y a.S.S.S.S.S.3.X . , < < < , < < < < 2 < < 2 2 < 3 <   y s y u.S.5.5.5.V ",
"S.S.S.S.S.s.u Y s.a.A H R B y.Z.S.S.S.J i p <.X 9 p <.<.r.; d 0.0.0.  z.z.d 1 V.V.i M B y.S.T U U t ",
"S.S.S.S.S.s.Z s.S.S.J J Z.Z h.D.S.S.S.B ; p p X 9 p d <.0.; d 0.0.0.  r.z.d : V.V.i u C g.D.Y U U t ",
"S.S.S.S.S.s.Z S.S.s.J J S.A h.D.S.S.S.Z X   O + + 4 + + + 3 5 5 r r r r 5 4 + + X X V A g.G.5.U U C ",
"S.S.S.S.S.s.V S.Z.Z.I t.F.A R.L.S.S.Z.V X o k Q Q Q Q Q Q [ J.U.U.U.U.U.A.] Q Q   X V A R.G.U U U P ",
"F.S.S.S.S.s.V S.D.Z.S.L.F.A B.L.S.S.S.S.I o Q Q ~ ` ' _ U., f.).).).).).f s I._   t.F.A R.F.5.U U U ",
"D.S.S.S.S.s.V S.S.S.p.s.D.A B.L.S.S.S.S.I o l W _ ' { ' (.Y.(./.@.$.#.#.D.E./.'   2.D.A B.G.U U U U ",
"D.S.S.S.S.s.V S.S.Z.C.D.D.A h.D.S.S.S.S.3.X # E / _ _ { H.H.H.$.( c c ] $.H.%.{ X t.D.A h.D.5.U U U ",
"D.S.S.S.S.A r H H H C C A y G K S.S.S.y.V     j ^ ~ ~ { { { @.@.] c N ] { { { {   J S.A h.D.5.U U U ",
"D.S.S.S.a.0 7 7 q q 8 > 0 8 > 0 a.S.s.V 2 1 - X x E ! ' ' { @.@.{ &.&.&.@.{ ' '   C s.A d.D.p.5.U U ",
"D.S.S.a.X .X{.}..X.X.X[.|.}.`.x.  a.y e.(.I.+., h $ + _ Q ' { { { { { ' { { ' / X X V A d.D.S.C.5.5.",
"D.S.S.a.  ].m.n.b.b.b.b.b.b.c.7.  a.y e.).).U., X X + Q Q ' ` / ~ { { ` ~ ~ / W   R.e.1 s.D.S.S.S.D.",
"Z.S.S.a.  '.m.M.N.b.b.b.`.m.c.7.  a.t e.).).U.Y 5   O l + ^ ! Q Q / ~ ~ z z Q Q   B.e.; y.S.S.S.S.S.",
"S.S.S.y.X ].m.b.b.b.b.b.b.b.c.7.X u.t e.W.} A +.L 3 o $   k E b x E Q l $ $ E h   k.} , 3.V s a.S.S.",
"s.S.S.a.  '.m.c.l.b.b.b.l.l.c.7.  Z 0 a e.    N N 5 X X   h j @ o h v j O # h     Z y - B <.1.Z y.Z.",
"V V V a X '.m.b.b.b.b.b.n.n.c.7.  X X X ;   6 6 7 : 7 o 7 0 8 8 0 0 0 7 7 6 ; : : ; %   7 '.|.d e V ",
"a.s.u J   '.m.b.b.b.b.b.b.b.c.7.      w ,.8.b.b.n.N.].].]. X}.{..X.X.X{.'.`.b.b.b.8.w   : b.'.q s i.",
"Z.S.s y.X '.m.b.b.b.b.b.n.b.c.7.  X   X ; X : X : : 7 7 7 0 8 7 0 0 8 1 7 7 : : > : X X X 8.b.w V Z.",
"S.S.s a.X '.m.b.b.b.b.b.b.b.c.7.  A t.I A X X X X               X       X     X   Z I s G 6 q G a.Z.",
"S.S.Z.a.  '.m.m.M.b.b.n.M.m.c.7.  a.s.s.D   = &                 X X           &   3.Z.H 3.V B a.C.C.",
"C.Z.T a.  ].m.M.m.b.b.b.M.M.c.7.  P U U S % 6.* 6 e e e 2 3 0 5 r e e 0 2 q % >.r t.S.A a.S.Z.i.U U ",
"T C.C.K.  '.n.w.w.v.v.v.w.w.l.7.X D U U S   * > J S.S.S.A u.Z.C.T.S.S.s.G f., 1 Z.Z.S.A y.Z.5.U U U ",
"U C.T h.  b.w.q.q.q.q.q.q.q.9.,.  D U U S     a.S.S.S.S.A y.S.R L.Z.S.s.G E.S.S.Z.S.S.A a.S.T U U U ",
"U C.u.G.a.: : ; ; ; ; : ; ; ; 8 P U U U P f h.S.S.S.S.S.A y.S.5.D.S.S.s.Z T.S.S.S.S.S.A y.Z.T T U U ",
"U C.S.L.S.K u t.3.3.3.3.3.s H y.T U U U P Z T.S.S.S.S.S.A y.Z.S.L.S.S.s.Z L.S.S.S.S.S.A y.Z.T U U U ",
"U C.S.S.S.s.Z L.S.S.S.S.S.A y.S.T U U U D Z L.S.S.S.S.S.A y.Z.S.S.S.S.s.Z G.S.S.S.S.S.A y.Z.T U U U ",
"U C.S.S.S.p.Z G.S.S.S.S.S.A y.S.U U U D u V S.S.S.S.S.S.A y.S.S.S.S.S.s.Z F.S.S.S.S.Z.A y.S.T U U D ",
"U Z.S.S.g.s.V S.S.S.S.S.S.A y.S.5.U U u t V S.S.S.S.S.S.H g.D.S.S.S.S.s.Z S.S.S.S.S.Z.A a.S.T U U u ",
"U C.S.S.S.s.Z Z.S.S.S.S.S.A a.Z.U U U t t V S.S.S.S.S.S.A h.D.S.S.S.S.s.s S.S.S.S.S.S.A y.S.T U U t ",
"U C.S.Z.S.s.M u.S.S.S.S.i.V y.S.T U U t t B 5.S.S.S.S.p.V h.D.S.S.S.S.s.s i.S.S.S.S.p.C y.S.Y U U t "
};
