/* XPM */
static char *player_51730234254[] = {
/* columns rows colors chars-per-pixel */
"50 50 190 2 ",
"   c #3F3851",
".  c #543A4E",
"X  c #453C54",
"o  c #4A3D52",
"O  c #543951",
"+  c #6B3854",
"@  c #753A53",
"#  c #3C445A",
"$  c #374C62",
"%  c #325F71",
"&  c #2B6379",
"*  c #4B4056",
"=  c #454058",
"-  c #524356",
";  c #514459",
":  c #56495C",
">  c #5C4C5F",
",  c #7E434B",
"<  c #6C5459",
"1  c #705159",
"2  c #78635F",
"3  c #4C4960",
"4  c #4A546B",
"5  c #565367",
"6  c #585A6F",
"7  c #535D74",
"8  c #5D5D72",
"9  c #604F61",
"0  c #665363",
"q  c #6E5967",
"w  c #675868",
"e  c #755665",
"r  c #715B68",
"t  c #7B5D6B",
"y  c #605E71",
"u  c #57657B",
"i  c #5A6379",
"p  c #76676B",
"a  c #7A606C",
"s  c #6A6272",
"d  c #67687B",
"f  c #933658",
"g  c #AA3857",
"h  c #BD375A",
"j  c #C53D55",
"k  c #8F434B",
"l  c #845957",
"z  c #A5434C",
"x  c #B5484D",
"c  c #BB5853",
"v  c #83635C",
"b  c #976156",
"n  c #AE645D",
"m  c #875C61",
"M  c #846C62",
"N  c #81626E",
"B  c #876C6E",
"V  c #86786D",
"C  c #987A67",
"Z  c #836671",
"A  c #8D6373",
"S  c #846B73",
"D  c #8E6F76",
"F  c #9B6976",
"G  c #877577",
"H  c #88747B",
"J  c #927279",
"K  c #99767B",
"L  c #9D7B7C",
"P  c #A56D78",
"I  c #AB6F7B",
"U  c #A3737B",
"Y  c #AD707B",
"T  c #AD797F",
"R  c #B0757D",
"E  c #B5797A",
"W  c #C3454B",
"Q  c #D6474A",
"!  c #D4464C",
"~  c #DA4A49",
"^  c #CA4F53",
"/  c #D95851",
"(  c #E75A43",
")  c #E05650",
"_  c #E35D53",
"`  c #C8675B",
"'  c #C3685C",
"]  c #E86246",
"[  c #E66456",
"{  c #EA6B5A",
"}  c #ED745E",
"|  c #F07860",
" . c #9D8A74",
".. c #9C8A75",
"X. c #B3847C",
"o. c #EF895A",
"O. c #F0905E",
"+. c #CE8775",
"@. c #F28366",
"#. c #F09964",
"$. c #E98975",
"%. c #EE947D",
"&. c #F69871",
"*. c #CFAA7A",
"=. c #F2A46C",
"-. c #EAB678",
";. c #F5BB78",
":. c #F6C27D",
">. c #297182",
",. c #596E84",
"<. c #616D83",
"1. c #657083",
"2. c #687689",
"3. c #777484",
"4. c #727D8C",
"5. c #6F7E90",
"6. c #8A7A82",
"7. c #A27D80",
"8. c #A97D81",
"9. c #B37B81",
"0. c #29838C",
"q. c #298A91",
"w. c #2E9695",
"e. c #36A89B",
"r. c #6D889C",
"t. c #788593",
"y. c #798D9C",
"u. c #768EA1",
"i. c #7B94A5",
"p. c #7E98A9",
"a. c #A58585",
"s. c #AD8585",
"d. c #B58385",
"f. c #B98386",
"g. c #B48D84",
"h. c #B68888",
"j. c #B98D8B",
"k. c #B3908D",
"l. c #AB9995",
"z. c #B79994",
"x. c #BAA49B",
"c. c #8398A6",
"v. c #8B9FA9",
"b. c #9595A1",
"n. c #9897A3",
"m. c #87A2AF",
"M. c #92A4AE",
"N. c #88A3B1",
"B. c #8CA9B5",
"V. c #9FADB5",
"C. c #92AFB9",
"Z. c #95B2BC",
"A. c #9AB7BF",
"S. c #AEABAD",
"D. c #C08F8D",
"F. c #C1928E",
"G. c #CC9788",
"H. c #C39490",
"J. c #C59994",
"K. c #C89E97",
"L. c #C89F98",
"P. c #EC9A83",
"I. c #CDB587",
"U. c #C4A69E",
"Y. c #CAA49B",
"T. c #CDAA9F",
"R. c #DCAC97",
"E. c #DEB19C",
"W. c #EDB19A",
"Q. c #C0ADA6",
"!. c #CEACA2",
"~. c #D6B8AB",
"^. c #D5BCB2",
"/. c #CFC193",
"(. c #E7D89E",
"). c #FAD590",
"_. c #E5C2AD",
"`. c #EACFB9",
"'. c #ECD4BE",
"]. c #FEE9A4",
"[. c #FFEFA9",
"{. c #9EB9C2",
"}. c #ADBEC5",
"|. c #A5C2C7",
" X c #AFC9CC",
".X c #B4C5CC",
"XX c #B8CFD3",
"oX c #C5C7CD",
"OX c #D5E3E4",
"+X c #F2F7F6",
/* pixels */
"F.H.H.H.H.j.Z H.H.H.H.H.H.D k.J.F.H.H.H.j.a 9.f.f.f.f.9.B 8.D.F.H.H.H.j.a J.H.H.H.H.H.D k.J.F.j.f.f.",
"H.H.H.H.H.j.Z H.H.H.H.H.H.D k.J.F.H.H.H.j.N D.F.F.F.F.F.D s.H.H.H.H.H.j.S H.H.H.H.H.H.D k.J.H.H.F.F.",
"H.H.H.H.H.j.Z H.H.H.H.H.H.D s.F.H.H.H.H.j.Z H.H.H.H.H.H.D s.H.H.H.H.H.j.N F.H.H.H.H.H.D s.H.H.H.H.H.",
"H.H.H.H.H.j.Z H.H.H.H.H.H.D s.J.H.H.H.H.j.S H.H.H.H.H.H.D d.H.H.H.H.H.j.S F.H.H.H.F.J.D s.H.H.F.H.H.",
"j.H.H.H.H.T Z H.H.H.H.H.H.D U j.H.H.F.F.T N H.H.H.H.H.H.D U j.H.H.H.H.T S H.H.H.H.H.H.D U j.F.F.F.F.",
"Z Z Z Z a a Z H.H.H.H.H.H.D t N S S S Z a Z H.H.H.H.H.H.D t N S N S a a N H.H.H.H.H.H.D t S S Z S S ",
"h.j.a T h.F S T.H.H.H.H.H.D F h.a U j.h.F S F.H.H.H.H.H.D F h.t U j.h.F G Y.H.H.H.H.H.D F h.t U j.h.",
"F.H.a H.H.h.S T.H.H.H.H.H.D s.F.a h.F.F.h.Z F.F.H.H.H.H.D s.j.a j.H.H.h.S !.H.H.H.H.H.D s.F.t h.F.F.",
"H.H.H.H.H.j.a H.H.H.H.H.H.D s.H.t Q.H.H.j.S !.H.H.H.H.H.D s.H.H.G.F.F.j.N F.H.H.H.H.H.D s.H.a U.H.H.",
"H.H.F.H.H.j.H !.H.H.H.H.H.D s.H.H.J.H.H.j.Z H.7.9 0 9 s.D J 5 < > 0 > > > !.r < 0 a H.D s.H.H.J.H.H.",
"D.F.T J.H.j.H ^.H.H.H.H.H.D s.H.D.!.H.H.j.S 7.l k b C B < e b C  . ..... .6.C  ...C a D s.H.F.!.H.H.",
"E F.F.!.H.j.H ^.H.H.H.H.H.D s.H.9.Y.H.H.k.S G k ] o.;.<   < =.:.*.I.*.*.(.X I.].).*.X D s.H.9.Y.H.H.",
"Y D.R !.H.j.H ~.H.H.H.H.H.H s.H.H.H.H.H.j.G H l o.o.;.v : 2 :.:.<   o p (.: (.[.[./.  H s.H.H.H.H.H.",
"Y D.9.L.H.j.S !.H.H.H.H.H.D s.H.j.D.H.H.j.S H 1 o.o.;.#.=.:.:.:.O.< b =.].:.].[.[./.  D s.H.j.F.H.H.",
"Y D.H.Y.H.j.S Y.H.H.H.H.H.D d.H.R J.H.H.j.G G , ( o.:.#.=.:.:.:.:.-.-.).].:.[.[.).*.  D s.H.R H.H.H.",
"Y D.H.H.H.j.S L.H.H.H.H.H.D s.H.R K.H.H.j.S Z . , l v v v M M v M v v M V M V V M p   D d.H.R K.H.H.",
"9.D.H.H.H.j.S L.H.H.H.H.H.D s.H.f.D.H.H.j.w s 7 7 X 4 u <.d = 4.4.4.6 5 b.4.= 3.n.n.n.0 s.F.f.F.H.H.",
"8.j.H.H.H.j.Z H.H.H.H.H.H.J s.H.H.H.H.H.j.* 4 ,.<.  u 2.y.t.3 v.v.v.d 6 .Xv.X b.oXoXoXX a.F.H.H.H.H.",
"I D.H.H.H.j.S J.H.H.H.H.H.D s.H.H.H.H.H.j.X   X                         X X             a.F.H.H.H.H.",
"I D.H.H.H.j.a 9.H.H.H.H.f.A s.H.H.H.H.H.j.o   + h ~ ~ ~ ~ / +.E.E.E.E.W.R.+.Q ~ ~ x     s.H.H.H.H.H.",
"9.H.H.H.H.j.q m Z S S Z N r s.H.H.H.H.H.j.q > @ Q ~ _ { $.h.w `.'.'.`.'.~.o G.$.[ c   0 d.F.E 9.9.Z ",
"H.H.H.H.H.j.t 8.j.s.A J 8.m s.H.H.H.H.H.k.m e @ ~ ~ { } P.^.x.'.P.P.P.P.P.l._.%.} c   t s.H.R Y I q ",
"H.H.H.H.H.j.Z D.H.H.K K D.D z.J.H.H.H.H.j.Z Z , ~ ~ } | %.W.W.W.| | ` ' | W.W.$.| ' X D z.H.T Y I q ",
"H.H.H.H.H.j.Z H.H.H.K K H.J z.K.H.H.H.H.j.Z a @ ! ~ { } | | } @.@.| n l @.| | | | '   D z.Y.R Y Y A ",
"H.H.H.H.H.j.A D.H.H.7.a.L.D S.Y.H.H.H.H.j.Z Z + h ~ ~ { | | | &.| | @.&.&.| | | | '   D Q.Y.R Y Y I ",
"K.H.H.H.H.j.9     X             X r H.H.j.o     . ~ ~ { | | | | | | | | | | | } | '   D Q.Y.R Y Y I ",
"J.H.H.H.H.A d oXoXoXV.V.oXoXv.c.i.4.w H.> 7.X.M o j @ ^ [ _ | | | | | | | | | | { c   ; x.Y.R Y Y I ",
"K.H.H.H.H.Z d +X X.X{.{. X.X{.C.v.2.; j.  x.E.L X + X x ~ / } { ) } | } { ) { [ _ x X l.s 7.R Y Y Y ",
"H.H.H.H.H.Z y OXB.Z.B.B.B.B.Z.B.p.<.; H.  x._.g.<     g x x [ / ~ ) [ [ / z / ~ ~ x   '.: H 9.Y Y I ",
"J.H.H.H.H.S 8  XB.{.C.B.B.B.{.C.p.<.* H.X Q._.G.E *   f @ + ~ ~ W Q ~ ~ x   W ~ ! z   `.: J d.P P R ",
"H.H.H.H.H.Z d +XB.i.c.B.B.B.u.m.p.<.; H.  x...1 +.+.o X X O h ~ . f j j g X g W f     E.; J D     9.",
"J.H.H.H.H.Z 8 |.B.B.B.B.B.B.B.B.p.<.  X                 X         X o                       d XX+XX ",
"H.H.H.H.H.Z 6 |.B.B.B.B.B.B.B.B.p.<.      7 ,.2.u.u.u.v.v.v.v.oXM.}.oXoX.Xv.v.c.y.y.y.,.X   i {.XX  ",
"H.H.H.H.D.Z 6 }.B.B.B.B.B.B.B.B.p.<.      4 7 7 <.<.<.3.4.4.4.n.t.b.n.n.b.4.4.2.1.1.<.7 X   7 p.A.  ",
"j.H.H.H.H.t 6 |.B.B.B.B.B.B.B.B.p.<.X q 9 > r >               X     X X         X - q > 9 q s u 5.r ",
"Z S Z S Z > 6 |.B.B.B.B.B.B.B.B.c.<.o Z a Z J.J     # # # # # # # # #   # # # #   > H.D t N w X X Z ",
"h.j.a 8.h.e 6 |.B.{.C.B.B.B.|.C.p.<.O h.F Z H.J     0.q.q.q.w.e.e.w.w.e.q.q.q.>.$ > H.D F h.j.j.j.f.",
"D.H.t H.H.a 6 |.B.p.N.B.B.B.i.N.p.<.3 D.h.Z H.D     & 0.q.>.# # # # # # $ & q.q.% 0 H.D s.j.H.F.H.H.",
"H.H.t H.H.Z 5 Z.p.u.i.i.i.p.u.i.r.,.O F.j.H !.h.K X   $ % & X 7.7.7.r X   # $ $ s s.H.D s.H.H.H.F.H.",
"H.H.D.H.H.L 5 <.i i i i i i u u 7 y S j.8.Z H.H.j.Z a 3 # 4 D j.H.H.7.a w H a a a.H.H.D s.H.H.F.D.D.",
"D.F.9.J.H.j.q y 9 9 9 9 9 : > 9 9 m 9.I P N H.D.H.H.H.a : r H.9.H.H.H.j.H ^.H.H.F.F.F.D d.H.j.f.Y Y ",
"R D.D.!.H.h.H ^.H.H.H.H.H.D s.H.9.Y 9.I P S !.H.H.H.H.H.D s.H.D.!.H.H.j.H ^.H.H.J.F.J.D s.H.d.R Y Y ",
"Y D.T T.H.j.H ~.H.H.H.H.H.D s.H.R Y Y Y P D !.H.H.H.H.H.D d.H.9.Y.H.H.j.H ~.H.H.F.H.H.D h.F.R Y Y I ",
"Y D.9.Y.H.j.S T.H.H.H.H.H.D s.H.R Y Y Y P S !.D.H.H.H.H.D s.H.9.J.H.H.j.G !.H.H.F.H.H.D s.F.R Y Y Y ",
"Y D.H.Y.H.j.S Y.H.H.H.H.H.D s.H.R Y Y Y P S !.H.H.H.H.H.D s.H.H.Y.H.H.j.S Y.F.H.H.H.H.D s.F.T R Y Y ",
"Y D.H.H.H.j.S L.H.H.H.H.H.D s.H.R Y Y I F S L.H.H.H.H.H.D s.H.H.H.H.H.j.S K.F.F.H.H.H.D s.F.R I Y Y ",
"Y D.H.H.H.j.S Y.H.H.H.H.H.D s.H.R I 8.F t Z H.H.H.H.H.H.D s.H.H.H.H.H.j.S Y.H.H.H.H.H.D d.F.R R Y F ",
"Y F.H.H.H.j.Z H.H.H.H.H.H.D s.H.R I I t q Z H.H.H.H.H.H.H k.J.H.H.H.j.j.S H.H.H.H.H.F.D s.F.R I Y t ",
"Y D.H.H.H.j.S F.H.H.H.H.H.H s.H.T I Y q q S H.H.H.H.H.H.D z.J.H.H.H.H.j.S H.H.H.H.H.H.D s.H.R I I q ",
"Y D.H.F.H.j.m d.H.H.H.H.f.A s.H.R I Y q q m 9.H.H.H.H.h.A z.L.H.H.H.H.j.a f.H.H.H.H.f.A s.H.T Y I q "
};
