/* XPM */
static char *player_01730234256[] = {
/* columns rows colors chars-per-pixel */
"50 50 196 2 ",
"   c #3F3851",
".  c #583B4F",
"X  c #4E3752",
"o  c #443C54",
"O  c #4C3A53",
"+  c #533B51",
"@  c #5D3853",
"#  c #633A51",
"$  c #773A52",
"%  c #39425A",
"&  c #324F67",
"*  c #394C61",
"=  c #395466",
"-  c #2B5A73",
";  c #2C6277",
":  c #45425A",
">  c #4A435A",
",  c #4C495F",
"<  c #554253",
"1  c #564956",
"2  c #514459",
"3  c #5A465B",
"4  c #564D5C",
"5  c #5C4B5E",
"6  c #624B5A",
"7  c #484B63",
"8  c #524C62",
"9  c #5C4E60",
"0  c #4B526A",
"q  c #59576B",
"w  c #4F5A72",
"e  c #604F61",
"r  c #635263",
"t  c #6B5665",
"y  c #6E5967",
"u  c #755B64",
"i  c #725C69",
"p  c #7A5D6B",
"a  c #546279",
"s  c #6D606E",
"d  c #74616C",
"f  c #7C616D",
"g  c #676779",
"h  c #786A73",
"j  c #E44B3B",
"k  c #8B3658",
"l  c #AF3D53",
"z  c #B9355C",
"x  c #C63E53",
"c  c #8D434E",
"v  c #9E424C",
"b  c #985859",
"n  c #A0434C",
"m  c #B74646",
"M  c #976156",
"N  c #AD6B57",
"B  c #895F6E",
"V  c #82646E",
"C  c #986867",
"Z  c #836671",
"A  c #846A73",
"S  c #8B6976",
"D  c #8E6F76",
"F  c #946773",
"G  c #9A6975",
"H  c #897278",
"J  c #89747B",
"K  c #95747A",
"L  c #99767B",
"P  c #9B797A",
"I  c #A96B67",
"U  c #A9726B",
"Y  c #A56D78",
"T  c #AB6F7B",
"R  c #A3737B",
"E  c #AD707B",
"W  c #AC797F",
"Q  c #B0757D",
"!  c #B4797B",
"~  c #C7484A",
"^  c #D5464C",
"/  c #DA4A49",
"(  c #DE534E",
")  c #DA5850",
"_  c #E15C52",
"`  c #DC6256",
"'  c #C37357",
"]  c #E96A4A",
"[  c #E76757",
"{  c #E96B59",
"}  c #ED735D",
"|  c #D17164",
" . c #D67366",
".. c #EE7D63",
"X. c #F07860",
"o. c #B18969",
"O. c #B3957B",
"+. c #ED8257",
"@. c #EF895A",
"#. c #CD8D6D",
"$. c #C89F72",
"%. c #F38869",
"&. c #F19E67",
"*. c #DFB178",
"=. c #EEAE72",
"-. c #F5B978",
";. c #F6C27D",
":. c #297886",
">. c #5C748A",
",. c #657083",
"<. c #677588",
"1. c #69788D",
"2. c #727D8C",
"3. c #657B91",
"4. c #6F7E90",
"5. c #967D81",
"6. c #A27D80",
"7. c #A97D81",
"8. c #B37B81",
"9. c #2B8089",
"0. c #34938F",
"q. c #379B92",
"w. c #73808F",
"e. c #648196",
"r. c #6F8397",
"t. c #798594",
"y. c #7E8D9A",
"u. c #768EA1",
"i. c #7B94A5",
"p. c #7A98A8",
"a. c #958687",
"s. c #808896",
"d. c #8F919D",
"f. c #A38482",
"g. c #AE8585",
"h. c #A78B8A",
"j. c #B58385",
"k. c #B88386",
"l. c #BA8788",
"z. c #B58988",
"x. c #B98D8B",
"c. c #A6918E",
"v. c #B4918C",
"b. c #AB9995",
"n. c #B69793",
"m. c #B99B95",
"M. c #B7AA88",
"N. c #8C9CA6",
"B. c #829CAC",
"V. c #9897A3",
"C. c #939CA7",
"Z. c #86A2B0",
"A. c #89A5B1",
"S. c #8CA9B5",
"D. c #92AFB9",
"F. c #97B4BC",
"G. c #98B2BA",
"H. c #A0A5AF",
"J. c #BEA9A4",
"K. c #A9ABB4",
"L. c #AFAFB8",
"P. c #C08F8D",
"I. c #C1928E",
"U. c #D49885",
"Y. c #C39490",
"T. c #C59A94",
"R. c #C89E97",
"E. c #C89F98",
"W. c #CCB284",
"Q. c #C6A49A",
"!. c #CAA39B",
"~. c #CDAA9F",
"^. c #E2A591",
"/. c #C0ADA3",
"(. c #CEACA2",
"). c #C0ADA8",
"_. c #DAB4A2",
"`. c #D4B7AE",
"'. c #D5BCB2",
"]. c #E1B9A4",
"[. c #EDBDA6",
"{. c #E3BEA8",
"}. c #F8C986",
"|. c #E4CC92",
" X c #FBDA95",
".X c #ECC8B2",
"XX c #ECD4BE",
"oX c #FFEDA7",
"OX c #9DBAC1",
"+X c #A5BCC5",
"@X c #A5C2C7",
"#X c #B5C4CA",
"$X c #C8D8DB",
"%X c #D2D8DC",
"&X c #DBDFE1",
"*X c #D5E3E4",
/* pixels */
"I.Y.Y.Y.Y.x.Z Y.Y.Y.Y.Y.Y.D v.T.Y.Y.Y.Y.x.f 8.k.k.k.k.8.Z W x.Y.Y.Y.Y.x.Z Y.Y.Y.Y.Y.Y.D v.Y.Y.x.l.j.",
"Y.Y.Y.Y.Y.x.Z Y.Y.Y.Y.Y.Y.D v.T.Y.Y.Y.Y.x.Z P.Y.I.I.I.I.D j.Y.Y.Y.Y.Y.x.Z Y.Y.Y.Y.Y.Y.D v.T.Y.Y.I.I.",
"Y.Y.Y.Y.Y.x.Z Y.Y.Y.Y.Y.Y.D g.Y.Y.Y.Y.Y.x.Z Y.Y.Y.Y.Y.Y.D g.Y.Y.Y.Y.Y.x.Z Y.Y.Y.Y.Y.Y.D g.Y.Y.Y.Y.Y.",
"Y.Y.Y.Y.Y.x.Z Y.Y.Y.Y.Y.Y.D g.Y.Y.Y.Y.Y.x.Z Y.Y.Y.Y.Y.Y.D g.Y.Y.Y.Y.Y.x.Z Y.Y.Y.Y.Y.Y.D g.Y.Y.Y.Y.Y.",
"I.Y.Y.Y.n.E Z I.Y.Y.Y.Y.I.D R P.Y.Y.Y.Y.R Z Y.Y.Y.Y.Y.Y.D R x.I.Y.Y.Y.R Z Y.Y.Y.Y.Y.Y.D R x.I.Y.Y.I.",
"V A Z Z Z p Z Y.Y.Y.Y.Y.I.D p h Z Z Z V f Z Y.Y.Y.Y.Y.Y.D f Z Z Z Z Z f Z Y.Y.Y.Y.Y.Y.D f Z Z Z Z Z ",
"z.x.d W l.G H ~.Y.Y.Y.Y.I.D G j.f R x.x.G Z Y.Y.Y.Y.Y.Y.D G z.f R x.z.G H !.Y.Y.Y.Y.Y.D G j.d R x.z.",
"I.I.f I.Y.z.A ~.Y.Y.Y.Y.Y.D g.I.d l.Y.Y.z.Z Y.Y.Y.Y.Y.I.D g.x.f x.Y.Y.z.A (.Y.Y.Y.Y.Y.D g.I.f x.Y.Y.",
"I.Y.Y.Y.Y.x.Z Y.Y.Y.Y.Y.Y.D j.Y.p !.Y.Y.x.S ~.Y.Y.Y.Y.Y.D g.Y.Y.Y.Y.Y.x.Z Y.Y.Y.Y.Y.Y.D z.Y.i !.Y.Y.",
"Y.Y.I.Y.Y.v.H (.Y.Y.Y.Y.Y.D g.Y.Y.T.Y.Y.x.Z Y.Y.Y.Y.Y.I.D g.Y.x.Y.Y.Y.x.H (.Y.Y.Y.Y.Y.D g.Y.Y.T.Y.Y.",
"P.Y.! T.Y.x.J '.Y.Y.Y.Y.Y.D g.Y.P.(.I.Y.x.A n.Y.Y.Y.Y.x.D g.Y.8.I.Y.I.x.J '.Y.Y.Y.Y.Y.D g.Y.x.(.Y.Y.",
"! Y.x.(.Y.x.J '.Y.Y.Y.Y.Y.H g.Y.8.(.6.6.5.s c.o.Y.Y.z.O.p K 6.6.c.g.Y.D J '.Y.Y.Y.Y.Y.D g.Y.8.(.Y.Y.",
"E P.Q (.Y.z.J `.Y.Y.Y.Y.Y.D g.Y.x.j.X < < 1 1 < z.z.y 2 3 1 4 1 1 d o.2 h `.Y.Y.Y.Y.Y.D g.Y.Y.Y.Y.Y.",
"E P.k.E.Y.x.A (.Y.Y.Y.Y.Y.D g.Y.L o j } @.&.=.@.    N &.}.-.oX}. XM., }.1 h.Y.Y.Y.Y.Y.D g.Y.l.Y.Y.Y.",
"E P.Y.!.Y.x.A !.Y.Y.Y.Y.Y.D g.Y.F   +.@.@.&.;.-.    o.;.*.1 8 4 v.M.4 oX4 h.Y.Y.Y.Y.Y.D g.Y.8.Y.Y.Y.",
"E P.Y.Y.Y.x.A E.Y.Y.Y.Y.Y.D g.Y.F   @.@.@.&.;.;.N o.*.;.-.N   M *.|.O.oX4 f.Y.Y.Y.Y.Y.D g.x.8.R.Y.Y.",
"E Y.Y.Y.Y.x.A E.Y.Y.Y.Y.Y.D g.Y.P   ] @.@.&.;.;.@.-.;.;.;.&.o.#. X X}. X1 f.Y.Y.Y.Y.Y.D g.Y.k.Y.Y.Y.",
"E x.Y.Y.Y.x.Z Y.Y.Y.Y.Y.Y.D g.Y.R   m ' N #.$.$.' #.$.$.$.$.$.$.$.W.$.$.> 6.Y.Y.Y.Y.Y.D g.Y.Y.Y.Y.Y.",
"E P.Y.Y.Y.x.Z Y.Y.Y.Y.Y.Y.D g.Y.P               %     % o % % o           W I.Y.Y.Y.Y.D g.Y.Y.Y.Y.Y.",
"Q x.Y.Y.Y.x.V 8.Y.Y.Y.Y.k.Z g.Z , e.u.u.q 0 e.u.y.G.g g OX@X@X4 V.*XS.  &Xg Z I.Y.I.l.Z g.Y.Y.Y.Y.Y.",
"x.Y.Y.Y.Y.x.y f Z Z Z A p i j.Z   : % : o   : : > , : : 1 * 7   7 7 7   8 > e h Z A p u g.Y.8.8.8.A ",
"Y.Y.Y.Y.Y.x.f W x.l.S K 7.B g.f     k l v v n n v n b G O.o.7.a.o.R C l O o f l.D K W V g.Y.! E T y ",
"Y.Y.Y.Y.Y.x.Z P.Y.Y.K L P.D m.5.9   z / / / ( _ (  .I g.{.{.{.{.{.!.I  .2 t L Y.K K I.D m.T.! E T t ",
"Y.Y.Y.Y.Y.x.Z Y.Y.Y.L K Y.D m.R.O.  x / / ( { X.[ ^.5.c.XX[.[.[.[.n.h _.3 6.Y.Y.L L I.D m.T.E E T F ",
"Y.Y.Y.Y.Y.x.Z Y.Y.Y.P h.E.D J./.R   z ^ / _ X.X.X.[.XXXX.XX.X.X.X.=.XXXX8 6.Y.Y.5.h.E.D ).!.Q E T T ",
"T.Y.Y.Y.Y.x.Z Y.Y.Y.Y.E.E.D J.!.f.      n / _ / X.X.X.X.X.X.o o b X.X.X.@ 6.Y.Y.P.R.R.D ).E.Q E E T ",
"R.i e e 9 9 2 9 9 e 5 r Y.D J.5.4       @ c / / X.X.X.%.%.X.l . b ....} + 6.Y.Y.l.l.Y.D J.E.Q E E E ",
"i s.K.L.L.L.s.K.L.C.y.w.i A A 5.b.b.f.C 6 $ l $ [ _ { X.%.X.X.' | X.X.} + r L Y.P.R.R.D m.R.Q E E E ",
"o +X$X$X$X$XOX$X$X#XF.i.  f 9 a.XXXX{.U.u @ $   ) / [ } { [ %.%...[ [ } + h H 6.8.8.Y.D m.T.8.E E E ",
"o %X+XS.D.S.S.A.D.D.Z.r.  f 5 a.XXXXXX_.Z O o   / ~ ` [ _ / } X.[ ) ~ ` + /.a.e x.P.Y.D n.T.l.! E E ",
"  D.D.OXOXS.S.S.+XF.Z.r.  f 4 a.XXXXXX].U.F     z @ v / / / / / / l + / + J.a.e Y.P.Y.D v.T.I.P.k.8.",
"o G.D.p.i.S.S.S.p.p.Z.r.  f , O.J.o o ! #.#.U       k x ~   z ^ ~ k O z O v.D 9 z.o o y x.Y.Y.Y.Y.Y.",
"  G.D.A.A.S.S.S.A.A.Z.r.  2 o 8 9     6 6 6 1 o     + # < o @ # # . X .   5 1 o q N.#Xs H Y.Y.Y.Y.Y.",
"  D.D.S.S.S.S.S.S.A.Z.r.      7 w w ,.,.,.<.2.w.2.d.t.s.V.V.V.t.2.<.,.,.,.w 7   7 F.$Xg A Y.Y.Y.Y.Y.",
"o G.D.S.S.S.S.S.S.S.Z.r.      7 a a r.1.w.t.y.y.y.H.V.C.L.L.L.d.y.t.1.2.r.,.7   : p.F.q p l.Y.Y.Y.I.",
"  G.D.S.S.A.S.S.S.S.Z.r.  O o o o                                     o     o 2 8 >.i.q e V A A Z A ",
"  D.D.S.S.S.S.S.S.S.Z.r.  f G z.K o           o     o       % o     o       A Y.z.    y G k.x.x.l.l.",
"o G.D.G.OXS.S.S.OXF.Z.r.  f g.A 2   ; :.9.9.:.9.9.0.q.0.9.q.9.9.9.9.9.9.; % f Y.Y.z.z.Z 7.I.Y.Y.Y.Y.",
"  D.D.B.B.S.S.S.B.A.Z.r.  f g.Z % - 9.:.- % * * * = = = * = % % * * * * % J z.Y.Y.Y.Y.D g.Y.Y.Y.I.Y.",
"  N.B.B.i.B.B.B.i.p.p.3.  f g.6.s & ; = q r Z Z Z Z V V t d A V Z Z f f r m.Y.Y.Y.Y.Y.D g.Y.Y.I.P.P.",
"5 y.4.1.1.1.3.1.1.1.<.a 9 A g.Y.7.9 3 3 B Z Y.Y.Y.Y.Y.Y.D g.Y.8.Y.Y.Y.x.J '.Y.Y.Y.Y.Y.D g.Y.I.8.E E ",
"! 5 > 2 2 2 2 2 2 2 2 e Y.D g.Y.8.E E E Y H ~.Y.Y.Y.Y.Y.D g.Y.x.(.Y.Y.x.J '.Y.Y.Y.Y.Y.D g.Y.8.Q E E ",
"T x.E (.Y.z.H `.I.Y.Y.Y.Y.D g.Y.Q E E E Y S (.Y.Y.Y.Y.Y.D g.Y.8.!.Y.Y.x.J `.Y.Y.Y.Y.Y.H g.Y.! E E E ",
"E P.k.E.Y.x.D ~.Y.Y.Y.Y.Y.D g.Y.Q E E E Y S (.n.Y.Y.Y.Y.D g.Y.8.T.Y.Y.x.A (.Y.Y.Y.Y.Y.D g.Y.! E E E ",
"E P.Y.~.Y.x.A Q.Y.Y.Y.Y.Y.D g.Y.E E E E Y D ~.Y.Y.Y.Y.Y.D g.Y.Y.!.Y.Y.x.A !.Y.Y.Y.Y.Y.D g.Y.8.T T E ",
"E P.Y.Y.n.x.S Q.Y.Y.Y.Y.Y.D j.Y.8.E E T G A E.Y.Y.Y.Y.Y.D g.Y.Y.Y.Y.Y.x.A E.Y.Y.Y.Y.Y.D g.Y.E T E T ",
"E P.Y.Y.Y.x.A E.Y.Y.Y.Y.Y.D g.Y.E E E G p Z Y.Y.Y.Y.Y.Y.D z.Y.Y.Y.Y.Y.x.Z E.Y.Y.Y.Y.Y.D g.Y.8.T Q G ",
"E P.Y.Y.Y.x.Z Y.Y.Y.Y.Y.Y.D g.Y.8.E E p y Z Y.Y.Y.Y.Y.Y.D n.Y.Y.Y.Y.n.x.A Y.Y.Y.Y.Y.Y.D g.Y.Q E T p ",
"E P.Y.Y.Y.x.Z Y.Y.Y.Y.Y.Y.D g.Y.8.T E y y Z P.Y.Y.Y.Y.Y.D m.T.Y.Y.Y.Y.x.A Y.Y.Y.Y.Y.Y.D g.Y.Q T T y ",
"E P.Y.Y.Y.x.Z 8.Y.Y.Y.Y.8.Z z.Y.Q T E y y V 8.Y.Y.Y.Y.l.S m.T.P.Y.Y.Y.x.V 8.Y.Y.Y.Y.k.S g.Y.Q T E y "
};
