/* XPM */
static char *player_31730234254[] = {
/* columns rows colors chars-per-pixel */
"50 50 186 2 ",
"   c #3F3851",
".  c #463C54",
"X  c #4B3C54",
"o  c #593953",
"O  c #653C4F",
"+  c #693953",
"@  c #743854",
"#  c #37455E",
"$  c #2F556D",
"%  c #34586C",
"&  c #2E6B7B",
"*  c #316B79",
"=  c #4A4053",
"-  c #45425A",
";  c #4A455D",
":  c #4C495F",
">  c #564454",
",  c #564956",
"<  c #514459",
"1  c #554C5C",
"2  c #5B4A5D",
"3  c #654856",
"4  c #6C5659",
"5  c #4C4A61",
"6  c #534E64",
"7  c #584D61",
"8  c #565065",
"9  c #5A5569",
"0  c #53586F",
"q  c #4A5970",
"w  c #604F60",
"e  c #655564",
"r  c #6E5967",
"t  c #685A69",
"y  c #755666",
"u  c #725B69",
"i  c #7B5D6B",
"p  c #5A6379",
"a  c #75616D",
"s  c #7B606D",
"d  c #696A7C",
"f  c #7D6973",
"g  c #883756",
"h  c #963C52",
"j  c #A13956",
"k  c #B93C54",
"l  c #C73E53",
"z  c #8C404D",
"x  c #9D414D",
"c  c #8E4851",
"v  c #914D52",
"b  c #975758",
"n  c #A34348",
"m  c #B4474C",
"M  c #A9554C",
"N  c #BA5853",
"B  c #88655D",
"V  c #976055",
"C  c #AD6958",
"Z  c #BA675D",
"A  c #AE755D",
"S  c #865F62",
"D  c #8E6464",
"F  c #81636F",
"G  c #976967",
"H  c #977A68",
"J  c #836671",
"K  c #8B6672",
"L  c #846B73",
"P  c #8E6F76",
"I  c #946773",
"U  c #9B6976",
"Y  c #877178",
"T  c #89747B",
"R  c #927279",
"E  c #98767B",
"W  c #997B7D",
"Q  c #A56D78",
"!  c #AB6F7B",
"~  c #A67B75",
"^  c #A3737B",
"/  c #AD707B",
"(  c #AD797F",
")  c #BB7C70",
"_  c #B0757D",
"`  c #B2787F",
"'  c #C74A4C",
"]  c #D3474C",
"[  c #DA4A4A",
"{  c #DD524D",
"}  c #E25C52",
"|  c #D56059",
" . c #E86246",
".. c #E56556",
"X. c #E96B59",
"o. c #EB7550",
"O. c #ED735E",
"+. c #E17666",
"@. c #F07860",
"#. c #9D8A74",
"$. c #9F937D",
"%. c #A7896E",
"&. c #B18E6C",
"*. c #B39876",
"=. c #EF895A",
"-. c #CE8977",
";. c #F28467",
":. c #F19762",
">. c #EA8D77",
",. c #EE8E76",
"<. c #F59470",
"1. c #F3AA6E",
"2. c #F5AF77",
"3. c #F6C27D",
"4. c #307482",
"5. c #5B6C83",
"6. c #5B748B",
"7. c #5F7D93",
"8. c #616D83",
"9. c #787583",
"0. c #727D8C",
"q. c #A27D80",
"w. c #A97D81",
"e. c #B37B81",
"r. c #738191",
"t. c #7E8E9A",
"y. c #7C909E",
"u. c #768EA1",
"i. c #7992A3",
"p. c #918D9A",
"a. c #A48584",
"s. c #AE8585",
"d. c #B58385",
"f. c #B98386",
"g. c #BA8788",
"h. c #B58988",
"j. c #B98D8B",
"k. c #B3908D",
"l. c #A69592",
"z. c #B69793",
"x. c #B89B95",
"c. c #B4A586",
"v. c #869EA9",
"b. c #9897A3",
"n. c #86A2B0",
"m. c #8AA6B3",
"M. c #8CA9B5",
"N. c #98B5BD",
"B. c #BEA9A4",
"V. c #ADAEB7",
"C. c #C08F8D",
"Z. c #C1928E",
"A. c #D99582",
"S. c #C39490",
"D. c #C59A94",
"F. c #C89E97",
"G. c #C89F98",
"H. c #EF9B83",
"J. c #C6A59A",
"K. c #CAA39B",
"L. c #CDAA9F",
"P. c #DEB19C",
"I. c #EAA993",
"U. c #CEACA2",
"Y. c #C0ADA8",
"T. c #CBB7AA",
"R. c #D4B4A5",
"E. c #D4B7AE",
"W. c #D5BCB2",
"Q. c #E3BEA9",
"!. c #FAD58F",
"~. c #E7D89E",
"^. c #D6C0B0",
"/. c #E8CBB5",
"(. c #ECD4BE",
"). c #FBEAA6",
"_. c #FEE9A4",
"`. c #9FBBC2",
"'. c #A5C2C7",
"]. c #AFC9CD",
"[. c #B8CFD2",
"{. c #C0C3CA",
"}. c #C6D8DB",
"|. c #DAE7E7",
" X c #E8F0F0",
".X c #F2F7F6",
/* pixels */
"Z.S.S.S.S.j.J S.S.S.S.S.S.P k.D.Z.S.S.S.j.s e.f.f.f.f.e.K ( j.D.S.S.S.j.J S.S.S.S.S.S.Y k.S.Z.C.f.e.",
"S.S.S.S.S.j.J S.S.S.S.S.S.P k.D.S.S.S.S.j.F C.Z.Z.Z.Z.Z.P s.Z.Z.S.S.S.j.J S.S.S.S.S.S.P k.D.Z.D.Z.Z.",
"S.S.S.S.S.j.J S.S.S.S.S.S.P s.S.S.S.S.S.j.J S.S.S.S.S.S.R s.S.S.S.S.S.j.J S.S.S.S.S.S.P s.D.Z.Z.Z.Z.",
"S.S.S.S.S.j.J S.S.S.S.S.S.P s.S.S.S.S.S.k.J S.S.S.S.S.S.P s.S.S.S.S.S.h.J S.S.S.S.S.S.P s.S.S.D.D.Z.",
"Z.S.S.S.j.( J S.S.S.S.S.Z.P ^ j.S.S.Z.Z.( J S.S.S.S.D.Z.P ^ j.Z.S.S.S.( J S.S.S.S.S.S.P ^ C.Z.Z.S.Z.",
"F J J J J s J S.S.S.S.S.Z.P i F J J L s i J S.S.S.Z.Z.Z.P i J J J J J i J S.S.S.S.S.S.P i F L J J J ",
"h.j.a ( h.U L L.S.S.S.S.S.R U h.s ^ j.j.U J S.S.S.S.Z.D.P I h.s ^ j.j.U Y L.S.S.S.S.S.P U h.s ^ j.j.",
"Z.Z.s S.S.h.L L.S.S.S.S.Z.P s.Z.s j.Z.S.h.J S.S.S.S.Z.Z.P s.Z.s h.S.S.h.L L.S.S.S.S.S.P s.j.s h.Z.Z.",
"S.S.S.S.S.j.J S.S.S.S.S.S.P s.S.a J.S.S.j.Y L.S.S.S.S.S.R s.Z.Z.S.S.S.j.J Z.S.S.S.S.Z.P s.S.s J.S.S.",
"S.S.Z.S.S.k.Y U.S.S.S.S.S.P s.S.S.D.S.S.j.J S.Z.S.S.S.S.R s.Z.Z.S.S.S.k.Y U.S.S.S.S.S.T s.S.S.D.S.S.",
"C.S.` D.S.j.T W.S.S.S.S.S.P s.S.Z.U.S.S.j.L D.Z.S.S.S.S.P s.S.e.S.S.S.j.T W.S.S.S.S.S.P s.S.Z.U.S.S.",
"` Z.j.U.S.j.T W.S.S.S.S.S.R s.S.e.K.Z.Z.j.Y L.S.S.S.S.S.P h.Z.C.U.S.S.j.T ^.S.S.S.S.S.P s.S.e.K.S.S.",
"/ C.` L.S.j.T E.S.S.S.S.S.P s.S.S.S.S.S.j.Y L.Z.S.S.S.Z.P s.Z._ K.Z.Z.j.T W.S.S.S.S.S.P s.S.S.Z.S.S.",
"/ C.e.F.S.j.L L.S.S.S.S.S.P s.S.j.Z.S.S.j.L L.Z.S.S.S.Z.P s.Z.d.D.Z.Z.j.Y U.S.S.S.S.S.P s.S.j.Z.S.S.",
"/ C.Z.L.S.j.L K.S.S.S.S.S.P s.S._ D.S.S.k.Y L.s < < ; < u h.E < 1 < ; 1 . 7 Z.3 < J S.P s.S._ D.S.S.",
"/ C.S.S.S.j.L G.S.S.S.S.S.P s.S._ F.S.S.j.J f v M A &.C 3 e D C &.&.c.*.*.c.r z.*.H P P h.S._ D.S.S.",
"/ Z.S.S.S.j.L F.S.S.S.S.S.P s.S.f.Z.S.S.j.J < M o.:.3.1.4 . B 1.3.H #.%.*.~.  ~.!.#.1 P s.S.f.Z.S.S.",
"/ j.S.S.S.j.J S.S.S.S.S.S.P s.S.S.S.S.S.j.J < C =.:.3.3.B 4 %.2.3.4 X > *.~.4 ).).l.4 P s.S.S.S.S.S.",
"/ C.S.S.S.j.J S.S.S.S.S.S.P s.S.S.S.S.S.j.J < C =.:.3.3.:.1.3.3.3.=.3 V 2._.3._.).$.7 P s.S.S.S.S.S.",
"/ C.S.S.S.j.F e.S.S.S.S.f.K s.S.S.S.S.S.j.i X n  .:.3.3.:.1.3.3.3.3.3.3.!._.3._.!.H 2 J s.S.S.Z.S.S.",
"j.S.S.S.S.j.u F J J J J F y s.S.S.S.S.S.j.u . X > , , , , , , , , , , , , 1 , 1 , = < u s.Z.d.` e.J ",
"S.S.S.S.S.j.i w.j.d.K R w.J s.Z.S.S.S.S.j.< p 5.0 - p 8.p r.d - t.t.t.p d V.y.. b.V.p., s.S._ / / y ",
"S.S.S.S.S.j.L j.S.S.W E S.K x.D.S.S.S.S.j.  q p 0   p p p r.d - t.t.t.d d V.t.. p.V.b.. x.D._ / / u ",
"S.S.S.S.S.j.J S.S.S.E E S.P x.F.S.S.S.S.j.. . X o O O O 3 O 3 w e e 4 e e e 3 3 O o   = x.D._ / / K ",
"S.S.S.S.S.j.J S.S.S.W a.G.P Y.G.S.S.S.S.j.. . g ' ] [ [ [ [ | -.P.P.P.P.P.P.-.[ [ g   . Y.G._ / / ! ",
"D.S.S.S.S.j.J S.S.S.S.G.G.P Y.G.S.S.S.S.h.J X h [ { } @...A.w.7 (.(.(.(.(.W.  K.+.v w P Y.K._ / / / ",
"F.S.S.S.S.j.J S.S.S.g.j.D.P Y.G.S.S.S.S.j.J < h l { O.@.@.I.E.T.(.,.,.,.,.>.B./.,.b w P B.G._ / / / ",
"D.S.S.S.S.j.J S.S.S.C.D.D.P x.D.S.S.S.S.j.J < o h { X.} O.,.H.H.H.@.@.Z C @.H.H.;.b w P x.F._ / / / ",
"F.S.S.S.S.j.r T R R K K R u T E R h.S.S.j.e X . O m { [ X.@.@.@.;.@.@.Z A ;.@.@.O.b e P x.D.e./ / / ",
"D.S.S.S.S.w.9 6 5 8 8 8 5 6 6 5 ; T j.j.a.1 < < . O ] l X.O.@.@.<.@.@.;.<.<.@.@.O.b 1 J k.D.j._ / / ",
"D.S.S.S.S.w b.|.]..X.X.X}.[. X'.M.p J q.  (.R.A.G o k   N { } @.@.@.@.@.@.@.O.O.X.v   . h.D.Z.C.e.f.",
"S.S.S.S.S.w 0.`.M.M.M.M.M.M.M.M.i.0 J q.  (.(.Q.~ .   . m [ } O...[ X.@.X.} [ } { z t W.. h.S.S.S.Z.",
"S.S.S.S.S.w 0.`.M.`.M.M.M.M.`.M.i.0 J q.  (.(.R.S.D . . j g c [ { [ { { } ] + ' [ z t ^.  h.z.Z.S.S.",
"S.S.S.S.S.w 0.`.M.M.M.M.M.M.M.M.i.0 J q.  (.p.q.~ ) S   + o @ ] [ g m ] ] k   k x O t U.  k.R J R S.",
"C.S.S.S.S.2 0.`.M.v.m.M.M.m.v.m.i.0 w J   l.;   3 G G       o g j . @ h x @   g o   < W . L f 0.9.E ",
"J J J J J < 0.`.M.M.m.M.M.M.m.M.u.0 .     . . 5 : - ; ; : : 6 8 : 7 8 8 5 5 5 : ; ; ; -     v.}.{.X ",
"f.j.s ( h.< 0.`.M.m.M.M.M.M.M.M.i.0     . 7.7.i.M.M.M.'.'.'.}. X'..X.X.X|.'.'.M.M.M.v.6.    t.N.v.X ",
"Z.S.a Z.D.3 0.`.M.M.M.M.M.m.M.M.i.0       # . 5 ; ; ; : : : 5 8 : 6 8 6 5 ; : - 5 - 5 -     5.i.i.< ",
"S.S.s S.S.w 0.`.M.M.M.M.M.m.M.M.i.0 u q.q.u <                   .             .     2 s R ~ 9 q t s.",
"S.S.C.S.S.7 0.`.m.`.M.M.M.M.`.m.i.0 J g.w.J ; # % % $                         % $ # w T s.Z.R s P j.",
"C.S.e.D.S.w 0.`.M.`.M.M.M.M.`.m.i.0 y ! Q F e q & & $ . = 2 w w 7 e e 7 : t 3 4.4.$ 2 P s.S.Z.d./ / ",
"e.Z.j.U.S.7 0.`.n.u.n.m.m.n.i.n.u.q y e.Q L U.i < < ; < r s.S.j.U.Z.Z.j.T W.D.e * $ e P s.S.f./ / / ",
"! C.e.U.S.w 8.m.u.u.u.u.u.u.u.u.7.6 y / Q L U.S.S.S.S.S.P s.S.e.K.Z.S.j.T E.S.S.2 . 2 P h.Z._ / / / ",
"! C.e.G.S.d.7 5 - - 5   # 5   5 . F Q / Q Y U.S.S.S.S.S.P s.S.e.F.S.S.j.L U.S.S.j.h.h.P s.Z._ / / / ",
"/ C.Z.K.S.j.a a.q.q.q.q.q.s R q.I Q / / Q L L.S.S.S.S.S.R s.S.S.K.S.S.j.L K.S.S.S.S.Z.P s.Z._ / / / ",
"/ C.S.S.S.j.L G.S.S.S.S.S.P s.S.e./ ! ! U L G.S.S.S.S.S.P s.S.S.Z.S.S.j.J F.S.S.S.S.S.P s.Z._ / / / ",
"/ C.S.S.S.j.L G.S.S.S.S.S.P s.S./ / / U i J S.S.S.S.S.S.P s.S.S.S.S.S.j.L K.S.S.S.S.S.R s.S._ / / U ",
"/ C.S.S.S.j.J S.S.S.S.S.S.P s.S.e./ / i r J S.S.S.S.S.S.P k.D.S.S.S.S.j.J S.S.S.S.S.S.P s.S._ / / i ",
"/ C.S.S.S.j.J S.S.S.S.S.S.P s.S._ / / r r J C.S.S.S.S.S.P x.D.S.S.S.S.j.J S.S.S.S.S.S.P s.Z._ / / r ",
"/ C.S.S.S.j.J e.S.S.S.S.f.K s.S._ / / r r F e.S.S.S.S.g.K x.D.S.S.S.S.j.s d.S.S.S.S.f.K s.S._ / / r "
};
