/* XPM */
static char *flat_21730148366[] = {
/* columns rows colors chars-per-pixel */
"50 50 156 2 ",
"   c #2F303C",
".  c #31353E",
"X  c #3C3642",
"o  c #413A46",
"O  c #443F48",
"+  c #473E4A",
"@  c #4E4648",
"#  c #4C4D4D",
"$  c #564D4B",
"%  c #575553",
"&  c #665A52",
"*  c #62515A",
"=  c #6D585F",
"-  c #68665D",
";  c #6E5C62",
":  c #6E5967",
">  c #735D67",
",  c #775F65",
"<  c #725A68",
"1  c #765E69",
"2  c #795D6B",
"3  c #7A5D6A",
"4  c #7D5E6C",
"5  c #78606C",
"6  c #7F616D",
"7  c #82676B",
"8  c #82606D",
"9  c #82656F",
"0  c #89686D",
"q  c #8A696E",
"w  c #876370",
"e  c #836771",
"r  c #8D6373",
"t  c #836871",
"y  c #846973",
"u  c #856B74",
"i  c #866F76",
"p  c #8E6A73",
"a  c #8C6E71",
"s  c #8D6D72",
"d  c #8E6F76",
"f  c #996974",
"g  c #996876",
"h  c #9D6A76",
"j  c #877178",
"k  c #88747B",
"l  c #89757C",
"z  c #917073",
"x  c #997276",
"c  c #9A7276",
"v  c #937279",
"b  c #9B7578",
"n  c #997678",
"m  c #98767B",
"M  c #9E7A7E",
"N  c #A56D78",
"B  c #AA6E7A",
"V  c #AB6F7B",
"C  c #A1717A",
"Z  c #A5757C",
"A  c #AD707B",
"S  c #AE717C",
"D  c #A9747C",
"F  c #A07C7C",
"G  c #A37D7D",
"H  c #AB787F",
"J  c #AC787F",
"K  c #AE7A7F",
"L  c #B0757D",
"P  c #B2787F",
"I  c #9A816B",
"U  c #908A74",
"Y  c #9D977C",
"T  c #A58F6E",
"R  c #A5807D",
"E  c #B69976",
"W  c #A97D81",
"Q  c #B37980",
"!  c #B37A81",
"~  c #B47B82",
"^  c #B47C81",
"/  c #B57E83",
"(  c #B67F83",
")  c #AC8382",
"_  c #AC8384",
"`  c #AD8584",
"'  c #AE8585",
"]  c #A58988",
"[  c #B18385",
"{  c #B38285",
"}  c #B68084",
"|  c #B78084",
" . c #B48687",
".. c #B88285",
"X. c #B98487",
"o. c #BA8788",
"O. c #B08988",
"+. c #B08B8A",
"@. c #B58889",
"#. c #B68A88",
"$. c #BA888B",
"%. c #BC8888",
"&. c #BC8A8B",
"*. c #B88C89",
"=. c #B88C8B",
"-. c #B88D8B",
";. c #BF8E8C",
":. c #B3908D",
">. c #B4928F",
",. c #BF928E",
"<. c #B49490",
"1. c #BF9791",
"2. c #B79994",
"3. c #B89B95",
"4. c #BBA982",
"5. c #BEAE87",
"6. c #BEA9A4",
"7. c #C08F8D",
"8. c #C18F8D",
"9. c #C1918E",
"0. c #C2938F",
"q. c #C29390",
"w. c #C39490",
"e. c #C49591",
"r. c #C49691",
"t. c #C59892",
"y. c #C49893",
"u. c #C59894",
"i. c #C69B95",
"p. c #C79B95",
"a. c #C69C96",
"s. c #C89D97",
"d. c #C89E98",
"f. c #D0B385",
"g. c #D4B687",
"h. c #C4A69E",
"j. c #C8A09A",
"k. c #C9A19B",
"l. c #CAA39A",
"z. c #CBA49C",
"x. c #CBA69C",
"c. c #CBA69D",
"v. c #CDAA9F",
"b. c #CEABA1",
"n. c #CFADA2",
"m. c #C0ADA8",
"M. c #D1B1A5",
"N. c #D4B7AE",
"B. c #D5BCB2",
"V. c #DEC692",
"C. c #E3CE99",
"Z. c #CAC3A8",
"A. c #D4CAAC",
"S. c #F0E2B0",
"D. c #EAE4CD",
"F. c #F6EED0",
/* pixels */
"9.w.w.w.w.-.e w.0.e.0.e.0.d :.t.w.w.w.w.-.8 ! ........^ e W 9.w.9.e.0.-.t 9.9.e.0.e.0.d :.a.9.%.X...",
"w.w.w.w.w.-.e w.e.0.e.0.e.d :.t.w.w.w.w.-.9 ;.9.w.e.w.;.p ' w.w.e.e.e.-.t e.e.e.e.0.e.d +.a.0.e.e.9.",
"w.w.w.w.w.-.e w.0.e.0.e.0.d ' e.w.w.w.w.-.e e.0.w.w.w.w.d ' w.w.e.e.e.-.t e.9.e.0.e.0.d ' e.0.e.0.e.",
"w.w.w.w.w.-.e w.e.0.e.0.e.d ' 0.w.w.w.w.-.t 0.e.w.w.w.w.d ' w.w.9.e.9.-.e e.e.9.e.0.e.d ' 0.e.0.e.0.",
"8.e.0.e.9.D e w.0.e.0.e.9.d C 8.w.w.e.9.D t e.0.w.w.w.w.d C 8.9.0.e.0.D t 0.e.0.0.e.e.d C 8.0.e.0.9.",
"9 t t e e 3 e w.e.0.e.0.e.d 3 9 t t t 9 3 t 0.e.w.w.w.w.d 3 e t t 9 t 3 t e.0.e.e.0.0.d 3 9 t 9 t t ",
" .-.5 W @.h i c.0.e.0.e.0.d f  .5 Z -.@.h t e.0.w.w.w.w.d f [ 3 Z *.@.h i x.e.0.0.e.0.d f  .1 Z -.@.",
"9.0.5 9.9.@.i v.e.0.e.0.e.d ' 9.5 @.e.0.@.t 0.e.w.w.w.e.d ' 9.5 -.e.9. .j b.0.e.e.0.e.d ` 9.5 -.e.0.",
"e.0.e.0.e.-.t 0.e.0.e.0.0.d ' 0.5 h.0.e.-.j v.0.w.w.w.w.d ' w.w.e.0.e.-.t e.e.0.e.0.e.d ' 0.5 h.0.e.",
"0.e.9.e.0.-.j n.0.e.0.e.e.d ' e.0.t.e.0.-.t e.e.w.w.w.w.d ' w.9.0.e.0.-.j b.9.e.0.e.0.d ' e.e.e.e.0.",
"8.0.P e.e.-.k B.e.0.e.0.0.d ' 0.9.n.0.e.-.t e.0.w.w.w.w.d ' w.! 9.e.0.-.k B.e.e.e.0.0.d ' e.9.n.0.e.",
"L 8.9.M.0.-.k B.0.e.0.e.e.d ' e.~ x.e.0.-.i v.e.w.w.w.w.d ' 9.;.n.0.e.-.l B.e.9.0.e.e.d ' 0.^ x.e.0.",
"V 0.P v.0.&.k N.e.0.e.0.e.d ' 0.e.e.9.e.-.i v.0.e.0.e.0.d ' w.J j.e.0.-.k N.e.0.e.0.e.d ' 0.e.0.0.e.",
"V 8.( l.9.-.i v.0.e.0.e.0.d ' e.%.9.e.w.-.j v.9.0.e.0.e.d ' 0.( a.e.e.-.j v.0.e.0.e.0.d ' e.%.9.e.0.",
"V 8.0.x.0.-.u l.e.0.e.0.e.d [ 0.L t.0.e.-.j v.0.e.0.e.0.d ' e.0.x.0.9.-.t l.e.0.e.0.e.d [ 9.K a.0.e.",
"A 8.0.0.e.-.u j.0.e.0.e.0.d ' e.L a.e.0.-.t j.e.0.e.0.e.d [ 0.e.e.9.e.-.i j.0.e.0.e.0.d { 9.J a.e.0.",
"S ;.w.w.q.=.i d.e.0.e.0.e.d ' 0.&.9.e.0.=.e w.w.w.w.w.w.d ' w.q.w.w.w.-.u d.w.w.w.w.w.d ' w.X.9.w.w.",
"S 8.w.w.q.-.e w.0.e.0.e.0.d ' e.9.0.0.e.=.e w.w.w.w.q.q.d <.t.w.w.w.w.-.t w.w.w.w.w.w.d [ 0.w.w.w.w.",
"V 8.w.w.w.-.t q.e.0.e.0.e.d ' 0.e.0.e.0.-.e w.w.w.w.w.q.d 3.a.w.w.w.w.-.e e.e.w.e.q.w.d [ e.0.e.w.w.",
"S ;.w.w.w.-.8 ^ 0.e.0.e.X.9 ' e.0.e.0.e.-.8 / 9.w.w.w.o.e 2.a.w.w.w.w.-.6 ^ w.w.0.q.%.e { 0.e.0.w.w.",
"%.w.w.w.w.-.> 4 e e e t 6 < ' e.e.0.0.0.:., 8 t t t e 8 < +.e.q.w.w.w.-.< 8 e e e e 4 < ' w.( P ! t ",
"w.w.w.w.w.-.4 W -. .p v J 8 ' 9.0.e.0.9.-.4 W G 9  .@.W 8 [ q.e.w.w.w.-.4 D -. .p v W 8 ' w.L V S : ",
"w.w.w.w.w.-.e 8.e.0.b m 9.d 2.a.-.7 , -.-.e 8.G d 9.e.9.d ' e.9.w.w.w.-.t 9.0.w.b m w.p 2.a.J V A : ",
"w.w.w.w.9.&.e e.0.e.m m 9.d 3.a.= - k @ + . s 9.0.e.0.9.d ' e.e.w.w.w.-.e q.e.0.m m q.d 2.a.L V A r ",
"w.w.w.w.w.-.e w.e.0.M ] s.d m.z.% D.S.@ U Z.. ) 9.e.w.w.d +.0.e.e.0.e.-.t e.0.e.M ] s.d m.j.L A A B ",
"a.w.w.w.w.-.e w.0.e.9.d.s.d m.j.# A.S.4.S.F.# C } e.w.w.d 3.s.0.0.e.0.-.t 9.e.e.9.d.s.d m.j.L A A A ",
"a.w.w.w.w.-.e w.e.0.&.%.e.d 6.s.1 - C.f.C.] @  .&.l.w.w.d 3.a.9.e.0.e.-.t e.9.9.-.%.e.d m.d.L S A A ",
"a.w.w.w.w.-.e w.0.9.,.a.s.d 3.a.` - V.I $ X G o.o.j.w.w.d 3.s.0.0.e.0.-.e e.e.e.8.a.p.d 3.a.L A A A ",
"a.w.w.w.w.-.e w.w.w.[ o.w.d 2.a., Y f.@ * t @.b [ s.0.e.d 3.a.0.e.0.e.-.e 0.e.0.....0.j 3.a.! A A A ",
"a.w.w.w.w.-.e w.w.w.%.%.q.d :.a.  5.T o -.3 d q { a.e.0.d >.a.0.0.e.0.-.e e.0.e.%.%.0.d >.t.%.L A A ",
"q.e.w.w.w.-.e w.w.w.w.w.w.d :.; & g.$ 1 s % s q i 0.0.e.j +.e.0.e.0.9.&.e e.e.0.e.0.0.z :.a.9.8.{ ..",
"a.9.w.w.w.-.e w.w.w.w.w.w.d :.; & E X q q > #.b c 9.e.e.z &.a.0.0.e.e.8.e 0.0.e.0.e.e.j :.t.0.e.9.9.",
"q.e.0.e.9.-.t e.e.9.e.0.e.d ' [ m R F #.@.t 0.e.0.e.0.e.d ' 0.e.0.e.0.-.t e.0.e.0.e.e.d [ e.0.e.w.w.",
"e.0.e.0.e.-.t e.e.e.0.e.0.d ' e.e.e.9.e.-.t e.0.e.0.e.0.d ' e.0.e.0.e.-.t 9.e.0.e.0.0.d ' 0.e.0.w.w.",
"8.0.0.e.9.D t 9.9.0.e.0.0.d C 8.e.9.w.9.D t 9.e.0.e.0.e.d C 8.0.e.0.9.D t e.0.e.0.e.0.d C ;.0.e.q.9.",
"9 t t e e 3 t e.e.e.0.e.w.d 3 9 t t t t 3 t e.0.e.0.e.0.d 3 9 t t t t 3 t 0.e.0.e.0.e.d 3 t t t e e ",
"[ -.5 K @.h i x.e.0.e.0.w.d f @.-.&.-.@.N e e.0.0.e.0.e.d f  .5 Z -.@.h j x.0.e.w.w.w.d f  .-.%.-.o.",
"9.e.5 9.0.@.i v.0.e.0.e.w.d ` 9.w.w.9.w. .e 0.e.e.0.e.0.d ' 9.5 @.0.e.@.j v.e.0.w.w.w.d ) 9.w.w.w.w.",
"e.0.5 e.e.-.t e.e.0.e.0.e.d ' 0.w.w.9.w.&.i v.0.0.e.0.e.d ' 9.e.e.0.e.-.9 9.e.e.w.w.w.d ' w.w.w.q.9.",
"0.e.9.9.0.-.j n.0.e.0.e.0.d ' 0.w.9.9.;.H e e.0.e.0.e.0.d ' 0.9.0.e.0.-.j n.e.9.w.w.w.d ' w.w.,.,.;.",
"9.9.P e.e.-.k B.e.0.e.0.e.d ' e.8.( L A N e e.e.0.e.w.e.d ' 9.! e.0.e.-.l B.e.0.w.w.w.d ' w.9.{ A A ",
"J 9.8.M.0.-.l B.0.e.0.e.0.d ' 0.( A V A V i v.0.e.0.e.9.d ' q.8.b.e.0.-.l B.0.e.w.w.w.d ' w.~ L A A ",
"V 0.L v.e.-.k N.e.0.e.0.e.d ' e.L A L V N i v.0.0.e.e.e.d ' e.L j.w.0.-.k N.e.0.w.w.w.d [ 9.L A A A ",
"V 8...j.0.-.i b.0.e.0.e.0.d ' 0.L V V S N i v.0.e.0.9.e.d ' 0...s.e.0.-.j v.0.e.w.w.w.d [ 9.J L A A ",
"V 8.0.x.0.-.i l.e.0.e.0.e.d ' e.L S V V N i v.e.0.e.0.e.z [ e.0.c.0.e.-.u j.w.0.w.w.e.d ' 9.L S A A ",
"A 8.0.0.e.-.t d.0.e.0.e.0.d ' 0.L V S V f i s.0.e.0.e.0.j [ e.e.0.0.0.-.u j.w.e.w.w.w.d ' e.J S A A ",
"V 8.0.e.0.-.t j.e.0.e.0.e.d ' e.L V V f 4 e 0.e.0.e.0.e.j [ 0.e.e.0.e.-.t j.w.w.w.w.9.z [ 0.L V A h ",
"A 0.e.0.e.-.t e.0.e.0.e.0.d ' 0.L L V 2 : e e.0.e.0.e.0.z <.e.0.0.e.0.-.t w.w.w.w.w.e.d ' e.L A A 3 ",
"A 8.e.0.e.-.t e.e.0.e.0.e.d ' e.L A V < : 9 9.0.0.e.0.0.d 3.p.0.e.0.0.-.t e.9.e.e.0.e.d [ e.L A A : ",
"A 8.0.0.0.%.8 ..w.9.0.e.X.9 [ w.J A V < : 8 } e.e.0.e.X.t 3.s.0.0.e.e.-.8 } 0.e.0.e.X.9 ' 0.L A A : "
};
