/* XPM */
static char *flat_11730129890[] = {
/* columns rows colors chars-per-pixel */
"50 50 183 2 ",
"   c #222633",
".  c #202434",
"X  c #262737",
"o  c #282938",
"O  c #2C2B3A",
"+  c #2E2E39",
"@  c #3A3742",
"#  c #3D3646",
"$  c #3C3D44",
"%  c #3C3C45",
"&  c #45394A",
"*  c #3F4145",
"=  c #484649",
"-  c #4C424C",
";  c #514C48",
":  c #4E4F52",
">  c #544451",
",  c #574952",
"<  c #594E50",
"1  c #5C4D56",
"2  c #5C4E58",
"3  c #665B51",
"4  c #645359",
"5  c #6A565E",
"6  c #6A5B5C",
"7  c #6E6155",
"8  c #67655C",
"9  c #68665D",
"0  c #786E5D",
"q  c #6D5962",
"w  c #6E5967",
"e  c #775E65",
"r  c #775F65",
"t  c #725A68",
"y  c #795D6B",
"u  c #7A5D6A",
"i  c #7E5D6D",
"p  c #776065",
"a  c #7D6369",
"s  c #78606C",
"d  c #7F616D",
"f  c #7E646E",
"g  c #82676B",
"h  c #82606D",
"j  c #82656F",
"k  c #8D636D",
"l  c #886F6A",
"z  c #857562",
"x  c #857863",
"c  c #8D7C63",
"v  c #876370",
"b  c #836771",
"n  c #876470",
"m  c #8D6373",
"M  c #836871",
"N  c #856B74",
"B  c #866F76",
"V  c #8C6872",
"C  c #8E6A73",
"Z  c #8D6E72",
"A  c #8C6C75",
"S  c #8E6F76",
"D  c #996974",
"F  c #996876",
"G  c #9B6977",
"H  c #9D6A76",
"J  c #877178",
"K  c #88747B",
"L  c #89757C",
"P  c #8C7979",
"I  c #987677",
"U  c #937279",
"Y  c #97757A",
"T  c #9A7778",
"R  c #98767B",
"E  c #9E7A7E",
"W  c #A56D78",
"Q  c #AA6E7A",
"!  c #AB6F7B",
"~  c #A1717A",
"^  c #A5757C",
"/  c #AD707B",
"(  c #AE717C",
")  c #A9747C",
"_  c #A0797B",
"`  c #A07C7C",
"'  c #AE7A7F",
"]  c #B0757D",
"[  c #B2787F",
"{  c #9D977C",
"}  c #A28570",
"|  c #A89E7F",
" . c #B29A7A",
".. c #B8A07A",
"X. c #BDA279",
"o. c #C1A27C",
"O. c #C2AA7F",
"+. c #A37E80",
"@. c #A97D81",
"#. c #B37A81",
"$. c #B47C81",
"%. c #B67F83",
"&. c #9F9A8A",
"*. c #A88181",
"=. c #AC8384",
"-. c #AE8585",
";. c #AE8987",
":. c #A58988",
">. c #AA8C88",
",. c #B38385",
"<. c #B68084",
"1. c #B78084",
"2. c #B48687",
"3. c #B88285",
"4. c #B98487",
"5. c #B28887",
"6. c #B98588",
"7. c #BB8788",
"8. c #B08B8A",
"9. c #B58889",
"0. c #B68888",
"q. c #BA888B",
"w. c #BC8989",
"e. c #BC8A8B",
"r. c #BD8B8B",
"t. c #B88D8B",
"y. c #BF8E8C",
"u. c #B3908D",
"i. c #BF928E",
"p. c #B49490",
"a. c #B79994",
"s. c #B89B95",
"d. c #B3A884",
"f. c #BEA9A4",
"g. c #BDB7A0",
"h. c #C08F8D",
"j. c #C18F8D",
"k. c #C1918E",
"l. c #C2938F",
"z. c #C29390",
"x. c #C39490",
"c. c #C49591",
"v. c #C59892",
"b. c #C49893",
"n. c #C59894",
"m. c #C59994",
"M. c #C79B95",
"N. c #C69C96",
"B. c #C89F98",
"V. c #C99F98",
"C. c #D6B885",
"Z. c #D3BC8C",
"A. c #C4A69E",
"S. c #C8A09A",
"D. c #C9A39B",
"F. c #CAA39A",
"G. c #CBA49C",
"H. c #CBA69C",
"J. c #CBA69D",
"K. c #CDAA9F",
"L. c #CEABA1",
"P. c #CFADA2",
"I. c #C0ADA8",
"U. c #D1B1A5",
"Y. c #D4B7AE",
"T. c #D5BCB2",
"R. c #CFC094",
"E. c #DBC396",
"W. c #D3C699",
"Q. c #E2CA97",
"!. c #E3CE99",
"~. c #E3CD9A",
"^. c #E5D09C",
"/. c #D6CCA6",
"(. c #DECFA0",
"). c #E1D4A3",
"_. c #E6D5A2",
"`. c #EAD9A3",
"'. c #E5DCB8",
"]. c #EFE1AB",
"[. c #F4EAC5",
"{. c #F2E9CB",
"}. c #F7F0D5",
/* pixels */
"k.x.x.x.x.t.b x.l.c.l.c.l.S u.v.x.x.x.x.t.h #.1.1.4.3.$.n @.k.k.c.l.c.t.M c.l.c.l.c.l.S u.m.x.y.1.1.",
"x.x.x.x.x.t.b x.c.l.c.l.c.S u.v.x.x.x.x.t.j y.k.c.x.k.i.S -.k.c.l.c.l.t.M l.c.x.c.l.c.S u.v.x.x.l.x.",
"x.x.x.x.x.t.b x.l.c.l.c.l.S -.c.x.x.x.x.t.b x.x.x.x.x.x.S -.c.x.c.l.c.t.M k.c.c.l.c.l.S -.x.x.x.l.x.",
"x.x.x.x.x.t.b x.c.l.c.l.c.S -.l.x.x.x.x.t.b x.x.x.x.x.x.S -.l.c.l.c.l.t.M c.c.k.c.l.c.S -.x.x.c.x.x.",
"j.c.l.c.k.) b x.l.c.l.c.k.S ~ j.x.x.x.k.) M x.x.x.x.x.x.S ~ k.k.z.k.x.) b x.x.x.l.c.k.S ~ k.x.k.x.k.",
"j M M b b u b x.c.l.c.l.l.S u b M M M M u M x.x.x.x.x.x.S u b b M M j u b x.x.x.c.l.x.S u j M M M M ",
"2.t.s @.9.H B J.l.c.l.c.l.S D 2.s ^ t.9.H b x.x.x.x.x.x.S D 5.u ^ t.9.H B J.x.x.l.c.l.S D 2.s ^ t.9.",
"k.l.s k.k.9.B K.c.l.c.l.c.S -.k.s 9.x.x.9.M x.x.x.x.x.x.S =.k.s q.c.z.2.B L.x.x.c.l.c.S -.j.s 9.x.l.",
"c.l.c.l.c.t.M l.c.l.c.l.l.S -.l.s A.l.c.t.B K.l.x.x.x.x.S -.x.x.x.x.x.t.M x.x.x.x.x.x.S -.x.s A.x.x.",
"l.c.k.c.l.t.J P.l.c.l.c.c.S -.c.l.v.c.l.t.M c.c.x.x.x.x.S -.x.k.x.x.x.t.J L.x.x.x.x.x.S -.c.c.c.x.x.",
"j.l.[ c.c.t.K T.c.l.c.l.l.S -.l.k.P.l.c.t.M v.l.x.x.x.x.S -.k.#.k.x.x.t.L T.x.x.x.x.x.S -.x.k.P.x.x.",
"] j.k.U.l.t.K T.l.c.l.c.c.S -.c.#.H.c.l.t.J K.l.x.x.x.x.S -.k.i.P.x.x.t.L T.x.x.x.x.x.S -.x.$.H.x.x.",
"! l.[ K.l.e.K Y.c.l.c.l.c.S -.k.c.c.k.c.t.B K.l.l.c.l.c.S ;.k.] H.x.x.t.K Y.c.k.x.x.x.S -.k.c.l.x.x.",
"! j.%.F.k.t.B K.l.c.l.c.l.S 5.l.w.k.c.c.t.B K.l.c.l.c.l.S ,.z.1.m.c.x.t.J K.x.k.x.x.x.S -.c.w.l.x.x.",
"! j.l.H.l.t.N F.c.l.c.l.c.S 2.l.] m.k.c.t.B K.c.l.c.l.c.S -.k.c.S.c.x.t.B >.I -.x.x.x.S -.z.] m.x.x.",
"/ j.l.l.c.t.N S.l.c.l.c.l.S -.l.] M.c.l.9.B S.l.c.l.c.l.S -.c.x.c.z.x.t.1 $ 8 O t.x.x.S -.c.] M.x.x.",
"( k.x.x.x.t.N S.c.l.c.x.k.U -.l.4.k.c.c.t.b x.x.x.x.x.x.S ,.z.c.k.c.c.t.# g.[.9 l n.n.S -.c.3.k.c.l.",
"( w.x.x.x.t.b x.l.c.l.c.x.S -.c.c.k.c.l.t.b x.x.x.x.x.x.J p.c.z.c.z.c.a o E./.= + } c.S -.z.z.c.l.c.",
"( y.x.x.x.t.M x.c.l.c.k.x.A -.k.l.c.l.c.t.M c.z.x.x.x.z.S s.M.c.z.c.p & R.`.R.).| q x.S -.k.x.x.c.l.",
"! i.x.x.x.t.d 1.l.c.z.c.6.v 5.l.c.l.c.l.t.d %.c.x.x.x.6.M s.M.c.t.; : '.`... ._.z t 4.m 5.x.x.l.l.c.",
"j.x.x.x.x.t.t h M M M M h t =.c.l.c.l.c.t.t h b M M M h t 8.c.I < &.}.!.3 X # < 1 b b t -.x.%.#.#.b ",
"k.z.x.x.x.t.i ) t.2.C U @.h =.l.c.l.c.l.t.u ) ` b ,.-.> % 1 - = W.{.E.0 & k ` _ V S ! h -.x.] / ! t ",
"x.x.x.x.x.t.b j.x.z.T R c.A s.m.l.c.l.c.t.M k.+.S j.r 9 ].d.c Q.E. .l R f k.l.x.Y R k.J a.n.! / ! t ",
"x.x.x.x.z.t.b x.x.x.R R c.J s.N.c.l.c.l.t.M c.l.x.x., | ].~.o.} 6 q } t.M k.c.l.R R z.S s.M.#.! / m ",
"x.x.x.x.x.t.b c.x.x.E :.M.S f.J.k.c.k.c.t.M c.k.k.x.j . ; O.C.+ 2 2.x.t.b c.l.c._ :.B.S I.F.] / / ! ",
"M.x.x.x.x.t.M k.x.x.k.S.M.S f.F.c.c.c.z.t.M k.7.$.c.k.5 0 ^.X.o z.x.x.t.b z.c.l.k.B.B.J I.F.] / / ! ",
"M.x.x.x.x.t.M c.x.x.e.w.v.S f.S.l.c.c.c.t.b l.w.e.F.9.p + z 6 Z x.x.x.t.b z.c.c.7.w.m.S f.S.] / / / ",
"M.x.x.x.x.t.b x.x.k.k.m.M.S s.M.c.l.k.c.t.b c.6.q.F.c.T q P ;.l.x.x.x.t.b c.k.c.j.m.M.S s.v.] / / / ",
"m.x.x.x.x.t.b x.l.c.3.3.x.S s.m.l.c.l.c.t.b x.w.6.M.x.x.S s.M.l.x.x.x.t.b x.x.x.3.3.x.S s.M.#.( / / ",
"m.x.x.x.x.t.b x.c.l.w.w.c.S p.m.c.l.c.l.t.b x.w.r.m.x.x.S u.v.c.x.x.x.t.b x.x.x.w.w.x.S u.m.w.[ / / ",
"m.x.x.x.x.t.b x.l.c.x.c.z.S u.v.l.c.l.c.t.b k.k.r.M.x.x.S u.m.c.x.x.x.t.b x.x.x.x.x.x.S u.v.l.j.3.1.",
"m.x.x.x.x.t.b x.c.l.c.k.c.S u.v.c.l.c.l.t.b x.k.t.x.x.x.S u.m.x.x.x.x.t.b x.x.x.x.x.x.S u.v.l.l.l.k.",
"x.x.x.x.x.t.b x.x.x.x.x.x.S -.z.c.l.c.l.t.M x.c.l.c.l.c.S -.k.l.c.l.c.t.b x.x.x.x.x.c.S -.c.k.c.c.l.",
"x.x.x.x.x.t.b x.x.x.x.x.x.S -.c.l.c.l.c.t.M c.k.c.l.c.l.S -.l.c.l.c.l.t.b x.x.x.x.x.z.S -.z.c.x.l.c.",
"r.c.x.x.k.) M c.x.x.x.x.k.S ~ y.c.x.k.k.) M c.c.l.c.l.c.S ~ k.l.c.l.l.) M x.x.x.x.x.x.S ~ r.k.c.l.l.",
"f M M b b u b c.x.x.x.x.c.S u j M M M M u M k.c.c.l.c.l.S u j M M M M u M x.x.x.x.x.x.S u b M M M b ",
"2.t.s ' 9.H B F.x.x.x.x.x.S D 2.t.e.t.9.H M c.l.l.c.l.c.S F 9.s ^ t.9.H B J.x.x.c.l.c.S D 2.t.t.t.2.",
"k.c.s k.k.9.B K.x.x.x.x.c.S -.k.c.c.k.c.9.M l.c.c.l.c.l.S =.l.s e.l.l.5.B K.x.x.l.c.l.S -.k.c.l.c.l.",
"l.c.s c.c.t.M c.x.x.x.x.x.S -.k.c.k.l.k.t.J K.l.l.c.l.c.S -.k.x.k.x.x.t.b x.x.x.c.l.l.S -.l.l.c.k.c.",
"c.l.k.l.l.t.J P.x.x.x.x.x.S -.x.k.k.k.i.[ j c.k.c.l.c.l.S -.k.k.l.x.x.i.B P.x.x.l.c.c.S -.c.l.k.j.j.",
"k.k.$.l.l.t.K T.x.x.x.x.x.S -.x.k.3./ / W M c.c.x.x.x.x.S -.k.#.l.l.c.t.L T.c.l.c.l.l.S -.l.k.3./ / ",
"] j.k.U.c.t.K T.x.x.x.x.x.S -.x.$./ / / W J K.c.x.x.x.x.S -.c.k.P.c.l.t.L T.l.c.l.c.c.S -.c.$./ / / ",
"/ k.] K.l.t.K Y.x.x.x.x.x.S -.x.' / / / W B L.k.x.x.x.x.S -.x.( F.l.l.t.K Y.c.l.c.l.c.S -.l.] / ! / ",
"! j.1.S.c.t.B K.x.x.x.x.x.S -.x.( / / / W B K.c.x.x.x.x.S -.l.3.M.l.c.t.J K.l.c.l.c.l.S -.c.] ( ( ! ",
"/ j.k.H.c.t.N F.x.x.x.x.x.S -.x.[ / / / W B K.x.x.x.x.x.S -.l.l.H.x.x.t.B S.l.c.c.l.c.S -.l.] / ! ( ",
"/ j.k.c.l.t.N S.x.x.x.x.x.S -.x.( ( / / D M F.x.x.x.x.x.S -.l.c.x.x.x.t.M S.c.k.l.c.l.S -.c.] / ! ( ",
"/ k.c.l.c.t.M S.x.x.x.x.x.S -.x.] ( ( G i M x.x.x.x.x.x.S 2.l.c.x.x.x.t.M F.c.l.c.l.l.S -.l.] / ! D ",
"/ k.l.c.c.t.M x.x.x.x.x.x.S -.x.( ( ! y w b x.x.x.x.x.x.S p.c.l.x.x.x.t.M c.l.c.l.c.c.S -.c.] / ( u ",
"/ k.c.l.c.t.M c.l.c.l.c.l.S -.l.] ( / w w M x.x.x.x.x.c.S s.M.c.x.x.x.t.b c.c.x.x.x.x.A ,.x.] / / w ",
"! j.l.l.l.t.h 1.c.k.c.l.3.M ,.c.( / ( w w h 1.x.x.x.x.2.b s.M.k.x.x.x.t.h $.x.x.x.x.6.b -.c.] / / w "
};
