/* XPM */
static char *player_11730234255[] = {
/* columns rows colors chars-per-pixel */
"50 50 188 2 ",
"   c #3F3851",
".  c #453B54",
"X  c #493D52",
"o  c #573A51",
"O  c #6C3D4D",
"+  c #683953",
"@  c #753A53",
"#  c #3C4359",
"$  c #384C62",
"%  c #2F556D",
"&  c #27657D",
"*  c #45435B",
"=  c #524356",
"-  c #514359",
";  c #55495D",
":  c #5A4B5C",
">  c #654756",
",  c #6B4855",
"<  c #6D575B",
"1  c #74555E",
"2  c #78635F",
"3  c #4A4C63",
"4  c #53556B",
"5  c #4F5A72",
"6  c #604F61",
"7  c #655262",
"8  c #685767",
"9  c #6E5967",
"0  c #6B5F6C",
"q  c #795964",
"w  c #715B69",
"e  c #7B5D6B",
"r  c #5A6379",
"t  c #5B657A",
"y  c #6F6667",
"u  c #786260",
"i  c #7B616D",
"p  c #6B697A",
"a  c #7A6570",
"s  c #873657",
"d  c #963A55",
"f  c #B4355B",
"g  c #C33C56",
"h  c #85484D",
"j  c #815654",
"k  c #825C58",
"l  c #955654",
"z  c #A4434E",
"x  c #B7464C",
"c  c #B74C53",
"v  c #82615B",
"b  c #976156",
"n  c #986457",
"m  c #AD605A",
"M  c #846C62",
"N  c #83636D",
"B  c #876C6E",
"V  c #8F7162",
"C  c #9A7D67",
"Z  c #977E6F",
"A  c #836671",
"S  c #8D6373",
"D  c #846B73",
"F  c #8E6F76",
"G  c #906F77",
"H  c #9B6975",
"J  c #877579",
"K  c #89757C",
"L  c #927278",
"P  c #98767B",
"I  c #9D7A7D",
"U  c #A9736B",
"Y  c #B2776D",
"T  c #A56D78",
"R  c #AB6F7B",
"E  c #A3737B",
"W  c #AD707B",
"Q  c #AC797C",
"!  c #B0757D",
"~  c #B4797B",
"^  c #C7464B",
"/  c #D3464D",
"(  c #D8474A",
")  c #DB4A4A",
"_  c #D65346",
"`  c #DC5951",
"'  c #E25C52",
"]  c #C4685C",
"[  c #D97F58",
"{  c #E66556",
"}  c #E86657",
"|  c #EA6D5A",
" . c #ED7D54",
".. c #ED735E",
"X. c #F07960",
"o. c #9E8B75",
"O. c #B08779",
"+. c #EF895A",
"@. c #F0905E",
"#. c #CD8674",
"$. c #DF8172",
"%. c #F28467",
"&. c #F19967",
"*. c #F39776",
"=. c #D3A875",
"-. c #F2A46C",
";. c #EEB878",
":. c #F6C27D",
">. c #267184",
",. c #576C83",
"<. c #657083",
"1. c #687689",
"2. c #6A798C",
"3. c #727D8C",
"4. c #877B87",
"5. c #A27D80",
"6. c #A97D81",
"7. c #B37B81",
"8. c #28858F",
"9. c #298A91",
"0. c #36A89B",
"q. c #658196",
"w. c #798594",
"e. c #798D9C",
"r. c #7E919F",
"t. c #768EA1",
"y. c #7A93A4",
"u. c #7B95A6",
"i. c #928284",
"p. c #858A98",
"a. c #A48786",
"s. c #AE8585",
"d. c #B58285",
"f. c #B98386",
"g. c #B48989",
"h. c #BA8D8B",
"j. c #B3908D",
"k. c #B8978D",
"l. c #AB9894",
"z. c #B69793",
"x. c #B89B95",
"c. c #879BA6",
"v. c #839DAC",
"b. c #8B9FA9",
"n. c #9897A3",
"m. c #95A6AF",
"M. c #89A6B2",
"N. c #8CA9B5",
"B. c #9AA9B2",
"V. c #92AFB9",
"C. c #95B2BC",
"Z. c #9AB6BF",
"A. c #AFA7AB",
"S. c #A3B0B8",
"D. c #ABB5BD",
"F. c #C08F8D",
"G. c #C1928E",
"H. c #D59A87",
"J. c #C39490",
"K. c #C59A94",
"L. c #C89E97",
"P. c #C89F98",
"I. c #EE9B84",
"U. c #CDB587",
"Y. c #C4A69E",
"T. c #CAA49B",
"R. c #CDAA9F",
"E. c #DCAB96",
"W. c #DEB19C",
"Q. c #EEA089",
"!. c #EDB19A",
"~. c #C0ADA6",
"^. c #CEACA2",
"/. c #D5B6AB",
"(. c #D5BCB2",
"). c #F7C884",
"_. c #D6C0B0",
"`. c #E7C9B3",
"'. c #EACFB9",
"]. c #ECD4BE",
"[. c #FFEFA9",
"{. c #9BB8C0",
"}. c #A5BEC6",
"|. c #ABC4CA",
" X c #B2C6CD",
".X c #C5C7CD",
"XX c #CCDADD",
"oX c #DFE9EA",
/* pixels */
"G.J.J.J.J.h.A J.J.J.J.J.J.G j.K.k.J.J.J.h.i 7.f.f.f.f.7.S Q k.J.J.J.J.h.A G.J.J.J.J.J.G j.K.G.h.f.f.",
"J.J.J.J.J.h.A J.J.J.J.J.J.G j.K.G.G.J.J.h.A h.J.J.G.G.F.F s.J.J.J.J.J.j.A J.J.J.J.J.G.G j.K.J.J.G.G.",
"J.J.J.J.J.h.A J.J.J.J.J.J.G s.J.J.J.J.J.h.A J.J.J.J.J.J.F s.J.J.J.J.J.h.A G.G.J.J.J.K.G s.J.J.J.G.J.",
"J.J.J.J.J.h.A J.J.J.J.J.J.F s.J.J.J.J.J.h.A J.J.J.J.J.J.F s.J.J.J.J.J.h.A K.J.J.J.G.G.F s.J.J.J.J.J.",
"F.J.J.J.k.W A J.J.J.J.J.G.F E F.J.J.K.k.W A J.J.J.J.J.J.G E h.G.J.J.J.W B J.J.J.J.J.J.F P F.G.J.G.G.",
"A A A A A e A J.J.J.J.J.G.F e i D A A N e A J.J.J.J.J.J.F e A A A N A e a J.J.J.J.J.J.F e N A A A B ",
"g.h.e 6.g.H J T.J.J.J.J.G.L H g.i E h.h.H A J.J.J.J.J.J.F H g.i E k.g.H J T.J.J.J.J.J.G H g.i E h.g.",
"G.G.i J.J.g.D ^.J.J.J.J.G.G s.G.i h.G.G.g.A J.J.J.J.G.G.F s.G.e h.G.G.h.D R.J.J.J.J.J.G s.G.i g.K.G.",
"G.J.J.J.J.h.A J.J.J.J.J.J.G s.J.i Y.J.G.g.F U.G.J.J.J.J.F s.J.J.J.J.J.k.N G.J.J.J.J.J.F s.J.e T.G.J.",
"J.J.G.J.J.j.K ^.J.J.J.J.J.G s.G.G.K.J.G.h.: 4 > 4 7 : < 7 s.s.6 > : 4 > y ^.6 s.J.J.J.F s.J.J.K.G.J.",
"F.G.7.J.J.h.K (.J.J.J.J.J.G s.J.G.R.G.G.i h l l b n C n < u N b o.C o.o.Z K o.B s.J.J.F s.J.G.^.J.J.",
"~ F.h./.J.h.K (.J.J.J.J.J.F s.J.7.R.G.s.  _  .+.+.+.:.&.k   , &.:.=.U.=.O.< ).< G J.J.K s.J.7.T.J.J.",
"W F.! T.J.h.K /.J.J.J.J.J.F s.J.G.G.J.g.  [ +.+.+.@.:.:.V ; 2 :.:.< X X u ).[.y L J.J.F s.J.J.J.J.J.",
"W F.f.P.J.h.D R.J.J.J.J.J.F s.J.h.G.G.g.  [ +.+.+.@.:.:.&.-.:.:.:.@.1 j -.[.[.y L J.J.F s.J.h.F.J.J.",
"W F.G.T.J.h.D T.J.J.J.J.J.F s.J.! K.G.h.. _ +.+.+.@.:.:.&.-.:.:.:.:.;.;.).[.:.< L J.J.F s.J.7.K.J.J.",
"W F.J.J.J.h.D T.J.J.J.J.J.F s.J.! L.G.g.X @ , j j k M M k v M M M M M M M J M ; G J.J.F s.J.W K.J.J.",
"W J.J.J.J.h.D P.J.J.J.J.J.F s.J.f.G.g.i 5 r r r 5 # 5 r r <.p   3.3.3.p * 3.  4.4.P J.F g.J.f.F.J.J.",
"W h.J.J.J.h.A J.J.J.J.J.J.F s.J.G.J.a.* t <.2.2.t # t 1.2.e.w.  b.v.b.<.4 b.. B.p 9 J.F s.J.J.J.J.J.",
"W F.J.J.J.h.A J.J.J.J.J.J.F s.J.G.G.E         .                                 . w J.F s.J.J.J.J.J.",
"W F.J.J.J.h.A 7.J.J.J.J.f.A s.J.J.G.a.    f / ( ) ) ) ) _ / ` #.W.W.W.!.W.W.#.>   w f.A s.J.J.J.J.J.",
"h.J.J.J.J.h.9 e A A A A N w s.J.J.J.J.a.  ^ ( ( ) ) ' | { $.s.= '.'.'.'.'.'.= X 6 e i w s.J.7.7.7.A ",
"J.J.J.J.J.h.i 6.h.f.F L W N s.J.J.J.G.g.  ^ ( ( ) ) | X...I._.l.].Q.I.I.I.I.l.: 7 L W N s.J.! W R 9 ",
"J.J.J.J.J.h.A F.J.G.P P G.G k.L.J.G.G.g.  f ) ( ) ` X.X.X.*.!.!.!.%.] m ] X.!.9 7 P J.F x.K.! W W 9 ",
"J.J.J.J.J.h.A J.J.J.P P G.G x.L.G.K.J.g.  s x x x ) ..| | X.X.X.X.X.l o , X.X., 7 I J.F x.K.! W W S ",
"J.J.J.J.J.g.A J.J.J.I a.L.F A.T.J.J.G.d.        O ) ' ) } X.X.X.&.X.' d , X.X., 9 a.L.G A.T.! W W R ",
"K.J.J.J.6 .       .           h.J.J.o.X           o ) ) } X.X.X.X.X.&.*.&.X.X., G L.L.G ~.T.! W W W ",
"K.J.J.6 A..X.X.Xb..X.XS.b.b.e.p s.G a A.~.k.O.<   o f @ c ' ' X.X.X.X.%.X.X.X., - N K.G ~.T.! W W W ",
"K.J.J.. .XXX X|.C. X X}.C.V.u.* 5.A 0 ].].`.E.O.q . @ . z ) ` X.} ' | X.X.} ' @ J i.i G x.K.W W W W ",
"K.J.J.  }.}.N.C.N.N.N.V.C.M.t.* 5.A 0 ].].].!.H.U .     z x c } _ ) ' { { ` z o l.l.- F z.K.7.R W W ",
"K.J.J.  m.Z.V.}.N.N.N.C.Z.M.t.* 5.A 0 ].(.(.W.H.Y X     @ @ + / ( ^ / ) ( /     l.l.- F a.h.d.7.W W ",
"K.J.J.  .X Xc.t.N.N.N.v.u.M.t.* 5.N 0 (.    U #.#.Y         o f ( o s g / f     I a.- F .   A h.7.f.",
"J.J.J.. b.V.N.N.M.N.N.N.N.M.t.*                 . .         . .     .     .             }.oXn.w J.J.",
"J.J.J.  b.C.N.N.N.N.N.N.N.M.t.*     * ,.,.w.e.e.r.b.b.b.}.D.B..X.X.XS.c.c.e.e.e.2.5     V. Xw.9 J.J.",
"J.J.J.  b.C.N.N.N.N.N.N.N.M.t.*   . . 5 5 ,.<.<.<.3.3.3.p.p.p.n.n.n.p.3.2.1.<.<.r 3     y.N.2.w J.J.",
"h.J.J.  b.C.N.N.N.N.N.N.N.M.t.* 8 w 4               .                               . 6 r 1.p L J.J.",
"A A A   b.Z.N.N.M.N.N.N.N.M.t.* w N w   # # # # # # # # # # # # # # #     # # # #   * K . X 7 A A A ",
"f.h.i   b.C.C.}.N.N.M.{.{.M.t.* I i .   & 8.9.9.8.9.9.9.0.0.0.8.0.9.9.9.9.9.8.9.>.% - F G g.g.h.h.f.",
"J.J.i   b.C.M.u.N.N.N.v.v.M.t.* 5.a # & 8.>.$ # # #   # # # * # * # #   # # $   # 8 g.F s.G.J.J.J.J.",
"J.J.i   y.b.y.t.u.u.u.y.y.y.q.* 5.g.D # $ # 4.E E a.I a.i K Q 5.a.o.5.5.0 5.5.5.5.g.J.F s.J.J.J.G.J.",
"J.J.h.A p ,.r r r r r r r r 5 i g.J.s.N q 4 g.J.K.G.G.G.G s.J.k.G.J.J.h.K ^.G.J.J.G.J.F s.J.J.G.F.F.",
"F.G.~ K.e 4 - 8 6 6 6 6 6 ; : h.G.7.! W T A J.J.J.J.J.J.F s.J.7.k.J.J.h.K (.J.J.J.J.J.F s.J.G.d.W W ",
"~ G.F.^.G.j.K (.J.J.J.J.J.F s.J.7.W W W T F T.J.J.J.J.J.G s.J.F.^.J.J.h.K (.J.J.J.J.J.F s.J.7.W W W ",
"W F.! R.G.h.K (.J.J.J.J.J.F s.J.! W W W T D ^.J.J.J.J.J.F s.J.! T.J.G.h.K /.J.J.J.J.J.F d.J.! ! W W ",
"W F.f.T.G.h.D ^.J.J.J.J.J.F s.J.! W W W T K ^.J.J.J.J.J.F s.J.7.K.J.G.h.J ^.J.J.J.J.J.F s.J.! W W W ",
"W F.J.T.J.h.D T.J.J.J.J.J.F s.J.! W W W T D R.J.J.J.J.J.F s.J.J.T.J.J.h.D T.G.J.J.G.G.F s.J.W W W W ",
"W F.J.J.J.h.D L.J.J.J.J.J.F g.J.! W W W H D P.J.J.J.J.J.F s.J.J.J.J.J.h.A T.J.J.J.G.K.G s.J.! W W W ",
"W F.J.J.J.h.D L.J.J.J.J.J.F s.J.! W W H e D J.J.J.J.J.J.F s.J.J.J.J.J.h.D T.J.J.J.J.J.G s.J.! W W H ",
"W F.J.J.J.h.A J.J.J.J.J.J.F s.J.! W W e w A J.J.J.J.J.J.G z.K.J.J.J.J.h.A J.J.J.J.J.J.G s.J.! W W e ",
"W F.J.J.J.h.A J.J.J.J.J.J.G s.G.! W W 9 9 A J.J.J.J.J.J.G x.K.J.J.J.J.h.A J.J.J.J.J.J.G s.J.! W W 9 ",
"W F.J.J.J.h.e d.J.J.J.J.f.A g.J.! W W 9 9 N 7.J.J.J.J.f.A x.K.J.J.J.J.h.i d.J.J.J.J.f.A s.J.! W W 9 "
};
