/* XPM */
static char *player_21730234255[] = {
/* columns rows colors chars-per-pixel */
"50 50 196 2 ",
"   c #3F3851",
".  c #4E3752",
"X  c #443C54",
"o  c #4C3B53",
"O  c #583852",
"+  c #683C4F",
"@  c #713D4D",
"#  c #7C3656",
"$  c #334E66",
"%  c #394C61",
"&  c #385768",
"*  c #2C5972",
"=  c #2C687B",
"-  c #484158",
";  c #4D4259",
":  c #534154",
">  c #564956",
",  c #504459",
"<  c #554B5F",
"1  c #5C4B5E",
"2  c #6B4C53",
"3  c #644958",
"4  c #7F4A54",
"5  c #6B545B",
"6  c #6A565A",
"7  c #76545D",
"8  c #474962",
"9  c #4C4C64",
"0  c #5A4F61",
"q  c #4D556A",
"w  c #575367",
"e  c #585B6F",
"r  c #4F5A72",
"t  c #604F60",
"y  c #645464",
"u  c #6E5967",
"i  c #695968",
"p  c #755767",
"a  c #725C69",
"s  c #7B5D6B",
"d  c #546378",
"f  c #6E6263",
"g  c #786469",
"h  c #7B606D",
"j  c #736E7A",
"k  c #8A3F4F",
"l  c #833657",
"z  c #983659",
"x  c #B83958",
"c  c #C53D55",
"v  c #815056",
"b  c #8C5C55",
"n  c #945052",
"m  c #B64849",
"M  c #B24B4E",
"N  c #976055",
"B  c #98695A",
"V  c #865F62",
"C  c #826866",
"Z  c #82646D",
"A  c #9A7D67",
"S  c #836670",
"D  c #8D6373",
"F  c #846B73",
"G  c #8E6F76",
"H  c #946974",
"J  c #9B6A76",
"K  c #897973",
"L  c #87727A",
"P  c #89757B",
"I  c #927279",
"U  c #9A7779",
"Y  c #A56D78",
"T  c #AB6F7B",
"R  c #AE7D75",
"E  c #A3737B",
"W  c #AD707B",
"Q  c #AD797F",
"!  c #BB7C70",
"~  c #B0757D",
"^  c #B2787F",
"/  c #C6474A",
"(  c #C94B4C",
")  c #D6464B",
"_  c #DA4A49",
"`  c #DF564F",
"'  c #E25F53",
"]  c #C3685C",
"[  c #DD6C5E",
"{  c #C37558",
"}  c #EA6E4C",
"|  c #E56255",
" . c #EA6C5A",
".. c #EB7550",
"X. c #ED735D",
"o. c #EF7E64",
"O. c #F07860",
"+. c #9B806A",
"@. c #9F937D",
"#. c #BD8A71",
"$. c #EF895A",
"%. c #F0905E",
"&. c #D88965",
"*. c #CD8674",
"=. c #CF9674",
"-. c #E6826B",
";. c #F28266",
":. c #EE9469",
">. c #F19B65",
",. c #EF8972",
"<. c #DFB178",
"1. c #E8A971",
"2. c #F4B576",
"3. c #F5BB78",
"4. c #F6C27D",
"5. c #297584",
"6. c #576B82",
"7. c #5D798F",
"8. c #657083",
"9. c #69788D",
"0. c #767785",
"q. c #727D8C",
"w. c #6F7E90",
"e. c #A27D80",
"r. c #A97D81",
"t. c #B37B81",
"y. c #2B8189",
"u. c #328E8E",
"i. c #379A91",
"p. c #77808F",
"a. c #6D8499",
"s. c #728393",
"d. c #798896",
"f. c #728C9D",
"g. c #7F8E9B",
"h. c #768EA1",
"j. c #7C95A6",
"k. c #948487",
"l. c #858A98",
"z. c #87919D",
"x. c #AE8585",
"c. c #A58986",
"v. c #B68285",
"b. c #B98386",
"n. c #B58888",
"m. c #B98D8B",
"M. c #B4918D",
"N. c #AB9995",
"B. c #B69793",
"V. c #B89B95",
"C. c #829CAB",
"Z. c #8B9FA9",
"A. c #9897A3",
"S. c #919BA7",
"D. c #969EA9",
"F. c #9BA2AC",
"G. c #87A2B0",
"H. c #8AA5B2",
"J. c #8CA9B5",
"K. c #91AEB8",
"L. c #95B2BC",
"P. c #98B4BD",
"I. c #A5A4AD",
"U. c #A8AAB4",
"Y. c #AFAFB8",
"T. c #B6B0B1",
"R. c #C08F8D",
"E. c #C1928E",
"W. c #C79D8E",
"Q. c #C39490",
"!. c #C59A94",
"~. c #C89E97",
"^. c #C89F98",
"/. c #D7A08D",
"(. c #CAA292",
"). c #C4A69E",
"_. c #CAA39B",
"`. c #CDAA9F",
"'. c #DBAA96",
"]. c #EDB19A",
"[. c #C1ADA2",
"{. c #CEACA2",
"}. c #C0ADA8",
"|. c #D5B6A9",
" X c #D5BCB2",
".X c #EDBBA4",
"XX c #EBCE90",
"oX c #E6C7B1",
"OX c #E1CAB7",
"+X c #ECD4BE",
"@X c #FFECA7",
"#X c #9DB9C1",
"$X c #A1BEC4",
"%X c #A5C2C7",
"&X c #B9CDD2",
"*X c #CAD9DC",
/* pixels */
"E.Q.Q.Q.Q.m.S Q.Q.Q.Q.Q.Q.G M.!.E.Q.Q.Q.m.h t.b.b.b.b.t.D Q m.Q.Q.Q.Q.m.S E.Q.Q.Q.Q.Q.G M.!.Q.m.b.b.",
"Q.Q.Q.Q.Q.m.S Q.Q.Q.Q.Q.Q.G M.!.Q.Q.Q.Q.m.S m.Q.Q.Q.E.R.F n.E.Q.Q.Q.Q.M.F Q.Q.Q.Q.Q.Q.G M.!.Q.Q.Q.E.",
"Q.Q.Q.Q.Q.m.S Q.Q.Q.Q.Q.Q.G n.E.Q.Q.Q.Q.m.S Q.Q.Q.Q.Q.Q.G x.!.E.Q.Q.E.m.S E.Q.Q.Q.Q.Q.G x.Q.Q.Q.Q.Q.",
"Q.Q.Q.Q.Q.m.S Q.Q.Q.Q.Q.Q.G x.E.Q.Q.Q.Q.m.S Q.Q.Q.Q.Q.Q.G x.!.E.Q.Q.Q.m.F E.Q.Q.Q.Q.Q.G x.Q.Q.Q.Q.Q.",
"m.!.Q.Q.Q.Q S Q.Q.Q.Q.Q.E.G E m.Q.Q.Q.Q.Q S Q.Q.Q.Q.Q.Q.G E R.E.E.E.E.W F Q.Q.Q.Q.Q.Q.G E m.E.Q.Q.E.",
"S S S S h h S Q.Q.Q.Q.Q.Q.G s Z F S S S s S Q.Q.Q.Q.Q.Q.G s S S F F F s F Q.Q.Q.Q.Q.Q.G s Z S S S S ",
"n.m.h Q n.J F `.Q.Q.Q.Q.Q.G J n.g E m.n.J S Q.Q.Q.Q.Q.Q.G H n.g E m.m.J G _.Q.Q.Q.Q.Q.G J n.s E m.n.",
"E.E.h E.Q.n.F {.Q.Q.Q.Q.Q.G x.E.h n.Q.Q.n.S Q.Q.Q.Q.Q.E.G x.E.s n.Q.Q.n.F `.Q.Q.Q.Q.Q.G n.E.g n.Q.Q.",
"E.Q.Q.Q.Q.m.h Q.Q.Q.Q.Q.Q.G x.Q.g ).Q.Q.m.L `.E.Q.Q.Q.Q.G x.Q.Q.Q.Q.Q.M.F E.E.E.Q.Q.Q.G x.Q.s ).Q.Q.",
"Q.Q.E.Q.Q.m.P {.Q.Q.Q.Q.Q.G x.Q.Q.!.Q.Q.m.F Q.E.Q.Q.Q.Q.G x.Q.E.Q.E.Q.m.K `.B.!.Q.Q.Q.G x.Q.Q.!.Q.Q.",
"R.E.^ !.Q.m.P  XQ.Q.Q.Q.E.G x.Q.m.{.Q.Q.m.S A h S Z S S y U Q.Q g F g f i k.E.G x.Q.Q.G x.Q.E.{.Q.Q.",
"^ R.m.|.Q.m.P  XQ.Q.Q.Q.E.G n.Q.t.`.Q.E.m.g 7 2 2 2 2 6 2 Z e.G 2 6 f f f g E 6 U n.Q.G x.Q.t._.Q.Q.",
"W R.^ `.Q.m.P |.Q.Q.Q.Q.Q.P x.Q.Q.Q.Q.Q.m.  m } $.$.$.3.>.B X : %.4.<.4.XX=.> 4.C F Q.G v.Q.Q.E.Q.Q.",
"W R.t.~.E.m.F `.Q.Q.Q.Q.Q.G x.Q.m.E.Q.Q.m.  { $.$.$.$.3.4.+.X > 4.4.6 X % > 4.@XK h Q.G x.Q.m.R.Q.Q.",
"W R.E.`.E.m.G _.Q.Q.Q.Q.Q.G n.E.~ !.Q.Q.m.  { $.$.$.$.3.4.1.&.<.4.4.>.b > &.@X@X+.S Q.G x.Q.^ !.Q.Q.",
"W R.E.Q.Q.m.F _.Q.Q.Q.Q.Q.G x.E.~ ~.Q.Q.m.- m ..$.$.$.3.4.>.%.4.4.4.2.=.#.2.@XXXg S Q.G x.E.Q !.Q.Q.",
"t.R.Q.Q.Q.m.F ^.Q.Q.Q.Q.Q.G x.Q.b.R.Q.Q.m.  4 n N N N A A B B +.A A A A A +.@.+.t h Q.K x.Q.b.E.Q.Q.",
"T m.Q.Q.Q.m.S Q.Q.Q.Q.Q.Q.H x.Q.Q.Q.Q.Q.U 8 - 9 9 9   - 8 9 q e X q e e 9 X e X w L x.G x.Q.Q.Q.Q.Q.",
"T R.Q.Q.Q.m.S Q.Q.Q.Q.Q.Q.G x.Q.Q.Q.Q.n.  7.f.f.h.a.  7.f.f.C.L.  L.%X%XZ.; %X< Y.A.t G n.E.Q.Q.Q.Q.",
"T R.Q.Q.Q.m.Z t.Q.Q.Q.Q.b.S x.Q.Q.Q.Q.n.                X     X         X         X 1 Z x.Q.Q.R.Q.Q.",
"m.Q.Q.Q.Q.m.a Z F F F S s p x.Q.Q.Q.Q.n.    k x / / / / / / / ( ! W.(.(.(.(.(.! 6 X - a x.Q.t.t.t.F ",
"Q.Q.Q.Q.R.m.s r.m.v.D I r.Z x.Q.Q.Q.Q.m.G   x ) _ _ _ ` ' '  .*.7  XoXoXoXoXoXC o y D Z x.Q.~ ~ W u ",
"Q.Q.Q.Q.Q.m.S R.Q.B.U U Q.G V.!.Q.Q.Q.Q.m.  M _ _ _ _ | X. .o.|.P OX.X].].].].P 1 S m.G V.!.t.T W u ",
"Q.Q.Q.Q.Q.m.F Q.Q.m.e.U Q.H V.!.Q.Q.Q.Q.m.  x / _ _ ) X.o.o.,..X.X.X,.[ ] ] O.].Z Z Q.I V.!.~ T W D ",
"Q.Q.Q.Q.Q.m.S Q.Q.Q.e.c.^.H }.~.Q.Q.Q.Q.n.  z c ) _ _ ..O.O.O.O.O.O.O.N X O O.O.v L ~.G }._.~ W W T ",
"!.Q.Q.Q.Q.m.S Q.Q.Q.m.^.^.P T._.Q.Q.Q.Q.m.      X . _ ' _ | O.O.O.:.o.| M O O.O.v L ~.G }.^.~ W W W ",
"!.Q.Q.Q.Q.D , t 0 0 1 0 t ; w y c.E.Q.m.1 X       o + / _ | O.O.O.;.O.o.-.*.O.O.v F !.G }.^.~ W W W ",
"!.Q.Q.Q.h 0.D.Y.Y.Y.z.D.Y.I.z.w.u @.E a N.N.c.U 7     x v M | ' O.O.O.o.;.;.O.O.v 0 G G V.!.~ T W W ",
"!.Q.Q.Q.; S.*X*X*X*X#X&X*X*X#Xj.w G I < +X+XoX'.R 6   l O n _ _ O.X.| X.O.X.X.| v 0 j s V.~.r.W W W ",
"!.Q.Q.Q., U.&XK.#XJ.J.J.J.J.K.h.9 G I < +X+X+XoX/.!       k ) ( X.| _ | X. .| ( @ k.[.X M.!.m.^ W W ",
"!.Q.Q.Q., h.#XK.%XJ.J.J.#X#XJ.h.9 D I < +X+X+X.X/.!       # z o _ _ ) _ _ _ _ .   k.[.  n.!.E.R.t.b.",
"!.Q.Q.Q., d.#XG.h.J.J.J.j.j.J.h.9 e.G < +X  X V *.*.*.,     X . x ) + # c ) x .   G m.  m.; X a Q.E.",
"Q.Q.Q.Q., l.#XH.G.J.J.J.G.G.J.h.9 < , - i   X , 3 3 3   X     o O + . . O + O X   , 1   1 l.Y.I.s Q.",
"Q.Q.Q.Q.; g.#XH.J.J.J.J.J.J.J.h.9     X r r d 8.8.8.q.s.9.l.z.p.A.A.A.l.p.q.8.8.8.d q     H.&XF.t Q.",
"R.Q.Q.Q.; g.#XJ.J.J.J.J.J.J.J.h.9     X 6.d 9.w.w.s.g.g.g.D.U.l.Y.Y.Y.D.g.d.9.s.q.8.r   X h.K.d.t Q.",
"S S S S X g.L.J.J.J.J.J.J.J.J.h.9   X X X                                   X   X   X - - d f.9., S ",
"v.m.h r., l.P.J.J.J.J.J.J.J.J.h.9 G m.n.J     X             X               X       t G H -   i m.b.",
"E.Q.h Q.; l.P.L.#XJ.J.J.L.#XJ.h.9 G Q.n.o   * 5.y.5.y.y.y.u.i.i.5.i.u.y.y.y.y.y.= $ t G x.n.n.m.Q.Q.",
"Q.Q.s Q.; g.P.J.j.L.L.J.J.j.J.h.9 I E.n.X * 5.5.= % % % % % & & % & % % % % % % = * y G @.Q.Q.Q.E.Q.",
"Q.Q.m.Q., d.J.j.j.j.G.j.j.j.j.a.9 I R.n.a $ * & q S S S y g Z Z S S S h y L Z h d % 3 G v.Q.Q.E.R.R.",
"R.E.t.!.i q.s.9.9.9.s.9.9.9.9.6.w J ~ W Y , y 1 G Q.Q.Q.G x.Q.^ Q.Q.Q.m.P  XQ.Q.Z 6 s G n.Q.E.t.W W ",
"^ E.E.{.E.h ; ; ; ; ; ; ; X ; ; J W W W Y G `.Q.E.Q.Q.Q.G n.Q.m.{.Q.Q.m.P  XQ.Q.Q.B.Q.G x.E.t.~ W W ",
"W R.W `.Q.m.P  X!.Q.Q.Q.E.G x.!.~ W W W Y L {.Q.Q.Q.Q.Q.G x.Q.^ ).Q.Q.m.P  XQ.Q.Q.Q.Q.G x.Q.^ W W W ",
"W R.v._.Q.m.F `.E.E.Q.Q.E.G n.E.~ W W W Y F `.E.Q.Q.E.E.G x.E.v.!.Q.Q.m.F _.Q.Q.Q.Q.Q.G x.Q.^ W T ~ ",
"W R.E._.E.m.F _.Q.Q.Q.Q.E.G x.E.~ W W W Y F `.Q.Q.Q.Q.Q.G n.E.Q._.Q.Q.m.G _.E.Q.Q.Q.Q.G x.Q.^ W T T ",
"W R.E.E.E.m.F _.Q.Q.Q.Q.!.G n.E.~ T W T J F _.Q.Q.Q.Q.Q.G x.E.Q.Q.Q.Q.m.F ^.Q.Q.Q.Q.Q.G x.Q.~ W T T ",
"T E.Q.Q.!.m.F _.Q.Q.Q.Q.E.G x.E.~ T T J s F Q.Q.Q.Q.Q.Q.G x.Q.Q.Q.Q.Q.m.F ^.Q.Q.Q.Q.Q.G x.Q.~ W W J ",
"W E.Q.Q.E.m.Z Q.Q.Q.E.E.!.I x.E.t.T T s a Z Q.Q.Q.Q.Q.Q.I B.Q.Q.Q.Q.Q.m.S Q.Q.Q.Q.Q.Q.G x.E.~ W W s ",
"W R.E.Q.Q.m.F E.Q.Q.Q.Q.Q.I x.E.^ W W u u F E.E.Q.Q.Q.Q.I V.!.E.Q.Q.Q.m.h Q.Q.Q.Q.Q.Q.I x.Q.~ W W u ",
"W R.E.E.Q.m.Z b.Q.E.Q.Q.v.D x.E.W W W u u Z t.Q.Q.Q.Q.b.F V.~.E.Q.Q.Q.m.S v.Q.Q.Q.Q.b.S x.Q.~ W W u "
};
