/* XPM */
static char *player_41730234254[] = {
/* columns rows colors chars-per-pixel */
"50 50 195 2 ",
"   c #3F3851",
".  c #443C54",
"X  c #4C3952",
"o  c #5B3953",
"O  c #663C4F",
"+  c #7A3E4D",
"@  c #663952",
"#  c #7C3854",
"$  c #354962",
"%  c #394C61",
"&  c #385366",
"*  c #2D5770",
"=  c #2A697C",
"-  c #336474",
";  c #4A4056",
":  c #454159",
">  c #4A445B",
",  c #4C495F",
"<  c #554455",
"1  c #564956",
"2  c #504459",
"3  c #564C5C",
"4  c #5A4A5D",
"5  c #674E5B",
"6  c #525166",
"7  c #565065",
"8  c #58586C",
"9  c #4F5A72",
"0  c #565E74",
"q  c #604F60",
"w  c #6E5967",
"e  c #685968",
"r  c #745A67",
"t  c #715B69",
"y  c #7A5D6A",
"u  c #556478",
"i  c #5A6379",
"p  c #6D606E",
"a  c #7B606D",
"s  c #656C7D",
"d  c #686A7B",
"f  c #766B78",
"g  c #7D727C",
"h  c #8C3856",
"j  c #AA355A",
"k  c #BC3958",
"l  c #C43C55",
"z  c #8C404D",
"x  c #815256",
"c  c #965150",
"v  c #A0434C",
"b  c #A2494E",
"n  c #AD504F",
"m  c #976055",
"M  c #AE6359",
"N  c #B9775C",
"B  c #835E67",
"V  c #84636D",
"C  c #986B69",
"Z  c #967568",
"A  c #836671",
"S  c #8D6373",
"D  c #846B73",
"F  c #8E6F76",
"G  c #9B6975",
"H  c #877178",
"J  c #89757C",
"K  c #937279",
"L  c #99767B",
"P  c #9C7A7B",
"I  c #B16F69",
"U  c #A56D78",
"Y  c #AB6F7B",
"T  c #A3737B",
"R  c #AD707B",
"E  c #A07B7F",
"W  c #AD797F",
"Q  c #B0757D",
"!  c #B4797B",
"~  c #C7464B",
"^  c #D2444E",
"/  c #DA4A49",
"(  c #DE544E",
")  c #CE4150",
"_  c #D45951",
"`  c #E75A43",
"'  c #E15D52",
"]  c #CC7359",
"[  c #EB724E",
"{  c #E66356",
"}  c #E66857",
"|  c #EA6C5A",
" . c #ED735E",
".. c #D77567",
"X. c #F07860",
"o. c #928575",
"O. c #AA8166",
"+. c #B18E6C",
"@. c #A8827D",
"#. c #B49C7A",
"$. c #EE8558",
"%. c #F0905E",
"&. c #D18E6D",
"*. c #C89F72",
"=. c #F28467",
"-. c #F39468",
";. c #EE8D75",
":. c #CBAC7E",
">. c #D3A875",
",. c #F3A96D",
"<. c #F6C27D",
"1. c #277585",
"2. c #596E84",
"3. c #626D81",
"4. c #647083",
"5. c #6C7485",
"6. c #68788D",
"7. c #727D8C",
"8. c #7A7A89",
"9. c #6F7E90",
"0. c #877E88",
"q. c #A27D80",
"w. c #A97D81",
"e. c #B37A81",
"r. c #2B8089",
"t. c #2F888C",
"y. c #34938F",
"u. c #298A91",
"i. c #389D92",
"p. c #6A8498",
"a. c #758798",
"s. c #7E8E9A",
"d. c #768EA1",
"f. c #7C95A6",
"g. c #7E98A8",
"h. c #87919D",
"j. c #A28480",
"k. c #AE8585",
"l. c #A68988",
"z. c #A88989",
"x. c #B58385",
"c. c #B98386",
"v. c #B48988",
"b. c #B98D8B",
"n. c #AB918E",
"m. c #B3908D",
"M. c #B59894",
"N. c #B99B95",
"B. c #B7A987",
"V. c #8895A0",
"C. c #819BAA",
"Z. c #9698A4",
"A. c #87A3B0",
"S. c #8AA6B3",
"D. c #8CA9B5",
"F. c #94ADB7",
"G. c #95B2BC",
"H. c #A8AAB4",
"J. c #AFAFB8",
"K. c #C08F8D",
"L. c #C1928E",
"P. c #D59B88",
"I. c #C39490",
"U. c #C59A94",
"Y. c #C89E97",
"T. c #C89F98",
"R. c #C6A69B",
"E. c #CAA39B",
"W. c #CDAA9F",
"Q. c #D6AE91",
"!. c #EAA992",
"~. c #CEACA2",
"^. c #C0ADA8",
"/. c #D3B5AA",
"(. c #D5BCB2",
"). c #E8BCA5",
"_. c #E3BEA8",
"`. c #CFC193",
"'. c #F5CE8F",
"]. c #F9D38D",
"[. c #FDE29D",
"{. c #D6C0B0",
"}. c #ECD4BE",
"|. c #FEEBA5",
" X c #FFEFA9",
".X c #A2BFC5",
"XX c #A5C2C7",
"oX c #ADC5CB",
"OX c #B7C9CE",
"+X c #C4C4CA",
"@X c #C1D4D7",
"#X c #CCDADD",
"$X c #DCDFE1",
"%X c #DDE8E9",
"&X c #F2F7F6",
/* pixels */
"L.I.I.I.I.b.A I.I.I.I.I.I.F m.U.I.I.I.I.b.a W c.c.c.c.e.S W L.L.I.I.I.m.D I.I.I.I.I.I.F m.I.I.b.c.c.",
"I.I.I.I.I.b.A I.I.I.I.I.I.F m.U.I.I.I.I.b.A K.L.L.L.L.K.F k.I.I.I.I.I.b.D I.I.I.I.I.I.F m.U.I.I.I.L.",
"I.I.I.I.I.b.A I.I.I.I.I.I.F k.I.I.I.I.I.b.A I.I.I.I.I.I.F k.I.I.I.I.b.b.A I.I.I.I.I.I.F k.I.I.I.I.I.",
"I.I.I.I.I.b.A I.I.I.I.I.I.F k.I.I.I.I.I.b.D I.I.I.I.I.I.F k.I.I.I.I.I.b.A I.I.I.I.I.I.F k.I.I.I.I.I.",
"b.I.I.I.b.W A I.I.I.I.I.L.F T L.I.I.L.L.W A I.I.I.I.I.I.F T b.L.I.I.I.R D I.I.I.I.I.I.F T K.I.I.I.L.",
"A A A A A a A I.I.I.I.I.I.F y a A A A A y A I.I.I.I.I.I.F a A A A D A y a I.I.I.I.I.I.F y A A A D A ",
"v.b.a W v.G D W.I.I.I.I.I.F G x.a T b.c.G A L.I.I.I.I.I.F G v.a T b.v.G H ~.I.I.I.I.I.F G x.a T b.v.",
"L.I.y L.I.v.H W.I.I.I.I.I.F k.L.a b.N.L.v.D L.I.I.I.L.L.F k.L.a b.I.I.v.D W.I.I.I.I.I.F k.b.a b.L.L.",
"I.I.I.I.I.b.D I.I.I.I.I.I.K k.I.a R.I.I.b.H Q.I.I.I.I.I.F k.I.I.I.I.I.b.A L.I.I.I.I.I.F k.I.a R.I.I.",
"I.I.L.I.I.m.H ~.I.I.I.I.I.F k.I.N.U.I.I.b.D L.I.I.I.I.I.F k.I.L.I.I.I.m.H ~.I.I.I.I.I.F k.I.I.U.I.I.",
"K.L.W U.I.b.J (.I.I.I.I.I.F k.I.K.~.I.I.b.A I.I.I.I.I.I.F k.I.e.L.I.I.m.J {.I.I.I.I.I.F k.I.L.~.I.I.",
"! L.L.~.I.b.J (.I.I.I.I.I.F k.I.e.E.L.L.b.H N.E @.P b.U.D K q.E n.P @.@.J N.q.q.k.I.I.F k.I.e.E.I.I.",
"R K.Q ~.I.b.J /.I.I.I.I.I.F k.I.L.L.L.L.b.a D < < 1 @.@.y 1 1 1 3 3 1 3 f 3 3 3 t v.I.F k.I.I.I.I.I.",
"R K.e.T.I.b.D W.I.I.I.I.I.F k.I.K.L.I.I.b.; z ` %.<.1 . m -.<.<.|.].].`..  X X].+.2 I.F k.I.b.L.I.I.",
"R K.I.E.I.b.D E.I.I.I.I.I.F k.I.Q U.I.I.b.; m $.%.<.1 . Z <.<.1 1 1 o.Q.. |. X|.B.2 I.F k.I.W U.I.I.",
"R K.I.I.I.b.D E.I.I.I.I.I.F k.I.Q Y.I.I.b.X m $.%.<.N O.>.<.<.M ; r *.[.+. X X XB.2 I.F k.I.Q U.I.I.",
"R I.I.I.I.b.D T.L.I.I.I.I.H k.I.c.L.I.I.b.X c [ %.<.%.,.<.<.<.,.O.&.'.[.<. X|.[.#.2 I.F k.I.c.L.I.I.",
"R b.I.I.I.b.A I.I.I.I.I.I.F x.I.I.I.I.I.b.> 5 ~ ] *.N *.*.*.*.*.*.*.:.Q.*.`.`.:.Z ; I.F k.I.I.I.I.L.",
"R b.I.I.I.b.A I.I.I.I.I.I.F k.I.I.I.I.I.b..     .         .           .       .   1 I.F k.I.I.I.I.I.",
"R I.I.I.I.b.B x.I.I.I.I.c.S k.I.I.I.I.I.> 2.p.6.; p.p.F.7.8 XX.XXX3.0.%X.X  OX&X&X$X  V x.I.I.L.I.I.",
"b.I.I.I.I.b.t a A A A D a r k.I.I.I.I.I.2 . : :   : : > ; . , , , . > 7 ,   > 3 7 7 . w k.L.x.! e.A ",
"I.I.I.I.I.b.y W b.v.F K W B k.I.I.I.I.I.; . @ h v v v v c Z @.@.l.q.j.E C v v j 5   . V x.L.Q R R w ",
"I.I.I.I.I.b.D L.L.L.K L L.F M.U.I.I.I.I.t . h ~ / ( ( } N @.{.{.)._.(.Q.C ..{ ' v . w F M.U.Q R R w ",
"I.I.I.I.L.b.A I.I.L.L L L.F N.U.I.I.I.I.b.; z / / }  .!.z.P }.).'.).).E.t /.=.| n < L.F M.U.Q R R S ",
"I.I.I.I.I.b.A I.I.I.P l.E.F ^.E.I.I.I.I.b.; h / ( X.X.).}.}.}.X. . .X.;.}.}.;.X.M , Y.F ^.T.Q R R Y ",
"U.I.I.I.I.b.A I.I.U.L.E.U.F ^.E.I.I.I.I.b.; # l / /  .X. .X.X.X. .r x X.X.X.X.X.M 2 Y.F ^.T.Q R R R ",
"Y.I.I.I.K.L 2 q q q 4 7 7 < e q K I.L.I.w . X + / /  .X.X.X.-.X.X...;.=.X.X.X.X.M o U.F ^.T.Q R Y R ",
"U.I.I.I.K 8.V.J.J.J.Z.Z.J.J.h.p.f D b.w @.C 5 O k + ' ' | X.=.X.X.$.=.=.X.X.X. .M . t F N.Y.Q R R R ",
"U.I.I.I.r 5.@X#X#X#XOXoX#X#X.XS.3.q v.. W.P.D X h   _ / ' X.| }  .X. .| { | { ' b > g p N.U.e.R R R ",
"U.I.I.I.w 8.%XD.D.D.D.D.D.D.D.f.u 7 v.  {._.P .   X n ^ ' | ' / | | | ( ~ { / / j , }.. l.U.v.! R R ",
"I.I.I.I.t d .XD.XXF.D.S.F.XXD.f.i q v.  {._.P.U     j @ h / / / / / / n . / / / v 3 }.  l.I.L.K.c.x.",
"U.I.I.I.t d .XD.d.A.D.D.S.d.S.f.i 4 v.  {.p x &.I       # l /   k l l h   k ) + . 3 Q.  l.A . 2 L.L.",
"I.I.I.I.w 3..XD.A.S.D.D.S.A.D.f.i . 4   e > 2 q < .     X o O   o O @ X   o O X   ; e   1 5.H.+Xq v.",
"I.I.I.I.w s XXD.D.D.D.D.D.D.D.f.0   .   9 9 i 4.4.4.7.7.8.a.Z.8.Z.Z.Z.h.8.5.4.s 4.s 9     5.oXOX  v.",
"b.I.I.I.t d .XD.D.D.S.D.D.D.D.f.i .     9 u 4.9.9.6.s.s.s.h.J.s.H.H.J.H.s.s.a.p.p.p.u     i A.D.. x.",
"A A A D 3 s .XD.D.D.D.D.D.D.S.f.0 . . . . . . . .               .     X     .       < X . 9 p.s.. a ",
"v.b.a w.e d .XD.D.D.D.D.D.D.D.f.i q b.v.G A A               . . .   .       .   . 2 I.F C t . 2 b.v.",
"L.I.y I.w s .XD..XG.D.D.D.XXD.f.i q I.I.v.A A % r.1.1.r.t.t.i.i.r.t.y.r.r.1.r.= * 2 I.F k.b.x.v.I.I.",
"I.I.y I.w s .XD.g.S.D.D.D.C.S.f.i q I.L.b.D J $ 1.u.u.- % % & & % % & % % % = 1.- 2 I.F k.I.I.I.I.I.",
"I.I.K.I.t s G.g.d.g.C.C.C.d.g.a.0 q K.K.w.D q.e & - 1.% ; a A a A A A r     % * 0 D I.F k.I.U.b.K.b.",
"K.I.! I.f f a.6.6.6.6.6.6.6.6.2.0 r R R U S I.k.4 . * 6 e k.I.e.b.I.I.k., e q q D L.I.F x.L.L.x.R R ",
"Q K.K./.I.L > 3 2 > 2 > 2 X 2 2 B R R R U D ~.I.x.2 > L F k.I.b.~.I.I.b.J {.I.I.L.L.I.F v.L.c.R R R ",
"R K.Q ~.I.b.J /.I.I.I.I.I.F k.I.Q R R R U H ~.I.L.I.I.I.F k.I.e.W.I.L.b.J /.I.I.U.U.L.F x.L.Q R R R ",
"R K.e.T.I.b.D W.I.I.I.I.I.F k.I.Q R R R U H E.I.I.I.I.L.F k.I.e.U.I.L.b.H ~.I.I.L.L.I.F k.L.Q R R R ",
"R K.I.E.I.b.D E.I.I.I.I.I.F x.I.Q R R R U D W.I.I.I.I.I.F k.I.I.E.I.I.b.D E.L.I.I.I.L.F k.I.W R R R ",
"R K.I.I.I.b.D E.I.I.I.I.I.F k.I.Q R R R G D E.I.I.I.I.I.F k.I.I.I.I.I.b.A E.I.I.I.I.I.K k.I.Q R R R ",
"R K.I.I.L.b.D E.I.I.I.I.I.F k.I.Q R R G y D I.I.I.I.I.I.F v.I.I.I.I.I.m.D E.I.I.I.I.L.F v.L.Q R R G ",
"R K.I.I.L.b.D I.I.I.I.I.I.H k.I.Q R R y w A I.I.I.I.I.I.F m.U.I.I.I.I.b.A I.I.I.I.I.L.F k.L.Q R R y ",
"R K.I.I.I.b.A I.I.I.I.I.I.K k.I.R R R w w A I.I.I.I.I.I.F N.U.I.I.I.I.b.A I.I.I.I.I.I.F k.L.Q R R w ",
"R K.I.I.I.b.y x.I.I.I.I.c.A x.I.Q R R w w V x.I.I.I.I.c.A N.U.I.I.I.I.b.a x.I.I.I.I.c.S k.I.Q R R w "
};
