/* XPM */
static char *monsters_banner1730306392[] = {
/* columns rows colors chars-per-pixel */
"100 50 218 2 ",
"   c #150F0D",
".  c #291B16",
"X  c #34241E",
"o  c #090325",
"O  c #0E0A29",
"+  c #100627",
"@  c #110629",
"#  c #15092A",
"$  c #1A0C2B",
"%  c #1E122D",
"&  c #1D1636",
"*  c #1B1831",
"=  c #220F2E",
"-  c #24112E",
";  c #28132F",
":  c #261230",
">  c #2D1532",
",  c #271B33",
"<  c #331933",
"1  c #3B1C35",
"2  c #3C1C39",
"3  c #1F2134",
"4  c #292827",
"5  c #322A2F",
"6  c #36283A",
"7  c #401F37",
"8  c #411F3B",
"9  c #442E26",
"0  c #50352C",
"q  c #45223B",
"w  c #4A223E",
"e  c #4D283E",
"r  c #51283E",
"t  c #47393B",
"y  c #533C36",
"u  c #5C3D33",
"i  c #49423F",
"p  c #52423D",
"a  c #5B443C",
"s  c #64453B",
"d  c #684538",
"f  c #69493D",
"g  c #734B3E",
"h  c #2E2843",
"j  c #332C47",
"k  c #3D374C",
"l  c #3F3851",
"z  c #4F2540",
"x  c #532742",
"c  c #532B41",
"v  c #5C2C45",
"b  c #473443",
"n  c #5C3244",
"m  c #593944",
"M  c #4B3B51",
"N  c #632F48",
"B  c #633447",
"V  c #663947",
"C  c #6F344D",
"Z  c #71364E",
"A  c #743A4E",
"S  c #643F51",
"D  c #763B50",
"F  c #793D50",
"G  c #474545",
"H  c #574848",
"J  c #554C52",
"K  c #5B5958",
"L  c #684A47",
"P  c #6C4A4F",
"I  c #764948",
"U  c #774C4C",
"Y  c #6C564E",
"T  c #795345",
"R  c #7A584C",
"E  c #664656",
"W  c #684A58",
"Q  c #7E4152",
"!  c #784854",
"~  c #685B56",
"^  c #6B545D",
"/  c #7C535B",
"(  c #7B5658",
")  c #69615B",
"_  c #74645D",
"`  c #79695C",
"'  c #5E5B63",
"]  c #6E5C62",
"[  c #6D6B6B",
"{  c #766C69",
"}  c #78736A",
"|  c #797776",
" . c #8A474E",
".. c #825A4B",
"X. c #8C5C4C",
"o. c #814453",
"O. c #884B56",
"+. c #964952",
"@. c #885556",
"#. c #855B59",
"$. c #985759",
"%. c #AD4F54",
"&. c #B65657",
"*. c #8F6455",
"=. c #966352",
"-. c #97615D",
";. c #9B6C5A",
":. c #A2635C",
">. c #A56A5B",
",. c #B9675E",
"<. c #AC715D",
"1. c #805F62",
"2. c #965F69",
"3. c #B15F64",
"4. c #836366",
"5. c #866E6B",
"6. c #9B6764",
"7. c #877867",
"8. c #917A73",
"9. c #A66863",
"0. c #B96C65",
"q. c #AA7564",
"w. c #B37463",
"e. c #BA7A65",
"r. c #B57868",
"t. c #B67C6B",
"y. c #BC7D6A",
"u. c #BE7F71",
"i. c #C15455",
"p. c #D35755",
"a. c #D6615A",
"s. c #D8665E",
"d. c #CA6B63",
"f. c #D16B64",
"g. c #DB6D64",
"h. c #C67767",
"j. c #CE7669",
"k. c #D97769",
"l. c #E27F6D",
"z. c #948776",
"x. c #AC8C72",
"c. c #B78770",
"v. c #AB9A7A",
"b. c #B99879",
"n. c #C2836D",
"m. c #CE846F",
"M. c #D5826F",
"N. c #C48671",
"B. c #C68871",
"V. c #CC8D75",
"C. c #CF8F78",
"Z. c #C99277",
"A. c #D19179",
"S. c #DA9D7E",
"D. c #E3826F",
"F. c #E48671",
"G. c #E58A73",
"H. c #E79076",
"J. c #E89177",
"K. c #E99578",
"L. c #E7987B",
"P. c #EB9B7C",
"I. c #C6A47E",
"U. c #EDA27F",
"Y. c #808080",
"T. c #8C8886",
"R. c #909090",
"E. c #9F9F9F",
"W. c #B0A995",
"Q. c #A0A0A0",
"!. c #AFAFAF",
"~. c #B8B3A4",
"^. c gray69",
"/. c gray75",
"(. c #CDA781",
"). c #D9A381",
"_. c #DFAB86",
"`. c #D3B687",
"'. c #DDB289",
"]. c #CABA96",
"[. c #EEA582",
"{. c #E6AB85",
"}. c #F0AC85",
"|. c #E3B38A",
" X c #E3B88E",
".X c #F3B389",
"XX c #F5BB8E",
"oX c #E7BD92",
"OX c #D9C395",
"+X c #E5C49A",
"@X c #F7C192",
"#X c #F8C393",
"$X c #FBCA97",
"%X c #FBCD9A",
"&X c #FCD19E",
"*X c #DFC9A0",
"=X c #E6CAA0",
"-X c #E7D3AA",
";X c #EDDEA9",
":X c #FCD6A3",
">X c #FDDAA7",
",X c #FEDEAB",
"<X c #E8DAB5",
"1X c #E7DDBE",
"2X c #FEE2AF",
"3X c #FFEAB7",
"4X c #FEE5B8",
"5X c #FEE9BD",
"6X c gray81",
"7X c #DFDFDF",
"8X c #E6DEC2",
"9X c #E7E1C5",
"0X c #FEECC2",
"qX c #FFF0C2",
"wX c #FFF5CB",
"eX c #FFF9D5",
"rX c #EFEFEF",
"tX c white",
/* pixels */
"A.S.oX+X-X9X1X-X-X-X X{.A.W l j.M.A.|. X-X-X-X1X8X-X-X-XoX X X{.A.M.0.l ] A.|.oX-X-X-X1X8X-X+XoXS.N.A.). X+X-X9X1X-X-X-XoX_.A.E l j.M.A.|. X-X-X-X8X8X-X-X-XoX X X{.A.M.0.l ( A.|.oX-X-X-X8X8X-X+X X).c.",
"}.XX$X,X2X0X5X2X2X2X$XXX}.^ M M.J.}.@X$X2X2X2X0X0X2X2X2X&X$X$XXX}.G.j.l 4.}.#X$X2X2X2X0X0X2X:X$X.XS.}.XX$X>X2XqX5X2X2X2X$XXX[.] l l.G.}.@X%X2X2X2X5X0X2X2X2X&X$X$XXX}.G.j.l { .X@X%X2X2X2X0X0X2X:X$X.X).",
"$X$X$X$X$X$X$X$X$X$X$X$X%X] l D.P.$X$X$X$X$X$X$X$X$X$X$X$X$X$X$X$XJ.j.l 5.$X$X$X$X$X$X$X$X$X$X$X$X X$X$X$X$X$X$X$X$X$X$X$X$X%X] l D.P.$X$X$X$X$X$X$X$X$X$X$X$X$X$X$X$XJ.j.k 5.$X$X$X$X$X$X$X$X$X$X$X$X X",
"$X$X$X$X$X$X$X$X$X$X$X$X$X] M k.P.$X$X$X$X$X$X$X$X$X$X$X$X$X$X$X$XJ.j.l 5.$X$X$X$X$X$X$X$X$X$X$X$X X$X$X$X$X$X$X$X$X$X$X$X$X%X] l D.P.$X$X$X$X$X$X$X$X$X$X$X$X$X$X$X$XH.j.M 5.$X$X$X$X$X$X$X$X$X$X$X$X X",
"$X$X$X$X$X$X$X$X$X$X$X$X$X] l M.P.$X$X$X$X$X$X$X$X$X$X$X$X$X$X$X$XH.j.l 5.$X$X$X$X$X$X$X$X$X$X$X$X X$X$X$X$X$X$X$X$X$X$X$X$X$X] l l.P.%X$X$X$X$X$X$X$X$X$X$X$X$X$X%X$XJ.j.l 5.#X$X$X$X$X$X$X$X$X$X$X%X X",
"$X$X$X$X$X$X$X$X$X$X$X$X$X] M l.G.}.#X$X$X$X$X$X$X$X$X$X$X$X$XXX[.G.j.l 5.$X$X$X$X$X$X$X$X$X$X$X$X X$X$X$X$X$X$X$X$X$X$X$X$X$X] l D.G.[.@X$X$X$X$X$X$X$X$X$X$X$X$XXX[.G.j.l 5.$X$X$X$X$X$X$X$X$X$X$X#X X",
"@X@X$X$X$X$X$X$X$X$X$X#XXX] l k.G.K..X@X$X$X$X$X$X$X$X$X$X$X@X.XL.F.j.l 5.@X$X$X$X$X$X$X$X$X$X$X@X|.@X@X$X$X$X$X$X$X$X$X$X#X@X] l k.H.K..X@X$X$X$X$X$X$X$X%X7.~ (..XL.F.j.l 5.XX$X$X$X$X$X$X$X$X$X$XXX{.",
"U..X$X$X$X$X$X$X$X$X$XXX[.^ M D.l.D.P.U.$X$X$X$X$X$X$X$X$X#XU.K.k.D.j.M 1.U.@X$X$X$X$X$X$X$X$X$X}.A.U..X$X$X$X$X$X$X$X$X$XXXU.^ M l.D.D.K.U.$X$X$X$X$X$X$X;.$.f.W m.l.l.j.M 1.[.XX$X$X$X$X$X$X$X$X$X}.S.",
"J.P..X@X$X$X$X$X$X$X.X}.H.W M k.l.l.G.G.[.[.U.[.[.[.[.[.[.U.H.G.D.l.j.M #.G.}.XX$X$X$X$X$X$XXX.XP.M.H.U..X#X$X$X$X$X$X$X.X[.J.W l D.l.l.G.H.U.[.[.[.[.[.9.O.j.g.+.H k.:.n , / H.}..X#X%X$X$X$X$XXX.XP.M.",
"D.G.[.XX$X$X$X$X$X$X[.K.l.W l D.l.l.l.l.l.D.l.l.l.l.l.l.l.l.l.l.D.D.j.k / l.P.[.$X$X$X$X$X$XXXU.F.j.l.F.U.XX$X$X$X$X$X$XU.K.D.W l D.l.l.l.l.l.l.l.l.l.l.@.2.2.6.6.6 L  .&.0.H l.[.[.#X%X$X$X$X$XXX[.F.j.",
"l.D.F.F.G.F.G.G.G.G.F.D.M.W l p.s.l.l.l.l.D.l.l.l.l.l.l.l.l.D.D.k.a.&.M / l.D.D.G.G.G.G.G.G.G.D.D.j.l.D.F.F.F.F.G.F.G.G.D.D.D.W l p.s.D.D.l.l.l.l.l.l.l.k./ G | e b Q j.p.s.^ $.l.F.G.G.G.G.G.G.F.F.l.j.",
"g.l.l.l.l.l.l.l.k.F.l.k.k.E M %.3.0.,.$.r O o o o o o o o o o o o o o o o + # # $ # o o o o o o o o o V F I A I 6 o o o o o o o o o o o o o o o o o o o o + k z.m h 0.%.).&.O.m l.l.l.l.l.l.l.l.l.l.l.d.",
"p.a.M.l.l.l.l.l.l.F.k.g.p.S M l l & o o # - m U ( P c m #.#.#.U U ( ( @.R A O.o.o.Q P #.@.#.#.#.#.#.#.#.#.U U U U c n #.#.#.#.#.#.@.U U n r w n P I n c n m % # o O J W 2.3.8.6 k.l.l.l.l.l.l.l.l.l.p.i.",
"Q ! / @./ / / / / / / ! Q M l k @ o = c I q.e.B.C.h.9.N.A.A.A.e.e.n.V.m.y.e.e.>.:.w.V.A.A.A.C.A.A.A.A.A.V.e.e.e.e.6.F t.n.h.n.A.A.V.e.y.t.O.-.<.e.w.o.$.y.C.t.C q % 3 ' J k * b ! / / / / / / / / / ! E ",
"l l l l l l l l l l M l l l l h o > A o.O.e.A.C.A.e.e.h.V.A.V.n.V.Z.c.e.e.e.e.e.e.B.A.n.y.V.A.A.A.A.V.A.A.n.e.e.h.A.t.n.e.e.c.C.C.B.n.C.V.e.e.e.e.e.w.y.C.C.h.O.C n 6 ~.W.h k l M M l l l l l l k M M l ",
"j.j.j.j.j.j.j.j.j.j.&.+.l l l & o N Z F 9.V.C.n.e.e.e.e.y.B.N.C.A.h.e.e.e.e.e.e.B.A.n.e.n.A.A.A.A.V.e.n.V.V.e.c.V.A.h.e.e.e.e.n.n.V.A.V.y.e.e.e.e.t.h.V.V.y.y.$.C C v * = j l l +.i.j.j.j.j.j.j.j.j.0.9.",
"F.G.J.J.H.F.F.l.l.l.p.$.M M h + o F C Z t.C.y.y.B.V.n.e.c.C.C.C.A.B.e.e.e.e.y.V.V.n.e.V.A.A.A.A.V.e.e.e.B.A.A.A.V.e.h.V.N.c.e.m.V.A.A.A.n.e.e.e.e.n.A.V.e.e.V.t.C C C o @ h k M &.s.l.l.D.D.D.J.G.H.M.h.",
"r.o o o o o o o o o o o o o o o o F C Z w.y.n.A.A.A.n.e.h.V.Z.Z.A.B.e.e.e.e.V.V.e.e.V.A.C.A.A.A.n.e.e.e.B.V.A.n.e.B.A.A.Z.y.e.n.V.V.A.A.n.e.e.e.e.A.B.e.c.V.A.t.C C C o o o o o o o o o o o o o o o O 6.",
", # 2 q q q z C C C C 7 2 ; $ o + C Z F w.N.A.A.Z...a >.e.e.;.L r.c.e.e.d ) L y.c.V.H ..A.R T Z.n.X.s Y _ d ..u a Y _ _ g X.d s a c.A.>.H f y.n.B.r.d L _ L N.A.u.C Z + o $ - 7 8 Q D Z Z r q q z q $ O ",
", $ v o.F D Z C C C C C C 8 < o w C F o.y.A.A.C.g 6X7XJ e.>.z.rXH h.<.a 6XtX} t.V.../.^.T | 7X5 G /.rXtXtX6X6X7XtXtXtXtXE.!.rXtXtXJ c.Y.tX7Xa e.p Y.7XtXtXrXY t.F C Z w o < q A o.A C C Z D o.o.Q N : O ",
", > 1 D C D Q D Z Z A A A 7 < o z Q F Z t.).m.u.{ tXtXE.L 8.tXtXR.T i 7XtXtXR.q.h.H tXtX  /.tX6XtXtXE.Y.Y.6X7XrXtXE.} R.tXtX7XE.| . ) rX7XtXR.i tXtX6XR.z.Y.H Q A A Z 8 o < q o.Z C C C A o.o.o.o.6 > O ",
"8.> 1 z C C Q F Z o.o.Q A 7 < o z D C C t.C.h.I 7XtXtX6X^.tXtXtX| a 7XtXT.E.rXa ;./.tX/.. rX/.6XtXtX6Xp c.*.9 6X7Xg e.s tX7XY.K X.Y tX7X. 7X7XJ tXtXrXT.*.N.$.O.o.A Z 8 o < q Z Z C C A o.o.F F B < > 5.",
"1X* 1 = C C D o.o.o. .Z C 7 < o 8 C C C r.c.r.~ tXrXtXtXtX7XQ.tXJ !.tX) c.R rXz.5 tXtX/.i tXR.Y { [ 6X!.;.A._ tXY.;.w.} tXtXtXrXX | tXrXtXtXz.Y _ | Q.7XH e.w.>.D C Z w o < 8 Z Z Z D o.o.F o.o.= 1 6 ~.",
"0X{ = 2 > C Z Q o.Q A v r 7 < o w C C Z +.t.X./.tXK Y.^.T.y /.tX4 tXQ.;.R _ 7X6XQ.tXtX7X7XtX} A.B.f Y.tXf t.Q.tXL n.f 7X7XK k . X R.tXtXE.K ;.B.B.;.H 7XY.e.e.9.Z C C w o < 7 8 v A o.o.F F o.< 1 = { <X",
"4X*X6 < ; z A o.o.o.Z N 7 7 < o w C Z O.o.r.I rX7X0 >.=.<.=.6X7X4 tX7XE.6XtXtXY.7XtX5 rXtX7XR t R.rXtXR.c.=./.!.<.c.u tX7XE./.rX[ /.rXtX7XR.{ t [ /.tX7XL e.e.r.C C Q x o < 7 r F o.Q Z o.o.v - < 6 =X-X",
"%X%Xc.# 7 o A D Z F Q A C 7 < o w A F r.r.r.X./.K c.c.m.n.;.Y.K ..Y.tXtXrX/.) X.| !.R p !.H <.} tXrX| ..n.w.[ 7Xu e...Q.tXtXrX/.i E.R.5 /.tXtXY.rXtX/.p e.V.n.<.D o.Q z o < v F o.D D o.o.A o 7 $ x.$XoX",
"&X%X@Xb > $ 8 Z Z F o.o.Q q < o w Z D o.e.e.e.L d B.m.B.V.A.*.B.B.>.u a T ;.A.A.;.d A.A.X.<.e.T Y ..N.A.B.B...Y >.e.e.g L f d X.q.T ..n.X.L { R p R ;.A.C.C.B.9.o.Q Z w o < r D D D o.o.o.e = > b oX%X+X",
"3X,X$X(.@ < $ N F o.F Z Z 7 > o w Z Z o.>.e.e.y.V.V.m.V.A.A.A.B.y.e.n.A.A.A.A.A.A.A.V.e.e.n.N.Z.A.A.B.B.A.B.e.e.w.=.e.V.<.u n.A.A.A.B.e.e.B.A.A.A.V.A.A.V.n.e.6.D C C w o < 8 C F o.o.o.V # < + '.$X2X-X",
":X&X$X$X, O @ V o.D C C C v < o w C D o.$.r.N.V.V.c.e.h.B.A.n.e.e.B.V.A.A.A.A.A.C.>.. X.=.f   B.T 0 a   N.X.X =.=.  q.X a 9 d e.A.y.e.e.B.A.A.A.A.V.A.A.e.e.h.O.C Z Z 8 o < 8 r o.o.o.F N $ $ , $X$X&X+X",
"$X%X$X$XH o z F Z Z C C Z 8 < o x F o.o.$.B.C.V.n.+.O.y.V.N.e.e.n.A.A.A.Z.A.B.B.c.u X X f n.. 5 ;.C.B.. 9 d 9 d a X f w.c.0 =.Z.e.e.e.B.A.A.A.A.A.n.y.w.e.V.A.O.C Z Z 8 o < 7 Z o.F D Z Z q o M $X$X$X X",
"$X$X$Xx.o > A Z Z A A Z Z 8 7 + < D D A C h.A.A.-.9.C 6.C.n.e.r.n.A.A.A.A.n.t.y.n.V.t.C.N.A.q.C.C.V.:.O.$.r.f ;.A.A.A.A.A.A.Z.A.t.e.r.N.A.A.C.V.n.:.Q -.C.A.y.Q C C C ; # 1 q F D Z C C C C : o x.#X$X X",
"@X@X'.o $ Z C C A o.D Z Z 8 7 = o C Z Z C S W P 1 m 2 q P m V L P P P q.B.e.B.A.A.A.A.Q >.Z.A.C.w.C C C C Z A :.t.A.A.A.A.A.A.B.e.e.V.6.P P P L V w 8 P P P V Q C C C o = 7 N C C C C C C C Z - o |.@X|.",
"P.{.m < Z Z A o.o.Z C C Z V q < o 6 Q Q 2 o o # # $ # # # $ $ # # # # $ $ # # # $ $ # # # $ $ # # $ $ 6 z z ! o.O.@.2.-.$.! m 6 $ # # # $ $ $ # # # # $ $ o o < C C < o > 8 A o.F o.o.F A Z F o.> m }.S.",
"M.P # N C A Q o.F C C C D A 1 1 $ o z o.> o < A o.F C C A o.o.Z Z F o.Q F C C Z F Q Q D C C C Q o.o.o.o.Q Q o.F Z Z Q Q Z C Z F o.F Z Z F o.o.Z Z C Z F o.2 o > C 8 o $ 1 8 A o.o.F F Z Z o.o.Z N $ m h.",
"+.$ N Z D Q o.D Z C C C A A q 1 8 = o : q # > B A D C 2 - > ; = ; > ; : = : = : : : : 2 x x x N B N : : : : : : 8 N N B x = = : : : : : > : : = z D o.D v = $ 8 $ o - 7 7 r o.o.F Z A F o.o.o.Z C N $ V ",
"$ x A o.o.o.o.A C C Z Z Z F v 8 7 8 > # o o o o $ > C C v > o o O & & & h h j h h & & : & & & & & & & : & & & : , & & & & & & & & & & @ o o > x Z D 2 $ o o o o # : 8 8 q V Q Z Z F o.F o.F Z Z D D x @ ",
"$ z c c c c c w 8 8 w z D Q Z v < > > - > o o o o o < o.o.A $ o & l l l M S E E W W W W E W E E E S S E E E W W E W W E E E S M l l l & o $ F o.! > o o o o o $ ; > > 8 Z Z Z Z x c z w w w q z c c z $ ",
"o < 6 z q 8 2 2 7 2 q w z z v z < - > 7 2 2 q 2 2 w C o.o.F = o j l l l D p.l.M.l.l.l.l.l.l.l.l.p.&.p.p.l.l.l.l.l.l.l.l.l.g.p.S l l l j o : o.o.o.F x 1 2 2 2 6 q 8 2 8 q B r r 2 2 1 8 2 2 2 q q q 1 o ",
"# $ q q q C Z Z w 8 q 8 1 2 1 q w 8 1 1 2 2 q 2 2 q q q q - o < :.+.+.l ! g.l.l.l.l.l.l.l.l.l.l.l.d.g.l.l.l.l.l.l.l.l.l.0.0.g.E l +.$.:.< o $ q z q 8 2 2 2 2 z 8 2 8 2 1 q q 8 2 1 2 c o.F o.q z q $ o ",
"l.l.l.F.l.l.l.l.l.l.l.l.l.E l p.s.l.l.l.l.l.D.D.D.l.l.F.l.l.l.l.l.a.&.b / l.l.l.l.l.l.l.l.l.l.l.l.j.l.l.l.l.l.l.l.l.l.:.} ~ j.E b p.g.l.l.F.l.l.k.F.l.l.l.l.l.l.l.l.l.p.&.M / l.l.l.l.l.l.l.l.D.k.l.F.j.",
"l.G.[.XX$X$X$X$X$X$XU.K.D.W l l.l.l.*.( D.D.D.D.M.D.l.l.l.l.l.l.l.l.j.M / l.P.[.%X$X$X$X$X$XXX[.F.j.M.H.U.@X$X$X$X$X@XG <X} #.E l l.l.l.l.l.l.l.l.l.l.D.l.D.l.D.l.l.l.l.j.l / l.K.[.$X$X$X$X$X$XXX[.G.j.",
"F.K.}.XX$X$X$X$X$X$X}.P.G.W l l.l.$.Q.OX5 | ( H.J.H.J.J.J.J.G.D.l.l.j.l / F.[.}.$X$X$X$X$X$XXX}.H.M.G.L.U.@X$X$X$XoX_ OXOX;X) W l l.l.l.F.F.J.H.J.J.H.H.H.H.H.J.F.F.l.l.j.l / F.[..X$X$X$X$X$X$XXX[.H.M.",
"[..X$X$X$X$X$X$X$X$X$XXXU.^ l l.l.,.z.;X].5X) $X$X$X$X$X$X$XU.K.l.l.j.l 1.[.XX$X$X$X$X$X$X$X$X$XU.S.U.U.$X$X$X$XI.7.1Xz.6 ` x.W l l.l.l.K.[.$X$X$X$X$X$X$X$X$X#XU.K.l.l.j.l 4.U.@X$X$X$X$X$X$X$X%X$X}.A.",
"XXXX$X$X$X$X$X$X$X%X$X#XXX^ l l.F.K.~ `.` ` I.$X$X$X$X$X$X#XXX}.[.l.j.l 5.XX#X$X$X$X$X$X$X$X$X$X@XU.@X@X$X7.z.H v.<Xv.` '.|.XX~ l l.G.K..XXX$X$X$X$X$X$X$X$X$X$XXX}.K.D.j.k 5.XX#X$X$X$X$X$X$X$X$X$X@X_.",
"$X$X$X$X$X$X$X$X$X$X$X$X$X] k D.H.;.v.7.7.$XI.|.$X$X$X$X$X$X$XXX[.l.j.l 5.%X$X$X$X$X$X$X$X$X$X$X$X|.$X$X$X) ;XI.v._ I.$X&X$X$X_ l k.G.[.@X$X$X$X$X$X$X$X$X$X$X$X$XXX[.F.j.l 5.$X$X$X$X$X$X$X$X$X$X$X%X X",
"$X$X$X$X$X$X$X$X$X$X$X$X$X] l D.U.H I.K I.x.x.I.#X$X$X$X$X$X$X$X$XH.j.l 5.%X$X$X$X$X$X$X$X$X$X$X$XOX$X$X$XR ` OXH '.#X$X$X$X$X) M F.[.#X$X$X$X$X$X$X$X$X$X$X$X$X$X$X$XJ.j.l 5.$X$X$X$X$X$X$X$X$X$X$X$X'.",
"$X$X$X$X$X$X$X$X$X$X$X$X$X] l D.S.x.I.x.'.#X@X X$X$X$X$X$X$X$X$X$XH.j.l 5.#X%X$X$X$X$X$X$X$X$X$X$X X$X$X$Xz._ 7.b.$X$X$X$X$X$X] k k.P.$X$X$X$X$X$X$X$X$X$X$X$X$X$X$X$XJ.j.l 5.$X$X$X$X$X$X$X$X$X$X$X$X X",
"$X$X$X$X$X$X$X$X$X$X$X$X$X] b M.P.#X$X$X$X$X$X$X$X$X$X$X$X$X$X$X$XH.j.l 5.%X#X%X$X$X$X$X$X$X$X$X$X X$X$X$X|.b.I.$X$X$X$X$X$X$X] M l.P.$X$X$X$X$X$X$X$X$X$X$X$X$X$X$X$XJ.j.l 5.$X$X$X$X$X$X$X$X$X$X$X$X X",
".XXX$X:X,X0X4X,X,X,X$X@X.X~ M k.J..X#X$X,X:X$X>X,X0X4X,X>X>X$X@X.XG.h.l 4..X#X%X,X,X,X4X3X2X&X$X.XS..X@X$X:X2X3X3X2X2X>X$X@X.X~ l l.J..X@X$X,X:X$X>X2X0X4X,X,X>X%XXX.XH.h.l 4..X#X$X,X2X,X5X4X2X:X$X.X).",
"[.}.$X,X3XeXwX4X3X4X$XXXU.^ l F.G.[.@X$X3X,X$X2X5XeXwX4X3X3X$XXX[.G.j.M / [.@X%X3X3X3XwXeX4X>X$XU.S.U.U.%X2X3XwXwX3X3X3X$XXXU.^ l l.H.[.XX$X3X,X$X2X5XeXwX4X4X3X$X.X[.F.j.l *.U.@X&X4X3X4XwXeX3X>X$X}.A."
};
