/* XPM */
static char *monsters_banner1730378787[] = {
/* columns rows colors chars-per-pixel */
"100 50 223 2 ",
"   c #150F0D",
".  c #291B16",
"X  c #34241E",
"o  c #090325",
"O  c #0E0929",
"+  c #100627",
"@  c #16092A",
"#  c #1A0C2B",
"$  c #18142D",
"%  c #161C2E",
"&  c #161030",
"*  c #1D1636",
"=  c #1A1E31",
"-  c #210F2E",
";  c #24112E",
":  c #28132F",
">  c #32132F",
",  c #261230",
"<  c #2D1532",
"1  c #261C38",
"2  c #3D1732",
"3  c #331933",
"4  c #3B1C35",
"5  c #3C1C39",
"6  c #1D2133",
"7  c #292827",
"8  c #392E2C",
"9  c #272539",
"0  c #362539",
"q  c #38353B",
"w  c #401F37",
"e  c #4A1E37",
"r  c #411F3B",
"t  c #442E26",
"y  c #4A342C",
"u  c #45223B",
"i  c #4A223E",
"p  c #4D283E",
"a  c #52293C",
"s  c #4B3B36",
"d  c #533C36",
"f  c #5C3D33",
"g  c #49423F",
"h  c #52423D",
"j  c #5B443C",
"k  c #64453B",
"l  c #684538",
"z  c #69493D",
"x  c #734B3E",
"c  c #2E2A43",
"v  c #352C44",
"b  c #393546",
"n  c #3B344D",
"m  c #3F3851",
"M  c #4E2541",
"N  c #4B2A42",
"B  c #532742",
"V  c #532B42",
"C  c #5C2D45",
"Z  c #463548",
"A  c #5C3245",
"S  c #563846",
"D  c #463950",
"F  c #4C3B51",
"G  c #503F53",
"H  c #5C3D50",
"J  c #632F48",
"K  c #653748",
"L  c #6F344D",
"P  c #703444",
"I  c #71364E",
"U  c #743A4E",
"Y  c #613A52",
"T  c #693C50",
"R  c #763B50",
"E  c #793D50",
"W  c #783758",
"Q  c #3F404C",
"!  c #494646",
"~  c #594A48",
"^  c #534155",
"/  c #5F4051",
"(  c #555151",
")  c #5A5758",
"_  c #684747",
"`  c #6C4A4F",
"'  c #764B47",
"]  c #764C4C",
"[  c #6C564E",
"{  c #795345",
"}  c #7A584C",
"|  c #6B4353",
" . c #7E4152",
".. c #764C59",
"X. c #675B55",
"o. c #7A5257",
"O. c #6B625D",
"+. c #77665E",
"@. c #715763",
"#. c #6B6868",
"$. c #766C69",
"%. c #797269",
"&. c #797776",
"*. c #85373E",
"=. c #983C4F",
"-. c #863759",
";. c #8C474B",
":. c #825A4B",
">. c #8C5C4C",
",. c #814453",
"<. c #874B57",
"1. c #984C59",
"2. c #875557",
"3. c #855B59",
"4. c #925B5E",
"5. c #985959",
"6. c #A4444D",
"7. c #AE444E",
"8. c #A64C55",
"9. c #B34E51",
"0. c #BA5556",
"q. c #8D6555",
"w. c #966352",
"e. c #95655F",
"r. c #9B6C5A",
"t. c #82715F",
"y. c #A5685C",
"u. c #BA645D",
"i. c #AC715D",
"p. c #855B68",
"a. c #B75F63",
"s. c #9F6262",
"d. c #8B7673",
"f. c #A46462",
"g. c #AC6D62",
"h. c #B96D65",
"j. c #A67765",
"k. c #AB7463",
"l. c #B37463",
"z. c #B57867",
"x. c #BA7A65",
"c. c #B67D6B",
"v. c #BC7D6A",
"b. c #BE7F71",
"n. c #DB4C4C",
"m. c #C55754",
"M. c #D85855",
"N. c #C3635B",
"B. c #C86B5F",
"V. c #D6605A",
"C. c #C76F62",
"Z. c #D96C64",
"A. c #CD7363",
"S. c #CC716D",
"D. c #DA7567",
"F. c #E07167",
"G. c #E27F6D",
"H. c #968A76",
"J. c #BC816D",
"K. c #BD8173",
"L. c #A69274",
"P. c #B59577",
"I. c #BFA57B",
"U. c #C2836D",
"Y. c #C38671",
"T. c #C68972",
"R. c #CC8D75",
"E. c #CE8E79",
"W. c #C8927A",
"Q. c #D09179",
"!. c #E3826F",
"~. c #E68C74",
"^. c #E28778",
"/. c #E69679",
"(. c #E99679",
"). c #EB9D7D",
"_. c #C6A17E",
"`. c #EDA17F",
"'. c #808080",
"]. c #8B8685",
"[. c #958D87",
"{. c #909090",
"}. c #9F9F9F",
"|. c #A89B93",
" X c #A0A0A0",
".X c #AFAFAF",
"XX c #BEAFA8",
"oX c gray69",
"OX c gray75",
"+X c #CE9A89",
"@X c #CCA585",
"#X c #C9B185",
"$X c #D4B08B",
"%X c #CCB896",
"&X c #CFBD9D",
"*X c #EEA582",
"=X c #F2AE87",
"-X c #E3B88C",
";X c #F4B48A",
":X c #F5BA8D",
">X c #E5B69B",
",X c #CEBEA5",
"<X c #DAC696",
"1X c #E1CB98",
"2X c #F5C393",
"3X c #F9C594",
"4X c #FBCA97",
"5X c #FCCE9B",
"6X c #CFC2A7",
"7X c #D9CCAD",
"8X c #CFC9B4",
"9X c #EDD4AA",
"0X c #FEE1AE",
"qX c #FEE6B3",
"wX c #FBE8B9",
"eX c gray81",
"rX c #DFDFDF",
"tX c #FCEDC3",
"yX c #FEF4CE",
"uX c #F6EED0",
"iX c #EFEFEF",
"pX c #FAF6E5",
"aX c white",
/* pixels */
"m m m m m m m m m m m m m m m m m m m m m m m m m m m m m m m m m m m m m m m m m m m m m m m m m m m m m m m m m m m m m m m m m m m m m m m m m m m m m m m m m m m m m m m m m m m m m m m m m m m m ",
"m m m m m m m m m m m m m m m m m m m m m m m m m m m m m m m m m m m m m m m m m m m m m m m m m m m m m m m m m m m m m m m m m m m m m m m m m m m m m m m m m m m m m m m m m m m m m m m m m m m m ",
"m m m m m m m m m m m m m m m m m m m m m m m m m m m m m m m m m m m m m m m m m m m m m m m m m m m m m m m m m m m m m m m m m m m m m m m m m m m m m m m m m m m m m m m m m m m m m m m m m m m m ",
"m m m m m m m m m m m m m m m m m m m m m m m m m m m m m m m m m m m m m m m m m m m m m m m m m m m m m m m m m m m m m m m m m m m m m m m m m m m m m m m m m m m m m m m m m m m m m m m m m m m m ",
"m m m m m m m m m m m m m m m m m m m m m m m m m m m m m m m m m m m m m m m m m m m m m m m m m m m m m m m m m m m m m m m m m m m m m m m m m m m m m m m m m m m m m m m m m m m m m m m m m m m m ",
"m m m m m m m m m m m m m m m m m m m m m m m m m m m m m m m m m m m m m m m m m m m m m m m m m m m m m m m m m m m m m m m m m m m m m m m m m m m m m m m m m m m m m m m m m m m m m m m m m m m m ",
"m m m m m m m m m m m m m m m m m m m m m m m m m m m m m m m m m m m m m m m m m m m m m m m m m m m m m m m m m m m m m m m m m m m m m m m m m m m m m m m m m n m m m m m m m n n m m m m m m m m m ",
"m m m m m m m m m m m m m m m m m m m m m m m m m m m m m m m m m m m m m m m m m m m m m m m m m m m m m m m m m m m m m m m m m m m m m m m m m m m m m m m 9 0 0 c m m m c % % % % 9 m m m m m m m m ",
"m m m m m m m m m m m m m m m m m m m m m m m m m m m m m m m m m m m m m m m m m m m m m m m m m m m m m m m m m m m m m m m m m m m m m m m m m m m m m D 0 f.M.+X( v 1 = a P *.=.a % c m m m m m m m ",
"m m m m m m m m m m m m m m m m m m m m m m m m m m m m m m m m m m m m m m m m m m m m m m m m m m m m m m m m m m m m m m m m m m m m m m m m m m m m m = E ^.M.n.| % c 6.^.>XD.n.G.' % m m m m m m m ",
"m m m m m m m m m m m m m m m m m m m m m m m m m m m m m m D m m m m m m m m D m m m m m m m D m m m m m m D m m m m m m m m m m m m m m m m m m m m m m v h.9.+XA.9 / <.8.+X+XV.n.+X8X= D m m m m m m ",
"m m m m m D F ^ G G G ^ ^ F ^ F F m n v * o o o o o o o o o o o o o o o o + @ # @ # o o o o o o o o O * 1 1 1 1 $ o o o o o o o o o o o o o o o o o o o o $ @.@.p.K 9 o.n.8.n.n.n.n.V.K.$ c m m m m m m ",
"m D m m m T 7.N.A.A.A.A.A.A.A.u.6.< o o # $ d ' } | C A 3.3.3.' ] ] } 3.o.U <.,.,. .` 2.3.3.3.3.p.3.3.3.3.] ] ] ] B A 2.3.o.3.3.3.3.' ' A B u A ` ] A a A V = 9 ^ v % @.+Xn.8.S.F.n.n.1.c 3 F m m m m m ",
"` | T H m | 0.B.A.A.A.A.A.A.A.0.# o - V U k.S.T.Q.v.g.U.W.Q.Q.J.x.Y.R.T.x.x.x.y.y.l.R.Q.Q.Q.Q.Q.W.Q.Q.Q.R.x.x.x.x.s.E v.U.v.U.Q.Q.R.x.v.v.,.y.i.x.l.,.5.v.J.q.#.7XH.% Z |.p.p.XX7X1.m.1.F 0 F F T | | ..",
"N.0.9.6.m ..A.A.A.A.A.A.A.A.A.5.o 3 U ,.5.x.Q.Q.R.J.x.x.W.Q.R.J.R.W.J.x.x.x.x.x.x.T.Q.U.x.Q.Q.Q.Q.Q.R.Q.Q.U.x.x.J.Q.c.U.x.x.U.Q.Q.R.U.Q.R.v.x.x.x.z.l.x.R.R.k.T | V 1 6 H ....p.1.n.S.a.Y = b H 7.9.0.B.",
"B.B.m.8.D | 0.B.A.A.A.A.A.A.A.a o J L  .s.T.Q.U.x.x.x.x.A.T.U.Q.E.A.x.x.x.x.x.x.T.Q.U.x.U.Q.Q.Q.Q.R.x.U.Q.T.x.U.R.R.U.x.x.x.x.U.U.T.Q.R.x.x.x.x.x.c.A.E.R.v.x.5.K A N $ * 9 D ..<.d.,Xp.v = Z H 0.N.B.A.",
"A.A.m.9.m | 6.B.B.A.A.A.A.A.5.@ o E L L c.Q.A.J.R.R.J.x.U.R.Q.Q.Q.T.x.x.x.x.x.R.R.U.x.T.Q.Q.Q.Q.Q.x.x.x.T.Q.Q.Q.R.x.A.T.Y.U.x.U.Q.Q.Q.Q.U.x.x.x.x.U.R.R.x.x.R.c.Y V V % '.[.D 9 b | ..v $ f F / m.N.A.A.",
"v o o o o o o o o o o o o o o o o E L P k.v.U.W.Q.Q.U.x.U.R.Q.W.Q.T.x.x.x.x.Q.Q.x.x.R.Q.Q.Q.Q.W.U.x.x.x.T.R.Q.U.x.R.Q.R.W.J.x.U.Q.Q.Q.Q.J.x.x.x.J.R.T.x.v.R.Q.c.L V V 6 |.6X7X[.% % % $ O o o o o o o v ",
"# @ 4 u u u p L L L I 5 4 : - o + I I  .l.U.Q.Q.Q.} j y.x.x.w._ z.x.x.x.l O.{ z.A.W.~ :.Q.} { R.S.:.k X.+.l :.f j [ +.+.x >.l k j z.W.e.~ z x.U.R.x.l _ +._ Y.+Xb.J V & ) tXwX].9 A T L L M u i u u # @ ",
"# ; C ,.E U I L I L L I I u > o u I -. .v.Q.Q.Q.x eXrX( x.y.H.iX~ J.i.h eXaX#.J.R.} OX.X{ &.iX8 ! 8XiXaXaXeXeXrXaXaXaXaX}.oXiXaXaX( c.H.aXrXj x.h '.rXaXaXiX[ c. .L J 5 O O.X.0 p V L L I E ,.,.,.J : # ",
"; < 5 R L U ,.U I I I I U u 3 o M ,.R I c.Q.Q.Y.$.aXaX}.' d.aXaX{.:.g rXaXaX{.j.U.~ aXaX  OXaXeXaXaX}.'.'.eXrXiXaX}.%.{.aXaXrX}.&.. #.iXrXaX{.g aXaXeX{.H.'.d  .R R L r O : 0 A S V K I U ,.,. .,.w : - ",
"' : 4 p L L  .E I ,.,.,.P u 3 o e I I L c.Q.A.' rXaXaXeX.XaXaXaX&.j rXaX].}.iXj r.OXaXOX  iXOXeXaXaXeXh J.q.8 eXrXx x.j aXrX'.) >.[ aXrX. rXrX( aXaXiX].w.K.5.<. .R L M o 3 u C A J I I ,.,. .E J > : ' ",
"6.# 2 - L L R ,.,.,.,.I I u < o M L L L z.J.z.O.aXiXaXaXaXrX XaX( .XaXO.J.} iX'.8 aXaXOXg aX{.[ $.#.eXoXr.Q.+.aXH.e.l.%.aXaXaXiXX $.aXiXaXaX'.{ +.&. XrX( z.l.f.I L L r o 3 r L I I R ,. .U  .,.; 4 : =.",
"1.0 - 5 < I I  .,.,.I C a u 3 o r L I I 2.z.>.OXaX) '.oX].s OXaX7 aX}.r.:.+.rXeX XaXaXrXrXaX%.Q.K.z '.aXz J.}.aX_ v.z rXrX) Q . 8 {.aXaX}.) r.R.U.r.~ rXH.k.z.g.I L L M o 3 4 e C R ,.,. . . .3 4 ; 0 ;.",
"D n $ 3 ; B U ,.,. .L J u 4 < o M L I <.,.z.' iXrXy y.w.l.q.eXrX7 aXrX}.eXaXaX'.rXaX8 iXaXrX} s {.iXaX{.J.w.OX.Xj.J.f aXrX}.OXiX&.OXiXaXrX{.$.s #.OXaXrX_ x.z.z.L L E V o > u B  .,. .I  .,.C ; 3 $ b D ",
"4.4.P @ r o I E I  . .U P u 3 o e W  .z.z.z.>.OX) J.U.T.U.r.d.) } H.aXaXiXOXO.w.&.oX} g .X~ i.%.aXiX&.:.U.l.#.rXf x.:. XaXaXiXOXq }.{.8 OXaXaX'.iXaXOXh z.R.U.y.R  .,.M o 3 C E ,.U R ,.,.U o u @ U 5.4.",
"A.A.9.> < # r L I E ,.,.E u 3 o i I U ,.z.x.x.' l T.R.T.R.Q.w.Y.K.y.f j { r.W.Q.r.z Q.R.>.i.x.} [ :.Y.Q.T.T.:.[ y.x.x.x _ z l w.i.{ :.U.>._ $.} j { r.Q.Q.Q.T.g.,. .I r o 3 a U R U ,.,.,.p # < > 0.A.A.",
"A.A.m.;.+ 3 # J E ,. .I I u < o e L I ,.r.x.x.x.Q.Q.U.R.Q.Q.E.T.v.x.J.Q.Q.Q.Q.Q.Q.R.R.J.x.U.U.Q.Q.Q.Y.Y.Q.R.x.x.x.w.l.R.i.f J.R.Q.Q.T.x.x.T.Q.Q.Q.W.Q.Q.R.T.x.s.R L L M o 3 u L E ,.,.,.K @ 4 + 8.N.A.A.",
"N.N.0.8.+ + + T ,.U L L I B 3 o M L E ,.<.x.T.R.R.C.x.v.T.Q.U.x.x.T.Q.Q.Q.Q.Q.Q.W.y.. w.w.z   Y.{ y j   U.>.X w.w.  i.X j t l J.Q.J.x.x.R.Q.Q.Q.Q.Q.Q.Q.x.x.A.<.L L L i o 3 w a ,.,.,.E C + @ O 8.0.N.N.",
"7.7.-.W & o N E I I L L I i 3 o V E ,.,.2.R.Q.W.U.2.<.J.R.U.x.x.U.Q.Q.Q.Q.Q.R.U.A.j . X z J.. t r.Q.T.. t l t l j X k J.J.y w.R.v.x.x.T.Q.Q.Q.E.Q.U.z.l.x.R.Q.2.L L L i o 3 u L ,. .R I I M o , -.=.7.7.",
"T T H N o < W L L U U I I e 3 @ < E E R I S.Q.Q.e.s.L s.Q.U.x.x.U.Q.Q.Q.Q.T.x.x.U.R.z.Q.T.Q.k.Q.Q.R.y.<.5.z.l r.Q.Q.Q.Q.Q.Q.Q.Q.x.x.x.Y.Q.Q.Q.R.S.y. .e.R.Q.c. .L I L : + 2 u R W I L L L L < o N Y T Y ",
"n D n o - L L L U ,.R I I e r # o L L L I | ` ` w A 5 i ` K j _ ` ` ` k.U.x.T.Q.Q.Q.Q. .y.W.E.E.g.L L I L L U r.J.Q.Q.Q.Q.Q.Q.T.x.x.T.s.` ` ` _ ~ i r ` ` ` | E L L I o # w J I L L L L L L L - o n D m ",
"=.6.2 < L I R  . .U L L U P u 3 o 5 ,.E 5 o o @ # @ @ @ @ # # @ @ @ # # @ @ @ @ @ # @ # @ @ @ # @ # @ 0 u B  .,.<.<.4.5.5...H 0 # @ @ @ @ # @ @ @ @ @ @ @ o o 3 L L 3 o 3 4 U  .E ,.,. .I I  .,.> 2 7.-.",
"-.e @ J L U  .,. .L L L U I 4 4 # o M  .< o 3 R ,.E L L U ,.,.L I E ,.,.E I L I E ,.,.U L L I E ,.,.,.,.,.,.,.E U U  . .I L P E ,.E I I  .,.,.R I L U E ,.5 o < L r o # 4 e U ,.,.,.R I R  .,.L J @ e W ",
"c @ L L E ,.,.R L L L L U U u 4 u ; o , N + , K U R L 5 - < < - , , , , - - - - , , ; 4 B B B A K J < , , , , - u K J K B - - : , , , , : , , - r U ,.U C - # r - o - r 0 a  . .R I I  . .,. .L L J # c ",
"# M I ,.,.,. .I L L L L L  .C r w 0 < @ o o o o # < L L C < o o O * * * c c v v c * * * * * , * * * * * * * * * * * * * * * * * * * * + o o < B U  .5 # o o o o @ - r r i T  .U L E ,.E ,. .I I I L V @ ",
"@ B B V V V B M u i e M R  .U J > , < : < o o o o o 4  .,.R # o % b c b n m m m m m m m D n n D D m m m m m m m m m m m D m m m m m m * o # E ,. .3 o o o o o # : : : r I I I L B a M e i i i p V B B # ",
"o 3 u i M r 5 5 5 5 N u i M C u 2 ; < 5 5 5 u 5 5 u L ,.,.E ; o h.[ |.#.K _ 2.G.G.G.G.G.G.!.!.Z.M.F ;.M.D.G.G.G.G.G.G.G.G.G.G.G.G.!.G.] o , ,.,. . .V 5 5 5 5 u u r 5 r e J B a 5 5 5 u 5 5 5 r M r 4 o ",
"O # u u e L L L i 0 u 5 5 5 5 e u u 5 5 5 5 i r 0 u u i i $ o 3 h.X.pX<XX.uX&.5.G.G.G.G.G.G.G.Z.M.F <.V.F.G.G.G.G.G.G.G.G.G.G.G.!.C._ d.n o & u u u 0 5 5 5 5 r u 5 5 5 r i u 0 5 5 5 V ,.R ,.u u N @ O ",
"p.D.!.!.G.G.G.G.G.G.G.G.G.G.G.G.!.G.G.!.f.D f.G.!.D.!.!.!.D.!.G.G.~ #X1X$XwX%.y.G.G.G.G.G.G.G.G.!.^ p.!.!.G.G.G.G.G.G.G.G.D.q ( ~ 7 6XuX$X~ S b 3.D.G.G.G.G.G.G.G.G.G.G.G.G.G.G.G.G.G.G.G.G.G.G.!.!.D.^ ",
"4.!.!.!.(.).=X=X=X=X=X=X=X=X=X*X(.!.G.G.f.m f.G.G.!.(.*X=X=X=X=X=Xe.L.#X+.g L.`.;X`.;X;X).~.!.G.G.^ 4.G.!.!./.`.=X=X=X=X=X/ L.9X_._.1XL.} i.e.D f.G.!.!.(.*X=X=X=X=X=X=X=X=X=X=X=X=X=X=X=X=X(.~.G.G.G.^ ",
"4.G.!.!.`.=X4X4X4X4X4X4X4X5X4X:X`.!.G.G.f.m f.G.G.~.`.:X4X4X4X4X;X! <Xt.( 5X2X_.2X4X4X4X`.(.!.!.G.^ 4.!.!.!.`.;X4X4X4X4X4X! H.<X_.H.O.k C.!.f.m f.G.G.~.*X:X4X4X4X4X4X4X4X4X4X4X4X4X4X4X4X4X*X).G.G.G.^ ",
"4.G.(.`.3X4X4X4X4X4X4X4X4X4X4X4X4X*X).G.f.m f.G.).=X3X4X4X4X4X4XH.+.#XQ `._.P.P.<X4X4X4X3X:X`.~.G.^ 4.!./.`.3X3X4X4X4X4X5X_.q H.1XO.+./.).!.y.m f.G.).=X3X3X4X4X4X4X4X4X4X4X4X4X4X4X4X4X4X4X3X:X).~.G.^ ",
"4.G.`.=X4X4X4X4X4X4X4X4X4X4X4X4X4X;X=XG.f.m f.G.=X:X4X4X4X4X4X4X[ L.+.+.P._._.I.P.2X4X4X4X2X=X).G.^ q.!.`.`.4X4X4X4X4X4X5X$XQ L.I.q 2X;X`.!.f.m f.G.=X:X4X4X4X4X4X4X4X4X4X4X4X4X4X4X4X4X4X4X4X3X=X/.G.^ ",
"4.G.;X4X4X4X4X4X4X4X4X4X4X4X4X4X4X4X4XG.f.m f.!.4X4X4X4X4X4X4X4X2X`.-X<X2X2X4X4X4X4X4X4X4X4X4X`.G.^ 4.G.:X3X4X4X4X4X4X4X4X2X+.~ +._.4X4X4XG.f.m f.G.4X4X4X4X4X4X4X4X4X4X4X4X4X4X4X4X4X4X4X4X4X4X4X*XG.^ ",
"4.G.:X4X4X4X4X4X4X4X4X4X4X4X4X4X4X4X4XG.f.m f.G.4X4X4X4X4X4X4X4X4X5X4X4X4X3X4X4X4X4X4X5X4X4X4X`.G.^ 4.G.:X4X4X4X4X4X4X4X4X4X2X2X2X4X4X4X4XG.f.m f.!.4X4X4X4X4X4X4X4X4X4X4X4X4X4X4X4X4X4X4X4X4X4X4X*XG.^ ",
"4.G.;X4X4X4X4X4X4X4X4X4X4X4X4X4X4X4X4XG.f.m f.G.4X4X4X4X4X4X4X4X4X4X4X4X4X4X4X4X4X4X4X5X4X4X4X`.!.^ 4.D.2X4X4X4X4X4X4X4X4X4X4X4X4X4X4X4X4XG.f.m f.G.4X4X4X4X4X4X4X4X4X4X4X4X4X4X4X4X4X4X4X4X4X4X4X*XG.^ ",
"4.G.).=X4X4X4X0XwXyXtXqXqXqX4X4X4X=X*XG.f.m y.G.*X;X4X4X4XqXwXyXyXyXwX0X4X4X4X0XqXyXwXqX5X3X`.(.!.^ 4.!.`.`.4X4X4X0XwXyXwXqXqXqX4X4X4X;X*XG.f.m f.G.*X;X4X4X4XqXwXyXyXyXwX0X4X4X4XqXwXyXtXqX5X3X*X(.G.^ ",
"o.h.K.T.@X@X@X%X6X8X6X&X&X&X@X@X@XW.K.h.3.m 4.h.Y.W.@X@X@X,X,X8X8X8X&X%X@X@X@X&X,X8X6X&X@X@XY.v.h.F o.h.K.T.@X@X@X%X6X8X6X,X&X&X@X@X@XT.K.h.p.D 4.l.Y.W.@X@X@X&X6X8X8X8X&X%X@X@X@X&X6X8X6X&X@X+XY.v.h.D ",
"m m m m m m m m m m m m m m m m m m m m m m m m m m m m m m m m m m m m m m m m m m m m m m m m m m m m m m m m m m m m m m m m m m m m m m m m m m m m m m m m m m m m m m m m m m m m m m m m m m m m "
};
