/* XPM */
static char *monster_01730129981[] = {
/* columns rows colors chars-per-pixel */
"50 50 174 2 ",
"   c #3E3952",
".  c #593B4E",
"X  c #453D55",
"o  c #3B455C",
"O  c #3F4958",
"+  c #354D65",
"@  c #394C61",
"#  c #3D5564",
"$  c #335269",
"%  c #3C5C68",
"&  c #3D646C",
"*  c #3F6B69",
"=  c #29697D",
"-  c #346171",
";  c #3B7176",
":  c #454158",
">  c #444459",
",  c #414A58",
"<  c #494E5B",
"1  c #564956",
"2  c #52445A",
"3  c #594758",
"4  c #564D5C",
"5  c #415B5F",
"6  c #484E63",
"7  c #514E63",
"8  c #4C536B",
"9  c #49596A",
"0  c #545166",
"q  c #585A6E",
"w  c #4F5A72",
"e  c #575B70",
"r  c #604F61",
"t  c #6D5967",
"y  c #6D5A68",
"u  c #765566",
"i  c #715B69",
"p  c #7B5D6B",
"a  c #4B6665",
"s  c #556368",
"d  c #41726C",
"f  c #596578",
"g  c #4A7F72",
"h  c #77666D",
"j  c #7B606C",
"k  c #6E6771",
"l  c #62697B",
"z  c #924548",
"x  c #815856",
"c  c #965C53",
"v  c #846B62",
"b  c #82616D",
"n  c #84686F",
"m  c #887468",
"M  c #9A7D67",
"N  c #836771",
"B  c #8D6373",
"V  c #856B73",
"C  c #8E6F76",
"Z  c #986673",
"A  c #9B6975",
"S  c #877D72",
"D  c #877178",
"F  c #89757C",
"G  c #947379",
"H  c #98767B",
"J  c #9D7A7E",
"K  c #A56D78",
"L  c #AB6F7B",
"P  c #A3737B",
"I  c #AD707B",
"U  c #AD797F",
"Y  c #B0757D",
"T  c #B2787F",
"R  c #E75A43",
"E  c #C37558",
"W  c #E96649",
"Q  c #3F877A",
"!  c #448E75",
"~  c #429C7F",
"^  c #539F7C",
"/  c #4DA47D",
"(  c #9B836C",
")  c #9E917B",
"_  c #EE8558",
"`  c #F0905E",
"'  c #C7986E",
"]  c #C89F72",
"[  c #DFB178",
"{  c #F3AD70",
"}  c #EBB97A",
"|  c #F6C27D",
" . c #266F83",
".. c #2B7784",
"X. c #616D83",
"o. c #6B798A",
"O. c #727D8C",
"+. c #6F7E90",
"@. c #A27D80",
"#. c #A97D81",
"$. c #B37B81",
"%. c #2B828A",
"&. c #3B8B84",
"*. c #2D918F",
"=. c #3A9A88",
"-. c #2B8D92",
";. c #2D9290",
":. c #359692",
">. c #369991",
",. c #389D92",
"<. c #3CA38E",
"1. c #38AA99",
"2. c #39AE9A",
"3. c #3CB396",
"4. c #7A8591",
"5. c #7E8D9A",
"6. c #46B282",
"7. c #40B68F",
"8. c #44BB8C",
"9. c #61AF83",
"0. c #7CBD89",
"q. c #46C08C",
"w. c #48C38A",
"e. c #51C88C",
"r. c #62C98D",
"t. c #7FE097",
"y. c #82808F",
"u. c #8B8D99",
"i. c #928B96",
"p. c #86919E",
"a. c #AE8585",
"s. c #A78888",
"d. c #A58A89",
"f. c #B68285",
"g. c #B88386",
"h. c #BA8788",
"j. c #B58988",
"k. c #B98D8B",
"l. c #B3908D",
"z. c #B49490",
"x. c #B79994",
"c. c #B89B95",
"v. c #8D98A3",
"b. c #9696A1",
"n. c #9897A3",
"m. c #99A9AA",
"M. c #AFAFB8",
"N. c #A0B0B6",
"B. c #C08F8D",
"V. c #C1928E",
"C. c #C39490",
"Z. c #C59A94",
"A. c #C89E97",
"S. c #C89F98",
"D. c #C4A69E",
"F. c #CAA49C",
"G. c #CDAA9F",
"H. c #CEACA2",
"J. c #C0ADA8",
"K. c #D1B1A5",
"L. c #D4B7AE",
"P. c #D5BCB2",
"I. c #91EA9C",
"U. c #F9D38E",
"Y. c #E7D89E",
"T. c #FEEAA4",
"R. c #FFEFA9",
"E. c #B4C2C8",
"W. c #BED0D4",
"Q. c #C9CED2",
"!. c #C9E0DD",
"~. c #DADFE0",
"^. c #DCECE9",
"/. c #F0F7F4",
/* pixels */
"V.C.C.C.C.k.N C.C.C.C.C.C.C l.Z.V.C.C.C.k.j $.g.g.g.g.$.B U k.Z.C.C.C.k.N C.C.C.C.C.C.C l.Z.V.k.h.f.",
"C.C.C.C.C.k.N C.C.C.C.C.C.C l.Z.C.C.C.C.k.n k.C.C.V.C.B.V f.C.V.C.C.C.k.N C.C.C.C.C.C.C l.Z.C.C.V.V.",
"C.C.C.C.C.k.N C.C.C.C.C.C.C a.C.C.C.C.C.k.N C.C.C.C.C.C.C a.C.C.C.C.V.j.N C.C.C.C.C.C.C a.C.C.C.V.V.",
"C.C.C.C.C.k.N C.C.C.C.C.C.C a.C.C.C.C.C.k.N C.C.C.C.C.C.C a.C.C.C.C.C.k.N C.C.C.C.C.C.C a.C.C.C.V.Z.",
"k.C.C.C.k.U N V.C.C.C.C.V.C P k.C.C.C.V.P V C.C.C.C.C.C.C P k.V.V.V.V.U N C.C.C.C.C.C.C P k.V.C.V.V.",
"N N N N V p N C.C.C.C.C.V.C p n n V N N p N C.C.C.C.C.C.C j n V V V N p N C.C.C.C.C.C.C p V N N V n ",
"j.k.j U j.A V G.C.C.C.C.V.C A j.j P k.j.A N V.C.C.C.C.C.C Z f.j P k.j.A D F.C.C.C.C.C.C A j.p P k.j.",
"V.V.p V.C.j.D G.C.C.C.C.C.C a.V.p j.C.C.j.V C.C.C.C.V.V.C a.V.h j.C.C.j.D G.C.C.C.C.C.C a.V.p j.C.V.",
"C.C.C.C.C.k.N C.C.C.C.C.C.C a.V.j D.C.C.k.D G.V.C.C.C.C.C a.C.C.C.C.C.k.N C.C.C.C.C.C.C a.C.i H.C.C.",
"C.C.V.C.C.k.D H.C.C.C.C.C.C a.Z.V.Z.C.C.k.V V.Z.C.C.C.C.C a.C.V.C.C.C.k.D H.C.C.C.C.C.C a.C.C.C.C.C.",
"B.V.T Z.C.k.F P.C.C.C.C.C.C a.C.V.H.V.V.k.V C.V.C.C.C.C.C a.C.$.C.C.C.k.F P.C.C.C.C.C.C a.C.B.H.C.C.",
"T V.k.K.C.k.F P.C.C.C.C.C.C a.C.$.G.Z.V.k.V G.V.C.C.C.C.C j.V.k.H.C.C.k.F P.C.C.C.C.C.D a.C.$.G.C.C.",
"I B.Y G.V.k.F L.C.C.C.C.C.C a.C.V.V.C.C.k.D G.Z.C.C.C.C.C a.V.Y F.V.V.k.F L.C.C.C.C.C.C a.C.C.C.C.C.",
"I B.g.S.V.k.V G.C.C.C.C.C.C a.C.h.V.C.C.k.D G.k.C.C.C.C.C a.V.g.A.C.C.k.V H.C.C.C.C.C.C a.C.h.C.C.C.",
"I B.V.G.V.k.V F.C.C.C.C.C.C a.C.Y Z.C.C.k.V G.C.C.C.C.C.C a.V.C.G.V.V.k.V F.C.C.C.C.C.C a.C.Y Z.C.C.",
"I B.V.C.C.k.V F.C.C.C.C.C.C a.C.Y S.C.C.k.V F.C.C.C.C.V.C j.C.C.C.C.V.k.V F.C.C.C.C.C.C a.C.Y Z.C.C.",
"I V.C.C.V.k.V F.C.C.C.C.C.C a.C.h.V.V.C.k.N C.C.C.C.C.C.C f.C.C.C.C.C.k.V S.C.C.C.C.C.C a.C.h.V.C.C.",
"I k.C.C.V.k.n V.C.C.C.C.C.C a.C.V.C.C.C.k.N C.C.C.C.C.C.C z.Z.C.C.C.C.k.N C.C.C.C.C.C.C a.C.C.C.C.C.",
"I B.C.C.C.k.V V.C.C.C.C.C.C a.C.V.j.@.@.H i C.) @.@.@.a.C x.s.J @.a.C.k.N C.C.C.C.C.C.C a.C.C.C.C.C.",
"I B.C.C.C.k.b f.C.C.C.V.g.B a.V.k.n 4 4 3 3 Y r 1 1 1 3 p s.1 2 . N k.k.j f.C.C.C.C.g.N a.C.C.C.C.C.",
"k.C.C.C.C.k.i j V n n V j i j.V.r M U.R.T.|   Y.U.| { E X   } ` R z y k.i j N N V V p i j.C.$.$.$.N ",
"C.C.C.C.C.k.p U k.f.C G T b a.V.r ) T.R.R.T.X Y.v 3 v '     | ` _ c y l.p U k.j.B G #.b a.C.Y I L i ",
"C.C.C.C.V.k.V V.V.V.G H V.C x.C.r ( U.R.R.T.] T.[ ] [ } ] E | ` W z y k.N C.C.C.H H C.B x.Z.Y I L i ",
"C.C.C.C.V.k.V C.V.V.H H V.C x.F.r r m ( ^ Z v S m v v v v x v x z . y k.N C.C.C.H H C.C x.Z.Y I L B ",
"C.C.C.C.C.k.N C.C.C.P s.F.m J.D i.n.n.y.: O.4.b.4.q 0 4.o.f f X 8 w f B N C.C.C.J s.S.C J.F.Y I Y L ",
"A.C.C.C.C.k.N C.C.C.C.F.S.C J.1 u.M.M.n.: 5.5.N.v.f e 5.5.X.X.X 9 f 8 2 N C.C.C.V.S.S.C J.S.Y I L L ",
"A.C.C.C.C.k.N C.V.V.h.h.C.C M.u : o o + o + o o o + @ @ @ + @ @ o   : y N C.C.C.h.k.C.C J.S.Y I I I ",
"Z.V.C.C.C.k.N C.Z.V.V.Z.A.C x.Z.r $ ..*.*.%.%.-.;.%.%.%.;.;...-. .$ i k.N C.C.C.B.Z.A.G x.C.Y L I I ",
"Z.C.C.C.C.k.N C.C.C.g.h.C.C c.Z.r ; 3.w./ o   >.1.; X # 2.w.  6.>.- y k.N C.C.C.$.g.V.C c.S.T Y I I ",
"Z.C.C.C.C.k.N C.C.C.h.h.C.C l.Z.r   d w.w.<.  O o   % ,.,.O ~.s ..- i k.N C.C.C.h.B.C.C l.Z.h.T I I ",
"Z.c.C.C.C.k.N C.C.C.C.C.C.C l.Z.r y.m.d <.O 0.m.6.9.^ 6 9 Q./.0 ..& i k.V V.C.C.C.C.C.C l.Z.V.B.$.g.",
"Z.V.C.C.C.k.N C.C.C.C.C.C.C l.Z.r n.~.p.5   ! r.e.^ s 7 5./.!.7 ..- i k.N C.C.C.C.C.C.C k.C.C.C.C.C.",
"C.C.C.C.C.k.N C.C.C.C.C.C.C a.V 2 u.^.Q.f X ; 7.w.~ % > +.W.4.! =.&.f n V C.C.C.C.C.C.C j.C.C.C.C.C.",
"C.C.C.C.C.k.N C.C.C.C.C.C.C N a : l N.E.o.  Q ! ! Q % X X +.& 8.8.8.! a i C.C.C.C.C.C.C a.B.C.C.C.C.",
"B.V.C.C.k.U N C.C.C.C.C.V.C   6.5   e o.o + o + @ @ @ @ @ # 3.w.8.8.8.=.2 k.C.C.C.C.C.C P h.C.C.V.V.",
"n N V N n p N V.C.C.C.C.V.D X / %     +  .;.>.;.:.:.:.:.:.2.w.8.7.:.7.&.0 C.C.C.C.C.C.C p N V V N n ",
"f.k.j U j.A V G.C.C.C.C.C.C A 2   $  .-.;.1.I.e.t.I.I.t.w.w.w.2.6   X 2 V F.C.C.C.C.C.C A j.j.k.k.k.",
"V.C.p C.C.j.D H.C.C.C.C.C.C a.j.j.h * 7.>.o < O , < < < O , ;.-.+ j j.s.V H.C.C.C.C.C.C a.V.V.V.C.C.",
"C.C.p C.C.k.N C.C.C.C.C.C.C a.k.C.j & =.@ j l.@.@.@.@.@.j C @ =   N C.k.N C.C.C.C.C.C.C a.C.C.C.V.V.",
"C.C.k.C.C.k.D H.C.C.C.C.C.C a.C.C.a.k % X N C.C.C.C.C.C.D j.G @   k C.k.D H.C.C.C.C.C.C a.C.C.V.B.B.",
"B.V.T C.C.k.F P.C.C.C.C.C.C j.V.C.$.A u u B C.C.C.C.C.C.C a.V.n N @.C.k.F P.C.C.C.C.C.C j.C.V.f.I L ",
"Y V.B.K.C.k.F P.C.C.C.C.C.C a.V.$.I I I K D G.C.C.C.C.C.C j.C.k.H.C.C.k.F P.C.C.C.C.C.C a.V.$.L I I ",
"I V.U G.C.k.F L.C.C.C.C.C.C a.C.Y I I I K V H.C.C.C.C.C.C a.C.Y F.C.C.k.F L.C.C.C.C.C.C j.C.Y L L I ",
"L B.$.F.C.k.V G.C.C.C.C.C.C a.C.Y I I I K D G.V.C.C.C.V.C a.C.f.A.C.V.k.D G.C.C.C.C.C.C f.C.Y I I I ",
"I B.V.F.C.k.V F.C.C.V.Z.C.C a.Z.Y L L I K V G.C.C.C.C.C.C a.C.C.F.C.C.k.V F.V.C.C.C.C.C a.Z.Y I I I ",
"I B.C.C.C.k.V F.C.C.V.V.C.C a.V.Y Y I L A V S.C.C.C.C.C.C a.C.C.V.C.C.k.V S.V.V.C.C.C.C a.k.Y I I L ",
"L V.C.C.C.k.V F.C.C.Z.V.Z.C a.C.Y I L A p V C.C.C.C.C.C.C a.C.C.C.V.C.k.V F.C.C.C.C.C.C a.C.Y I I A ",
"Y V.C.C.V.k.n C.C.C.V.V.V.C a.C.Y I L p i N C.C.C.C.C.C.C l.Z.V.C.V.x.k.V C.C.C.C.C.C.C a.C.Y I I p ",
"L B.C.C.C.k.V V.C.C.C.C.C.C a.V.Y I I t t N V.C.C.C.C.C.C c.A.V.C.C.C.k.V C.C.C.C.C.C.C a.V.Y I I t ",
"L B.V.V.C.k.b g.V.V.C.C.h.B a.V.Y I I i t b f.C.C.V.C.h.B x.A.V.C.C.C.k.b $.C.C.C.C.h.B a.V.T I I t "
};
