/* XPM */
static char *heath_21730379985[] = {
/* columns rows colors chars-per-pixel */
"100 50 196 2 ",
"   c #3F3851",
".  c #47204A",
"X  c #4E224B",
"o  c #56234B",
"O  c #453951",
"+  c #4D3A51",
"@  c #553754",
"#  c #513E53",
"$  c #5B3C52",
"%  c #64264C",
"&  c #6B2A4E",
"*  c #73294D",
"=  c #6F3D4F",
"-  c #7B3F4F",
";  c #6A3757",
":  c #6D3454",
">  c #643B52",
",  c #693D50",
"<  c #703452",
"1  c #733659",
"2  c #793958",
"3  c #5E3B60",
"4  c #4B445C",
"5  c #534154",
"6  c #5A4659",
"7  c #624756",
"8  c #6E4352",
"9  c #714754",
"0  c #724A56",
"q  c #744E58",
"w  c #7C525B",
"e  c #575067",
"r  c #685769",
"t  c #6F5A69",
"y  c #785967",
"u  c #755677",
"i  c #843F4F",
"p  c #843E56",
"a  c #843759",
"s  c #89365C",
"d  c #913251",
"f  c #9F3351",
"g  c #963A58",
"h  c #AE3752",
"j  c #A43F57",
"k  c #B73A59",
"l  c #A23460",
"z  c #A63D65",
"x  c #D43E5B",
"c  c #C43464",
"v  c #92414F",
"b  c #874551",
"n  c #8C4C55",
"m  c #954354",
"M  c #9D4C53",
"N  c #86575D",
"B  c #965558",
"V  c #955C5D",
"C  c #A0424E",
"Z  c #AE444E",
"A  c #B34A4F",
"S  c #A34053",
"D  c #AB4A55",
"F  c #B94457",
"G  c #B54E52",
"H  c #AB5354",
"J  c #AC525E",
"K  c #B95657",
"L  c #BC5654",
"P  c #BC5B58",
"I  c #AF645E",
"U  c #8E4D63",
"Y  c #855367",
"T  c #AA5360",
"R  c #876C75",
"E  c #936973",
"W  c #A46463",
"Q  c #AF666D",
"!  c #B96D65",
"~  c #B77775",
"^  c #C84C5C",
"/  c #C25E57",
"(  c #D25654",
")  c #E04656",
"_  c #C3635C",
"`  c #C76A5F",
"'  c #C96B5F",
"]  c #D6605A",
"[  c #C05D64",
"{  c #CD5B62",
"}  c #D55C63",
"|  c #D85C63",
" . c #CF6366",
".. c #CA6E60",
"X. c #D56667",
"o. c #DE6366",
"O. c #DB6C65",
"+. c #CD7363",
"@. c #DF7667",
"#. c #C2717A",
"$. c #EB6469",
"%. c #E56D6A",
"&. c #E9716C",
"*. c #E27F6D",
"=. c #EB7770",
"-. c #EC7B74",
";. c #BF8170",
":. c #C18773",
">. c #C48E77",
",. c #D38476",
"<. c #C6947B",
"1. c #E3826F",
"2. c #E68D74",
"3. c #EE847C",
"4. c #E58A78",
"5. c #E99277",
"6. c #E99679",
"7. c #EB9D7D",
"8. c #EDA27F",
"9. c #7B7487",
"0. c #887A8C",
"q. c #9C7B83",
"w. c #878091",
"e. c #B38588",
"r. c #B78E8D",
"t. c #B78B92",
"y. c #9F98A7",
"u. c #A38CA3",
"i. c #B493A5",
"p. c #BAA7BA",
"a. c #B9A8BA",
"s. c #D39389",
"d. c #CA8B91",
"f. c #CE9D97",
"g. c #CF9F99",
"h. c #F18D84",
"j. c #E4998D",
"k. c #F4958A",
"l. c #F59A8E",
"z. c #F69D91",
"x. c #CCA685",
"c. c #CCA887",
"v. c #DFA59C",
"b. c #DBA89F",
"n. c #CEB797",
"m. c #CFBD9D",
"M. c #EEA582",
"N. c #F1AE87",
"B. c #F3B48A",
"V. c #F6BA8D",
"C. c #F7A296",
"Z. c #F9AE9F",
"A. c #CC9DA6",
"S. c #CBABAC",
"D. c #CFBFA1",
"F. c #E2A9A7",
"G. c #E8AEA4",
"H. c #F0ADA0",
"J. c #E7B1A5",
"K. c #E8B4AB",
"L. c #E7B8AC",
"P. c #FCB4A5",
"I. c #F3BAAC",
"U. c #FDBAAA",
"Y. c #E6B5B0",
"T. c #E8BDB2",
"R. c #F2BDB3",
"E. c #F9C494",
"W. c #F9C796",
"Q. c #FBCA97",
"!. c #CFC0A3",
"~. c #CFC4AA",
"^. c #CFC9B5",
"/. c #FEC0AF",
"(. c #FEDEAB",
"). c #E8C3BA",
"_. c #E8C8BF",
"`. c #F3C3B6",
"'. c #FFC2B1",
"]. c #FFCCBC",
"[. c #FEE1AE",
"{. c #FEE6B3",
"}. c #FEE8B7",
"|. c #FEEABB",
" X c #C3BCC7",
".X c #D1C2D0",
"XX c #DDC9D2",
"oX c #EACEC7",
"OX c #E8D5D1",
"+X c #E8D8D5",
"@X c #F0D5D1",
"#X c #FEEEC3",
"$X c #FEF4CE",
"%X c #E8DDE7",
"&X c #E7E0E7",
"*X c #FFF8FD",
/* pixels */
"                    O                                                                                   O     4                                                                                         ",
"+ ! ~ ;.x.c.m.~.^.D.n.x.x.x.n.D.^.^.^.D.m.x.x.x.<.:.! V   N ! ;.>.x.x.x.m.m.m.~.^.D.n.x.x.x.>.;.! w O ! ~ ;.<.c.m.!.^.!.m.c.x.x.n.D.^.^.^.!.m.x.x.x.<.;.! V   N ! ;.>.x.x.x.m.m.m.~.^.D.n.x.x.x.>.;.! w ",
"5 *.6.N.E.Q.{.|.$X|.{.Q.Q.Q.(.|.$X$X$X|.|.Q.Q.Q.B.M.@.W   W 1.M.B.Q.Q.Q.{.{.|.#X$X{.[.Q.Q.Q.N.7.1.Y 5 *.5.M.E.Q.{.|.$X|.[.Q.Q.Q.(.{.$X$X$X|.|.Q.Q.Q.B.M.*.W   W 1.M.N.Q.Q.Q.{.{.{.#X$X}.(.Q.Q.Q.N.7.*.Y ",
"5 1.8.Q.Q.Q.Q.Q.E.Q.Q.Q.Q.Q.Q.Q.Q.Q.Q.Q.Q.Q.Q.Q.Q.Q.1.W   W 1.Q.Q.Q.Q.Q.Q.Q.Q.Q.Q.Q.Q.Q.Q.Q.Q.B.1.V 5 *.M.Q.Q.Q.Q.Q.Q.Q.Q.Q.Q.Q.Q.Q.Q.Q.Q.Q.Q.Q.Q.Q.Q.Q.*.W   W 1.Q.Q.Q.Q.Q.Q.Q.Q.Q.Q.Q.Q.Q.Q.Q.W.V.1.V ",
"5 *.M.Q.Q.Q.Q.Q.Q.Q.Q.Q.Q.Q.Q.Q.Q.Q.Q.Q.Q.Q.Q.Q.Q.Q.1.W   W 1.Q.Q.Q.Q.Q.Q.Q.Q.Q.Q.Q.Q.Q.Q.Q.Q.B.1.V 5 *.M.Q.Q.Q.Q.Q.Q.Q.Q.Q.Q.Q.Q.Q.Q.Q.Q.Q.Q.Q.Q.Q.Q.Q.1.W   W 1.Q.Q.Q.Q.Q.Q.Q.Q.Q.Q.Q.Q.Q.Q.Q.Q.B.*.V ",
"5 *.8.Q.Q.Q.Q.Q.Q.Q.Q.Q.Q.Q.Q.Q.Q.Q.Q.Q.Q.Q.Q.Q.Q.Q.1.W   W @.Q.Q.Q.Q.Q.Q.Q.Q.Q.Q.Q.Q.Q.Q.Q.Q.B.@.V 5 *.M.Q.Q.Q.Q.Q.Q.Q.Q.Q.Q.Q.Q.Q.Q.Q.Q.Q.Q.Q.Q.Q.Q.E.*.W   W @.Q.Q.Q.Q.Q.Q.Q.Q.Q.Q.Q.Q.Q.Q.Q.Q.V.1.N ",
"5 *.6.N.E.Q.Q.Q.Q.Q.Q.Q.Q.Q.Q.Q.Q.Q.Q.Q.Q.Q.Q.Q.V.N.@.W   W *.N.B.Q.Q.Q.Q.Q.Q.Q.Q.Q.Q.Q.Q.Q.N.M.1.V 5 1.6.N.E.Q.Q.Q.Q.Q.Q.Q.Q.Q.Q.Q.Q.Q.Q.Q.Q.Q.Q.Q.V.N.*.W   W 1.N.B.Q.Q.Q.Q.Q.Q.Q.Q.Q.Q.Q.Q.Q.N.8.1.V ",
"5 *.2.7.V.E.Q.Q.Q.Q.Q.Q.Q.Q.Q.Q.Q.Q.Q.Q.Q.Q.Q.W.N.7.1.W   W *.7.M.E.Q.Q.Q.Q.Q.Q.Q.Q.Q.Q.Q.E.M.6.1.Y 5 1.4.7.V.E.Q.Q.Q.Q.Q.Q.Q.Q.Q.Q.Q.Q.Q.Q.Q.Q.Q.E.N.7.*.W   W @.8.M.E.Q.Q.Q.Q.Q.Q.Q.Q.Q.Q.W.E.8.6.*.V ",
"5 *.*.*.7.M.Q.Q.Q.Q.Q.Q.Q.Q.*Xu.u.u.u.u.u.u.u.u.u.u.u.u.u.u.u.R.1.7.V.Q.Q.Q.Q.Q.Q.Q.Q.Q.N.M.*.*.@.V 5 1.*.1.7.8.Q.Q.Q.Q.Q.Q.Q.Q.Q.Q.Q.Q.Q.Q.Q.Q.V.M.2.*.1.W   W 1.*.1.M.V.Q.Q.Q.Q.Q.Q.Q.Q.Q.B.M.2.@.1.V ",
"5 *.*.*.4.6.N.N.N.N.N.N.N.N.*X. & p p p p p p a p p p p 2 * . p.J.M.M.N.N.N.N.N.N.N.N.N.M.6.*.*.,.V 5 1.*.1.2.6.N.N.N.N.N.N.N.N.N.N.N.N.N.N.N.N.M.6.1.*.@.W   W 1.1.1.6.M.N.N.N.N.N.N.N.N.N.7.6.1.1.1.V ",
"5 *.1.*.1.*.*.*.*.*.*.*.*.*.*X. F %.&.&.=.&.&.&.&.&.&.&.$.^ * . p.v.4.*.*.*.*.*.*.*.1.*.*.*.*.*.1.V 5 1.*.*.*.*.1.@.1.@.1.1.1.1.*.*.*.*.1.*.*.*.1.@.*.*.1.W   W 1.@.1.@.*.*.*.*.*.*.1.*.*.*.*.*.@.1.1.Y ",
"# ] O.*.*.*.*.*.*.*.*.*.*.1.*X. { %.&.&.&.&.&.&.&.&.&.%.%.%.k . . %Xh.*.*.*.*.*.*.*.*.*.*.*.*.@.( n 5 ] ] *.*.*.1.1.1.1.@.@.1.1.*.*.*.*.*.*.*.*.1.1.1.1.X.M   M ] 1.1.1.*.*.*.*.*.*.*.*.*.*.*.*.1.@.( n ",
"# ( ] 1.*.*.*.*.*.*.*.1.*.*.OXu m | %.&.&.&.&.&.&.&.&.%.| | j . . %X4.1.*.*.*.*.*.*.*.*.*.*.*.@.( n O ( O.1.*.*.1.@.1.1.,.1.@.1.*.*.*.*.*.*.*.*.*.*.*.*.( M   M ( 1.*.*.*.*.*.*.*.*.*.*.*.*.*.*.1.@.( b ",
"      O                     O %Xu f o.=.&.&.&.&.&.%.O.{ h f . . . %Xe                           O     O                 O O                                                                             ",
"                            O   &X3 [ &.&.&.&.&.%.^ j X . . . . . %Xe                                                                                                                                   ",
"                                &X; [ &.&.&.&.&.| d % f . . . . . %Xe                                                                                                                                   ",
"2 v v v v v v v v v v 2 > O ; *X@ h o.&.&.&.&.&.T * S . . . . . . %Xe             1 2 v v v v v v p 2 v m i v v v v g i f 1 ,   ; 1 g v v v v v b 1 @ O                               ; p v v i v v v p ",
"s Z Z Z Z Z Z Z Z Z M s :   *X. h %.&.&.&.&.&.&.J p P . . . . . . %X*X*X*X*X*X*X*X*X*X*X*X*X*X*X*X*X*X*X*X*X*X*X*X*X*X*X*X*X*X*X*X*X*X*X*X*X*X#.S s @                                 a g Z Z Z Z Z Z g ",
"                            *X. { =.&.&.&.&.&.&.T p -.~ . . . . . 3 3 3 3 3 3 3 3 3 3 3 3 3 @ 3 3 3 $ $ 3 3 3 ; @ 3 3 $ 3 3 $ 3 $ 3 3 3 $ 3 3 .X9.  O   O     O     O       O               O           ",
"= > > $ O O @ > , , , , > = *X. k O.&.&.&.&.&.} d a 3.U.G.G.G.G.oXJ.).OXoXL.T._.oX+X+X+X+XOX_.oXoXG.G.Y.G.).+XoXT.T.oXoX+X+X+X+XOX_.oXG.K.j.X.1 a.q., , , > > > $   O $ > > = > = ; , , , @ O   @ $ , , ",
"Z Z m s @ O s g Z Z Z Z Z Z *X. % < ; ; < 1 : & o p 3.'.'.'.'.'.K.J.K.].].I.L.L.`.oX].].@XR.K.L.'.'.I.J.J.R.oX].'.'.].].OX].oX].].].].'.'.U.z. .E i.d.Z Z Z Z g s   O s S Z Z Z Z Z Z Z C s $   a a Z Z ",
"/ _ L D @ O D K _ _ P _ _ _ *X.X.X.X.X.X XXXXX Xu.p 3.'.'.'.'.'.    6 '.'.g.    R '.'.'.U.  O 6 '.'.g.    R '.'.'././.'.U.'.'.'.'.'.U.'.'.'.U.-.s a.F.P _ _ P K D   $ D K _ P _ K _ P _ P H , O M G _ _ ",
"+.+._ L > # _ _ +.+.+.+.' +.v.v.s.t.0.d.s.v.F.oXa.p h.'.'.'.g.t l l S u t Y Z  .Q t '.g.t l l z t t Y F P Q t '.P.C.h.l.P.C.h.k.Z.'.'.'.'.'.'.h.a p.Y.+.+.+.+._ L   6 _ ` +.+.+.+.+.+.+.' L 8   H / +.+.",
"+.+.P Z $ + Z P +.+.+.+.+.+.+.` Z b O m F ....Y.a.p 3.'.'.'.r.  c c k 7 > p ) $.T   '.r.O c c k > ; b ) $.T   '.l.=.&.%.3.3.&.&.h.'.'.'.'.'.U.3.p a.Y.+.+.+.+.K Z   $ h _ +.+.+.+.+.+.+._ Z ,   j G +.+.",
"V V n b + O b n V V V V B V V V p > O = b V V S.a.p 3./.'.'.r.  c x ) ) ) ) ) ) j O '.r.  c x ) ) ) ) ) ) S   '.h.&.&.&.&.&.&.&.-.'.'.'.'.'.'.h.b p.S.V V V V n i O + i n V V V V V V V B b $   b b V V ",
"O O     O O O         O         O O       O   y.p.p 3.'.'.'.r.  c x ) ) ) ) ) ) j O '.r.  c x ) ) ) ) ) ) S   '.h.&.&.&.&.&.&.&.-.'.'.'.'.'.'.3.p p.y.      O O       O O     O     O         O         ",
"b V V V V V V V V V B b ,   = b V V V V V V B A.a.p 3.'.'.'.b.q.2 k x ) ) ) ) g n E '.b.q.a k x ) ) ) ) m V q./.C.-.&.&.&.&.&.&.h.'.'.'.'.'.'.3.p p.y.  b b V V V V V V V V V B i $ O - b V V V V V V n ",
"A +.+.+.+.+.+.+.+.+.` Z b O v H +.+.+.+.+.+.P A.a.p 3.'.'.'.'.'.O s c ) ) ) ) @ R P.'.'.U.  s c ) ) ) ) @ R '.'.P.k.-.&.&.&.=.3.Z.'.'.'.'.'.'.3.p p.y.  Z L +.+.+.+.+.+.+.+.+._ Z ,   C G +.+.+.+.+.+.P ",
"+.+.+.+.+.+.+.+.+.+.+.+.V O W +.+.+.+.+.+.+.+.Y.p.p 3.U.'.'.'.'.U.R @ c c l   s.P.'.'.'.'.U.R $ c c l   J.'.'.'.'.P.k.-.&.=.5.Z.'.'.'.'.'./.U.3.p p. Xw.v.v.v.v.v.v.v.v.+.+.+.+.+.q O ! +.+.+.+.+.+.+.+.",
"_ +.+.+.+.+.+.+.+.+.+.` B   H _ +.+.+.+.+.+.+.F.p.p %.l.U.'.'.U.'.g.e.1 1 U ~ H.'.'.'.'.'.U.f.q.1 1 U t.I./.'.'.'.'.P.l.3.h.Z.'.'.'.'.'.'./.U.3.p u..X.X.X.X.X.X.X.X.X*X+.+.+.+._ 0   I ' +.+.+.+.+.+.' ",
"A +.+.+.+.+.+.+.+.+.' Z i   v A +.+.+.+.+.+._ d.i.U j %.k.Z.Z.Z.P.Z.v.@ # y Z.Z.Z.Z.Z.Z.P.Z.Z.j.# # y Z.P.Z.Z.Z.Z.Z.Z.Z.Z.Z.Z.Z.Z.Z.Z.Z.Z.P.l.-.p o & : < < < < = % . *X+.+.+.' Z ,   C G +.+.+.+.+.+.P ",
"= q q q q q q q q q q , $   $ , q q q q q q 8 = 0.p.; k X.X.X.X.X. .X.X.X.X.X.| X.X.X.X.X.X.X.X.X.X.X. .X.X.X.X.X.X.X.X.X.X.X.X.X.X.X.X.X. .%.&.p g ( &.&.&.&.&.%.h . *Xq q 0 0 , +   $ 8 q q q q q q 9 ",
"  O                                   O           0..X$ 3 3 3 $ 3 3 3 3 3 3 3 3 $ 3 3 3 3 3 $ 3 3 3 3 3 $ 3 3 3 3 3 3 3 3 3 3 3 > . . . . . d o.p T =.&.&.&.&.&.&.{ . *X                                ",
"+.+._ L 7 + A P +.+.+.+.+.+.+.' Z b   M L +.+.+.+.+.s.*X*X*X*X*X*X*X*X*X*X*X*X*X*X*X*X*X*X*X*X*X*X*X*X*X*X*X*X*X*X*X*X*X*X*X*X*X%X. . . . . . P p T &.&.&.&.&.&.%.k . *X_ +.+.+.+.+.+.+.` Z >   H / +.+.",
"+.' / L $ + G P +.+.+.+.+.+.+.' A b   M L ` ' +.+.+.+...../ G   $ G ..+.+.+.+.+.+.+.' G 8   H / ......../ L $ + G _ +.+.+.+.+.,.%X. . . . . . f * T &.&.&.&.&.o.h 3 *XG ..+.+.+.+.+.+.+...G 8   H / ' ' ",
"' L A Z $ 5 +.+.+.+.+.+.+.+.+.+.+.V   v h / _ +.+.+.+.` L G Z   7 +.+.+.+.+.+.+.+.+.+.+.q   M Z / _ ../ G Z $ # +.+.+.+.+.+.+.,.%X. . . . . f % d | &.&.&.&.&.[ 3 %X6 +...+.+.+.+.+.+.+.+.+.q   v A L _ ",
"0 8 8 8 + + L _ +.+.+.+.+.+.+...L b   $ ; 8 0 q q q q 0 8 8 ,   6 K ..+.+.+.+.+.+.+.` L 8   > , = 9 0 8 , , + + K _ +.+.+.+.+.,.%X. . . . . X f { $.&.&.&.&.&.P 3 &X$ K ..+.+.+.+.+.+.+...K 8   , , 8 9 ",
"O         O Z P +.+.+.+.+.+.+.' A b                             $ Z P +.+.+.+.+.+.+._ Z ,         O       O   + Z P +.+.+.+.+.,.%X. . h h } X.O.%.=.&.&.&.&.&.o.f u &XZ P +.+.+.+.+.+.+._ Z ,   O     O ",
"            O 5 5 5 5 5 5 + 5 5 + O                               + + 5 + 5 + 5 # # # + O                       + 5 5 + + # # r %X. f o.o.&.&.&.&.&.&.&.&.&.&.%.X.j u XX# + + 5 5 + 5 + 5 + O           ",
"                                                                                                                        O     e %X. k &.&.&.&.&.&.&.&.&.&.&.&.&.%.{ . *X                                ",
"                                                                                                                              4 0.a.* ^ &.&.&.&.&.&.&.&.&.&.&.&.%.F . *X                                ",
"                                                                                                                                4 w.a.* p p p p p p p p p p i i p & . *X                                ",
"                                                                                                                                    y.u.u.u.u.u.u.u.u.u.u.u.u.u.u.u.u.*X                                ",
"                                                                                                                                                                                                        ",
"                                                                                                                                                                                                        ",
"                                                                                                                                                                                                        ",
"                                                                                                                                                                                                        ",
"                                                                                                                                                                                                        ",
"                                                                                                                                                                                                        ",
"                                                                                                                                                                                                        "
};
