/* XPM */
static char *heath_01730379986[] = {
/* columns rows colors chars-per-pixel */
"100 50 157 2 ",
"   c #3F3851",
".  c #463951",
"X  c #4D3A51",
"o  c #543754",
"O  c #5B3755",
"+  c #513E53",
"@  c #5B3B52",
"#  c #6F3D4F",
"$  c #763E4F",
"%  c #663757",
"&  c #623A51",
"*  c #683D50",
"=  c #6D3758",
"-  c #7E3957",
";  c #773659",
":  c #793758",
">  c #47425A",
",  c #534154",
"<  c #5C4253",
"1  c #6E4352",
"2  c #6B4B57",
"3  c #714754",
"4  c #724A55",
"5  c #744E58",
"6  c #7C525B",
"7  c #544E65",
"8  c #555066",
"9  c #59566C",
"0  c #626175",
"q  c #6A677A",
"w  c #69697C",
"e  c #7C6A7B",
"r  c #843F4F",
"t  c #873D53",
"y  c #89365C",
"u  c #8E385A",
"i  c #973B57",
"p  c #9B3D55",
"a  c #923958",
"s  c #A03E53",
"d  c #84404F",
"f  c #92414F",
"g  c #854251",
"h  c #884651",
"j  c #804C56",
"k  c #8C4B54",
"l  c #914453",
"z  c #9D4C53",
"x  c #86555A",
"c  c #905156",
"v  c #9E5157",
"b  c #935558",
"n  c #955C5D",
"m  c #985D5C",
"M  c #A0424E",
"N  c #AE444E",
"B  c #B34A4F",
"V  c #A94250",
"C  c #AB4B56",
"Z  c #B54D52",
"A  c #A75153",
"S  c #AE5252",
"D  c #BC5654",
"F  c #BE5855",
"G  c #B55559",
"H  c #BD5B59",
"J  c #A9645F",
"K  c #B5635C",
"L  c #A46463",
"P  c #B96D65",
"I  c #BD7A6D",
"U  c #C15D57",
"Y  c #C25F58",
"T  c #D25654",
"R  c #C3635B",
"E  c #C76A5F",
"W  c #C96B5E",
"Q  c #D6605A",
"!  c #CA6E60",
"~  c #DB6D62",
"^  c #CD7363",
"/  c #DE7566",
"(  c #DF7768",
")  c #E27F6D",
"_  c #BF8170",
"`  c #C38C76",
"'  c #C48F78",
"]  c #C6947B",
"[  c #E3826F",
"{  c #E48771",
"}  c #E68C74",
"|  c #E99277",
" . c #E99679",
".. c #EB9D7D",
"X. c #EDA27F",
"o. c #767789",
"O. c #78788A",
"+. c #807F8F",
"@. c #8F818F",
"#. c #91838F",
"$. c #898390",
"%. c #858999",
"&. c #928691",
"*. c #8D94A2",
"=. c #9696A3",
"-. c #969CAB",
";. c #99A0AD",
":. c #9FA6B3",
">. c #A1A2AE",
",. c #A5ABB7",
"<. c #ACAEB8",
"1. c #A8B2BE",
"2. c #B6B2B9",
"3. c #C99D81",
"4. c #CCA685",
"5. c #CCA887",
"6. c #CEB797",
"7. c #CFBD9D",
"8. c #EEA582",
"9. c #F1AE87",
"0. c #F3B48A",
"q. c #F6BA8E",
"w. c #CFBFA1",
"e. c #F7C091",
"r. c #F9C494",
"t. c #FBCA97",
"y. c #FBCE9B",
"u. c #CFC0A3",
"i. c #CFC4AA",
"p. c #CFC9B5",
"a. c #FEDEAB",
"s. c #FEE1AE",
"d. c #FEE6B3",
"f. c #FEE8B7",
"g. c #FEEABB",
"h. c #AAB6C3",
"j. c #B6BBC3",
"k. c #BAC7D0",
"l. c #BECAD2",
"z. c #C2C6CD",
"x. c #C9CCD2",
"c. c #C7D1D8",
"v. c #CAD4DB",
"b. c #D9DBDD",
"n. c #FEEEC3",
"m. c #FEF4CE",
"M. c #CDDDE3",
"N. c #D3DEE3",
"B. c #D8DDE1",
"V. c #D3E1E7",
"C. c #D8E1E5",
"Z. c #DBE7EB",
"A. c #E7E4E5",
"S. c #E2EAEC",
"D. c #E5EEF1",
"F. c #E7F0F2",
"G. c #EEF5F6",
/* pixels */
"                                                                                                                                                                                                        ",
"X P I _ 3.5.7.i.p.u.7.4.4.4.6.7.p.p.p.u.7.4.4.4.] _ P n   x P _ ] 5.4.4.7.7.7.i.p.w.6.4.4.4.` _ P 6 . P I _ 3.5.7.p.p.w.7.4.4.4.6.7.p.p.p.u.7.4.4.4.] _ P n   x P _ ' 4.4.4.7.7.w.i.p.w.6.4.4.4.` I P 6 ",
", )  .8.q.y.d.n.m.g.s.t.t.t.a.f.m.m.m.g.d.t.t.t.0.8.[ L   L [ 8.0.t.t.t.d.d.d.n.m.g.a.t.t.t.9...) n , [ | 8.q.y.d.n.m.g.s.t.t.t.a.g.m.m.m.g.d.t.t.t.0.8.) L   L [ 8.9.t.t.t.d.d.d.n.m.f.a.t.t.t.8.8.{ n ",
", ) 8.y.t.t.t.t.t.t.y.t.t.t.t.t.t.t.t.t.t.t.t.t.t.t.[ L   L ( t.y.t.t.t.t.t.t.t.t.t.t.t.t.t.t.0.) n , ) 8.t.y.t.t.t.t.t.t.t.t.t.t.t.t.t.t.t.t.t.t.t.t.y.) L   L [ t.t.t.t.t.t.t.t.t.t.t.t.t.t.t.t.q.) x ",
", ) 8.t.t.t.t.t.t.t.t.t.t.t.t.t.t.t.t.t.t.t.t.t.t.t.( L   L [ y.t.t.t.t.t.t.t.t.t.t.t.t.t.t.t.0.) x , ) 8.y.t.t.t.t.t.t.t.t.t.t.t.t.t.t.t.t.t.t.t.t.t.t.[ L   L [ t.t.t.t.t.t.t.t.t.t.t.t.t.t.t.t.0.) n ",
", ) 8.t.t.t.t.t.t.t.t.t.t.t.t.t.t.t.t.t.t.t.t.t.t.t.[ L   L ( t.t.t.t.t.t.t.t.t.t.t.t.t.t.t.t.0.) n , ) 8.t.t.t.t.t.t.t.t.t.t.t.t.t.t.t.t.t.t.t.t.t.t.t.[ L   L ( t.t.t.t.t.t.t.t.t.t.t.t.t.t.t.y.0.) n ",
", )  .9.e.y.t.t.t.t.t.t.t.t.t.t.t.t.t.t.t.t.t.t.q.9.( L   L [ 9.0.t.t.t.t.t.t.t.t.t.t.t.t.t.9.8.) x , ) 8.8.q.t.t.t.t.t.t.t.t.t.t.t.t.t.t.t.t.t.t.t.q.8.) L   L [ 9.0.t.t.t.t.t.t.t.t.t.t.t.t.t.9.8.) x ",
", ) } ..q.r.t.t.t.t.t.t.t.t.t.t.t.t.t.t.t.t.r.r.9...[ L   L [ ..8.r.t.t.t.t.t.t.t.t.t.t.t.r.8. .) n , { { 8.q.r.t.t.t.t.t.t.t.t.t.t.t.t.t.t.t.t.t.r.9...) L   L [ ..8.r.t.t.t.t.t.t.t.t.t.t.t.e.8. .) n ",
", ) ) ) ..8.t.t.t.t.t.t.t.t.t.t.t.t.t.t.t.t.q.X.} ) ( L   L [ ( { X.q.t.t.t.t.t.t.t.t.t.9...{ ) ) n + ) ) ) ..8.t.t.t.t.t.t.t.t.t.t.t.t.t.t.t.t.q.8.} ( [ L   L ( [ { X.q.t.t.t.t.t.t.t.t.t.9.8.{ ) ) x ",
", ) ) ) }  .9.9.9.9.9.9.9.9.9.9.9.9.9.9.9.9.8. .{ [ [ L   L [ [ [  .8.9.9.9.9.9.9.9.9.9.8.| ) ) ) n , ) ) ) }  .9.9.9.9.9.9.9.9.9.9.9.9.9.9.9.9.8. .{ [ ( L   L [ [ [  .8.9.9.9.9.9.9.9.9.9.8.| ) ) ) n ",
", ) [ ) [ ) ) ) [ ) ) ) ) ) ) ) ) ) ) ) [ ) ) ) ) ) [ L   L ( [ [ [ ( [ ) ) ) ) ) ) [ ) ) ) ( { ) n , { ) ) ) ) ) ) ) ) ) ) ) ) ) ) ) ) [ ) ) ) [ ( [ [ [ L   L ( [ ( [ ) ) ) ) ) ) { ( ) ) ) ) ) ) ) n ",
", T ~ ) ) ) ) ) ) ) ) ) ) ) ) ) ) ) ) ) ) ) ) ) ) ) Q v   v Q [ ( ( [ [ ) ) ) ) ) ) ) ) ) ) { / Q j , T ~ ) ) ) ) ) ) ) ) ) ) ) ) ) ) ) ) ) ) ) [ [ ( [ Q v   v Q [ ( [ ) ) ) ) ) ) ) { ) ) ) ) ) ) Q j ",
"+ T ~ ) ) ) ) ) ) ) ) ) ) ( { ) ) ) ) ) ) ) ) ) ) ) T z   z T [ { ) ) ) ) ) ) ) ) ) ) ) ) ) ) / T h o T ~ ) ) ) ) ) ) ) ) ) ) ) { ) ) ) ( [ [ ( ( [ [ [ T z   z T { ( { ) ) ) ) ) ) ) ) ) ) ) ) ) ( T g ",
"                        .                                                                                                                                                                               ",
"                                                                                                                                                                                                        ",
"                                                                                                                                                                                                        ",
": l t f f f f f f f f ; &   % : l t f f f f t ; o           .                                                                   .         . f f g ; o .                             . = - f f f a l l t ",
"u N N N N N N N N N V y =   ; u N N N N N N p y O           ;.1.z.z.z.z.z.z.z.z.z.z.z.z.z.z.z.z.z.z.z.z.z.z.z.z.z.z.z.z.z.z.z.z.z.z.z.z.:.-.@ d s y O                                 - a N N N N V V p ",
"            . .                 .     .     .               l.V.G.G.G.G.G.G.G.G.G.G.G.G.G.G.G.G.G.G.G.G.G.G.G.G.G.G.G.G.G.G.G.G.G.G.G.G.M.h.                  .             .                   .       ",
"* * & O . . o & * * & 1 & * * * O o   o o * * * * * * * o   b.G.G.G.G.G.G.G.G.G.G.G.G.G.G.G.G.G.G.G.G.G.G.G.G.G.G.G.G.G.G.G.G.G.G.G.G.G.G.B.  o * * * * * * * O O   X O & & * * * & * * & @ .   o & * * ",
"N N p y o . y p N N N N N N N N y =   : y N N N N N N N 1   C.G.G.G.G.>.=.=.=.=.N.D.G.j.=.=.=.=.v.G.=.=.=.=.=.=.j.G.<.=.=.=.=.v.Z.G.G.G.G.B.  $ N N N N N N N i y   o y s N N V N V N N M y O   - a N V ",
"R H D C o X C G R H R R R R H H C g   l C R H R R R H R j   b.G.G.G.G.8         k.N.G.O.        <.G.            O.G.q         h.M.G.G.G.G.b.  6 R H R H R R H G C   @ C G Y R R Y Y R R F A * . z G R Y ",
"^ ^ R U & X F R ^ ^ ^ ^ ^ ^ ^ W F k   z U ^ ^ ^ ^ ^ ^ ^ x . b.G.G.G.G.7     *.k.q O.G.+.    0 k.C.G.      :.k.  +.G.q     o.k.0 q G.G.G.G.B.  x ^ ^ ^ ^ ^ ^ ^ R F   < F E ^ ^ ^ ^ ^ ^ ^ ! F 1   Z U ^ ^ ",
"^ ^ H N @ X N U ^ ^ ^ ^ ^ ^ ^ ^ N d   f N ^ ^ ^ ^ ^ ^ ^ x   C.G.G.G.G.7   . -.M.7 q G.+.    9 k.C.G.      ;.k.  +.G.0     o.M.0 8 G.G.G.G.B.  x ^ ^ ^ ^ ^ ^ ^ D N   @ N R ^ ^ ^ ^ ^ ^ ^ R N *   p Z ^ ^ ",
"m m c d + . d k n n n m m m m b d *   # r m m n m m n m 2   B.G.G.G.G.8 .   <.G.8 q G.+..       <.G.            +.G.w     +.G.q 8 G.G.G.G.C.  2 m m m m n m m k r   X r c m m m m n m m b d <   r h n n ",
"            .   .                         .                 b.G.G.G.G.7     <.G.7 q G.+.        <.G.            $.G.w     +.G.q 8 G.G.G.G.B.                                                          . ",
"d n n n m m n n m m n r *   1 d n m n m n m c d @   d h 2   B.G.G.G.G.7     <.G.7 q G.+.        <.G.            O.G.w     +.G.q 8 G.G.G.G.b.  2 c d @   d k m n n n m m m m m c d @   d h m m m n n n k ",
"B ^ ^ ^ ^ ^ ^ ^ ^ ^ W N d . f N ^ ^ ^ ^ ^ ^ R N *   N D x   B.G.G.G.G.8     <.G.8 w G.+.        <.G.            $.G.w     +.G.q 8 G.G.G.G.B.  x H N &   N D ^ ^ ^ ^ ^ ^ ^ ^ ^ R N 1   M Z ^ ^ ^ ^ ^ ^ H ",
"^ ^ ^ ^ ^ ^ ^ ^ ^ ^ ^ ^ n   J ^ ^ ^ ^ ^ ^ ^ ^ ^ 5   ^ ^ x   B.G.G.G.G.7     ,.D.7 w G.+.    . 0 k.G..     9 0   O.G.q     O.D.w 8 G.G.G.G.b.  x ^ ^ 5   ^ ^ ^ ^ ^ ^ ^ ^ ^ ^ ^ ^ ^ 5   K ^ ^ ^ ^ ^ ^ ^ ^ ",
"R ^ ^ ^ ^ ^ ^ ^ ^ ^ ^ R b   J R ^ ^ ^ ^ ^ ^ ^ R 2   R E x   B.G.G.G.G.8     -.M.> o.G.O.    0 M.Z.G.      h.M.  $.G.q     o.M.0 8 G.G.G.G.C.  x ^ R 2   W R ^ ^ ^ ^ ^ ^ ^ ^ ^ ^ R 1   K W ^ ^ ^ ^ ^ ^ ^ ",
"Z ^ ^ ^ ^ ^ ^ ^ ^ ^ W N d   f N ^ ^ ^ ^ ^ ^ R N *   N D x   B.G.G.G.G.7     w %.%.:.G.O.    7 %.x.G.      j.Z.  O.G.w     9 %.%.=.G.G.G.G.C.  x R N 1   N D ^ ^ ^ ^ ^ ^ ^ ^ ^ R N * . z S ^ ^ ^ ^ ^ ^ H ",
"1 5 5 5 5 5 5 5 5 5 4 1 @   @ 1 5 5 5 5 5 5 3 * X   * 1 <   B.G.G.G.G.8         l.V.G.+.        <.G.      z.G.  $.G.w         <.M.G.G.G.G.b.  < 1 * X   1 1 5 5 5 5 5 5 5 5 5 4 * X   & 1 5 5 4 5 5 5 1 ",
"  .   .                                                     b.G.G.G.G.B.B.C.B.B.F.F.G.S.C.B.C.b.Z.G.C.C.B.S.G.B.S.G.A.B.C.B.B.S.F.G.G.G.G.b.                  .                                       . ",
"! ^ U U < X N H ^ ^ ^ ^ ^ ^ ^ W N d   z F ^ ^ ^ ^ ^ ^ ^ x   b.F.G.G.G.G.G.G.G.G.G.G.G.G.G.G.G.G.G.G.G.G.G.G.G.G.G.G.G.G.G.G.G.G.G.G.G.G.S.v.  x ! ^ ^ ^ ^ ^ ^ R F   @ N U ^ ^ ^ ^ ^ ^ ^ W N 1   S U ^ ^ ",
"^ W U D < X B R ^ ^ ^ ^ ^ ^ ^ W B k   z D W ! ^ ^ ^ ^ ^ x   k.V.G.G.G.G.G.G.G.G.G.G.G.G.G.G.G.G.G.G.G.G.G.G.G.G.G.G.G.G.G.G.G.G.G.G.G.G.c.1.  k ! ^ ^ ^ ^ ^ W F D   < D W ^ ^ ^ ^ ^ ^ ^ R D 1   S F W ! ",
"^ D B N @ , ^ ^ ^ ^ ^ ^ ^ ^ ^ ^ ^ m . f N D R ^ ^ ^ ^ W A d e o.$.&.&.&.&.&.&.&.&.&.&.&.@.$.@.@.#.#.#.#.@.@.$.x.b.A.A.A.x.2.&.&.&.&.&.$.o.e 3 A R ^ ^ ^ ! W F B N   < ! ! ^ ^ ^ ^ ^ ^ ^ ^ ^ 2   z B D R ",
"4 1 1 * X X D R ^ ^ ^ ^ ^ ^ ^ ^ D k   @ * 1 3 5 4 5 5 4 1 1 &   @ H ! ^ ^ ^ ^ ^ ^ ^ W D 1   @ 1 1 4 5 1 1 * . X D R ^ ^ ^ ^ ^ ^ ^ ! F k   @ * 1 4 5 5 5 5 4 1 1 *   < D W ^ ^ ^ ^ ^ ^ ^ R D 1   & * 1 3 ",
".         X N F ^ ^ ^ ^ ^ ! ^ W N d                             @ V H ^ ^ ^ ^ ^ ^ ^ R N *         .         . . N H ^ ^ ^ ^ ^ ^ ! W N d                   .         @ N H ^ ^ ^ ^ ! ^ ^ R N &         . ",
"            . > , , , , X , , , X .                             . X X , X , , + X , , . .                       X , , X , X , , , X X .                               . , , , , . , , , , , .           ",
"                                                                                                                              .                                                                         ",
"                                                                                                                                                                                                        ",
"                                                                                                                                                                                                        ",
"                                                                                                                                                                                                        ",
"                                                                                                                                                                                                        ",
"                                                                                                                                                                                                        ",
"                                                                                                                                                                                                        ",
"                                                                                                                                                                                                        ",
"                                                                                                                                                                                                        ",
"                                                                                                                                                                                                        ",
"                                                                                                                                                                                                        "
};
