/* XPM */
static char *heath_11730379986[] = {
/* columns rows colors chars-per-pixel */
"100 50 193 2 ",
"   c #3F3851",
".  c #47204A",
"X  c #4E224B",
"o  c #56234B",
"O  c #453951",
"+  c #4D3A51",
"@  c #563754",
"#  c #513E53",
"$  c #5B3C52",
"%  c #64264C",
"&  c #6B2A4E",
"*  c #73294D",
"=  c #6F3D4F",
"-  c #7B3F4F",
";  c #6A3757",
":  c #6D3454",
">  c #633B51",
",  c #693D50",
"<  c #703452",
"1  c #743659",
"2  c #793958",
"3  c #5E3B60",
"4  c #4B445C",
"5  c #534154",
"6  c #5B4557",
"7  c #624756",
"8  c #6E4352",
"9  c #714754",
"0  c #724A56",
"q  c #744E58",
"w  c #7C525B",
"e  c #575067",
"r  c #685769",
"t  c #6F5A69",
"y  c #785967",
"u  c #755677",
"i  c #843F4F",
"p  c #843E56",
"a  c #89365C",
"s  c #853859",
"d  c #913251",
"f  c #9F3351",
"g  c #963A57",
"h  c #AE3752",
"j  c #A43F57",
"k  c #B73B58",
"l  c #A33661",
"z  c #D43E5B",
"x  c #C43464",
"c  c #92414F",
"v  c #874551",
"b  c #8C4C55",
"n  c #944455",
"m  c #9D4C53",
"M  c #86575D",
"N  c #965558",
"B  c #955C5D",
"V  c #A0424E",
"C  c #AE444E",
"Z  c #B34A4F",
"A  c #A54152",
"S  c #AB4B56",
"D  c #B54E52",
"F  c #B94558",
"G  c #AD5252",
"H  c #AC525E",
"J  c #A35B5B",
"K  c #B95657",
"L  c #BC5654",
"P  c #BC5B58",
"I  c #AF645E",
"U  c #894661",
"Y  c #885269",
"T  c #AA5360",
"R  c #8F6974",
"E  c #A46463",
"W  c #AF666D",
"Q  c #B96D65",
"!  c #BD7A6D",
"~  c #B47479",
"^  c #C84C5C",
"/  c #C25E57",
"(  c #D25654",
")  c #E04656",
"_  c #C3635C",
"`  c #C76A5F",
"'  c #C96B5F",
"]  c #D6605A",
"[  c #C05D63",
"{  c #CD5B62",
"}  c #D55C63",
"|  c #D85C63",
" . c #CF6366",
".. c #CA6E60",
"X. c #D56667",
"o. c #DE6366",
"O. c #DB6C65",
"+. c #CD7363",
"@. c #DF7667",
"#. c #C2717A",
"$. c #EB6469",
"%. c #E56D6A",
"&. c #E9716C",
"*. c #E27F6D",
"=. c #EB7770",
"-. c #EC7C75",
";. c #BF8170",
":. c #C18773",
">. c #C48E77",
",. c #D38476",
"<. c #C6947B",
"1. c #E3826F",
"2. c #E68D74",
"3. c #EE847C",
"4. c #E58A78",
"5. c #E99277",
"6. c #E99679",
"7. c #EB9D7D",
"8. c #EDA27F",
"9. c #7B7487",
"0. c #927A88",
"q. c #878091",
"w. c #B68C8C",
"e. c #B78B92",
"r. c #9F98A7",
"t. c #A38CA3",
"y. c #B493A5",
"u. c #BAA7BA",
"i. c #B9A8BA",
"p. c #D78F8D",
"a. c #C99D81",
"s. c #CA8B91",
"d. c #CF9F99",
"f. c #F18E85",
"g. c #E79786",
"h. c #F4958A",
"j. c #F59A8E",
"k. c #E19C93",
"l. c #F69D91",
"z. c #CCA685",
"x. c #CCA887",
"c. c #DFA59C",
"v. c #CEB797",
"b. c #CFBD9D",
"n. c #EEA582",
"m. c #F1AE87",
"M. c #F3B48A",
"N. c #F6BA8D",
"B. c #F9A597",
"V. c #F8A598",
"C. c #F9AE9F",
"Z. c #CC9DA6",
"A. c #CBABAC",
"S. c #CFBFA1",
"D. c #E2A9A7",
"F. c #E8AEA4",
"G. c #F6AEA0",
"H. c #E8B5AA",
"J. c #FCB4A4",
"K. c #F3BBAD",
"L. c #FEBBAA",
"P. c #E6B5B0",
"I. c #E8BDB3",
"U. c #F0BBB5",
"Y. c #F9C494",
"T. c #F9C796",
"R. c #FBCA97",
"E. c #CFC0A3",
"W. c #CFC4AA",
"Q. c #CFC9B5",
"!. c #FEC0AF",
"~. c #FEDEAB",
"^. c #E8C3BA",
"/. c #E8C8BF",
"(. c #FFC2B1",
"). c #F9C6B7",
"_. c #FFCCBC",
"`. c #FEE1AE",
"'. c #FEE6B3",
"]. c #FEE8B7",
"[. c #FEEABB",
"{. c #C3BCC7",
"}. c #D1C2D0",
"|. c #DDC9D2",
" X c #EACEC7",
".X c #E8D5D1",
"XX c #E8D8D5",
"oX c #F0D5D1",
"OX c #FEEEC3",
"+X c #FEF4CE",
"@X c #E8DDE7",
"#X c #E7E0E7",
"$X c #FFF8FD",
/* pixels */
"                    O           O                                                                                               O                                                                       ",
"+ Q ! ;.a.z.b.W.Q.E.b.z.z.z.v.b.Q.Q.Q.S.b.x.x.x.<.;.Q B   w Q ;.<.x.x.x.b.b.b.W.Q.S.v.x.z.x.>.;.Q w O Q ! :.a.x.b.W.Q.S.b.x.z.z.v.S.Q.Q.Q.E.b.x.x.z.<.:.Q B   M Q ;.>.x.x.z.b.b.E.W.Q.E.v.x.z.z.>.;.Q w ",
"5 1.6.n.Y.R.'.OX+X[.'.R.R.R.~.'.+X+X+X[.'.R.R.R.M.m.@.E   E 1.n.m.R.R.R.'.'.'.OX+X].~.R.T.T.m.7.@.B 5 1.5.n.Y.R.'.OX+X].`.R.T.R.`.'.+X+X+X].'.R.R.R.M.n.*.E   E 1.n.m.R.R.R.'.'.'.OX+X'.`.R.R.R.m.7.*.B ",
"5 1.n.R.R.R.R.R.T.R.R.R.R.R.R.T.R.R.R.R.T.R.R.R.R.R.1.E   E 1.T.R.R.R.R.R.R.R.R.R.R.T.R.R.R.R.N.,.B 5 *.n.R.R.R.R.R.R.R.R.R.R.R.R.R.R.R.R.R.T.R.R.R.R.T.*.E   E 1.T.R.R.R.R.R.R.R.R.T.R.R.R.R.R.T.N.@.B ",
"5 *.n.T.T.T.R.R.R.R.R.R.R.R.R.R.R.R.R.R.R.R.R.R.R.R.1.E O E 1.T.R.R.R.R.R.R.R.R.R.R.R.R.R.R.R.N.*.B 5 *.8.R.R.R.R.R.R.R.T.R.R.R.R.R.R.R.R.R.R.R.R.R.R.R.*.E   E 1.R.R.R.R.R.R.R.R.R.R.R.R.R.R.R.T.N.1.B ",
"5 *.n.R.R.R.R.R.R.R.R.R.R.R.R.R.R.R.R.R.R.R.R.R.R.R.1.E O E 1.T.R.R.R.R.R.R.R.R.R.R.R.R.R.R.R.M.*.B 5 *.n.R.R.R.R.R.R.R.R.R.R.R.R.R.T.R.R.R.R.R.R.R.R.R.*.E   E 1.R.R.R.R.R.R.R.R.R.R.R.R.R.R.R.R.M.1.Y ",
"5 *.6.m.T.R.R.R.R.R.R.R.R.R.R.R.R.R.R.R.R.R.R.R.N.m.@.E   E @.n.M.R.R.R.R.R.R.R.R.R.R.R.R.R.m.8.*.Y 5 1.6.m.Y.R.R.R.R.R.R.R.R.R.R.R.R.R.R.R.R.R.R.R.N.m.*.E   E @.m.M.R.R.R.R.R.R.R.R.R.R.R.R.R.M.n.@.B ",
"5 *.2.7.N.Y.R.R.R.R.R.R.R.R.R.R.R.R.R.R.R.R.T.T.m.7.,.E   I 1.n.n.Y.R.R.R.R.R.R.R.R.R.R.R.T.n.6.*.B 5 1.2.7.N.Y.R.R.R.R.R.R.R.R.R.R.R.R.R.R.R.R.R.Y.m.7.*.E   E 1.8.n.Y.T.R.R.R.R.R.R.R.R.R.R.Y.n.6.,.B ",
"5 *.*.*.7.n.R.T.R.R.T.R.R.T.$Xt.t.t.t.t.t.t.t.t.t.t.t.t.t.t.t.U.2.8.N.R.T.T.R.T.T.R.R.R.M.8.1.*.@.B 5 1.*.*.7.n.R.R.T.R.R.R.R.R.R.R.R.R.R.R.R.R.N.8.4.*.*.E   E @.1.1.8.N.R.R.R.R.R.R.R.R.R.M.8.1.*.1.M ",
"5 *.*.*.2.7.m.m.m.M.m.m.M.m.$X. & a s s p p p p p p p s p * . u.F.g.8.M.m.m.M.m.M.m.m.m.7.6.1.*.1.B 5 1.*.*.2.6.m.M.m.m.m.M.m.m.m.m.m.m.m.m.m.m.n.5.2.*.*.E   E 1.1.1.6.8.m.m.m.m.M.m.m.m.m.7.5.1.*.1.B ",
"5 *.*.*.*.*.*.*.*.*.*.*.*.*.$X. F &.&.&.&.&.&.&.&.&.&.&.%.^ & . i.D.2.@.*.*.*.1.*.*.*.*.*.*.*.*.1.Y 5 1.*.*.*.*.*.*.*.*.*.*.*.*.*.*.*.*.1.*.*.*.*.*.*.*.*.E   E *.*.1.*.*.*.*.*.*.*.*.*.*.*.*.*.*.*.1.B ",
"+ ] O.*.*.*.*.*.*.*.*.*.*.1.$X. { %.&.&.&.&.&.&.&.&.&.&.=.o.k . . @X4.1.*.*.*.1.*.*.*.*.*.*.*.@.( b 5 ( O.*.*.*.*.*.*.*.*.*.*.*.*.*.*.*.*.*.*.*.*.*.*.1.] m   N ] *.*.*.*.*.*.*.*.*.*.*.*.*.*.*.1.@.( b ",
"5 ( O.@.*.*.*.*.1.1.@.1.*.*..Xu j { %.&.&.&.&.&.&.&.&.%.| } f . . @X4.1.1.*.@.1.*.*.*.*.*.*.*.@.( v 5 ( O.*.*.*.*.*.*.*.*.@.1.1.*.*.*.*.*.*.*.*.*.*.*.*.( m   m ( *.*.*.*.*.*.*.*.*.*.*.*.*.*.*.*.@.( v ",
"O                           O #Xu j o.=.&.&.&.&.&.%.O.{ h h . . . @Xe     O                     O                       O                                                                               ",
"                            O O #X3 P &.&.&.&.&.%.{ f X . . . . . @Xe                                                                                                                                   ",
"                                @X$ [ &.&.&.&.&.| d % f . . . . . @Xe O                                                                                                                                 ",
"2 n c c c c c c c c c 2 > O ; $X$ h o.&.&.&.&.&.H * f . . . . . . @Xe           O ; 2 c c c c g n v 1 c g g c c c c g n c 1 >   ; 1 g c c c n c p 1 @ O                             O < - c c g c c c p ",
"a C C C C C C C C C V a ;   $X. h %.&.&.&.&.&.&.H p P . . . . . . @X$X$X$X$X$X$X$X$X$X$X$X$X$X$X$X$X$X$X$X$X$X$X$X$X$X$X$X$X$X$X$X$X$X$X$X$X$X#.A a @                                 2 g C C C C C C g ",
"O                           $X. { =.&.&.&.&.&.&.T p -.~ . . . . . 3 $ 3 3 3 $ 3 3 3 3 3 $ 3 $ 3 3 3 @ $ 3 3 $ > $ @ 3 $ 3 3 3 3 @ 3 3 $ $ 3 3 }.9.  O               O       O       O             O     ",
", , > @ O O @ > $ , = 8 = > $X. k O.&.&.&.&.&.} d s f.L.H.F.F.F. XH.^..X XP.^./. XXXXXXXXXXX/./. XF.F.H.F. XXX XH.I. X XXXXXXXXX.X X XF.F.k.X.1 u.0., , , , , > @   O $ > > , , , , > , > @ O   @ $ , , ",
"C C g s @ O a g Z C C C C C $X. % : : : < 1 < & o p f.L.(.(.(.(.H.F.H._._.K.H.H.). X_._._._._._._.L.(.(.(._. X_.(.)._._. X_. X_._._._.(.(.L.l. .R y.s.h C C C g a   @ a g C C C C C C C V a $   2 g C C ",
"_ _ K C + + S K _ P P _ _ P $X}.}.}.}.}.{.}.}.}.t.p -.).(.(.(.).    6 (.!.d.    R ).(.(.(.(.(.(.(.(.(.(.(.(.(.(.(.(.(.(.!.!.(.(.(.(.!.!.(.).L.3.s A.P./ _ P P K S   $ S K _ _ _ P _ P _ L G 8   A G P _ ",
"+.+._ / 7 # _ _ +.+.+.+.+.+.c.c.p.w.q.s.p.c.D.oXi.v 3.(.(.(.d.t l l T r t Y F [ W t (.(.L.B.f.f.G.V.f.f.V.L.L.(.J.B.f.j.C.B.f.h.V.(.(.(.(.(.(.3.s i.P.+.+.+.+._ L   $ L ..+.+.+.+.+.+.+.' L 8   H _ +.+.",
"+.+.L C $ + h / +.+.+.+.+.+.+.` C v   g C +.+.H.i.v 3.(.(.(.w.  x x k ; , p ) $.T   (.(.J.-.&.&.-.3.&.&.3.J.(.(.j.=.&.&.-.3.&.&.f.(.(.(.(.(.(.3.p i.P.+.+.+.+.K C   $ C _ +.+.+.+.+.+.+._ C , O V D +.+.",
"B B b i + O v b B B B B B B B N v ,   , v B B A.u.p 3.!.(.(.w.  k z ) ) ) ) ) ) A   !.(.C.&.&.&.&.&.&.&.&.C.(.(.f.&.&.&.&.&.&.&.-.(.(.(.(.(.(.3.v i.A.B B B B b v   + i b B B B N B B B N v 5 O 9 v N B ",
"      O O O O         O     O   O     O     O r.u.p 3.(.(.(.w.O x z ) ) ) ) ) ) V 4 (.(.C.&.&.&.&.&.&.&.&.G.(.(.f.&.&.&.&.&.&.&.-.(.(.(.(.(.(.3.p i.r.  O     O     O O       O               O O O   O ",
"v B B B B B B B B B N v >   = v B B B B B B N Z.i.p 3.(.(.(.c.0.a k x ) ) ) ) j b R (.(.J.3.&.&.&.&.&.&.3.J.(.(.j.-.&.&.&.&.&.&.f.(.(.(.(.(.(.3.p u.r.  v v B B B B B B B B B N i $ O - v B B B B B B b ",
"Z +.+.+.+.+.+.+.+.' ' C v O c G +.+.+.+.+.+.P Z.i.v 3.(.(.(.(.(.  a x ) ) ) ) @ R J.(.(.L.V.3.&.&.&.&.3.B.L.(.(.J.j.=.&.&.&.=.3.C.(.(.(.(.(.(.3.p u.r.  C L +...+.+.+.+.+.+.+._ C ,   j D +.+.+.+.+.+.P ",
"+.+.+.+.+.+.+.+.+.+.+.+.B O I +.+.+.+.+.+.+.+.P.i.s 3.L.L.).(.(.).R @ x x l   p.J.(.(.(.!.!.B.3.&.&.3.B.(.(.(.(.(.J.h.-.&.=.f.C.(.(.(.(.(.(.(.3.p u.{.q.c.c.c.c.c.c.c.c.+.+.+.+.+.q O Q +.+.+.+.+.+.+.+.",
"_ +.+.+.+.+.+.+.+.+.+._ N   J _ +.+.+.+.+.+.+.D.i.s %.l.J.).(.(.L.d.w.1 1 U ~ G.(.(.(.(.(.!.L.B.3.3.B.!.(.(.(.(.(.!.J.j.3.f.C.(.(.(.(.(.(.(.L.3.p t.}.}.}.}.}.}.}.}.}.$X+.+.+.+._ 9   I ..+.+.+.+.+.+.' ",
"Z +.+.+.+.+.+.+.+.+.' C v   c C +.+.+.+.+.+._ s.y.Y A %.h.G.G.G.G.G.k.# @ y G.G.C.C.C.C.C.C.C.C.C.C.C.C.C.C.C.C.G.C.C.C.C.C.C.C.C.C.G.G.G.G.j.=.p o & < < < < < = % . $X+.+.+._ C ,   m D +.+.+.+.+.+./ ",
"8 q q q q q q q q q 0 8 $   $ = 0 0 q q q q 0 = 0.i.; k X.X.o.X.X.X.X.X.X.X.X.X.X.X.X.X.X.X.X.X.X.X.X.X.X.X.X.X.X.X.X.X.X.X.X.O.X.X.X.X.X.X.%.&.p g ( &.&.&.&.&.%.k . $Xq q q q , +   $ 8 0 q 0 q q q 9 ",
"  O   O                               O         O 9.}.$ 3 3 3 $ 3 3 3 3 3 3 3 3 $ 3 3 3 3 3 @ 3 3 3 3 3 $ 3 3 3 3 3 3 3 3 3 3 3 ; . . . . . d o.s T &.&.&.&.&.&.&.{ . $X                              O ",
"+..._ L 7 + C P +.+.+.+.+.+.+...C i   m L +.+.+.+.+.p.$X$X$X$X$X$X$X$X$X$X$X$X$X$X$X$X$X$X$X$X$X$X$X$X$X$X$X$X$X$X$X$X$X$X$X$X$X@X. . . . . . P p T &.&.&.&.&.&.%.h . $X_ +.+.+.+.+.+.+.` C 8   G / +.+.",
"+.' _ L $ + D _ +.+.+.+.+.+.+...D b   m L ' ..+.+.+.+.+...P D O $ D ` +.+.+.+.+.+.+.' G 8   G / ....+..._ D > + D _ +.+.+.+.+.,.@X. . . . . . f * T &.&.&.&.&.o.h 3 $XD ..+.+.+.+.+.+.+.` D 8   G L ' ..",
"' L Z C $ # +.+.+.+.+.+.+.+.+.+.+.B   c C L _ +.+.+.+.' L D C   7 +.+.+.+.+.+.+.+.+.+.+.q   m C / _ ..L D C $ # +.+.+.+.+.+.+.,.@X. . . . . f % d | &.&.&.&.&.[ 3 @X7 +...+.+.+.+.+.+.+.+.+.q   V Z L _ ",
"q 8 8 , + + L _ +.+.+.+.+.+.+...K b   $ , 8 9 q q q q 0 8 8 >   6 K ` +.+.+.+.+.+.+.' L 8   > , = 0 0 8 , , + + P P +.+.+.+.+.,.@X. . . . . X f { %.&.&.&.&.&.[ 3 #X$ K ..+.+.+.+.+.+.+...K 8   7 , 8 9 ",
"O         O C P +.+.+.+.+...+...C i         O                   $ C P +.+.+.+.+.+.+._ C ,         O       O   + C P +.+.+.+.+.,.@X. . h h { X.O.%.&.&.&.&.&.&.o.f u #XC P +.+.+.+.+.+.+._ C ,         O ",
"            + O 5 5 5 5 5 5 + # + O                               O + 5 5 + 5 5 + 5 5 + O                       + 5 5 5 + 5 5 r @X. j o.o.&.&.&.&.&.&.&.&.&.&.%.X.j u |.+ 5 + 5 5 + 5 + 5 O O           ",
"                            O                                     O                                                           e @X. k &.&.&.&.&.&.&.&.&.&.&.&.&.%.{ . $X                  O             ",
"                                                                                                                              4 0.i.& ^ &.&.&.&.&.&.&.&.&.&.&.&.%.F . $X                                ",
"                                                                                                                                4 q.i.* p p p p p p p p p p i i p & . $X                                ",
"                                                                                                                                    r.t.t.t.t.t.t.t.t.t.t.t.t.t.t.t.t.$X                                ",
"                                                                                                                                                                                                        ",
"                                                                                                                                                                                                        ",
"                                                                                                                                                                                                        ",
"                                                                                                                                                                                                        ",
"                                                                                                                                                                                                        ",
"                                                                                                                                                                                                        ",
"                                                                                                                                                                                                        "
};
