/* XPM */
static char *wall_01730129773[] = {
/* columns rows colors chars-per-pixel */
"50 50 131 2 ",
"   c #3F3851",
".  c #483752",
"X  c #453952",
"o  c #4C3A51",
"O  c #563755",
"+  c #5C3755",
"@  c #513B53",
"#  c #5B3C51",
"$  c #643757",
"%  c #683757",
"&  c #643C52",
"*  c #693C50",
"=  c #6D3658",
"-  c #763A55",
";  c #7E3956",
":  c #763659",
">  c #664554",
",  c #6E4252",
"<  c #604B5A",
"1  c #684A58",
"2  c #764352",
"3  c #724A56",
"4  c #784955",
"5  c #744E58",
"6  c #7A4D58",
"7  c #6B545D",
"8  c #7C535B",
"9  c #75595F",
"0  c #7E595F",
"q  c #6E5C62",
"w  c #843F4F",
"e  c #823D53",
"r  c #8E3A57",
"t  c #81365A",
"y  c #8A365C",
"u  c #853859",
"i  c #943B56",
"p  c #9D3D55",
"a  c #923958",
"s  c #A23D55",
"d  c #93424E",
"f  c #9A4450",
"g  c #924953",
"h  c #9D4D53",
"j  c #9C5056",
"k  c #9F5459",
"l  c #A0434F",
"z  c #AE444E",
"x  c #A5494F",
"c  c #B3494F",
"v  c #A94250",
"b  c #A44D53",
"n  c #AD4F53",
"m  c #B44D51",
"M  c #AF5352",
"N  c #B65053",
"B  c #BD5654",
"V  c #B05658",
"C  c #B15B5A",
"Z  c #A9645E",
"A  c #B7635C",
"S  c #B9665E",
"D  c #826464",
"F  c #866E6B",
"G  c #A46463",
"H  c #B96D65",
"J  c #C05355",
"K  c #C25C57",
"L  c #D25654",
"P  c #D45B57",
"I  c #C4625A",
"U  c #C96A5E",
"Y  c #D6615A",
"T  c #D8655D",
"R  c #CA6D62",
"E  c #DC6F64",
"W  c #CD7363",
"Q  c #CE7669",
"!  c #C57A69",
"~  c #D27665",
"^  c #DE7467",
"/  c #DF7768",
"(  c #D07E6E",
")  c #E27F6D",
"_  c #D1816F",
"`  c #DA836D",
"'  c #C18773",
"]  c #D28571",
"[  c #DD8B72",
"{  c #D79579",
"}  c #DA9D7E",
"|  c #E3826F",
" . c #E48671",
".. c #E68A73",
"X. c #E79076",
"o. c #E89177",
"O. c #E99578",
"+. c #EB9A7C",
"@. c #EDA27F",
"#. c #DCA181",
"$. c #DFAB87",
"%. c #EEA582",
"&. c #EFA883",
"*. c #F0AC85",
"=. c #E1B089",
"-. c #E3B88E",
";. c #F3B389",
":. c #F5BB8E",
">. c #E4BC93",
",. c #E4C096",
"<. c #E4C49B",
"1. c #F7C091",
"2. c #F8C393",
"3. c #FBCA97",
"4. c #FCD19E",
"5. c #E7D3AA",
"6. c #FCD5A3",
"7. c #FDDAA7",
"8. c #FEDEAB",
"9. c #E7D8B4",
"0. c #E7DDBE",
"q. c #FEE2AF",
"w. c #FEE4B5",
"e. c #FFEAB7",
"r. c #FEE7BC",
"t. c #FEE9BD",
"y. c #E7DFC2",
"u. c #E7E2C5",
"i. c #FEECC3",
"p. c #FFF5CB",
"a. c #FFFAD5",
/* pixels */
"{ #.-.<.5.u.0.5.5.5.-.$.{ <   Q _ { =.-.5.5.5.0.u.5.5.5.>.-.-.$.{ ( H   9 { =.>.5.5.5.0.y.5.<.-.} ' ",
"*.:.3.7.w.i.t.q.q.q.3.:.;.7   ) ..&.2.3.q.q.q.t.i.q.q.q.4.3.3.:.&...Q   D *.2.4.w.q.q.t.i.q.6.3.;.} ",
"3.3.3.3.3.3.3.3.3.3.3.3.3.q   ) +.3.3.3.3.3.3.3.3.3.3.3.3.3.3.3.3.o.Q   F 3.3.3.3.3.3.3.3.3.3.3.3.-.",
"3.3.3.3.3.3.3.3.3.3.3.3.3.q   ) @.3.3.3.3.3.3.3.3.3.3.3.3.3.3.3.3.o.Q   F 3.3.3.3.3.3.3.3.3.3.3.3.-.",
"3.3.3.3.3.3.3.3.3.3.3.3.3.q   ) +.3.3.3.3.3.3.3.3.3.3.3.3.3.3.3.3.o.Q   F 3.3.3.3.3.3.3.3.3.3.3.3.-.",
"3.3.3.3.3.3.3.3.3.3.3.3.3.7   ) X.&.2.3.3.3.3.3.3.3.3.3.3.3.3.:.&...Q   F 3.3.3.3.3.3.3.3.3.3.3.3.-.",
"1.2.3.3.3.3.3.3.3.3.3.2.2.q   )  .O.;.2.3.3.3.3.3.3.3.3.3.3.2.;.O. .Q   F :.3.3.3.3.3.3.3.3.3.3.2.$.",
"@.;.3.3.3.3.3.3.3.3.3.:.@.7   ) | | +.@.3.3.3.3.3.3.3.3.3.2.@.O.) ) Q   D %.:.3.3.3.3.3.3.3.3.3.*.{ ",
"..@.;.2.3.3.3.3.3.3.:.&.X.1   | ) ) ....%.%.%.%.%.%.%.%.%.%.....) ) Q   0 X.*.:.3.3.3.3.3.3.2.;.+.] ",
"| ..@.:.3.3.3.3.3.3.@.O.) 1   | ) | | ) ) ) ) ) ) ) ) ) ) ) ) ) ) ) Q   8 ) O.&.3.3.3.3.3.3.;.@. .Q ",
") ) |  . . . . . . .| | | 1   P E / ) ) ) ) ) ) ) ) ) | ) ) ) ) ) T K   8 )  . ... . . . ... .| | Q ",
"^ ) ) | ) ) | ) | ) ) ) ^ >   M C H H H H H H H H H H H H H H H H M h   6 ^ / ) | | ) ) | | ) ) / W ",
"L Y ) ) ) ) ) ) | ) ) E L &                                             2 L ^ | ) ) ) ) ) ) ) ) P B ",
"2 4 8 8 8 8 8 8 8 8 8 6 2 @                                             @ 2 6 8 8 8 8 8 8 8 8 8 4 , ",
"X                                             X           X                                   X   X ",
"Q Q Q Q Q Q Q Q Q Q B d         O ; r a f p a t :   O ; r i f p a u :       b J Q Q Q Q Q Q Q Q H Z ",
" . .o.o.o. . .) ) ) Y h         + y p s z v s a u   + r p s z v s a u       V T | ) ) |  .o.o.o.` ! ",
"%.;.3.3.3.@.o.| ) ) ) G         $ p v v z z z s a   $ p v z z z z s i       H | ` ) ) +.*.3.3.3.&.{ ",
":.:.3.3.3.:.*.O.| ) ) G         o $ * * * * * & #   o $ & * * * * $ +       H / |  .O.;.:.3.3.3.2.$.",
"3.3.3.3.3.3.:.@. .) ) G               X                 X                   H | | o.@.:.3.3.3.3.3.-.",
"3.3.3.3.3.3.:.@. .) ) G             : ; f v M A S H A M l f t %             H ) ) X.@.:.3.3.3.3.3.-.",
"7.6.3.3.3.3.:.*...| ) G             ; a z m I R W W U K c v a -             H ) ) O.*.2.3.3.3.3.6.<.",
"a.r.3.3.3.3.3.3.o.| ) G             d z z B W W W W W W m z z w             H ) ) %.3.3.3.3.3.3.i.u.",
"i.w.3.3.3.3.3.3.o.) ) G             ; i z N I R W W R I m z i -             H ) ) %.3.3.3.3.3.3.e.9.",
"t.8.3.3.3.3.3.3.o.| ) G             - e z m B W W W U B c z u =             H ) / %.3.3.3.3.3.3.w.5.",
"4.3.3.3.3.3.3.3.X.) ) G             . o o o o @ @ @ @ @ o o o X             H ) | %.3.3.3.3.3.3.3.>.",
"4.4.3.3.3.3.3.3.o.| ) G       @ O # # # # # # # #   X # # # # # # @ @       H ) ` %.3.3.3.3.3.3.3.,.",
"e.8.3.3.3.3.3.3.X.) ) G       y i z z z z m B c x   , B c z z z z a t       H ) ) %.3.3.3.3.3.3.w.5.",
"6.4.3.3.3.3.1.;...| | G       p s z z z z N U I C   3 U c z z z z s i       H ) ) O.;.2.3.3.3.3.4.,.",
"3.3.3.3.3.3.:.@.| ) ) G       z z z z z z B W W S   5 W N z z z z z l       H ) ) X.%.2.3.3.3.3.3.-.",
"3.3.3.3.3.3.:.@. .| ) G       y i z z z z c B x x   , B c z z z z a t       H ) ) o.@.:.3.3.3.3.3.-.",
"1.2.3.3.3.1.;.O.| ) ) Z       - w d i d d h h d d   > j d d d d d ; =       H ) | ..O.:.2.3.3.3.2.=.",
"@.;.3.3.3.@.O.| ) ) ) G                                                     H / ) ) ) O.&.3.3.3.*.{ ",
"..O.+.O.+. . .| ) ) T k             $ = w e w w w w w w d e $ O             C E ) ) |  .X.+.+.+.[ ! ",
") ) | | ) ) ) ) ) ) L h             : y z z z z z z z z z v y %             n P ) ) ) ) ) )  .) ~ H ",
"                                        X                                                           ",
"& > 1 1 1 1 1 1 1 1 1 > & X                                             X > > 1 1 1 1 1 1 1 1 1 > & ",
"L T ) ) ) ) ) ) ) ) ) ^ L &                                             2 L ^ ) ) ) ) ) ) ) ) ) P B ",
"E ^ ) ) ) ) ) ) ) ) ) / ^ >   h k G G G G G G G G G G G G G G G G j g   6 E / ) ) ) ) ) ) ) ) ) ^ R ",
") ) ) ) ) ) ) ) ) ) ) ) ) 1   L T ) ) ) ) ) ) ) ) ) ) ) ) ) ) ) ) P J X 8 ) ) ) ) ) ) ) ) ) ) ) | Q ",
"| ..@.:.3.3.3.3.3.3.@.O.| 1   | ) ) ) ) ) ) ) ) ) ) ) ) ) ) ) ) ) ) Q   8 ) O.&.3.3.3.3.3.3.;.%. .Q ",
" .O.&.2.3.3.3.3.3.3.&.+. .1   | ) )  . .o.o.o.o.o.o.o.o.X.X. . .) ) Q   8  .%.;.3.3.3.3.3.3.:.&.X._ ",
"@.;.3.3.3.3.3.3.3.3.3.:.@.7   | ) ) O.%.3.3.3.3.3.3.3.3.3.2.@.O.) ) Q   D %.2.3.3.3.3.3.3.3.3.3.&.{ ",
":.1.3.3.3.3.3.3.3.3.3.2.:.7   )  .O.;.:.3.3.3.3.3.3.3.3.3.3.:.*.O. .Q   D :.2.3.3.3.3.3.3.3.3.3.2.$.",
"3.3.3.3.3.3.3.3.3.3.3.3.3.q   | ..%.2.3.3.3.3.3.3.3.3.3.3.3.3.:.%. .Q X F 3.3.3.3.3.3.3.3.3.3.3.3.-.",
"3.3.3.3.3.3.3.3.3.3.3.3.3.7   | +.3.3.3.3.3.3.3.3.3.3.3.3.3.3.3.2.O.Q   F 3.3.3.3.3.3.3.3.3.3.3.3.-.",
"3.3.3.3.3.3.3.3.3.3.3.3.3.q   ) +.3.3.3.3.3.3.3.3.3.3.3.3.3.3.3.3.o.Q   F 3.3.3.3.3.3.3.3.3.3.3.3.-.",
"3.3.3.3.3.3.3.3.3.3.3.3.3.q   ) +.3.3.3.3.3.3.3.3.3.3.3.3.3.3.3.3.o.Q   F 3.3.3.3.3.3.3.3.3.3.3.3.>.",
";.:.3.6.8.r.w.8.8.8.3.2.*.7   ) X.;.2.3.q.6.3.7.q.t.w.8.8.7.3.2.;...Q   D ;.2.3.8.8.8.t.t.8.4.3.;.#.",
"@.;.3.8.e.a.p.e.e.e.3.:.@.7   |  .@.2.3.e.8.3.q.e.a.p.e.e.w.3.:.%. .Q   0 %.2.4.e.e.e.p.a.e.7.3.&.{ "
};
