/* XPM */
static char *digit_71730281967[] = {
/* columns rows colors chars-per-pixel */
"9 10 6 1 ",
"  c #FFC2B1",
". c #FFD0C4",
"X c #FEE3DC",
"o c #FDEEEA",
"O c #FDF2EF",
"+ c #FDFDFE",
/* pixels */
" o++++++ ",
" XooO+++ ",
"    .+++ ",
"    .+++ ",
"    .+++ ",
"    .+++ ",
"    .+++ ",
"    .+++ ",
"    .+++ ",
"    .+++ "
};
