/* XPM */
static char *digit_banner1730281967[] = {
/* columns rows colors chars-per-pixel */
"100 50 187 2 ",
"   c #3F3851",
".  c #47204A",
"X  c #4E224B",
"o  c #56234B",
"O  c #463852",
"+  c #4C3A51",
"@  c #593755",
"#  c #513B52",
"$  c #5B3C51",
"%  c #64264C",
"&  c #6B2A4E",
"*  c #73294D",
"=  c #643757",
"-  c #6D3453",
";  c #643E52",
":  c #693C50",
">  c #6D3758",
",  c #703452",
"<  c #773B57",
"1  c #773659",
"2  c #5E3B60",
"3  c #4B445C",
"4  c #654555",
"5  c #684555",
"6  c #684958",
"7  c #764352",
"8  c #784955",
"9  c #7A4D58",
"0  c #6B545D",
"q  c #7C535B",
"w  c #7A595F",
"e  c #575067",
"r  c #6E5C62",
"t  c #7A5966",
"y  c #755677",
"u  c #7F626D",
"i  c #843E56",
"p  c #81365A",
"a  c #8A365C",
"s  c #8A3958",
"d  c #913251",
"f  c #9F3351",
"g  c #943B56",
"h  c #9C3D54",
"j  c #933959",
"k  c #AE3752",
"l  c #A23D55",
"z  c #A63F5A",
"x  c #B83C55",
"c  c #93424E",
"v  c #9A4450",
"b  c #924953",
"n  c #9C4C53",
"m  c #9F5459",
"M  c #A1434F",
"N  c #AE444E",
"B  c #B34A4F",
"V  c #A94250",
"C  c #A94C53",
"Z  c #B74955",
"A  c #AF5352",
"S  c #AC535F",
"D  c #BE5553",
"F  c #B25658",
"G  c #A9645E",
"H  c #B7635C",
"J  c #8C4F6D",
"K  c #805F62",
"L  c #8E506E",
"P  c #826464",
"I  c #866E6B",
"U  c #9E6779",
"Y  c #A46463",
"T  c #AA6068",
"R  c #B96D65",
"E  c #B56E75",
"W  c #C84C5C",
"Q  c #C05355",
"!  c #C25B57",
"~  c #D25654",
"^  c #D45B57",
"/  c #C46159",
"(  c #C96A5E",
")  c #D6605A",
"_  c #D8655D",
"`  c #D9685F",
"'  c #C05D63",
"]  c #CD5B62",
"[  c #D55C63",
"{  c #D85C63",
"}  c #CB6664",
"|  c #D56667",
" . c #DE6366",
".. c #DC6F64",
"X. c #DA6B6A",
"o. c #CD7363",
"O. c #CE7669",
"+. c #C57968",
"@. c #D27665",
"#. c #DE7467",
"$. c #DF7768",
"%. c #D07E6E",
"&. c #C2717A",
"*. c #E56D6A",
"=. c #E9716C",
"-. c #E27F6D",
";. c #EC7B74",
":. c #D6826E",
">. c #C18773",
",. c #D68771",
"<. c #D79479",
"1. c #DA9D7E",
"2. c #E3826F",
"3. c #E48671",
"4. c #E68A73",
"5. c #EE847D",
"6. c #E79076",
"7. c #E89177",
"8. c #E99578",
"9. c #EB9A7C",
"0. c #EDA27F",
"q. c #7B7487",
"w. c #937B8C",
"e. c #AB7985",
"r. c #878091",
"t. c #B38992",
"y. c #A38CA3",
"u. c #AB9AA7",
"i. c #B596A6",
"p. c #BAA7BA",
"a. c #B9A8BA",
"s. c #CC878F",
"d. c #D08D92",
"f. c #C89097",
"g. c #D99796",
"h. c #E2918B",
"j. c #F5998D",
"k. c #DCA181",
"l. c #DFAB86",
"z. c #DFA59C",
"x. c #EEA582",
"c. c #E6AC86",
"v. c #F0AC85",
"b. c #E1B089",
"n. c #E3B88E",
"m. c #F3B389",
"M. c #F5BB8E",
"N. c #F9AE9F",
"B. c #E4BC93",
"V. c #C89CA5",
"C. c #DBA2A7",
"Z. c #E7ADA7",
"A. c #FDBAAA",
"S. c #E6B5B0",
"D. c #EAB7B2",
"F. c #E4C49A",
"G. c #F7C091",
"H. c #F8C393",
"J. c #FBCA97",
"K. c #FBCD9A",
"L. c #FCD19E",
"P. c #E6CAA0",
"I. c #E7D3AA",
"U. c #FCD5A3",
"Y. c #FDDAA7",
"T. c #FEDEAB",
"R. c #FFC2B1",
"E. c #F4C6BB",
"W. c #E7D8B4",
"Q. c #E7DDBE",
"!. c #FEE2AF",
"~. c #FEE5B5",
"^. c #FFEAB7",
"/. c #FEE7BC",
"(. c #FEE9BD",
"). c #CFC8D2",
"_. c #D1C2D0",
"`. c #E9CACB",
"'. c #E7DFC2",
"]. c #E7E1C5",
"[. c #FEECC2",
"{. c #FFF0C2",
"}. c #FFF5CB",
"|. c #FFF9D5",
" X c #E8DDE7",
".X c #E7E0E7",
"XX c #FFF8FD",
/* pixels */
"<.1.n.P.I.].Q.I.I.I.n.c.<.6   +.:.<.b.n.I.I.I.Q.'.I.I.I.B.B.n.c.<.%.R   r <.b.B.I.I.I.Q.'.I.F.n.1.>.<.1.n.P.I.].Q.I.I.I.n.l.<.6   O.:.<.l.B.I.I.I.Q.'.I.I.I.B.n.n.l.<.%.R   r <.b.B.I.I.I.Q.].I.F.n.1.>.",
"v.M.J.Y.~.[./.!.!.!.J.M.v.0   2.6.v.G.J.!.~.!.(.[.!.!.!.K.J.J.M.v.4.O.  P v.G.K.!.~.!.(.[.!.U.J.M.1.v.M.J.Y.!.[./.~.!.!.J.M.v.0   -.6.v.H.J.!.~.!.(.[.!.!.~.K.J.J.M.v.4.O.  P v.H.J.!.!.!.(.{.!.U.J.m.1.",
"J.J.J.J.J.J.J.J.J.J.J.J.J.r   -.9.J.J.J.J.J.J.J.J.J.J.J.J.J.J.J.J.6.O.  I J.J.J.J.J.J.J.J.J.J.J.J.n.J.J.J.J.J.J.J.J.J.J.J.J.J.r   -.9.J.J.J.J.J.J.J.J.J.J.J.J.J.J.J.J.7.O.  I J.J.J.J.J.J.J.J.J.J.J.J.n.",
"J.J.J.J.J.J.J.J.J.J.J.J.J.r   -.9.J.J.J.J.J.J.J.J.J.J.J.J.J.J.J.J.6.O.  I J.J.J.J.J.J.J.J.J.J.J.J.n.J.J.J.J.J.J.J.J.J.J.J.J.J.r   -.9.J.J.J.J.J.J.J.J.J.J.J.J.J.J.J.J.7.O.O I J.J.J.J.J.J.J.J.J.J.J.J.n.",
"J.J.J.J.J.J.J.J.J.J.J.J.J.r   -.9.J.J.J.J.J.J.J.J.J.J.J.J.J.J.J.J.6.O.  I J.J.J.J.J.J.J.J.J.J.J.J.n.J.J.J.J.J.J.J.J.J.J.J.J.J.r   -.9.J.J.J.J.J.J.J.J.J.J.J.J.J.J.J.J.8.O.  I J.J.J.J.J.J.J.J.J.J.J.J.n.",
"J.J.J.J.J.J.J.J.J.J.J.J.J.r   -.6.x.G.J.J.J.J.J.J.J.J.J.J.J.J.M.x.4.O.  I J.J.J.J.J.J.J.J.J.J.J.J.n.J.J.J.J.J.J.J.J.J.J.J.J.J.r   -.4.v.H.J.J.J.J.J.J.J.J.J.J.J.J.G.0.4.O.  I J.J.J.J.J.J.J.J.J.J.J.J.n.",
"G.G.J.J.J.J.J.J.J.J.J.J.M.r   -.4.9.M.M.J.J.J.J.J.J.J.J.J.J.G.m.8.4.O.  I G.J.J.J.J.J.J.J.J.J.J.G.c.H.H.J.J.J.J.J.J.J.J.J.J.G.r   -.4.8.m.H.J.J.J.J.J.J.J.J.J.J.G.m.8.3.O.  I H.J.J.J.J.J.J.J.J.J.J.H.b.",
"0.m.J.J.J.J.J.J.J.J.J.M.0.0   -.-.-.9.x.J.J.J.J.J.J.J.J.J.H.x.8.-.2.O.O K 0.G.J.J.J.J.J.J.J.J.H.v.<.0.v.J.J.J.J.J.J.J.J.J.M.0.0   -.2.-.8.x.J.J.J.J.J.J.J.J.J.H.0.8.-.:.O.O t 0.G.J.J.J.J.J.J.J.J.J.v.<.",
"6.0.m.H.J.J.J.J.J.J.m.v.6.6 XXy.y.y.y.y.y.y.y.y.y.y.y.y.y.y.y.E.-.-.O.  w 4.v.M.H.J.J.J.J.J.M.M.9.:.4.0.m.H.J.J.J.J.J.J.M.v.4.6   -.-.-.4.6.x.x.x.x.x.v.x.v.x.x.7.3.2.-.O.  q 6.v.M.J.J.J.J.J.J.H.m.9.:.",
"2.4.0.M.J.J.J.J.J.J.x.8.2.6 XX. & p i i i i i i i i i i p & . p.Z.3.O.  q -.9.v.J.J.J.J.J.J.M.0.3.O.2.4.0.M.J.J.J.J.J.J.0.7.2.6 O :.-.-.-.2.-.-.-.-.-.$.-.$.2.$.-.-.-.-.O.  q 2.8.v.J.J.J.J.J.J.m.0.3.O.",
"-.2.2.2.3.4.3.4.3.4.2.2.2.6 XX. Z *.=.=.=.=.=.=.=.=.=.=.=.W * . p.g.}   q 2.2.2.4.4.4.4.3.4.3.2.2.O.-.2.2.3.3.3.,.4.3.3.2.2.2.6   ^ ..$.-.-.-.-.-.-.$.3.-.-.2.2.-.2.-.) !   q 2.2.2.2.4.3.3.3.3.3.3.2.O.",
"#.#.-.2.-.2.-.-.-.-.-.$.#.6 XX. ] *.=.=.=.=.=.=.=.=.=.=.*.*.x . .  XT   q #.$.-.-.-.-.-.-.-.-.-.#.o.#.$.2.2.-.2.2.-.2.-.-.-.#.5   A F R R R R R R R R R R R R R R R R F n   9 #.-.-.-.2.-.2.2.-.3.$.#.o.",
"~ _ 2.-.-.-.-.-.2.2.$.#.~ ; ).y z [ *.=.=.=.=.=.=.=.=.*. .{ f . .  Xe   7 ~ #.-.-.-.$.2.2.:.-.-.) D ~ ) 2.2.-.2.2.2.-.2.-.` ~ 4                                 O           7 ~ #.-.2.-.-.-.2.2.:.-.^ Q ",
"7 8 q q q q q q q q q 8 7 +   .Xy l  .=.=.=.=.=.=.*.X.] k f . . .  Xe   + 7 9 q q q q q 9 K q q 8 5 7 8 q q 9 q 9 q 9 9 q 9 7 #                                             + 7 9 q q q q 9 q q K 9 8 : ",
"                    O           .X2 ' =.=.=.=.=.*.] f X . . . . .  Xe           O       O           O                       O               O                     O                               O O O ",
"O.O.O.O.O.O.O.O.O.O.D b         .X@ ' =.=.=.=.=.{ d % f . . . . .  XJ       C D O.O.O.O.o.O.O.O.R G O.O.O.O.O.O.O.O.O.O.D b         @ p s j v h j p 1   @ 1 j g v h g p , O     C D O.O.O.O.O.O.O.O.R G ",
"2.4.6.6.6.4.2.2.-.-.^ C       XX2 k  .=.=.=.=.=.S * l . . . . . .  XL       A _ -.-.-.3.3.7.7.7.:.+.2.4.8.7.7.3.3.-.-.-.) m         @ a h l N V z j a O @ a h V N l l j a       F ` -.-.-.3.4.7.6.6.:.+.",
"0.m.J.J.J.0.7.2.-.-.3.Y     XX. k *.=.=.=.=.=.=.S i ' . . . . . .  XXXXXXXXXXXXXXXXXXXXXXXXXXXXXXXXXXXXXXXXXXXXXXXXXXXXXXXXXXXXXXXXXXXXXXXXXXX&.V l j   = h k N N N N l j       R -.-.-.-.9.x.J.J.J.v.<.",
"M.G.J.J.J.M.v.8.3.-.-.Y     XX. } *.=.=.=.=.=.=.S < ;.E . . . . . 2 2 2 2 2 2 2 2 2 2 2 2 2 2 2 2 2 @ 2 2 2 2 2 2 2 2 2 2 2 2 2 2 2 2 2 2 2 2 _.w.; $   O ; ; ; : : ; ; $       R -.-.4.8.m.M.J.J.J.H.l.",
"J.J.J.J.J.J.M.0.3.-.-.Y     XX. x *.=.=.=.=.=.[ d b 5.A.Z.A.R.R.R.R.R.R.R.R.R.R.R.R.R.R.R.R.R.R.R.R.R.R.R.R.R.R.R.R.R.R.R.R.R.R.R.R.R.R.R.h.X.5 p.q.        O O   O             R -.-.6.x.M.J.J.J.J.J.n.",
"J.J.J.J.J.J.M.0.3.-.-.Y     XX. % , , , - - - & o i 5.R.R.R.R.R.R.R.R.R.R.R.R.R.R.R.R.R.R.R.R.R.R.R.R.R.R.R.R.R.R.R.R.R.R.R.R.R.R.R.R.R.R.A.j.| U i.g.R H A M v p >             R -.-.4.x.M.K.J.J.J.J.B.",
"U.U.J.J.J.J.M.v.4.-.-.Y     XX)._._._._._._._._.y.i 5.R.R.R.R.R.R.R.R.R.R.R.R.R.R.R.R.R.R.R.R.R.R.R.R.R.R.R.R.R.R.R.R.R.R.R.R.R.R.R.R.R.R.R.A.5.i p.S.o.( D B N j ,             R -.2.8.v.M.J.J.J.J.U.F.",
"|.(.J.J.J.J.J.J.7.-.$.Y     w.r.w.r.t.s.s.g.z.`.p.i h.R.R.R.R.R.R.R.R.R.R.R.R.R.R.R.R.R.R.R.R.R.R.R.R.R.R.R.R.R.R.R.R.R.R.R.R.R.R.R.R.R.R.R.R.5.i p.S.o.o.o.F N M c             R -.-.x.J.J.J.J.J.J.[.].",
"{.~.J.J.J.J.J.J.7.3.:.Y             i g N Z / S.p.s ;.R.R.R.R.R.R.R.R.R.R.R.R.R.R.R.R.R.R.R.R.R.R.R.R.R.R.R.R.R.R.R.R.R.R.R.R.R.R.R.R.R.R.R.A.5.i p.S.o.( / B N g <             R -.-.x.J.J.J.J.J.J.~.W.",
"/.T.J.J.J.J.J.J.6.2.-.G             1 a N B D z.a.7 5.R.R.R.R.R.R.R.R.R.R.R.R.R.R.R.R.R.R.R.R.R.R.R.R.R.R.R.R.R.R.R.R.R.R.R.R.R.R.R.R.R.R.R.A.h.c a.Z.o.( Q B M a >             R -.-.x.J.J.J.J.J.J.!.I.",
"L.J.J.J.J.J.J.J.7.2.$.Y             O O + + 3 u.p.c 5.R.R.R.R.R.R.R.R.R.R.R.R.R.R.R.R.R.R.R.R.R.R.R.R.R.R.R.R.R.R.R.R.R.R.R.R.R.R.R.R.R.R.R.A.h.7 a.u.+ # # + + O O   O         R -.-.x.J.J.J.J.J.J.J.B.",
"L.L.J.J.J.J.J.J.7.-.:.Y       + # $ # $ $ $ 4 u.a.i 5.R.R.R.R.R.R.R.R.R.R.R.R.R.R.R.R.R.R.R.R.R.R.R.R.R.R.R.R.R.R.R.R.R.R.R.R.R.R.R.R.R.R.R.R.;.i p.u.  O 4 $ $ $ # $ # +       R -.-.x.J.J.J.J.J.J.L.F.",
"^.T.J.J.J.J.J.J.7.-.2.Y       a g N N N N B D C.a.i 5.R.R.R.R.R.R.R.R.R.R.R.R.R.R.R.R.R.R.R.R.R.R.R.R.R.R.R.R.R.R.R.R.R.R.R.R.R.R.R.R.R.R.R.R.h.i p.V.O 5 D B N N N N j p       R -.-.x.J.J.J.J.J.J.!.I.",
"U.L.J.J.J.J.G.m.6.-.-.Y O O   h l N N N N B ( Z.p.i h.N.A.R.R.R.R.R.R.R.R.R.R.R.R.R.R.R.R.R.R.R.R.R.R.R.R.R.R.R.R.R.R.R.R.R.R.R.R.R.R.R.R.R.A.5.i p.`.w.t.g.f.s.s.s.s.s.g       R -.-.9.m.H.J.J.J.J.L.F.",
"J.J.J.J.J.J.M.0.3.-.-.Y       N N N N N N D o.S.p.i *.j.A.R.R.R.R.R.R.R.R.R.R.R.R.R.R.R.R.R.R.R.R.R.R.R.R.R.R.R.R.R.R.R.R.R.R.R.R.R.R.R.R.R.A.5.i y._.)._._._._._._._.XXM       R -.-.7.0.H.J.J.J.J.J.n.",
"J.J.J.J.J.J.M.0.3.-.-.Y       a h N N N N B D d.i.L k *.j.R.R.R.R.R.R.R.R.R.R.R.R.R.R.R.R.R.R.R.R.R.R.R.R.R.R.R.R.R.R.R.R.R.R.R.R.R.R.A.R.A.j.;.i o % > , , - - - % . XXp       R -.:.6.0.H.J.J.J.J.J.n.",
"H.H.J.J.J.G.m.8.3.-.-.Y       1 i g c c c b n v e.p.> Z | | | | | | | | | | | | | | | | | | | | | | | | | | | | | | | | | | | | | | | | | | *.=.i d [ =.=.=.=.=.*.k . XX>       R -.-.4.9.m.H.J.J.J.G.l.",
"0.m.J.J.J.0.8.-.-.-.2.Y                           q._.2 2 2 2 @ 2 2 2 2 2 2 2 2 @ 2 2 2 2 2 2 2 2 2 2 2 @ 2 2 2 2 2 2 2 2 2 2 2 2 . . . . . d { s S =.=.=.=.=.=.=.[ . XX        R 2.-.-.-.8.x.J.J.J.v.<.",
"4.7.9.9.9.4.2.-.-.-._ m             = - < c < c 7 b U XXXXXXXXXXXXXXXXXXXXXXXXXXXXXXXXXXXXXXXXXXXXXXXXXXXXXXXXXXXXXXXXXXXXXXXXXX X. . . . . . ' i S =.=.=.=.=.=.*.k . XX        F ` -.-.2.4.4.9.9.9.,.+.",
"-.-.-.-.2.2.-.-.-.-.~ n             < s N N N N N N N N V V a >             C ^ -.-.-.-.2.2.-.-.@.R -.-.-.-.-.-.2.-.-.-.~ n   e  X. . . . . . f * S =.=.=.=.=. .k 2 XX          C ^ -.-.-.$.2.2.2.2.@.R ",
"                                                          O                   O                                               e  X. . . . . l % d { =.=.=.=.=.' 2  X                    O         O     ",
"; 4 6 6 6 6 6 6 6 6 6 4 ; O                                             O 4 4 6 6 6 5 6 6 6 6 6 4 ; 4 4 4 6 6 6 6 6 6 6 6 4 ; e  X. . . . . X l ] *.=.=.=.=.=.' 2 .X        O ; 4 5 6 6 6 6 6 6 6 6 4 ; ",
"~ _ -.-.-.-.-.-.-.-.-.#.~ ;                                             7 ~ #.-.-.-.-.-.-.-.-.-.^ D ~ _ 2.$.-.-.-.-.-.-.-...~ K  X. . k k [ | X.*.=.=.=.=.=.=. .f y .X      7 ~ #.-.-.-.-.-.-.-.-.-.^ D ",
"..#.-.-.-.-.-.-.-.-.-.$...4   n m Y Y Y Y Y Y Y Y Y Y Y Y Y Y Y Y n b   9 ..$.2.-.-.-.-.-.-.-.-.*.( #.#.2.-.-.-.-.-.-.-.-.-.X.K  X. f  . .*.=.=.=.=.=.=.=.=.=.*.[ V y ).b   9 #.-.-.-.-.-.-.-.-.-.-.#.} ",
"-.-.-.-.-.-.-.-.-.-.-.-.-.6   ~ _ -.-.-.-.-.-.-.-.-.-.-.-.-.-.-.3.^ D   q -.-.-.-.-.-.-.-.-.-.-.2.O.$.2.-.-.-.-.-.-.-.-.-.-.-.P  X. x =.=.=.=.=.=.=.=.=.=.=.=.=.*.] . XXD   q $.-.-.-.-.-.-.2.2.-.-.2.O.",
"-.4.0.M.J.J.J.J.J.J.x.8.2.6   -.-.-.2.2.-.-.-.-.-.-.-.-.-.-.-.-.-.-.O.O q 2.8.0.J.J.J.J.J.J.M.0.4.O.-.4.x.M.J.J.J.J.J.J.x.7.-.t w.a.& W =.=.=.=.=.=.=.=.=.=.*.*.=.W . XXO.  q 2.8.v.J.J.J.J.J.J.m.0.3.O.",
"3.8.v.H.J.J.J.J.J.J.v.9.3.6   -.-.-.3.2.6.6.6.6.7.7.7.7.7.7.4.2.-.-.O.  q 3.0.M.J.J.J.J.J.J.M.v.6.%.3.8.v.M.J.J.J.J.J.J.x.x.3.6 3 Z.p.* p i i i i i i i i < b c < & . XXO.  q 3.0.m.J.J.J.J.J.J.M.v.6.:.",
"x.m.J.J.J.J.J.J.J.J.J.M.0.0   2.-.-.8.0.J.J.J.J.J.J.J.J.J.H.0.8.2.$.O.  t 0.H.J.J.J.J.J.J.J.J.J.v.<.x.m.J.J.J.J.J.J.J.J.J.M.x.6   -.D.y.y.y.y.y.y.y.y.y.y.y.y.y.y.y.y.XXO.  t x.M.J.J.J.J.J.J.J.J.J.v.<.",
"M.M.J.J.J.J.J.J.J.J.J.H.M.0   2.4.8.m.M.J.J.J.J.J.J.J.J.J.H.M.m.8.3.O.  I M.H.J.J.J.J.J.J.J.J.J.M.l.M.M.J.J.J.J.J.J.J.J.J.H.M.r   -.3.6.m.M.J.J.J.J.J.J.J.J.J.J.M.v.7.:.O.  I M.H.J.J.J.J.J.J.J.J.J.G.l.",
"J.J.J.J.J.J.J.J.J.J.J.J.J.r   -.4.0.H.J.J.J.J.J.J.J.J.J.J.J.J.M.x.3.O.  I J.J.J.J.J.J.J.J.J.J.J.K.n.J.J.J.J.J.J.J.J.J.J.J.J.J.r   -.4.x.H.J.J.J.J.J.J.J.J.J.J.J.J.M.x.4.O.O I J.J.J.J.J.J.J.J.J.J.J.J.n.",
"J.J.J.J.J.J.J.J.J.J.J.J.J.r   -.9.J.J.J.J.J.J.J.J.J.J.J.J.J.J.J.J.6.O.  I J.J.J.J.J.J.J.J.J.J.J.K.n.J.J.J.J.J.J.J.J.J.J.J.J.J.r   -.x.J.J.J.J.J.J.J.J.J.J.J.J.J.J.J.J.7.O.  I J.J.J.J.J.J.J.J.J.J.J.J.n.",
"J.J.J.J.J.J.J.J.J.J.J.J.J.r   -.9.J.J.J.J.J.J.J.J.J.J.J.J.J.J.J.J.7.O.  I J.J.J.J.J.J.J.J.J.J.J.J.n.J.J.J.J.J.J.J.J.J.J.J.J.J.r   -.9.J.J.J.J.J.J.J.J.J.J.J.J.J.J.J.J.7.O.  I J.J.J.J.J.J.J.J.J.J.J.J.n.",
"J.J.J.J.J.J.J.J.J.J.J.J.J.r   2.9.J.J.J.J.J.J.J.J.J.J.J.J.J.J.J.J.7.O.  I J.J.J.J.J.J.J.J.J.J.J.J.n.J.J.J.J.J.J.J.J.J.J.J.J.J.r   $.x.J.J.J.J.J.J.J.J.J.J.J.J.J.J.J.J.7.O.  I J.J.J.J.J.J.J.J.J.J.J.J.n.",
"m.M.J.U.T.(.~.T.T.T.J.M.m.0   -.7.m.H.J.!.L.J.U.!.(.~.!.T.T.J.G.m.6.O.  u m.J.J.T.T.T././.T.U.J.m.k.m.M.J.U.T.(.~.T.T.T.J.M.m.r   2.7.m.H.J.Y.U.J.Y.!./.~.!.T.Y.J.G.m.4.O.  u m.H.K.T.T.T./.^.!.L.J.m.k.",
"0.v.J.!.^.|.}.^.^.^.J.M.x.0   -.4.0.G.J.^.!.J.!.^.|.}.^.^.!.J.M.0.3.O.  w x.G.J.^.^.^.}.|.^.Y.J.v.<.x.m.J.T./.|.}.^.^.^.J.M.9.0   2.3.0.G.J.^.!.J.!.^.|.}.^.^.~.J.M.0.4.O.  w x.H.J.^.^.^.}.|.^.Y.J.v.<."
};
