/* XPM */
static char *digit_91730281966[] = {
/* columns rows colors chars-per-pixel */
"9 10 6 1 ",
"  c #FFC2B1",
". c #FEE7E1",
"X c #FDEEEA",
"o c #FDF5F4",
"O c #FDF9F9",
"+ c #FDFDFE",
/* pixels */
" +++++++ ",
" +OXo+++ ",
" +. .+++ ",
" +. .+++ ",
" +. .+++ ",
" +++++++ ",
" XXXo+++ ",
"    .+++ ",
" ...o+++ ",
" +++++++ "
};
