/* XPM */
static char *item_banner1730298586[] = {
/* columns rows colors chars-per-pixel */
"100 50 212 2 ",
"   c #1F2231",
".  c #323437",
"X  c #3D4332",
"o  c #494A35",
"O  c #594C3D",
"+  c #6C6A3A",
"@  c #323046",
"#  c #3F3851",
"$  c #47204A",
"%  c #4E224B",
"&  c #56234B",
"*  c #463852",
"=  c #4C3A51",
"-  c #513B52",
";  c #5B3C51",
":  c #593857",
">  c #68284D",
",  c #73294D",
"<  c #6D3453",
"1  c #643E52",
"2  c #6A3954",
"3  c #703452",
"4  c #773858",
"5  c #5E3B60",
"6  c #58534D",
"7  c #484354",
"8  c #524750",
"9  c #6B5245",
"0  c #654555",
"q  c #684555",
"w  c #684958",
"e  c #764352",
"r  c #784955",
"t  c #7A4D58",
"y  c #66555B",
"u  c #6B545D",
"i  c #6D5A5E",
"p  c #7C535B",
"a  c #7A595F",
"s  c #706B51",
"d  c #575067",
"f  c #605166",
"g  c #6E5C62",
"h  c #765A64",
"j  c #755677",
"k  c #7C6369",
"l  c #6C6E70",
"z  c #843F4F",
"x  c #843E56",
"c  c #81365A",
"v  c #8A365C",
"b  c #8A3958",
"n  c #9F3351",
"m  c #963854",
"M  c #943B56",
"N  c #AE3752",
"B  c #A23D55",
"V  c #A63F5A",
"C  c #B83C55",
"Z  c #93424E",
"A  c #984952",
"S  c #9E5358",
"D  c #A1434F",
"F  c #AE444E",
"G  c #B34A4F",
"H  c #A94250",
"J  c #A94C53",
"K  c #B74955",
"L  c #AC535F",
"P  c #BE5553",
"I  c #B3575A",
"U  c #866A48",
"Y  c #897146",
"T  c #AE645D",
"R  c #A77757",
"E  c #8C4F6D",
"W  c #805F62",
"Q  c #8E506E",
"!  c #836666",
"~  c #866E6B",
"^  c #9C7379",
"/  c #A46463",
"(  c #AA6068",
")  c #B96D65",
"_  c #B56E75",
"`  c #C84C5C",
"'  c #C05355",
"]  c #C25B57",
"[  c #D25654",
"{  c #D45B57",
"}  c #C7675C",
"|  c #D6605A",
" . c #D8655D",
".. c #D9685F",
"X. c #C05D63",
"o. c #CD5B62",
"O. c #D65C63",
"+. c #CA6564",
"@. c #D56667",
"#. c #DE6366",
"$. c #DC6F64",
"%. c #DA6B6A",
"&. c #CB7565",
"*. c #CE7669",
"=. c #DE7467",
"-. c #D6796A",
";. c #C2717A",
":. c #E56D6A",
">. c #E9716C",
",. c #E27F6D",
"<. c #EC7B74",
"1. c #85893A",
"2. c #998B44",
"3. c #B88C56",
"4. c #B2B04D",
"5. c #AE8975",
"6. c #B8BE62",
"7. c #C59C53",
"8. c #C6B949",
"9. c #CEA853",
"0. c #D4B950",
"q. c #D6826E",
"w. c #C18773",
"e. c #D68771",
"r. c #D79479",
"t. c #DA9D7E",
"y. c #E3826F",
"u. c #E48671",
"i. c #E68A73",
"p. c #EE847D",
"a. c #E79076",
"s. c #E89177",
"d. c #E99578",
"f. c #EB9A7C",
"g. c #EDA27F",
"h. c #CAC749",
"j. c #D7C54C",
"k. c #DDD24A",
"l. c #E2DE48",
"z. c #E2D955",
"x. c #E5E746",
"c. c #E9F044",
"v. c #E2E778",
"b. c #7B7487",
"n. c #937B8C",
"m. c #AB7985",
"M. c #878091",
"N. c #B68E88",
"B. c #B88E8F",
"V. c #A38CA3",
"C. c #AB9AA7",
"Z. c #B596A6",
"A. c #BAA7BA",
"S. c #B9A8BA",
"D. c #CC878F",
"F. c #C89A93",
"G. c #D09193",
"H. c #E2918B",
"J. c #F5998D",
"K. c #DCA181",
"L. c #DFAB86",
"P. c #D9A49A",
"I. c #EEA582",
"U. c #E6AC86",
"Y. c #F0AC85",
"T. c #E1B089",
"R. c #E3B88E",
"E. c #F3B389",
"W. c #F5BB8E",
"Q. c #F9AE9F",
"!. c #E4BC93",
"~. c #D29FA6",
"^. c #E7ADA7",
"/. c #F1B7A9",
"(. c #FDBAAA",
"). c #E6B5B0",
"_. c #F0BBB5",
"`. c #E4C49A",
"'. c #F7C091",
"]. c #F8C393",
"[. c #FBCA97",
"{. c #FBCD9A",
"}. c #FCD19E",
"|. c #E0E39A",
" X c #E6CAA0",
".X c #E7D3AA",
"XX c #FCD5A3",
"oX c #FDDAA7",
"OX c #FEDEAB",
"+X c #FFC2B1",
"@X c #F4C6BB",
"#X c #E7D8B4",
"$X c #E7DDBE",
"%X c #FEE2AF",
"&X c #FEE5B5",
"*X c #FFEAB7",
"=X c #FEE7BC",
"-X c #FEE9BD",
";X c #F6F8B0",
":X c #CCC7D0",
">X c #D1C2D0",
",X c #E7DFC2",
"<X c #E9D1CE",
"1X c #E7E1C5",
"2X c #FEECC2",
"3X c #FFF0C2",
"4X c #FFF5CB",
"5X c #FFF9D5",
"6X c #E8DDE7",
"7X c #E7E0E7",
"8X c #FCFDE7",
"9X c #FFF8FD",
/* pixels */
"r.t.R. X.X1X$X.X.X.XR.U.r.6 * *.-.r.T.R..X.X.X$X,X.X.X.X!.R.R.T.r.-.) # h r.T.!..X.X.X$X1X.X`.R.t.w.r.t.R.`..X1X$X.X.X.XR.U.r.6 # *.q.r.T.R..X.X.X$X,X.X.X.X!.R.R.L.r.-.) # g r.T.`..X.X.X#X1X.X`.R.t.w.",
"Y.W.[.oX&X2X=X%X%X%X[.W.Y.u # ,.a.Y.].[.&X&X%X2X2X%X%X%X{.[.[.W.Y.i.*.# h Y.].{.%X%X%X-X2X%XXX[.E.t.Y.W.[.oX%X3X-X&X%X%X[.W.I.g # ,.i.Y.'.[.%X&X%X-X2X%X%X%X}.[.[.W.Y.i.*.# ! Y.].{.%X%X%X-X3X%XXX[.E.t.",
"[.[.[.[.[.[.[.[.[.[.[.[.[.g # ,.f.[.[.[.[.[.[.[.[.[.[.[.[.[.[.[.[.d.*.# ~ [.[.[.[.[.[.[.[.[.[.[.[.R.[.[.[.[.[.[.[.[.[.[.[.[.[.g # ,.f.[.{.[.[.[.[.[.[.[.[.[.[.[.[.[.[.s.*.# ~ [.[.[.[.[.[.[.[.[.[.[.[.R.",
"[.[.[.[.[.[.[.[.[.[.[.[.[.g # ,.K.[.[.[.[.[.[.[.[.[.[.[.[.[.[.[.[.d.*.# ~ [.[.[.[.[.[.[.[.[.[.[.[.R.[.[.[.[.[.[.[.[.[.[.[.[.[.g # y.f.[.[.[.[.[.[.[.[.[.[.[.[.[.[.[.[.s.*.# ~ [.[.[.[.[.[.[.[.[.[.[.[.R.",
"[.[.[.[.[.[.[.[.[.[.[.[.[.g # ,.f.[.[.[.[.[.[.[.[.[.[.[.[.[.[.[.{.i.*.# ~ [.[.[.[.[.[.[.[.[.[.[.[.R.[.[.[.[.[.[.[.[.[.[.[.[.[.g # ,.f.[.[.[.[.[.[.[.[.[.[.[.[.[.[.[.[.d.*.# ~ [.[.[.[.[.[.[.[.[.[.[.[.R.",
"[.[.[.[.[.[.[.[.[.[.[.[.[.g # ,.s.I.].[.[.[.[.[.[.[.[.[.[.[.[.W.I.u.*.# ~ [.[.[.[.[.[.[.[.[.[.[.[.R.[.[.[.[.[.[.[.[.[.[.[.[.[.g # ,.i.Y.].[.[.[.[.[.[.[.[.[.[.[.[.].g.i.*.# ~ [.[.[.[.[.[.[.[.[.[.[.[.R.",
"'.'.[.[.[.[.[.[.[.[.[.[.W.g # ,.i.f.W.W.[.[.[.[.[.[.[.[.[.[.].E.f.u.*.# ~ ].[.[.[.[.[.[.[.[.[.[.].T.'.].[.[.[.[.[.[.[.[.[.[.W.g # ,.u.f.E.W.[.[.[.[.[.[.[.[.[.{.].E.d.y.*.* ~ '.].[.[.[.[.[.[.[.[.[.].U.",
"g.E.[.[.[.[.[.[.[.[.[.W.I.f # ,.,.,.d.I.[.[.[.[.[.[.[.[.[.W.I.d.y.y.*.* W g.].[.[.[.[.[.[.[.[.[.Y.r.g.E.[.[.[.[.[.[.[.[.[.E.I.g * ,.,.y.f.I.[.[.[.[.[.[.[.[.[.].g.s.q.y.*.* h g.].[.[.[.[.[.[.[.[.[.Y.r.",
"s.g.E.'.[.[.[.[.[.[.E.Y.a.w 9XV.V.V.V.V.V.V.V.V.V.V.V.V.V.V.V.@X,.,.*.# h i.Y.W.{.[.[.[.[.[.'.E.f.e.d.f.E.].[.[.[.[.[.[.E.I.d.w # y.q.,.u.a.g.I.I.I.I.I.I.I.I.I.a.i.,.,.*.# a a.Y.W.[.[.[.[.[.[.'.E.f.e.",
"y.i.g.W.[.[.[.[.[.[.g.d.,.w 9X$ > c x x x x Z x x x x x x > $ A.^.u.*.# p ,.f.I.[.[.[.[.[.[.W.g.u.*.,.i.I.W.[.[.[.[.[.[.I.d.,.w # y.,.,.y.y.,.,.,.,.,.,.,.u.=.u.,.,.,.y.*.# p y.d.g.[.[.[.[.[.[.W.g.y.*.",
",.y.y.u.u.i.u.u.u.i.y.,.y.w 9X$ K >.>.>.>.>.>.>.>.>.>.>.:.` , $ A.G.} # p y.,.u.i.i.u.i.u.u.y.y.y.*.,.y.u.u.i.u.u.u.i.i.u.,.,.w # { @.,.,.,.,.,.,.,.,.,.,.,.u.=.,.,.,.| ' # p ,.y.y.i.i.u.u.u.u.u.y.y.*.",
"=.=.,.,.y.y.,.,.,.,.,.,.=.q 9X$ O.>.>.>.>.>.>.>.>.>.>.:.:.:.C $ % 6X( # p =.=.,.,.,.,.,.,.,.y.,.=.+.=.=.,.,.,.,.,.,.,.,.,.,.=.w * J I ) ) ) ) ) ) ) ) ) ) ) ) ) ) ) ) I A * p =.,.,.,.y.,.y.y.,.,.q.=.&.",
"[  .y.,.,.,.,.,.,.,.,.=.[ 0 :Xj V o.:.>.>.>.>.>.>.>.>.:.#.O.n $ $ 6Xd # e [ =.,.,.,.-.y.y.,.,.,.| ' [  .,.,.,.,.,.y.,.,.,.$.[ 1 # # # # # # # # # # # # # # # # * # # # # # e [ :.y.y.y.y.y.y.,.,.,.{ ' ",
"e r p p p p p p p p p t e - # 6Xj B O.>.>.>.>.>.>.:.$.O.N n $ $ $ 6Xd # - e t p p p p p p p p p r q e r p p p p p p p p p t e - # # # # # # # # # # # # # # # # # # # # # # = e t t p p p p p p W t r 2 ",
"# # # # # # # # # # # # # # # # 7X5 X.>.>.>.>.>.:.` n % $ $ $ $ $ 6Xd # # # # # * * # # * # # # # # * # # # # # # # # # # # # # # # # * # # * # # * # # * # # # # * # # # # # # # # # # # # # # # # * * ",
"*.*.*.*.*.*.*.*.*.*.P Z # # # # 7X: X.>.>.>.>.>.O.m > n $ $ $ $ $ 6XE # # # J P *.*.*.*.*.*.*.*.) T *.*.*.*.*.*.*.*.*.*.P Z # # # # : 4 b m H m v 4 4 # : 4 b M Z B M c 4 # # # J P &.*.&.*.*.*.*.*.) T ",
"y.u.s.s.s.u.u.y.,.,.| J # # # 9X5 N #.>.>.>.>.>.L , n $ $ $ $ $ $ 6XE # # # I  .,.,.e.u.u.s.s.d.q.&.u.i.d.d.s.u.u.y.u.,.{ S # # @ @ ; b n A H H D m v * : v n H F H B m 4 # # # I  .,.y.y.u.u.a.d.a.q.&.",
"g.E.[.[.[.g.d.,.,.,.,./ # # 9X$ N :.>.>.>.>.>.>.L x X.$ $ $ $ $ $ 6X9X9X9X9X9X9X9X9X9X9X9X9X9X9X9X9X9X9X9X9X9X9X9X9X9X9X9X9X9X9X6 1.l 9X9X9X9X;.H V M # 1 n H F F F H B m # # # ) ,.,.y.,.d.Y.[.[.[.Y.r.",
"W.'.[.[.[.W.Y.d.y.,.,./ # # 9X$ +.>.>.>.>.>.>.>.L x <._ $ $ $ $ $ 5 5 5 5 5 5 5 : 5 5 5 5 5 : 5 5 : : f 5 5 5 5 5 5 5 5 5 5 5 * o j.8.= : 5 5 >Xn.1 : # = 1 1 2 2 2 1 1 : * # # ) ,.,.y.d.E.W.{.[.[.'.L.",
"[.[.[.[.[.[.W.g.i.,.,./ # # 9X$ C :.>.>.>.>.:.O.v Z p.(.^.+X+X+X+X+X+X+X+X+X+X+X+X+X+X+X+X+X+X+X+X+X+X(.+X+X+X+X(.+X+X+XN.g 6 7 :X6 + 7 /.H.-.4 S.b.# # # # # * # * # # # # # # ) ,.,.a.I.W.[.[.[.[.[.R.",
"[.[.[.[.[.[.W.g.u.,.,./ # # 9X$ > < < < < < < > & x p.+X+X+X+X+X+X+X+X+X+X+X+X+X+X+X+X+X+X+X+X+X+X+X+X+X+X+X+X+X+X+X+Xi o v.;X6.s 6.. +X+X(.J.*.( Z.F.) T P J Z 4 2 # # # # # # ) u.y.a.I.W.{.[.[.[.[.R.",
"XXXX[.[.[.[.W.Y.i.,.,./ # # 9X>X>X>X>X>X>X>X>X>XV.x p.+X+X+X+X+X+X+X+X+X+X+X+X+X+X+X+X+X+X+X+X+X+X+X+X+X+X+X+X+X+X+XP.. h.;X<X;X8.  ~ +X+X+X(.p.4 S.).*.} ] G F M 4 # # # # # # ) =.,.d.Y.W.[.[.[.[.XX`.",
"5X2X[.[.[.[.[.[.s.y.q./ # # M.M.n.b.D.D.D.G.P.<XA.x H.+X+X+X+X+X+X+X+X+X+X+X+X+X+X+X+X+X+X+X+X+X+X+X+X+X+X+X+X(.N.6 . 2.+ y 5.v.l.Y k +X+X+X+Xp.Z A.).*.*.&.K F H Z # # # # # # ) ,.,.I.[.[.[.[.[.[.-X1X",
"2X&X[.[.[.[.[.[.s.,.,./ # # # # # # x m G K } ).A.b p.+X+X+X+X+X+X+X+X+X+X+X+X+X+X+X+X+X+X+X+X+X+X+X+X+X+X+X+XF.s |.z.Y X h.h.c.k.7.i +X+X+X+Xp.4 A.).*.} } G F M 4 # # # # # # ) ,.,.I.[.[.[.[.[.[.*X#X",
"*XOX[.[.[.[.[.[.s.,.,./ # # # # # # 4 c F G ] ^.S.Z p.+X+X+X+X+X+X+X+X+X+X+X+X+X+X+X+X+X+X+X+X+X+X+X+X+X+X+X+X@ |.8Xj.h.. o 4.k.9.3.i +X+X+X+Xp.x A.).&.} ' F F b 2 # # # # # # ) =.y.I.[.[.[.[.[.[.*X.X",
"{.[.[.[.[.[.[.[.s.y.,./ # # # # # # * * = = - C.S.x p.+X+X+X+X+X+X+X+X+X+X+X+X+X+X+X+X+X+X+X+X+X+X+X+X+X+X+X+XO c.c.j.U + + 1.3.R 9 ^ +X+X+X+Xp.x S.C.= 8 = = = * * # * # # # # ) ,.u.I.[.[.[.[.[.[.{.R.",
"}.}.[.[.[.[.[.[.s.,.,./ # # * = - ; ; ; ; ; 0 C.S.Z p.+X+X+X+X+X+X+X+X+X+X+X+X+X+X+X+X+X+X+X+X+X+X+X+X+X+X+X+XO k.c.k.3.0.1.c.9.R . N.+X+X+X+Xp.x A.C.* * 0 ; ; ; ; ; - = # # # ) ,.y.I.[.[.[.[.[.[.}.`.",
"*XOX[.[.[.[.[.[.s.,.,./ # # # b m F F H F G P ~.S.4 p.+X+X+X+X+X+X+X+X+X+X+X+X+X+X+X+X+X+X+X+X+X+X+X+X+X+X+X+Xi 7.k.x.x.c.c.x.9.R 9 i +X+X+X+Xp.x A.~.* q P G F F F F v c # # # ) ,.,.g.[.[.[.[.[.[.%X.X",
"XXXX[.[.[.[.W.E.i.y.,./ * # # n H H F F F P } ^.S.4 H.(.(.(.+X+X+X+X+X+X+X+X+X+X+X+X+X+X+X+X+X+X+X+X+X+X+X+X+X^ 9 9.9.j.0.0.9.3.R   N.+X+X+X+Xp.x S.<Xn.V.H.D.D.D.D.D.D.m # # # ) ,.,.f.E.].[.[.[.[.}.`.",
"[.[.[.[.[.[.W.g.u.,.,./ # # # F F F F F H P &.).S.4 >.J.(.+X+X+X+X+X+X+X+X+X+X+X+X+X+X+X+X+X+X+X+X+X+X+X+X+X+XN.i O U 3.9.7.9 O   y B.+X+X+X(.<.x V.>X:X>X>X>X>X>X>X>X9XA * # # ) ,.,.i.g.'.[.[.[.[.[.R.",
"[.[.[.[.[.[.W.g.u.,.,./ # # # v M F F F H K P G.Z.Q K %.J.(.+X+X+X+X+X+X+X+X+X+X+X+X+X+X+X+X+X+X+X+X+X+X+X+X+X^.F.5.k 8 8 8 h ^ B.F./.+X+XQ.J.<.x % > < 3 3 3 < < & $ 9Xc # # # ) ,.y.a.g.'.[.[.[.[.[.R.",
"'.'.[.[.[.'.E.f.u.y.,./ # # # 4 x Z Z Z Z A J Z m.S.< C @.@.@.@.@.@.@.@.@.@.@.@.@.@.@.@.@.@.@.@.@.@.@.$.@.@.@.@.+.X.+.I I I I +.+.@.@.@.@.@.:.:.x m O.:.>.>.>.>.:.C $ 9X< # # # ) y.y.i.f.E.'.[.[.[.'.L.",
"I.E.[.[.[.g.d.,.,.y.q./ # # # # # # # # # # # # # b.>X5 5 5 5 : 5 5 5 5 5 5 5 5 : : 5 5 5 5 5 5 5 5 5 5 : 5 5 5 5 5 5 5 5 5 5 5 : $ $ $ $ $ m O.v L >.>.>.>.>.>.>.+.$ 9X# # # # ) ,.,.,.,.d.Y.[.[.[.g.r.",
"i.i.f.f.f.i.y.,.,.y. .L # # # # # # 2 < z z z z 4 Z ^ 9X9X9X9X9X9X9X9X9X9X9X9X9X9X9X9X9X9X9X9X9X9X9X9X9X9X9X9X9X9X9X9X9X9X9X9X9X6X$ $ $ $ $ $ X.c L >.>.>.>.>.>.:.N $ 9X# # # # I $.,.,.y.y.u.f.f.g.i.&.",
"y.y.,.,.y.y.,.,.,.,.[ A # # # # # # 4 v F F F F G F F F H H v 2 # # # # # # J { ,.,.,.,.u.,.,.,.*.) ,.,.,.,.,.,.y.,.,.,.[ A # d 6X$ $ $ $ $ $ n , L >.>.>.>.>.#.N 5 9X# # # # # J { ,.,.y.y.,.,.q.y.*.) ",
"# # # # # # # * # # # # # # # # # # # # # # # # # # # # # * # # # # # # # # # * # # # * # # # # * # # # # # # # # # # # * # # d 6X$ $ $ $ $ B > m O.>.>.>.>.>.X.: 6X* # # # # # # # # # # # # # # * # # ",
"1 0 q w q w w w 0 q q q 1 * # # # # # # # # # # # # # # # # # # # # # # * 0 0 w w w w w w w w w 0 1 1 0 q w w w w w w w w 0 0 f 6X$ $ $ $ $ % n ` >.>.>.>.>.>.X.5 7X# # # # * 1 0 w w w w w w q 0 q 0 1 ",
"[ | y.y.,.,.,.,.y.,.q.=.[ 1 # # # # # # # # # # # # # # # # # # # # # # e [ =.,.,.,.,.,.,.,.,.,.{ P [  .,.,.,.,.,.,.,.,.,.$.[ h 6X$ $ N N +.@.%.:.>.>.>.>.>.>.#.n j 6X# # # e [ =.y.,.,.y.:.y.,.y.y.{ P ",
"=.:.-.y.,.,.,.,.,.,.,.,.$.0 * A L ( / / / / / / / / / / / / / / / S Z # r $.,.,.,.,.,.,.,.,.,.,.=.} =.=.,.,.,.,.,.,.,.,.u.=.$.h 6X$ N O.:.:.>.>.>.>.>.>.>.>.>.:.o.V j :XA # t $.=.y.,.,.y.y.u.,.,.,.=.} ",
"y.,.,.y.,.,.,.,.,.,.,.,.y.w # [  .,.q.=.,.,.,.,.,.,.,.y.,.,.,.y.,.| ' # p ,.,.,.,.,.,.,.,.,.,.,.,.*.,.,.,.,.,.,.,.,.,.,.,.,.<.! 6X$ C >.>.>.>.>.>.>.>.>.>.>.>.>.>.o.$ 9XP * p ,.,.,.,.,.,.y.-.u.,.y.y.*.",
"=.i.g.W.[.[.[.[.[.[.g.d.y.w # ,.q.y.y.,.,.,.,.,.,.,.y.,.,.,.y.y.,.,.*.# p y.f.g.[.[.[.[.[.[.W.g.i.*.=.i.I.W.[.[.[.[.[.[.I.s.=.h n.S., ` :.>.>.>.>.>.>.>.>.>.:.:.>.K $ 9X*.# p u.f.I.[.[.[.[.[.[.E.g.u.*.",
"i.d.Y.'.[.[.[.[.[.[.Y.f.u.w # ,.,.,.y.y.i.d.s.a.s.a.s.s.a.s.y.y.,.,.*.# p y.g.E.[.[.[.[.[.[.W.Y.s.q.i.d.Y.W.[.[.[.[.[.[.I.I.u.w 7 ^.S., 4 Z x x x x x x 4 r Z Z 4 , $ 9X*.# p u.f.E.[.[.[.[.[.[.W.Y.a.q.",
"g.E.[.[.[.[.[.[.[.[.[.W.g.u # ,.,.y.f.g.[.[.[.[.[.[.[.[.[.].g.d.,.,.*.# k I.'.[.[.[.[.[.[.[.[.[.U.r.I.E.{.[.[.[.[.[.[.[.[.W.I.u # y._.V.V.V.V.V.V.V.V.V.V.V.V.V.V.V.V.9X*.* h I.'.[.[.[.[.[.[.[.[.[.Y.r.",
"W.'.[.[.[.[.[.[.[.[.[.'.W.i # y.u.d.E.W.[.[.[.[.[.[.[.[.[.].W.E.d.u.*.# ! W.[.[.[.[.[.[.[.[.[.[.W.T.W.W.[.[.[.[.[.[.[.[.[.].E.g # y.y.d.E.W.[.[.[.[.[.[.[.[.[.].W.Y.d.u.*.* ! W.].[.[.[.[.[.[.[.[.[.W.U.",
"[.[.[.[.[.[.[.[.[.[.[.[.[.g # ,.i.I.'.[.[.[.[.[.[.[.[.[.[.[.[.W.I.u.*.# ~ [.[.[.[.[.[.[.[.[.[.[.[.R.[.[.{.[.[.[.[.[.[.[.[.[.[.g # ,.i.g.].[.[.[.[.[.[.[.[.[.[.[.[.W.I.u.*.# ~ [.[.[.[.[.[.[.[.[.[.[.[.R.",
"[.[.[.[.[.[.[.[.[.[.[.[.[.g # ,.f.[.[.[.[.[.[.[.[.[.[.[.[.[.[.[.[.i.*.# ~ [.[.[.[.[.[.[.[.[.[.[.[.R.[.[.[.[.[.[.[.[.[.[.[.[.[.g # ,.f.[.[.[.[.[.[.[.[.[.[.[.[.[.[.[.[.d.*.# ~ [.[.[.[.[.[.[.[.[.[.[.[.R.",
"[.[.[.[.[.[.[.[.[.[.[.[.[.g # ,.f.{.[.[.[.[.[.[.[.[.[.[.[.[.[.[.[.d.*.# ~ [.[.[.[.[.[.[.[.[.[.[.[.R.[.[.[.[.[.[.[.[.[.[.[.[.[.g * ,.g.[.[.[.[.[.[.[.[.[.[.[.[.[.[.[.[.s.*.# ~ [.[.[.[.[.[.[.[.[.[.[.[.R.",
"[.[.[.[.[.[.[.[.[.[.[.[.[.g # y.f.[.[.[.[.[.[.[.[.[.[.[.[.[.[.[.[.s.*.# ~ [.[.[.[.[.[.[.[.[.[.[.[.R.[.[.[.[.[.[.[.[.[.[.[.[.[.g * y.H.[.[.[.[.[.[.[.[.[.[.[.[.[.[.[.[.d.*.# ~ [.[.[.[.[.[.[.[.[.[.[.[.R.",
"E.W.[.XX%X*X&X%XOXOX[.].E.u # y.d.E.].[.OX}.[.OXOX-X&XOXOXOX[.'.E.i.&.# ! E.].[.OX%XOX-X=XOX}.[.E.K.E.W.[.XXOX-X&XOX%XOX[.].E.u # y.a.E.'.[.oX}.[.OX%X-X&X%XOXOX[.].E.i.*.# k E.'.[.OXOXOX=X-X%XXX[.E.K.",
"g.Y.[.%X*X5X3X=X*X*X[.W.g.u # ,.i.g.].[.*X%X[.%X*X5X4X*X*X&X[.W.g.y.*.* k g.'.{.*X*X=X4X4X*XoX[.Y.r.I.E.[.OX=X5X4X=X*X-X[.W.g.u # y.i.g.'.[.*X%X[.%X*X5X4X*X*X&X[.W.g.y.*.# ! g.'.{.*X*X*X4X5X-XoX[.Y.r."
};
