/* XPM */
static char *digit_51730281968[] = {
/* columns rows colors chars-per-pixel */
"9 10 8 1 ",
"  c #FFC2B1",
". c #FFCABB",
"X c #FDE3DC",
"o c #FDE7E1",
"O c #FDEEEA",
"+ c #FDEEEB",
"@ c #FDF2EF",
"# c #FDFDFE",
/* pixels */
" ######O ",
" ###@OOX ",
" ###.    ",
" ###.    ",
" ###.    ",
" ######O ",
" OOOOO#+ ",
"      #+ ",
" ooooo#+ ",
" ######+ "
};
