/* XPM */
static char *digit_banner1730378756[] = {
/* columns rows colors chars-per-pixel */
"100 50 170 2 ",
"   c #3F3851",
".  c #47204A",
"X  c #4E224B",
"o  c #56234B",
"O  c #453951",
"+  c #4C3A51",
"@  c #543755",
"#  c #5A3755",
"$  c #503E53",
"%  c #5B3C51",
"&  c #64264C",
"*  c #6B2A4E",
"=  c #73294D",
"-  c #6F3D4F",
";  c #6D3454",
":  c #623A51",
">  c #693C50",
",  c #683758",
"<  c #703452",
"1  c #783758",
"2  c #773959",
"3  c #5E3B60",
"4  c #4B445C",
"5  c #534155",
"6  c #5F4051",
"7  c #624756",
"8  c #6E4252",
"9  c #704754",
"0  c #724A56",
"q  c #744E58",
"w  c #7C535B",
"e  c #575066",
"r  c #685768",
"t  c #755677",
"y  c #843F4F",
"u  c #843E56",
"i  c #80365B",
"p  c #8A365C",
"a  c #913251",
"s  c #9F3351",
"d  c #973B56",
"f  c #AE3752",
"g  c #A53F58",
"h  c #B83C55",
"j  c #84404F",
"k  c #92414E",
"l  c #864350",
"z  c #884652",
"x  c #8C4C55",
"c  c #9D4C53",
"v  c #86575D",
"b  c #935559",
"n  c #975559",
"m  c #955C5D",
"M  c #A0434E",
"N  c #AE444E",
"B  c #B3494F",
"V  c #A54051",
"C  c #AB4A56",
"Z  c #B34B50",
"A  c #BA4659",
"S  c #AE5253",
"D  c #AC535F",
"F  c #A45B5A",
"G  c #B65053",
"H  c #BD5654",
"J  c #BE5855",
"K  c #B45459",
"L  c #BD5B58",
"P  c #B0645E",
"I  c #8E506E",
"U  c #9C6176",
"Y  c #A46463",
"T  c #B96D65",
"R  c #BD7A6C",
"E  c #B56E75",
"W  c #C84C5C",
"Q  c #C25D57",
"!  c #C25F58",
"~  c #D25654",
"^  c #C3635B",
"/  c #C76A5F",
"(  c #C96B5F",
")  c #D6605A",
"_  c #C05D63",
"`  c #CD5B62",
"'  c #D55C63",
"]  c #D85C63",
"[  c #CF6064",
"{  c #CA6E60",
"}  c #CD6A6C",
"|  c #D56667",
" . c #DE6366",
".. c #DA6B66",
"X. c #CD7363",
"o. c #DD7266",
"O. c #DF7768",
"+. c #E56D6A",
"@. c #E9716C",
"#. c #E27F6D",
"$. c #EC7B74",
"%. c #BF8170",
"&. c #C18773",
"*. c #C48E77",
"=. c #D38477",
"-. c #C5937A",
";. c #E3826F",
":. c #E68C74",
">. c #EE847D",
",. c #E68E7F",
"<. c #E99277",
"1. c #E99679",
"2. c #EB9D7D",
"3. c #EDA17F",
"4. c #7D7487",
"5. c #937488",
"6. c #C77C84",
"7. c #878091",
"8. c #9C8291",
"9. c #B78C92",
"0. c #9F98A7",
"q. c #A38CA3",
"w. c #AC92A5",
"e. c #BAA7BA",
"r. c #B9A8BA",
"t. c #C78F92",
"y. c #D69394",
"u. c #E2918B",
"i. c #F4958A",
"p. c #F69A8E",
"a. c #CCA585",
"s. c #DFA59C",
"d. c #CEB797",
"f. c #CFBD9D",
"g. c #EEA582",
"h. c #F2AE87",
"j. c #F4B48A",
"k. c #F5BA8D",
"l. c #F7B298",
"z. c #CC9DA6",
"x. c #CBABAD",
"c. c #CFBFA1",
"v. c #C1A9BA",
"b. c #E4AEA8",
"n. c #FDBAAA",
"m. c #E6B5B0",
"M. c #F7C091",
"N. c #F9C594",
"B. c #FBCA97",
"V. c #FCCE9C",
"C. c #CFC0A3",
"Z. c #CFC4AA",
"A. c #CFC9B4",
"S. c #FEDEAB",
"D. c #FFC2B1",
"F. c #F5D1B8",
"G. c #FEE1AE",
"H. c #FEE6B3",
"J. c #FEE8B7",
"K. c #FEEABA",
"L. c #D1C2D0",
"P. c #EBC8C9",
"I. c #F5D8D8",
"U. c #FEEEC2",
"Y. c #FDE1CA",
"T. c #FEF4CE",
"R. c #E8DDE7",
"E. c #E7E0E7",
"W. c #F8E6E9",
"Q. c #FFF8FD",
/* pixels */
"                                                                                                                                                                                                        ",
"                                                                                                                                                                                                        ",
"                                                                                                                                                                                                        ",
"                                                                                                                                                                                                        ",
"                                                                                                                                                                                                        ",
"                                                                                                                                                                                                        ",
"                                                                                                                                                                                                        ",
"                                              O                                                                                                                                                         ",
"                            Q.q.q.q.q.q.q.q.q.q.q.q.q.q.q.q.q.0.                                                                                                                                        ",
"                            Q.. * u u u u u u u u u u u i = . e.5.4                                                                                                                                     ",
"                            Q.. A +.@.@.@.@.@.@.@.@.@.@.+.W = . r.5.4                                                                                                                                   ",
"          O O 5 $ $ 5 + 5 5 Q.. ` +.@.@.@.@.@.@.@.@.@.@.+.+.h .   R.r 4 5 5 5 4 5 5 + O                       O + $ 5 $ 5 $ $ $ 5 + +                               O + + 5 5 5 5 + 5 5 + +             ",
"          : N ^ X.X.X.X.X.X.I.t d | +.@.@.@.@.@.@.@.@.+. .' s . . R.=.X.X.X.X.X.X.X.L N +                     > N ^ X.X.{ X.X.X.X.L N %       O         O     O     j N { X.X.X.X.X.X.X.J N +           ",
"0 8 8 :   8 H { X.X.X.X.X.X.X.W.t s +.+.@.@.@.@.@.+...` f s . . . R.=.X.X.X.X.X.X.X.^ L + + > 8 8 0 9 8 > :   8 H / X.X.X.X.X.X.X.^ L %   > > 8 0 q q q 0 0 8 > %   z H X.X.X.X.X.X.X.X.^ K $ + > 8 8 0 ",
"^ H N c   q X.X.X.X.X.X.X.X.X.X.W.3 _ @.@.@.@.@.+.~ s X . . . . . R.} X.X.X.X.X.X.X.X.X.5 % N B Q ( ^ Q N c   q X.X.X.X.X.X.X.X.X.X.X.7   N B J / X.X.X.X.! Q N k   m X.X.X.X.X.X.X.X.X.X.X.5 % N B H { ",
"( ( H S   8 G / X.X.X.X.X.X.X.^ W.3 _ @.@.@.@.@.] a & s . . . . . R.=.X.X.X.X.X.X.X.L G + % H Q ( X.X.( L S   8 G / X.X.X.X.X.X.X./ G %   H J / X.X.X.X.X.( ( G c   z G ( X.X.X.X.X.X.X.L H O 6 H ^ ( X.",
"X.X.^ S   > N ^ X.X.X.X.X.X.X.Q.# f  .@.@.@.@.@.D = s . . . . . . R.=.X.X.X.X.X.X.X.L N + 6 J ^ X.X.X.X.L S   8 N / X.X.X.X.X.X.X.^ N %   H L X.X.X.X.X.X.X.X.H c   j N { X.X.{ X.X.X.X.J N + 6 H ^ X.X.",
"  O           O             Q.. f +.@.@.@.@.@.@.D u _ . . . . . . R.Q.Q.Q.Q.Q.Q.Q.Q.Q.Q.Q.Q.Q.Q.Q.Q.Q.Q.Q.Q.Q.Q.Q.Q.Q.Q.Q.Q.Q.Q.Q.Q.Q.Q.Q.Q.Q.4.          O                                 O O   O     ",
"8 q q q q q q 8 :   + 6 9 q Q.. | @.@.@.@.@.@.@.D u $.E . . . . . 3 3 3 3 3 3 3 3 3 3 3 3 3 3 3 3 3 # , 3 3 3 3 # 3 3 3 3 3 3 3 3 3 3 3 3 3 3 L.5.>   + > 0 q q q q 0 q 8 %   % > 0 q q q q q q q q q 8 ",
"L X.X.X.X.X.X.Z c   - N ^ X.Q.. h ..@.@.@.@.@.~ d l >.n.b.D.D.D.D.D.D.D.D.D.D.D.D.D.D.D.D.D.D.D.D.D.D.D.D.D.D.D.D.D.D.D.D.D.D.D.D.D.D.D.D.u.} 2 v.6.  > N ! X.X.X.X.X.X.B k   j N / X.X.X.X.X.X.X.X.X.B ",
"X.X.X.X.X.X.X./ L O 0 / X.X.Q.. & < < < < < < ; o u >.D.D.D.D.D.D.D.D.D.D.D.D.D.D.D.D.D.D.D.D.D.D.D.D.D.D.D.D.D.D.D.D.D.D.D.D.D.D.D.D.D.D.n.p.} U w.7.0 / { X.X.X.X.X.X./ F   b ^ X.X.X.X.X.X.X.X.X.X.^ ",
"X.X.X.X.X.X.X.X.P O q X.X.X.Q.L.L.L.L.L.L.L.L.L.q.u >.D.D.D.D.D.D.D.D.D.D.D.D.D.D.D.D.D.D.D.D.D.D.D.D.D.D.D.D.D.D.D.D.D.D.D.D.D.D.D.D.D.D.n.n.$.l e.0.q X.X.X.X.X.X.X.X.X.P   m X.X.X.X.X.X.X.X.X.X.X.X.",
"J X.X.X.X.X.X.G M O 8 N ^ X.s.s.s.s.s.s.s.s.y.P.e.u >.D.D.D.D.D.D.D.D.D.D.D.D.D.D.D.D.D.D.D.D.D.D.D.D.D.D.D.D.D.D.D.D.D.D.D.D.D.D.D.D.D.D.D.D.i.u e.0.> N ! X.X.X.X.X.X.B k   j N { X.X.X.X.X.X.X.X.X.B ",
"b m m m m m m z 8   % j b m m m m m m F m m x w.e.u >.D.D.D.D.D.D.D.D.D.D.D.D.D.D.D.D.D.D.D.D.D.D.D.D.D.D.D.D.D.D.D.D.D.D.D.D.D.D.D.D.D.D.D.n.$.u e.0.% y b m m m m m m l -   8 j m m m m m m m m m m j ",
"  O               O     O       O       O     0.e.u >.D.D.D.D.D.D.D.D.D.D.D.D.D.D.D.D.D.D.D.D.D.D.D.D.D.D.D.D.D.D.D.D.D.D.D.D.D.D.D.D.D.D.D.n.i.y r.0.4   O     O               O               O       ",
"m m k 8   % u b m m m m m m m b j +   y x m m x.e.u >.D.D.D.D.D.D.D.D.D.D.D.D.D.D.D.D.D.D.D.D.D.D.D.D.D.D.D.D.D.D.D.D.D.D.D.D.D.D.D.D.D.D.D.n.u.y r.x.m m m m j 8   8 j n m m m m m m m x y + + j x m m ",
"X.X.G M   > N ^ X.X.X.X.X.X.X.L N %   N K X.X.m.e.u >.D.D.D.D.D.D.D.D.D.D.D.D.D.D.D.D.D.D.D.D.D.D.D.D.D.D.D.D.D.D.D.D.D.D.D.D.D.D.D.D.D.D.D.D.$.u r.m.X.X.X.X.N k   j N ( X.X.X.X.X.X.X.L N + % N J X.X.",
"X.X.^ S   8 J { X.X.X.X.X.X.X./ H 6 O H ^ X.X.m.e.u >.D.D.D.D.D.D.D.D.D.D.D.D.D.D.D.D.D.D.D.D.D.D.D.D.D.D.D.D.D.D.D.D.D.D.D.D.D.D.D.D.D.D.D.D.i.u r.b.X.X.X.X.H c O x H X.X.X.X.X.X.X.X.^ Q + : J ( X.X.",
"^ Q K c   : C L ^ ^ ^ L ^ ^ ^ J C %   C S ^ ! b.e.u 6.n.D.D.D.D.D.D.D.D.D.D.D.D.D.D.D.D.D.D.D.D.D.D.D.D.D.D.D.D.D.D.D.D.D.D.D.D.D.D.D.D.D.D.D.>.u r.P.s.s.s.s.y.t.7.9.y.L ^ L ^ ! L ^ ^ K C + @ S G ^ ^ ",
"N N a i O # p V N N N N N N N s p @   p d N B z.e.u +.p.n.D.D.D.D.D.D.D.D.D.D.D.D.D.D.D.D.D.D.D.D.D.D.D.D.D.D.D.D.D.D.D.D.D.D.D.D.D.D.D.D.D.n.6.u q.L.L.L.L.L.L.L.L.L.Q.N N N N N N N N c p O + p k N N ",
"> > : @   O # : > > > > > > > : @ O O # # : > 8.q.I V +.i.D.D.D.D.D.D.D.D.D.D.D.D.D.D.D.D.D.D.D.D.D.D.D.D.D.D.D.D.D.D.D.D.D.D.D.D.D.D.D.D.l.p.$.l o * < < < < < < & . Q.> > 8 > > > > > , # O O # : > > ",
"            O                           O   O   4.r., A | | | | | | | | | | | | | | | | | | | | | | | | | | | | | | | | | | | | | | | | | | +.@.u d ~ @.@.@.@.@.+.f . Q.                        O       ",
"d N N N N N N d 1                                 5.L.3 3 3 3 # 3 3 3 3 3 3 3 3 # 3 3 3 3 3 3 3 3 3 3 3 # 3 3 3 3 3 3 3 3 3 3 3 3 . . . . . a  .p D @.@.@.@.@.@.@.[ . Q.p 1   ; p f N N N N N N N N B p ",
"u k k k k k k 1 ;                                 # 5.Q.Q.Q.Q.Q.Q.Q.Q.Q.Q.Q.Q.Q.Q.Q.Q.Q.Q.Q.Q.Q.Q.Q.Q.Q.Q.Q.Q.Q.Q.Q.Q.Q.Q.Q.Q.Q.R.. . . . . . _ i D @.@.@.@.@.@.+.f . Q.2 ,   , 1 z k k k k k k k k k - ",
"O               O                                                                                                             e R.. . . . . . s = D @.@.@.@.@. .f 3 Q.                  O               ",
"                                                                                                                              e R.. . . . . s & a ] @.@.@.@.@._ 3 E.                                    ",
"                                                                                                                              e R.. . . . . X g ~ +.@.@.@.@.@._ 3 E.      O O                     O     ",
"z ~ O.#.#.#.#.#.#.#.#.#.#.#.#.#.;.O.;.~ c   c ~ O.;.=.O.;.;.O.;.#.#.#.#.;.#.#.#.#.#.#.#.#.#.#...~ $ x ~ +.=.#.#.#.#.#.#.;.#.#.,.R.. . f f ` | ..+.@.@.@.@.@.@. .g t W.;.=.#.;.O.#.#.#.#.#.#.#.#.;.) ~ 5 ",
"x ~ O.#.#.#.#.#.#.#.#.#.#.#.#.#.#.#.;.) c   F ~ #.#.;.#.O.;.;.;.#.#.#.#.#.#.#.#.#.#.#.#.#.#.#.o.) $ x ~ #.#.#.#.#.#.#.#.#.#.#.,.R.. s +.] @.@.@.@.@.@.@.@.@.@.+.' g t I.#.#.#.#.#.#.#.#.#.#.#.#.;.o.) 5 ",
"I #.#.#.#.#.#.#.#.#.#.#.#.#.#.#.#.#.#.#.Y   Y #.#.#.#.#.;.;.O.;.#.#.#.#.#.#.#.#.#.#.#.#.#.#.#.#.#.5 m #.#.#.#.#.#.#.#.#.#.#.#.,.R.. h @.@.@.@.@.@.@.@.@.@.@.@.@.+.` . Q.#.#.#.#.#.#.#.#.#.#.#.#.O.;.O.5 ",
"m ;.O.;.1.3.h.h.h.h.h.h.h.h.h.g.1.;.;.;.Y   Y ;.;.;.1.3.h.h.j.h.h.h.h.h.j.h.h.h.h.h.h.h.1.<.#.#.;.5 b ;.#.#.<.g.h.h.h.h.h.h.h.k.F.r.= W @.@.@.@.@.@.@.@.@.@.@.@.+.A X Q.h.h.h.h.h.h.h.j.h.h.1.<.;.;.;.5 ",
"m ;.;.;.g.h.B.B.B.B.B.B.B.B.B.k.3.:.O.;.Y   Y O.;.:.3.M.B.N.B.B.B.B.B.B.B.B.B.B.B.B.B.B.g.1.#.#.;.5 v ;.#.#.g.h.B.B.B.B.B.B.B.B.V.F.r.= u u u u u u l 1 l l l j 1 * . Q.B.B.B.B.B.B.B.B.B.B.g.1.O.;.;.5 ",
"v ;.1.3.N.B.B.B.B.B.B.B.B.B.B.B.N.g.2.;.Y   Y ;.3.h.N.B.B.B.B.B.B.B.B.B.B.B.B.B.B.B.B.B.N.k.2.:.;.5 I ;.1.g.N.B.B.B.B.B.B.B.B.B.B.N.Y.q.q.q.q.q.q.q.q.q.q.q.q.q.q.q.q.Q.B.B.B.B.B.B.B.B.B.B.N.k.3.:.;.5 ",
"m ;.3.j.B.B.B.B.B.B.B.B.B.B.B.B.B.j.h.O.Y   Y ;.3.M.B.B.B.B.B.B.B.B.B.B.B.B.B.B.B.B.B.B.B.N.h.1.#.5 b #.g.h.B.B.B.B.B.B.B.B.B.B.B.B.B.j.g.#.Y   Y #.h.k.B.B.B.B.B.B.B.B.B.B.B.B.B.B.B.B.B.B.B.N.h.1.O.5 ",
"I O.j.B.B.B.B.B.B.B.B.B.B.B.B.B.B.B.B.;.Y   Y O.B.B.B.B.B.B.B.B.B.B.B.B.B.B.B.B.B.B.B.B.B.B.B.g.#.5 b ;.k.B.B.B.B.B.B.B.B.B.B.B.B.B.B.B.B.#.Y   Y #.B.B.B.B.B.B.B.B.B.B.B.B.B.B.B.B.B.B.B.B.B.B.B.g.;.5 ",
"m ;.k.B.B.B.B.B.B.B.B.B.B.B.B.B.B.B.B.;.Y   Y ;.B.B.B.B.B.B.B.B.B.B.B.B.B.B.B.B.B.B.B.B.B.B.B.g.#.5 b ;.k.B.B.B.B.B.B.B.B.B.B.B.B.B.B.B.B.#.Y   Y #.B.B.B.B.B.B.B.B.B.B.B.B.B.B.B.B.B.B.B.B.B.B.B.g.;.5 ",
"m ;.k.B.B.B.B.B.B.B.B.B.B.B.B.B.B.B.B.;.Y   Y ;.B.B.B.B.B.B.B.B.B.B.B.B.B.B.B.B.B.B.B.B.B.B.B.g.O.5 v ;.k.B.B.B.B.B.B.B.B.B.B.B.B.B.B.B.B.#.Y   Y #.B.B.B.B.V.V.B.B.B.B.B.B.B.B.B.B.B.B.B.B.B.B.B.g.;.5 ",
"v ;.1.h.B.B.B.G.K.T.U.H.H.H.B.B.B.h.g.O.Y   Y ;.3.k.B.B.B.H.K.T.T.T.J.S.B.B.B.G.K.T.U.H.B.N.g.<.;.5 m ;.1.h.B.B.B.S.K.T.U.H.H.H.B.B.B.j.g.#.Y   Y #.g.j.B.B.B.H.K.T.T.T.J.S.B.B.B.G.K.T.U.H.B.N.g.<.O.5 ",
"w T %.*.a.a.a.d.c.A.Z.f.f.f.a.a.a.%.%.R v   m T %.%.d.a.a.f.C.A.A.A.f.d.a.a.a.f.c.A.Z.f.a.-.&.R T 4 w T %.&.a.a.a.d.C.A.Z.f.f.f.a.a.a.%.%.R v   I T %.-.a.a.a.f.C.A.A.A.f.d.a.a.a.f.C.A.Z.f.a.a.%.R T + ",
"                                                                                        4                                                                                                               "
};
