/* XPM */
static char *item_banner1730378757[] = {
/* columns rows colors chars-per-pixel */
"100 50 202 2 ",
"   c #1F2231",
".  c #292833",
"X  c #323437",
"o  c #3D4332",
"O  c #494A35",
"+  c #594C3D",
"@  c #66573E",
"#  c #6C6A3A",
"$  c #3F3851",
"%  c #47204A",
"&  c #4E224B",
"*  c #56234B",
"=  c #453951",
"-  c #4C3A51",
";  c #5A3755",
":  c #503E53",
">  c #563857",
",  c #5B3C51",
"<  c #64264C",
"1  c #6B2A4E",
"2  c #73294D",
"3  c #6F3D4F",
"4  c #6D3454",
"5  c #623A51",
"6  c #693C50",
"7  c #683758",
"8  c #703452",
"9  c #773859",
"0  c #5E3B60",
"q  c #545449",
"w  c #494356",
"e  c #534254",
"r  c #5F4051",
"t  c #5E5154",
"y  c #71534C",
"u  c #624756",
"i  c #6E4252",
"p  c #704754",
"a  c #724A56",
"s  c #744E58",
"d  c #66555B",
"f  c #6D5A5E",
"g  c #706B51",
"h  c #575066",
"j  c #685768",
"k  c #705C61",
"l  c #755677",
"z  c #74676E",
"x  c #843F4F",
"c  c #843E56",
"v  c #80365B",
"b  c #8A365C",
"n  c #913251",
"m  c #9F3351",
"M  c #973B56",
"N  c #AE3752",
"B  c #A53F58",
"V  c #B83C55",
"C  c #84404F",
"Z  c #8A494C",
"A  c #92414E",
"S  c #874551",
"D  c #8C4C55",
"F  c #9D4C53",
"G  c #86575D",
"H  c #965558",
"J  c #955C5D",
"K  c #A0434E",
"L  c #AE444E",
"P  c #B3494F",
"I  c #AA4855",
"U  c #B34B50",
"Y  c #BA4659",
"T  c #AE5253",
"R  c #AC535F",
"E  c #A45B5A",
"W  c #B65053",
"Q  c #BD5654",
"!  c #B6575A",
"~  c #BD5B58",
"^  c #866A48",
"/  c #897146",
"(  c #B0645E",
")  c #A77757",
"_  c #8E506E",
"`  c #936873",
"'  c #9B7B79",
"]  c #A46463",
"[  c #B96D65",
"{  c #BA766F",
"}  c #C84C5C",
"|  c #C25E57",
" . c #D25654",
".. c #C3635B",
"X. c #C76A5F",
"o. c #C96B5F",
"O. c #D6605A",
"+. c #C05D63",
"@. c #CD5B62",
"#. c #D55C63",
"$. c #D85C63",
"%. c #CC6265",
"&. c #CA6E60",
"*. c #D56667",
"=. c #DE6366",
"-. c #DA6B66",
";. c #CD7363",
":. c #DE7466",
">. c #E56D6A",
",. c #E9716C",
"<. c #E27F6D",
"1. c #EC7B74",
"2. c #85893A",
"3. c #998B44",
"4. c #B58657",
"5. c #BD9554",
"6. c #B2B04D",
"7. c #AE8975",
"8. c #BF8170",
"9. c #B8BE62",
"0. c #C59C53",
"q. c #C6B949",
"w. c #CEA853",
"e. c #D4B950",
"r. c #C18773",
"t. c #C48E77",
"y. c #D38477",
"u. c #C5937A",
"i. c #E3826F",
"p. c #E68C74",
"a. c #EE847D",
"s. c #E68E7F",
"d. c #E99277",
"f. c #E99679",
"g. c #EB9D7D",
"h. c #EDA17F",
"j. c #CAC749",
"k. c #D7C54C",
"l. c #DDD24A",
"z. c #E2DE48",
"x. c #E2D955",
"c. c #E5E746",
"v. c #E9F044",
"b. c #E2E778",
"n. c #7D7487",
"m. c #937488",
"M. c #C77C84",
"N. c #878091",
"B. c #9C8291",
"V. c #B68E88",
"C. c #BB908E",
"Z. c #9F98A7",
"A. c #A38CA3",
"S. c #AC92A5",
"D. c #BAA7BA",
"F. c #B9A8BA",
"G. c #C59591",
"H. c #D69394",
"J. c #E2918B",
"K. c #F5998D",
"L. c #CCA585",
"P. c #D3A398",
"I. c #DFA59C",
"U. c #CEB797",
"Y. c #CFBD9D",
"T. c #EEA582",
"R. c #F2AE87",
"E. c #F4B48A",
"W. c #F5BA8D",
"Q. c #F7B298",
"!. c #CC9DA6",
"~. c #CFBFA1",
"^. c #C8AAB1",
"/. c #E7B1A7",
"(. c #F1B7A9",
"). c #FDBAAA",
"_. c #E6B5B0",
"`. c #DADD9F",
"'. c #F9C594",
"]. c #FAC897",
"[. c #FBCA97",
"{. c #E6E994",
"}. c #CFC0A3",
"|. c #CFC4AA",
" X c #CFC9B4",
".X c #FEDEAB",
"XX c #FFC2B1",
"oX c #F5D1B8",
"OX c #FEE1AE",
"+X c #FEE6B3",
"@X c #FEE8B7",
"#X c #FEEABA",
"$X c #F6F8B0",
"%X c #C5C6CB",
"&X c #D1C2D0",
"*X c #EBC8C9",
"=X c #F1DAD7",
"-X c #FEEBC4",
";X c #FEF4CE",
":X c #E8DDE7",
">X c #F8E6E9",
",X c #FFF8FD",
/* pixels */
"$ $ $ $ $ $ $ $ $ $ $ $ $ $ $ $ $ $ $ $ $ $ $ $ $ $ $ $ $ $ $ $ $ $ $ $ $ $ $ $ $ $ $ $ $ $ $ $ $ $ $ $ $ $ $ $ $ $ $ $ $ $ $ $ $ $ $ $ $ $ $ $ $ $ $ $ $ $ $ $ $ $ $ $ $ $ $ $ $ $ $ $ $ $ $ $ $ $ $ $ ",
"$ $ $ $ $ $ $ $ $ $ $ $ $ $ $ $ $ $ $ $ $ $ $ $ $ $ $ $ $ $ $ $ $ $ $ $ $ $ $ $ $ $ $ $ $ $ $ $ $ $ $ $ $ $ $ $ $ $ $ $ $ $ $ $ $ $ $ $ $ $ $ $ $ $ $ $ $ $ $ $ $ $ $ $ $ $ $ $ $ $ $ $ $ $ $ $ $ $ $ $ ",
"$ $ $ $ $ $ $ $ $ $ $ $ $ $ $ $ $ $ $ $ $ $ $ $ $ $ $ $ $ $ $ $ $ $ $ $ $ $ $ $ $ $ $ $ $ $ $ $ $ $ $ $ $ $ $ $ $ $ $ $ $ $ $ $ $ $ $ $ $ $ $ $ $ $ $ $ $ $ $ $ $ $ $ $ $ $ $ $ $ $ $ $ $ $ $ $ $ $ $ $ ",
"$ $ $ $ $ $ $ $ $ $ $ $ $ $ $ $ $ $ $ $ $ $ $ $ $ $ $ $ $ $ $ $ $ $ $ $ $ $ $ $ $ $ $ $ $ $ $ $ $ $ $ $ $ $ $ $ $ $ $ $ $ $ $ $ $ $ $ $ $ $ $ $ $ $ $ $ $ $ $ $ $ $ $ $ $ $ $ $ $ $ $ $ $ $ $ $ $ $ $ $ ",
"$ $ $ $ $ $ $ $ $ $ $ $ $ $ $ $ $ $ $ $ $ $ $ $ $ $ $ $ $ $ $ $ $ $ $ $ $ $ $ $ $ $ $ $ $ $ $ $ $ $ $ $ $ $ $ $ $ $ $ $ $ $ $ $ $ $ $ $ $ $ $ $ $ $ $ $ $ $ $ $ $ $ $ $ $ $ $ $ $ $ $ $ $ $ $ $ $ $ $ $ ",
"$ $ $ $ $ $ $ $ $ $ $ $ $ $ $ $ $ $ $ $ $ $ $ $ $ $ $ $ $ $ $ $ $ $ $ $ $ $ $ $ $ $ $ $ $ $ $ $ $ $ $ $ $ $ $ $ $ $ $ $ $ $ $ $ $ $ $ $ $ $ $ $ $ $ $ $ $ $ $ $ $ $ $ $ $ $ $ $ $ $ $ $ $ $ $ $ $ $ $ $ ",
"$ $ $ $ $ $ $ $ $ $ $ $ $ $ $ $ $ $ $ $ $ $ $ $ $ $ $ $ $ $ $ $ $ $ $ $ $ $ $ $ $ $ $ $ $ $ $ $ $ $ $ $ $ $ $ $ $ $ $ $ $ $ $ $ $ $ $ $ $ $ $ $ $ $ $ $ $ $ $ $ $ $ $ $ $ $ $ $ $ $ $ $ $ $ $ $ $ $ $ $ ",
"$ $ $ $ $ $ $ $ $ $ $ $ $ $ $ $ $ $ $ $ $ $ $ $ $ $ $ $ $ $ $ $ $ $ $ $ $ $ $ $ $ $ $ $ $ $ $ $ $ $ $ $ $ $ $ $ $ $ $ $ $ $ $ $ $ $ $ $ $ $ $ $ $ $ $ $ $ $ $ $ $ $ $ $ $ $ $ $ $ $ $ $ $ $ $ $ $ $ $ $ ",
"$ $ $ $ $ $ $ $ $ $ $ $ $ $ ,XA.A.A.A.A.A.A.A.A.A.A.A.A.A.A.A.Z.$ $ $ $ $ $ $ $ $ $ $ $ $ $ $ $ $ $ $ $ $ $ $ $ $ $ $ $ $ $ $ $ $ $ $ $ $ $ $ $ $ $ $ $ $ $ $ $ $ $ $ $ $ $ $ $ $ $ $ $ $ $ $ $ $ $ $ $ ",
"$ $ $ $ $ $ $ $ $ $ $ $ $ $ ,X% 1 c c c c c c c c c c c c 2 % D.N.w $ $ $ $ $ $ $ $ $ $ $ $ $ $ $ $ $ $ $ $ $ $ $ $ $ $ $ $ $ $ $ $ $ $ $ $ $ $ $ $ $ $ $ $ $ $ $ $ $ $ $ $ $ $ $ $ $ $ $ $ $ $ $ $ $ $ ",
"$ $ $ $ $ $ = $ $ $ $ $ $ $ ,X% Y ,.,.,.,.,.,.,.,.,.,.,.>.} 2 % F.m.w = $ $ $ $ $ $ $ $ $ $ $ $ $ $ $ $ $ $ $ $ $ = $ $ $ $ $ $ $ $ $ $ $ $ $ $ $ $ $ $ $ $ $ $ $ $ $ $ $ $ $ $ $ $ $ $ = $ $ $ $ $ $ $ ",
"$ $ $ $ $ = - : : : e - - e ,X% @.>.,.,.,.,.,.,.,.,.,.,.,.=.V % $ :Xj e : : : : : e - = $ $ $ $ $ $ $ $ $ $ $ = - - - e e e - e e - = $ $ $ $ $ $ $ $ $ $ $ $ $ $ $ = - e - e e : : : e - = $ $ $ $ $ $ ",
"$ $ $ $ $ 6 L ..;.;.;.;.;.;.=Xl B #.>.,.,.,.,.,.,.,.,.>.=.#.m % % :Xy.;.;.;.;.;.;.;.~ L - = = $ $ $ $ $ $ $ $ 6 N [ ;.;.;.;.;.;.;.~ L , $ $ $ = $ = $ $ $ $ $ $ $ $ C L o.;.;.;.o.;.;.;.~ L = = $ $ $ $ ",
"p i i 5 $ i ! X.;.;.;.;.;.;.;.>Xl m =.>.,.,.,.,.,.>.-.@.N m % % % :Xy.;.;.;.;.;.;.;...Q - - 6 3 i a p i 6 5 $ i Q &.;.;.;.;.;.;.&.&.~ r $ 6 i p p s s s s a i 3 , $ D ! o.;.;.;.;.;.;.;.~ Q : - 6 i i a ",
"..Q L F $ s ;.;.;.;.;.;.;.;.;.;.>X0 +.,.,.,.,.,.>.@.m & % % % % % :X<.;.;.;.;.;.;.;.;.;.: , L W | &...| P F $ s ;.;.;.;.;.;.;.;.;.;.;.r $ L P Q X.;.;.;.;...Q L A $ J ;.;.;.;.;.;.;.;.;.;.;.e , L U Q &.",
"o.o.Q T $ i W X.;.;.;.;.;.;.;.X.>X0 +.,.,.,.,.,.$.n < m % % % % % :XM.;.;.;.;.;.;.;.[ U - , W | o.&.o.o.Q T $ i W X.;.;.;.;.;.;.&.&.W , $ Q Q X.;.;.;.;.;.o.o.Q F $ S W ;.;.;.;.;.;.;.;.X.W = r Q ..o.;.",
";.;...T $ 6 L ..o.&.;.;.;.;.;.,X> N =.,.,.,.,.,.R 2 m % % % % % % :Xy.;.;.;.;.;.;.;.~ L - , | ..;.&.;.;.| T = 6 L &.;.;.;.;.;.;.H Z L e $ Q ~ ;.;.;.;.;.;.;.;.Q F $ C L X.;.;.;.;.;.;.;.~ L - r | ..&.;.",
"= = $ $ $ $ $ $ $ $ = = $ $ ,X% N >.,.,.,.,.,.,.R c +.% % % % % % :X,X,X,X,X,X,X,X,X,X,X,X,X,X,X,X,X,X,X,X,X,X,X,X,X,X,X,X,X,X,Xq 2.z ,X,X,X,Xn.$ $ $ $ $ = $ $ = $ $ $ $ $ $ $ $ $ $ $ $ $ $ = $ = $ $ ",
"i s s s s s s i 5 $ - 6 a s ,X% *.,.,.,.,.,.,.,.R c 1.{ % % % % % ; 0 0 0 0 0 0 0 0 0 0 0 0 0 0 0 0 ; u 0 0 0 0 0 0 0 0 0 0 0 $ O k.q.w e ; 0 &Xm.6 $ = 6 i s s s s s s r , $ r i p s s s s s s a s s i ",
"~ ;.;.;.;.;.;.W F $ 6 L X.;.,X% V -.,.,.,.,.,.#.n c a.)./.XXXXXXXXXXXXXXXXXXXXXXXXXXXXXXXXXXXXXXXXXXXXXXXXXXXXXX).XXXXXXV.f t w %Xq # O (.J.<.9 ^.M.$ 6 I ..;.;.;.;.;.;.U A $ C L o.;.;.;.;.;.;.o.;.;.U ",
"&.;.;.;.;.;.;.X.~ $ y X.&.;.,X% < 8 8 8 4 8 4 1 * c a.XXXXXXXXXXXXXXXXXXXXXXXXXXXXXXXXXXXXXXXXXXXXXXXXXXXXXXXXXXXXXXXXk O b.$X9.f 9.X XXXX).K.%.` S.m.a %.;.;.;.;.;.;.;.o.E $ H X.;.;.;.;.;.;.;.;.;.&.X.",
";.;.;.;.;.;.;.;.[ = a &.;.;.,X&X&X&X&X&X&X&X&X&XA.c a.XXXXXXXXXXXXXXXXXXXXXXXXXXXXXXXXXXXXXXXXXXXXXXXXXXXXXXXXXXXXXXP.X j.$X=X$Xq.  ` XXXXXX).1.b D.Z.s ;.;.;.;.;.;.;.;.;.( $ H ;.;.;.;.;.;.;.;.;.;.;.;.",
"| ;.;.;.;.;.;.W K = 6 L X.;.I.I.I.I.I.I.I.I.H.*XD.c J.XXXXXXXXXXXXXXXXXXXXXXXXXXXXXXXXXXXXXXXXXXXXXXXXXXXXXXXXXXV.q X 3.# g 7.b.z./ z XXXXXXXXJ.c D.Z.6 I ..;.;.;.;.;.;.P A $ C L o.;.;.;.;.;.;.;.;.&.U ",
"D J J J J J J S i $ , C H J J J J J J J J J F S.D.b a.XXXXXXXXXXXXXXXXXXXXXXXXXXXXXXXXXXXXXXXXXXXXXXXXXXXXXXXXG.g `.x./ o 6.j.v.z.0.k XXXXXXXXa.c D.Z., S S J J J J J J C 3 $ i C J J H J J J H J J J Z ",
"= = $ $ $ $ $ $ $ = $ $ = $ $ $ = = $ $ = = $ Z.D.c a.XXXXXXXXXXXXXXXXXXXXXXXXXXXXXXXXXXXXXXXXXXXXXXXXXXXXXXXXX {.;Xk.j.X O 6.z.w.4.f XXXXXXXXa.c D.Z.= $ $ $ = = $ $ $ $ $ $ $ = $ $ $ $ $ = $ = = $ $ ",
"J J A p $ , C H J J J J J J J H C - $ x D J J ^.D.c a.XXXXXXXXXXXXXXXXXXXXXXXXXXXXXXXXXXXXXXXXXXXXXXXXXXXXXXXX+ v.v.j.^ # # 3.) ) y 7.XXXXXX).a.c D.^.J J J J c i $ 3 x H J J J J J J J D x = : C D J J ",
";.;.W K $ 6 L %.;.;.;.;.;.;.;.~ L , $ L ! ;.&._.D.c a.XXXXXXXXXXXXXXXXXXXXXXXXXXXXXXXXXXXXXXXXXXXXXXXXXXXXXXXXq x.v.l.5.e.2.v.e.) . V.XXXXXXXXa.c D._.;.;.;.;.L A $ C L X.;.;.;.;.;.;.;.~ L - , L ~ ;.;.",
";.&...T $ i Q &.;.;.;.;.;.;.;.X.Q r $ Q | ;.;._.D.c a.XXXXXXXXXXXXXXXXXXXXXXXXXXXXXXXXXXXXXXXXXXXXXXXXXXXXXX).d 0.l.z.c.v.v.c.0.) y f XXXXXXXXs.c D._.;.;.;.o...F = Z ..X.;.;.;.;.;.;.;...~ - 5 | X.;.;.",
"....W F $ 7 I ~ ....~ ....~ ~ ~ I , $ I W ~ | _.D.c J.).).).XXXXXXXXXXXXXXXXXXXXXXXXXXXXXXXXXXXXXXXXXXXXXXXXXX7.@ w.w.e.e.e.w.4.) . V.XXXXXXXXa.c D.*XI.I.I.I.H.C.m.V.H...~ ........~ ..! I - > L ! | ~ ",
"L L n 9 = ; b K L L L L L L L B b : $ b M L P !.D.c >.K.).XXXXXXXXXXXXXXXXXXXXXXXXXXXXXXXXXXXXXXXXXXXXXXXXXXXXV.k + / 0.w.0.y r   d C.XXXXXX).a.C A.&X&X&X&X&X&X&X&X&X,XL L L L L L L L M b - - b M L L ",
"6 6 , ; $ = ; 5 6 6 6 6 i 6 6 5 ; = $ ; , 6 6 B.A._ I >.K.).XXXXXXXXXXXXXXXXXXXXXXXXXXXXXXXXXXXXXXXXXXXXXXXXXX/.G.' k e e e g ' C.G.(.).XXQ.K.1.c * 4 8 8 8 8 4 4 < % ,X6 6 6 6 6 6 6 3 5 ; = = , 5 6 6 ",
"= $ $ $ $ $ $ $ $ $ $ $ $ $ $ $ = $ $ $ = $ $ $ n.F.7 V *.*.*.*.*.*.*.*.*.*.*.*.*.*.*.*.*.*.*.*.*.*.*.*.*.*.*.*.*.%.+.[ ! ! ! | %.*.*.*.*.*.>.,.c n #.,.,.,.,.,.-.Y % ,X$ $ $ $ $ $ $ $ $ $ $ $ $ $ $ $ ",
"M L L L L L L M 9 $ $ $ $ $ $ $ $ $ $ $ $ $ $ $ $ m.&X0 0 0 > ; 0 0 0 0 0 0 0 0 0 0 0 0 0 0 0 0 0 0 0 0 ; 0 0 0 0 0 0 0 0 0 0 0 > & % % % % n =.9 R ,.,.,.,.,.,.,.#.% ,Xb 9 $ 7 b L L L L L L L L L L b ",
"c A A A A A M 9 4 $ $ $ $ $ $ $ $ $ $ $ $ $ $ $ $ ; m.,X,X,X,X,X,X,X,X,X,X,X,X,X,X,X,X,X,X,X,X,X,X,X,X,X,X,X,X,X,X,X,X,X,X,X,X,X:X% % % % % % +.c R ,.,.,.,.,.,.>.N % ,X9 7 $ 7 9 A x A A A A M A A M 9 ",
"$ $ $ $ $ $ $ $ = $ $ $ $ $ $ $ $ $ $ $ $ $ $ $ $ $ $ $ $ $ $ $ $ $ $ $ $ $ $ $ $ $ $ $ $ $ $ $ $ $ $ $ $ $ $ $ $ $ $ $ $ $ $ h :X% % % % % % m 2 R ,.,.,.,.,.=.N 0 ,X$ $ $ $ $ $ $ $ $ = $ $ $ $ $ $ $ ",
"$ $ $ $ $ $ $ $ $ $ $ $ $ $ $ $ $ $ $ $ $ $ $ $ $ $ $ $ $ $ $ $ $ $ $ $ $ $ $ $ $ $ $ $ $ $ $ $ $ $ $ $ $ $ $ $ $ $ $ $ $ $ $ h :X% % % % % N < n $.,.,.,.,.,.+.0 :X$ $ $ $ $ $ $ $ $ $ $ $ $ $ $ $ $ $ ",
"$ $ $ $ $ $ $ $ $ $ $ $ $ $ $ $ $ $ $ $ $ $ $ $ $ $ $ $ $ $ $ $ $ $ $ $ $ $ $ $ $ $ $ $ $ $ $ = $ $ $ $ $ $ $ $ $ $ $ = $ $ $ h :X% % % % % % N @.>.,.,.,.,.,.+.0 :X$ = $ $ $ $ $ $ $ $ $ $ $ $ $ = = $ ",
"Z  .:.<.<.<.<.<.<.<.<.<.<.<.<.<.i.:.i. .F $ F  .:.i.:.i.<.<.<.<.<.<.<.<.<.<.<.<.<.<.<.<.i.i.i.O. .- S  .:.i.<.<.<.<.<.<.i.<.<.J.:X% % N N @.*.-.>.,.,.,.,.,.,.=.m l >X<.i.<.<.<.<.<.<.<.<.<.<.<.<. . .e ",
"D O.:.i.<.<.<.<.<.<.<.<.<.<.<.<.i.i.i.O.F $ E  .<.<.y.i.<.<.:.i.<.<.<.<.<.<.<.<.<.<.:.i.i.:.<.-.O.: D *.:.<.<.<.<.<.<.<.<.<.<.s.:X% m =.=.,.,.,.,.,.,.,.,.,.,.>.*.B l =X<.<.<.<.<.<.<.<.<.<.<.<.i.:.O.- ",
"J <.<.<.<.<.<.<.<.<.<.<.<.<.<.i.i.i.:.i.] = ] <.<.<.<.i.i.i.i.i.<.<.<.<.<.<.<.<.i.i.i.i.i.i.<.<.i.e J :.i.i.<.<.<.<.<.<.<.<.<.s.:X% V ,.,.,.,.,.,.,.,.,.,.,.,.,.>.@.% ,X<.<.<.<.<.<.<.<.<.<.<.i.i.i.i.e ",
"G i.<.<.f.T.R.R.R.R.R.R.E.R.R.T.f.i.i.:.] $ ] i.i.i.f.h.R.R.R.R.R.R.R.R.R.R.R.R.R.R.R.R.f.p.i.<.<.: J y.<.i.f.h.R.R.R.R.R.R.R.W.oXF.2 } ,.,.,.,.,.,.,.,.,.,.,.,.>.Y % ,XR.R.R.R.R.R.R.R.R.R.f.p.:.i.i.e ",
"J <.<.i.T.R.].[.[.[.[.[.[.[.[.W.T.i.i.i.] $ ] i.i.p.h.'.[.[.[.[.[.[.[.[.[.[.[.[.[.[.[.[.T.g.<.<.<.e J i.<.i.h.R.[.'.[.[.[.[.[.[.[.oXF.2 9 c c c c c c c C c c C c 1 % ,X[.[.[.[.[.[.[.[.[.[.R.f.i.i.i.e ",
"G <.f.T.'.'.].[.[.[.[.[.[.[.[.'.'.T.g.:.] $ ] i.h.R.[.[.[.[.[.[.[.[.[.[.[.[.[.[.[.[.[.[.'.W.g.p.<.e J :.f.h.'.[.[.[.[.[.[.[.[.[.[.].-XA.A.A.A.A.A.A.A.A.A.A.Z.A.A.A.A.,X[.[.[.[.[.[.[.[.[.[.'.W.g.p.i.e ",
"J i.T.R.[.[.[.[.[.[.[.[.[.[.[.[.[.E.R.i.] $ ] i.h.W.[.[.[.[.[.[.[.[.[.[.[.[.[.[.[.[.[.[.[.'.R.f.<.e J i.h.R.[.[.[.[.[.[.[.[.[.[.[.].[.E.R.<.] = ] i.R.W.[.[.[.[.[.].].].[.[.[.[.[.[.[.[.[.[.[.'.R.d.:.e ",
"J <.W.[.[.[.[.[.[.[.[.[.[.[.[.[.[.[.[.<.] $ ] :.[.[.[.[.[.[.[.[.[.[.[.[.[.[.[.[.[.[.[.[.[.[.[.T.<.: J <.E.[.[.[.[.[.[.[.[.[.[.[.[.[.[.[.[.<.] $ ] <.[.[.[.[.[.[.[.[.[.[.[.[.[.[.[.[.[.[.[.[.[.[.].T.<.e ",
"J <.W.[.[.[.[.[.[.[.[.[.[.[.[.[.[.[.[.<.] $ ] i.[.[.[.[.[.[.[.[.[.[.[.[.[.[.[.[.[.[.[.[.[.[.[.T.<.e J <.W.[.[.[.[.[.[.[.[.[.[.[.[.[.[.[.[.<.] $ ] <.[.[.[.[.[.[.[.[.[.[.[.[.[.[.[.[.[.[.[.[.[.[.].T.<.e ",
"J <.W.'.[.[.[.[.[.[.[.[.[.[.[.[.[.[.[.i.] $ ] i.[.[.[.[.[.[.[.[.[.[.[.[.[.[.[.[.[.[.[.[.[.[.[.T.:.e _ i.E.[.[.[.[.[.[.[.[.[.[.[.[.[.[.[.[.<.] $ ] <.[.[.[.[.[.[.[.[.[.[.[.[.[.[.[.[.[.[.[.[.[.[.].T.<.e ",
"G <.g.R.[.[.[.OX#X;X-X+X+X+X[.[.[.R.T.<.] $ ] i.h.E.[.[.[.+X@X;X;X;X#X.X[.[.[.+X#X;X-X+X[.'.T.d.y.e J i.g.R.[.[.[.OX@X;X-X+X+X+X[.[.[.R.h.<.] $ ] i.h.E.[.[.[.+X#X;X;X;X#X.X[.[.[.+X#X;X-X+X[.'.h.J.<.e ",
"s [ 8.t.L.L.L.U.~. X|.~.~.Y.L.L.u.u.t.[ G $ J [ 8.7.L.L.L.}.}. X X X}.U.L.L.L.U.}. X}.}.L.u.r.{ [ - s [ 8.t.L.L.L.U.}. X|.}.Y.}.L.L.L.t.8.[ G $ J [ 8.u.L.L.L.}.}. X X X}.U.L.L.L.U.}. X|.}.L.u.r.{ [ - ",
"= $ $ $ $ $ $ $ $ $ $ $ $ $ $ $ $ $ $ $ $ $ $ $ w $ $ w $ $ $ $ $ $ $ $ $ $ $ $ $ $ $ $ w $ $ $ = = $ = $ $ $ $ $ $ $ $ $ $ $ $ $ $ $ $ $ $ $ $ $ $ $ $ $ $ $ $ $ $ $ $ $ $ $ $ $ $ $ $ $ $ w $ = = $ $ "
};
