/* XPM */
static char *flat_41730129891[] = {
/* columns rows colors chars-per-pixel */
"50 50 162 2 ",
"   c #161C2E",
".  c #1D1F31",
"X  c #221F2F",
"o  c #1C2132",
"O  c #222434",
"+  c #2B2637",
"@  c #242837",
"#  c #262739",
"$  c #2A2739",
"%  c #2D2A3A",
"&  c #3A2533",
"*  c #332D3C",
"=  c #3A2A38",
"-  c #2E323F",
";  c #472835",
":  c #6D313B",
">  c #353542",
",  c #393342",
"<  c #433243",
"1  c #493546",
"2  c #423B49",
"3  c #4D3B4A",
"4  c #563A47",
"5  c #7A3D44",
"6  c #3F404C",
"7  c #40404C",
"8  c #4B424C",
"9  c #51454F",
"0  c #564751",
"q  c #524B51",
"w  c #594C56",
"e  c #54525C",
"r  c #6F4449",
"t  c #684556",
"y  c #6F4758",
"u  c #624D5A",
"i  c #6C4E5C",
"p  c #754757",
"a  c #7B4756",
"s  c #7C4E5F",
"d  c #63545B",
"f  c #6D585F",
"g  c #675762",
"h  c #695661",
"j  c #6D5966",
"k  c #775362",
"l  c #755D66",
"z  c #735A68",
"x  c #7B5D6B",
"c  c #716166",
"v  c #786065",
"b  c #7B616C",
"n  c #7B6F6B",
"m  c #8E4D5B",
"M  c #9F4D57",
"N  c #944D5A",
"B  c #8B5D5A",
"V  c #98535F",
"C  c #AA4044",
"Z  c #A4434A",
"A  c #A84D56",
"S  c #A04D58",
"D  c #B14D54",
"F  c #BD4C52",
"G  c #AE5B59",
"H  c #805463",
"J  c #8C5361",
"K  c #845E68",
"L  c #AC5F65",
"P  c #B75F63",
"I  c #82646C",
"U  c #88606C",
"Y  c #856A6D",
"T  c #836771",
"R  c #8D6572",
"E  c #846A73",
"W  c #8E6F76",
"Q  c #906C75",
"!  c #9B6976",
"~  c #8D7374",
"^  c #857874",
"/  c #8C7977",
"(  c #877178",
")  c #89757C",
"_  c #947476",
"`  c #95747A",
"'  c #98767B",
"]  c #9C7B7D",
"[  c #BC6861",
"{  c #BD726E",
"}  c #A56D78",
"|  c #AB6F7B",
" . c #A3737B",
".. c #AD707B",
"X. c #A27D7D",
"o. c #AC797F",
"O. c #B77173",
"+. c #BB7172",
"@. c #B0757D",
"#. c #B2787F",
"$. c #C94C4F",
"%. c #D54C4D",
"&. c #DB4C4C",
"*. c #C34C50",
"=. c #C55657",
"-. c #C5585B",
";. c #DC5653",
":. c #D15C57",
">. c #DA5C59",
",. c #DA6B65",
"<. c #D16A68",
"1. c #CD7673",
"2. c #D17A75",
"3. c #E07267",
"4. c #D48176",
"5. c #E38475",
"6. c #A37E80",
"7. c #AA7E81",
"8. c #B37A81",
"9. c #9F8683",
"0. c #938888",
"q. c #AE8585",
"w. c #A48A8A",
"e. c #B58285",
"r. c #B88386",
"t. c #B28986",
"y. c #BA8788",
"u. c #B58989",
"i. c #B98D8B",
"p. c #B3918E",
"a. c #B39590",
"s. c #B79994",
"d. c #B89B95",
"f. c #B5A792",
"g. c #B1A49F",
"h. c #BAA19D",
"j. c #BBB09A",
"k. c #BDAAA5",
"l. c #C28986",
"z. c #C08F8D",
"x. c #C1928E",
"c. c #C39490",
"v. c #C59A94",
"b. c #C89D97",
"n. c #C89F98",
"m. c #CAA39B",
"M. c #CDAA9F",
"N. c #D6A693",
"B. c #DEAF99",
"V. c #C8BA9F",
"C. c #CEACA2",
"Z. c #C0ADA8",
"A. c #D1B1A5",
"S. c #D1BCA4",
"D. c #D4B7AE",
"F. c #D5BCB2",
"G. c #DBC3AB",
"H. c #DACBB1",
"J. c #E3D4B4",
"K. c #E7D8B5",
"L. c #EDDEB8",
"P. c #F1E2B9",
/* pixels */
"x.c.c.c.c.i.T c.c.c.c.c.c.W p.c.c.c.c.c.p.T 8.8.y.r.8.8.R 7.x.c.c.c.c.i.T c.c.c.c.c.c.~ p.c.c.i.r.8.",
"c.c.c.c.c.i.T c.c.c.c.c.c.W p.v.c.c.c.c.p.b l.c.c.c.c.x.W q.c.c.c.c.c.i.T c.c.c.c.c.c.~ p.c.c.c.c.c.",
"c.c.c.c.c.i.T c.c.c.c.c.c.W q.c.c.c.c.c.i.T c.c.c.c.c.c.W q.c.c.c.c.c.i.E c.c.c.c.c.c.W q.c.c.c.c.c.",
"c.c.c.c.c.i.T c.c.c.c.c.c.W q.c.c.c.c.c.i.T c.c.c.c.c.c.W q.c.c.c.c.c.u.b c.c.c.c.c.c.Q q.c.c.c.c.c.",
"i.c.c.c.i.o.T c.c.c.c.c.c.W  .i.c.c.c.x...T c.c.c.c.c.c.W  .i.c.c.c.c...T c.c.c.c.c.c.W } x.c.c.c.c.",
"T T T T T b T c.c.c.c.c.c.~ x b E E T T x T c.c.c.c.c.c.W x T E T T T x T c.c.c.c.c.c.W x T T T E E ",
"u.i.b 7.u.! E M.c.c.c.c.c.W ! e.x 6.u.u.! T c.c.c.c.c.c.~ ! e.x 6.i.u.! ( m.c.c.c.c.c.) ! u.x 6.i.u.",
"x.x.b x.c.u.E C.c.c.c.c.c.W q.c.b u.c.c.u.T c.c.c.c.c.c.W q.i.b u.c.c.u.E C.c.c.c.c.c.W q.i.b u.c.c.",
"c.c.c.c.c.i.T c.c.c.c.c.c.W q.c.z C.c.c.i.E M.c.c.c.c.c.W q.c.c.c.c.c.i.b v.c.c.c.c.c.W q.c.z C.c.c.",
"c.c.z.c.c.i.( C.c.c.c.c.c.W q.c.c.c.c.c.i.E c.c.c.c.c.c.W q.c.x.c.c.c.i.) C.c.c.c.c.c.) q.c.c.c.c.c.",
"z.x.8.v.c.i.) F.c.c.c.c.c.W q.c.x.C.c.c.i.E c.c.c.c.c.c.W q.c.8.c.c.c.i.) F.c.c.c.c.c.W q.c.l.C.c.c.",
"#.z.i.A.c.i.) F.c.c.c.c.c.` q.c.8.C.c.c.i.( M.c.c.c.c.c.W q.c.i.C.c.c.i.) F.c.c.c.c.c.W q.c.8.C.c.c.",
"..z.#.M.c.i.) D.c.c.c.c.c.~ q.c.x.c.c.c.i.( M.c.c.c.c.c.Q q.c.8.m.c.c.i.) D.c.c.c.c.c.W q.c.c.c.c.c.",
"..z.8.b.c.i.E M.c.c.c.c.c.W q.c.y.x.c.c.p.E M.c.c.c.c.c.Q t.c.8.c.c.c.i.( C.c.c.c.c.c.W q.c.i.c.c.c.",
"..z.x.M.c.i.E m.c.c.c.c.c.W q.c.8.v.c.c.i.( C.c.c.c.c.c.W q.c.c.C.x.c.i.E n.c.c.c.c.c.W q.c.8.c.c.c.",
"..z.x.c.c.i.E m.c.c.c.c.c.W q.c...v.c.c.p.E n.c.c.c.c.c.W q.c.c.c.c.c.i.E n.c.c.c.c.c.W 8.c...b.c.c.",
"| z.c.c.c.i.E n.c.c.c.c.c.W q.c.r.c.c.c.p.E c.c.c.c.c.c.W q.c.c.c.c.c.i.E n.c.c.c.c.c.Q q.c.y.c.c.c.",
"..z.c.c.c.i.T c.c.c.c.c.c.W q.c.c.c.c.c.u.T c.c.c.c.c.c.W a.v.c.c.c.c.i.T s.c.c.c.c.c.W q.c.c.c.c.c.",
"..z.c.c.c.i.T c.c.c.c.c.c.W q.c.c.c.c.c.i.T c.c.c.c.c.v.Q d.b.c.c.c.c.i.T c.c.c.c.c.c.W q.c.c.c.c.c.",
"..z.c.c.s.i.K 8.c.c.c.c.r.R q.c.c.c.c.c.i.T 8.c.c.c.c.8.R d.v.c.c.c.c.i.T 8.c.c.c.c.e.R q.c.c.c.c.c.",
"z.c.c.c.c.i.z T T T T T x z q.c.c.c.c.c.u.z x E T E T x z u.c.s.c.c.c.i.z x T T T T x z q.c.8.8.8.T ",
"c.c.c.c.c.p.x 7.i.u.R ` 7.K q.c.c.c.c.c.i.x 7.6.T q.i.8.K q.c.c.c.c.c.i.x 7.i.r.Q ` 7.U q.c...| | j ",
"c.c.c.c.c.i.T c.c.i.' ' c.W s.v.c.c.c.c.i.T i.6.Q x.c.x.Q q.c.c.c.c.c.i.E z.c.x.` 6.i.E d.v.8.| | j ",
"c.c.c.c.c.i.T c.c.c.' ' c.W d.v.c.c.c.c.i.T c.c.c.c.c.c.W q.c.c.c.c.c.i.T c.c.c.' ` c.W d.b.8.| ..R ",
"c.c.c.c.c.i.T x.c.c.X.w.n.W Z.m.c.c.c.c.u.T c.c.x.c.c.c.Q t.c.c.c.c.c.p.E x.c.c.6.w.n.W Z.n.@.....| ",
"c.c.c.c.c.i.T c.c.c.z.n.b.W Z.m.c.c.c.x.i.T c.y.8.c.c.c.W d.v.c.c.c.c.i.T c.c.c.x.n.b.W Z.n.@.....| ",
"b.c.c.c.c.u.T c.c.c.y.i.c.W k.n.c.c.u.q.i.T c.y.i.n.c.c.W d.v.c.c.c.c.i.T c.c.c.r.y.c.W Z.n.@.......",
"b.c.c.c.c.i.T c.c.c.z.v.b.Q d.v.x.Y + ; * b c.y.y.C.c.c.W d.v.c.c.c.c.i.E x.c.c.x.v.b.Q d.b.........",
"v.c.c.c.c.i.E c.c.c.r.y.c.W d.v.f r 3.,.V.>  .r.y.v.c.c.W d.v.v.c.c.c.i.E c.c.c.8.r.c.Q d.b.8.......",
"v.c.c.c.c.p.T c.c.c.y.y.c.( a.d 4 4.<.&.$.p , 7.y.v.c.c.W a.v.c.c.c.c.i.T c.c.c.l.i.c.W p.v.y.8.....",
"c.c.c.c.c.i.T c.c.c.c.c.c.W i.8 V -.P N.*.+.1 x c.v.c.c.W p.c.c.c.c.c.i.T c.c.c.c.c.c.W p.v.c.l.8.y.",
"v.c.c.c.c.i.T c.c.c.c.c.l 2 c w 3 X.H k J x > 7.y.c.c.c.W p.v.c.c.c.c.p.T c.c.c.c.c.c.W a.c.c.c.c.c.",
"c.c.c.c.c.i.E c.c.c.q.- ; 5 4 8 v @ 7 e 7 * X.x.i.q.u.x.W q.c.c.c.c.c.i.T c.c.c.c.c.c.W t.c.c.c.c.c.",
"c.c.c.c.c.i.T c.c.q.= G 3.>.S.q 2 u 0.L.^ w t.I %   % f W q.c.c.c.c.c.i.T c.c.c.c.c.c.W q.c.c.c.c.c.",
"i.c.c.c.i...T c.u., Z B.1.&.&.N + d b ] I j w X : C B @ x  .i.c.c.c.i.o.T c.c.c.c.c.c.~ } i.c.c.c.c.",
"E E T T T x T x.I , A F &.5.=.*.a O l x l 9 & [ 3.;.G.n # w T T T T T x T c.c.c.c.c.c.( x T T T T T ",
"e.i.b 7.u.! ( C.I 3 O.-.Q a.=.l.W O q.u.i $ :.G.2.&.;.G < o u.x  .i.u.! ( m.c.c.c.c.c.W ! u.i.i.y.y.",
"c.c.x c.c.u.E C.i.. u Y s s s k * d x.x.O 3 S >.&.&.&.D m = 0 x i.c.c.u.( C.c.c.c.c.c.W q.i.c.c.c.c.",
"c.c.z c.c.i.T c.x.q.3 o > 6 7 O d x.c.c.% S %.A P K.{ %.O.9 % c.c.c.c.i.I c.c.c.c.c.c.W q.c.c.c.c.c.",
"c.c.x.c.c.i.( C.x.t.~ 7 g.J.j.8 ' x.z.y.% t h.L U ' M @.w.< 8 z.c.c.c.i.( C.c.c.c.c.c.W q.c.c.c.z.z.",
"z.x.8.c.c.i.) F.x.i.~ Y d j.~ Y ! 8.| @.4 # d k y i y y 1 O X.8.c.c.c.p.) F.c.c.c.c.c.W q.c.c.8.....",
"#.z.z.A.c.i.) F.c.x.i.6._ f _ X.8.....| } g ,   > 7 , o , W c.z.C.c.c.i.) F.c.c.c.c.c.W q.c.r.......",
"| z.@.M.c.i.) D.c.c.c.c.x.~ q.x.@.......} j ^ > Z.H.H.> h X.c.8.m.c.c.i.) D.c.c.c.c.c.W t.c.@.| ....",
"| z.r.b.s.i.E C.c.c.c.c.c.~ q.c.@.......} j ) 8 0.P.f.8 h _ c.8.v.c.c.i.E C.c.c.c.c.c.W q.c.@.......",
"..z.x.M.c.i.E m.c.c.c.c.c.W q.c.........} n 9.~ b ] / ~ j 7.c.c.M.c.c.i.E m.c.c.c.c.c.W q.c.@.| ....",
"..z.x.x.c.i.E m.c.c.c.c.c._ q.c.8.| ..| ! Y v.i.] X.q.i.E q.c.c.c.c.c.u.E n.c.c.c.c.c.W q.c.@.| ..| ",
"@.z.c.c.c.i.E n.c.c.c.c.c.W q.c.| | 8.! K T c.c.c.c.x.x.W q.c.c.c.c.c.i.E n.c.c.c.c.c.W e.c.8.| ..! ",
"..z.c.c.c.i.T c.c.c.c.c.c.W q.c.8.| } x j T c.c.c.c.c.x.W s.c.c.c.c.c.i.T c.c.c.c.c.c.W q.c.@.| | x ",
"..z.c.c.c.i.T c.c.c.c.c.c.W q.c.o.| | z j T c.c.c.c.c.c.W d.v.c.c.c.c.i.T c.c.c.c.c.c.W e.c.@.| | z ",
"..z.x.x.c.i.K r.c.c.c.c.r.T e.c.@.| | z j K e.c.c.c.c.r.T d.b.c.c.c.c.i.b e.c.c.c.c.r.T q.c.o...| j "
};
