/* XPM */
static char *flat_51730129892[] = {
/* columns rows colors chars-per-pixel */
"50 50 115 2 ",
"   c #161C2E",
".  c #181F30",
"X  c #1B2332",
"o  c #1E3137",
"O  c #212435",
"+  c #202935",
"@  c #2C2C3B",
"#  c #223536",
"$  c #253A36",
"%  c #293A34",
"&  c #22353A",
"*  c #29353D",
"=  c #233A3B",
"-  c #2D433E",
";  c #2C4A3B",
":  c #34593F",
">  c #3B5B3C",
",  c #2E3C41",
"<  c #3C3644",
"1  c #3D3945",
"2  c #413A46",
"3  c #443D4B",
"4  c #334345",
"5  c #324B46",
"6  c #374D4A",
"7  c #2D5445",
"8  c #335E46",
"9  c #385846",
"0  c #3A534D",
"q  c #3B5B4F",
"w  c #34624B",
"e  c #35694E",
"r  c #3D744E",
"t  c #396B51",
"y  c #4D424D",
"u  c #5C4B59",
"i  c #62515C",
"p  c #69515E",
"a  c #6C585F",
"s  c #426941",
"d  c #40754F",
"f  c #417C4F",
"g  c #6E5965",
"h  c #725D62",
"j  c #7C5A65",
"k  c #725B68",
"l  c #7B5D6B",
"z  c #766566",
"x  c #776068",
"c  c #7B616C",
"v  c #82636E",
"b  c #83696D",
"n  c #836771",
"m  c #8D6373",
"M  c #846B73",
"N  c #8E6F76",
"B  c #9B6A75",
"V  c #857474",
"C  c #8E7072",
"Z  c #877178",
"A  c #89757C",
"S  c #947476",
"D  c #987677",
"F  c #957479",
"G  c #99767B",
"H  c #9D7A7D",
"J  c #A56D78",
"K  c #AB6F7B",
"L  c #A3737B",
"P  c #AD707B",
"I  c #AC797F",
"U  c #B0757D",
"Y  c #B2787F",
"T  c #44814F",
"R  c #4E8C4D",
"E  c #5C8944",
"W  c #55904C",
"Q  c #498951",
"!  c #529650",
"~  c #5B9E50",
"^  c #63A24F",
"/  c #68A54C",
"(  c #6CAD4F",
")  c #6FB04F",
"_  c #72B24E",
"`  c #A37E80",
"'  c #A97D81",
"]  c #B37B81",
"[  c #AE8585",
"{  c #A58988",
"}  c #B58385",
"|  c #B88386",
" . c #BA8788",
".. c #B68989",
"X. c #B98D8B",
"o. c #B3908D",
"O. c #BF928E",
"+. c #B49490",
"@. c #B79994",
"#. c #B89B95",
"$. c #BEA9A4",
"%. c #C08F8D",
"&. c #C1928E",
"*. c #C39490",
"=. c #C59A94",
"-. c #C89D97",
";. c #C89F98",
":. c #C4A69E",
">. c #CAA39B",
",. c #CDAA9F",
"<. c #CEACA2",
"1. c #C0ADA8",
"2. c #D1B1A5",
"3. c #D4B7AE",
"4. c #D5BCB2",
/* pixels */
"&.*.*.*.*.X.n *.*.*.*.*.*.N o.=.O.*.*.*.X.c ] | | | | ] m ' &.*.*.*.*.X.M &.*.*.*.*.*.N o.=.&.X.| | ",
"*.*.*.*.*.X.n *.*.*.*.*.*.N X.=.*.*.*.*...n %.*.*.*.*.X.M } *.*.*.*.*.o.M &.*.*.*.*.*.N o.=.*.*.&.&.",
"*.*.*.*.*.X.n *.*.*.*.*.*.N [ *.*.*.*.*.X.n *.*.*.*.*.*.N [ *.*.&.*.&.X.b *.*.*.*.*.*.N [ *.*.*.*.*.",
"*.*.*.*.*.X.n *.*.*.*.*.*.N [ *.*.*.*.*.X.n *.*.*.*.*.*.N [ *.*.&.=.&.X.n *.*.*.*.*.*.N [ *.*.*.*.*.",
"X.*.*.*.O.L M *.*.*.*.*.*.N L &.*.*.*.*.L n *.*.*.*.*.*.N L X.*.&.*.&.P M *.*.*.*.*.*.N L %.*.*.&.&.",
"n n n n n l n *.*.*.*.*.*.N l c M n n n l n *.*.*.*.*.*.N l v M M b M l n *.*.*.*.*.*.N l n n n M M ",
"..X.c ' ..B M ,.*.*.*.*.*.N B } c ` ....B n *.*.*.*.*.*.N B ..l L X. .B M ,.*.*.*.*.*.N B ..l L X...",
"&.&.c *.*...M ,.*.*.*.*.*.N [ &.x ..*.*...n *.*.*.*.*.O.N [ O.c ..X.D M M ,.*.*.*.*.*.N [ X.c ..&.&.",
"*.*.*.*.*.X.n *.*.*.*.*.*.N [ *.x :.*.*.o.M ,.*.*.*.*.*.N [ *.*.C y     < &.&.*.*.*.*.N [ *.c :.*.*.",
"*.*.%.*.*.X.Z <.*.*.*.*.*.N [ *.*.=.*.*.X.M *.*.*.*.*.*.N [ &.[   > ^ $   y +   2 X.*.N [ *.*.*.*.*.",
"%.&.] *.*.X.A 4.*.*.*.*.*.S [ *.X.2.*.*.X.M *.*.*.*.*.*.C [ *.B ; ~ _ W %   + 4 . 2 *.Z [ *.%.<.*.*.",
"Y &.%.2.*.X.A 4.*.*.*.*.*.Z [ *.] >.*.*.X.N ,.*.*.*.*.*.Z [ a i 8 ! ( _ s   6 t , @ *.N [ *.] ,.*.*.",
"K %.U ,.&.X.A 3.*.*.*.*.*.C [ *.*.*.*.*.X.Z ,.*.*.*.*.*.N y . + : ! ( ) R X 0 q . N &.C [ *.*.*.*.*.",
"P %.| ;.&.X.M ,.*.*.*.*.*.Z [ *. .*.*.*.X.M ,.*.*.*.*.*.v O 5 0 - R ~ ( r * e , 2 } *.C [ *. .*.*.*.",
"P %.&.,.*.X.M >.*.*.*.*.*.N } *.U =.*.*.X.Z ,.*.*.*.*.*.x   4 q * E ( ( r         g *.N [ *.Y =.*.*.",
"P %.&.*.*.X.M >.*.*.*.*.*.N [ *.U -.*.*.X.M ;.*.*.*.*.*.M < X * X # / ^ =   o w - @ *.N [ *.P -.*.*.",
"K O.*.*.*.X.M ;.*.*.*.*.*.N [ *.| &.*.*.X.M *.*.*.*.*.*.n @ 8 f o   8 Q o + d Q & @ &.N [ *.| &.*.*.",
"K O.*.*.*.X.n *.*.*.*.*.*.N [ *.*.*.*.*.X.n *.*.*.*.*.*.x   w Q T 7 . Q o , d = X S *.N [ *.*.*.*.*.",
"K &.*.*.*.X.n *.*.*.*.*.*.N [ *.*.*.*.*.X.n *.*.*.*.*.*.c , X e f t + 9 + 0 =   a H *.N [ *.*.*.*.*.",
"K %.*.*.*.X.v ] *.*.=.O.| m [ *.*.*.*.*.X.l | *.*.*.*.| p V 3 1 , 4 , 0 ,   < a C S | m [ *.*.*.*.*.",
"%.*.*.*.*.X.k l n n n M l k ] *.*.*.*.*.X.k c n n n n c u v C b a h z z 3 3 i i i k v k ' *.] ] ] n ",
"&.*.*.*.*.X.c ' ....m F ' v [ *.*.*.*.*.X.l L ` n } X.I l G [ S C S [ S u j H H v F ' v } *.Y K K g ",
"*.*.*.*.*...n O.*.=.F G &.N @.=.*.*.*.*.X.n O.` N &.*.&.N [ &.O.O.X.*...c X.*.*.D F &.N #.=.P K K g ",
"*.*.*.*.=...n *.*.O.G G *.N @.=.*.*.*.*.X.n *.*.*.*.*.*.N [ *.&.*.*.*.X.M *.*.*.G G *.C #.=.] K K m ",
"*.*.*.*.*.X.n *.*.*.` { -.N 1.<.*.*.*.*.X.n *.*.&.*.*.*.N ..*.*.*.*.*.X.c =.*.*.` { -.N 1.>.U P U K ",
"=.*.*.*.*.X.n *.*.*.&.-.-.N $.;.*.*.*.*.X.n *. .} *.*.*.N #.=.*.*.*.*.X.n *.*.*.%.-.-.N 1.;.U P K K ",
"=.*.*.*.=...n *.*.*. . .*.N $.;.*.*.*.*.X.n *. . .>.*.*.N #.=.*.*.*.O.X.n *.*.*. . .=.N 1.-.U P P P ",
"-.*.*.*.*.X.n *.*.*.&.=.-.N #.-.*.*.*.*.X.n *. .X.;.*.*.N #.-.*.*.*.*.X.n *.*.*.%.-.=.N #.=.U P P P ",
"=.*.*.*.*.X.n =.*.*.| | *.N #.=.*.*.*.*.X.n *. .| -.*.*.N #.=.*.*.*.*.X.m *.*.*.] ] =.N #.=.] K P P ",
"=.*.*.*.*...n *.*.*. .X.*.N +.=.*.*.*.*...n *.X.X.=.*.*.N +.=.*.*.*.*.X.n *.*.*.X.X.*.N +.=. .] P P ",
"=.*.*.*.=.X.n *.*.*.*.*.*.N X.#.*.*.*.*.X.n *.%.X.-.*.*.Z o.=.*.*.*.*.X.M *.*.*.*.*.*.N o.=.*.%.] | ",
"=.*.*.*.*...n *.*.*.*.*.*.N o.=.*.*.*.*.X.n *.%. .*.*.*.N X.=.*.*.*.*.X.n *.*.*.*.*.*.N X.*.*.*.*.*.",
"O.*.*.*.*.X.n *.*.*.*.*.*.N } *.*.*.*.*.X.n *.*.*.*.*.*.N } *.*.*.*.*.X.n *.*.*.*.*.*.N } *.*.*.*.*.",
"*.*.*.*.*.X.n *.*.*.*.*.*.Z [ *.*.*.*.*.X.n *.*.*.*.*.*.N [ *.*.*.*.O.X.n *.*.*.*.*.*.N [ *.*.*.*.*.",
"X.*.*.*.*.L n *.*.*.*.*.*.N L X.*.*.*.&.L n *.*.*.*.*.*.Z L X.*.*.*.*.L n *.*.*.*.*.*.Z G O.*.*.*.%.",
"n n n n n l n *.*.*.*.*.*.N l n n n n n l n *.*.*.*.*.*.C l n n n n n l n *.*.*.*.*.*.C l n n n n n ",
"..X.c ' ..B Z >.*.*.*.*.*.N B ..X.X.X...B n *.*.*.*.*.*.Z B ..l L o...B N >.*.*.*.*.*.N B ....X.X. .",
"&.*.l *.*...M <.*.*.*.*.*.N [ &.*.*.*.*...n *.*.*.*.*.*.N [ O.l X.*.*...Z <.*.*.*.*.*.N [ %.*.&.*.*.",
"*.*.l *.*.X.n *.*.*.*.*.*.N [ &.*.*.*.*.X.M ,.*.*.*.*.*.N [ *.*.*.*.*.X.n &.*.*.*.*.*.N [ *.*.*.*.*.",
"*.*.X.*.*.X.Z <.*.*.*.*.*.N [ *.*.%.%.X.] M *.*.*.*.*.*.N } *.O.*.*.*.X.Z <.*.*.*.*.*.N [ *.*.&.%.%.",
"%.*.] *.*.X.A 4.*.*.*.*.*.N [ *.&.] U P K m *.*.*.*.*.*.N [ &.] *.*.*.X.A 4.*.*.*.*.*.N [ *.&.| P P ",
"Y &.X.2.*...A 4.*.*.*.*.*.N [ *.] P P P J M ,.*.*.*.*.*.N } &.X.<.*.*.X.A 4.*.*.*.*.*.N [ *.] K P P ",
"K %.I <.*.X.A 4.*.*.*.*.*.N [ *.U P P P J Z <.*.*.*.*.*.N [ *.] >.*.*.X.A 3.*.*.*.*.*.N } *.Y U K P ",
"K %.] >.*.X.M <.*.*.*.*.*.N [ *.U P P P J Z ,.&.*.*.*.*.N [ =.] =.*.*.X.M <.*.*.*.*.*.N [ *.U K U K ",
"P %.&.>.*.X.M >.*.*.*.*.*.N [ *.U P P P J Z <.*.*.*.*.*.N [ *.*.>.*.*.X.M >.*.*.*.*.*.N [ *.I K P P ",
"P %.*.*.*.X.M ;.*.*.*.*.*.C [ *.P K P K B M ;.*.*.*.*.*.N [ *.*.*.*.*.X.M ;.*.*.*.*.*.N [ *.Y K K K ",
"P %.*.*.*.X.M ;.*.*.*.*.*.N [ =.] K K B l n *.*.*.*.*.*.N [ *.*.*.*.*.X.M >.*.*.*.*.*.N } *.U K P B ",
"P &.*.*.*.X.n *.*.*.*.*.*.N [ *.K ] K l g n *.*.*.*.*.*.N o.=.*.*.*.O.X.n *.*.*.*.*.*.C [ &.U P P l ",
"P %.*.*.*.X.M &.*.*.*.*.*.N [ *.Y P K g g n *.*.*.*.*.*.N #.-.*.*.*.*.X.n *.*.*.*.*.*.N } *.P P K k ",
"P %.*.*.*. .v | *.&.*.*.} m [ &.Y P K g g v ] *.*.*.*. .n #.=.*.*.*.*.o.c } *.*.*.*. .n [ *.Y K K g "
};
