/* XPM */
static char *flat_01730129890[] = {
/* columns rows colors chars-per-pixel */
"50 50 103 2 ",
"   c #6E5967",
".  c #725A68",
"X  c #795D6B",
"o  c #7A5D6A",
"O  c #7D5E6C",
"+  c #78606C",
"@  c #7F616D",
"#  c #82606D",
"$  c #82656F",
"%  c #876370",
"&  c #836771",
"*  c #876470",
"=  c #8D6373",
"-  c #836871",
";  c #856B74",
":  c #866F76",
">  c #8E6A73",
",  c #8C6C75",
"<  c #8E6F76",
"1  c #996974",
"2  c #996876",
"3  c #9B6977",
"4  c #9D6A76",
"5  c #877178",
"6  c #88747B",
"7  c #89757C",
"8  c #937279",
"9  c #98767B",
"0  c #9D7A7E",
"q  c #9E7A7E",
"w  c #A56D78",
"e  c #AA6E7A",
"r  c #AB6F7B",
"t  c #A1717A",
"y  c #A5757C",
"u  c #AD707B",
"i  c #AE717C",
"p  c #A9747C",
"a  c #AB787F",
"s  c #AC787F",
"d  c #AE7A7F",
"f  c #B0757D",
"g  c #B2787F",
"h  c #A37E80",
"j  c #A97D81",
"k  c #B27980",
"l  c #B37A81",
"z  c #B47C81",
"x  c #B67F83",
"c  c #AC8384",
"v  c #AE8585",
"b  c #A58988",
"n  c #B38385",
"m  c #B68084",
"M  c #B78084",
"N  c #B78184",
"B  c #B48687",
"V  c #B88285",
"C  c #B98487",
"Z  c #B98588",
"A  c #B08B8A",
"S  c #B58889",
"D  c #B68888",
"F  c #BA888B",
"G  c #BC8888",
"H  c #B88C8B",
"J  c #B88D8B",
"K  c #BF8E8C",
"L  c #BF8E8D",
"P  c #B3908D",
"I  c #B4928F",
"U  c #B49490",
"Y  c #B79994",
"T  c #B89B95",
"R  c #BEA9A4",
"E  c #C08F8D",
"W  c #C18F8D",
"Q  c #C1918E",
"!  c #C2938F",
"~  c #C29390",
"^  c #C39490",
"/  c #C49591",
"(  c #C59892",
")  c #C49893",
"_  c #C59994",
"`  c #C79B95",
"'  c #C69C96",
"]  c #C89D97",
"[  c #C89F98",
"{  c #C99F98",
"}  c #C4A69E",
"|  c #C8A09A",
" . c #C9A19B",
".. c #CAA39A",
"X. c #CBA69C",
"o. c #CBA69D",
"O. c #CDAA9F",
"+. c #CEABA1",
"@. c #CFADA2",
"#. c #C0ADA8",
"$. c #D1B1A5",
"%. c #D4B7AE",
"&. c #D5BCB2",
/* pixels */
"Q ^ ^ ^ ^ J & ^ ^ ^ ^ ^ ^ < P ) ! ^ ^ ^ J # l V V V V z & j Q ~ / ! / J - / Q / ^ / ! < P _ ! K n N ",
"^ ^ ^ ^ ^ J & ^ ^ ^ ^ ^ ^ < P _ ^ ^ ^ ^ J $ K Q / / ! K > v Q / ! / ! J - Q / / / ! / < P _ ! / ! ! ",
"^ ^ ^ ^ ^ J & ^ ^ ^ ^ ^ ^ < v ^ ^ ^ ^ ^ J - / ! Q / ! / < v / / / ! / J - / Q Q ! / ! < v ^ ^ ^ ! / ",
"^ ^ ^ ^ ^ J & ^ ^ ^ ^ ^ ^ < v ^ ^ ^ ^ ^ J - ! / / ^ / ! < v Q / ^ / Q J - / / / / ! / < v ^ ^ ^ / ! ",
"W / ! / Q p & ^ ^ ^ ^ ^ ! < t K ^ ^ ! Q p - / ! ! / ! / < t Q Q / ! Q p & ^ ^ ^ ! / Q < t Q ^ ! ! Q ",
"$ - - & & o & ^ ^ ^ ^ ^ ^ < o - - - - - o - ! / / ! / ! < o & - - - - o & ^ ^ ^ / ! ^ < o $ - - - & ",
"B J + j S 4 : o.^ ^ ^ ^ ^ < 1 n + y J S 4 - / ! ! / ! / < 1 B + y J D 4 : o.^ ^ ! / ! < 1 D X y J S ",
"Q ! + Q Q S : O.^ ^ ^ ^ ^ < v Q + S / ! S - ! / / ! / Q < c Q + S / Q S : +.^ ^ / ! / < c Q + S / ! ",
"/ ! / ! / J - ! / ! / ! ^ < v ^ + } / ! J : O./ ! / ! / < v ! / ^ ^ ^ J - ^ ^ ^ ! / ! < v / + } ! / ",
"! / Q / Q J 5 @.! / ! / ^ < v ^ ! _ ! / J - ! ! / ! / ! < v ! Q ^ ^ ^ J 5 +.^ ^ / ! / < v ! / / / ! ",
"W ! g / / J 7 &./ ! / ! ^ < v ^ ! @.! ! J - _ ! ! / ! / < v ! z Q ^ / J 7 &.^ ^ ! / / < v ! Q @.! / ",
"f W Q $.Q H 7 &.! / ! / ^ < v ^ z X./ / J : O./ / ! / ! < v Q W @./ ! J 7 &.^ ^ / ! ! < v / z X./ ! ",
"r ! g O.! H 7 %./ ! / ! / < v ^ / ! / ! J : O.! ^ ^ ^ ^ < v Q l ..! / J 7 %.! / ! / ! < v / ! / ! / ",
"r W x ..! H : O.! / ! / ! < n ! G Q ! / J : O.! ^ ^ ^ ^ < n ^ z ' / ! J : +./ ! / ! / < v ! G ! / ! ",
"r W ! X.! J ; ../ ! / ! / < B ! f _ / ! J : O.^ ^ ^ ^ ^ < v ^ ^ o.! / J - ..! / ! / ! < v Q s _ ! / ",
"u W ! ! / J ; { ! / ! / ! < v ! f ] ! / S : | ^ ^ ^ ^ ^ < v ^ ^ ! / ^ J - | / ! / ! / < B Q f ' / ! ",
"r Q ! / / J ; { ! / ^ / Q < v ! V Q ! / J - ! / ! / ^ ^ : n / / ^ ^ ^ J : ' / ~ / ~ / > v / C Q / ! ",
"u K / ! Q J & / / ! / Q / < v / / / / ! J - / ! / ! ^ ^ 5 I ( ! ^ ^ ^ J - ^ / W Q / / < v / ! / ! / ",
"u W ! / / J & Q ! / ^ / / < v ! ! / ! / J - ^ ^ ! / ! ^ < T ] / ^ ^ ^ J - / / / / / ^ < v Q ^ / / ! ",
"u W / ! / J # n / ! / / V & v / / ! / ! J @ n ^ / ! / C $ T ` ! ^ ^ ^ J O n / ~ Q / V & B Q / Q ! / ",
"G ! / ! / J . # - & & & # . v ! ! / ! / J . # - - - - @ . S ) ~ ^ ^ ^ J . # - & & - # . v ! z z z & ",
"! / ! / ! J o s H B > 8 g $ v Q / ! / ! J O y 0 $ n J a # n / Q ^ ^ ^ J O p J S > 8 j # v / s u r . ",
"/ ! / ! / J & Q / Q 9 9 ! > T _ ! / ! / J & W a < ~ ^ ~ < v ^ ^ ^ ^ ^ J - K ^ Q 9 9 Q > T / f i u   ",
"! / ! / Q J & / / Q 9 9 ! 5 T / / ! / ! J & ! / / Q ^ Q < v ^ ^ ^ ^ ^ J - ^ ^ ^ 9 9 / < T _ f i u = ",
"/ ! ! / ! J & ! / ! q b ] < R X.! / ^ / J - / Q Q ^ / ! > S ^ ^ ^ ^ ^ J & ^ ^ ^ y b ] < R | f u u r ",
"' / / ! / J & / ! / ! | ] < #.X./ ! / Q J - ! G n / ! / < T ' ^ ^ ^ ^ J & ^ ^ ^ W | ] < #...f u u r ",
"' / ! / ! J & ! / Q Z H _ < R | ! / / / J - / C F ../ ! < T ' ^ ^ ^ ^ J & ^ ^ ^ J K / < R o.f u u u ",
"' ! / ! / J & / Q ~ ~ _ ` < T ` / ! Q / J & ! G F ..! / < T ' Q ^ ^ ^ J & ^ ^ ^ K _ ] 5 Y ' f u u u ",
"_ / ! / ! J & ! ! / V C ^ < Y _ ! / ! / J & Q C C ] / ! < Y ' ^ ^ ^ ^ J - ^ ^ ^ M M ! < T ' z u u u ",
"_ ! / ! / J & / / ! G G ^ < I _ / ! / ! J & / K Q _ ! / < U _ ~ ^ ^ ^ J - ^ ^ ^ G K ^ < I ^ C g u u ",
"_ ! ! / ! J & ! ! / ! / ! < P _ ! / ! / J & ! K W _ / ! , I _ / ^ ^ ^ J - ^ ^ ^ ^ ^ ^ < J _ ! W V N ",
"_ / / ! / J & / / ! / ! / < P _ / ! / ! J - / W G ! ! Q < I _ Q ^ ^ ^ J & ^ ^ ^ ^ ^ ^ < I _ ! Q / Q ",
"Q ! / ! / J & / / Q ! / ! < v / ! / ! / J - ! / ! / ! / < v Q ! / ! / J - / / Q / / ! < v ! / ! / ! ",
"! / ! / / J & Q / / / ! / < v Q / ^ / ! J & / ! / ! / ! < v ! / ! / ! J - / Q / Q / / < v / ! / ! / ",
"W / / ! Q p - Q Q / ! / Q < t Q Q / / Q p & Q / ! / ! / < t Q ! / ! ! p - Q / ! / ! / < t W / ! / Q ",
"- - - - - o - / / ! / ! / < o $ - - & & o & / ^ / ! / ! < o $ - - - - o - / ! / ! / ! < o - - - - $ ",
"n J + s S 4 : X.! / ! / ! < 1 B J J H S 4 & / ! ! / ! / < 2 S + y J D 4 : +./ ! ^ ^ ^ < 1 B J H J S ",
"Q ! + Q ! S 5 O./ ! / ! / < v Q / ! Q / D - ! / / ! / ! < c ! + H ! / D : O.Q / ^ ^ ^ < c Q ! Q Q / ",
"! / + / / J - ! ! / ! / ! < v Q / / ! Q J : O.! ! / ! / < v Q ^ Q ! / J $ Q / / ^ ^ ^ < n ! / ! Q / ",
"/ ! Q ! ! J 5 @./ ! / ! / < v / Q Q Q W g & / ! / ! / ! < v Q Q ! / ! J 5 @.Q / ^ ^ ^ < v / ! ! W W ",
"W Q z / ! J 5 &.! / ! / ! < v ! / M u u r & / / ^ ^ ^ ^ < v ^ g ^ ^ ^ J 7 &./ ! ^ ^ ^ < v ^ Q n u u ",
"f W W $./ J 7 &./ ! / ! / < v / z u u u w : O.! ^ ^ ^ ^ < v ^ K @.^ ^ J 7 &.! / ^ ^ ^ < v ^ x r u u ",
"u Q f O.! J 5 &.! / ! / ! < v ! f u r i w : O./ ^ ^ ^ ^ < v / f | / ! J 7 %./ ! ^ ^ ^ < n / f f u u ",
"r W x ../ J 5 O./ ! / ! / < v / f u u r w : O.Q ^ ^ ^ ^ < v / z ' Q ^ J : O.! / ^ ^ ^ < v ! f r u r ",
"r W ! X./ J - | ! / ! / ! < v ! f f r i w : O.^ ^ ^ ^ ^ < v ^ ^ O.! / J : ..! ! ! / ! < v / f u r i ",
"u W / ! ! J : | / ! / ! / < v / f r r r 1 - ..^ ^ ^ ^ ^ < v ) ! Q / ! J - | ! / / ! / < v Q f u r i ",
"r W ! / / J - ..! / ! / ! < v ! f i r 3 O - ^ ^ ^ ^ ^ ^ < n ! / / ! / J : ] ! / ! / / < v / f u u 1 ",
"u Q / ! / J - ! / ! / ! / < v / f r i X   - ^ ^ ^ ^ ^ ^ < I / ! ! / ! J - ! / ! / ! ^ < v Q f u u o ",
"u W / ! / J - / Q / / ! / < v ^ i i u     - ^ ^ ! / ! ! < T ` / / ! ! J - / / ! / ! / > v / f r u . ",
"r W ! ! ! J # N / ! ! / V $ n / i i i     # n ^ / ! / C - T ] ! ! / / J # z ! / ! / C & v / f i r   "
};
