/* XPM */
static char *end1730085040[] = {
/* columns rows colors chars-per-pixel */
"50 50 204 2 ",
"   c #161C2E",
".  c #1D1F31",
"X  c #231F30",
"o  c #1D2133",
"O  c #222434",
"+  c #2D2333",
"@  c #242935",
"#  c #2B2A36",
"$  c #262738",
"%  c #2C2538",
"&  c #2C2B3A",
"*  c #3B2533",
"=  c #322C36",
"-  c #332B3B",
";  c #3B293B",
":  c #34343E",
">  c #39363C",
",  c #3C343C",
"<  c #472835",
"1  c #4A2E3D",
"2  c #532B37",
"3  c #562F3C",
"4  c #453A3E",
"5  c #483A3D",
"6  c #56363D",
"7  c #602E39",
"8  c #67323B",
"9  c #74343E",
"0  c #78343D",
"q  c #373341",
"w  c #3B3644",
"e  c #432E42",
"r  c #4C3045",
"t  c #443947",
"y  c #4B3D4B",
"u  c #583444",
"i  c #593D41",
"p  c #5B364C",
"a  c #61394F",
"s  c #6B394D",
"d  c #793948",
"f  c #613950",
"g  c #693C53",
"h  c #753F55",
"j  c #3F4146",
"k  c #4A4147",
"l  c #494848",
"z  c #584843",
"x  c #564B4C",
"c  c #534551",
"v  c #564953",
"b  c #534E53",
"n  c #594B54",
"m  c #5A4A59",
"M  c #674944",
"N  c #774847",
"B  c #6B524A",
"V  c #685448",
"C  c #7A5C49",
"Z  c #664B59",
"A  c #77425A",
"S  c #7F455D",
"D  c #695B55",
"F  c #63525A",
"G  c #6C585F",
"H  c #70545E",
"J  c #6E6155",
"K  c #67665D",
"L  c #78675B",
"P  c #6E5966",
"I  c #755863",
"U  c #735C65",
"Y  c #735B68",
"T  c #7A5D6B",
"R  c #7B6266",
"E  c #7B616C",
"W  c #84373F",
"Q  c #813C4C",
"!  c #983C43",
"~  c #854C49",
"^  c #89524C",
"/  c #974555",
"(  c #974A5F",
")  c #8D5054",
"_  c #AA4044",
"`  c #A74849",
"'  c #B64346",
"]  c #B8484B",
"[  c #A9524D",
"{  c #A34858",
"}  c #AE4B5A",
"|  c #B64A55",
" . c #A55A52",
".. c #88644D",
"X. c #8C694C",
"o. c #886B55",
"O. c #936C53",
"+. c #857158",
"@. c #9E7454",
"#. c #987C56",
"$. c #A86456",
"%. c #B96356",
"&. c #B66C5B",
"*. c #AE7F55",
"=. c #874861",
"-. c #8E4B64",
";. c #835F69",
":. c #836D61",
">. c #82666C",
",. c #8D7C64",
"<. c #836771",
"1. c #8D6373",
"2. c #846B73",
"3. c #8E6F75",
"4. c #976C73",
"5. c #9B6976",
"6. c #877178",
"7. c #89757C",
"8. c #927475",
"9. c #987677",
"0. c #95747A",
"q. c #99767A",
"w. c #937E7B",
"e. c #9E7A7D",
"r. c #B06166",
"t. c #A56D78",
"y. c #AB6F7B",
"u. c #A3737B",
"i. c #AD707B",
"p. c #A37D7E",
"a. c #AC797F",
"s. c #B0757D",
"d. c #B2787F",
"f. c #C24648",
"g. c #CF494A",
"h. c #D34C4E",
"j. c #DB4C4C",
"k. c #C5514E",
"l. c #C74C52",
"z. c #CB4C51",
"x. c #C75856",
"c. c #DF5A54",
"v. c #E05F55",
"b. c #C96B5B",
"n. c #E3695B",
"m. c #CF7661",
"M. c #D07A62",
"N. c #DC7A63",
"B. c #E77863",
"V. c #AE8F5E",
"C. c #B48355",
"Z. c #95856D",
"A. c #988D73",
"S. c #9D967B",
"D. c #B18F64",
"F. c #A89A7C",
"G. c #B59876",
"H. c #B1A27F",
"J. c #C2955F",
"K. c #DE8066",
"L. c #C99F64",
"P. c #E78067",
"I. c #EB876A",
"U. c #C9AA7F",
"Y. c #A97D81",
"T. c #B37B81",
"R. c #9F8683",
"E. c #AE8585",
"W. c #A48987",
"Q. c #B68285",
"!. c #B88386",
"~. c #B68887",
"^. c #B68989",
"/. c #B98D8B",
"(. c #AC918E",
"). c #B3918D",
"_. c #BF928E",
"`. c #B79994",
"'. c #B89B95",
"]. c #AAA383",
"[. c #B8AF8B",
"{. c #C08F8D",
"}. c #C1928E",
"|. c #C39490",
" X c #C59A94",
".X c #C89E97",
"XX c #C89F98",
"oX c #C8B48C",
"OX c #D5B686",
"+X c #C4A69E",
"@X c #CAA49C",
"#X c #CDAA9F",
"$X c #C8BC93",
"%X c #CEACA2",
"&X c #C0ADA8",
"*X c #D1B1A5",
"=X c #D4B7AE",
"-X c #D5BCB2",
";X c #D3C69A",
":X c #DECE9D",
">X c #E6D19D",
",X c #EED09F",
"<X c #E7D6A3",
"1X c #EFE1AB",
/* pixels */
"}.|.|.|.|./.<.|.|.|.|.|.|.3.). X|.|.|.|./.E d.!.Z t 4.d.<.Y./.}.|.|.|.).<.|.|.|.|.|.|.8.). X|./.Q.!.",
"|.|.|.|.|./.<.|.|.|.|.|.|.3./. X|.|.|.|./.<._.G X.V.@ e.3.G.|.}.|.|.|./.<.|.|.|.|.|.|.3.). X|.|.|.}.",
"|.|.|.|.|./.<.|.|.|.|.|.|.3.^.|.|.|.|.|./.<.'.V L.J.#.x 3.E.|.|.|.|.|./.<.|.|.|.|.|.|.3.E.|.|.|.|.|.",
"|.|.|.|.|./.<.|.|.|.|.|.|.3.E.|.|.|.|.|./.<.p.& Z.X.z 5 <.Q.|.|.|.|.|./.<.|.|.|.|.|.|.3.E.|.|.|.|.|.",
"_.|.|.|._.u.<.|.|.|.|.|.|.6.u./.|.|.|.|.u.P &   @.*.V     ;._.|.|.|.|.u.<.|.|.|.|.|.|.3.u./.|.|.|.}.",
">.<.<.<.<.T <.|.|.|.|.|.|.3.T E <.<.<.<.Y $ L ,.o.D.O J :.. Y <.<.<.<.T <.|.|.|.|.|.|.3.T <.<.<.<.<.",
"~.~.E a.~.5.6.@X|.|.|.|.|.3.5.Q.E e.^.^.Z j ;X1X>XoX>X:XG.x U T u./.~.5.6.@X|.|.|.|.|.3.5.^.T u./.~.",
"_.|.E }.|.~.6.%X|.|.|.|.|.3.E.|.E ^.|.|.c t   Z.].  K 1XOXR & T ~.|.|.^.6.%X|.|.|.|.|.3.E.}.T ^.|.|.",
"|.|.|.|.|./.<.|.|.|.|.|.|.3.E.|.E +X|.|.b     K k     H.OXV.# _.|.|.|./.E |.|.|.|.|.|.3.E.|.T +X|.|.",
"|.|.}.|.|./.6.%X|.|.|.|.|.3.E.|.}. X|.|.R o   Z.    # G.OXJ & _.|.|.|./.7.%X|.|.|.|.|.3.E.|.|. X|.|.",
"{.|.T.|.|./.7.-X|.|.|.|.|.3.E.|.}.%X}.|.o ].].[.R l K U.G.k G d.|.|.|./.7.-X|.|.|.|.|.3.E.|.|.%X|.|.",
"d.|./.*X|./.7.-X|.|.|.|.|.3.E.|.T.@X'.R Z.<XS.o 1X>XU.H.D : /._.%X|.|./.7.-X|.|.|.|.|.3.E.|.T.@X|.|.",
"y.{.d.%X}./.7.=X|.|.|.|.|.3.E.|.|.}.|.G K Z.;X:X>X<X,.: O E.}.a.@X|.|./.7.=X|.|.|.|.|.3.E.|.|.|.|.|.",
"y.{.T.XX|./.2.#X|.|.|.|.|.3.~.|./.}.|./.c > :X].>X;X: R <.E.}.Q. X}.|./.6.%X|.|.|.|.|.3.E.|./.{.|.|.",
"i.{.|.@X|./.2.@X|.|.|.|.|.8.E.|.s. X|.|./.t @ # F.b & /.3.E.}.}.@X}.|./.2.@X|.|.|.|.|.3.E.|.T. X|.|.",
"i.{.|.|.|./.2.@X|.|.|.|.|.6.E.|.s.2.G /.).2.@X& z #   9.3.~.}.>.P /.|./.2.XX|.|.|.|.|.3.E.|.y. X|.|.",
"T./.|.|.|./.2.XX|.|.|.|.|.3.E.|.H M 6   0.<.|.& O.B = n 3.~.>.: R & A./.6.@X|.|.|.|.|.3.E.|.!.|.|.|.",
"y._.|.|.|./.2.|.|.|.|.|.|.3.E.>.9 c.B.] % F |.>.M O.= n 2.& & OX,XoX& E <.}.|.|.|.|.|.3.E.|.|.|.|.|.",
"y.{.|.|.|./.2.|.|.|.|.|.|.3.5.y | [ ^ h._ < F v = z > # q # M. .) M.&.# <.|.|.|.|.|.|.3.E. X|.|.|.|.",
"T.{.|.|.|./.;.T.|.|.|. XT.I 3 d a 1 f 6 h.] * x Z.S.Z.> i m.^ W ' 6 I.N k Q.|.|.|.|.Q.1.T.|.|.|.|.|.",
"T.|.|.|.|./.Y E <.<.2.<.;.c 3 ! e =.-.-.( / / - l A.t &.K. .f.j.Q ' [ &.& E 2.<.2.<.T Y E.|.T.T.T.<.",
"}.}.|.|.|./.T Y./.Q.3.0.Y.Z . q - A -.-.S u h a . 6 K.m.k.] j.} z.j.' = t a./.~.3.0.Y.;.E.|.T.i.y.P ",
"|.|.|.|.|.^.<._.|.|.0.0.|.3.& % =.=.-.-.-.f . % ^ I.$.' j.j.j.h.j.j.8 & Y }.|.}.0.q.|.3.`. XT.i.y.P ",
"|.|.|.|.|./.<.|.|.|.q.q.|.3.(.w p A g -.g O 2 %.I.~ _ g.} ( s u + + >.E.<.|.|.|.0.q.|.3.`. Xi.y.i.1.",
"|.|.|.|.|./.<.|.|.|.e.W..X3.&X).& a e p + N N.m.` g.j.h.h.h.] # 2.E.}./.<.}.|.|.Y.E..X3.&XXXs.i.i.y.",
".X|.|.|.|./.<.|.|.|.}.XXXX3.&XXXp.@ ; ; $.I.m.= + 0 h.j.j.g.2 - p.|.}._.<.|.|.|._..X.X3.&XXXs.i.i.i.",
".X|.|.|.|./.<.|.|.|.!.{.|.3.&X@X|.G < N.N.~ + C C.= A h.' < O E.|.|.|./.<.|.|.|.^.^. X3.&XXXs.i.i.i.",
" X}.|.|.|./.2.|.|.|.{.|..X3.`. XU M b.n.` ' < B X.* _ W ; =.# G |.|.|./.<.|.|.|.{. X X3.'. Xs.i.i.i.",
" X|.|.|.|./.<.|.|.|.!.!.}.3.W.c ~ P.&.7 j.j./ - ,   X g r g { * P |.|./.<.|.|.|.!.T.|.0.'.XXT.i.i.i.",
" X|.|.|.|./.<.|.|.|././.}.P O %.P.x.$ f.h.j.g.A - r a r -.r ! g.* >.|./.<.|.|.|././.|.3.). X/.d.i.i.",
" X|.|.|.|./.<.|.|.|.|.|.}.= %.P.N.r.N ] { j.f.u   =.-.p a =.r h.f.e |./.<.|.|.|.|.|.|.3.). X{.{.T.!.",
" X|.|.|.|./.<.|.|.|.|.}. X& N v._ x.c.j.h.' + D O p -.-.-.-.=.=.] 7 |./.<.|.|.|.|.|.|.3./.|.|.|.|.|.",
"_.|.|.|.}./.<.|.|.|.|.|.|.w d j.j.h.h.j.' < o +.;Xq p -.-.-.-.-.u 2 |./.<.|.|.|.|.|.|.6.~.|.|.|.|.|.",
"|.|.|.|.}.^.<.|.|.|.|.|.|.<.* f.h.} j.' X F 3.q ;XA.. Z -.-.=.g f & |./.<.|.|.|.|.|.|.3.E.|.|.|.|.|.",
"_.|.|.|.|.Y.<.|.|.|.|.|.|.3.Z + { l.0 : I <.E.@ F.F.= . g -.-.% c E.|.u.<.|.|.|.|.|.|.3.u./.|.|.|.|.",
"<.<.<.<.E T <._.|.|.|.|.|.3.T c % * @ U T P v > $X>Xt 3.y e p # P <.<.T <.|.|.|.|.|.|.3.T <.<.<.<.<.",
"^.^.T Y.^.5.6.%X|.|.|.|.|.3.5.Q.T G ~.~.5.m Z.+.@ : t /.2.y v m u./.~.5.6.@X|.|.|.|.|.3.4.~.~././.!.",
"_.|.T |.|.^.2.%X|.|.|.|.|.3.E.|.|.|.}.}.^.v x @ V 4 x }.3.E.}.E ~.|.|.~.6.%X|.|.|.|.|.3.E.{.|.|.|.|.",
"|.|.E |.|./.<.|.|.|.|.|.|.3.E.|.|.|.|.|./.P &   O.z , 9.3.E.}.}.|.|.|./.<.|.|.|.|.|.|.3.E.|.|.|.|.|.",
"|.|._.|.|./.6.%X|.|.|.|.|.3.E.|.|.}.}./.Y.<.|.>.@.C z I 3.E.|.}.|.|.|./.6.%X|.|.|.|.|.3.E.|.|.}.{.{.",
"{.|.T.|.`.(.Y.-X|.|.|.|.|.3.E.|.}.!.i.i.t.1.}.>.C @.C n 3.E.}.d._.|.|./.7.-X|.|.|.|.|.3.E.|.{.T.i.i.",
"T.{./.*X|.(.E -X|.|.|.|.|.3.E.|.T.i.i.i.t.6.#X3.4 @.X.x E p.|.{.%X|.|./.7.-X|.|.|.|. X3.E.|.T.T.i.i.",
"y.{.T.%X|./.Y.&X|.|.|.|.|.3.E.|.s.y.i.i.t.6.@Xe.  C.X.# # D E.d.@X|.|./.7.=X|.|.|.|.|.3.E.|.T.y.i.i.",
"y.{.T.XX|./.2.%X|.|.|.|.|.3.E.|.d.i.i.i.t.E R.4   X.X.O M D.1.T. X|.|./.2.%X|.|.|.|.|.3.E.|.s.y.i.i.",
"i.{.|.@X|./.<.@X|.|.|.|.|.3.E.|.s.y.y.i.u.P w.B   z V ..V > 8.^.@X|.|./.6.@X|.|.|.|.|.3.E.|.s.y.y.i.",
"i.{.|.|.|./.6.XX|.|.|.|.|.3.E.|.d.i.i.y.4.P 8.3.n > 5 ..= I 8.A.|.|.|./.2.XX|.|.|.|.|.3.E.|.s.i.s.y.",
"i.{.|.|.|./.2.@X|.|.|.|.|.3.E.|.i.i.i.5.T T 8.p.3.L o.c m E 0.{.|.|.|./.2.XX|.|.|.|.|.3.Q.|.s.i.y.5.",
"i.{.|.|.|./.2.|.|.|.|.|.|.3.E.|.d.i.i.T P <.{./.3.3.3.3.G (._.|.|. X_./.<.|.|.|.|.|.|.3.E.|.s.i.y.T ",
"i.{.|.|.|./.<.|.|.|.|.|.|.3.E.|.T.y.y.Y P <.}.|.|.E.Y.^.3.'. X X|.|.|./.E  X|.|.|.|.|.3.E.|.s.y.y.Y ",
"i.{.|.|.|./.;.T.|. X|.|.T.<.Q. XT.y.y.P P T T.|.|.|.|.!.<.'. X|.|.|.|./.E !.|.|.|.|.!.1.E.|.a.y.y.P "
};
