/* XPM */
static char *flat_21730085040[] = {
/* columns rows colors chars-per-pixel */
"50 50 179 2 ",
"   c #222633",
".  c #202434",
"X  c #282938",
"o  c #2E2F39",
"O  c #3D3646",
"+  c #3D3844",
"@  c #3C3C45",
"#  c #45394A",
"$  c #484649",
"%  c #4C424C",
"&  c #514C48",
"*  c #4E4F52",
"=  c #544451",
"-  c #574953",
";  c #594E50",
":  c #5C4D56",
">  c #5C4E58",
",  c #5D4D5B",
"<  c #665B51",
"1  c #605058",
"2  c #645359",
"3  c #6A565E",
"4  c #6A5B5C",
"5  c #6E6155",
"6  c #67655C",
"7  c #67665D",
"8  c #68665D",
"9  c #786E5E",
"0  c #6D5962",
"q  c #6E5967",
"w  c #775F65",
"e  c #725A68",
"r  c #795D6B",
"t  c #7A5D6A",
"y  c #7D5E6C",
"u  c #7D6369",
"i  c #78606C",
"p  c #7F616D",
"a  c #82676B",
"s  c #82606D",
"d  c #82656F",
"f  c #8D636D",
"g  c #857562",
"h  c #857863",
"j  c #8D7C63",
"k  c #887069",
"l  c #876370",
"z  c #836771",
"x  c #876470",
"c  c #8D6373",
"v  c #836871",
"b  c #856B74",
"n  c #866F76",
"m  c #8E6A73",
"M  c #8D6F72",
"N  c #8C6C75",
"B  c #8E6F76",
"V  c #996974",
"C  c #9B6977",
"Z  c #9D6A76",
"A  c #877178",
"S  c #88747B",
"D  c #89757C",
"F  c #8C7979",
"G  c #987677",
"H  c #937279",
"J  c #97757A",
"K  c #98767B",
"L  c #9A7878",
"P  c #9E7A7E",
"I  c #A56D78",
"U  c #AA6E7A",
"Y  c #AB6F7B",
"T  c #A1717A",
"R  c #A5757C",
"E  c #AD707B",
"W  c #AE717C",
"Q  c #A9747C",
"!  c #A0797B",
"~  c #A37D7D",
"^  c #AB787F",
"/  c #AE7A7F",
"(  c #B0757D",
")  c #B2787F",
"_  c #9D977C",
"`  c #A28570",
"'  c #AE9977",
"]  c #A89E7F",
"[  c #B29A7A",
"{  c #BDA279",
"}  c #C1A27C",
"|  c #C2AA7F",
" . c #A37E80",
".. c #A97D81",
"X. c #B37A81",
"o. c #B47C81",
"O. c #B67F83",
"+. c #9F9A8A",
"@. c #AE8583",
"#. c #AC8384",
"$. c #AE8585",
"%. c #AE8987",
"&. c #A58988",
"*. c #AA8C88",
"=. c #B38385",
"-. c #B68084",
";. c #B78084",
":. c #B48687",
">. c #B88285",
",. c #B98487",
"<. c #B28987",
"1. c #B98588",
"2. c #BB8788",
"3. c #B08B8A",
"4. c #B58889",
"5. c #B68888",
"6. c #BA888B",
"7. c #BC8989",
"8. c #BC8A8B",
"9. c #B88D8B",
"0. c #BF8E8C",
"q. c #BF8E8D",
"w. c #B3908D",
"e. c #BF928E",
"r. c #B49490",
"t. c #B79994",
"y. c #B89B95",
"u. c #B3A884",
"i. c #BEA9A4",
"p. c #BDB7A0",
"a. c #C08F8D",
"s. c #C18F8D",
"d. c #C1918E",
"f. c #C2938F",
"g. c #C29390",
"h. c #C39490",
"j. c #C49591",
"k. c #C59892",
"l. c #C49893",
"z. c #C59894",
"x. c #C59994",
"c. c #C79B95",
"v. c #C69C96",
"b. c #C89D97",
"n. c #C89E98",
"m. c #C89F98",
"M. c #C99F98",
"N. c #D6B885",
"B. c #D3BC8C",
"V. c #C4A69E",
"C. c #C8A09A",
"Z. c #C9A39B",
"A. c #CAA39A",
"S. c #CBA49C",
"D. c #CBA69C",
"F. c #CBA69D",
"G. c #CDAA9F",
"H. c #CEABA1",
"J. c #CFADA2",
"K. c #C0ADA8",
"L. c #D1B1A5",
"P. c #D4B7AE",
"I. c #D5BCB2",
"U. c #DBC396",
"Y. c #D3C699",
"T. c #E2CA97",
"R. c #E3CE99",
"E. c #E3CD9A",
"W. c #E5D09C",
"Q. c #D6CCA6",
"!. c #DECFA0",
"~. c #E1D4A3",
"^. c #E6D5A2",
"/. c #EAD9A3",
"(. c #E5DCB8",
"). c #EFE1AA",
"_. c #F4EAC5",
"`. c #F2E9CB",
"'. c #F7F0D5",
/* pixels */
"d.h.h.h.h.9.z h.f.j.f.j.f.B w.l.f.j.f.j.9.s X.=.>.>.>.X.f ..d.h.h.h.h.9.v h.h.h.h.h.h.B w.l.f.q.;.;.",
"h.h.h.h.h.9.z h.j.f.j.f.j.B w.l.j.f.j.f.9.d s.d.j.j.d.s.N $.h.h.h.h.h.9.z h.h.h.h.h.h.B w.l.h.h.f.f.",
"h.h.h.h.h.9.z h.f.j.f.j.f.B $.j.f.j.f.j.9.z j.f.f.j.f.j.B $.h.h.h.h.h.9.z h.h.h.h.h.h.B $.f.h.h.h.f.",
"h.h.h.h.h.9.z h.j.f.j.f.j.B $.f.j.f.j.f.9.v f.j.j.f.j.f.B $.h.h.h.h.h.9.z h.h.h.h.h.h.B <.h.h.h.f.j.",
"s.j.f.j.d.Q z h.f.j.f.j.d.B T s.f.j.f.d.Q v j.f.f.j.f.j.B K s.s.d.j.d.Q v h.h.h.h.h.h.B T q.h.h.j.d.",
"d v v z z t z h.j.f.j.f.j.B t z v v v v t v f.j.j.f.j.f.B t z z v z v t z h.h.h.h.h.h.B t d v v v v ",
":.9.i ..4.Z n F.f.j.f.j.f.B V =.i R 9.4.Z v j.f.f.j.h.j.B V 1.i R 9.4.V n F.h.h.h.h.h.B V :.r R 9.4.",
"d.f.i d.d.4.n G.j.f.j.f.j.B $.d.i 4.j.d.4.v f.j.j.f.j.d.B #.d.i 9.h.h.1.n H.h.h.h.h.h.B #.d.i 4.j.f.",
"j.f.j.f.j.9.v f.j.f.j.f.h.B $.h.i V.f.j.9.n G.f.f.j.f.j.B $.f.j.j.f.j.9.v j.h.h.h.h.h.B $.h.i V.f.j.",
"f.j.d.j.f.9.A J.f.j.f.j.h.B $.h.f.l.j.f.9.v j.j.j.f.j.f.B $.f.d.j.d.f.9.n H.h.h.h.h.h.B $.h.j.h.j.f.",
"s.f.) j.j.9.S I.j.f.j.f.h.B $.h.d.J.f.j.9.v l.f.f.j.f.j.B $.f.X.d.j.d.9.D I.j.h.h.h.h.B $.h.d.J.f.j.",
"( s.d.L.f.9.S I.f.j.f.j.h.B $.h.X.D.j.f.9.A G.f.j.f.j.f.B $.d.d.J.j.j.9.D I.h.h.h.h.h.B $.h.X.F.j.f.",
"Y f.) G.f.8.S P.j.f.j.f.j.B $.h.j.j.f.j.9.n G.d.f.j.f.j.B %.d.W F.d.j.9.S P.f.j.h.h.h.B @.d.j.h.f.j.",
"Y s.O.A.d.9.n G.f.j.f.j.f.B $.h.7.d.j.f.9.n G.d.j.f.j.f.B =.f.>.x.j.j.9.n G.j.d.h.h.h.B :.j.7.d.j.f.",
"Y s.f.D.f.9.b A.j.f.j.f.j.B :.h.( l.f.j.9.n G.j.f.j.f.j.B $.f.j.C.j.h.9.b *.J @.h.h.h.B $.f./ l.f.j.",
"E s.f.f.j.9.b C.f.j.f.j.f.B @.f.( c.j.f.9.n C.f.j.f.j.f.B $.j.f.h.h.j.9.> @ 6 o 9.h.h.B $.d.( b.j.f.",
"E s.f.j.j.9.v C.h.h.h.h.f.B $.h.,.d.j.j.9.z h.h.h.h.h.h.N =.h.j.j.f.j.9.O p._.8 k f.f.B $.j.>.d.h.h.",
"W s.j.f.j.9.v j.h.h.h.h.h.B $.h.j.d.j.f.9.z h.h.h.h.h.h.A r.j.h.f.f.f.a . !.Q.# + ~ f.B $.f.j.j.h.h.",
"Y s.f.j.f.9.z d.h.h.h.h.h.B $.h.f.j.f.j.9.v h.h.h.h.h.h.B y.b.h.d.f.i $ B./.B.~._ 4 j.B $.j.f.j.h.h.",
"W q.j.f.j.9.s =.h.h.h.h.>.z $.h.j.f.j.f.9.p O.h.h.h.h.1.z y.v.h.<.& * (./.u.[ ^.g i 4.f $.f.j.f.h.h.",
"7.h.h.h.h.9.e s z z v v s e =.h.f.j.f.j.9.e s z v z z s e 3.j.K ; +.'.R.< X @ ; > v p e %.h.o.X.X.v ",
"h.h.h.h.h.9.y Q 9.1.m H ..s $.f.j.f.j.f.9.t Q ~ z =.$.= @ > % $ Y.`.U.9 # f ! ! x H W s $.h./ E E q ",
"h.h.h.h.h.9.z s.j.d.K K d.N y.l.f.j.f.j.9.v d.~ B s.w 8 ).u.j T.U.' k J s d.f.d.K K d.B t.l.( E E q ",
"h.h.h.h.h.9.z h.h.h.K K j.n y.C.j.f.j.f.9.v j.f.f.h.- ] ).R.} ` 5 2 #.9.v h.j.f.K K j.B y.v.( E E c ",
"h.h.f.j.f.9.v f.h.h.P &.v.B K.A.h.h.h.h.9.v h.d.d.j.a . & | N.o 1 <.f.9.v d.h.j.! &.C.B K.C.( E E Y ",
"x.h.j.f.j.9.v j.h.h.s.C.b.B i.A.h.h.h.h.9.z h.7.o.j.d.3 9 W.{ X d.j.j.9.v j.j.d.f.C.b.A K.D.( E E Y ",
"b.j.f.j.f.9.z f.h.h.8.7.j.B i.C.h.h.h.h.9.z j.1.7.A.4.i o g 4 k j.f.j.9.v j.d.j.2.7.l.m i.C.( E E E ",
"c.f.j.f.j.9.z j.h.h.s.x.b.B y.l.h.h.h.h.9.z j.1.6.A.j.L 0 F 3.j.f.j.f.9.z h.j.h.d.l.b.B y.l.( E E E ",
"l.j.f.j.f.9.z f.h.h.>.>.j.B y.x.h.h.h.h.9.z h.7.1.n.h.h.N y.c.h.j.f.j.9.z f.j.f.;.>.f.B y.b.X.E E E ",
"x.f.j.f.j.9.z j.h.h.7.7.j.B r.l.h.h.h.h.9.z h.7.7.x.h.h.B r.j.h.f.j.f.9.z j.f.j.7.7.f.H w.l.7.) E E ",
"l.j.f.j.f.9.z f.h.h.h.h.f.B w.l.h.h.h.h.9.v d.q.q.x.h.h.B w.x.j.j.f.j.9.z j.j.f.j.f.f.B w.l.d.s.;.=.",
"l.f.j.f.j.9.z j.h.h.h.h.h.B w.l.h.h.h.h.9.v h.s.7.j.j.j.B w.j.h.j.d.j.9.v d.f.j.f.j.h.B w.j.j.j.f.f.",
"j.f.j.f.h.9.z h.h.h.h.h.h.B #.j.j.f.j.f.9.v h.j.f.j.f.j.B $.d.j.f.j.f.9.z h.h.h.h.h.h.B #.h.h.h.h.h.",
"f.j.f.j.h.9.z h.h.h.h.h.h.B $.h.h.j.f.j.9.v j.d.j.f.j.f.B $.j.f.j.f.j.9.z h.h.h.h.h.h.B $.h.h.h.h.h.",
"s.j.j.f.d.Q v h.h.h.h.h.d.B T q.j.d.h.d.Q z j.j.f.j.f.j.B T d.f.j.d.d.Q v h.h.h.h.h.h.B T q.h.h.h.d.",
"z v v v z t z h.h.h.h.h.j.B t d v v z z t z d.j.j.f.j.f.B t d v v v v t v h.h.h.h.h.h.B t v v z v z ",
"=.9.i ..,.Z n F.f.j.f.j.j.B V :.6.9.9.4.Z v h.h.f.j.f.j.B V 4.i R 9.4.Z n F.h.h.h.h.h.B V =.9.9.7.7.",
"d.d.i d.h.4.n G.j.f.j.f.f.B $.d.h.h.j.h.1.v h.h.j.f.j.f.B $.d.i 7.h.h.4.n G.h.h.h.h.h.B #.d.h.h.f.f.",
"j.h.i h.h.9.v h.f.j.f.j.f.B $.f.h.h.h.h.9.n H.d.f.j.f.j.B $.d.d.h.h.h.9.v h.h.h.h.h.h.B $.h.h.h.d.h.",
"h.h.d.h.h.9.A J.j.f.j.f.j.B $.j.h.d.s.7...v h.h.j.f.j.f.B $.h.d.h.h.h.9.n J.h.h.h.h.h.B $.h.h.d.s.s.",
"s.d.X.j.j.9.S I.f.j.f.j.f.B $.f.s.O.( W I z h.h.f.j.f.j.B $.j.( f.f.j.9.S I.j.f.h.h.h.B $.h.d.=.E E ",
"( s.d.L.f.9.D I.j.f.j.f.j.B $.j.o.( Y Y Y N G.h.j.f.j.f.B $.j.e.J.j.f.9.D I.f.j.h.h.h.B $.h.O.E Y Y ",
"Y d.( G.j.9.S P.f.j.f.j.f.B $.f.( E Y W I n G.h.f.j.f.j.B $.j.( C.f.f.9.S P.j.f.h.h.h.B =.f.( Y Y ( ",
"Y s.;.C.f.9.n G.j.f.j.f.j.B $.j.( E E Y I n G.h.j.f.j.f.B $.j.o.b.f.j.9.A G.f.j.h.h.h.B $.h.( ( W Y ",
"E s.d.D.f.9.n A.f.j.f.j.f.B $.f.( W W W I n G.j.f.j.f.j.B $.h.h.D.j.f.9.b A.f.j.j.f.j.B $.h.W W Y W ",
"E s.f.j.j.9.v A.j.f.j.f.j.B $.j.( Y Y Y V v C.f.j.f.j.f.B $.l.f.f.f.j.9.b C.j.d.f.j.f.B $.h.( E W Y ",
"Y d.j.f.d.9.n C.f.j.f.j.f.B $.f.( Y Y V p z f.j.f.j.f.j.B =.f.j.f.j.f.9.v C.j.f.j.f.f.B $.f.( E E V ",
"E d.f.j.d.9.z f.j.f.j.f.j.B $.j.( ( Y t q z j.f.j.f.j.f.B r.j.f.j.f.j.9.v j.f.j.f.j.j.B $.j.( E E t ",
"E s.j.f.j.9.v j.j.f.j.f.j.B $.f.W W E q q v f.f.f.j.f.f.B y.c.f.f.j.j.9.v f.f.j.f.j.f.B $.j.( E E q ",
"E s.f.f.f.9.s ;.j.d.f.j.1.s =.j./ E E q q s ;.j.j.f.j.,.v y.b.f.j.f.f.9.s ;.j.f.j.f.1.x $.j.( Y E q "
};
