/* XPM */
static char *item1730085039[] = {
/* columns rows colors chars-per-pixel */
"50 50 153 2 ",
"   c #161C2E",
".  c #1D2132",
"X  c #23292F",
"o  c #212432",
"O  c #2B2B33",
"+  c #2D2C3B",
"@  c #322E35",
"#  c #302D38",
"$  c #313533",
"%  c #393635",
"&  c #3B3D36",
"*  c #3A3539",
"=  c #453C3A",
"-  c #4F3F3E",
";  c #3E4432",
":  c #51463C",
">  c #4B5133",
",  c #595937",
"<  c #646937",
"1  c #756A3F",
"2  c #707438",
"3  c #727938",
"4  c #393443",
"5  c #333848",
"6  c #413A46",
"7  c #453D4C",
"8  c #4A404B",
"9  c #574540",
"0  c #494854",
"q  c #574953",
"w  c #574A56",
"e  c #6A5145",
"r  c #745748",
"t  c #63515B",
"y  c #6C585E",
"u  c #726141",
"i  c #7E6943",
"p  c #6E5966",
"a  c #775F65",
"s  c #725A68",
"d  c #7B5D6B",
"f  c #7B616C",
"g  c #7C686C",
"h  c #6B7070",
"j  c #826946",
"k  c #947A48",
"l  c #8F6850",
"z  c #996E53",
"x  c #A27455",
"c  c #A57D51",
"v  c #AC7A58",
"b  c #855D6A",
"n  c #82646D",
"m  c #856B6E",
"M  c #836771",
"N  c #8D6373",
"B  c #846B73",
"V  c #8E6F76",
"C  c #906D71",
"Z  c #9B6975",
"A  c #877178",
"S  c #89757C",
"D  c #957476",
"F  c #987677",
"G  c #95747A",
"H  c #98767B",
"J  c #9D7A7D",
"K  c #A56D78",
"L  c #AB6F7B",
"P  c #A3737B",
"I  c #AD707B",
"U  c #A47E7E",
"Y  c #AC797F",
"T  c #B0757D",
"R  c #B2787F",
"E  c #7F8639",
"W  c #9AA03C",
"Q  c #B4B93F",
"!  c #9E804B",
"~  c #A2834B",
"^  c #A78C4B",
"/  c #A99548",
"(  c #AC8650",
")  c #B28357",
"_  c #BD8F56",
"`  c #BA9253",
"'  c #B6A847",
"]  c #BABE6D",
"[  c #BBBF79",
"{  c #C19455",
"}  c #C49C54",
"|  c #C7AE4F",
" . c #CBB54E",
".. c #CEBC4C",
"X. c #D6BC4F",
"o. c #C7A153",
"O. c #CDA554",
"+. c #D1AE52",
"@. c #D2B450",
"#. c #D5B850",
"$. c #D0CD46",
"%. c #D4C64B",
"&. c #D9C44E",
"*. c #DED44A",
"=. c #E2DD48",
"-. c #DCE242",
";. c #E6E746",
":. c #E7EB45",
">. c #E9F044",
",. c #ECF25B",
"<. c #D4D970",
"1. c #E0E565",
"2. c #E3E77D",
"3. c #EEF472",
"4. c #F0F57E",
"5. c #A97D81",
"6. c #B37B81",
"7. c #8B8D97",
"8. c #AE8585",
"9. c #A18886",
"0. c #A58988",
"q. c #B58385",
"w. c #B88386",
"e. c #BA8788",
"r. c #B58989",
"t. c #B98D8B",
"y. c #B3908D",
"u. c #BD938E",
"i. c #B49490",
"p. c #B79994",
"a. c #B89B95",
"s. c #C08F8D",
"d. c #C1928E",
"f. c #C39490",
"g. c #C59A94",
"h. c #C89E97",
"j. c #C89F98",
"k. c #C4A69E",
"l. c #CAA49C",
"z. c #CDAA9F",
"x. c #CEACA2",
"c. c #C0ADA8",
"v. c #D1B2A4",
"b. c #D4B7AE",
"n. c #D5BCB2",
"m. c #E2D88F",
"M. c #F2F696",
"N. c #F7F9B8",
"B. c #E5D5CB",
"V. c #F9FBD0",
"C. c #FBFCDC",
"Z. c #F1F1F2",
"A. c white",
/* pixels */
"d.f.f.f.f.t.M f.f.f.f.f.f.V y.g.f.f.f.f.t.f 6.w.w.w.6.6.N 5.d.f.f.f.f.t.M f.f.f.f.f.f.A y.f.f.t.w.w.",
"f.f.f.f.f.t.M f.f.f.f.f.f.V y.g.f.f.f.f.t.M t.f.f.f.f.s.V 8.f.f.f.f.f.t.M f.f.f.f.f.f.G y.g.f.f.f.d.",
"f.f.f.f.f.t.M f.f.f.f.f.f.V 8.f.f.f.f.f.t.M f.f.f.f.f.f.V 8.f.f.f.f.f.t.M f.f.f.f.f.f.V 8.f.f.f.f.f.",
"f.f.f.f.f.t.M f.f.f.f.f.f.V 8.f.f.f.f.f.t.M f.f.f.f.f.f.V 8.f.f.f.f.f.t.M f.f.f.f.f.f.V 8.f.f.f.f.f.",
"u.f.f.f.u.P M f.f.f.f.f.f.V P t.f.f.f.f.P B f.f.f.f.f.f.V P t.f.f.f.f.P M f.f.f.f.f.f.V P t.f.f.f.d.",
"n M M M M d M f.f.f.f.f.f.V d g M M M M d M f.f.f.f.f.f.V d M M M M M d M f.f.f.f.f.f.V d M B M M M ",
"r.t.f Y e.Z A l.f.f.f.f.f.V Z q.d P t.r.Z M f.f.f.f.f.f.B Z q.f P t.r.Z A x.f.f.f.f.f.V Z q.f P t.r.",
"d.d.f d.d.r.A x.f.f.f.f.f.V 8.f.f r.f.f.r.M f.f.f.f.f.f.D 8.u.f e.f.g.8.B z.f.f.f.f.f.V 8.t.f r.f.f.",
"f.f.f.f.f.t.M f.f.f.f.f.f.V 8.f.f k.f.f.t.A z.f.f.f.f.f.V 8.f.f.f.f.f.t.M f.f.f.f.f.f.V 8.f.d x.f.f.",
"f.f.u.f.f.t.A x.f.f.f.f.f.V 8.f.u.f.f.f.t.M f.f.f.f.f.f.V 8.f.s.f.f.f.t.A x.f.f.f.f.f.V 8.f.f.g.f.f.",
"s.f.R g.f.t.S n.f.f.f.f.f.V 8.f.d.x.f.f.t.M f.f.f.f.f.f.V 8.f.6.u.f.f.t.S n.f.f.f.f.f.V 8.f.d.x.d.f.",
"R s.t.v.d.t.S n.f.f.f.f.f.V 8.f.6.z.f.f.t.A z.f.f.f.f.f.V q.f.t.x.f.f.t.S n.f.f.f.f.f.V 8.f.6.l.f.f.",
"I s.R z.f.t.S b.f.f.f.f.f.D 8.f.f.f.f.f.y.A z.f.f.f.f.f.V 8.f.Y l.f.f.t.A b.f.f.f.f.f.V 8.f.f.f.f.f.",
"I s.6.l.d.t.B z.f.f.f.f.f.V 8.f.e.d.f.f.t.B z.f.f.f.f.f.V 8.f.6.g.f.f.t.A x.f.f.f.f.f.V 8.f.t.s.f.f.",
"I s.d.l.f.t.B l.f.f.f.f.f.V 8.f.Y g.f.f.t.A x.f.f.f.f.f.A 8.f.f.x.u.f.t.M l.f.f.f.f.f.V 8.f.T g.f.f.",
"I s.d.f.f.t.B l.f.f.f.f.f.V 8.f.T h.f.f.t.M h.f.f.f.f.f.D q.f.f.f.f.f.t.M h.f.f.f.f.f.V 8.f.T g.f.f.",
"L t.f.f.f.t.B h.f.f.f.f.f.V 8.f.w.d.f.f.t.M f.q 4 y d.d.D 8.d.f.f.f.f.y.B j.f.f.f.f.f.V 8.f.r.d.f.f.",
"I u.f.f.f.t.M f.f.f.f.f.f.V q.f.f.f.f.f.t.M f.8 W , q d.V y.g.f.f.f.f.t.M f.f.f.f.f.f.V 8.f.f.f.f.f.",
"I s.f.f.f.t.M f.f.f.f.f.f.V 8.f.f.f.f.f.t.g t & *.=.Q y m a.h.d.f.f.f.t.M g.f.f.f.f.f.V 8.f.f.f.f.f.",
"I s.f.f.f.t.n w.f.f.f.f.w.M 8.f.f.f.f.f.t.w 5 h < %.+.u 7 a.h.f.f.f.f.t.f 6.f.f.f.f.w.N q.f.f.f.f.f.",
"s.f.f.f.f.t.s n M M M M f s 8.f.f.U 6 + + . 0 Z.7.% : * w r.f.f.f.f.f.t.s b M B M M b s 8.f.6.6.6.M ",
"f.f.f.f.f.t.f P t.r.V G Y n 8.f.a   3 <.N.2.3 0 [ E + 5.d 8.f.f.f.f.f.r.d 5.t.8.V G 5.b 8.f.R L T p ",
"f.f.f.f.f.t.M d.f.d.G G d.V a.u.o > >.V.A.A.3.' X $ 4 f.V 8.f.f.f.f.f.t.M u.f.f.G H f.B p.g.6.L I p ",
"f.f.f.f.f.t.M f.f.d.H H d.V 9.w > -.>.V.v.B.3.*.i o t.f.V 8.f.f.f.f.f.t.M f.f.f.H H f.V a.h.I L L N ",
"f.f.f.f.f.t.M f.f.f.J 0.g   $ : / , . . x m.,.;.O.= y f.V r.u.f.f.f.f.t.M f.f.f.J 0.h.V c.l.R L T L ",
"g.f.f.f.f.t.M f.f.f.d.m ; ] 1.@.!   ^ Q  . .>.=.O.i y f.V a.h.f.f.f.f.t.M f.f.f.d.h.h.V c.j.T L L L ",
"g.f.f.f.f.r.M g.f.f.U & <.A.N.:./   O ! -.>.>.&.O.j y f.A a.h.d.f.f.f.t.M f.f.f.e.t.f.V c.h.R L I I ",
"g.f.f.f.f.t.M f.d.d.q 2 M.C.4.) $.< < % r X.&.o.) r y d.V a.h.f.f.f.f.t.M f.f.f.s.g.h.V a.g.Y I I I ",
"h.f.f.f.f.t.M f.f.f.w ^ :.>.:.| l $ Q , 1 o.v v x = m f.V a.h.d.f.f.f.t.M f.f.f.6.w.f.V a.g.6.I I I ",
"g.f.f.f.f.t.M f.f.f.w ~ ;.>.>.*.c z j   Q =.{ v -   d.f.V y.g.d.f.f.f.t.M f.f.f.s.e.f.V i.g.e.6.I I ",
"f.f.f.f.f.t.M f.f.f.w k X.:.>...@.>.;.:.>.;.{ v z O F f.V y.g.f.f.f.f.t.M f.f.f.f.f.f.V t.f.d.s.6.w.",
"g.f.f.f.f.t.M f.f.d.q.: } &.=.>.>.>.>.>.>.&._ v x @ y d.V y.g.f.f.f.f.t.M f.f.f.f.f.f.V u.f.f.f.f.f.",
"u.f.f.f.f.t.M f.f.f.r.# ! O.O.#.&.*.*.=.#.O.) v r   U d.V 8.f.f.f.f.f.t.M f.f.f.f.f.f.V 8.f.f.f.f.f.",
"f.f.f.f.f.t.M f.f.f.U a $ ~ O.O.O.o.O.O.} ) v e o 4 F d.V 8.f.f.f.f.f.t.M f.f.f.f.f.f.V 8.f.f.f.f.f.",
"t.g.f.f.f.P M f.f.f.U V y . = e c ` ( x 9 7 @ X 8 g F f.V P t.f.f.f.d.P M f.f.f.f.f.f.V P u.f.f.d.d.",
"M M M M n d M f.f.f.u.8.V p 4 4 + + + 4 4 8 n C C P u.f.V d M M M M M d M f.f.f.f.f.f.V d M M M M M ",
"r.t.f 5.r.Z A z.f.f.f.f.u.m b C B B M M t w ) 8.u.u.f.f.D Z q.f P u.r.Z A z.f.f.f.f.f.V Z q.r.t.t.w.",
"f.f.d f.f.r.B x.f.f.f.f.d.V 8.u.f.f.f.f.6.5.a.f.d.d.f.f.B 8.u.f r.f.f.r.B z.f.f.f.f.f.V 8.u.f.d.f.f.",
"f.f.d f.f.t.M f.f.f.f.f.f.V 8.d.f.f.f.u.i.5.x.d.d.f.f.f.D 8.f.f.f.f.f.t.M f.f.f.f.f.f.V 8.f.f.f.d.d.",
"f.f.t.f.f.t.A x.f.f.f.f.f.V 8.d.f.s.s.r.5.s f.f.f.f.f.f.V 8.f.s.f.f.f.t.A x.f.f.f.f.f.V 8.f.f.d.s.s.",
"s.d.R g.d.t.S n.f.f.f.f.f.V 8.f.d.6.T I L M f.f.f.f.f.f.V 8.d.6.f.f.d.t.S n.f.f.f.f.f.V 8.f.d.q.I I ",
"R s.s.v.f.t.S n.f.f.f.f.f.V 8.f.6.I I I L B z.f.f.f.f.f.V q.f.t.x.f.d.t.S n.f.f.f.f.f.V 8.f.w.I I I ",
"L s.I z.f.t.S b.f.f.f.f.f.V 8.f.T I I L K B x.f.f.f.f.f.V 8.f.R l.d.f.u.S b.f.f.f.f.f.V q.d.R L L I ",
"L s.q.l.f.t.B z.f.f.f.f.f.V 8.f.T I I T K A z.d.f.f.f.f.V 8.f.q.h.f.d.t.A z.f.f.f.f.f.V 8.d.R L T L ",
"T s.d.l.f.y.B l.f.f.f.f.f.V 8.f.R L L L K A x.f.f.f.f.f.V 8.f.f.l.f.f.t.B l.d.f.f.f.f.V 8.f.Y I I I ",
"L s.d.d.u.t.B l.f.f.f.f.f.V q.f.R I L L Z M l.f.f.f.f.f.V 8.f.f.d.f.f.t.M l.d.f.f.f.f.V 8.f.R L I L ",
"I d.f.f.f.t.B l.f.f.f.f.f.V 8.f.I I L Z d M f.f.f.f.f.f.V 8.f.f.f.f.f.t.B l.f.f.f.f.f.V q.d.T L L Z ",
"I d.f.f.f.t.M f.f.f.f.f.f.V 8.f.R I I d p M f.f.f.f.f.f.V y.g.f.f.f.d.y.M f.f.f.f.f.f.V 8.d.T I I d ",
"I s.f.f.f.t.M f.f.f.f.f.f.V 8.f.Y L I s p M f.f.f.f.f.f.V a.h.d.f.f.f.t.M f.f.f.f.f.f.V 8.d.R L I s ",
"I s.f.d.f.t.b w.f.f.f.f.w.M q.f.R L L p p d w.f.f.f.f.w.N a.g.d.f.f.f.t.f w.f.f.f.f.w.N 8.f.Y I L p "
};
