/* XPM */
static char *monster1730085039[] = {
/* columns rows colors chars-per-pixel */
"50 50 197 2 ",
"   c #161C2E",
".  c #1A1E32",
"X  c #1C2132",
"o  c #1B2E32",
"O  c #1E2C38",
"+  c #1C3835",
"@  c #212434",
"#  c #262835",
"$  c #22253A",
"%  c #28273C",
"&  c #2C2C3A",
"*  c #332F3E",
"=  c #283635",
"-  c #21313C",
";  c #35323D",
":  c #3A373E",
">  c #1E4237",
",  c #2F4E3B",
"<  c #23543B",
"1  c #27673F",
"2  c #2D2C45",
"3  c #2E2B48",
"4  c #332D4A",
"5  c #263C44",
"6  c #363340",
"7  c #3A3444",
"8  c #3E3943",
"9  c #35334D",
"0  c #393552",
"q  c #383851",
"w  c #413A46",
"e  c #423554",
"r  c #433D5B",
"t  c #463762",
"y  c #523E6F",
"u  c #2B464B",
"i  c #345043",
"p  c #325454",
"a  c #365C59",
"s  c #286941",
"d  c #346841",
"f  c #297042",
"g  c #39764A",
"h  c #3F6963",
"j  c #464546",
"k  c #4C4349",
"l  c #58474A",
"z  c #554A4C",
"x  c #55514D",
"c  c #5C534E",
"v  c #4D4351",
"b  c #574953",
"n  c #584955",
"m  c #664C4E",
"M  c #714F5C",
"N  c #685955",
"B  c #68555F",
"V  c #6C585F",
"C  c #725C57",
"Z  c #456141",
"A  c #557948",
"S  c #76625C",
"D  c #756858",
"F  c #7C6B5E",
"G  c #51436C",
"H  c #5E4868",
"J  c #554773",
"K  c #5F457C",
"L  c #5D4878",
"P  c #635561",
"I  c #685460",
"U  c #6D5965",
"Y  c #7D5663",
"T  c #775B66",
"R  c #7A5D6B",
"E  c #416766",
"W  c #417168",
"Q  c #6E616A",
"!  c #776165",
"~  c #7B616C",
"^  c #90674D",
"/  c #A87652",
"(  c #855C73",
")  c #82666B",
"_  c #886A6C",
"`  c #93626E",
"'  c #867361",
"]  c #8A7266",
"[  c #9B7869",
"{  c #836671",
"}  c #8D6373",
"|  c #846A73",
" . c #8E6F74",
".. c #906A71",
"X. c #9B6976",
"o. c #8A7277",
"O. c #89757C",
"+. c #997577",
"@. c #967478",
"#. c #997679",
"$. c #937D7B",
"%. c #A57A6A",
"&. c #AB6F7B",
"*. c #A3737B",
"=. c #AD707B",
"-. c #A27D7D",
";. c #AD797F",
":. c #B0757D",
">. c #B2787F",
",. c #2D8346",
"<. c #2F8C48",
"1. c #308D48",
"2. c #349F4C",
"3. c #3D8A5F",
"4. c #38B251",
"5. c #5B884C",
"6. c #5E9E51",
"7. c #4EB153",
"8. c #5BBF57",
"9. c #7BB659",
"0. c #64C359",
"q. c #72C85C",
"w. c #AD814F",
"e. c #85BE5C",
"r. c #A58F6E",
"t. c #B98263",
"y. c #B0837A",
"u. c #AE9174",
"i. c #B89C77",
"p. c #C18559",
"a. c #C89856",
"s. c #D9945F",
"d. c #DC9C5D",
"f. c #E1A859",
"g. c #E7B555",
"h. c #EABB53",
"j. c #CB8C60",
"k. c #D59467",
"l. c #CE9477",
"z. c #CC947C",
"x. c #87C75E",
"c. c #89D160",
"v. c #95D562",
"b. c #F1CC4E",
"n. c #ECC151",
"m. c #FFEC44",
"M. c #FBE248",
"N. c #FFEF56",
"B. c #FFF067",
"V. c #FFF176",
"C. c #694C86",
"Z. c #6A4D87",
"A. c #7D578B",
"S. c #775396",
"D. c #825C89",
"F. c #825997",
"G. c #8F6298",
"H. c #936490",
"J. c #A97D81",
"K. c #B37B81",
"L. c #A56F9A",
"P. c #A8719A",
"I. c #9B8685",
"U. c #AD8484",
"Y. c #AC8B87",
"T. c #B68285",
"R. c #B88386",
"E. c #B98A86",
"W. c #B58988",
"Q. c #B98D8B",
"!. c #B3908D",
"~. c #BF918C",
"^. c #B69892",
"/. c #B89B95",
"(. c #B6A793",
"). c #BEA9A4",
"_. c #C08F8D",
"`. c #C2928E",
"'. c #C39490",
"]. c #C59994",
"[. c #C89E97",
"{. c #C89F98",
"}. c #CAA49C",
"|. c #CDAA9F",
" X c #CEACA2",
".X c #C0ADA8",
"XX c #D5BCB2",
"oX c #DFC592",
"OX c #E1CA96",
"+X c #EAD693",
"@X c #FFF48A",
"#X c #ECDBA6",
"$X c #EFE1AB",
"%X c #FFF8B4",
"&X c #FFF9C4",
"*X c #FFFAD0",
"=X c white",
/* pixels */
"`.'.'.'.'.Q.{ '.'.'.'.'.'. .!.].'.'.'.'.Q.~ K.R.R.R.R.K.} J.`.'.'.'.'.Q.{ '.'.'.'.'.'.o.!.].'.R.R.R.",
"'.'.'.'.'.Q.{ '.'.'.'.'.]. .!.].'.'.'.'.Q.{ Q.'.'.'.'.Q. .U.'.'.'.'.'.Q.{ '.'.'.'.'.]. .!.].'.'.'.'.",
"'.'.'.'.~.Q.{ '.'.'.'.'.'. .U.'.'.'.'.'.Q.{ '.'.'.'.'.'. .U.'.'.'.'.'.Q.{ '.'.'.'.'.'. .U.'.'.'.'.'.",
"'.'.'.'.'.Q.{ '.'.'.'.'.'. .U.'.'.'.'.'.Q.{ '.'.'.'.'.'. .U.'.'.'.'.'.Q.{ '.'.'.'.'.'. .U.'.'.'.'.'.",
"~.`.'.'.'.*.| '.'.'.'.'.'. .*._.'.'.'.'.=.{ '.'.'.'.'.'. .*.Q.'.'.'.'.*.{ '.'.'.'.'.'. .J.R.'.'.'.'.",
"{ { | { { R { '.'.'.'.'.'. .R { { { | { R { '.'.'.'.'.'. .R { { { { { R { '.'.'.'.'.'. .R { { ~ { { ",
"W.Q.~ ;.W.X.o.}.l.l.k.`.y.%.t.y.~ *.Q.W.X.{ '.'.'.'.'.'. .X.W.R *.Q.W.X.o. X'.'.'.'.'. .X.W.~ J.Q.W.",
"~.`.~ `.`.W...k.s.s.l._.%.t.t.t.[ R.'.'.W.{ '.'.'.'.'.'. .U.~.~ Q.'.'.Q.| }.'.'.'.'.'. .J.'.~ W.'.'.",
"`.'.'.'.'.Q.j.s.h.d.`.`.'.@.y.y.[ r.'.'.!.o.|.'.'.'.'.'. .U.'.'.'.'.'.Q.~ '.'.'.'.'.]. .U.'.R  X'.'.",
"'.'.`.'.'.l.k.b.m.f.z.`.'. .U.'._.E.'.'.Q.{ '.'.'.'.'.'. .U.'._.'.'.'.Q.o. X'.'.'.'.'. .U.`.`.'.'.'.",
"Q.`.K.].`.l.s.M.b.s.k.z.`. .U.'._. X'.'.Q.{ `...U +.'.'. .U.'.K.'.'.'.Q.H.XX/.'.'.'.'. .U.'._. X'.'.",
"K.`.~. X`.) p.h.h.g.s.k.s.%.Y.'.K.}.'.~.Q.o.|.b 9   V '. .U.'._. X'.'.Q.r.)./.'.'.'.'. .U.'.K. X'.'.",
"=._.>.|.`._ p.d.M.m.g.k.s.s.l.`.'.'.'.'.Q.o..Xb H G.3   I U.'.K.}.'.'.Q.O.XX'.'.'.'.'. .U.'.'.'.'.'.",
"=._.K.}.`.) l s.b.&Xm.M.n.g.s.l.Q._.'.'.Q.o.^.  ( G.S.3 . w '.K.].'.'.Q.| |.'.'.'.'.'. .U.'.Q._.'.'.",
"=._.`.}.'.Q.@ p.g.B.N.V.m.m.n./ ( Q.R `.Q.~ 7 e L.S.P.D.3   6 Q.}.'.'.#.X   w '.'.'.'.H.U.'.K.].'.'.",
"=._.'.'.'.Q.U m s.b.m.%X*Xm.M.w.m W.  @ U b % P.G.G.P.y 9       : Q.-.@ 5.6.w '.'.`.`. .U._.K.].'.'.",
"&.~.'.'.'.Q.| b ^ s.b.B.*X%Xm.a.l ;.= x.d   % P.S.F.H 9 $ K S.r 2   0 = x., #.].`.'.'.o.U.'.R.'.'.'.",
"&.~.'.'.'.Q.{ '.& ^ f.m.V.=XB.g.C W.j v.c.,.+ y S.Z.G t S.S.G r 0 .   Z 8., @.'.`.'.`. .U.'.'.'.'.'.",
"&.Q.'.'.'.Q.{ '.-.X ^ M.N.@X+Xa.l `.n Z v.8.4.u K L S.S.K r 0 % . t 4 . 1 i U.'.'.'.`.o.U.'.'.`.'.'.",
"&._.'.'.'.Q.) T.'.) c OXOX$X$XD w `._ o 9.q.4.h u K Z.G r r t J S.Z.v 0   8 `.`.'.'.R.} T.'.'.`.'.'.",
"_.'.'.'.`.Q.T R | n : x #X$XOXr.w '.'.n = c.4.3.h J S.S.S.S.S.Z.G r r r 9 ; { { | | R U U.].K.K.K.{ ",
"'.'.'.'.`.Q.~ J.Q.~ , z.oXD F (.w '.)     5.4.3.h J S.S.S.Z.r r r r r r 9   o.W. .+.K.R U.'.K.=.&.U ",
"'.'.'.'.].Q.{ `.`.) j i.c * r.c w Q.6 e 2 1 7.W h   S.L r r r 4 .           & U.@.#.'. ./.].K.&.&.U ",
"'.'.'.'.`.Q.{ '.`.-.X         & U.U.% P.A.o 3.E + L S.Z.0 $     + ,.4.4.0.7.< & { #.'. ./.].:.&.=.} ",
"'.'.'.'.'.Q.{ '.`.]. .X w N z w `.U.% L.L.L.G.S.S.S.S.q     p 3.4.4.4.4.0.v.c.d X I.[. ..X}.J.=.=.&.",
"].'.'.'.'.Q.{ '.`.].`.& l ] S w `.U.% L.G.G.G.G.S.S.K - u a h 3.4.4.4.4.4.8.c.v.Z 3 U. ..X{.:.=.=.=.",
"{.'.'.'.'.Q.{ '.`.`.R...z ] S w `.U.@ H.G.F.S.S.S.S.t   X u W W 3.f X   o 1 2.4.4.1.. U .X[.=.=.=.=.",
"].'.'.'.'.Q.{ '.`.`.`.+.8 C S w `.Q.; X y S.S.S.S.S.t   - W W W p o u X w ) &   < 2., v /.'.K.=.=.=.",
"].'.'.'.'.!.{ '.'.'.E._ X 8 ;   B `.b 9 9 3 G K Z.K r O - h W W W W W p w '.`.{ b     v /.].K.=.=.=.",
"].'.'.'.'.Q.{ '.'.'.+.@ Z =   <.g W.b r S.S.S.S.S.S.Z.r O - W W W W W 5 w '.'.'.Q.Q.`. .!.].R.K.=.=.",
"].'.'.'.'.Q.{ '.`.`.~ o 9.v.A + <.+.b y y y S.S.S.S.S.L r 2 O a W W 5   n ].'.'.'.'.'. .Q.].'._.K.R.",
"].'.'.'.'.Q.{ '.].].~ > 7.c.e., o b :     0 S.S.S.S.G r r r r 3 E E 0 0 . +.'.'.'.'.'. .Q.].'.'.'.'.",
"'.'.'.'.'.Q.{ '.'.'.) > 4.4.4.>       4 Z.S.S.S.S.Z.r r r r r r q 9 r r 2 & I U.'.'.'. .T.'.'.'.'.'.",
"'.'.'.'.'.W.{ '.'.'.'.% 1.4.2.o b @.      4 t t t 0 q r r v r r 2 3 9 q % o < & U.'.`.o.U.].'.'.'.'.",
"Q.].'.'.~.J.{ '.'.'.'.U.&       +.U.& u.i.' N D l D x w         k z 6 k ; s 4.s w '.'...*.Q.'.'.'.'.",
"{ { { { { R { '.'.'.'.'.w X k & B T       8 C D z D x 8 [ N [ # ! ] $ j ; <.4.1.w '.'.o.R { ) | { { ",
"T.Q.~ J.W.X.|  X'.'.'.'.w & ] ; @.V % r 0 2 2 2 2 2 2 2         # ;       g 4.s e '.'. .X.U.Q.Q.Q.W.",
"`.'.~ ~.'.W.|  X'.'.'.'.U.&   I #.. Z.S.S.Z.L L r r r r v 9   C N   F :       & U.'.'. .U.`.'.'.'.'.",
"'.'.~ '.'.Q.{ _.'.'.'.'.'.o.T.'.+.  . X t t r t r r r 0 2 $ N S ;   ; F k w '.'.'.'.'. .U.'.'.'.'.'.",
"'.'.~.'.'.Q.O. X'.'.'.'.'. .U.'.`._._._ *   X &         q   z X ;     & j I.'.'.'.'.[...U.'.'.Q._._.",
"_.'.K.].'.Q.O.XX'.'.'.'.'. .U.].R.X.` M 7 X T  ... . ...I k z Y _ T X   Q ).Q.'.'.'.'. .U.'.'.K.=.=.",
"K._.Q. X'.Q.O.XX'.'.'.'.'. .T.J.( Y ) M   # $. . .] o.] I ~  ._ r. .# = P I. .U.'.'.'. .U.'.R.=.=.=.",
"&._.K. X'.Q.O.XX'.'.'.'.'. .#. .^ Y M     k $. . .] ..o.B ~  .Y H.] #   6 I. ._ W.'.'. .R.'.;.&.=.&.",
"&._.K.{.~.Q.|  X'.'.'.'.'. .Y.U.M ( ) M ( m $. . . .o...V ~ _ ) o.o.o.~ J r. .J.'.'.'.@.U.'.:.&.=.=.",
"&._.'.}.'.Q.| }.'.'.'.'.'. .U.'.&.` ` ( Y P $._ ..o.o.] U ~  .| $. . ._ U !.Q.'.'.'.]. .U.'.J.&.=.=.",
"=._.'.'.'.Q.| {.'.'.'.'.'. .U.'.:.&.&.&.X.{ Y.U.y.U.J.y.~ #.y.U.y.!.`.!.| {.].'.'.'.'. .U.].:.&.=.=.",
"=._.'.'.'.Q.| {.'.'.'.'.'. .U.].K.&.K.X.R { '.'.'.'.^.`. .U.'.'.'.'.`.Q.| {.'.'.'.'.'. .R.'.:.&.=.X.",
"=._.'.'.].Q.{ '.'.'.'.'.'. .U.'.=.&.&.~ U ~ '.'.'.'.'.'. .!.].'.'.`.`.!.{ '.'.'.'.'.'...U.'.:.=.=.R ",
"=._.'.'.'.Q.{ '.'.'.'.'.'. .U.'.K.&.=.U U { '.'.'.'.'.]. ./.].'.'.'.'.Q.| `.`.'.'.'.'. .U.'.:.=.=.U ",
"=._.'.'.'.Q.{ K.'.'.'.'.T.} U.'.:.&.&.U U { K.'.'.'.'.R.} /.].'.'.'.'.Q.) T.'.'.'.'.R.} U.'.:.=.=.U "
};
