/* XPM */
static char *player1730085039[] = {
/* columns rows colors chars-per-pixel */
"50 50 200 2 ",
"   c #161C2E",
".  c #181F32",
"X  c #1B2235",
"o  c #1D253B",
"O  c #1C2A3C",
"+  c #212534",
"@  c #242935",
"#  c #26283A",
"$  c #2D2D3A",
"%  c #342E3E",
"&  c #34343D",
"*  c #39373F",
"=  c #232C44",
"-  c #282F45",
";  c #213649",
":  c #29334A",
">  c #363241",
",  c #3C3342",
"<  c #3C3943",
"1  c #343A48",
"2  c #2A3551",
"3  c #2C3854",
"4  c #313C5C",
"5  c #413A46",
"6  c #443B49",
"7  c #503E4C",
"8  c #3F4145",
"9  c #294957",
"0  c #2B4C55",
"q  c #374567",
"w  c #364D6B",
"e  c #2B5364",
"r  c #2F5B6E",
"t  c #345A6B",
"y  c #3C4C71",
"u  c #2F5E70",
"i  c #3D5778",
"p  c #38686D",
"a  c #36687A",
"s  c #3C737B",
"d  c #464144",
"f  c #4C424B",
"g  c #4C4B4B",
"h  c #544C4A",
"j  c #54524F",
"k  c #5E554E",
"l  c #4B4952",
"z  c #584754",
"x  c #564953",
"c  c #5C4B59",
"v  c #5A5556",
"b  c #674D5B",
"n  c #714F5C",
"m  c #6A5F53",
"M  c #61515B",
"N  c #68545F",
"B  c #665958",
"V  c #6C585F",
"C  c #71515F",
"Z  c #69635A",
"A  c #756858",
"S  c #7A695D",
"D  c #5D5B62",
"F  c #404E75",
"G  c #405579",
"H  c #40557A",
"J  c #635560",
"K  c #6E5967",
"L  c #7D5663",
"P  c #725A68",
"I  c #7B5D6B",
"U  c #6E6863",
"Y  c #786664",
"T  c #7C616C",
"R  c #7B7462",
"E  c #756D73",
"W  c #6D717C",
"Q  c #82725D",
"!  c #866B66",
"~  c #82676C",
"^  c #8D7B63",
"/  c #8B7968",
"(  c #977B6B",
")  c #836671",
"_  c #8D6373",
"`  c #846A73",
"'  c #8E6F74",
"]  c #9B6975",
"[  c #887376",
"{  c #89757C",
"}  c #947375",
"|  c #987677",
" . c #96767A",
".. c #9C7A7A",
"X. c #AB6F7B",
"o. c #A3737B",
"O. c #AD707B",
"+. c #A77B7F",
"@. c #B0757D",
"#. c #B2787F",
"$. c #86836D",
"%. c #968068",
"&. c #9B836B",
"*. c #8F8B73",
"=. c #A58E6D",
"-. c #A68971",
";. c #AC9778",
":. c #B49875",
">. c #BDA279",
",. c #C3A67D",
"<. c #C9AB7E",
"1. c #3E6683",
"2. c #3E6D89",
"3. c #3F7C85",
"4. c #3E748D",
"5. c #3A798C",
"6. c #3D7E92",
"7. c #40788A",
"8. c #AC7D81",
"9. c #B37B81",
"0. c #3E8296",
"q. c #3E8698",
"w. c #458789",
"e. c #438E9B",
"r. c #558B94",
"t. c #49969C",
"y. c #5A969B",
"u. c #689593",
"i. c #779991",
"p. c #51A09C",
"a. c #4C9CA1",
"s. c #52A5A5",
"d. c #55ABA9",
"f. c #59B2AC",
"g. c #6EB6A9",
"h. c #8E8A8E",
"j. c #AE8585",
"k. c #A88887",
"l. c #B58285",
"z. c #B88386",
"x. c #B38987",
"c. c #B68988",
"v. c #B98D8B",
"b. c #B3908D",
"n. c #B69792",
"m. c #B89B95",
"M. c #90A995",
"N. c #AEAA8C",
"B. c #B6AC87",
"V. c #979BA6",
"C. c #9CA3B6",
"Z. c #BEAAA4",
"A. c #BEBBAB",
"S. c #C08F8D",
"D. c #C1928E",
"F. c #C79C8D",
"G. c #C39490",
"H. c #C59A94",
"J. c #C89F98",
"K. c #C6AB86",
"L. c #CCAD81",
"P. c #C9B58A",
"I. c #D5B583",
"U. c #D5B886",
"Y. c #D9BD8A",
"T. c #CAA49B",
"R. c #CDAA9F",
"E. c #C8BD93",
"W. c #D2BA93",
"Q. c #CEABA2",
"!. c #C0ADA8",
"~. c #D1B1A5",
"^. c #D4B7AE",
"/. c #D5BCB2",
"(. c #A3CCAC",
"). c #DCC28E",
"_. c #CEC798",
"`. c #DDC493",
"'. c #D8C89A",
"]. c #E1CB96",
"[. c #E4CE99",
"{. c #E5D29D",
"}. c #DFD7A6",
"|. c #D8CCB1",
" X c #E9DBA6",
".X c #EBDCB9",
"XX c #E7E2AA",
"oX c #EFE1AB",
"OX c #F0E3B2",
"+X c #F1E8BB",
"@X c #DEDBD3",
"#X c #E9DBC7",
"$X c #EFE3CD",
"%X c #F4EAC6",
"&X c #F5EDD0",
"*X c #F7F1D5",
"=X c #F9F4DF",
"-X c #EBE8E3",
";X c #FAF6E9",
":X c #FEFDF9",
/* pixels */
"D.G.G.G.G.v.) G.G.G.G.G.G.' v.H.G.G.G.G.v.~ 9.9.z.z.z.9._ 8.S.G.G.G.G.v.) G.G.G.G.G.G.' b.H.G.v.z.l.",
"G.G.G.G.G.v.) G.G.G.G.G.G.' b.H.G.G.G.G.v.~ v.G.G.G.G.S.' j.G.G.G.G.G.v.) G.G.G.G.G.G.{ b.H.G.G.G.D.",
"G.G.G.G.G.v.) G.G.G.G.G.G.' j.G.G.G.G.G.v.` G.G.G.G.G.G.' j.G.G.G.G.G.v.) G.G.G.G.G.G.' j.G.G.G.G.G.",
"G.G.G.G.G.v.) G.G.G.G.G.G.[ j.G.G.G.G.G.v.) G.G.G.G.G.G.' j.G.G.G.G.G.v.) G.G.G.G.G.G.' j.G.G.G.G.G.",
"v.G.G.G.n.O.) G.G.G.G.G.G.` N v D x k.v.+.~ G.G.G.G.G.G.' o.v.G.G.G.G.o.) G.G.G.G.G.G.' X.v.G.G.G.D.",
") ) ) ) ~ I ` G.G.G.G.G.' >   a 2.O O $ z ~ G.D.G.G.G.G.' I ) ) ) ) ) I ) G.G.G.G.G.D.{ I _ ) ` ) ) ",
"c.v.I 8.c.] ` Q.G.G.D.' X O r t.f.f.f.s e 1 } D.G.G.G.G.' ] c.I o.v.c.] { Q.G.G.G.G.G.' ] l.I o.c.c.",
"D.G.T G.G.c.` R.G.D.! X : 0.e.p.s.d.q.f.f.t.t ! G.G.G.G.' j.n.I v.G.G.c.` T.G.G.G.G.G.' j.n.I c.G.G.",
"G.G.G.G.G.v.) G.G.v.X ; 5.q.q.f.f.f.f.t.d.f.p.p I D.G.G.' j.G.G.G.G.G.v.) G.G.G.G.G.G.' j.G.T T.G.G.",
"G.G.v.G.G.v.[ Q.G.~ O w 4.q.5.0.r.p.f.d.a.p.f.w.$ j.G.G.' j.G.S.G.G.G.v.{ Q.G.G.G.G.G.[ j.G.G.H.G.G.",
"S.D.9.H.G.v.{ /.G.~ = i 0.u O     O p f.s.p t.p.t ~ D.G.' j.G.9.G.G.G.b.{ /.G.G.G.G.G.' j.G.S.Q.G.G.",
"#.S.S.~.G.v.{ /.G.~ : 4.q.w q q 3     t s.t.9 p.3.5 G.G.[ l.G.v.Q.G.G.v.{ ^.G.G.G.G.G.' j.G.9.T.G.G.",
"O.S.@.R.D.v.{ ^.G.| @ y 4.4.F F G :     r d.9 s 1.% G.G.' j.G.9.J.G.G.v.8.^.G.G.G.G.G.' j.G.G.G.G.G.",
"O.S.z.J.G.v.` R.G.G.f = q i F y 4   h   ; 6.w 5.i 1 G.G.' j.G.9.H.D.G.v.E Q.G.G.G.G.G.' j.G.v.D.G.G.",
"O.S.D.T.G.v.` T.G.G.v.f . X X X   ` G.M O 4.o a = P G.G.' j.G.G.Q.D.G.v.E T.G.G.G.G.G.' j.G.@.H.G.G.",
"O.S.G.G.G.v.` T.G.G.G.v.j.c c K ] Y V @ O r 2 r + V G.G.' j.G.G.G.G.G.b._ J.G.G.G.G.G.' j.G.@.J.G.G.",
"X.S.G.G.G.v.` J.G.G.G.G.G.' l.|   h A   4 # . - A , X j.' k.D.D.G.G.G.v.) J.G.G.G.G.F.I.j.G.z.D.G.G.",
"X.D.G.G.G.v.) G.G.G.G.G.G.' ~   d #X|.V.C.h.h.V.:X@Xl $ T b.H.G.G.G.G.v.` G.G.G.G.F.I.I.j.G.G.G.G.G.",
"O.D.G.G.G.b.) G.G.G.G.G.G.'   & % . ;.=X*X$X#X.X[.;.S $ f m.H.G.G.G.n.v.) G.G.D.F.I.=X5 j.D.G.G.G.G.",
"X.S.G.G.G.v.) 9.G.G.G.G.z.b   k ( Y. XoXOXOX&X=X;X%X`.;.# m.H.G.G.G.G.v.) 9.G.' K.=X;X. x.G.G.G.G.G.",
"S.G.G.G.G.v.P I ) ) ) ) ~ > . ( -.I.].oX+X%X%X;X:X-X%X{.h [ H.D.G.G.G.v.P I -.* @X:X+X. j.G.z.@.9.) ",
"D.G.G.G.G.v.I 8.v.c._  .O.# x ( :.I.]. XoXoXoXOX|.$ U.oX;.> G.G.G.G.G.v.I 8.K.B.:X$XoX  j.G.O.O.X.P ",
"G.G.G.G.G.v.) D.G.G. . .} + 5 ( L.I.I.).oXoXoX&X@X  Q .XB.. | G.G.G.G.v._ [ $.&X;XI. X  m.H.X.O.X.K ",
"G.G.G.G.G.v.) G.G.G. . .! . ( ( I.I.I.I.Y.].OX;X@X  $ Y..XZ | G.G.G.G.v.) 6 h.*X'.[.S > m.H.#.O.X._ ",
"G.G.G.G.G.l., 6 | G...k.6   ( -.I.I.I.I.I.{.oX%X@X  X :.XXl x F.G.G.G.v.c + XX{.I.K.  ) !.T.@.X.O.O.",
"H.G.G.G.G.| . k > } G.T.$   S / ,.L.>.=.=.B.B.A.W     * g @ < G.G.G.G.v.$ $.XX).I.k z ' !.J.@.@.O.O.",
"H.G.G.G.G.|   k %.k z j.d   + ! :.<.>.R &               @ 8 + 8.G.G.D.} @ }.E.U.>.  j.' !.J.@.X.O.O.",
"H.G.G.G.G.} O X h >.h $ l . < ( ,.I.I.`.'.E.Z Z D X   8 P.'.o | G.G.G.* *.N.k <.k N H.' m.H.@.O.O.O.",
"H.G.G.G.G.| ; 0.9 j >.Z +     S ( &.,.I.I. X X&X:XU   &..XOXl } D.D.' &  XS :.>.X #.D.} m.H.9.X.O.O.",
"H.G.G.G.G.| ; q.q.5.v %.%.m   X ! ( I.I.I.Y. XoX%XW $ W.&X Xg M  .G.& $._.d <.m z v.G.' b.H.c.9.O.O.",
"H.G.G.G.D.} ; q.q.q.u.:.^ ^ P.^ U h k I.I.I. XoX%XU h {.XXB.+ 0 9 , & U.k ^ >.@ 8.G.G.' v.H.D.S.9.z.",
"H.G.G.G.G.} ; q.e.a.i.<.:.A   g B.R   =.I.I.[.oXXX:X:XoX Xg X s s.; ^ ^ $ >.k x n.G.G.' v.H.D.G.G.G.",
"G.G.G.G.D.| ; q.q.t.M.{.'.I.I.d R A     + Q {. XOX*X+X].A   w.e O 1 <.$ B ( @ l.D.D.D.} j.G.G.G.G.G.",
"G.G.G.G.D.} ; q.e.e.g.XX[.U.I.A R A         @ *.{.oXoX/ 2 2 w.s.e $ h $ ^ 6 % v.G.F.D.} j.D.G.G.G.G.",
"v.F.G.G.D._ 1 u.q.q.s._.`.).I.%.S A   F 2 # X   . v < O y 4 = a e.u O $ h = O < j.D.D.[ o.v.G.G.G.G.",
") ) ` ) ) M d I.N.y.q.E.).).I.:.S A   7.2.G y 3 X   . i 4.w o @ ; a G 9 o X y e K D.D.} I ) ` ) ) ) ",
"l.v.T 8.c.L d I.U.XX(.B.<.U.U.:.:.S . 1.q.0.2.i y 4 q 7.1.= $ ! S & = q q X . +  .G.G.' ] c.v.v.v.z.",
"D.n.I D.G.} + >.).[.XXy.i.B.I.^ :.A   7.q.q.q.q.1.G 2.5.2   % -.L.<.&   = q = M G.G.G.' j.v.G.G.G.G.",
"G.G.T G.G.x.+ / <.). Xf.d.t.i.Z Q A . G 7.6.q.q.0.0.6.:     $ ( L.I.<.$ + 5 5 v.G.G.G.' j.G.G.G.G.G.",
"G.G.S.G.G.v.f h <.<.I.u.a.e.q.e x m   q 4 q w w w w o   > z   < Q -.Q   P Q.G.G.G.G.G.' j.G.G.D.S.S.",
"v.G.9.G.G.k.E v A <.<.N.q.q.q.e n 7                 # ! _ $ 3 =     + c 8./.G.G.G.G.G.' j.G.G.9.O.O.",
"9.D.S.Q.G.k.8.Z.< A <.K.t.0.5.g 7       , b  .%     | D.' $ = 4 , | j.v.W /.G.G.G.G.G.' j.G.9.9.O.O.",
"X.S.9.Q.G.b.{ ^.v.f h <.r.5.X * + n +   , M [     < } } I T z 7 k.v.G.v.{ ^.G.G.G.G.G.' 9.G.9.9.O.O.",
"O.S.9.J.G.v.' Q.F.c.f h s - g $ L n %   + b U   X M ' } J T o.-.H.G.n.c.` Q.G.G.G.G.G.' k.S.X.X.O.O.",
"O.S.D.Q.G.v.` T.G.G.v.f X & & ` ~ 5 % , , M B d 5 5 V } N T ' ..T.G.G.v.` Q.D.G.G.G.G.' l.G.9.X.X.O.",
"O.S.D.D.n.v.` J.G.G.G.v.f X Y ' L L ~ n C M } ' ' ' / ' N ~ ' | G.G.G.v.` J.G.G.G.G.G.' j.G.9.X.@.X.",
"O.S.D.G.G.v.` J.G.G.G.G.G.I ~ ' ~ L L K c M } ' ' ' ' ' J ~  .v.G.G.G.v.` J.G.G.G.G.G.' l.G.O.X.X.] ",
"O.S.G.G.G.v.) G.G.G.G.G.G.` 8.-.L L L z z M ! ' ' ' ! ' P k.G.G.G.G.G.v.) G.G.G.G.G.G.' j.G.9.X.X.I ",
"O.S.G.G.G.v._ G.G.G.G.G.G.' j.G.9.X.O.K K ) G.G.G.G.G.G. .m.H.G.G.G.G.v.) G.G.G.G.G.G.' j.G.@.X.X.P ",
"O.S.G.G.G.v.T 9.G.G.G.G.z._ j.G.9.X.O.K K I 9.G.G.G.G.z.) m.H.D.G.G.G.v.T l.G.G.G.G.z.) j.G.9.O.X.K "
};
