/* XPM */
static char *walltest1730084015[] = {
/* columns rows colors chars-per-pixel */
"50 50 139 2 ",
"   c #3F3851",
".  c #453852",
"X  c #4A3A52",
"o  c #523754",
"O  c #5B3755",
"+  c #523B52",
"@  c #5B3A51",
"#  c #763E4F",
"$  c #643756",
"%  c #6D3757",
"&  c #633C52",
"*  c #6A3C51",
"=  c #743D50",
"-  c #793956",
";  c #773659",
":  c #4D4355",
">  c #534155",
",  c #5F4152",
"<  c #584B57",
"1  c #5E4D59",
"2  c #644454",
"3  c #684A58",
"4  c #764453",
"5  c #7D4551",
"6  c #744E58",
"7  c #7A4E58",
"8  c #6A535C",
"9  c #71575E",
"0  c #7C525B",
"q  c #75595F",
"w  c #6E5C62",
"e  c #7D5C60",
"r  c #6E6067",
"t  c #6F646B",
"y  c #6F6972",
"u  c #863B56",
"i  c #8B3D53",
"p  c #8A365C",
"a  c #973B56",
"s  c #9D3C56",
"d  c #9B3A58",
"f  c #A23E53",
"g  c #92414E",
"h  c #894652",
"j  c #934250",
"k  c #9C4C53",
"l  c #8D545A",
"z  c #8F595D",
"x  c #905B5F",
"c  c #985D5C",
"v  c #AE444E",
"b  c #B2484F",
"n  c #A94250",
"m  c #B84F51",
"M  c #A25656",
"N  c #A0575A",
"B  c #A45E5D",
"V  c #B65053",
"C  c #BF5653",
"Z  c #A9645E",
"A  c #805F62",
"S  c #826464",
"D  c #8B6665",
"F  c #856D6A",
"G  c #946664",
"H  c #966D68",
"J  c #86716E",
"K  c #977069",
"L  c #98756C",
"P  c #9A796F",
"I  c #867672",
"U  c #877A77",
"Y  c #877F7F",
"T  c #9B7C71",
"R  c #A46463",
"E  c #A76D67",
"W  c #A67168",
"Q  c #A9776C",
"!  c #AC7A6E",
"~  c #C05B55",
"^  c #D25654",
"/  c #D45B57",
"(  c #C4635B",
")  c #C86A5E",
"_  c #D8655D",
"`  c #CA6E61",
"'  c #DB6C61",
"]  c #CD7363",
"[  c #CE7669",
"{  c #DE7366",
"}  c #DF7768",
"|  c #E27F6D",
" . c #9D8275",
".. c #9D8578",
"X. c #9E897C",
"o. c #AE8272",
"O. c #B28B78",
"+. c #B4937D",
"@. c #D1816F",
"#. c #D79479",
"$. c #E3826F",
"%. c #E48771",
"&. c #E68B73",
"*. c #E79076",
"=. c #E89276",
"-. c #E59678",
";. c #E89278",
":. c #EB9B7C",
">. c #EDA27F",
",. c #877F81",
"<. c #9F9184",
"1. c #9F958D",
"2. c #9F9992",
"3. c #B49681",
"4. c #B69D87",
"5. c #B7A791",
"6. c #B7AB99",
"7. c #B7B1A4",
"8. c #EEA581",
"9. c #EFA883",
"0. c #F0AC86",
"q. c #E1B38B",
"w. c #E4B88E",
"e. c #F3B38A",
"r. c #F6BB8E",
"t. c #F7C092",
"y. c #F9C493",
"u. c #FBCA97",
"i. c #FCCE9B",
"p. c #FCD19F",
"a. c #FCD5A4",
"s. c #FDDAA7",
"d. c #FEE2AF",
"f. c #FEE6B3",
"g. c #FFEAB7",
"h. c #FFECBB",
"j. c #FFF0C2",
"k. c #FFF4CB",
"l. c #FFF9D5",
/* pixels */
"< >                                                                                             X < ",
": 1 H T  .<.1.2.<.X.<...P K > : x G K  .X.<.<.<.2.<.<.<... . .L H z 3   D L  .X.<.<.1.2.<.X. .H e : ",
"  8 >.t.i.g.k.l.g.g.g.p.r.>.8 3 $.-.9.u.s.g.g.h.l.h.g.g.p.u.u.e.8.| x   #.e.u.f.g.g.k.l.g.s.u.8.!   ",
"  w y.u.u.i.i.a.i.i.i.u.u.y.9 3 | 9.u.u.i.i.p.p.a.i.i.i.i.u.u.y.y.$.x   q.u.u.u.i.i.i.i.i.u.u.y.+.  ",
"  w u.u.u.u.u.u.u.u.u.u.u.u.9 3 | 0.u.u.u.u.u.u.u.u.u.u.u.u.u.u.u.| z   w.u.u.u.u.u.u.u.u.u.u.u.+.  ",
"  w u.u.u.u.u.u.u.u.u.u.u.u.w 3 $.0.u.u.u.u.u.u.u.u.u.u.u.u.u.u.u.| z   w.u.u.u.u.u.u.u.u.u.u.u.+.  ",
"  w u.u.u.u.u.u.u.u.u.u.u.u.r 3 | :.0.u.u.u.u.u.u.u.u.u.u.u.u.r.9.$.z   w.u.u.u.u.u.u.u.u.u.u.u.+.  ",
"  w t.u.u.u.u.u.u.u.u.u.u.t.9 3 | *.:.t.u.u.u.u.u.u.u.u.u.u.t.8.:.$.z . q.t.u.u.u.u.u.i.u.u.u.t.O.  ",
"  8 >.t.u.u.u.u.u.u.u.u.r.>.8 3 | | $.>.e.u.u.u.u.u.u.u.u.y.8.&.| | z . #.0.u.u.u.u.u.u.u.i.u.8.!   ",
"  3 *.>.e.u.u.u.u.u.u.e.>.&.3 3 | | $.&.;.:.:.:.:.:.:.:.:.:.&.$.$.%.A . @.:.e.y.u.u.u.u.u.r.0.&.W   ",
". 3 @.=.>.t.t.t.t.r.t.>.=.| 3 3 } | | | $.| $.| | | | | | | | | } } z   [ &.:.e.t.t.t.t.t.0.:.$.R   ",
". 3 $.$.| | | | $.| | $.| | 3 , ^ { | | | | $.$.| | | | | | | | $.^ h   [ | $.| | | | | | $.| | R   ",
"  2 _ } $.$.| | | | | | } _ 2 + h l z z z z z z x x x x x z A c z h &   ` { | | | | | | | | | ' c   ",
"  & ^ { $.$.$.$.| | | $.{ ^ &                           .     .         m _ | | | | | | | | | ^ k   ",
"      .                           .           .                 .                             .     ",
"  > 7 0 7 7 0 0 0 0 0 4 , .       X @ $ & * $ O O . X O @ $ * $ $ O .     o 4 0 0 0 0 0 0 0 0 6 2   ",
"  3 | | | | | | | | | / k         % p d f v f a i X o p d f v f s p $     4 ^ { | | | | %.| | ] c   ",
"  8 :.r.y.r.9.8.| | | } R         - f n v v v f d X o d f f b f n d %     0 } | | | *.8.r.y.r.:.Q   ",
"  8 0.y.u.u.e.0.%.%.| | R         % u g i g i i u . o u g g f i g u $     0 | | $.%.:.e.u.u.y.0.o.  ",
"  w u.u.u.u.u.u.8.*.| | R             .   . .   .         . . .           0 | | %.>.r.u.u.u.u.u.+.  ",
"  w i.u.u.u.u.u.8.*.| | R           . ; u g M M Z Z B M g g = o           0 | | %.>.r.u.u.u.u.u.+.  ",
"  w p.u.u.u.u.u.8.&.| | R           X p f v ~ ( ] ] ) ~ v v p @           0 | $.&.8.r.u.u.u.u.a.3.  ",
"  y l.a.u.u.u.u.u.8.| | R           X v v v ] ] ] ] ] ] m v v *           0 | | =.u.u.u.u.u.u.l.7.  ",
"  t j.a.u.u.u.u.u.8.| | R           X a f v ( ) ] ] ) ~ m f a &           0 | | =.u.u.u.u.u.u.j.6.  ",
"  t g.p.u.u.u.u.u.8.| | R .         . i g b C ( ] ] ) C b v u @           0 | | ;.u.u.u.u.u.u.g.5.  ",
"  w u.u.u.i.u.u.u.8.| | R           .   .       . .                       0 | | ;.u.u.u.u.u.u.u.+.  ",
"  r s.i.u.u.u.u.u.8.| | R     . $ * # # 4 # 5 5 # X + 5 4 # # # # $ o     0 } | ;.u.u.u.u.u.u.s.4.  ",
"  t g.p.u.u.u.u.u.8.| | R     o p f v v v v C m v X , C b v v v v p $     0 $.| ;.u.u.u.u.u.u.g.5.  ",
"  w i.i.u.u.u.u.8.=.$.| Z     @ f v v v v v ` ` ) > 2 ` b v v v v v #     0 | | %.8.r.u.u.u.u.i.3.  ",
"  w u.u.u.u.u.u.>.=.| | G     o f v v v v v ) ( ( : , ) V b v v v s * .   0 | | %.>.r.u.u.u.u.u.+.  ",
"  w u.u.u.u.u.u.>.=.| | R .   o i f v v v v C m v X , C b b v v v p $     0 | $.%.>.r.u.u.u.u.i.+.  ",
"  8 0.t.u.u.r.9.$.| | | R     . o @ @ @ @ @ , & @   . & @ @ @ @ @ o .     0 | | $.%.:.e.u.u.u.9.o.  ",
"  8 :.0.e.e.>.:.| | $.{ B             o o @ @ + @ @ @ @ @ @ X . .         0 } } $.$.*.:.r.e.r.-.W   ",
"  3 | $.| $.$.$.| | $./ k           . p s v v v v v v v v v p O         . 4 ^ { $.} | $.| | | ] c   ",
"  X 0 0 0 0 0 7 0 0 0 5 ,           . O $ * * * * * 2 * * & @ X         . X 4 7 0 0 0 0 0 0 0 6 2   ",
"  X + > > > > > > + > > + +                           .                 + + > + > > > > > + > + X   ",
"  , ^ { $.| | | | | | | ' / , . .         .   .                         C _ | | | | | | $.| | ^ k   ",
". 2 _ | | | | | | | | | } _ 2 + j l x x A c A x z z z z x z z z z h 2   ( ' | | $.| | | $.| $._ N   ",
"  3 $.$.| $.$.| | | $.$.| | 3 2 ^ ' | | | | | | $.| | | $.| | | | ^ h   [ | | %.| | | | | $.| | R   ",
"  2 $.=.>.u.u.u.u.u.u.>.=.$.3 3 | | | | | | | | | $.| | $.| | | | | z   [ &.8.r.u.u.u.u.u.e.>.| R   ",
"  8 *.>.e.i.u.u.u.u.u.e.>.&.3 3 | | $.&.=.:.:.:.:.:.:.:.:.-.&.$.| $.z   [ :.e.t.u.u.u.u.u.r.e.&.E   ",
"  8 >.t.u.u.u.u.u.u.u.u.r.>.8 3 | | $.>.e.u.u.u.u.u.u.u.u.u.>.*.| $.z   #.e.u.u.u.u.u.u.u.u.u.>.Q   ",
"  8 y.u.u.u.u.u.u.u.u.u.u.u.9 3 | *.8.y.u.u.u.u.u.u.u.u.u.u.u.9.:.$.z   w.u.u.u.u.u.u.u.u.u.u.y.+.  ",
"  r u.u.u.u.u.u.u.u.u.u.u.i.9 3 | :.e.u.u.u.u.u.u.u.u.u.u.u.u.e.9.| z   w.u.u.u.u.u.u.u.u.u.u.u.+.  ",
"  w u.u.u.u.u.u.u.u.u.u.u.u.9 3 | 0.u.u.u.u.u.u.u.u.u.u.u.u.u.u.u.| z   w.u.u.u.u.u.u.u.u.u.u.u.+.  ",
"  w u.u.u.u.u.u.u.u.u.u.u.u.8 3 $.0.u.u.u.u.u.u.u.u.u.u.u.u.u.u.u.$.z   w.u.u.u.u.u.u.u.u.u.u.u.+.  ",
"  w y.u.u.i.i.p.i.i.i.u.u.y.r 3 | 9.y.u.u.i.u.i.i.p.i.i.i.i.u.u.y.$.x   q.u.u.i.i.i.i.p.i.i.u.y.+.  ",
"  8 >.t.i.g.k.l.g.g.g.i.r.>.8 3 $.;.9.u.s.g.u.a.g.l.k.g.g.f.u.e.>.$.x   #.e.u.d.g.g.k.l.g.s.u.>.Q   ",
": < e F J  .Y Y y ..U y F e < : 0 q e J I  .y J U ..,.y ..y I F e 0 <   q S F I U U ,.,.U I F e w > ",
"< :                               .           .                   .           .                 : < "
};
