/* XPM */
static char *monster_11730129981[] = {
/* columns rows colors chars-per-pixel */
"50 50 171 2 ",
"   c #3E3952",
".  c #453E55",
"X  c #683D4B",
"o  c #3C4259",
"O  c #334E66",
"+  c #3D5563",
"@  c #385767",
"#  c #3B5B68",
"$  c #2C5A72",
"%  c #335F70",
"&  c #3D646C",
"*  c #3F6B69",
"=  c #28667C",
"-  c #376A75",
";  c #3B7579",
":  c #434356",
">  c #52455A",
",  c #5B4E5C",
"<  c #40525B",
"1  c #6D5A5C",
"2  c #474962",
"3  c #4A4B61",
"4  c #4C5568",
"5  c #565766",
"6  c #4F5A71",
"7  c #565B71",
"8  c #604F61",
"9  c #6E5967",
"0  c #655B6A",
"q  c #745466",
"w  c #715B68",
"e  c #7B5D6B",
"r  c #426C66",
"t  c #406969",
"y  c #43756A",
"u  c #5E7B6D",
"i  c #4C6371",
"p  c #5D6775",
"a  c #417A70",
"s  c #74616E",
"d  c #7B606C",
"f  c #6B6471",
"g  c #656C7E",
"h  c #6B687A",
"j  c #8F464B",
"k  c #934D4C",
"l  c #965851",
"z  c #986256",
"x  c #AD6E59",
"c  c #82626E",
"v  c #8F7162",
"b  c #9A7D67",
"n  c #977A68",
"m  c #836771",
"M  c #8B6472",
"N  c #846B73",
"B  c #8E6F76",
"V  c #9B6975",
"C  c #877178",
"Z  c #89757C",
"A  c #95747A",
"S  c #99767B",
"D  c #9D7A7E",
"F  c #A56D78",
"G  c #AB6F7B",
"H  c #A3737B",
"J  c #AD707B",
"K  c #A07C7F",
"L  c #AD797F",
"P  c #B0757D",
"I  c #B2787F",
"U  c #D35B47",
"Y  c #C2755A",
"T  c #D97F59",
"R  c #EB724E",
"E  c #ED7D54",
"W  c #449E7E",
"Q  c #599A7A",
"!  c #628D76",
"~  c #46A07C",
"^  c #9C846D",
"/  c #9D8872",
"(  c #9E8E78",
")  c #9F937D",
"_  c #B18E6C",
"`  c #BD976F",
"'  c #BF9B72",
"]  c #DDA26F",
"[  c #DFB178",
"{  c #F4B474",
"}  c #277686",
"|  c #576B82",
" . c #5C7682",
".. c #687284",
"X. c #777988",
"o. c #6D7D90",
"O. c #827F8F",
"+. c #8D7E8A",
"@. c #A27D80",
"#. c #AA7C81",
"$. c #B37B81",
"%. c #2B858D",
"&. c #398682",
"*. c #398E89",
"=. c #3B9287",
"-. c #3C9A8A",
";. c #298A91",
":. c #389D92",
">. c #3FB28D",
",. c #35A79A",
"<. c #3CB396",
"1. c #6D8A88",
"2. c #669F80",
"3. c #748796",
"4. c #42B38B",
"5. c #44BB8B",
"6. c #54B082",
"7. c #72A780",
"8. c #6BBD88",
"9. c #48C38A",
"0. c #5ACD8E",
"q. c #8D949B",
"w. c #AE8585",
"e. c #A5898A",
"r. c #B68285",
"t. c #B88386",
"y. c #BA8788",
"u. c #B58988",
"i. c #B98D8B",
"p. c #B3908D",
"a. c #B49490",
"s. c #B79994",
"d. c #B89B95",
"f. c #B6A482",
"g. c #829BA8",
"h. c #8B9FA9",
"j. c #9898A3",
"k. c #97A7AD",
"l. c #A3A3AE",
"z. c #BEA9A4",
"x. c #A3ACB1",
"c. c #A7B7BC",
"v. c #C08F8D",
"b. c #C1928E",
"n. c #C39490",
"m. c #C59A94",
"M. c #C89E97",
"N. c #C89F98",
"B. c #D3BC8B",
"V. c #C4A69E",
"C. c #CAA49C",
"Z. c #CDAA9F",
"A. c #E1BF85",
"S. c #CEACA2",
"D. c #C0ADA8",
"F. c #D1B1A5",
"G. c #D4B7AE",
"H. c #D5BCB2",
"J. c #EBCE91",
"K. c #E6D398",
"L. c #E7D89E",
"P. c #FDE49E",
"I. c #FEEBA5",
"U. c #FFEFA9",
"Y. c #B1B9C1",
"T. c #C5C7CD",
"R. c #DADFDF",
"E. c #DADFE0",
"W. c #DAE6E5",
"Q. c #E0EEEA",
"!. c #F0F7F4",
/* pixels */
"b.n.n.n.n.i.m n.n.n.n.b.b.B p.m.b.b.b.m.i.d $.t.t.t.t.$.M L i.m.n.n.n.i.m n.n.n.n.n.n.B p.m.b.v.t.r.",
"n.n.n.n.n.i.m n.n.n.b.m.m.B p.m.b.m.b.b.i.c b.b.b.b.b.b.B w.b.b.n.n.n.i.m n.n.n.n.n.n.B p.m.n.n.b.b.",
"n.n.n.n.n.i.m n.n.n.n.n.b.B w.b.n.n.n.n.i.m n.n.b.b.n.n.B w.n.n.n.n.n.i.m n.n.n.n.n.n.B w.n.n.n.b.n.",
"n.n.n.n.n.i.m n.n.n.n.n.b.B u.b.n.n.n.n.i.N n.n.m.b.n.n.B w.n.n.n.n.n.u.m n.n.n.n.n.n.B w.n.n.n.b.n.",
"v.b.b.b.i.L m b.n.n.n.n.b.B H v.n.n.b.b.L c n.n.n.n.n.n.B H v.b.n.n.i.L m n.n.n.n.n.n.B S v.b.n.b.b.",
"c N N N N e m n.n.n.n.n.b.B e m m N N c d m n.n.n.n.n.n.B d m m m m N e m n.n.n.n.n.n.B e m c N N N ",
"u.i.s L u.V N Z.n.n.n.b.b.B V w.d H i.i.V c b.b.n.n.n.n.B V u.d L i.u.V C C.n.n.n.n.n.B V u.w H i.i.",
"b.b.e b.n.u.C Z.n.n.n.b.m.B w.b.d i.b.b.u.N m.b.n.n.n.b.B w.i.d u.n.n.u.N S.n.n.n.n.n.B w.v.d i.b.b.",
"b.n.n.n.n.i.N b.b.n.n.n.n.B u.b.d V.n.n.i.C Z.n.n.n.n.n.B w.n.n.n.n.n.i.m n.n.n.n.n.n.B w.n.e V.b.n.",
"n.n.b.n.n.i.C S.n.n.n.n.n.B w.b.b.m.n.n.i.m n.n.n.n.n.n.B w.b.b.n.n.n.i.B S.n.n.n.n.n.B w.n.n.m.n.n.",
"v.b.I m.n.i.Z H.n.n.n.n.b.B w.n.b.Z.n.n.p.m n.n.n.n.n.n.B w.n.I n.n.s.i.Z H.n.n.n.n.b.B w.n.v.S.n.n.",
"I v.v.F.n.i.Z H.n.n.n.n.m.B w.n.I Z.n.b.i.C Z.n.n.n.n.n.B w.b.b.S.n.b.i.Z H.n.n.n.n.m.C w.n.$.C.n.n.",
"G v.P Z.b.i.Z G.n.n.n.n.n.B w.n.b.b.n.n.i.N Z.n.n.n.n.n.B w.n.I C.n.n.i.C G.n.n.n.n.n.B w.n.n.n.n.n.",
"J v.t.M.b.i.N Z.n.n.n.n.n.B w.n.i.b.n.n.i.C Z.b.n.n.n.n.B w.b.r.M.n.n.i.B Z.n.n.n.n.n.B w.n.y.b.n.n.",
"J v.b.Z.b.i.N C.n.n.n.n.n.B w.n.I m.n.n.i.C Z.n.n.n.n.n.B w.b.n.C.n.n.i.N C.n.n.n.n.n.B w.n.J m.n.n.",
"J v.b.n.n.i.N C.n.n.n.n.n.B w.n.P M.n.n.i.N C.n.n.n.n.n.B w.n.n.n.n.n.i.N M.n.n.n.n.n.B w.n.$.m.n.n.",
"G n.n.n.n.i.N M.n.n.n.n.n.B w.n.t.b.n.n.i.m b.n.n.n.n.n.B r.n.n.n.n.n.i.N N.n.n.n.n.n.B w.n.t.n.n.n.",
"G i.n.n.n.i.m n.n.n.n.n.n.B w.n.b.b.n.n.i.m b.n.n.n.n.n.B a.m.n.n.n.n.i.m n.n.n.n.n.n.B w.n.n.n.n.n.",
"P v.n.n.n.i.m n.n.n.n.n.n.B w.n.b.b.n.n.i.m m.i.n.n.n.n.B s.m.n.n.n.s.i.m n.n.n.n.n.n.B w.n.n.n.n.n.",
"G v.n.n.n.i.m $.n.n.n.n.t.M w.n.m.i.u.i.w.w r.u.u.u.u.( d s.m.u.u.i.n.i.c $.n.n.n.n.t.M r.n.n.n.n.n.",
"i.n.n.n.n.i.w d m m m m c q w.n.b.m         w >       . . u.m.8   m n.i.w e m m m N e w r.n.$.$.$.c ",
"n.n.n.n.n.i.e #.i.u.M A #.c w.n.d b J.L.K.] , ` A.J.[ ] T . > x U j e i.e #.i.u.M A #.c w.n.P J P 9 ",
"n.n.n.n.n.i.m n.n.i.S S n.B s.m.9 ( I.U.U.P., B.I.f.1 v { . . Y E l w i.m v.n.n.S S i.B s.m.#.J G w ",
"n.n.n.n.n.i.m n.n.n.S S n.C d.m.w ^ P.I.U.U.' K.U.B._ ` { _ x T R k w i.m n.n.n.S S m.B d.m.P J J M ",
"n.n.n.n.n.i.m n.n.n.@.e.M.B D.C.9 1 ^ ) ) ( ^ ( ) / b b b n z z k X 0 i.m n.n.n.D e.M.B D.C.P P P G ",
"m.n.n.n.n.i.m n.n.n.v.M.M.B z.e.+.X.q.h . g g g X.X.7 3 h ..7 . 2 6 f A m n.n.n.b.M.M.B D.M.P G G G ",
"m.n.n.n.n.i.m n.n.n.y.i.n.B z.0 j.T.T.l.  h.h.h.Y.c...4 h.h.o.2 6 | 6 > m n.n.n.y.i.m.B z.M.I G J J ",
"m.m.n.n.n.i.m n.n.n.v.m.m.A d.w .     o o o o o   o o o o o o       . , m n.n.n.v.m.m.B d.m.L J J J ",
"m.n.n.n.n.i.m n.n.n.t.y.n.B d.m.9 O } ;.;.;.;.;.;.;.;.;.;.;.;.;.} O w i.m n.n.n.t.$.n.B d.M.$.J J J ",
"m.n.n.n.n.i.m n.n.n.y.y.n.C p.m.9 - >.5.5.5.+ o &.,.&.  o ,.5.# - % w i.m n.n.n.y.v.n.B a.m.t.I J J ",
"m.n.n.n.n.i.m n.n.n.n.n.n.B p.m.w a W y 9.9.*.2 O + o + *.,.* x.3.o w i.N n.n.n.n.n.n.B i.n.b.v.$.t.",
"m.n.n.n.n.i.m n.n.n.n.n.n.B u.m.9 < 1.q.r <.- 2.7.Q Q ! & & x.E.X.. w i.m n.n.n.n.n.n.B i.m.n.n.n.n.",
"n.n.n.n.n.i.d n.n.n.n.n.n.B w.n.9   O.R.j.; : u 8.0.6.u   g W.Q.X.  0 i.m n.n.n.n.n.n.B w.n.n.n.n.n.",
"n.n.n.n.n.i.N n.n.n.n.n.n.B w.D 8   X.Q.!.p : 4 W 9.W +   o.T.k. .& u S m n.n.n.n.n.n.B w.n.n.n.n.n.",
"i.n.n.n.b.J m n.n.n.n.n.b.B N 5 : o  .c.E.3.: } W ~ -.; .   3.i =.4.&.< w n.n.n.n.n.n.B H i.n.n.b.b.",
"m m m m m e m n.n.n.n.n.n.B . ~ t O $ 4 g.  o o o o o o o o o =.4.5.9.~   n.n.n.n.n.n.B e m m m m c ",
"u.i.s L i.V C Z.n.n.n.n.n.B : ~ r - } $   } %.;.;.;.;.;.;.;.,.5.t ; ,.*.  S.n.n.n.n.n.B V u.i.i.y.i.",
"b.n.d n.b.u.N Z.n.n.n.n.n.B w., :   * >.:.  o o o o o o o o %.;.# . o 5 d S.n.n.n.n.n.B w.i.n.n.n.n.",
"n.n.e n.n.i.m n.n.n.n.n.n.B w.w.@.w * -.O w p.@.K @.@.@.d A 4 = O w @.@.N n.n.n.n.n.n.B w.n.n.n.b.n.",
"n.n.i.n.n.i.C S.n.n.n.n.n.B w.i.b.#.f @ . m n.n.b.n.n.n.B w.S 4   N n.i.Z S.n.n.n.n.n.B w.n.n.b.v.v.",
"v.b.I b.b.i.Z H.n.n.n.n.n.B w.n.b.$.V q q N n.n.n.n.n.n.B w.b.M N @.n.i.Z H.n.n.n.n.n.B w.n.b.t.J J ",
"I b.v.F.n.i.Z H.n.n.n.n.n.B w.n.$.J J J F B Z.n.n.n.n.n.B w.b.v.S.n.n.i.Z H.n.n.n.n.n.B w.n.$.J J J ",
"G v.P Z.n.i.Z G.n.n.n.n.n.B w.n.P J J J F N F.n.n.n.n.n.B w.n.I C.b.n.i.Z G.n.n.n.n.n.B w.n.I J J J ",
"P v.t.C.b.p.N Z.n.n.n.n.n.B w.n.P J J J F N Z.b.n.n.n.n.B w.b.r.M.b.b.i.C Z.n.n.n.n.n.B w.b.I J J J ",
"G v.b.C.n.i.N C.n.n.n.n.n.B w.n.P J J J F C Z.b.n.n.n.n.B w.m.n.C.n.n.i.N C.b.n.n.n.n.B w.b.I G G G ",
"G v.n.n.n.i.N C.n.n.n.n.n.B w.n.I G J G V N C.n.n.n.n.n.B w.b.n.b.n.n.i.N M.b.n.n.n.n.B u.b.I G P G ",
"P v.n.n.b.i.N C.n.n.n.n.n.B w.n.P G G V e m n.n.n.n.n.n.B w.n.n.n.n.n.i.N C.n.n.n.n.b.B u.b.P G J V ",
"G b.n.n.b.i.N n.n.n.n.n.n.B w.n.I J J e 9 m n.n.n.n.n.n.B p.m.n.n.n.n.i.N n.n.n.n.n.b.B w.b.P G J e ",
"J v.n.n.n.i.m b.n.n.n.n.n.B w.b.L G J 9 9 c b.n.n.n.n.n.B d.m.b.n.n.n.p.N b.b.n.n.n.n.B w.n.I G G 9 ",
"J v.b.b.n.i.c t.b.b.n.n.t.M u.n.P J J 9 9 c t.n.n.b.n.t.M d.M.n.n.n.n.i.e t.n.n.n.n.t.M w.n.I J G 9 "
};
