/* XPM */
static char *monster_41730129982[] = {
/* columns rows colors chars-per-pixel */
"50 50 166 2 ",
"   c #3F3851",
".  c #453E56",
"X  c #3E465B",
"o  c #3E4E5F",
"O  c #394C61",
"+  c #3A5667",
"@  c #3C636D",
"#  c #3E6E6D",
"$  c #25667E",
"%  c #366975",
"&  c #3B7276",
"*  c #3F7D75",
"=  c #387B7E",
"-  c #45475A",
";  c #504359",
":  c #5B485D",
">  c #415B5F",
",  c #674B55",
"<  c #6D595B",
"1  c #474962",
"2  c #4B4B62",
"3  c #495764",
"4  c #545268",
"5  c #585B6F",
"6  c #604E60",
"7  c #6A5665",
"8  c #6E5967",
"9  c #755767",
"0  c #725B69",
"q  c #7B5D6B",
"w  c #4C6163",
"e  c #446C68",
"r  c #546469",
"t  c #43746A",
"y  c #54766A",
"u  c #5D7A6D",
"i  c #5A6677",
"p  c #407F72",
"a  c #67656B",
"s  c #7B606D",
"d  c #686576",
"f  c #6C677A",
"g  c #7F6972",
"h  c #7A6E7C",
"j  c #D0493D",
"k  c #8F5D56",
"l  c #A64443",
"z  c #986B5C",
"x  c #AB6754",
"c  c #885F6E",
"v  c #82626E",
"b  c #82746F",
"n  c #987A66",
"m  c #836671",
"M  c #8D6373",
"N  c #846B73",
"B  c #8E6F76",
"V  c #966673",
"C  c #9B6A76",
"Z  c #877178",
"A  c #89757C",
"S  c #95747A",
"D  c #98767B",
"F  c #99797E",
"G  c #AF7B61",
"H  c #A56D78",
"J  c #AB6F7B",
"K  c #A3737B",
"L  c #AD707B",
"P  c #AD797F",
"I  c #B0757D",
"U  c #B2787F",
"Y  c #D97C57",
"T  c #EB724E",
"R  c #428572",
"E  c #689176",
"W  c #9E8E78",
"Q  c #B08768",
"!  c #B18E6C",
"~  c #B49B79",
"^  c #EE8558",
"/  c #C69169",
"(  c #DB9164",
")  c #DDA36F",
"_  c #DFB178",
"`  c #F4B474",
"'  c #F5BB79",
"]  c #F6C27D",
"[  c #2A7080",
"{  c #5B748B",
"}  c #607181",
"|  c #6A7789",
" . c #A27D80",
".. c #A97D81",
"X. c #B37B81",
"o. c #2A828C",
"O. c #3C8B81",
"+. c #3E9984",
"@. c #298A91",
"#. c #2E9695",
"$. c #319A94",
"%. c #3AA994",
"&. c #34A298",
"*. c #37AB9C",
"=. c #3DB495",
"-. c #71848B",
";. c #6E8296",
":. c #778996",
">. c #47B283",
",. c #47BA86",
"<. c #40B58D",
"1. c #44BC8B",
"2. c #7D93A2",
"3. c #46C08C",
"4. c #48C38A",
"5. c #51C88C",
"6. c #7DCF90",
"7. c #6BD296",
"8. c #7EE097",
"9. c #829195",
"0. c #A68586",
"q. c #AE8585",
"w. c #A68989",
"e. c #B68285",
"r. c #B88386",
"t. c #BA8788",
"y. c #B58888",
"u. c #B98D8B",
"i. c #B3908D",
"p. c #B49490",
"a. c #B79994",
"s. c #B89B95",
"d. c #B6A684",
"f. c #879DA9",
"g. c #9797A2",
"h. c #9CA8AC",
"j. c #9CB0B4",
"k. c #98B1B8",
"l. c #AEAFB6",
"z. c #C08F8D",
"x. c #C1928E",
"c. c #C39490",
"v. c #C59A94",
"b. c #C89E97",
"n. c #C89F98",
"m. c #CDB688",
"M. c #C4A69E",
"N. c #CAA49C",
"B. c #CDAA9F",
"V. c #CEACA2",
"C. c #C0ADA8",
"Z. c #D1B1A5",
"A. c #D4B7AE",
"S. c #D5BCB2",
"D. c #DAC996",
"F. c #E5CE95",
"G. c #F0D596",
"H. c #FDE49E",
"J. c #FEEBA5",
"K. c #B8BDC2",
"L. c #B4C4C8",
"P. c #C9CED2",
"I. c #DBDFE1",
"U. c #DAE8E6",
"Y. c #E5F0ED",
"T. c #EBF1EF",
/* pixels */
"x.c.c.c.c.u.m c.c.c.c.c.c.B i.v.x.x.x.c.u.s U t.r.r.r.U M P x.c.c.c.c.u.m x.c.c.c.c.c.B i.v.x.z.r.r.",
"c.c.c.c.c.u.m c.c.c.c.c.c.B i.v.x.v.c.c.u.m u.x.x.x.x.x.B q.c.c.c.c.c.i.N c.c.c.c.c.c.B i.v.x.c.x.x.",
"c.c.c.c.c.u.m c.c.c.c.c.c.B q.c.c.c.c.c.u.m c.c.x.c.c.c.B q.c.c.c.c.x.u.m c.c.c.c.c.c.B q.c.c.c.x.c.",
"c.c.c.c.c.u.m c.c.c.c.c.c.B q.c.c.c.c.c.u.N c.c.v.x.c.c.B q.c.c.c.c.c.u.m x.c.c.c.c.c.B q.c.c.c.c.c.",
"u.c.c.x.u.P m x.c.c.c.c.x.B K u.c.c.x.x.P m c.c.c.c.c.c.B D z.x.c.c.x.L m c.c.c.c.c.c.B K u.x.x.x.x.",
"N m m m N q m c.c.c.c.c.x.B q v N N m m q m c.c.c.c.c.c.B s v N v N N q m c.c.c.c.c.c.B q N N N N N ",
"y.u.s P y.C Z N.c.c.c.c.v.B C y.s K u.u.C v x.c.c.c.c.c.B C e.s K u.u.C Z B.c.c.c.c.c.B C e.s K u.y.",
"x.x.s x.c.y.Z B.c.c.c.x.x.B q.x.s y.x.x.y.N c.c.c.c.c.c.B q.u.s u.c.x.q.Z B.c.c.c.c.c.B q.x.s q.x.x.",
"x.x.x.c.c.u.N x.c.c.c.c.x.B y.x.s M.c.c.u.Z V.c.c.c.c.c.B q.c.c.c.c.c.u.m c.c.c.c.c.c.B q.c.s M.x.c.",
"x.v.x.c.c.u.Z V.c.c.c.c.v.B q.x.x.v.c.c.u.N x.c.c.c.c.c.B q.x.x.c.c.c.u.Z V.c.c.c.c.c.B q.c.c.v.c.c.",
"z.x.U v.c.u.A S.c.c.c.c.c.B q.c.x.V.c.c.u.N c.c.c.c.c.c.B q.c.U x.c.x.u.A S.c.c.c.c.c.B q.c.x.V.c.c.",
"U x.z.Z.x.u.A S.c.c.c.c.c.B q.c.X.B.c.x.u.N B.c.c.c.c.c.B q.x.x.V.c.c.i.A S.c.c.c.c.c.B q.c.X.N.c.c.",
"J z.I B.x.u.A A.c.c.c.c.c.B q.c.x.c.c.c.u.Z B.c.c.c.c.c.B q.c.I N.x.c.u.A A.c.c.c.c.c.B q.c.c.c.c.c.",
"I z.r.b.x.u.N B.c.c.c.c.c.B q.c.t.x.c.c.u.N B.x.c.c.c.c.B q.x.e.b.c.c.u.Z B.c.c.c.c.c.B q.x.t.x.c.c.",
"J z.x.B.x.u.N N.c.c.c.c.c.B q.c.I v.c.c.u.b B.c.c.c.c.c.B q.c.c.N.c.x.u.N N.c.c.c.c.c.B q.x.P v.c.c.",
"L z.x.x.c.u.N N.c.c.c.c.c.B q.c.I b.c.c.u.N N.c.c.c.c.c.B q.c.c.c.c.c.u.N b.c.c.c.c.c.B y.x.I b.c.c.",
"L x.c.c.c.u.N N.c.c.c.c.c.B q.c.r.x.c.c.u.m x.c.c.c.c.c.B q.c.c.c.c.c.u.N n.c.c.c.c.c.B q.c.r.x.c.c.",
"L u.c.c.c.u.m c.c.c.c.c.c.B q.c.c.c.c.c.u.m c.c.c.c.c.c.B p.v.c.c.c.c.u.m c.c.c.c.c.c.B q.x.c.c.c.c.",
"L z.c.c.c.u.m c.c.c.c.c.c.B q.c.c.c.c.c.y.m c.a.c.c.c.c.B s.b.x.c.c.c.u.m v.c.c.c.c.c.B q.x.c.c.c.c.",
"L z.c.v.u.u.v X.c.c.c.c.r.M q.c.c.c.      < v         C M a         c.u.s X.c.c.c.c.e.M y.c.c.c.c.c.",
"u.c.c.c.c.u.0 s m N m m v 9 q.c.y.; _ F.F.z g D._ _ ( , . k ( ) Y j .  .9 q N m m m v 0 y.x.X.X.X.m ",
"c.c.c.c.c.u.q P u.q.B S ..v q.c.q.  J.J.H.W W D.< , ` < . z ' ` ^ T   S q ..u.e.M S ..v q.x.I L I 8 ",
"c.c.c.c.c.u.m x.c.x.S D x.N a.v.y.  G.J.J.m.d.G.n n ] ! z / ] ` ^ T   S m z.c.c.D D a.M p.v.I L J 8 ",
"c.c.c.c.c.u.m c.c.x.D D c.B s.b.y.  ! ~ d.~ ~ d.! ! ! ! G G ! Q x l    .m c.c.c.D D x.B s.b.I L J M ",
"c.c.c.c.c.u.m c.c.c.F w.b.B C.v.B f f - - 5 i d 5 . 5 5 4 2 - - 4 1 1 g g c.c.c.F w.b.B C.N.I J I J ",
"b.c.c.c.c.u.m c.c.c.x.n.b.B C.w.4 I.I.f :.j.L.P.f.  k.k.2.;.} - | { { 1 0 c.c.c.x.b.b.B C.n.I I L J ",
"b.x.c.c.c.u.m c.c.c.t.t.v.B C.q..       .       .           .           0 c.c.c.t.z.c.B C.b.I J L L ",
"b.z.c.c.c.u.N c.c.x.x.v.v.B s.v.e.  $ o.@.o.@.@.o.@.@.@.@.@.@.o.@.$     8 c.c.c.z.v.b.B s.v.I J L L ",
"v.c.c.c.c.u.m c.c.c.r.r.v.B s.0.;   &.=.1.1.1.,.3.4.1.1.1.* # 1.<.o.  B m c.c.c.X.r.x.B s.b.U I L L ",
"v.c.c.c.c.u.m c.c.c.t.z.x.B A h K.  *.%.p o * =.,.> o +.* 9.h.t 1.@.  S m c.c.c.z.t.c.B i.v.t.U L L ",
"v.c.c.c.c.u.m c.c.c.c.c.c.B g f Y.g.& & > . o & t     @ -.P.l.+ 1.@.. D m c.c.c.c.c.c.B i.v.c.z.X.r.",
"c.c.c.c.c.u.m c.c.c.c.c.c.B m d U.T.i . w u u y e u . 5 K.Y.h.> 1.#.  0 s c.c.c.c.c.c.B u.c.c.c.c.x.",
"c.c.c.c.c.i.m c.c.c.c.c.c.B N f k.U.:.2 E 6.8.7.5.6.  | L.L.-.t 4.=.> > a y.x.c.c.c.c.B q.c.c.c.c.c.",
"c.c.c.c.x.u.m x.c.c.c.c.c.B  .W 3 2.    X R 4.3.>.-     | { t 4.4.4.4.1.# m x.x.c.c.c.B q.c.c.c.c.x.",
"u.c.c.c.x.P m c.c.c.c.c.c.B 9 > >.      [ 1.4.3.1.*.      & =.4.4.4.4.=.@ g c.c.c.c.c.B K u.c.c.x.x.",
"m N m m v s m x.c.c.c.c.c.B 6 > >.  $ o.+ . .       @.o.&.=.4.4.1.*.*.+ 0 c.c.c.c.c.c.B q v N N N v ",
"y.u.s P y.C Z N.c.c.c.c.c.B V M - . [ @.@.[ o.o.o.[ @.&.7.7.4.1.+.o X m N N.c.c.c.c.v.B C r.u.u.t.u.",
"u.c.s x.c.y.Z B.c.c.c.c.c.B q.u. .W + +.%.= o O O O o + w > # $.o.. 0.q.N V.c.c.c.x.x.B q.x.c.u.c.c.",
"v.c.s x.c.u.m c.c.c.c.c.c.B q.c.c.c.  +.O.i Z m N m g m 7 0 a $ $   c.u.m c.c.c.c.c.c.B q.c.c.c.x.c.",
"c.c.x.x.c.u.Z V.c.c.c.c.c.B q.c.c.u.  % r s c.c.c.c.x.c.N y.S   + 0 c.u.Z V.c.c.c.c.c.B q.c.c.x.z.z.",
"z.c.X.c.c.u.A S.c.c.c.c.c.B q.c.x.X.: : c M v.x.c.c.c.c.B q.F : 0 c.v.u.A S.c.c.c.c.c.B q.c.x.r.L L ",
"U x.u.Z.c.u.A S.c.c.c.c.c.B q.c.X.L I L H N B.c.c.c.c.c.B y.x.z.V.x.x.u.A S.c.c.c.c.c.B q.c.r.L L L ",
"J z.I V.c.u.A A.c.c.c.c.c.B q.c.I L L L H N B.c.c.c.c.c.B q.c.U N.c.x.u.A A.c.c.c.c.c.B y.x.I L L L ",
"L z.e.N.u.u.N V.c.c.c.c.c.B q.c.I L L L H Z B.c.c.c.x.x.B q.x.r.b.c.x.u.Z B.c.c.c.c.c.B q.x.I L J J ",
"L z.c.N.c.u.N N.c.c.c.c.c.B q.c.I J L L H Z B.c.x.x.c.c.B q.x.c.N.c.c.u.N N.x.c.c.c.c.B q.x.U L L I ",
"L z.c.c.c.u.N N.c.c.c.c.c.B q.c.I I L J C N N.c.v.x.c.c.B q.x.x.x.c.c.u.N b.x.c.c.c.c.B q.x.I L J J ",
"L z.c.c.c.u.N n.c.c.c.c.c.B q.c.I J L C q v c.c.c.c.c.c.B y.c.c.c.c.c.u.N N.c.c.c.c.c.B q.x.I L L C ",
"L z.c.c.c.u.m c.c.c.c.c.c.B q.c.I L L q 8 N c.c.c.c.c.c.A p.c.x.c.c.x.i.N c.c.c.c.c.c.B q.x.I L L q ",
"L z.c.c.c.u.m c.c.c.c.c.c.B q.c.I L J 8 8 m c.c.c.c.c.c.B s.b.x.c.c.c.u.N x.x.c.c.c.c.B q.x.I L L 8 ",
"L z.c.x.c.u.c r.c.x.c.c.r.m q.c.I L L 8 8 v X.c.c.c.c.t.M s.b.x.c.c.c.u.v e.c.c.c.c.r.M q.c.P L L 8 "
};
