/* XPM */
static char *monster_21730129981[] = {
/* columns rows colors chars-per-pixel */
"50 50 171 2 ",
"   c #3E3952",
".  c #443B53",
"X  c #4A3950",
"o  c #683D4B",
"O  c #3B445B",
"+  c #3D455A",
"@  c #364D64",
"#  c #394C61",
"$  c #3C5364",
"%  c #365669",
"&  c #375B6B",
"*  c #2B5A72",
"=  c #346171",
"-  c #376C75",
";  c #3B7276",
":  c #3C7B77",
">  c #414155",
",  c #48465B",
"<  c #404958",
"1  c #504459",
"2  c #584A5B",
"3  c #455A5F",
"4  c #6B4D54",
"5  c #6C5458",
"6  c #6D5B5C",
"7  c #4C4960",
"8  c #5A4F63",
"9  c #565569",
"0  c #4F5A72",
"q  c #555C72",
"w  c #604F61",
"e  c #6C5766",
"r  c #6E5967",
"t  c #695E68",
"y  c #715B68",
"u  c #7A5D6A",
"i  c #426C66",
"p  c #437D6E",
"a  c #5E7B6D",
"s  c #5C6375",
"d  c #586B73",
"f  c #566679",
"g  c #6F6465",
"h  c #68606B",
"j  c #7A606C",
"k  c #7C6C6D",
"l  c #66687A",
"z  c #716C70",
"x  c #986457",
"c  c #84636D",
"v  c #876B6E",
"b  c #9B7E68",
"n  c #836771",
"m  c #8B6573",
"M  c #846B73",
"N  c #8E6F76",
"B  c #946D73",
"V  c #9B6975",
"C  c #877178",
"Z  c #89757C",
"A  c #927278",
"S  c #99777C",
"D  c #9D7A7E",
"F  c #A56D78",
"G  c #AB6F7B",
"H  c #A3737B",
"J  c #AD707B",
"K  c #AD797F",
"L  c #B0757D",
"P  c #B2787F",
"I  c #E75A43",
"U  c #3D857C",
"Y  c #4C8270",
"T  c #448D75",
"R  c #5A8973",
"E  c #40907E",
"W  c #638F75",
"Q  c #649779",
"!  c #46A07C",
"~  c #9D8A73",
"^  c #B18E6C",
"/  c #EF895A",
"(  c #DB9667",
")  c #E69966",
"_  c #DFB178",
"`  c #E6B87C",
"'  c #F6C27D",
"]  c #287986",
"[  c #616D83",
"{  c #667583",
"}  c #777485",
"|  c #727C8C",
" . c #A27D80",
".. c #A97D81",
"X. c #B37B81",
"o. c #308788",
"O. c #398E89",
"+. c #2D918F",
"@. c #31998F",
"#. c #2A8C92",
"$. c #2D9191",
"%. c #329B93",
"&. c #37A58D",
"*. c #3AA793",
"=. c #37AB9C",
"-. c #3EB694",
";. c #76808F",
":. c #7B8A97",
">. c #47B785",
",. c #45BD8B",
"<. c #41B991",
"1. c #6FB686",
"2. c #7CBD89",
"3. c #46C08C",
"4. c #48C38A",
"5. c #51C88C",
"6. c #5FCF90",
"7. c #63D291",
"8. c #74DA95",
"9. c #95868D",
"0. c #89939C",
"q. c #AD8585",
"w. c #A58988",
"e. c #B58385",
"r. c #B88386",
"t. c #B9878E",
"y. c #B58888",
"u. c #B98D8B",
"i. c #B3908D",
"p. c #B89B95",
"a. c #9897A3",
"s. c #AA9BA1",
"d. c #B19DA0",
"f. c #96A2A9",
"g. c #9AAAB3",
"h. c #BEAAA8",
"j. c #A9AEB3",
"k. c #AFAFB8",
"l. c #C08F8D",
"z. c #C1928E",
"x. c #C39490",
"c. c #C59994",
"v. c #C89E97",
"b. c #C89F98",
"n. c #C4A69E",
"m. c #CAA39C",
"M. c #CDAA9F",
"N. c #C5A9A6",
"B. c #CEACA2",
"V. c #CEADA9",
"C. c #D1B1A5",
"Z. c #D3B6AE",
"A. c #CFB5B3",
"S. c #D4BAB4",
"D. c #D7BFBC",
"F. c #CFC193",
"G. c #FAD690",
"H. c #FDE39E",
"J. c #FFEFA9",
"K. c #A9BCC4",
"L. c #D9C5C2",
"P. c #DFD2CF",
"I. c #C8CDD1",
"U. c #E4DEDB",
"Y. c #DADFE0",
"T. c #DEE8E6",
"R. c #E8E4E1",
"E. c #E8E9E6",
"W. c #EAEAE7",
"Q. c #EBF1EE",
"!. c #F0F7F4",
/* pixels */
"z.x.x.x.x.u.n x.x.x.x.x.x.N i.c.x.x.x.x.u.j X.r.r.X.r.X.m q.u.z.x.x.x.u.n x.x.x.x.x.x.C i.x.x.u.r.r.",
"x.x.x.x.x.u.n x.x.x.x.x.x.N i.c.x.x.x.x.u.c u.c.z.c.x.l.m e.c.z.x.x.x.u.n x.x.x.x.x.c.B i.v.x.x.z.z.",
"x.x.x.x.x.u.n x.x.x.x.x.x.C e.x.x.x.x.x.u.n x.x.x.x.x.x.N q.z.z.x.x.c.u.n x.x.x.z.z.x.N q.x.x.x.c.z.",
"x.x.x.x.x.u.n x.x.x.x.x.x.N q.x.x.x.x.x.u.n x.x.x.x.x.x.N e.z.c.x.x.z.r.n x.x.x.z.c.z.N q.x.x.x.z.z.",
"u.x.x.x.u.K n z.x.x.x.x.x.N F u.x.x.x.x.H n x.x.x.x.x.x.N S l.z.z.c.u...n x.x.x.c.z.x.N H u.x.x.z.z.",
"M n n n M u n x.x.x.x.x.x.N u k n n n n u M x.x.x.x.x.x.N j c c v M c u n x.x.x.c.z.x.N u c n M M M ",
"y.u.j K y.V C m.x.x.x.x.x.N V e.j H u.y.V M z.z.x.x.z.z.N B y.j H u.t.V N N.x.x.z.x.x.N V u.u H u.y.",
"z.z.j z.z.y.C M.x.x.x.x.x.N q.x.j y.x.x.y.n c.z.x.x.c.z.N q.z.j u.z.z.y.M B.x.x.z.x.x.N e.u.u y.z.z.",
"z.z.z.c.x.i.v z.c.c.z.z.x.N q.x.j n.x.x.u.C M.z.x.x.x.x.N q.x.x.x.x.x.u.n z.x.x.z.z.z.N q.x.u n.c.c.",
"z.c.z.z.x.u.C M.z.z.c.z.x.N q.x.x.c.x.x.u.M z.z.q.A  .x.y n A N q.x.y.C e ~ u.x.c.c.z.N q.x.x.c.z.z.",
"l.z.P c.x.u.Z S.z.c.z.z.x.N e.c.u.C.x.x.u.n c.y.v 6 k  .g e 6 5 c H S 6 4 o N y.z.z.c.N q.c.z.B.x.z.",
"P l.l.C.x.u.Z S.z.z.z.c.x.N i.m.t.B.z.z.u.C M.r b G.F.. J.` _ ) x X 6 ' / I o Z x.z.z.N q.z.X.m.x.z.",
"J l.L M.z.u.C Z.x.x.x.x.x.A I.!.!.P.z.x.u.C M.r ~ J.F.  J.8   ^ ~   5 ' / / 4 A x.x.x.A e.x.x.z.x.x.",
"G l.r.v.z.u.N M.x.x.x.x.z.U.W.!.!.Q.P.x.u.C M.r ~ G.H._ J._ _ ` ` ( ( ` / I o A x.x.z.N q.x.u.z.x.x.",
"J l.z.M.z.u.M m.x.x.x.x.U.!.!.!.!.!.U.x.u.C B.g 2 6 g 6 z 6 6 6 e 5 4 6 4 o X N z.c.c.N q.x.K c.x.x.",
"J l.z.x.x.u.M m.x.x.x.x.!.!.!.!.!.!.U.x.u.M C 9.k.;.9 :.k.0., l 0.| q . [ f f t D z.z.N q.z.L v.x.x.",
"J x.x.x.x.u.M b.x.x.m.L.!.!.!.!.!.R.S.c.u.n 8 } a.} 7 | a.;.7 s ;.{ 0   s 0 0 < c x.x.C q.x.r.z.x.x.",
"J u.x.x.x.t.n x.x.x.V.!.!.!.!.!.R.S.c.z.t.n N 1 O @ % % % % % % % % % % % @   . n x.x.A q.x.x.x.x.x.",
"J l.x.x.x.u.n x.x.c.D.!.!.!.!.!.L.z.z.z.A n x.y % o.@.@.@.@.@.@.&.@.@.@.@.] O , A x.x.N q.x.x.x.x.x.",
"J l.x.x.x.u.n X.x.A.!.!.!.!.!.Q.D.c.u.y.9 y X.t ; *.>.3.4.>.3.4.4.! 4.4.4.$.O C x.z.r.m e.x.x.x.x.x.",
"u.x.x.x.x.u.y u m s.!.!.!.!.!.S.z.c.w.  !.8 r 2 p T 3 =.4.< O.,.T i 4.4.4.$.+ e n n u y q.x.X.X.X.n ",
"x.x.x.x.x.u.u ..t.A.!.!.!.!.!.S.z.z.H   !.Y.h   + >   , +   O.- 0.j.i 4.4.$.$ v N A K c q.x.L G G r ",
"x.x.x.x.x.u.n l.x.S.!.!.!.!.!.A.z.z.... I.Q.g.q a 2.1.E 8., + 0.Y.j.$ 4.4.$.# N S S u.N p.c.L L J r ",
"x.x.x.x.c.t.n x.x.S.!.!.!.!.!.S.c.z.u.A { K.| + 3 Q 6.>.a > { I.T.f.3 4.4.$.$ N S S z.A p.c.L G J m ",
"x.x.x.x.x.u.n x.x.S.!.!.!.!.!.S.x.x.x.x.k l ,   3 U 4.4.; O s g.g.{ U 4.4.$.+ N D w.b.N N.b.L J J G ",
"c.x.x.x.x.u.n x.x.V.U.!.!.!.!.S.x.x.x.x.t.8 y 1 & U T T U   . s [ U -.4.4.&.: z q.b.b.N N.b.L G J J ",
"c.x.x.x.x.u.n x.x.x.B.!.!.!.!.L.m.x.x.x.u.n q.2 + O # # # # # # U <.4.4.4.3.3.U t t.c.N N.n.L G J J ",
"c.c.x.x.x.u.n x.x.x.m.W.!.!.!.!.L.x.x.x.u.j t + % ] #.#.+.#.#.=.<.4.4.4.4.&.-.3.p c.c.B p.v.K J J J ",
"c.x.x.x.x.u.n x.x.x.e.X.!.!.!.!.L.x.x.x.u.. ! i = #.$.=.4.4.4.4.4.4.4.4.4.+ O.=.; r.z.N p.c.X.J J J ",
"c.x.x.x.x.u.n x.x.x.t.u.!.!.!.!.L.x.x.x.u.. ! i = $.=.3.4.4.4.4.4.4.4.4.4.o.$ + y u.x.N i.c.u.X.J J ",
"c.x.x.x.x.u.n x.x.x.x.x.V.W.!.!.W.L.x.x.u.y h > = %.,.4.4.4.4.4.4.4.4.4.4.$.# u y.x.x.N u.c.x.l.X.r.",
"c.x.x.x.x.u.n x.x.x.x.x.x.d.T.!.!.P.x.x.u.k D w = &.4.4.4.8.5.7.8.7.4.4.-.] O A x.x.x.N u.x.x.x.x.x.",
"p.x.x.x.x.u.k x.x.x.x.x.x.N h.R.!.R.S.x.u.n x.S s T ,.-.p W Y R W R T &.%.& t q.x.x.x.N q.x.x.x.z.x.",
"z.x.x.x.x.u.n x.x.x.x.x.x.N q.S.P.U.W.S.u.n x.x.n - &.: 2 r y y y y 9 - ] O  .c.x.x.x.N q.x.x.x.z.c.",
"l.z.x.x.z.J n x.x.x.x.x.x.N H t.z.Z.U.U.H n x.x.A d : . N H u.c.x.x.q.2 *   ..x.x.x.x.N H u.x.x.z.z.",
"c M n n n u n x.x.x.x.x.x.C u n n n M n u M x.x.x.S 1 1 N u c n n n n u , 1 H z.x.x.x.N u n n n M c ",
"y.u.j ..y.V C M.x.x.x.x.x.N V t.u.u.u.r.V M x.z.x.x.x.x.N V y.j H t.y.V C M.c.z.x.x.x.N V y.t.u.u.u.",
"z.x.u z.x.y.M M.x.x.x.x.x.N q.z.x.x.c.z.y.m x.z.x.x.x.x.M q.u.u y.c.z.y.M M.z.z.x.x.x.N q.u.x.x.x.x.",
"z.z.u x.x.u.n x.x.x.x.x.z.N q.z.z.x.c.z.u.M M.z.x.x.x.x.A q.x.c.z.z.c.u.n c.z.c.x.x.x.N q.x.x.x.z.z.",
"c.z.z.x.x.u.C B.x.x.x.x.x.N e.z.z.l.l.u.K M c.z.x.x.x.x.N q.x.l.c.z.z.u.C B.z.z.x.x.x.N q.x.x.x.l.l.",
"l.z.X.x.x.u.Z S.x.x.x.x.x.N q.x.x.X.L J G n c.z.x.x.x.x.N q.c.L x.x.x.u.Z S.x.x.x.x.x.N q.z.z.e.J G ",
"L l.l.V.x.u.Z S.x.x.x.x.x.N q.x.X.J J J G M M.z.x.x.x.x.N q.z.l.B.x.x.u.Z S.x.x.x.x.x.N q.c.X.J J J ",
"J l.X.B.x.u.C Z.x.x.x.x.z.N q.c.L J J J F C B.z.x.x.x.x.N e.x.L m.x.x.u.A Z.x.x.x.x.x.N e.z.L J G J ",
"J l.^ m.x.u.C M.x.x.x.x.c.N q.z.L J J J F M M.c.x.x.x.z.N q.c.X.c.x.z.u.C M.x.x.x.x.x.N q.c.L J J J ",
"J l.x.m.x.u.M m.x.x.x.x.z.N q.z.L J J J F C M.x.x.x.x.x.A q.x.x.m.x.x.u.M m.z.x.c.z.z.N q.x.L J J J ",
"J l.x.x.z.i.M m.x.x.x.x.z.A y.x.L G J G V n m.x.x.x.x.x.C q.x.x.x.x.x.u.M m.x.x.z.z.c.N q.z.L J J G ",
"J l.x.x.z.u.M m.x.x.x.x.x.N q.z.L G G V u n x.x.x.x.x.x.N e.x.x.x.x.x.u.M b.z.c.z.z.z.A q.c.L J J V ",
"J l.x.x.z.u.n x.x.x.x.x.x.N q.x.K J J u y n x.x.x.x.x.x.C i.c.x.x.x.x.u.M x.z.z.z.c.z.N q.z.L J J u ",
"J l.x.x.x.u.n x.x.x.x.x.x.N q.x.L G G y y n x.x.x.x.x.x.N p.c.x.x.x.x.u.n u.c.x.x.x.x.A q.z.L G J r ",
"J l.x.x.x.u.c X.x.x.x.x.r.m q.x.L G G y r c X.x.x.x.x.r.m p.c.x.x.x.x.u.j e.x.x.x.x.r.v e.z...J J r "
};
