/* XPM */
static char *monster_31730129982[] = {
/* columns rows colors chars-per-pixel */
"50 50 174 2 ",
"   c #3F3851",
".  c #443C54",
"X  c #3E465A",
"o  c #3E4D5F",
"O  c #3B5767",
"+  c #2F5971",
"@  c #3C636D",
"#  c #2E6C7C",
"$  c #316C79",
"%  c #2E727E",
"&  c #444356",
"*  c #444159",
"=  c #49465E",
"-  c #444B5A",
";  c #4B4B5D",
":  c #52455A",
">  c #5C4D5E",
",  c #41585E",
"<  c #6C575A",
"1  c #4C4960",
"2  c #524D63",
"3  c #405960",
"4  c #565066",
"5  c #52546A",
"6  c #55596E",
"7  c #604F61",
"8  c #635464",
"9  c #6C5766",
"0  c #6E5967",
"q  c #715B69",
"w  c #7B5D6B",
"e  c #4E636E",
"r  c #437D6D",
"t  c #7A606C",
"y  c #666676",
"u  c #796970",
"i  c #8F464B",
"p  c #B14541",
"a  c #AB5B4F",
"s  c #BF5D4C",
"d  c #AD6B57",
"f  c #836C62",
"g  c #82626E",
"h  c #977968",
"j  c #836671",
"k  c #8D6373",
"l  c #846B73",
"z  c #8E6F76",
"x  c #9B6975",
"c  c #877C72",
"v  c #877178",
"b  c #89757C",
"n  c #937279",
"m  c #99767B",
"M  c #997B7B",
"N  c #AF7C62",
"B  c #A56D78",
"V  c #AB6F7B",
"C  c #A3737B",
"Z  c #AD707B",
"A  c #AC797F",
"S  c #B0757D",
"D  c #B2787F",
"F  c #D66C4F",
"G  c #448571",
"H  c #458F75",
"J  c #45997A",
"K  c #46A07B",
"L  c #998878",
"P  c #9F937D",
"I  c #A58268",
"U  c #B18D6C",
"Y  c #B49F7C",
"T  c #DA855D",
"R  c #EE8558",
"E  c #C7986D",
"W  c #DD9C6A",
"Q  c #DFB178",
"!  c #F2A56B",
"~  c #F6C27D",
"^  c #2E7681",
"/  c #2B7B86",
"(  c #5B748B",
")  c #7E7E8C",
"_  c #897983",
"`  c #A27D80",
"'  c #A97D81",
"]  c #B37B81",
"[  c #3A8081",
"{  c #358E8B",
"}  c #399888",
"|  c #298990",
" . c #2D9493",
".. c #359992",
"X. c #38A68D",
"o. c #3CAE8C",
"O. c #37A897",
"+. c #39AE9A",
"@. c #3EB594",
"#. c #428283",
"$. c #419C80",
"%. c #599582",
"&. c #6D879B",
"*. c #7F8E9B",
"=. c #47B384",
"-. c #4FB785",
";. c #41B28D",
":. c #44BC8C",
">. c #5EBE88",
",. c #43BB90",
"<. c #7CBD89",
"1. c #7C95A5",
"2. c #46C08C",
"3. c #48C38A",
"4. c #58CC8E",
"5. c #79CC8F",
"6. c #68D492",
"7. c #978D96",
"8. c #AE8585",
"9. c #A58988",
"0. c #B58385",
"q. c #B88386",
"w. c #BA8788",
"e. c #B48988",
"r. c #B98D8B",
"t. c #B3908D",
"y. c #B69793",
"u. c #B89B95",
"i. c #B6A684",
"p. c #879DA9",
"a. c #8CA9B5",
"s. c #99B3BD",
"d. c #BEA9A4",
"f. c #C08F8D",
"g. c #C1928E",
"h. c #C39490",
"j. c #C59A94",
"k. c #C89E97",
"l. c #C89F98",
"z. c #C2B38A",
"x. c #C4A69E",
"c. c #CAA39B",
"v. c #CDAA9F",
"b. c #E2BE85",
"n. c #CBA7A5",
"m. c #CEABA2",
"M. c #C0ADA8",
"N. c #D1B1A5",
"B. c #D3B6AE",
"V. c #D5BBB3",
"C. c #D7BFBB",
"Z. c #86D392",
"A. c #91EA9C",
"S. c #DAC490",
"D. c #EACE92",
"F. c #FDE39E",
"G. c #FEECA6",
"H. c #A5C2C7",
"J. c #B9D7D3",
"K. c #D8C7C4",
"L. c #DFD2CF",
"P. c #C9D9D9",
"I. c #DAD7D6",
"U. c #E0D3CF",
"Y. c #E2D8D5",
"T. c #E4DEDB",
"R. c #DADFE0",
"E. c #D5E3E4",
"W. c #E5E7E5",
"Q. c #EAEBE7",
"!. c #E3EDEC",
"~. c #EEF2EE",
"^. c #ECF5F2",
"/. c #F0F7F4",
/* pixels */
"g.h.h.h.h.r.j h.h.h.h.h.h.z t.j.g.h.h.h.t.t ] q.q.q.q.] k A r.h.h.h.h.r.j h.h.h.h.h.h.z t.h.h.r.w.q.",
"h.h.h.h.h.r.j h.h.h.h.h.h.z t.j.g.h.h.h.r.g f.g.g.g.g.g.z 8.h.h.h.h.h.r.j h.h.h.h.h.h.z t.j.h.h.g.g.",
"h.h.h.h.h.r.j h.h.h.h.h.h.z 8.h.h.h.h.h.r.j h.h.g.h.h.h.n 8.h.h.h.h.g.r.j h.h.h.h.h.h.z 8.h.h.h.g.h.",
"h.h.h.h.h.r.j h.h.h.h.h.h.z 8.h.h.h.h.h.r.l h.h.h.h.h.h.z 8.h.h.h.h.h.r.j h.h.h.h.h.h.z 0.h.h.h.g.h.",
"r.h.h.h.r.A j h.h.h.h.h.g.z C r.h.h.g.g.A j h.h.h.h.h.h.z C r.g.g.g.g.Z l h.h.h.h.h.h.z m f.g.g.g.g.",
"j j j j j t j h.h.h.h.h.h.z w j j l j j w j h.h.h.h.h.h.z t l l l l l w j h.h.h.h.h.h.z t j l j l l ",
"e.r.w A e.x l v.h.h.h.h.h.z x 0.t C r.e.x j g.h.h.h.h.h.z x 0.t C r.e.x v c.h.h.h.h.h.z x q.w C r.e.",
"g.h.t g.h.e.v v.h.h.h.h.h.z 8.g.t e.h.h.e.l h.h.h.h.h.g.z 8.r.t r.h.g.e.v v.h.h.h.h.h.z P f.w r.g.g.",
"g.h.h.h.h.r.l h.h.h.h.h.h.z 8.h.t n.h.h.r.l m.h.h.h.h.h.z 8.h.h.h.h.h.r.l g.h.h.h.h.h.z 0.h.t x.h.h.",
"h.h.g.h.h.r.v v.h.h.h.h.h.z 8.U.^.L.h.h.r.j h.h.h.h.h.h.z 0.g.g.h.h.h.r.v m.h.h.h.h.h.z 8.h.h.h.h.h.",
"f.g.] j.h.r.b V.h.h.h.h.h.W.W.~./.~.L.h.r.l h.h.h.r.h.g.z 8.h.] g.g.g.r.b V.h.h.h.h.h.z 8.h.f.N.h.h.",
"D g.r.N.h.r.b V.h.g.g.k.T./././././.T.h.r.: 8 m n < 4 8 ; 0.g.l 9 4 t r.b V.h.h.h.h.h.z 8.h.] c.h.h.",
"Z f.D v.h.r.b B.h.h.n.Y././././.Y.V.B.r.< U i.c L Y U U d < 9 h N a i 9 v B.h.h.h.h.h.z 8.h.h.h.h.h.",
"V f.] c.g.r.l v.h.h.m./././.K.K.n.r.h.e.  F.G.c P S.h I ! .   U ! R s . v m.h.h.h.h.h.z 8.h.r.g.h.h.",
"S f.g.c.h.r.l c.h.k.C././.I.t.h.] j.h.e.  F.G.L i.z.< f ~ < 7 E ! R s . l c.h.h.h.h.h.z 8.h.Z j.h.h.",
"V f.g.h.h.r.l c.h.V././.Q.z 8.h.Z l.r.e.. Q D.b.S.D.Q Q Q Q T W W F p . l c.h.h.h.h.h.z 8.h.S k.h.h.",
"V g.h.h.h.r.l l.h.V./.Q.h.z 8.h.q.h.h.e.            .                   l c.h.h.h.h.h.z 8.h.w.g.h.h.",
"S r.h.h.h.r.j h.h.V./.Q.h.z 8.h.h.h.` 2 /./.4 *.P.E.p.1 H.H.1.5 6 &.&.(   r.h.h.h.h.h.z 8.h.h.h.h.h.",
"V f.h.h.h.r.j h.h.V.T.c.h.z 8.h.h.h.`   4 4 . & 2 2 ;   1 1 * . . * * *   h.h.h.h.h.h.z 8.h.h.h.h.h.",
"V f.h.h.h.r.j ] h.V.T.g.w.j 8.h.h.h.r.m   + % % / ^ ^ ^ / ^ ^ ^ % # +     0.h.h.h.h.w.j 8.h.h.h.h.h.",
"f.h.h.h.h.r.q w j _ 7.j t q 0.h.h.` l e.. | o.o.o.o.o.o.o.o.o.o.o.} # . > t l j j j w q 0.h.] ] ] j ",
"h.h.h.h.h.r.w ' r.e.k n A g 8.g.` _ 7.t   ,.3.J $.:.=.G @.3.H K 3.o.^ . w A r.w.z n A g 8.h.S Z V q ",
"h.h.h.h.h.r.j f.h.g.m m g.z y.j.j *.P.y . J J O @ } G X +.K y %.=.o.^ . l f.h.g.m m f.z y.j.S Z Z 9 ",
"h.h.h.h.h.r.j h.h.h.m m g.z y.k.j ) ~.I.=   ; ; - - & X ..4 R.) r o./ - t g.h.h.m m g.z y.k.S Z Z k ",
"h.h.h.h.h.r.j h.h.h.C 9.c.z d.c.l y J.!.a.  Z.A.6.6.<.    /./.) r o. .... g.g.g.M 9.l.z M.c.S S Z V ",
"j.h.h.h.h.r.j h.h.h.h.c.k.z d.c.j.z 5 p.    . H 3.H . - a./.J.y r 3.2.2.3.  r.g.h.l.k.z M.l.S V Z Z ",
"j.h.h.h.h.r.j h.g.h.q.f.g.z d.c.j.z   =     } ;.3.;.%   1 s.6 #.;.3.2.2.+.  e.g.w.w.h.n d.l.S Z V V ",
"j.h.h.h.h.r.j h.g.g.g.j.k.z u.k.g.n , H     o O , 3 ; .   5 [ ,.2.:.@.X.O A u.g.g.j.j.z u.j.S V S V ",
"j.h.h.h.h.r.j h.h.h.q.q.g.z u.k.h.e.u 3   + $ # $ $ $ $ # [ ;.2.3.J e @ 0 h.h.h.q.q.h.z u.k.] S Z Z ",
"j.h.h.h.h.r.j h.h.h.f.q.g.z t.j.h.h.r.t   / | | O.X.X.X.X.@.2.3.3.$.+ . j h.h.h.w.w.h.z t.j.w.D Z Z ",
"j.h.h.h.u.r.j h.h.h.j.g.h.z t.h.g.g.h.e.   . .X.:.3.4.3.4.4.3.3.,.O.^ . j h.h.h.h.h.h.z t.j.g.f.q.] ",
"j.h.h.h.h.r.j h.h.h.g.g.j.z t.j.j.g.u.e.. +.:.:.=.>.5.-.Z.Z.-.=.;.{ + : j h.h.h.h.h.h.z r.h.h.h.h.h.",
"h.h.h.h.g.r.j h.h.h.h.h.h.z 8.h.h.h.h.e.  3.+.@               $ | $ 8 r.j h.h.h.h.h.g.z 8.g.j.g.h.h.",
"h.h.h.h.g.r.j h.h.h.h.h.h.z 8.h.h.h.h.e.  +.X n h.h.h.h.z 0.:     9 r.r.j h.h.h.h.h.j.z 8.g.j.g.h.h.",
"f.h.h.h.g.A j h.h.h.h.h.h.z m f.h.h.h.e.  - C r.h.h.h.h.z m 0.8.e.r.h.A j h.h.h.h.h.h.z C g.g.g.h.g.",
"g j j j j w j g.h.h.h.h.h.z w g j j j t 4 q h.h.h.h.h.h.z w j j l j g w j h.h.h.h.h.h.v w g l l j j ",
"e.r.t A e.x l v.h.h.h.h.h.z x e.r.r.r.e.x j h.h.h.h.h.h.v x e.t C t.w.x z v.h.h.h.h.h.z x ] r.r.r.w.",
"g.h.t h.h.e.v m.h.h.h.h.h.z 8.g.h.h.h.h.e.l h.h.h.h.h.h.z 8.g.t r.g.g.e.l v.h.h.h.h.h.z P f.h.h.h.h.",
"h.h.w h.h.r.j h.h.h.h.h.h.z 8.g.h.h.h.g.r.l v.h.h.h.h.h.z 8.h.g.g.g.g.r.j h.h.h.h.h.h.z 0.h.h.h.g.g.",
"h.h.r.h.h.r.v m.h.h.h.h.h.z 8.g.h.g.f.f.A l h.h.h.h.h.h.z 8.h.g.g.j.j.r.v m.h.h.h.h.h.z 8.h.h.g.f.f.",
"f.g.] j.h.r.b V.h.h.h.h.h.z 0.h.h.] S Z V j h.h.h.h.h.h.z 8.g.D h.h.g.r.b V.h.h.h.h.h.z e.h.f.] V Z ",
"] f.f.m.h.r.b V.h.h.h.h.h.z 8.h.] Z Z Z B z v.h.h.h.h.h.z 0.h.f.m.h.h.t.b V.h.h.h.h.h.z 8.h.q.Z S V ",
"V f.] n.h.r.b B.h.h.h.h.h.z 8.h.S Z Z Z B l m.h.h.h.h.h.z 8.h.S c.g.h.r.b B.h.h.h.h.h.z 8.h.S Z Z Z ",
"V f.U c.h.t.l v.h.h.h.h.h.z 8.h.S Z Z Z B l m.h.h.h.h.h.z 8.g.q.k.h.g.r.z v.h.h.h.h.h.z 8.h.S Z Z Z ",
"V f.h.c.g.r.l c.h.h.h.h.h.z 8.h.S V Z Z B v v.h.h.h.h.h.z 8.g.h.c.h.h.r.l c.h.h.h.h.h.z 8.h.S Z Z V ",
"V f.h.h.j.r.l c.h.h.h.h.h.z 8.h.D V Z V x l c.h.h.h.h.h.z 8.h.h.g.h.h.r.l l.h.h.h.h.h.z 8.h.S Z Z Z ",
"Z f.h.h.g.r.l c.h.h.h.h.h.z 8.h.S V Z x w j h.h.h.h.h.h.z 8.h.g.h.h.h.r.l l.h.h.h.h.h.z 0.h.S V Z x ",
"Z f.h.h.g.t.j h.h.h.h.h.h.z 8.h.A Z Z w 9 j h.h.h.h.h.h.z y.j.h.h.h.h.r.l h.h.h.h.h.h.v 8.h.S Z Z w ",
"Z f.h.h.h.w.j h.h.h.h.h.h.z 8.h.S Z V 0 0 j h.h.h.h.h.h.v u.j.h.h.h.h.r.l g.g.g.h.h.h.z 0.g.S Z Z 9 ",
"Z f.h.h.h.f.g ] h.h.h.h.q.k 8.h.S Z Z 0 0 g ] h.h.h.h.w.k u.k.g.h.h.g.t.g 0.h.h.h.h.w.j 8.h.S Z Z q "
};
